G75*
%MOIN*%
%OFA0B0*%
%FSLAX25Y25*%
%IPPOS*%
%LPD*%
%AMOC8*
5,1,8,0,0,1.08239X$1,22.5*
%
%ADD10C,0.00000*%
%ADD11C,0.00800*%
%ADD12C,0.00400*%
D10*
X0011930Y0020198D02*
X0011930Y0085158D01*
X0097363Y0085158D01*
X0097363Y0020198D01*
X0011930Y0020198D01*
X0013701Y0024922D02*
X0013703Y0025030D01*
X0013709Y0025139D01*
X0013719Y0025247D01*
X0013733Y0025354D01*
X0013751Y0025461D01*
X0013772Y0025568D01*
X0013798Y0025673D01*
X0013828Y0025778D01*
X0013861Y0025881D01*
X0013898Y0025983D01*
X0013939Y0026083D01*
X0013983Y0026182D01*
X0014032Y0026280D01*
X0014083Y0026375D01*
X0014138Y0026468D01*
X0014197Y0026560D01*
X0014259Y0026649D01*
X0014324Y0026736D01*
X0014392Y0026820D01*
X0014463Y0026902D01*
X0014537Y0026981D01*
X0014614Y0027057D01*
X0014694Y0027131D01*
X0014777Y0027201D01*
X0014862Y0027269D01*
X0014949Y0027333D01*
X0015039Y0027394D01*
X0015131Y0027452D01*
X0015225Y0027506D01*
X0015321Y0027557D01*
X0015418Y0027604D01*
X0015518Y0027648D01*
X0015619Y0027688D01*
X0015721Y0027724D01*
X0015824Y0027756D01*
X0015929Y0027785D01*
X0016035Y0027809D01*
X0016141Y0027830D01*
X0016248Y0027847D01*
X0016356Y0027860D01*
X0016464Y0027869D01*
X0016573Y0027874D01*
X0016681Y0027875D01*
X0016790Y0027872D01*
X0016898Y0027865D01*
X0017006Y0027854D01*
X0017113Y0027839D01*
X0017220Y0027820D01*
X0017326Y0027797D01*
X0017431Y0027771D01*
X0017536Y0027740D01*
X0017638Y0027706D01*
X0017740Y0027668D01*
X0017840Y0027626D01*
X0017939Y0027581D01*
X0018036Y0027532D01*
X0018130Y0027479D01*
X0018223Y0027423D01*
X0018314Y0027364D01*
X0018403Y0027301D01*
X0018489Y0027236D01*
X0018573Y0027167D01*
X0018654Y0027095D01*
X0018732Y0027020D01*
X0018808Y0026942D01*
X0018881Y0026861D01*
X0018951Y0026778D01*
X0019017Y0026693D01*
X0019081Y0026605D01*
X0019141Y0026514D01*
X0019198Y0026422D01*
X0019251Y0026327D01*
X0019301Y0026231D01*
X0019347Y0026133D01*
X0019390Y0026033D01*
X0019429Y0025932D01*
X0019464Y0025829D01*
X0019496Y0025726D01*
X0019523Y0025621D01*
X0019547Y0025515D01*
X0019567Y0025408D01*
X0019583Y0025301D01*
X0019595Y0025193D01*
X0019603Y0025085D01*
X0019607Y0024976D01*
X0019607Y0024868D01*
X0019603Y0024759D01*
X0019595Y0024651D01*
X0019583Y0024543D01*
X0019567Y0024436D01*
X0019547Y0024329D01*
X0019523Y0024223D01*
X0019496Y0024118D01*
X0019464Y0024015D01*
X0019429Y0023912D01*
X0019390Y0023811D01*
X0019347Y0023711D01*
X0019301Y0023613D01*
X0019251Y0023517D01*
X0019198Y0023422D01*
X0019141Y0023330D01*
X0019081Y0023239D01*
X0019017Y0023151D01*
X0018951Y0023066D01*
X0018881Y0022983D01*
X0018808Y0022902D01*
X0018732Y0022824D01*
X0018654Y0022749D01*
X0018573Y0022677D01*
X0018489Y0022608D01*
X0018403Y0022543D01*
X0018314Y0022480D01*
X0018223Y0022421D01*
X0018131Y0022365D01*
X0018036Y0022312D01*
X0017939Y0022263D01*
X0017840Y0022218D01*
X0017740Y0022176D01*
X0017638Y0022138D01*
X0017536Y0022104D01*
X0017431Y0022073D01*
X0017326Y0022047D01*
X0017220Y0022024D01*
X0017113Y0022005D01*
X0017006Y0021990D01*
X0016898Y0021979D01*
X0016790Y0021972D01*
X0016681Y0021969D01*
X0016573Y0021970D01*
X0016464Y0021975D01*
X0016356Y0021984D01*
X0016248Y0021997D01*
X0016141Y0022014D01*
X0016035Y0022035D01*
X0015929Y0022059D01*
X0015824Y0022088D01*
X0015721Y0022120D01*
X0015619Y0022156D01*
X0015518Y0022196D01*
X0015418Y0022240D01*
X0015321Y0022287D01*
X0015225Y0022338D01*
X0015131Y0022392D01*
X0015039Y0022450D01*
X0014949Y0022511D01*
X0014862Y0022575D01*
X0014777Y0022643D01*
X0014694Y0022713D01*
X0014614Y0022787D01*
X0014537Y0022863D01*
X0014463Y0022942D01*
X0014392Y0023024D01*
X0014324Y0023108D01*
X0014259Y0023195D01*
X0014197Y0023284D01*
X0014138Y0023376D01*
X0014083Y0023469D01*
X0014032Y0023564D01*
X0013983Y0023662D01*
X0013939Y0023761D01*
X0013898Y0023861D01*
X0013861Y0023963D01*
X0013828Y0024066D01*
X0013798Y0024171D01*
X0013772Y0024276D01*
X0013751Y0024383D01*
X0013733Y0024490D01*
X0013719Y0024597D01*
X0013709Y0024705D01*
X0013703Y0024814D01*
X0013701Y0024922D01*
X0013701Y0080434D02*
X0013703Y0080542D01*
X0013709Y0080651D01*
X0013719Y0080759D01*
X0013733Y0080866D01*
X0013751Y0080973D01*
X0013772Y0081080D01*
X0013798Y0081185D01*
X0013828Y0081290D01*
X0013861Y0081393D01*
X0013898Y0081495D01*
X0013939Y0081595D01*
X0013983Y0081694D01*
X0014032Y0081792D01*
X0014083Y0081887D01*
X0014138Y0081980D01*
X0014197Y0082072D01*
X0014259Y0082161D01*
X0014324Y0082248D01*
X0014392Y0082332D01*
X0014463Y0082414D01*
X0014537Y0082493D01*
X0014614Y0082569D01*
X0014694Y0082643D01*
X0014777Y0082713D01*
X0014862Y0082781D01*
X0014949Y0082845D01*
X0015039Y0082906D01*
X0015131Y0082964D01*
X0015225Y0083018D01*
X0015321Y0083069D01*
X0015418Y0083116D01*
X0015518Y0083160D01*
X0015619Y0083200D01*
X0015721Y0083236D01*
X0015824Y0083268D01*
X0015929Y0083297D01*
X0016035Y0083321D01*
X0016141Y0083342D01*
X0016248Y0083359D01*
X0016356Y0083372D01*
X0016464Y0083381D01*
X0016573Y0083386D01*
X0016681Y0083387D01*
X0016790Y0083384D01*
X0016898Y0083377D01*
X0017006Y0083366D01*
X0017113Y0083351D01*
X0017220Y0083332D01*
X0017326Y0083309D01*
X0017431Y0083283D01*
X0017536Y0083252D01*
X0017638Y0083218D01*
X0017740Y0083180D01*
X0017840Y0083138D01*
X0017939Y0083093D01*
X0018036Y0083044D01*
X0018130Y0082991D01*
X0018223Y0082935D01*
X0018314Y0082876D01*
X0018403Y0082813D01*
X0018489Y0082748D01*
X0018573Y0082679D01*
X0018654Y0082607D01*
X0018732Y0082532D01*
X0018808Y0082454D01*
X0018881Y0082373D01*
X0018951Y0082290D01*
X0019017Y0082205D01*
X0019081Y0082117D01*
X0019141Y0082026D01*
X0019198Y0081934D01*
X0019251Y0081839D01*
X0019301Y0081743D01*
X0019347Y0081645D01*
X0019390Y0081545D01*
X0019429Y0081444D01*
X0019464Y0081341D01*
X0019496Y0081238D01*
X0019523Y0081133D01*
X0019547Y0081027D01*
X0019567Y0080920D01*
X0019583Y0080813D01*
X0019595Y0080705D01*
X0019603Y0080597D01*
X0019607Y0080488D01*
X0019607Y0080380D01*
X0019603Y0080271D01*
X0019595Y0080163D01*
X0019583Y0080055D01*
X0019567Y0079948D01*
X0019547Y0079841D01*
X0019523Y0079735D01*
X0019496Y0079630D01*
X0019464Y0079527D01*
X0019429Y0079424D01*
X0019390Y0079323D01*
X0019347Y0079223D01*
X0019301Y0079125D01*
X0019251Y0079029D01*
X0019198Y0078934D01*
X0019141Y0078842D01*
X0019081Y0078751D01*
X0019017Y0078663D01*
X0018951Y0078578D01*
X0018881Y0078495D01*
X0018808Y0078414D01*
X0018732Y0078336D01*
X0018654Y0078261D01*
X0018573Y0078189D01*
X0018489Y0078120D01*
X0018403Y0078055D01*
X0018314Y0077992D01*
X0018223Y0077933D01*
X0018131Y0077877D01*
X0018036Y0077824D01*
X0017939Y0077775D01*
X0017840Y0077730D01*
X0017740Y0077688D01*
X0017638Y0077650D01*
X0017536Y0077616D01*
X0017431Y0077585D01*
X0017326Y0077559D01*
X0017220Y0077536D01*
X0017113Y0077517D01*
X0017006Y0077502D01*
X0016898Y0077491D01*
X0016790Y0077484D01*
X0016681Y0077481D01*
X0016573Y0077482D01*
X0016464Y0077487D01*
X0016356Y0077496D01*
X0016248Y0077509D01*
X0016141Y0077526D01*
X0016035Y0077547D01*
X0015929Y0077571D01*
X0015824Y0077600D01*
X0015721Y0077632D01*
X0015619Y0077668D01*
X0015518Y0077708D01*
X0015418Y0077752D01*
X0015321Y0077799D01*
X0015225Y0077850D01*
X0015131Y0077904D01*
X0015039Y0077962D01*
X0014949Y0078023D01*
X0014862Y0078087D01*
X0014777Y0078155D01*
X0014694Y0078225D01*
X0014614Y0078299D01*
X0014537Y0078375D01*
X0014463Y0078454D01*
X0014392Y0078536D01*
X0014324Y0078620D01*
X0014259Y0078707D01*
X0014197Y0078796D01*
X0014138Y0078888D01*
X0014083Y0078981D01*
X0014032Y0079076D01*
X0013983Y0079174D01*
X0013939Y0079273D01*
X0013898Y0079373D01*
X0013861Y0079475D01*
X0013828Y0079578D01*
X0013798Y0079683D01*
X0013772Y0079788D01*
X0013751Y0079895D01*
X0013733Y0080002D01*
X0013719Y0080109D01*
X0013709Y0080217D01*
X0013703Y0080326D01*
X0013701Y0080434D01*
X0089686Y0080434D02*
X0089688Y0080542D01*
X0089694Y0080651D01*
X0089704Y0080759D01*
X0089718Y0080866D01*
X0089736Y0080973D01*
X0089757Y0081080D01*
X0089783Y0081185D01*
X0089813Y0081290D01*
X0089846Y0081393D01*
X0089883Y0081495D01*
X0089924Y0081595D01*
X0089968Y0081694D01*
X0090017Y0081792D01*
X0090068Y0081887D01*
X0090123Y0081980D01*
X0090182Y0082072D01*
X0090244Y0082161D01*
X0090309Y0082248D01*
X0090377Y0082332D01*
X0090448Y0082414D01*
X0090522Y0082493D01*
X0090599Y0082569D01*
X0090679Y0082643D01*
X0090762Y0082713D01*
X0090847Y0082781D01*
X0090934Y0082845D01*
X0091024Y0082906D01*
X0091116Y0082964D01*
X0091210Y0083018D01*
X0091306Y0083069D01*
X0091403Y0083116D01*
X0091503Y0083160D01*
X0091604Y0083200D01*
X0091706Y0083236D01*
X0091809Y0083268D01*
X0091914Y0083297D01*
X0092020Y0083321D01*
X0092126Y0083342D01*
X0092233Y0083359D01*
X0092341Y0083372D01*
X0092449Y0083381D01*
X0092558Y0083386D01*
X0092666Y0083387D01*
X0092775Y0083384D01*
X0092883Y0083377D01*
X0092991Y0083366D01*
X0093098Y0083351D01*
X0093205Y0083332D01*
X0093311Y0083309D01*
X0093416Y0083283D01*
X0093521Y0083252D01*
X0093623Y0083218D01*
X0093725Y0083180D01*
X0093825Y0083138D01*
X0093924Y0083093D01*
X0094021Y0083044D01*
X0094115Y0082991D01*
X0094208Y0082935D01*
X0094299Y0082876D01*
X0094388Y0082813D01*
X0094474Y0082748D01*
X0094558Y0082679D01*
X0094639Y0082607D01*
X0094717Y0082532D01*
X0094793Y0082454D01*
X0094866Y0082373D01*
X0094936Y0082290D01*
X0095002Y0082205D01*
X0095066Y0082117D01*
X0095126Y0082026D01*
X0095183Y0081934D01*
X0095236Y0081839D01*
X0095286Y0081743D01*
X0095332Y0081645D01*
X0095375Y0081545D01*
X0095414Y0081444D01*
X0095449Y0081341D01*
X0095481Y0081238D01*
X0095508Y0081133D01*
X0095532Y0081027D01*
X0095552Y0080920D01*
X0095568Y0080813D01*
X0095580Y0080705D01*
X0095588Y0080597D01*
X0095592Y0080488D01*
X0095592Y0080380D01*
X0095588Y0080271D01*
X0095580Y0080163D01*
X0095568Y0080055D01*
X0095552Y0079948D01*
X0095532Y0079841D01*
X0095508Y0079735D01*
X0095481Y0079630D01*
X0095449Y0079527D01*
X0095414Y0079424D01*
X0095375Y0079323D01*
X0095332Y0079223D01*
X0095286Y0079125D01*
X0095236Y0079029D01*
X0095183Y0078934D01*
X0095126Y0078842D01*
X0095066Y0078751D01*
X0095002Y0078663D01*
X0094936Y0078578D01*
X0094866Y0078495D01*
X0094793Y0078414D01*
X0094717Y0078336D01*
X0094639Y0078261D01*
X0094558Y0078189D01*
X0094474Y0078120D01*
X0094388Y0078055D01*
X0094299Y0077992D01*
X0094208Y0077933D01*
X0094116Y0077877D01*
X0094021Y0077824D01*
X0093924Y0077775D01*
X0093825Y0077730D01*
X0093725Y0077688D01*
X0093623Y0077650D01*
X0093521Y0077616D01*
X0093416Y0077585D01*
X0093311Y0077559D01*
X0093205Y0077536D01*
X0093098Y0077517D01*
X0092991Y0077502D01*
X0092883Y0077491D01*
X0092775Y0077484D01*
X0092666Y0077481D01*
X0092558Y0077482D01*
X0092449Y0077487D01*
X0092341Y0077496D01*
X0092233Y0077509D01*
X0092126Y0077526D01*
X0092020Y0077547D01*
X0091914Y0077571D01*
X0091809Y0077600D01*
X0091706Y0077632D01*
X0091604Y0077668D01*
X0091503Y0077708D01*
X0091403Y0077752D01*
X0091306Y0077799D01*
X0091210Y0077850D01*
X0091116Y0077904D01*
X0091024Y0077962D01*
X0090934Y0078023D01*
X0090847Y0078087D01*
X0090762Y0078155D01*
X0090679Y0078225D01*
X0090599Y0078299D01*
X0090522Y0078375D01*
X0090448Y0078454D01*
X0090377Y0078536D01*
X0090309Y0078620D01*
X0090244Y0078707D01*
X0090182Y0078796D01*
X0090123Y0078888D01*
X0090068Y0078981D01*
X0090017Y0079076D01*
X0089968Y0079174D01*
X0089924Y0079273D01*
X0089883Y0079373D01*
X0089846Y0079475D01*
X0089813Y0079578D01*
X0089783Y0079683D01*
X0089757Y0079788D01*
X0089736Y0079895D01*
X0089718Y0080002D01*
X0089704Y0080109D01*
X0089694Y0080217D01*
X0089688Y0080326D01*
X0089686Y0080434D01*
X0089686Y0024922D02*
X0089688Y0025030D01*
X0089694Y0025139D01*
X0089704Y0025247D01*
X0089718Y0025354D01*
X0089736Y0025461D01*
X0089757Y0025568D01*
X0089783Y0025673D01*
X0089813Y0025778D01*
X0089846Y0025881D01*
X0089883Y0025983D01*
X0089924Y0026083D01*
X0089968Y0026182D01*
X0090017Y0026280D01*
X0090068Y0026375D01*
X0090123Y0026468D01*
X0090182Y0026560D01*
X0090244Y0026649D01*
X0090309Y0026736D01*
X0090377Y0026820D01*
X0090448Y0026902D01*
X0090522Y0026981D01*
X0090599Y0027057D01*
X0090679Y0027131D01*
X0090762Y0027201D01*
X0090847Y0027269D01*
X0090934Y0027333D01*
X0091024Y0027394D01*
X0091116Y0027452D01*
X0091210Y0027506D01*
X0091306Y0027557D01*
X0091403Y0027604D01*
X0091503Y0027648D01*
X0091604Y0027688D01*
X0091706Y0027724D01*
X0091809Y0027756D01*
X0091914Y0027785D01*
X0092020Y0027809D01*
X0092126Y0027830D01*
X0092233Y0027847D01*
X0092341Y0027860D01*
X0092449Y0027869D01*
X0092558Y0027874D01*
X0092666Y0027875D01*
X0092775Y0027872D01*
X0092883Y0027865D01*
X0092991Y0027854D01*
X0093098Y0027839D01*
X0093205Y0027820D01*
X0093311Y0027797D01*
X0093416Y0027771D01*
X0093521Y0027740D01*
X0093623Y0027706D01*
X0093725Y0027668D01*
X0093825Y0027626D01*
X0093924Y0027581D01*
X0094021Y0027532D01*
X0094115Y0027479D01*
X0094208Y0027423D01*
X0094299Y0027364D01*
X0094388Y0027301D01*
X0094474Y0027236D01*
X0094558Y0027167D01*
X0094639Y0027095D01*
X0094717Y0027020D01*
X0094793Y0026942D01*
X0094866Y0026861D01*
X0094936Y0026778D01*
X0095002Y0026693D01*
X0095066Y0026605D01*
X0095126Y0026514D01*
X0095183Y0026422D01*
X0095236Y0026327D01*
X0095286Y0026231D01*
X0095332Y0026133D01*
X0095375Y0026033D01*
X0095414Y0025932D01*
X0095449Y0025829D01*
X0095481Y0025726D01*
X0095508Y0025621D01*
X0095532Y0025515D01*
X0095552Y0025408D01*
X0095568Y0025301D01*
X0095580Y0025193D01*
X0095588Y0025085D01*
X0095592Y0024976D01*
X0095592Y0024868D01*
X0095588Y0024759D01*
X0095580Y0024651D01*
X0095568Y0024543D01*
X0095552Y0024436D01*
X0095532Y0024329D01*
X0095508Y0024223D01*
X0095481Y0024118D01*
X0095449Y0024015D01*
X0095414Y0023912D01*
X0095375Y0023811D01*
X0095332Y0023711D01*
X0095286Y0023613D01*
X0095236Y0023517D01*
X0095183Y0023422D01*
X0095126Y0023330D01*
X0095066Y0023239D01*
X0095002Y0023151D01*
X0094936Y0023066D01*
X0094866Y0022983D01*
X0094793Y0022902D01*
X0094717Y0022824D01*
X0094639Y0022749D01*
X0094558Y0022677D01*
X0094474Y0022608D01*
X0094388Y0022543D01*
X0094299Y0022480D01*
X0094208Y0022421D01*
X0094116Y0022365D01*
X0094021Y0022312D01*
X0093924Y0022263D01*
X0093825Y0022218D01*
X0093725Y0022176D01*
X0093623Y0022138D01*
X0093521Y0022104D01*
X0093416Y0022073D01*
X0093311Y0022047D01*
X0093205Y0022024D01*
X0093098Y0022005D01*
X0092991Y0021990D01*
X0092883Y0021979D01*
X0092775Y0021972D01*
X0092666Y0021969D01*
X0092558Y0021970D01*
X0092449Y0021975D01*
X0092341Y0021984D01*
X0092233Y0021997D01*
X0092126Y0022014D01*
X0092020Y0022035D01*
X0091914Y0022059D01*
X0091809Y0022088D01*
X0091706Y0022120D01*
X0091604Y0022156D01*
X0091503Y0022196D01*
X0091403Y0022240D01*
X0091306Y0022287D01*
X0091210Y0022338D01*
X0091116Y0022392D01*
X0091024Y0022450D01*
X0090934Y0022511D01*
X0090847Y0022575D01*
X0090762Y0022643D01*
X0090679Y0022713D01*
X0090599Y0022787D01*
X0090522Y0022863D01*
X0090448Y0022942D01*
X0090377Y0023024D01*
X0090309Y0023108D01*
X0090244Y0023195D01*
X0090182Y0023284D01*
X0090123Y0023376D01*
X0090068Y0023469D01*
X0090017Y0023564D01*
X0089968Y0023662D01*
X0089924Y0023761D01*
X0089883Y0023861D01*
X0089846Y0023963D01*
X0089813Y0024066D01*
X0089783Y0024171D01*
X0089757Y0024276D01*
X0089736Y0024383D01*
X0089718Y0024490D01*
X0089704Y0024597D01*
X0089694Y0024705D01*
X0089688Y0024814D01*
X0089686Y0024922D01*
D11*
X0058820Y0032757D02*
X0058820Y0034331D01*
X0057245Y0033544D01*
X0058820Y0032757D01*
X0058820Y0033240D02*
X0057852Y0033240D01*
X0058235Y0034039D02*
X0058820Y0034039D01*
D12*
X0058922Y0075142D02*
X0061478Y0075142D01*
X0060200Y0075142D02*
X0060200Y0079742D01*
X0061478Y0078720D01*
X0063761Y0077058D02*
X0064400Y0077442D01*
X0065039Y0077825D01*
X0065422Y0075908D02*
X0065347Y0075865D01*
X0065271Y0075826D01*
X0065193Y0075789D01*
X0065114Y0075757D01*
X0065033Y0075727D01*
X0064951Y0075701D01*
X0064868Y0075679D01*
X0064784Y0075660D01*
X0064700Y0075644D01*
X0064615Y0075633D01*
X0064529Y0075625D01*
X0064444Y0075620D01*
X0064358Y0075619D01*
X0064272Y0075622D01*
X0064186Y0075628D01*
X0064101Y0075638D01*
X0064016Y0075652D01*
X0064400Y0075142D02*
X0064400Y0079742D01*
X0064783Y0079231D02*
X0064836Y0079219D01*
X0064888Y0079204D01*
X0064939Y0079184D01*
X0064988Y0079162D01*
X0065036Y0079136D01*
X0065082Y0079106D01*
X0065125Y0079074D01*
X0065166Y0079038D01*
X0065205Y0079000D01*
X0065240Y0078959D01*
X0065273Y0078915D01*
X0065302Y0078870D01*
X0065328Y0078822D01*
X0065351Y0078772D01*
X0065370Y0078722D01*
X0065385Y0078670D01*
X0065397Y0078616D01*
X0065404Y0078563D01*
X0065408Y0078509D01*
X0065409Y0078454D01*
X0065405Y0078400D01*
X0065397Y0078346D01*
X0065386Y0078293D01*
X0065371Y0078241D01*
X0065352Y0078190D01*
X0065329Y0078141D01*
X0065304Y0078093D01*
X0065274Y0078047D01*
X0065242Y0078004D01*
X0065207Y0077962D01*
X0065168Y0077924D01*
X0065127Y0077888D01*
X0065084Y0077855D01*
X0065039Y0077826D01*
X0064783Y0079231D02*
X0064698Y0079245D01*
X0064613Y0079255D01*
X0064527Y0079261D01*
X0064441Y0079264D01*
X0064355Y0079263D01*
X0064270Y0079258D01*
X0064184Y0079250D01*
X0064099Y0079239D01*
X0064015Y0079223D01*
X0063931Y0079204D01*
X0063848Y0079182D01*
X0063766Y0079156D01*
X0063685Y0079126D01*
X0063606Y0079094D01*
X0063528Y0079057D01*
X0063452Y0079018D01*
X0063377Y0078975D01*
X0063761Y0077058D02*
X0063716Y0077029D01*
X0063673Y0076996D01*
X0063632Y0076960D01*
X0063593Y0076922D01*
X0063558Y0076880D01*
X0063526Y0076837D01*
X0063496Y0076791D01*
X0063471Y0076743D01*
X0063448Y0076694D01*
X0063429Y0076643D01*
X0063414Y0076591D01*
X0063403Y0076538D01*
X0063395Y0076484D01*
X0063391Y0076430D01*
X0063392Y0076375D01*
X0063396Y0076321D01*
X0063403Y0076268D01*
X0063415Y0076214D01*
X0063430Y0076162D01*
X0063449Y0076112D01*
X0063472Y0076062D01*
X0063498Y0076014D01*
X0063527Y0075969D01*
X0063560Y0075925D01*
X0063595Y0075884D01*
X0063634Y0075846D01*
X0063675Y0075810D01*
X0063718Y0075778D01*
X0063764Y0075748D01*
X0063812Y0075722D01*
X0063861Y0075700D01*
X0063912Y0075680D01*
X0063964Y0075665D01*
X0064017Y0075653D01*
X0067472Y0076420D02*
X0067472Y0079742D01*
X0070028Y0079742D02*
X0070028Y0076420D01*
X0070026Y0076350D01*
X0070020Y0076279D01*
X0070011Y0076210D01*
X0069997Y0076141D01*
X0069980Y0076072D01*
X0069959Y0076005D01*
X0069934Y0075939D01*
X0069906Y0075875D01*
X0069874Y0075812D01*
X0069839Y0075751D01*
X0069800Y0075692D01*
X0069759Y0075635D01*
X0069714Y0075581D01*
X0069666Y0075529D01*
X0069616Y0075480D01*
X0069562Y0075433D01*
X0069507Y0075390D01*
X0069449Y0075350D01*
X0069389Y0075313D01*
X0069327Y0075280D01*
X0069263Y0075250D01*
X0069198Y0075223D01*
X0069132Y0075200D01*
X0069064Y0075181D01*
X0068995Y0075166D01*
X0068926Y0075154D01*
X0068856Y0075146D01*
X0068785Y0075142D01*
X0068715Y0075142D01*
X0068644Y0075146D01*
X0068574Y0075154D01*
X0068505Y0075166D01*
X0068436Y0075181D01*
X0068368Y0075200D01*
X0068302Y0075223D01*
X0068237Y0075250D01*
X0068173Y0075280D01*
X0068111Y0075313D01*
X0068051Y0075350D01*
X0067993Y0075390D01*
X0067938Y0075433D01*
X0067884Y0075480D01*
X0067834Y0075529D01*
X0067786Y0075581D01*
X0067741Y0075635D01*
X0067700Y0075692D01*
X0067661Y0075751D01*
X0067626Y0075812D01*
X0067594Y0075875D01*
X0067566Y0075939D01*
X0067541Y0076005D01*
X0067520Y0076072D01*
X0067503Y0076141D01*
X0067489Y0076210D01*
X0067480Y0076279D01*
X0067474Y0076350D01*
X0067472Y0076420D01*
M02*
