G75*
%MOIN*%
%OFA0B0*%
%FSLAX25Y25*%
%IPPOS*%
%LPD*%
%AMOC8*
5,1,8,0,0,1.08239X$1,22.5*
%
%ADD10R,0.07480X0.02362*%
%ADD11R,0.11024X0.08268*%
%ADD12C,0.00600*%
%ADD13C,0.02978*%
%ADD14C,0.01000*%
D10*
X0089331Y0042206D03*
X0089331Y0046143D03*
X0089331Y0050080D03*
X0089331Y0054017D03*
X0089331Y0057954D03*
X0089331Y0061891D03*
D11*
X0080080Y0074292D03*
X0080080Y0030001D03*
D12*
X0023907Y0026365D02*
X0023907Y0024498D01*
X0085386Y0024498D01*
X0085386Y0024967D01*
X0074195Y0024967D01*
X0073668Y0025494D01*
X0073668Y0034507D01*
X0074195Y0035035D01*
X0085964Y0035035D01*
X0086491Y0034507D01*
X0086491Y0029032D01*
X0088530Y0031071D01*
X0091196Y0032175D01*
X0093063Y0032175D01*
X0093063Y0040124D01*
X0085219Y0040124D01*
X0084691Y0040652D01*
X0084691Y0041006D01*
X0025645Y0041006D01*
X0022935Y0043716D01*
X0022935Y0057309D01*
X0023638Y0058012D01*
X0024502Y0058876D01*
X0024502Y0060557D01*
X0025901Y0061957D01*
X0027880Y0061957D01*
X0028859Y0060978D01*
X0029838Y0061957D01*
X0031817Y0061957D01*
X0033217Y0060557D01*
X0033217Y0058578D01*
X0032041Y0057402D01*
X0033217Y0056227D01*
X0033217Y0055217D01*
X0084691Y0055217D01*
X0084691Y0055570D01*
X0085106Y0055985D01*
X0084691Y0056400D01*
X0084691Y0056593D01*
X0060365Y0056593D01*
X0059376Y0055604D01*
X0057397Y0055604D01*
X0055998Y0057003D01*
X0055998Y0058982D01*
X0057397Y0060382D01*
X0059376Y0060382D01*
X0060365Y0059393D01*
X0084691Y0059393D01*
X0084691Y0059507D01*
X0084831Y0059647D01*
X0084793Y0059669D01*
X0084551Y0059911D01*
X0084380Y0060208D01*
X0084291Y0060538D01*
X0084291Y0061600D01*
X0089041Y0061600D01*
X0089041Y0062181D01*
X0084291Y0062181D01*
X0084291Y0063243D01*
X0084380Y0063573D01*
X0084551Y0063870D01*
X0084793Y0064112D01*
X0085090Y0064283D01*
X0085420Y0064372D01*
X0089041Y0064372D01*
X0089041Y0062181D01*
X0089622Y0062181D01*
X0089622Y0064372D01*
X0093063Y0064372D01*
X0093063Y0073181D01*
X0091196Y0073181D01*
X0088530Y0074285D01*
X0086491Y0076324D01*
X0086491Y0069785D01*
X0085964Y0069258D01*
X0074195Y0069258D01*
X0073668Y0069785D01*
X0073668Y0078799D01*
X0074195Y0079326D01*
X0085386Y0079326D01*
X0085386Y0080858D01*
X0023907Y0080858D01*
X0023907Y0078991D01*
X0022803Y0076325D01*
X0020763Y0074285D01*
X0018097Y0073181D01*
X0016230Y0073181D01*
X0016230Y0032175D01*
X0018097Y0032175D01*
X0020763Y0031071D01*
X0022803Y0029030D01*
X0023907Y0026365D01*
X0023877Y0026437D02*
X0073668Y0026437D01*
X0073668Y0025839D02*
X0023907Y0025839D01*
X0023907Y0025240D02*
X0073921Y0025240D01*
X0073668Y0027036D02*
X0023629Y0027036D01*
X0023381Y0027634D02*
X0073668Y0027634D01*
X0073668Y0028233D02*
X0023133Y0028233D01*
X0022885Y0028832D02*
X0073668Y0028832D01*
X0073668Y0029430D02*
X0022403Y0029430D01*
X0021805Y0030029D02*
X0073668Y0030029D01*
X0073668Y0030627D02*
X0021206Y0030627D01*
X0020389Y0031226D02*
X0073668Y0031226D01*
X0073668Y0031824D02*
X0018944Y0031824D01*
X0016230Y0032423D02*
X0073668Y0032423D01*
X0073668Y0033021D02*
X0016230Y0033021D01*
X0016230Y0033620D02*
X0073668Y0033620D01*
X0073668Y0034218D02*
X0016230Y0034218D01*
X0016230Y0034817D02*
X0073977Y0034817D01*
X0084691Y0040802D02*
X0016230Y0040802D01*
X0016230Y0041400D02*
X0025251Y0041400D01*
X0024652Y0041999D02*
X0016230Y0041999D01*
X0016230Y0042597D02*
X0024054Y0042597D01*
X0023455Y0043196D02*
X0016230Y0043196D01*
X0016230Y0043794D02*
X0022935Y0043794D01*
X0022935Y0044393D02*
X0016230Y0044393D01*
X0016230Y0044991D02*
X0022935Y0044991D01*
X0022935Y0045590D02*
X0016230Y0045590D01*
X0016230Y0046188D02*
X0022935Y0046188D01*
X0022935Y0046787D02*
X0016230Y0046787D01*
X0016230Y0047385D02*
X0022935Y0047385D01*
X0022935Y0047984D02*
X0016230Y0047984D01*
X0016230Y0048582D02*
X0022935Y0048582D01*
X0022935Y0049181D02*
X0016230Y0049181D01*
X0016230Y0049779D02*
X0022935Y0049779D01*
X0022935Y0050378D02*
X0016230Y0050378D01*
X0016230Y0050976D02*
X0022935Y0050976D01*
X0022935Y0051575D02*
X0016230Y0051575D01*
X0016230Y0052173D02*
X0022935Y0052173D01*
X0022935Y0052772D02*
X0016230Y0052772D01*
X0016230Y0053370D02*
X0022935Y0053370D01*
X0022935Y0053969D02*
X0016230Y0053969D01*
X0016230Y0054568D02*
X0022935Y0054568D01*
X0022935Y0055166D02*
X0016230Y0055166D01*
X0016230Y0055765D02*
X0022935Y0055765D01*
X0022935Y0056363D02*
X0016230Y0056363D01*
X0016230Y0056962D02*
X0022935Y0056962D01*
X0023186Y0057560D02*
X0016230Y0057560D01*
X0016230Y0058159D02*
X0023784Y0058159D01*
X0024383Y0058757D02*
X0016230Y0058757D01*
X0016230Y0059356D02*
X0024502Y0059356D01*
X0024502Y0059954D02*
X0016230Y0059954D01*
X0016230Y0060553D02*
X0024502Y0060553D01*
X0025095Y0061151D02*
X0016230Y0061151D01*
X0016230Y0061750D02*
X0025694Y0061750D01*
X0026891Y0059568D02*
X0024135Y0056812D01*
X0024135Y0044213D01*
X0026143Y0042206D01*
X0089331Y0042206D01*
X0089331Y0046143D02*
X0089292Y0046182D01*
X0026891Y0046182D01*
X0026103Y0046969D01*
X0026103Y0051694D01*
X0026103Y0052481D01*
X0026103Y0054843D01*
X0030828Y0059568D01*
X0032623Y0061151D02*
X0084291Y0061151D01*
X0084291Y0060553D02*
X0033217Y0060553D01*
X0033217Y0059954D02*
X0056969Y0059954D01*
X0056371Y0059356D02*
X0033217Y0059356D01*
X0033217Y0058757D02*
X0055998Y0058757D01*
X0055998Y0058159D02*
X0032797Y0058159D01*
X0032198Y0057560D02*
X0055998Y0057560D01*
X0056039Y0056962D02*
X0032482Y0056962D01*
X0033080Y0056363D02*
X0056638Y0056363D01*
X0057236Y0055765D02*
X0033217Y0055765D01*
X0032048Y0054017D02*
X0089331Y0054017D01*
X0089331Y0050080D02*
X0088977Y0049725D01*
X0030828Y0049725D01*
X0032048Y0054017D02*
X0030828Y0055237D01*
X0029032Y0061151D02*
X0028686Y0061151D01*
X0028087Y0061750D02*
X0029631Y0061750D01*
X0032024Y0061750D02*
X0089041Y0061750D01*
X0089041Y0062348D02*
X0089622Y0062348D01*
X0089622Y0062947D02*
X0089041Y0062947D01*
X0089041Y0063545D02*
X0089622Y0063545D01*
X0089622Y0064144D02*
X0089041Y0064144D01*
X0093063Y0064742D02*
X0016230Y0064742D01*
X0016230Y0064144D02*
X0084848Y0064144D01*
X0084372Y0063545D02*
X0016230Y0063545D01*
X0016230Y0062947D02*
X0084291Y0062947D01*
X0084291Y0062348D02*
X0016230Y0062348D01*
X0016230Y0065341D02*
X0093063Y0065341D01*
X0093063Y0065939D02*
X0016230Y0065939D01*
X0016230Y0066538D02*
X0093063Y0066538D01*
X0093063Y0067136D02*
X0016230Y0067136D01*
X0016230Y0067735D02*
X0093063Y0067735D01*
X0093063Y0068333D02*
X0016230Y0068333D01*
X0016230Y0068932D02*
X0093063Y0068932D01*
X0093063Y0069530D02*
X0086236Y0069530D01*
X0086491Y0070129D02*
X0093063Y0070129D01*
X0093063Y0070727D02*
X0086491Y0070727D01*
X0086491Y0071326D02*
X0093063Y0071326D01*
X0093063Y0071924D02*
X0086491Y0071924D01*
X0086491Y0072523D02*
X0093063Y0072523D01*
X0093063Y0073121D02*
X0086491Y0073121D01*
X0086491Y0073720D02*
X0089895Y0073720D01*
X0088497Y0074318D02*
X0086491Y0074318D01*
X0086491Y0074917D02*
X0087899Y0074917D01*
X0087300Y0075515D02*
X0086491Y0075515D01*
X0086491Y0076114D02*
X0086702Y0076114D01*
X0085386Y0079705D02*
X0023907Y0079705D01*
X0023907Y0080303D02*
X0085386Y0080303D01*
X0073975Y0079106D02*
X0023907Y0079106D01*
X0023707Y0078508D02*
X0073668Y0078508D01*
X0073668Y0077909D02*
X0023459Y0077909D01*
X0023211Y0077311D02*
X0073668Y0077311D01*
X0073668Y0076712D02*
X0022963Y0076712D01*
X0022591Y0076114D02*
X0073668Y0076114D01*
X0073668Y0075515D02*
X0021993Y0075515D01*
X0021394Y0074917D02*
X0073668Y0074917D01*
X0073668Y0074318D02*
X0020796Y0074318D01*
X0019398Y0073720D02*
X0073668Y0073720D01*
X0073668Y0073121D02*
X0016230Y0073121D01*
X0016230Y0072523D02*
X0073668Y0072523D01*
X0073668Y0071924D02*
X0016230Y0071924D01*
X0016230Y0071326D02*
X0073668Y0071326D01*
X0073668Y0070727D02*
X0016230Y0070727D01*
X0016230Y0070129D02*
X0073668Y0070129D01*
X0073923Y0069530D02*
X0016230Y0069530D01*
X0016230Y0040203D02*
X0085140Y0040203D01*
X0086182Y0034817D02*
X0093063Y0034817D01*
X0093063Y0035415D02*
X0016230Y0035415D01*
X0016230Y0036014D02*
X0093063Y0036014D01*
X0093063Y0036612D02*
X0016230Y0036612D01*
X0016230Y0037211D02*
X0093063Y0037211D01*
X0093063Y0037809D02*
X0016230Y0037809D01*
X0016230Y0038408D02*
X0093063Y0038408D01*
X0093063Y0039006D02*
X0016230Y0039006D01*
X0016230Y0039605D02*
X0093063Y0039605D01*
X0093063Y0034218D02*
X0086491Y0034218D01*
X0086491Y0033620D02*
X0093063Y0033620D01*
X0093063Y0033021D02*
X0086491Y0033021D01*
X0086491Y0032423D02*
X0093063Y0032423D01*
X0090349Y0031824D02*
X0086491Y0031824D01*
X0086491Y0031226D02*
X0088904Y0031226D01*
X0088087Y0030627D02*
X0086491Y0030627D01*
X0086491Y0030029D02*
X0087488Y0030029D01*
X0086890Y0029430D02*
X0086491Y0029430D01*
X0085386Y0024642D02*
X0023907Y0024642D01*
X0059537Y0055765D02*
X0084885Y0055765D01*
X0084728Y0056363D02*
X0060135Y0056363D01*
X0059804Y0059954D02*
X0084526Y0059954D01*
D13*
X0058387Y0057993D03*
X0052087Y0063898D03*
X0044213Y0063111D03*
X0030828Y0059568D03*
X0026891Y0059568D03*
X0030828Y0055237D03*
X0030828Y0049725D03*
X0044213Y0038308D03*
X0052087Y0032796D03*
D14*
X0058387Y0057993D02*
X0089292Y0057993D01*
X0089331Y0057954D01*
M02*
