G75*
%MOIN*%
%OFA0B0*%
%FSLAX25Y25*%
%IPPOS*%
%LPD*%
%AMOC8*
5,1,8,0,0,1.08239X$1,22.5*
%
%ADD10C,0.07400*%
%ADD11C,0.04756*%
%ADD12C,0.06496*%
%ADD13C,0.10000*%
%ADD14C,0.05150*%
%ADD15C,0.00800*%
%ADD16C,0.02978*%
D10*
X0123614Y0070146D03*
X0133614Y0070146D03*
X0143614Y0070146D03*
X0153614Y0070146D03*
D11*
X0116934Y0033658D03*
X0109060Y0033658D03*
X0101186Y0033658D03*
X0080213Y0033604D03*
X0072338Y0033604D03*
X0064464Y0033604D03*
D12*
X0058559Y0025336D03*
X0086118Y0025336D03*
X0095280Y0025390D03*
X0122839Y0025390D03*
D13*
X0137568Y0044513D03*
X0153159Y0044513D03*
D14*
X0035559Y0021783D03*
X0025717Y0021783D03*
X0015874Y0021783D03*
D15*
X0012487Y0020098D02*
X0012487Y0013418D01*
X0159198Y0013418D01*
X0159198Y0075484D01*
X0062880Y0075484D01*
X0062880Y0057356D01*
X0062210Y0055738D01*
X0060973Y0054501D01*
X0059355Y0053831D01*
X0042165Y0053831D01*
X0042998Y0051819D01*
X0042998Y0048894D01*
X0041879Y0046192D01*
X0039811Y0044124D01*
X0037108Y0043004D01*
X0034183Y0043004D01*
X0031481Y0044124D01*
X0029412Y0046192D01*
X0028293Y0048894D01*
X0028293Y0051819D01*
X0029126Y0053831D01*
X0022480Y0053831D01*
X0023313Y0051819D01*
X0023313Y0048894D01*
X0022194Y0046192D01*
X0020126Y0044124D01*
X0017423Y0043004D01*
X0014498Y0043004D01*
X0012487Y0043837D01*
X0012487Y0023469D01*
X0012674Y0023922D01*
X0013736Y0024984D01*
X0015123Y0025558D01*
X0016625Y0025558D01*
X0018012Y0024984D01*
X0019074Y0023922D01*
X0019649Y0022534D01*
X0019649Y0021033D01*
X0019074Y0019645D01*
X0018012Y0018583D01*
X0016625Y0018009D01*
X0015123Y0018009D01*
X0013736Y0018583D01*
X0012674Y0019645D01*
X0012487Y0020098D01*
X0012487Y0019399D02*
X0012920Y0019399D01*
X0012487Y0018600D02*
X0013719Y0018600D01*
X0012487Y0017802D02*
X0159198Y0017802D01*
X0159198Y0018600D02*
X0104577Y0018600D01*
X0104419Y0018442D02*
X0109537Y0023560D01*
X0110474Y0024497D01*
X0110474Y0030371D01*
X0111087Y0030624D01*
X0112093Y0031631D01*
X0112638Y0032946D01*
X0112638Y0034369D01*
X0112093Y0035684D01*
X0111087Y0036691D01*
X0109772Y0037236D01*
X0108348Y0037236D01*
X0107033Y0036691D01*
X0106027Y0035684D01*
X0105482Y0034369D01*
X0105482Y0032946D01*
X0106027Y0031631D01*
X0107033Y0030624D01*
X0107274Y0030525D01*
X0107274Y0025823D01*
X0103093Y0021642D01*
X0097823Y0021642D01*
X0099051Y0022870D01*
X0099728Y0024505D01*
X0099728Y0026275D01*
X0099051Y0027909D01*
X0097800Y0029161D01*
X0096165Y0029838D01*
X0094396Y0029838D01*
X0092761Y0029161D01*
X0091509Y0027909D01*
X0090832Y0026275D01*
X0090832Y0024505D01*
X0091509Y0022870D01*
X0092738Y0021642D01*
X0088714Y0021642D01*
X0089889Y0022816D01*
X0090566Y0024451D01*
X0090566Y0026221D01*
X0089889Y0027856D01*
X0088638Y0029107D01*
X0087003Y0029784D01*
X0085233Y0029784D01*
X0083598Y0029107D01*
X0082347Y0027856D01*
X0081670Y0026221D01*
X0081670Y0024451D01*
X0082347Y0022816D01*
X0083522Y0021642D01*
X0080009Y0021642D01*
X0073938Y0027713D01*
X0073938Y0030394D01*
X0074365Y0030570D01*
X0075372Y0031577D01*
X0075916Y0032892D01*
X0075916Y0034315D01*
X0075372Y0035630D01*
X0074365Y0036637D01*
X0073619Y0036946D01*
X0078932Y0036946D01*
X0078186Y0036637D01*
X0077179Y0035630D01*
X0076635Y0034315D01*
X0076635Y0032892D01*
X0077179Y0031577D01*
X0078186Y0030570D01*
X0079501Y0030026D01*
X0080924Y0030026D01*
X0082239Y0030570D01*
X0083246Y0031577D01*
X0083790Y0032892D01*
X0083790Y0034315D01*
X0083246Y0035630D01*
X0082239Y0036637D01*
X0081493Y0036946D01*
X0096006Y0036946D01*
X0097894Y0035059D01*
X0097608Y0034369D01*
X0097608Y0032946D01*
X0098153Y0031631D01*
X0099159Y0030624D01*
X0100474Y0030080D01*
X0101898Y0030080D01*
X0103213Y0030624D01*
X0104219Y0031631D01*
X0104764Y0032946D01*
X0104764Y0034369D01*
X0104219Y0035684D01*
X0103213Y0036691D01*
X0101898Y0037236D01*
X0100474Y0037236D01*
X0100310Y0037168D01*
X0097332Y0040146D01*
X0068744Y0040146D01*
X0067807Y0039209D01*
X0065603Y0037005D01*
X0065176Y0037182D01*
X0063753Y0037182D01*
X0062438Y0036637D01*
X0061431Y0035630D01*
X0061254Y0035204D01*
X0058631Y0035204D01*
X0057693Y0034266D01*
X0050585Y0027158D01*
X0033333Y0027158D01*
X0029558Y0023383D01*
X0029140Y0023383D01*
X0028917Y0023922D01*
X0027855Y0024984D01*
X0026468Y0025558D01*
X0024966Y0025558D01*
X0023578Y0024984D01*
X0022517Y0023922D01*
X0021942Y0022534D01*
X0021942Y0021033D01*
X0022517Y0019645D01*
X0023578Y0018583D01*
X0024966Y0018009D01*
X0026468Y0018009D01*
X0027855Y0018583D01*
X0028917Y0019645D01*
X0029140Y0020183D01*
X0030883Y0020183D01*
X0031784Y0021084D01*
X0031784Y0021033D01*
X0032359Y0019645D01*
X0033421Y0018583D01*
X0034808Y0018009D01*
X0036310Y0018009D01*
X0037697Y0018583D01*
X0038759Y0019645D01*
X0039334Y0021033D01*
X0039334Y0022534D01*
X0038759Y0023922D01*
X0038723Y0023958D01*
X0051911Y0023958D01*
X0052848Y0024895D01*
X0052848Y0024896D01*
X0054111Y0026159D01*
X0054111Y0024451D01*
X0054788Y0022816D01*
X0056039Y0021565D01*
X0057674Y0020888D01*
X0059444Y0020888D01*
X0061079Y0021565D01*
X0062330Y0022816D01*
X0063007Y0024451D01*
X0063007Y0026221D01*
X0062330Y0027856D01*
X0061079Y0029107D01*
X0059444Y0029784D01*
X0057736Y0029784D01*
X0059956Y0032004D01*
X0061254Y0032004D01*
X0061431Y0031577D01*
X0062438Y0030570D01*
X0063753Y0030026D01*
X0065176Y0030026D01*
X0066491Y0030570D01*
X0067498Y0031577D01*
X0068042Y0032892D01*
X0068042Y0034315D01*
X0067866Y0034742D01*
X0070069Y0036946D01*
X0071058Y0036946D01*
X0070312Y0036637D01*
X0069305Y0035630D01*
X0068761Y0034315D01*
X0068761Y0032892D01*
X0069305Y0031577D01*
X0070312Y0030570D01*
X0070738Y0030394D01*
X0070738Y0026387D01*
X0077746Y0019379D01*
X0078684Y0018442D01*
X0104419Y0018442D01*
X0105376Y0019399D02*
X0159198Y0019399D01*
X0159198Y0020197D02*
X0106174Y0020197D01*
X0106973Y0020996D02*
X0121824Y0020996D01*
X0121955Y0020942D02*
X0123724Y0020942D01*
X0125359Y0021619D01*
X0126610Y0022870D01*
X0127287Y0024505D01*
X0127287Y0026275D01*
X0126610Y0027909D01*
X0125359Y0029161D01*
X0123724Y0029838D01*
X0121955Y0029838D01*
X0120320Y0029161D01*
X0119069Y0027909D01*
X0118391Y0026275D01*
X0118391Y0024505D01*
X0119069Y0022870D01*
X0120320Y0021619D01*
X0121955Y0020942D01*
X0123855Y0020996D02*
X0159198Y0020996D01*
X0159198Y0021794D02*
X0125534Y0021794D01*
X0126333Y0022593D02*
X0159198Y0022593D01*
X0159198Y0023392D02*
X0126826Y0023392D01*
X0127157Y0024190D02*
X0159198Y0024190D01*
X0159198Y0024989D02*
X0127287Y0024989D01*
X0127287Y0025787D02*
X0159198Y0025787D01*
X0159198Y0026586D02*
X0127159Y0026586D01*
X0126828Y0027384D02*
X0159198Y0027384D01*
X0159198Y0028183D02*
X0126337Y0028183D01*
X0125539Y0028981D02*
X0159198Y0028981D01*
X0159198Y0029780D02*
X0123865Y0029780D01*
X0121814Y0029780D02*
X0110474Y0029780D01*
X0110474Y0028981D02*
X0120140Y0028981D01*
X0119342Y0028183D02*
X0110474Y0028183D01*
X0110474Y0027384D02*
X0118851Y0027384D01*
X0118520Y0026586D02*
X0110474Y0026586D01*
X0110474Y0025787D02*
X0118391Y0025787D01*
X0118391Y0024989D02*
X0110474Y0024989D01*
X0110167Y0024190D02*
X0118522Y0024190D01*
X0118853Y0023392D02*
X0109368Y0023392D01*
X0108570Y0022593D02*
X0119346Y0022593D01*
X0120144Y0021794D02*
X0107771Y0021794D01*
X0104843Y0023392D02*
X0099267Y0023392D01*
X0099598Y0024190D02*
X0105641Y0024190D01*
X0106440Y0024989D02*
X0099728Y0024989D01*
X0099728Y0025787D02*
X0107238Y0025787D01*
X0107274Y0026586D02*
X0099600Y0026586D01*
X0099269Y0027384D02*
X0107274Y0027384D01*
X0107274Y0028183D02*
X0098778Y0028183D01*
X0097980Y0028981D02*
X0107274Y0028981D01*
X0107274Y0029780D02*
X0096306Y0029780D01*
X0094255Y0029780D02*
X0087013Y0029780D01*
X0085223Y0029780D02*
X0073938Y0029780D01*
X0073938Y0028981D02*
X0083473Y0028981D01*
X0082674Y0028183D02*
X0073938Y0028183D01*
X0074267Y0027384D02*
X0082152Y0027384D01*
X0081821Y0026586D02*
X0075065Y0026586D01*
X0075864Y0025787D02*
X0081670Y0025787D01*
X0081670Y0024989D02*
X0076663Y0024989D01*
X0077461Y0024190D02*
X0081778Y0024190D01*
X0082109Y0023392D02*
X0078260Y0023392D01*
X0079058Y0022593D02*
X0082570Y0022593D01*
X0083369Y0021794D02*
X0079857Y0021794D01*
X0079346Y0020042D02*
X0103756Y0020042D01*
X0108874Y0025160D01*
X0108874Y0033472D01*
X0109060Y0033658D01*
X0112638Y0033772D02*
X0113356Y0033772D01*
X0113356Y0034369D02*
X0113356Y0032946D01*
X0113901Y0031631D01*
X0114907Y0030624D01*
X0116222Y0030080D01*
X0117646Y0030080D01*
X0118961Y0030624D01*
X0119967Y0031631D01*
X0120512Y0032946D01*
X0120512Y0034369D01*
X0119967Y0035684D01*
X0118961Y0036691D01*
X0117646Y0037236D01*
X0116222Y0037236D01*
X0114907Y0036691D01*
X0113901Y0035684D01*
X0113356Y0034369D01*
X0113439Y0034571D02*
X0112554Y0034571D01*
X0112224Y0035369D02*
X0113770Y0035369D01*
X0114384Y0036168D02*
X0111610Y0036168D01*
X0110422Y0036966D02*
X0115572Y0036966D01*
X0118296Y0036966D02*
X0159198Y0036966D01*
X0159198Y0036168D02*
X0119484Y0036168D01*
X0120098Y0035369D02*
X0159198Y0035369D01*
X0159198Y0034571D02*
X0120428Y0034571D01*
X0120512Y0033772D02*
X0159198Y0033772D01*
X0159198Y0032974D02*
X0120512Y0032974D01*
X0120193Y0032175D02*
X0159198Y0032175D01*
X0159198Y0031377D02*
X0119713Y0031377D01*
X0118849Y0030578D02*
X0159198Y0030578D01*
X0159198Y0037765D02*
X0099713Y0037765D01*
X0098915Y0038563D02*
X0135732Y0038563D01*
X0136335Y0038313D02*
X0134056Y0039257D01*
X0132312Y0041001D01*
X0131368Y0043280D01*
X0131368Y0045747D01*
X0132312Y0048025D01*
X0134056Y0049769D01*
X0136335Y0050713D01*
X0138801Y0050713D01*
X0141080Y0049769D01*
X0142824Y0048025D01*
X0143768Y0045747D01*
X0143768Y0043280D01*
X0142824Y0041001D01*
X0141080Y0039257D01*
X0138801Y0038313D01*
X0136335Y0038313D01*
X0139405Y0038563D02*
X0159198Y0038563D01*
X0159198Y0039362D02*
X0141185Y0039362D01*
X0141983Y0040160D02*
X0159198Y0040160D01*
X0159198Y0040959D02*
X0142782Y0040959D01*
X0143137Y0041757D02*
X0159198Y0041757D01*
X0159198Y0042556D02*
X0143468Y0042556D01*
X0143768Y0043354D02*
X0159198Y0043354D01*
X0159198Y0044153D02*
X0143768Y0044153D01*
X0143768Y0044951D02*
X0159198Y0044951D01*
X0159198Y0045750D02*
X0143767Y0045750D01*
X0143436Y0046548D02*
X0159198Y0046548D01*
X0159198Y0047347D02*
X0143105Y0047347D01*
X0142704Y0048145D02*
X0159198Y0048145D01*
X0159198Y0048944D02*
X0141906Y0048944D01*
X0141107Y0049742D02*
X0159198Y0049742D01*
X0159198Y0050541D02*
X0139218Y0050541D01*
X0135919Y0050541D02*
X0042998Y0050541D01*
X0042998Y0051339D02*
X0159198Y0051339D01*
X0159198Y0052138D02*
X0042866Y0052138D01*
X0042536Y0052936D02*
X0159198Y0052936D01*
X0159198Y0053735D02*
X0042205Y0053735D01*
X0042998Y0049742D02*
X0134029Y0049742D01*
X0133231Y0048944D02*
X0042998Y0048944D01*
X0042688Y0048145D02*
X0132432Y0048145D01*
X0132031Y0047347D02*
X0042357Y0047347D01*
X0042027Y0046548D02*
X0131700Y0046548D01*
X0131370Y0045750D02*
X0041437Y0045750D01*
X0040638Y0044951D02*
X0131368Y0044951D01*
X0131368Y0044153D02*
X0039840Y0044153D01*
X0037954Y0043354D02*
X0131368Y0043354D01*
X0131668Y0042556D02*
X0012487Y0042556D01*
X0012487Y0043354D02*
X0013653Y0043354D01*
X0012487Y0041757D02*
X0131999Y0041757D01*
X0132355Y0040959D02*
X0012487Y0040959D01*
X0012487Y0040160D02*
X0133153Y0040160D01*
X0133952Y0039362D02*
X0098116Y0039362D01*
X0096669Y0038546D02*
X0101186Y0034029D01*
X0101186Y0033658D01*
X0104764Y0033772D02*
X0105482Y0033772D01*
X0105482Y0032974D02*
X0104764Y0032974D01*
X0104445Y0032175D02*
X0105801Y0032175D01*
X0106281Y0031377D02*
X0103965Y0031377D01*
X0103101Y0030578D02*
X0107145Y0030578D01*
X0110975Y0030578D02*
X0115019Y0030578D01*
X0114155Y0031377D02*
X0111839Y0031377D01*
X0112319Y0032175D02*
X0113675Y0032175D01*
X0113356Y0032974D02*
X0112638Y0032974D01*
X0106510Y0036168D02*
X0103736Y0036168D01*
X0104350Y0035369D02*
X0105896Y0035369D01*
X0105565Y0034571D02*
X0104680Y0034571D01*
X0102548Y0036966D02*
X0107698Y0036966D01*
X0097583Y0035369D02*
X0083354Y0035369D01*
X0083685Y0034571D02*
X0097691Y0034571D01*
X0097608Y0033772D02*
X0083790Y0033772D01*
X0083790Y0032974D02*
X0097608Y0032974D01*
X0097927Y0032175D02*
X0083494Y0032175D01*
X0083045Y0031377D02*
X0098407Y0031377D01*
X0099271Y0030578D02*
X0082247Y0030578D01*
X0078178Y0030578D02*
X0074373Y0030578D01*
X0075171Y0031377D02*
X0077380Y0031377D01*
X0076931Y0032175D02*
X0075620Y0032175D01*
X0075916Y0032974D02*
X0076635Y0032974D01*
X0076635Y0033772D02*
X0075916Y0033772D01*
X0075811Y0034571D02*
X0076740Y0034571D01*
X0077071Y0035369D02*
X0075480Y0035369D01*
X0074834Y0036168D02*
X0077717Y0036168D01*
X0082708Y0036168D02*
X0096785Y0036168D01*
X0096669Y0038546D02*
X0069407Y0038546D01*
X0064464Y0033604D01*
X0059293Y0033604D01*
X0051248Y0025558D01*
X0033996Y0025558D01*
X0030221Y0021783D01*
X0025717Y0021783D01*
X0021942Y0021794D02*
X0019649Y0021794D01*
X0019634Y0020996D02*
X0021957Y0020996D01*
X0022288Y0020197D02*
X0019303Y0020197D01*
X0018828Y0019399D02*
X0022763Y0019399D01*
X0023561Y0018600D02*
X0018030Y0018600D01*
X0012487Y0017003D02*
X0159198Y0017003D01*
X0159198Y0016205D02*
X0012487Y0016205D01*
X0012487Y0015406D02*
X0159198Y0015406D01*
X0159198Y0014608D02*
X0012487Y0014608D01*
X0012487Y0013809D02*
X0159198Y0013809D01*
X0104044Y0022593D02*
X0098774Y0022593D01*
X0097975Y0021794D02*
X0103246Y0021794D01*
X0092585Y0021794D02*
X0088867Y0021794D01*
X0089666Y0022593D02*
X0091787Y0022593D01*
X0091294Y0023392D02*
X0090127Y0023392D01*
X0090458Y0024190D02*
X0090963Y0024190D01*
X0090832Y0024989D02*
X0090566Y0024989D01*
X0090566Y0025787D02*
X0090832Y0025787D01*
X0090961Y0026586D02*
X0090415Y0026586D01*
X0090084Y0027384D02*
X0091292Y0027384D01*
X0091783Y0028183D02*
X0089562Y0028183D01*
X0088763Y0028981D02*
X0092581Y0028981D01*
X0079346Y0020042D02*
X0072338Y0027050D01*
X0072338Y0033604D01*
X0069057Y0032175D02*
X0067746Y0032175D01*
X0068042Y0032974D02*
X0068761Y0032974D01*
X0068761Y0033772D02*
X0068042Y0033772D01*
X0067937Y0034571D02*
X0068866Y0034571D01*
X0069197Y0035369D02*
X0068493Y0035369D01*
X0069291Y0036168D02*
X0069843Y0036168D01*
X0067161Y0038563D02*
X0012487Y0038563D01*
X0012487Y0037765D02*
X0066363Y0037765D01*
X0067960Y0039362D02*
X0012487Y0039362D01*
X0012487Y0036966D02*
X0063233Y0036966D01*
X0061969Y0036168D02*
X0012487Y0036168D01*
X0012487Y0035369D02*
X0061323Y0035369D01*
X0057998Y0034571D02*
X0012487Y0034571D01*
X0012487Y0033772D02*
X0057199Y0033772D01*
X0057693Y0034266D02*
X0057693Y0034266D01*
X0056401Y0032974D02*
X0012487Y0032974D01*
X0012487Y0032175D02*
X0055602Y0032175D01*
X0054804Y0031377D02*
X0012487Y0031377D01*
X0012487Y0030578D02*
X0054005Y0030578D01*
X0053207Y0029780D02*
X0012487Y0029780D01*
X0012487Y0028981D02*
X0052408Y0028981D01*
X0051609Y0028183D02*
X0012487Y0028183D01*
X0012487Y0027384D02*
X0050811Y0027384D01*
X0053739Y0025787D02*
X0054111Y0025787D01*
X0054111Y0024989D02*
X0052941Y0024989D01*
X0052142Y0024190D02*
X0054219Y0024190D01*
X0054550Y0023392D02*
X0038979Y0023392D01*
X0039310Y0022593D02*
X0055011Y0022593D01*
X0055810Y0021794D02*
X0039334Y0021794D01*
X0039319Y0020996D02*
X0057413Y0020996D01*
X0059705Y0020996D02*
X0076130Y0020996D01*
X0076928Y0020197D02*
X0038988Y0020197D01*
X0038513Y0019399D02*
X0077727Y0019399D01*
X0078525Y0018600D02*
X0037715Y0018600D01*
X0033404Y0018600D02*
X0027872Y0018600D01*
X0028671Y0019399D02*
X0032605Y0019399D01*
X0032130Y0020197D02*
X0030898Y0020197D01*
X0031696Y0020996D02*
X0031800Y0020996D01*
X0029566Y0023392D02*
X0029136Y0023392D01*
X0028648Y0024190D02*
X0030365Y0024190D01*
X0031163Y0024989D02*
X0027843Y0024989D01*
X0023590Y0024989D02*
X0018000Y0024989D01*
X0018806Y0024190D02*
X0022785Y0024190D01*
X0022297Y0023392D02*
X0019294Y0023392D01*
X0019625Y0022593D02*
X0021966Y0022593D01*
X0013748Y0024989D02*
X0012487Y0024989D01*
X0012487Y0025787D02*
X0031962Y0025787D01*
X0032760Y0026586D02*
X0012487Y0026586D01*
X0012487Y0024190D02*
X0012942Y0024190D01*
X0018268Y0043354D02*
X0033338Y0043354D01*
X0031451Y0044153D02*
X0020155Y0044153D01*
X0020953Y0044951D02*
X0030653Y0044951D01*
X0029854Y0045750D02*
X0021752Y0045750D01*
X0022342Y0046548D02*
X0029265Y0046548D01*
X0028934Y0047347D02*
X0022672Y0047347D01*
X0023003Y0048145D02*
X0028603Y0048145D01*
X0028293Y0048944D02*
X0023313Y0048944D01*
X0023313Y0049742D02*
X0028293Y0049742D01*
X0028293Y0050541D02*
X0023313Y0050541D01*
X0023313Y0051339D02*
X0028293Y0051339D01*
X0028425Y0052138D02*
X0023181Y0052138D01*
X0022851Y0052936D02*
X0028756Y0052936D01*
X0029086Y0053735D02*
X0022520Y0053735D01*
X0061005Y0054533D02*
X0159198Y0054533D01*
X0159198Y0055332D02*
X0061804Y0055332D01*
X0062373Y0056130D02*
X0159198Y0056130D01*
X0159198Y0056929D02*
X0062703Y0056929D01*
X0062880Y0057727D02*
X0159198Y0057727D01*
X0159198Y0058526D02*
X0062880Y0058526D01*
X0062880Y0059325D02*
X0159198Y0059325D01*
X0159198Y0060123D02*
X0062880Y0060123D01*
X0062880Y0060922D02*
X0159198Y0060922D01*
X0159198Y0061720D02*
X0062880Y0061720D01*
X0062880Y0062519D02*
X0159198Y0062519D01*
X0159198Y0063317D02*
X0062880Y0063317D01*
X0062880Y0064116D02*
X0159198Y0064116D01*
X0159198Y0064914D02*
X0062880Y0064914D01*
X0062880Y0065713D02*
X0121513Y0065713D01*
X0120838Y0065992D02*
X0122639Y0065246D01*
X0124588Y0065246D01*
X0126389Y0065992D01*
X0127768Y0067371D01*
X0128514Y0069172D01*
X0128514Y0071121D01*
X0127768Y0072922D01*
X0126389Y0074300D01*
X0124588Y0075046D01*
X0122639Y0075046D01*
X0120838Y0074300D01*
X0119460Y0072922D01*
X0118714Y0071121D01*
X0118714Y0069172D01*
X0119460Y0067371D01*
X0120838Y0065992D01*
X0120319Y0066511D02*
X0062880Y0066511D01*
X0062880Y0067310D02*
X0119520Y0067310D01*
X0119154Y0068108D02*
X0062880Y0068108D01*
X0062880Y0068907D02*
X0118823Y0068907D01*
X0118714Y0069705D02*
X0062880Y0069705D01*
X0062880Y0070504D02*
X0118714Y0070504D01*
X0118789Y0071302D02*
X0062880Y0071302D01*
X0062880Y0072101D02*
X0119119Y0072101D01*
X0119450Y0072899D02*
X0062880Y0072899D01*
X0062880Y0073698D02*
X0120235Y0073698D01*
X0121311Y0074496D02*
X0062880Y0074496D01*
X0062880Y0075295D02*
X0159198Y0075295D01*
X0159198Y0074496D02*
X0135916Y0074496D01*
X0136389Y0074300D02*
X0134588Y0075046D01*
X0132639Y0075046D01*
X0130838Y0074300D01*
X0129460Y0072922D01*
X0128714Y0071121D01*
X0128714Y0069172D01*
X0129460Y0067371D01*
X0130838Y0065992D01*
X0132639Y0065246D01*
X0134588Y0065246D01*
X0136389Y0065992D01*
X0137768Y0067371D01*
X0138514Y0069172D01*
X0138514Y0071121D01*
X0137768Y0072922D01*
X0136389Y0074300D01*
X0136992Y0073698D02*
X0159198Y0073698D01*
X0159198Y0072899D02*
X0137777Y0072899D01*
X0138108Y0072101D02*
X0159198Y0072101D01*
X0159198Y0071302D02*
X0138438Y0071302D01*
X0138514Y0070504D02*
X0159198Y0070504D01*
X0159198Y0069705D02*
X0138514Y0069705D01*
X0138404Y0068907D02*
X0159198Y0068907D01*
X0159198Y0068108D02*
X0138073Y0068108D01*
X0137707Y0067310D02*
X0159198Y0067310D01*
X0159198Y0066511D02*
X0136908Y0066511D01*
X0135714Y0065713D02*
X0159198Y0065713D01*
X0131513Y0065713D02*
X0125714Y0065713D01*
X0126908Y0066511D02*
X0130319Y0066511D01*
X0129520Y0067310D02*
X0127707Y0067310D01*
X0128073Y0068108D02*
X0129154Y0068108D01*
X0128823Y0068907D02*
X0128404Y0068907D01*
X0128514Y0069705D02*
X0128714Y0069705D01*
X0128714Y0070504D02*
X0128514Y0070504D01*
X0128438Y0071302D02*
X0128789Y0071302D01*
X0129119Y0072101D02*
X0128108Y0072101D01*
X0127777Y0072899D02*
X0129450Y0072899D01*
X0130235Y0073698D02*
X0126992Y0073698D01*
X0125916Y0074496D02*
X0131311Y0074496D01*
X0069506Y0031377D02*
X0067297Y0031377D01*
X0066499Y0030578D02*
X0070304Y0030578D01*
X0070738Y0029780D02*
X0059454Y0029780D01*
X0058530Y0030578D02*
X0062430Y0030578D01*
X0061632Y0031377D02*
X0059329Y0031377D01*
X0061204Y0028981D02*
X0070738Y0028981D01*
X0070738Y0028183D02*
X0062003Y0028183D01*
X0062525Y0027384D02*
X0070738Y0027384D01*
X0070738Y0026586D02*
X0062856Y0026586D01*
X0063007Y0025787D02*
X0071339Y0025787D01*
X0072137Y0024989D02*
X0063007Y0024989D01*
X0062899Y0024190D02*
X0072936Y0024190D01*
X0073734Y0023392D02*
X0062568Y0023392D01*
X0062107Y0022593D02*
X0074533Y0022593D01*
X0075331Y0021794D02*
X0061308Y0021794D01*
D16*
X0045494Y0018207D03*
X0080921Y0046420D03*
M02*
