G75*
%MOIN*%
%OFA0B0*%
%FSLAX25Y25*%
%IPPOS*%
%LPD*%
%AMOC8*
5,1,8,0,0,1.08239X$1,22.5*
%
%ADD10C,0.01181*%
%ADD11C,0.07400*%
%ADD12R,0.05118X0.05906*%
%ADD13C,0.04756*%
%ADD14C,0.06496*%
%ADD15C,0.10000*%
%ADD16C,0.05150*%
%ADD17R,0.05906X0.05118*%
%ADD18R,0.02362X0.03937*%
%ADD19R,0.04921X0.07087*%
%ADD20C,0.00800*%
%ADD21C,0.02978*%
%ADD22C,0.01000*%
%ADD23C,0.01200*%
D10*
X0049142Y0017200D02*
X0051898Y0017200D01*
X0051898Y0014444D01*
X0049142Y0014444D01*
X0049142Y0017200D01*
X0049142Y0015624D02*
X0051898Y0015624D01*
X0051898Y0016804D02*
X0049142Y0016804D01*
X0049142Y0024105D02*
X0051898Y0024105D01*
X0051898Y0021349D01*
X0049142Y0021349D01*
X0049142Y0024105D01*
X0049142Y0022529D02*
X0051898Y0022529D01*
X0051898Y0023709D02*
X0049142Y0023709D01*
D11*
X0123614Y0070146D03*
X0133614Y0070146D03*
X0143614Y0070146D03*
X0153614Y0070146D03*
D12*
X0030879Y0038314D03*
X0023398Y0038314D03*
D13*
X0064464Y0033604D03*
X0072338Y0033604D03*
X0080213Y0033604D03*
X0101186Y0033658D03*
X0109060Y0033658D03*
X0116934Y0033658D03*
D14*
X0122839Y0025390D03*
X0095280Y0025390D03*
X0086118Y0025336D03*
X0058559Y0025336D03*
D15*
X0137568Y0044513D03*
X0153159Y0044513D03*
D16*
X0035559Y0021783D03*
X0025717Y0021783D03*
X0015874Y0021783D03*
D17*
X0050651Y0030740D03*
X0050651Y0038221D03*
D18*
X0075916Y0051570D03*
X0081821Y0051570D03*
X0087727Y0051570D03*
X0093632Y0051570D03*
X0099538Y0051570D03*
D19*
X0109794Y0072003D03*
X0065660Y0072003D03*
D20*
X0012487Y0020098D02*
X0012487Y0013418D01*
X0047636Y0013418D01*
X0047352Y0013702D01*
X0047352Y0014222D01*
X0047217Y0014222D01*
X0045920Y0015518D01*
X0044959Y0015518D01*
X0043971Y0015927D01*
X0043214Y0016684D01*
X0042805Y0017672D01*
X0042805Y0018742D01*
X0043214Y0019730D01*
X0043971Y0020487D01*
X0044959Y0020896D01*
X0046029Y0020896D01*
X0047017Y0020487D01*
X0047774Y0019730D01*
X0048174Y0018763D01*
X0048401Y0018990D01*
X0049809Y0018990D01*
X0049858Y0019039D01*
X0051183Y0019039D01*
X0051232Y0018990D01*
X0052640Y0018990D01*
X0053689Y0017941D01*
X0053689Y0013702D01*
X0053405Y0013418D01*
X0159198Y0013418D01*
X0159198Y0042893D01*
X0158415Y0041001D01*
X0156671Y0039257D01*
X0154392Y0038313D01*
X0151925Y0038313D01*
X0149647Y0039257D01*
X0147903Y0041001D01*
X0146959Y0043280D01*
X0146959Y0045747D01*
X0147903Y0048025D01*
X0149647Y0049769D01*
X0151925Y0050713D01*
X0154392Y0050713D01*
X0156671Y0049769D01*
X0158415Y0048025D01*
X0159198Y0046134D01*
X0159198Y0075484D01*
X0113455Y0075484D01*
X0113455Y0067962D01*
X0112752Y0067259D01*
X0106836Y0067259D01*
X0106133Y0067962D01*
X0106133Y0075484D01*
X0069321Y0075484D01*
X0069321Y0067962D01*
X0068618Y0067259D01*
X0062880Y0067259D01*
X0062880Y0057862D01*
X0095039Y0057862D01*
X0095977Y0056925D01*
X0098164Y0054738D01*
X0101216Y0054738D01*
X0101919Y0054035D01*
X0101919Y0049104D01*
X0101216Y0048401D01*
X0101130Y0048401D01*
X0101130Y0044638D01*
X0108532Y0037236D01*
X0109772Y0037236D01*
X0111087Y0036691D01*
X0112093Y0035684D01*
X0112638Y0034369D01*
X0112638Y0032946D01*
X0112093Y0031631D01*
X0111087Y0030624D01*
X0109772Y0030080D01*
X0108348Y0030080D01*
X0107033Y0030624D01*
X0106027Y0031631D01*
X0105482Y0032946D01*
X0105482Y0034369D01*
X0105889Y0035353D01*
X0097930Y0043312D01*
X0097930Y0048401D01*
X0097860Y0048401D01*
X0097157Y0049104D01*
X0097157Y0051219D01*
X0096014Y0052363D01*
X0096014Y0049104D01*
X0095311Y0048401D01*
X0095232Y0048401D01*
X0095232Y0041874D01*
X0100047Y0037059D01*
X0100474Y0037236D01*
X0101898Y0037236D01*
X0103213Y0036691D01*
X0104219Y0035684D01*
X0104764Y0034369D01*
X0104764Y0032946D01*
X0104219Y0031631D01*
X0103213Y0030624D01*
X0101898Y0030080D01*
X0100474Y0030080D01*
X0099159Y0030624D01*
X0098153Y0031631D01*
X0097608Y0032946D01*
X0097608Y0034369D01*
X0097785Y0034796D01*
X0092970Y0039611D01*
X0092032Y0040548D01*
X0092032Y0048401D01*
X0091954Y0048401D01*
X0091251Y0049104D01*
X0091251Y0054035D01*
X0091879Y0054662D01*
X0089481Y0054662D01*
X0090108Y0054035D01*
X0090108Y0049104D01*
X0089405Y0048401D01*
X0089327Y0048401D01*
X0089327Y0040455D01*
X0088390Y0039518D01*
X0083614Y0034742D01*
X0083790Y0034315D01*
X0083790Y0032892D01*
X0083246Y0031577D01*
X0082239Y0030570D01*
X0081813Y0030394D01*
X0081813Y0026565D01*
X0082347Y0027856D01*
X0083598Y0029107D01*
X0085233Y0029784D01*
X0087003Y0029784D01*
X0088638Y0029107D01*
X0089889Y0027856D01*
X0090566Y0026221D01*
X0090566Y0024451D01*
X0089889Y0022816D01*
X0088638Y0021565D01*
X0087003Y0020888D01*
X0085488Y0020888D01*
X0085521Y0020855D01*
X0101868Y0020855D01*
X0113533Y0032519D01*
X0113356Y0032946D01*
X0113356Y0034369D01*
X0113901Y0035684D01*
X0114907Y0036691D01*
X0116222Y0037236D01*
X0117646Y0037236D01*
X0118961Y0036691D01*
X0119967Y0035684D01*
X0120512Y0034369D01*
X0120512Y0032946D01*
X0119967Y0031631D01*
X0118961Y0030624D01*
X0117646Y0030080D01*
X0116222Y0030080D01*
X0115795Y0030256D01*
X0103194Y0017655D01*
X0084195Y0017655D01*
X0083258Y0018592D01*
X0078613Y0023237D01*
X0078613Y0030394D01*
X0078186Y0030570D01*
X0077179Y0031577D01*
X0076635Y0032892D01*
X0076635Y0034315D01*
X0077179Y0035630D01*
X0078186Y0036637D01*
X0079501Y0037182D01*
X0080924Y0037182D01*
X0081351Y0037005D01*
X0086127Y0041781D01*
X0086127Y0048401D01*
X0086049Y0048401D01*
X0085346Y0049104D01*
X0085346Y0054035D01*
X0085973Y0054662D01*
X0083575Y0054662D01*
X0084203Y0054035D01*
X0084203Y0049104D01*
X0083521Y0048423D01*
X0083521Y0047169D01*
X0083610Y0046955D01*
X0083610Y0045885D01*
X0083201Y0044897D01*
X0082444Y0044140D01*
X0081456Y0043731D01*
X0080386Y0043731D01*
X0079398Y0044140D01*
X0078642Y0044897D01*
X0078232Y0045885D01*
X0078232Y0046955D01*
X0078642Y0047943D01*
X0079398Y0048699D01*
X0079714Y0048830D01*
X0079440Y0049104D01*
X0079440Y0054035D01*
X0080068Y0054662D01*
X0077670Y0054662D01*
X0078297Y0054035D01*
X0078297Y0049104D01*
X0077594Y0048401D01*
X0074238Y0048401D01*
X0073535Y0049104D01*
X0073535Y0049678D01*
X0064305Y0049329D01*
X0054804Y0039828D01*
X0054804Y0035165D01*
X0054120Y0034480D01*
X0054804Y0033796D01*
X0054804Y0027871D01*
X0056039Y0029107D01*
X0057674Y0029784D01*
X0059444Y0029784D01*
X0061079Y0029107D01*
X0062330Y0027856D01*
X0063007Y0026221D01*
X0063007Y0024451D01*
X0062330Y0022816D01*
X0061079Y0021565D01*
X0059444Y0020888D01*
X0057674Y0020888D01*
X0056039Y0021565D01*
X0054788Y0022816D01*
X0054111Y0024451D01*
X0054111Y0026221D01*
X0054656Y0027537D01*
X0054101Y0026981D01*
X0052320Y0026981D01*
X0052320Y0025896D01*
X0052640Y0025896D01*
X0053689Y0024847D01*
X0053689Y0020608D01*
X0052640Y0019559D01*
X0048401Y0019559D01*
X0047352Y0020608D01*
X0047352Y0024847D01*
X0048401Y0025896D01*
X0048720Y0025896D01*
X0048720Y0026981D01*
X0047201Y0026981D01*
X0046498Y0027684D01*
X0046498Y0033796D01*
X0047182Y0034480D01*
X0046498Y0035165D01*
X0046498Y0041277D01*
X0046626Y0041404D01*
X0043129Y0041404D01*
X0038439Y0036714D01*
X0034638Y0036714D01*
X0034638Y0034864D01*
X0033935Y0034161D01*
X0027823Y0034161D01*
X0027139Y0034846D01*
X0026455Y0034161D01*
X0020342Y0034161D01*
X0019639Y0034864D01*
X0019639Y0036025D01*
X0017561Y0033946D01*
X0017561Y0025171D01*
X0018012Y0024984D01*
X0019074Y0023922D01*
X0019649Y0022534D01*
X0019649Y0021033D01*
X0019074Y0019645D01*
X0018012Y0018583D01*
X0016625Y0018009D01*
X0015123Y0018009D01*
X0013736Y0018583D01*
X0012674Y0019645D01*
X0012487Y0020098D01*
X0012487Y0019399D02*
X0012920Y0019399D01*
X0012487Y0018600D02*
X0013719Y0018600D01*
X0012487Y0017802D02*
X0042805Y0017802D01*
X0042805Y0018600D02*
X0037715Y0018600D01*
X0037697Y0018583D02*
X0038759Y0019645D01*
X0039334Y0021033D01*
X0039334Y0022534D01*
X0038759Y0023922D01*
X0037697Y0024984D01*
X0036310Y0025558D01*
X0034808Y0025558D01*
X0033421Y0024984D01*
X0032359Y0023922D01*
X0031784Y0022534D01*
X0031784Y0021033D01*
X0032359Y0019645D01*
X0033421Y0018583D01*
X0034808Y0018009D01*
X0036310Y0018009D01*
X0037697Y0018583D01*
X0038513Y0019399D02*
X0043077Y0019399D01*
X0043682Y0020197D02*
X0038988Y0020197D01*
X0039319Y0020996D02*
X0047352Y0020996D01*
X0047352Y0021794D02*
X0039334Y0021794D01*
X0039310Y0022593D02*
X0047352Y0022593D01*
X0047352Y0023392D02*
X0038979Y0023392D01*
X0038491Y0024190D02*
X0047352Y0024190D01*
X0047494Y0024989D02*
X0037685Y0024989D01*
X0033433Y0024989D02*
X0027843Y0024989D01*
X0027855Y0024984D02*
X0026468Y0025558D01*
X0024966Y0025558D01*
X0023578Y0024984D01*
X0022517Y0023922D01*
X0021942Y0022534D01*
X0021942Y0021033D01*
X0022517Y0019645D01*
X0023578Y0018583D01*
X0024966Y0018009D01*
X0026468Y0018009D01*
X0027855Y0018583D01*
X0028917Y0019645D01*
X0029491Y0021033D01*
X0029491Y0022534D01*
X0028917Y0023922D01*
X0027855Y0024984D01*
X0028648Y0024190D02*
X0032627Y0024190D01*
X0032139Y0023392D02*
X0029136Y0023392D01*
X0029467Y0022593D02*
X0031809Y0022593D01*
X0031784Y0021794D02*
X0029491Y0021794D01*
X0029476Y0020996D02*
X0031800Y0020996D01*
X0032130Y0020197D02*
X0029146Y0020197D01*
X0028671Y0019399D02*
X0032605Y0019399D01*
X0033404Y0018600D02*
X0027872Y0018600D01*
X0023561Y0018600D02*
X0018030Y0018600D01*
X0018828Y0019399D02*
X0022763Y0019399D01*
X0022288Y0020197D02*
X0019303Y0020197D01*
X0019634Y0020996D02*
X0021957Y0020996D01*
X0021942Y0021794D02*
X0019649Y0021794D01*
X0019625Y0022593D02*
X0021966Y0022593D01*
X0022297Y0023392D02*
X0019294Y0023392D01*
X0018806Y0024190D02*
X0022785Y0024190D01*
X0023590Y0024989D02*
X0018000Y0024989D01*
X0017561Y0025787D02*
X0048292Y0025787D01*
X0048720Y0026586D02*
X0017561Y0026586D01*
X0017561Y0027384D02*
X0046798Y0027384D01*
X0046498Y0028183D02*
X0017561Y0028183D01*
X0017561Y0028981D02*
X0046498Y0028981D01*
X0046498Y0029780D02*
X0017561Y0029780D01*
X0017561Y0030578D02*
X0046498Y0030578D01*
X0046498Y0031377D02*
X0017561Y0031377D01*
X0017561Y0032175D02*
X0046498Y0032175D01*
X0046498Y0032974D02*
X0017561Y0032974D01*
X0017561Y0033772D02*
X0046498Y0033772D01*
X0047092Y0034571D02*
X0034344Y0034571D01*
X0034638Y0035369D02*
X0046498Y0035369D01*
X0046498Y0036168D02*
X0034638Y0036168D01*
X0037776Y0038314D02*
X0030879Y0038314D01*
X0027413Y0034571D02*
X0026864Y0034571D01*
X0023398Y0038314D02*
X0019666Y0038314D01*
X0015961Y0034609D01*
X0015961Y0021870D01*
X0015874Y0021783D01*
X0012487Y0017003D02*
X0043082Y0017003D01*
X0043693Y0016205D02*
X0012487Y0016205D01*
X0012487Y0015406D02*
X0046032Y0015406D01*
X0046830Y0014608D02*
X0012487Y0014608D01*
X0012487Y0013809D02*
X0047352Y0013809D01*
X0047879Y0015822D02*
X0045494Y0018207D01*
X0047911Y0019399D02*
X0082451Y0019399D01*
X0081653Y0020197D02*
X0053279Y0020197D01*
X0053689Y0020996D02*
X0057413Y0020996D01*
X0055810Y0021794D02*
X0053689Y0021794D01*
X0053689Y0022593D02*
X0055011Y0022593D01*
X0054550Y0023392D02*
X0053689Y0023392D01*
X0053689Y0024190D02*
X0054219Y0024190D01*
X0054111Y0024989D02*
X0053547Y0024989D01*
X0054111Y0025787D02*
X0052749Y0025787D01*
X0052320Y0026586D02*
X0054262Y0026586D01*
X0054504Y0027384D02*
X0054593Y0027384D01*
X0054804Y0028183D02*
X0055115Y0028183D01*
X0054804Y0028981D02*
X0055914Y0028981D01*
X0054804Y0029780D02*
X0057664Y0029780D01*
X0059454Y0029780D02*
X0078613Y0029780D01*
X0078613Y0028981D02*
X0061204Y0028981D01*
X0062003Y0028183D02*
X0078613Y0028183D01*
X0078613Y0027384D02*
X0062525Y0027384D01*
X0062856Y0026586D02*
X0078613Y0026586D01*
X0078613Y0025787D02*
X0063007Y0025787D01*
X0063007Y0024989D02*
X0078613Y0024989D01*
X0078613Y0024190D02*
X0062899Y0024190D01*
X0062568Y0023392D02*
X0078613Y0023392D01*
X0079257Y0022593D02*
X0062107Y0022593D01*
X0061308Y0021794D02*
X0080055Y0021794D01*
X0080854Y0020996D02*
X0059705Y0020996D01*
X0053689Y0017802D02*
X0084048Y0017802D01*
X0083250Y0018600D02*
X0053030Y0018600D01*
X0053689Y0017003D02*
X0159198Y0017003D01*
X0159198Y0016205D02*
X0053689Y0016205D01*
X0053689Y0015406D02*
X0159198Y0015406D01*
X0159198Y0014608D02*
X0053689Y0014608D01*
X0053689Y0013809D02*
X0159198Y0013809D01*
X0159198Y0017802D02*
X0103341Y0017802D01*
X0104139Y0018600D02*
X0159198Y0018600D01*
X0159198Y0019399D02*
X0104938Y0019399D01*
X0105737Y0020197D02*
X0159198Y0020197D01*
X0159198Y0020996D02*
X0123855Y0020996D01*
X0123724Y0020942D02*
X0125359Y0021619D01*
X0126610Y0022870D01*
X0127287Y0024505D01*
X0127287Y0026275D01*
X0126610Y0027909D01*
X0125359Y0029161D01*
X0123724Y0029838D01*
X0121955Y0029838D01*
X0120320Y0029161D01*
X0119069Y0027909D01*
X0118391Y0026275D01*
X0118391Y0024505D01*
X0119069Y0022870D01*
X0120320Y0021619D01*
X0121955Y0020942D01*
X0123724Y0020942D01*
X0121824Y0020996D02*
X0106535Y0020996D01*
X0107334Y0021794D02*
X0120144Y0021794D01*
X0119346Y0022593D02*
X0108132Y0022593D01*
X0108931Y0023392D02*
X0118853Y0023392D01*
X0118522Y0024190D02*
X0109729Y0024190D01*
X0110528Y0024989D02*
X0118391Y0024989D01*
X0118391Y0025787D02*
X0111326Y0025787D01*
X0112125Y0026586D02*
X0118520Y0026586D01*
X0118851Y0027384D02*
X0112923Y0027384D01*
X0113722Y0028183D02*
X0119342Y0028183D01*
X0120140Y0028981D02*
X0114520Y0028981D01*
X0115319Y0029780D02*
X0121814Y0029780D01*
X0118849Y0030578D02*
X0159198Y0030578D01*
X0159198Y0029780D02*
X0123865Y0029780D01*
X0125539Y0028981D02*
X0159198Y0028981D01*
X0159198Y0028183D02*
X0126337Y0028183D01*
X0126828Y0027384D02*
X0159198Y0027384D01*
X0159198Y0026586D02*
X0127159Y0026586D01*
X0127287Y0025787D02*
X0159198Y0025787D01*
X0159198Y0024989D02*
X0127287Y0024989D01*
X0127157Y0024190D02*
X0159198Y0024190D01*
X0159198Y0023392D02*
X0126826Y0023392D01*
X0126333Y0022593D02*
X0159198Y0022593D01*
X0159198Y0021794D02*
X0125534Y0021794D01*
X0109995Y0028981D02*
X0097980Y0028981D01*
X0097800Y0029161D02*
X0096165Y0029838D01*
X0094396Y0029838D01*
X0092761Y0029161D01*
X0091509Y0027909D01*
X0090832Y0026275D01*
X0090832Y0024505D01*
X0091509Y0022870D01*
X0092761Y0021619D01*
X0094396Y0020942D01*
X0096165Y0020942D01*
X0097800Y0021619D01*
X0099051Y0022870D01*
X0099728Y0024505D01*
X0099728Y0026275D01*
X0099051Y0027909D01*
X0097800Y0029161D01*
X0098778Y0028183D02*
X0109196Y0028183D01*
X0108398Y0027384D02*
X0099269Y0027384D01*
X0099600Y0026586D02*
X0107599Y0026586D01*
X0106801Y0025787D02*
X0099728Y0025787D01*
X0099728Y0024989D02*
X0106002Y0024989D01*
X0105204Y0024190D02*
X0099598Y0024190D01*
X0099267Y0023392D02*
X0104405Y0023392D01*
X0103607Y0022593D02*
X0098774Y0022593D01*
X0097975Y0021794D02*
X0102808Y0021794D01*
X0102010Y0020996D02*
X0096296Y0020996D01*
X0094265Y0020996D02*
X0087264Y0020996D01*
X0088867Y0021794D02*
X0092585Y0021794D01*
X0091787Y0022593D02*
X0089666Y0022593D01*
X0090127Y0023392D02*
X0091294Y0023392D01*
X0090963Y0024190D02*
X0090458Y0024190D01*
X0090566Y0024989D02*
X0090832Y0024989D01*
X0090832Y0025787D02*
X0090566Y0025787D01*
X0090415Y0026586D02*
X0090961Y0026586D01*
X0091292Y0027384D02*
X0090084Y0027384D01*
X0089562Y0028183D02*
X0091783Y0028183D01*
X0092581Y0028981D02*
X0088763Y0028981D01*
X0087013Y0029780D02*
X0094255Y0029780D01*
X0096306Y0029780D02*
X0110793Y0029780D01*
X0110975Y0030578D02*
X0111592Y0030578D01*
X0111839Y0031377D02*
X0112390Y0031377D01*
X0112319Y0032175D02*
X0113189Y0032175D01*
X0113356Y0032974D02*
X0112638Y0032974D01*
X0112638Y0033772D02*
X0113356Y0033772D01*
X0113439Y0034571D02*
X0112554Y0034571D01*
X0112224Y0035369D02*
X0113770Y0035369D01*
X0114384Y0036168D02*
X0111610Y0036168D01*
X0110422Y0036966D02*
X0115572Y0036966D01*
X0118296Y0036966D02*
X0159198Y0036966D01*
X0159198Y0036168D02*
X0119484Y0036168D01*
X0120098Y0035369D02*
X0159198Y0035369D01*
X0159198Y0034571D02*
X0120428Y0034571D01*
X0120512Y0033772D02*
X0159198Y0033772D01*
X0159198Y0032974D02*
X0120512Y0032974D01*
X0120193Y0032175D02*
X0159198Y0032175D01*
X0159198Y0031377D02*
X0119713Y0031377D01*
X0116934Y0033658D02*
X0102531Y0019255D01*
X0084858Y0019255D01*
X0080213Y0023900D01*
X0080213Y0033604D01*
X0087727Y0041118D01*
X0087727Y0051570D01*
X0090108Y0051339D02*
X0091251Y0051339D01*
X0091251Y0050541D02*
X0090108Y0050541D01*
X0090108Y0049742D02*
X0091251Y0049742D01*
X0091412Y0048944D02*
X0089948Y0048944D01*
X0089327Y0048145D02*
X0092032Y0048145D01*
X0092032Y0047347D02*
X0089327Y0047347D01*
X0089327Y0046548D02*
X0092032Y0046548D01*
X0092032Y0045750D02*
X0089327Y0045750D01*
X0089327Y0044951D02*
X0092032Y0044951D01*
X0092032Y0044153D02*
X0089327Y0044153D01*
X0089327Y0043354D02*
X0092032Y0043354D01*
X0092032Y0042556D02*
X0089327Y0042556D01*
X0089327Y0041757D02*
X0092032Y0041757D01*
X0092032Y0040959D02*
X0089327Y0040959D01*
X0089032Y0040160D02*
X0092420Y0040160D01*
X0093219Y0039362D02*
X0088233Y0039362D01*
X0087435Y0038563D02*
X0094017Y0038563D01*
X0094816Y0037765D02*
X0086636Y0037765D01*
X0085838Y0036966D02*
X0095614Y0036966D01*
X0096413Y0036168D02*
X0085039Y0036168D01*
X0084241Y0035369D02*
X0097211Y0035369D01*
X0097691Y0034571D02*
X0083685Y0034571D01*
X0083790Y0033772D02*
X0097608Y0033772D01*
X0097608Y0032974D02*
X0083790Y0032974D01*
X0083494Y0032175D02*
X0097927Y0032175D01*
X0098407Y0031377D02*
X0083045Y0031377D01*
X0082247Y0030578D02*
X0099271Y0030578D01*
X0103101Y0030578D02*
X0107145Y0030578D01*
X0106281Y0031377D02*
X0103965Y0031377D01*
X0104445Y0032175D02*
X0105801Y0032175D01*
X0105482Y0032974D02*
X0104764Y0032974D01*
X0104764Y0033772D02*
X0105482Y0033772D01*
X0105565Y0034571D02*
X0104680Y0034571D01*
X0104350Y0035369D02*
X0105873Y0035369D01*
X0105074Y0036168D02*
X0103736Y0036168D01*
X0104276Y0036966D02*
X0102548Y0036966D01*
X0103477Y0037765D02*
X0099341Y0037765D01*
X0098543Y0038563D02*
X0102679Y0038563D01*
X0101880Y0039362D02*
X0097744Y0039362D01*
X0096946Y0040160D02*
X0101082Y0040160D01*
X0100283Y0040959D02*
X0096147Y0040959D01*
X0095349Y0041757D02*
X0099485Y0041757D01*
X0098686Y0042556D02*
X0095232Y0042556D01*
X0095232Y0043354D02*
X0097930Y0043354D01*
X0097930Y0044153D02*
X0095232Y0044153D01*
X0095232Y0044951D02*
X0097930Y0044951D01*
X0097930Y0045750D02*
X0095232Y0045750D01*
X0095232Y0046548D02*
X0097930Y0046548D01*
X0097930Y0047347D02*
X0095232Y0047347D01*
X0095232Y0048145D02*
X0097930Y0048145D01*
X0097317Y0048944D02*
X0095853Y0048944D01*
X0096014Y0049742D02*
X0097157Y0049742D01*
X0097157Y0050541D02*
X0096014Y0050541D01*
X0096014Y0051339D02*
X0097037Y0051339D01*
X0096238Y0052138D02*
X0096014Y0052138D01*
X0093632Y0051570D02*
X0093632Y0041211D01*
X0101186Y0033658D01*
X0109060Y0033658D02*
X0109060Y0034445D01*
X0099530Y0043975D01*
X0099530Y0051109D01*
X0094377Y0056262D01*
X0062734Y0056262D01*
X0049476Y0043004D01*
X0042466Y0043004D01*
X0037776Y0038314D01*
X0038691Y0036966D02*
X0046498Y0036966D01*
X0046498Y0037765D02*
X0039489Y0037765D01*
X0040288Y0038563D02*
X0046498Y0038563D01*
X0046498Y0039362D02*
X0041086Y0039362D01*
X0041885Y0040160D02*
X0046498Y0040160D01*
X0046498Y0040959D02*
X0042683Y0040959D01*
X0054804Y0039362D02*
X0083708Y0039362D01*
X0084506Y0040160D02*
X0055136Y0040160D01*
X0055935Y0040959D02*
X0085305Y0040959D01*
X0086103Y0041757D02*
X0056733Y0041757D01*
X0057532Y0042556D02*
X0086127Y0042556D01*
X0086127Y0043354D02*
X0058330Y0043354D01*
X0059129Y0044153D02*
X0079385Y0044153D01*
X0078619Y0044951D02*
X0059927Y0044951D01*
X0060726Y0045750D02*
X0078288Y0045750D01*
X0078232Y0046548D02*
X0061524Y0046548D01*
X0062323Y0047347D02*
X0078395Y0047347D01*
X0078844Y0048145D02*
X0063121Y0048145D01*
X0063920Y0048944D02*
X0073695Y0048944D01*
X0078137Y0048944D02*
X0079601Y0048944D01*
X0079440Y0049742D02*
X0078297Y0049742D01*
X0078297Y0050541D02*
X0079440Y0050541D01*
X0079440Y0051339D02*
X0078297Y0051339D01*
X0078297Y0052138D02*
X0079440Y0052138D01*
X0079440Y0052936D02*
X0078297Y0052936D01*
X0078297Y0053735D02*
X0079440Y0053735D01*
X0079939Y0054533D02*
X0077799Y0054533D01*
X0083704Y0054533D02*
X0085844Y0054533D01*
X0085346Y0053735D02*
X0084203Y0053735D01*
X0084203Y0052936D02*
X0085346Y0052936D01*
X0085346Y0052138D02*
X0084203Y0052138D01*
X0084203Y0051339D02*
X0085346Y0051339D01*
X0085346Y0050541D02*
X0084203Y0050541D01*
X0084203Y0049742D02*
X0085346Y0049742D01*
X0085506Y0048944D02*
X0084042Y0048944D01*
X0083521Y0048145D02*
X0086127Y0048145D01*
X0086127Y0047347D02*
X0083521Y0047347D01*
X0083610Y0046548D02*
X0086127Y0046548D01*
X0086127Y0045750D02*
X0083554Y0045750D01*
X0083223Y0044951D02*
X0086127Y0044951D01*
X0086127Y0044153D02*
X0082457Y0044153D01*
X0082909Y0038563D02*
X0054804Y0038563D01*
X0054804Y0037765D02*
X0082111Y0037765D01*
X0078981Y0036966D02*
X0073570Y0036966D01*
X0073050Y0037182D02*
X0074365Y0036637D01*
X0075372Y0035630D01*
X0075916Y0034315D01*
X0075916Y0032892D01*
X0075372Y0031577D01*
X0074365Y0030570D01*
X0073050Y0030026D01*
X0071627Y0030026D01*
X0070312Y0030570D01*
X0069305Y0031577D01*
X0068761Y0032892D01*
X0068761Y0034315D01*
X0069305Y0035630D01*
X0070312Y0036637D01*
X0071627Y0037182D01*
X0073050Y0037182D01*
X0071107Y0036966D02*
X0065696Y0036966D01*
X0065176Y0037182D02*
X0063753Y0037182D01*
X0062438Y0036637D01*
X0061431Y0035630D01*
X0060887Y0034315D01*
X0060887Y0032892D01*
X0061431Y0031577D01*
X0062438Y0030570D01*
X0063753Y0030026D01*
X0065176Y0030026D01*
X0066491Y0030570D01*
X0067498Y0031577D01*
X0068042Y0032892D01*
X0068042Y0034315D01*
X0067498Y0035630D01*
X0066491Y0036637D01*
X0065176Y0037182D01*
X0063233Y0036966D02*
X0054804Y0036966D01*
X0054804Y0036168D02*
X0061969Y0036168D01*
X0061323Y0035369D02*
X0054804Y0035369D01*
X0054210Y0034571D02*
X0060992Y0034571D01*
X0060887Y0033772D02*
X0054804Y0033772D01*
X0054804Y0032974D02*
X0060887Y0032974D01*
X0061183Y0032175D02*
X0054804Y0032175D01*
X0054804Y0031377D02*
X0061632Y0031377D01*
X0062430Y0030578D02*
X0054804Y0030578D01*
X0066499Y0030578D02*
X0070304Y0030578D01*
X0069506Y0031377D02*
X0067297Y0031377D01*
X0067746Y0032175D02*
X0069057Y0032175D01*
X0068761Y0032974D02*
X0068042Y0032974D01*
X0068042Y0033772D02*
X0068761Y0033772D01*
X0068866Y0034571D02*
X0067937Y0034571D01*
X0067606Y0035369D02*
X0069197Y0035369D01*
X0069843Y0036168D02*
X0066960Y0036168D01*
X0074834Y0036168D02*
X0077717Y0036168D01*
X0077071Y0035369D02*
X0075480Y0035369D01*
X0075811Y0034571D02*
X0076740Y0034571D01*
X0076635Y0033772D02*
X0075916Y0033772D01*
X0075916Y0032974D02*
X0076635Y0032974D01*
X0076931Y0032175D02*
X0075620Y0032175D01*
X0075171Y0031377D02*
X0077380Y0031377D01*
X0078178Y0030578D02*
X0074373Y0030578D01*
X0081813Y0029780D02*
X0085223Y0029780D01*
X0083473Y0028981D02*
X0081813Y0028981D01*
X0081813Y0028183D02*
X0082674Y0028183D01*
X0082152Y0027384D02*
X0081813Y0027384D01*
X0081813Y0026586D02*
X0081821Y0026586D01*
X0106406Y0039362D02*
X0149542Y0039362D01*
X0148744Y0040160D02*
X0105607Y0040160D01*
X0104809Y0040959D02*
X0147945Y0040959D01*
X0147590Y0041757D02*
X0104010Y0041757D01*
X0103212Y0042556D02*
X0147259Y0042556D01*
X0146959Y0043354D02*
X0102413Y0043354D01*
X0101615Y0044153D02*
X0146959Y0044153D01*
X0146959Y0044951D02*
X0101130Y0044951D01*
X0101130Y0045750D02*
X0146960Y0045750D01*
X0147291Y0046548D02*
X0101130Y0046548D01*
X0101130Y0047347D02*
X0147622Y0047347D01*
X0148023Y0048145D02*
X0101130Y0048145D01*
X0101759Y0048944D02*
X0148821Y0048944D01*
X0149620Y0049742D02*
X0101919Y0049742D01*
X0101919Y0050541D02*
X0151509Y0050541D01*
X0154808Y0050541D02*
X0159198Y0050541D01*
X0159198Y0051339D02*
X0101919Y0051339D01*
X0101919Y0052138D02*
X0159198Y0052138D01*
X0159198Y0052936D02*
X0101919Y0052936D01*
X0101919Y0053735D02*
X0159198Y0053735D01*
X0159198Y0054533D02*
X0101421Y0054533D01*
X0099538Y0051570D02*
X0099530Y0051109D01*
X0097570Y0055332D02*
X0159198Y0055332D01*
X0159198Y0056130D02*
X0096771Y0056130D01*
X0095973Y0056929D02*
X0159198Y0056929D01*
X0159198Y0057727D02*
X0095174Y0057727D01*
X0091750Y0054533D02*
X0089610Y0054533D01*
X0090108Y0053735D02*
X0091251Y0053735D01*
X0091251Y0052936D02*
X0090108Y0052936D01*
X0090108Y0052138D02*
X0091251Y0052138D01*
X0107204Y0038563D02*
X0151322Y0038563D01*
X0154995Y0038563D02*
X0159198Y0038563D01*
X0159198Y0037765D02*
X0108003Y0037765D01*
X0062880Y0058526D02*
X0159198Y0058526D01*
X0159198Y0059325D02*
X0062880Y0059325D01*
X0062880Y0060123D02*
X0159198Y0060123D01*
X0159198Y0060922D02*
X0062880Y0060922D01*
X0062880Y0061720D02*
X0159198Y0061720D01*
X0159198Y0062519D02*
X0062880Y0062519D01*
X0062880Y0063317D02*
X0159198Y0063317D01*
X0159198Y0064116D02*
X0062880Y0064116D01*
X0062880Y0064914D02*
X0159198Y0064914D01*
X0159198Y0065713D02*
X0155714Y0065713D01*
X0156389Y0065992D02*
X0157768Y0067371D01*
X0158514Y0069172D01*
X0158514Y0071121D01*
X0157768Y0072922D01*
X0156389Y0074300D01*
X0154588Y0075046D01*
X0152639Y0075046D01*
X0150838Y0074300D01*
X0149460Y0072922D01*
X0148714Y0071121D01*
X0148714Y0069172D01*
X0149460Y0067371D01*
X0150838Y0065992D01*
X0152639Y0065246D01*
X0154588Y0065246D01*
X0156389Y0065992D01*
X0156908Y0066511D02*
X0159198Y0066511D01*
X0159198Y0067310D02*
X0157707Y0067310D01*
X0158073Y0068108D02*
X0159198Y0068108D01*
X0159198Y0068907D02*
X0158404Y0068907D01*
X0158514Y0069705D02*
X0159198Y0069705D01*
X0159198Y0070504D02*
X0158514Y0070504D01*
X0158438Y0071302D02*
X0159198Y0071302D01*
X0159198Y0072101D02*
X0158108Y0072101D01*
X0157777Y0072899D02*
X0159198Y0072899D01*
X0159198Y0073698D02*
X0156992Y0073698D01*
X0155916Y0074496D02*
X0159198Y0074496D01*
X0159198Y0075295D02*
X0113455Y0075295D01*
X0113455Y0074496D02*
X0141311Y0074496D01*
X0140838Y0074300D02*
X0142639Y0075046D01*
X0144588Y0075046D01*
X0146389Y0074300D01*
X0147768Y0072922D01*
X0148514Y0071121D01*
X0148514Y0069172D01*
X0147768Y0067371D01*
X0146389Y0065992D01*
X0144588Y0065246D01*
X0142639Y0065246D01*
X0140838Y0065992D01*
X0139460Y0067371D01*
X0138714Y0069172D01*
X0138714Y0071121D01*
X0139460Y0072922D01*
X0140838Y0074300D01*
X0140235Y0073698D02*
X0113455Y0073698D01*
X0113455Y0072899D02*
X0139450Y0072899D01*
X0139119Y0072101D02*
X0113455Y0072101D01*
X0113455Y0071302D02*
X0138789Y0071302D01*
X0138714Y0070504D02*
X0113455Y0070504D01*
X0113455Y0069705D02*
X0138714Y0069705D01*
X0138823Y0068907D02*
X0113455Y0068907D01*
X0113455Y0068108D02*
X0139154Y0068108D01*
X0139520Y0067310D02*
X0112802Y0067310D01*
X0106786Y0067310D02*
X0068668Y0067310D01*
X0069321Y0068108D02*
X0106133Y0068108D01*
X0106133Y0068907D02*
X0069321Y0068907D01*
X0069321Y0069705D02*
X0106133Y0069705D01*
X0106133Y0070504D02*
X0069321Y0070504D01*
X0069321Y0071302D02*
X0106133Y0071302D01*
X0106133Y0072101D02*
X0069321Y0072101D01*
X0069321Y0072899D02*
X0106133Y0072899D01*
X0106133Y0073698D02*
X0069321Y0073698D01*
X0069321Y0074496D02*
X0106133Y0074496D01*
X0106133Y0075295D02*
X0069321Y0075295D01*
X0062880Y0066511D02*
X0140319Y0066511D01*
X0141513Y0065713D02*
X0062880Y0065713D01*
X0019639Y0035369D02*
X0018984Y0035369D01*
X0018185Y0034571D02*
X0019933Y0034571D01*
X0047306Y0020197D02*
X0047762Y0020197D01*
X0050520Y0017439D02*
X0050520Y0015822D01*
X0047879Y0015822D01*
X0145714Y0065713D02*
X0151513Y0065713D01*
X0150319Y0066511D02*
X0146908Y0066511D01*
X0147707Y0067310D02*
X0149520Y0067310D01*
X0149154Y0068108D02*
X0148073Y0068108D01*
X0148404Y0068907D02*
X0148823Y0068907D01*
X0148714Y0069705D02*
X0148514Y0069705D01*
X0148514Y0070504D02*
X0148714Y0070504D01*
X0148789Y0071302D02*
X0148438Y0071302D01*
X0148108Y0072101D02*
X0149119Y0072101D01*
X0149450Y0072899D02*
X0147777Y0072899D01*
X0146992Y0073698D02*
X0150235Y0073698D01*
X0151311Y0074496D02*
X0145916Y0074496D01*
X0156698Y0049742D02*
X0159198Y0049742D01*
X0159198Y0048944D02*
X0157496Y0048944D01*
X0158295Y0048145D02*
X0159198Y0048145D01*
X0159198Y0047347D02*
X0158696Y0047347D01*
X0159027Y0046548D02*
X0159198Y0046548D01*
X0159198Y0042556D02*
X0159059Y0042556D01*
X0159198Y0041757D02*
X0158728Y0041757D01*
X0158372Y0040959D02*
X0159198Y0040959D01*
X0159198Y0040160D02*
X0157574Y0040160D01*
X0156775Y0039362D02*
X0159198Y0039362D01*
D21*
X0080921Y0046420D03*
X0045494Y0018207D03*
D22*
X0080921Y0046420D02*
X0081821Y0047320D01*
X0081821Y0051570D01*
D23*
X0075916Y0051570D02*
X0063531Y0051101D01*
X0050651Y0038221D01*
X0050651Y0030740D02*
X0050520Y0030610D01*
X0050520Y0022727D01*
M02*
