%
M48
M72
T01C0.01378
T02C0.02756
T03C0.03150
T04C0.04000
T05C0.04331
T06C0.05315
%
T01
X65810Y39522
X82994Y47321
X75172Y52978
X116881Y35654
T02
X105923Y33533
X98049Y33533
X90175Y33533
X68990Y33533
X61116Y33533
X53242Y33533
T03
X35559Y30768
X25717Y30768
X15874Y30768
T04
X123133Y78008
X133133Y78008
X143133Y78008
X153133Y78008
T05
X47337Y25266
X74896Y25266
X84270Y25266
X111829Y25266
T06
X137568Y49679
X153159Y49679
M30
