G75*
%MOIN*%
%OFA0B0*%
%FSLAX25Y25*%
%IPPOS*%
%LPD*%
%AMOC8*
5,1,8,0,0,1.08239X$1,22.5*
%
%ADD10C,0.00000*%
D10*
X0008087Y0009018D02*
X0008087Y0058231D01*
X0058480Y0058231D01*
X0058480Y0079884D01*
X0163598Y0079884D01*
X0163598Y0009018D01*
X0008087Y0009018D01*
X0013008Y0050357D02*
X0013010Y0050465D01*
X0013016Y0050574D01*
X0013026Y0050682D01*
X0013040Y0050789D01*
X0013058Y0050896D01*
X0013079Y0051003D01*
X0013105Y0051108D01*
X0013135Y0051213D01*
X0013168Y0051316D01*
X0013205Y0051418D01*
X0013246Y0051518D01*
X0013290Y0051617D01*
X0013339Y0051715D01*
X0013390Y0051810D01*
X0013445Y0051903D01*
X0013504Y0051995D01*
X0013566Y0052084D01*
X0013631Y0052171D01*
X0013699Y0052255D01*
X0013770Y0052337D01*
X0013844Y0052416D01*
X0013921Y0052492D01*
X0014001Y0052566D01*
X0014084Y0052636D01*
X0014169Y0052704D01*
X0014256Y0052768D01*
X0014346Y0052829D01*
X0014438Y0052887D01*
X0014532Y0052941D01*
X0014628Y0052992D01*
X0014725Y0053039D01*
X0014825Y0053083D01*
X0014926Y0053123D01*
X0015028Y0053159D01*
X0015131Y0053191D01*
X0015236Y0053220D01*
X0015342Y0053244D01*
X0015448Y0053265D01*
X0015555Y0053282D01*
X0015663Y0053295D01*
X0015771Y0053304D01*
X0015880Y0053309D01*
X0015988Y0053310D01*
X0016097Y0053307D01*
X0016205Y0053300D01*
X0016313Y0053289D01*
X0016420Y0053274D01*
X0016527Y0053255D01*
X0016633Y0053232D01*
X0016738Y0053206D01*
X0016843Y0053175D01*
X0016945Y0053141D01*
X0017047Y0053103D01*
X0017147Y0053061D01*
X0017246Y0053016D01*
X0017343Y0052967D01*
X0017437Y0052914D01*
X0017530Y0052858D01*
X0017621Y0052799D01*
X0017710Y0052736D01*
X0017796Y0052671D01*
X0017880Y0052602D01*
X0017961Y0052530D01*
X0018039Y0052455D01*
X0018115Y0052377D01*
X0018188Y0052296D01*
X0018258Y0052213D01*
X0018324Y0052128D01*
X0018388Y0052040D01*
X0018448Y0051949D01*
X0018505Y0051857D01*
X0018558Y0051762D01*
X0018608Y0051666D01*
X0018654Y0051568D01*
X0018697Y0051468D01*
X0018736Y0051367D01*
X0018771Y0051264D01*
X0018803Y0051161D01*
X0018830Y0051056D01*
X0018854Y0050950D01*
X0018874Y0050843D01*
X0018890Y0050736D01*
X0018902Y0050628D01*
X0018910Y0050520D01*
X0018914Y0050411D01*
X0018914Y0050303D01*
X0018910Y0050194D01*
X0018902Y0050086D01*
X0018890Y0049978D01*
X0018874Y0049871D01*
X0018854Y0049764D01*
X0018830Y0049658D01*
X0018803Y0049553D01*
X0018771Y0049450D01*
X0018736Y0049347D01*
X0018697Y0049246D01*
X0018654Y0049146D01*
X0018608Y0049048D01*
X0018558Y0048952D01*
X0018505Y0048857D01*
X0018448Y0048765D01*
X0018388Y0048674D01*
X0018324Y0048586D01*
X0018258Y0048501D01*
X0018188Y0048418D01*
X0018115Y0048337D01*
X0018039Y0048259D01*
X0017961Y0048184D01*
X0017880Y0048112D01*
X0017796Y0048043D01*
X0017710Y0047978D01*
X0017621Y0047915D01*
X0017530Y0047856D01*
X0017438Y0047800D01*
X0017343Y0047747D01*
X0017246Y0047698D01*
X0017147Y0047653D01*
X0017047Y0047611D01*
X0016945Y0047573D01*
X0016843Y0047539D01*
X0016738Y0047508D01*
X0016633Y0047482D01*
X0016527Y0047459D01*
X0016420Y0047440D01*
X0016313Y0047425D01*
X0016205Y0047414D01*
X0016097Y0047407D01*
X0015988Y0047404D01*
X0015880Y0047405D01*
X0015771Y0047410D01*
X0015663Y0047419D01*
X0015555Y0047432D01*
X0015448Y0047449D01*
X0015342Y0047470D01*
X0015236Y0047494D01*
X0015131Y0047523D01*
X0015028Y0047555D01*
X0014926Y0047591D01*
X0014825Y0047631D01*
X0014725Y0047675D01*
X0014628Y0047722D01*
X0014532Y0047773D01*
X0014438Y0047827D01*
X0014346Y0047885D01*
X0014256Y0047946D01*
X0014169Y0048010D01*
X0014084Y0048078D01*
X0014001Y0048148D01*
X0013921Y0048222D01*
X0013844Y0048298D01*
X0013770Y0048377D01*
X0013699Y0048459D01*
X0013631Y0048543D01*
X0013566Y0048630D01*
X0013504Y0048719D01*
X0013445Y0048811D01*
X0013390Y0048904D01*
X0013339Y0048999D01*
X0013290Y0049097D01*
X0013246Y0049196D01*
X0013205Y0049296D01*
X0013168Y0049398D01*
X0013135Y0049501D01*
X0013105Y0049606D01*
X0013079Y0049711D01*
X0013058Y0049818D01*
X0013040Y0049925D01*
X0013026Y0050032D01*
X0013016Y0050140D01*
X0013010Y0050249D01*
X0013008Y0050357D01*
X0032693Y0050357D02*
X0032695Y0050465D01*
X0032701Y0050574D01*
X0032711Y0050682D01*
X0032725Y0050789D01*
X0032743Y0050896D01*
X0032764Y0051003D01*
X0032790Y0051108D01*
X0032820Y0051213D01*
X0032853Y0051316D01*
X0032890Y0051418D01*
X0032931Y0051518D01*
X0032975Y0051617D01*
X0033024Y0051715D01*
X0033075Y0051810D01*
X0033130Y0051903D01*
X0033189Y0051995D01*
X0033251Y0052084D01*
X0033316Y0052171D01*
X0033384Y0052255D01*
X0033455Y0052337D01*
X0033529Y0052416D01*
X0033606Y0052492D01*
X0033686Y0052566D01*
X0033769Y0052636D01*
X0033854Y0052704D01*
X0033941Y0052768D01*
X0034031Y0052829D01*
X0034123Y0052887D01*
X0034217Y0052941D01*
X0034313Y0052992D01*
X0034410Y0053039D01*
X0034510Y0053083D01*
X0034611Y0053123D01*
X0034713Y0053159D01*
X0034816Y0053191D01*
X0034921Y0053220D01*
X0035027Y0053244D01*
X0035133Y0053265D01*
X0035240Y0053282D01*
X0035348Y0053295D01*
X0035456Y0053304D01*
X0035565Y0053309D01*
X0035673Y0053310D01*
X0035782Y0053307D01*
X0035890Y0053300D01*
X0035998Y0053289D01*
X0036105Y0053274D01*
X0036212Y0053255D01*
X0036318Y0053232D01*
X0036423Y0053206D01*
X0036528Y0053175D01*
X0036630Y0053141D01*
X0036732Y0053103D01*
X0036832Y0053061D01*
X0036931Y0053016D01*
X0037028Y0052967D01*
X0037122Y0052914D01*
X0037215Y0052858D01*
X0037306Y0052799D01*
X0037395Y0052736D01*
X0037481Y0052671D01*
X0037565Y0052602D01*
X0037646Y0052530D01*
X0037724Y0052455D01*
X0037800Y0052377D01*
X0037873Y0052296D01*
X0037943Y0052213D01*
X0038009Y0052128D01*
X0038073Y0052040D01*
X0038133Y0051949D01*
X0038190Y0051857D01*
X0038243Y0051762D01*
X0038293Y0051666D01*
X0038339Y0051568D01*
X0038382Y0051468D01*
X0038421Y0051367D01*
X0038456Y0051264D01*
X0038488Y0051161D01*
X0038515Y0051056D01*
X0038539Y0050950D01*
X0038559Y0050843D01*
X0038575Y0050736D01*
X0038587Y0050628D01*
X0038595Y0050520D01*
X0038599Y0050411D01*
X0038599Y0050303D01*
X0038595Y0050194D01*
X0038587Y0050086D01*
X0038575Y0049978D01*
X0038559Y0049871D01*
X0038539Y0049764D01*
X0038515Y0049658D01*
X0038488Y0049553D01*
X0038456Y0049450D01*
X0038421Y0049347D01*
X0038382Y0049246D01*
X0038339Y0049146D01*
X0038293Y0049048D01*
X0038243Y0048952D01*
X0038190Y0048857D01*
X0038133Y0048765D01*
X0038073Y0048674D01*
X0038009Y0048586D01*
X0037943Y0048501D01*
X0037873Y0048418D01*
X0037800Y0048337D01*
X0037724Y0048259D01*
X0037646Y0048184D01*
X0037565Y0048112D01*
X0037481Y0048043D01*
X0037395Y0047978D01*
X0037306Y0047915D01*
X0037215Y0047856D01*
X0037123Y0047800D01*
X0037028Y0047747D01*
X0036931Y0047698D01*
X0036832Y0047653D01*
X0036732Y0047611D01*
X0036630Y0047573D01*
X0036528Y0047539D01*
X0036423Y0047508D01*
X0036318Y0047482D01*
X0036212Y0047459D01*
X0036105Y0047440D01*
X0035998Y0047425D01*
X0035890Y0047414D01*
X0035782Y0047407D01*
X0035673Y0047404D01*
X0035565Y0047405D01*
X0035456Y0047410D01*
X0035348Y0047419D01*
X0035240Y0047432D01*
X0035133Y0047449D01*
X0035027Y0047470D01*
X0034921Y0047494D01*
X0034816Y0047523D01*
X0034713Y0047555D01*
X0034611Y0047591D01*
X0034510Y0047631D01*
X0034410Y0047675D01*
X0034313Y0047722D01*
X0034217Y0047773D01*
X0034123Y0047827D01*
X0034031Y0047885D01*
X0033941Y0047946D01*
X0033854Y0048010D01*
X0033769Y0048078D01*
X0033686Y0048148D01*
X0033606Y0048222D01*
X0033529Y0048298D01*
X0033455Y0048377D01*
X0033384Y0048459D01*
X0033316Y0048543D01*
X0033251Y0048630D01*
X0033189Y0048719D01*
X0033130Y0048811D01*
X0033075Y0048904D01*
X0033024Y0048999D01*
X0032975Y0049097D01*
X0032931Y0049196D01*
X0032890Y0049296D01*
X0032853Y0049398D01*
X0032820Y0049501D01*
X0032790Y0049606D01*
X0032764Y0049711D01*
X0032743Y0049818D01*
X0032725Y0049925D01*
X0032711Y0050032D01*
X0032701Y0050140D01*
X0032695Y0050249D01*
X0032693Y0050357D01*
M02*
