%
M48
M72
T01C0.01378
T02C0.02756
T03C0.03150
T04C0.04000
T05C0.04331
T06C0.05315
T07C0.05906
%
T01
X45494Y18207
X80921Y46420
T02
X80213Y33604
X72338Y33604
X64464Y33604
X101186Y33658
X109060Y33658
X116934Y33658
T03
X15874Y21783
X25717Y21783
X35559Y21783
T04
X123614Y70146
X133614Y70146
X143614Y70146
X153614Y70146
T05
X122839Y25390
X95280Y25390
X86118Y25336
X58559Y25336
T06
X137568Y44513
X153159Y44513
T07
X35646Y50357
X15961Y50357
M30
