G75*
%MOIN*%
%OFA0B0*%
%FSLAX25Y25*%
%IPPOS*%
%LPD*%
%AMOC8*
5,1,8,0,0,1.08239X$1,22.5*
%
%ADD10C,0.06706*%
%ADD11C,0.01421*%
%ADD12C,0.08200*%
%ADD13R,0.05918X0.06706*%
%ADD14C,0.05556*%
%ADD15C,0.07296*%
%ADD16C,0.10800*%
%ADD17C,0.05950*%
%ADD18R,0.06706X0.05918*%
%ADD19R,0.03162X0.04737*%
%ADD20R,0.05721X0.07887*%
%ADD21C,0.03778*%
D10*
X0015961Y0050357D03*
X0035646Y0050357D03*
D11*
X0048862Y0024385D02*
X0052178Y0024385D01*
X0052178Y0021069D01*
X0048862Y0021069D01*
X0048862Y0024385D01*
X0048862Y0022489D02*
X0052178Y0022489D01*
X0052178Y0023909D02*
X0048862Y0023909D01*
X0048862Y0017480D02*
X0052178Y0017480D01*
X0052178Y0014164D01*
X0048862Y0014164D01*
X0048862Y0017480D01*
X0048862Y0015584D02*
X0052178Y0015584D01*
X0052178Y0017004D02*
X0048862Y0017004D01*
D12*
X0123614Y0070146D03*
X0133614Y0070146D03*
X0143614Y0070146D03*
X0153614Y0070146D03*
D13*
X0030879Y0038314D03*
X0023398Y0038314D03*
D14*
X0064464Y0033604D03*
X0072338Y0033604D03*
X0080213Y0033604D03*
X0101186Y0033658D03*
X0109060Y0033658D03*
X0116934Y0033658D03*
D15*
X0122839Y0025390D03*
X0095280Y0025390D03*
X0086118Y0025336D03*
X0058559Y0025336D03*
D16*
X0137568Y0044513D03*
X0153159Y0044513D03*
D17*
X0015874Y0021783D03*
X0025717Y0021783D03*
X0035559Y0021783D03*
D18*
X0050651Y0030740D03*
X0050651Y0038221D03*
D19*
X0075916Y0051570D03*
X0081821Y0051570D03*
X0087727Y0051570D03*
X0093632Y0051570D03*
X0099538Y0051570D03*
D20*
X0109794Y0072003D03*
X0065660Y0072003D03*
D21*
X0080921Y0046420D03*
X0045494Y0018207D03*
M02*
