G75*
%MOIN*%
%OFA0B0*%
%FSLAX25Y25*%
%IPPOS*%
%LPD*%
%AMOC8*
5,1,8,0,0,1.08239X$1,22.5*
%
%ADD10C,0.00600*%
%ADD11C,0.00000*%
%ADD12C,0.07099*%
%ADD13R,0.03000X0.08600*%
%ADD14R,0.08674X0.12611*%
%ADD15R,0.03556X0.04343*%
%ADD16R,0.04343X0.03556*%
%ADD17R,0.12611X0.08674*%
%ADD18R,0.10249X0.10249*%
%ADD19C,0.01421*%
%ADD20R,0.03556X0.03162*%
%ADD21R,0.13398X0.07887*%
%ADD22R,0.03162X0.03556*%
%ADD23R,0.05918X0.06706*%
%ADD24R,0.06706X0.05918*%
%ADD25R,0.07887X0.13398*%
%ADD26R,0.07887X0.14973*%
%ADD27C,0.00690*%
%ADD28C,0.00268*%
%ADD29C,0.00341*%
%ADD30C,0.06737*%
%ADD31R,0.11824X0.09068*%
%ADD32R,0.08280X0.03162*%
%ADD33C,0.00594*%
%ADD34C,0.08200*%
%ADD35R,0.27965X0.07887*%
%ADD36C,0.05556*%
%ADD37C,0.07296*%
%ADD38C,0.05950*%
%ADD39R,0.04737X0.02178*%
%ADD40R,0.04737X0.03162*%
%ADD41R,0.07887X0.05721*%
%ADD42R,0.03162X0.09461*%
%ADD43R,0.11430X0.14973*%
%ADD44C,0.03778*%
%ADD45C,0.12611*%
D10*
X0074829Y0081354D02*
X0216915Y0019962D01*
X0216915Y0019961D02*
X0220440Y0018516D01*
X0223999Y0017157D01*
X0227591Y0015886D01*
X0231212Y0014703D01*
X0234862Y0013609D01*
X0238537Y0012605D01*
X0242236Y0011692D01*
X0245956Y0010869D01*
X0249695Y0010137D01*
X0253450Y0009498D01*
X0257221Y0008950D01*
X0261003Y0008496D01*
X0264796Y0008133D01*
X0268597Y0007864D01*
X0272402Y0007689D01*
X0276211Y0007606D01*
X0280021Y0007617D01*
X0283830Y0007721D01*
X0287634Y0007918D01*
X0291433Y0008209D01*
X0295224Y0008592D01*
X0299004Y0009068D01*
X0302771Y0009637D01*
X0306523Y0010298D01*
X0310258Y0011050D01*
X0313973Y0011894D01*
X0317667Y0012828D01*
X0321336Y0013853D01*
X0324980Y0014967D01*
X0328595Y0016171D01*
X0332179Y0017462D01*
X0335731Y0018841D01*
X0339247Y0020306D01*
X0342727Y0021857D01*
X0346168Y0023493D01*
X0349568Y0025213D01*
X0352924Y0027015D01*
X0356236Y0028900D01*
X0359500Y0030864D01*
X0362715Y0032908D01*
X0365879Y0035031D01*
X0368990Y0037230D01*
X0372046Y0039504D01*
X0375046Y0041853D01*
X0377987Y0044275D01*
X0380868Y0046768D01*
X0383688Y0049331D01*
X0386443Y0051962D01*
X0389133Y0054660D01*
X0391757Y0057423D01*
X0394311Y0060249D01*
X0396796Y0063137D01*
X0399210Y0066085D01*
X0401550Y0069091D01*
X0403816Y0072154D01*
X0406006Y0075271D01*
X0408120Y0078441D01*
X0410155Y0081662D01*
X0412110Y0084932D01*
X0413985Y0088249D01*
X0415778Y0091610D01*
X0417488Y0095015D01*
X0419114Y0098460D01*
X0420656Y0101944D01*
X0422111Y0105465D01*
X0423480Y0109021D01*
X0424761Y0112609D01*
X0425954Y0116227D01*
X0427058Y0119873D01*
X0428073Y0123546D01*
X0428997Y0127242D01*
X0429830Y0130960D01*
X0430572Y0134697D01*
X0431222Y0138451D01*
X0431780Y0142219D01*
X0432246Y0146001D01*
X0432619Y0149792D01*
X0432898Y0153592D01*
X0433085Y0157397D01*
X0433178Y0161206D01*
X0433178Y0165016D01*
X0433085Y0168825D01*
X0432898Y0172630D01*
X0432619Y0176430D01*
X0432246Y0180221D01*
X0431780Y0184003D01*
X0431222Y0187771D01*
X0430572Y0191525D01*
X0429830Y0195262D01*
X0428997Y0198980D01*
X0428073Y0202676D01*
X0427058Y0206349D01*
X0425954Y0209995D01*
X0424761Y0213613D01*
X0423480Y0217201D01*
X0422111Y0220757D01*
X0420656Y0224278D01*
X0419114Y0227762D01*
X0417488Y0231207D01*
X0415778Y0234612D01*
X0413985Y0237973D01*
X0412110Y0241290D01*
X0410155Y0244560D01*
X0408120Y0247781D01*
X0406006Y0250951D01*
X0403816Y0254068D01*
X0401550Y0257131D01*
X0399210Y0260137D01*
X0396796Y0263085D01*
X0394311Y0265973D01*
X0391757Y0268799D01*
X0389133Y0271562D01*
X0386443Y0274260D01*
X0383688Y0276891D01*
X0380868Y0279454D01*
X0377987Y0281947D01*
X0375046Y0284369D01*
X0372046Y0286718D01*
X0368990Y0288992D01*
X0365879Y0291191D01*
X0362715Y0293314D01*
X0359500Y0295358D01*
X0356236Y0297322D01*
X0352924Y0299207D01*
X0349568Y0301009D01*
X0346168Y0302729D01*
X0342727Y0304365D01*
X0339247Y0305916D01*
X0335731Y0307381D01*
X0332179Y0308760D01*
X0328595Y0310051D01*
X0324980Y0311255D01*
X0321336Y0312369D01*
X0317667Y0313394D01*
X0313973Y0314328D01*
X0310258Y0315172D01*
X0306523Y0315924D01*
X0302771Y0316585D01*
X0299004Y0317154D01*
X0295224Y0317630D01*
X0291433Y0318013D01*
X0287634Y0318304D01*
X0283830Y0318501D01*
X0280021Y0318605D01*
X0276211Y0318616D01*
X0272402Y0318533D01*
X0268597Y0318358D01*
X0264796Y0318089D01*
X0261003Y0317726D01*
X0257221Y0317272D01*
X0253450Y0316724D01*
X0249695Y0316085D01*
X0245956Y0315353D01*
X0242236Y0314530D01*
X0238537Y0313617D01*
X0234862Y0312613D01*
X0231212Y0311519D01*
X0227591Y0310336D01*
X0223999Y0309065D01*
X0220440Y0307706D01*
X0216915Y0306261D01*
X0216915Y0306260D02*
X0074829Y0244868D01*
X0072837Y0244008D01*
X0070866Y0243100D01*
X0068919Y0242144D01*
X0066995Y0241141D01*
X0065097Y0240090D01*
X0063225Y0238994D01*
X0061380Y0237852D01*
X0059564Y0236665D01*
X0057777Y0235434D01*
X0056022Y0234159D01*
X0054298Y0232842D01*
X0052606Y0231483D01*
X0050949Y0230084D01*
X0049326Y0228644D01*
X0047739Y0227164D01*
X0046188Y0225647D01*
X0044676Y0224091D01*
X0043202Y0222499D01*
X0041767Y0220872D01*
X0040372Y0219210D01*
X0039019Y0217514D01*
X0037708Y0215786D01*
X0036439Y0214026D01*
X0035214Y0212235D01*
X0034033Y0210415D01*
X0032897Y0208567D01*
X0031806Y0206691D01*
X0030762Y0204789D01*
X0029765Y0202862D01*
X0028815Y0200912D01*
X0027914Y0198938D01*
X0027060Y0196944D01*
X0026256Y0194928D01*
X0025502Y0192894D01*
X0024798Y0190842D01*
X0024144Y0188774D01*
X0023541Y0186689D01*
X0022989Y0184591D01*
X0022488Y0182480D01*
X0022040Y0180357D01*
X0021644Y0178224D01*
X0021300Y0176082D01*
X0021008Y0173932D01*
X0020770Y0171776D01*
X0020584Y0169614D01*
X0020451Y0167449D01*
X0020372Y0165280D01*
X0020345Y0163111D01*
X0020372Y0160942D01*
X0020451Y0158773D01*
X0020584Y0156608D01*
X0020770Y0154446D01*
X0021008Y0152290D01*
X0021300Y0150140D01*
X0021644Y0147998D01*
X0022040Y0145865D01*
X0022488Y0143742D01*
X0022989Y0141631D01*
X0023541Y0139533D01*
X0024144Y0137448D01*
X0024798Y0135380D01*
X0025502Y0133328D01*
X0026256Y0131294D01*
X0027060Y0129278D01*
X0027914Y0127284D01*
X0028815Y0125310D01*
X0029765Y0123360D01*
X0030762Y0121433D01*
X0031806Y0119531D01*
X0032897Y0117655D01*
X0034033Y0115807D01*
X0035214Y0113987D01*
X0036439Y0112196D01*
X0037708Y0110436D01*
X0039019Y0108708D01*
X0040372Y0107012D01*
X0041767Y0105350D01*
X0043202Y0103723D01*
X0044676Y0102131D01*
X0046188Y0100575D01*
X0047739Y0099058D01*
X0049326Y0097578D01*
X0050949Y0096138D01*
X0052606Y0094739D01*
X0054298Y0093380D01*
X0056022Y0092063D01*
X0057777Y0090788D01*
X0059564Y0089557D01*
X0061380Y0088370D01*
X0063225Y0087228D01*
X0065097Y0086132D01*
X0066995Y0085081D01*
X0068919Y0084078D01*
X0070866Y0083122D01*
X0072837Y0082214D01*
X0074829Y0081354D01*
X0218623Y0163111D02*
X0218641Y0164560D01*
X0218694Y0166009D01*
X0218783Y0167455D01*
X0218907Y0168899D01*
X0219067Y0170340D01*
X0219262Y0171776D01*
X0219492Y0173207D01*
X0219758Y0174632D01*
X0220058Y0176050D01*
X0220393Y0177460D01*
X0220762Y0178862D01*
X0221166Y0180254D01*
X0221604Y0181635D01*
X0222075Y0183006D01*
X0222580Y0184365D01*
X0223118Y0185710D01*
X0223689Y0187043D01*
X0224293Y0188360D01*
X0224929Y0189663D01*
X0225596Y0190949D01*
X0226295Y0192219D01*
X0227025Y0193471D01*
X0227785Y0194705D01*
X0228576Y0195920D01*
X0229396Y0197115D01*
X0230245Y0198290D01*
X0231122Y0199444D01*
X0232028Y0200575D01*
X0232961Y0201684D01*
X0233921Y0202770D01*
X0234908Y0203832D01*
X0235920Y0204869D01*
X0236957Y0205881D01*
X0238019Y0206868D01*
X0239105Y0207828D01*
X0240214Y0208761D01*
X0241345Y0209667D01*
X0242499Y0210544D01*
X0243674Y0211393D01*
X0244869Y0212213D01*
X0246084Y0213004D01*
X0247318Y0213764D01*
X0248570Y0214494D01*
X0249840Y0215193D01*
X0251126Y0215860D01*
X0252429Y0216496D01*
X0253746Y0217100D01*
X0255079Y0217671D01*
X0256424Y0218209D01*
X0257783Y0218714D01*
X0259154Y0219185D01*
X0260535Y0219623D01*
X0261927Y0220027D01*
X0263329Y0220396D01*
X0264739Y0220731D01*
X0266157Y0221031D01*
X0267582Y0221297D01*
X0269013Y0221527D01*
X0270449Y0221722D01*
X0271890Y0221882D01*
X0273334Y0222006D01*
X0274780Y0222095D01*
X0276229Y0222148D01*
X0277678Y0222166D01*
X0279127Y0222148D01*
X0280576Y0222095D01*
X0282022Y0222006D01*
X0283466Y0221882D01*
X0284907Y0221722D01*
X0286343Y0221527D01*
X0287774Y0221297D01*
X0289199Y0221031D01*
X0290617Y0220731D01*
X0292027Y0220396D01*
X0293429Y0220027D01*
X0294821Y0219623D01*
X0296202Y0219185D01*
X0297573Y0218714D01*
X0298932Y0218209D01*
X0300277Y0217671D01*
X0301610Y0217100D01*
X0302927Y0216496D01*
X0304230Y0215860D01*
X0305516Y0215193D01*
X0306786Y0214494D01*
X0308038Y0213764D01*
X0309272Y0213004D01*
X0310487Y0212213D01*
X0311682Y0211393D01*
X0312857Y0210544D01*
X0314011Y0209667D01*
X0315142Y0208761D01*
X0316251Y0207828D01*
X0317337Y0206868D01*
X0318399Y0205881D01*
X0319436Y0204869D01*
X0320448Y0203832D01*
X0321435Y0202770D01*
X0322395Y0201684D01*
X0323328Y0200575D01*
X0324234Y0199444D01*
X0325111Y0198290D01*
X0325960Y0197115D01*
X0326780Y0195920D01*
X0327571Y0194705D01*
X0328331Y0193471D01*
X0329061Y0192219D01*
X0329760Y0190949D01*
X0330427Y0189663D01*
X0331063Y0188360D01*
X0331667Y0187043D01*
X0332238Y0185710D01*
X0332776Y0184365D01*
X0333281Y0183006D01*
X0333752Y0181635D01*
X0334190Y0180254D01*
X0334594Y0178862D01*
X0334963Y0177460D01*
X0335298Y0176050D01*
X0335598Y0174632D01*
X0335864Y0173207D01*
X0336094Y0171776D01*
X0336289Y0170340D01*
X0336449Y0168899D01*
X0336573Y0167455D01*
X0336662Y0166009D01*
X0336715Y0164560D01*
X0336733Y0163111D01*
X0336715Y0161662D01*
X0336662Y0160213D01*
X0336573Y0158767D01*
X0336449Y0157323D01*
X0336289Y0155882D01*
X0336094Y0154446D01*
X0335864Y0153015D01*
X0335598Y0151590D01*
X0335298Y0150172D01*
X0334963Y0148762D01*
X0334594Y0147360D01*
X0334190Y0145968D01*
X0333752Y0144587D01*
X0333281Y0143216D01*
X0332776Y0141857D01*
X0332238Y0140512D01*
X0331667Y0139179D01*
X0331063Y0137862D01*
X0330427Y0136559D01*
X0329760Y0135273D01*
X0329061Y0134003D01*
X0328331Y0132751D01*
X0327571Y0131517D01*
X0326780Y0130302D01*
X0325960Y0129107D01*
X0325111Y0127932D01*
X0324234Y0126778D01*
X0323328Y0125647D01*
X0322395Y0124538D01*
X0321435Y0123452D01*
X0320448Y0122390D01*
X0319436Y0121353D01*
X0318399Y0120341D01*
X0317337Y0119354D01*
X0316251Y0118394D01*
X0315142Y0117461D01*
X0314011Y0116555D01*
X0312857Y0115678D01*
X0311682Y0114829D01*
X0310487Y0114009D01*
X0309272Y0113218D01*
X0308038Y0112458D01*
X0306786Y0111728D01*
X0305516Y0111029D01*
X0304230Y0110362D01*
X0302927Y0109726D01*
X0301610Y0109122D01*
X0300277Y0108551D01*
X0298932Y0108013D01*
X0297573Y0107508D01*
X0296202Y0107037D01*
X0294821Y0106599D01*
X0293429Y0106195D01*
X0292027Y0105826D01*
X0290617Y0105491D01*
X0289199Y0105191D01*
X0287774Y0104925D01*
X0286343Y0104695D01*
X0284907Y0104500D01*
X0283466Y0104340D01*
X0282022Y0104216D01*
X0280576Y0104127D01*
X0279127Y0104074D01*
X0277678Y0104056D01*
X0276229Y0104074D01*
X0274780Y0104127D01*
X0273334Y0104216D01*
X0271890Y0104340D01*
X0270449Y0104500D01*
X0269013Y0104695D01*
X0267582Y0104925D01*
X0266157Y0105191D01*
X0264739Y0105491D01*
X0263329Y0105826D01*
X0261927Y0106195D01*
X0260535Y0106599D01*
X0259154Y0107037D01*
X0257783Y0107508D01*
X0256424Y0108013D01*
X0255079Y0108551D01*
X0253746Y0109122D01*
X0252429Y0109726D01*
X0251126Y0110362D01*
X0249840Y0111029D01*
X0248570Y0111728D01*
X0247318Y0112458D01*
X0246084Y0113218D01*
X0244869Y0114009D01*
X0243674Y0114829D01*
X0242499Y0115678D01*
X0241345Y0116555D01*
X0240214Y0117461D01*
X0239105Y0118394D01*
X0238019Y0119354D01*
X0236957Y0120341D01*
X0235920Y0121353D01*
X0234908Y0122390D01*
X0233921Y0123452D01*
X0232961Y0124538D01*
X0232028Y0125647D01*
X0231122Y0126778D01*
X0230245Y0127932D01*
X0229396Y0129107D01*
X0228576Y0130302D01*
X0227785Y0131517D01*
X0227025Y0132751D01*
X0226295Y0134003D01*
X0225596Y0135273D01*
X0224929Y0136559D01*
X0224293Y0137862D01*
X0223689Y0139179D01*
X0223118Y0140512D01*
X0222580Y0141857D01*
X0222075Y0143216D01*
X0221604Y0144587D01*
X0221166Y0145968D01*
X0220762Y0147360D01*
X0220393Y0148762D01*
X0220058Y0150172D01*
X0219758Y0151590D01*
X0219492Y0153015D01*
X0219262Y0154446D01*
X0219067Y0155882D01*
X0218907Y0157323D01*
X0218783Y0158767D01*
X0218694Y0160213D01*
X0218641Y0161662D01*
X0218623Y0163111D01*
D11*
X0078544Y0087520D02*
X0078546Y0087632D01*
X0078552Y0087743D01*
X0078562Y0087855D01*
X0078576Y0087966D01*
X0078593Y0088076D01*
X0078615Y0088186D01*
X0078641Y0088295D01*
X0078670Y0088403D01*
X0078703Y0088509D01*
X0078740Y0088615D01*
X0078781Y0088719D01*
X0078826Y0088822D01*
X0078874Y0088923D01*
X0078925Y0089022D01*
X0078980Y0089119D01*
X0079039Y0089214D01*
X0079100Y0089308D01*
X0079165Y0089399D01*
X0079234Y0089487D01*
X0079305Y0089573D01*
X0079379Y0089657D01*
X0079457Y0089737D01*
X0079537Y0089815D01*
X0079620Y0089891D01*
X0079705Y0089963D01*
X0079793Y0090032D01*
X0079883Y0090098D01*
X0079976Y0090160D01*
X0080071Y0090220D01*
X0080168Y0090276D01*
X0080266Y0090328D01*
X0080367Y0090377D01*
X0080469Y0090422D01*
X0080573Y0090464D01*
X0080678Y0090502D01*
X0080785Y0090536D01*
X0080892Y0090566D01*
X0081001Y0090593D01*
X0081110Y0090615D01*
X0081221Y0090634D01*
X0081331Y0090649D01*
X0081443Y0090660D01*
X0081554Y0090667D01*
X0081666Y0090670D01*
X0081778Y0090669D01*
X0081890Y0090664D01*
X0082001Y0090655D01*
X0082112Y0090642D01*
X0082223Y0090625D01*
X0082333Y0090605D01*
X0082442Y0090580D01*
X0082550Y0090552D01*
X0082657Y0090519D01*
X0082763Y0090483D01*
X0082867Y0090443D01*
X0082970Y0090400D01*
X0083072Y0090353D01*
X0083171Y0090302D01*
X0083269Y0090248D01*
X0083365Y0090190D01*
X0083459Y0090129D01*
X0083550Y0090065D01*
X0083639Y0089998D01*
X0083726Y0089927D01*
X0083810Y0089853D01*
X0083892Y0089777D01*
X0083970Y0089697D01*
X0084046Y0089615D01*
X0084119Y0089530D01*
X0084189Y0089443D01*
X0084255Y0089353D01*
X0084319Y0089261D01*
X0084379Y0089167D01*
X0084436Y0089071D01*
X0084489Y0088972D01*
X0084539Y0088872D01*
X0084585Y0088771D01*
X0084628Y0088667D01*
X0084667Y0088562D01*
X0084702Y0088456D01*
X0084733Y0088349D01*
X0084761Y0088240D01*
X0084784Y0088131D01*
X0084804Y0088021D01*
X0084820Y0087910D01*
X0084832Y0087799D01*
X0084840Y0087688D01*
X0084844Y0087576D01*
X0084844Y0087464D01*
X0084840Y0087352D01*
X0084832Y0087241D01*
X0084820Y0087130D01*
X0084804Y0087019D01*
X0084784Y0086909D01*
X0084761Y0086800D01*
X0084733Y0086691D01*
X0084702Y0086584D01*
X0084667Y0086478D01*
X0084628Y0086373D01*
X0084585Y0086269D01*
X0084539Y0086168D01*
X0084489Y0086068D01*
X0084436Y0085969D01*
X0084379Y0085873D01*
X0084319Y0085779D01*
X0084255Y0085687D01*
X0084189Y0085597D01*
X0084119Y0085510D01*
X0084046Y0085425D01*
X0083970Y0085343D01*
X0083892Y0085263D01*
X0083810Y0085187D01*
X0083726Y0085113D01*
X0083639Y0085042D01*
X0083550Y0084975D01*
X0083459Y0084911D01*
X0083365Y0084850D01*
X0083269Y0084792D01*
X0083171Y0084738D01*
X0083072Y0084687D01*
X0082970Y0084640D01*
X0082867Y0084597D01*
X0082763Y0084557D01*
X0082657Y0084521D01*
X0082550Y0084488D01*
X0082442Y0084460D01*
X0082333Y0084435D01*
X0082223Y0084415D01*
X0082112Y0084398D01*
X0082001Y0084385D01*
X0081890Y0084376D01*
X0081778Y0084371D01*
X0081666Y0084370D01*
X0081554Y0084373D01*
X0081443Y0084380D01*
X0081331Y0084391D01*
X0081221Y0084406D01*
X0081110Y0084425D01*
X0081001Y0084447D01*
X0080892Y0084474D01*
X0080785Y0084504D01*
X0080678Y0084538D01*
X0080573Y0084576D01*
X0080469Y0084618D01*
X0080367Y0084663D01*
X0080266Y0084712D01*
X0080168Y0084764D01*
X0080071Y0084820D01*
X0079976Y0084880D01*
X0079883Y0084942D01*
X0079793Y0085008D01*
X0079705Y0085077D01*
X0079620Y0085149D01*
X0079537Y0085225D01*
X0079457Y0085303D01*
X0079379Y0085383D01*
X0079305Y0085467D01*
X0079234Y0085553D01*
X0079165Y0085641D01*
X0079100Y0085732D01*
X0079039Y0085826D01*
X0078980Y0085921D01*
X0078925Y0086018D01*
X0078874Y0086117D01*
X0078826Y0086218D01*
X0078781Y0086321D01*
X0078740Y0086425D01*
X0078703Y0086531D01*
X0078670Y0086637D01*
X0078641Y0086745D01*
X0078615Y0086854D01*
X0078593Y0086964D01*
X0078576Y0087074D01*
X0078562Y0087185D01*
X0078552Y0087297D01*
X0078546Y0087408D01*
X0078544Y0087520D01*
X0040197Y0115080D02*
X0040199Y0115192D01*
X0040205Y0115303D01*
X0040215Y0115415D01*
X0040229Y0115526D01*
X0040246Y0115636D01*
X0040268Y0115746D01*
X0040294Y0115855D01*
X0040323Y0115963D01*
X0040356Y0116069D01*
X0040393Y0116175D01*
X0040434Y0116279D01*
X0040479Y0116382D01*
X0040527Y0116483D01*
X0040578Y0116582D01*
X0040633Y0116679D01*
X0040692Y0116774D01*
X0040753Y0116868D01*
X0040818Y0116959D01*
X0040887Y0117047D01*
X0040958Y0117133D01*
X0041032Y0117217D01*
X0041110Y0117297D01*
X0041190Y0117375D01*
X0041273Y0117451D01*
X0041358Y0117523D01*
X0041446Y0117592D01*
X0041536Y0117658D01*
X0041629Y0117720D01*
X0041724Y0117780D01*
X0041821Y0117836D01*
X0041919Y0117888D01*
X0042020Y0117937D01*
X0042122Y0117982D01*
X0042226Y0118024D01*
X0042331Y0118062D01*
X0042438Y0118096D01*
X0042545Y0118126D01*
X0042654Y0118153D01*
X0042763Y0118175D01*
X0042874Y0118194D01*
X0042984Y0118209D01*
X0043096Y0118220D01*
X0043207Y0118227D01*
X0043319Y0118230D01*
X0043431Y0118229D01*
X0043543Y0118224D01*
X0043654Y0118215D01*
X0043765Y0118202D01*
X0043876Y0118185D01*
X0043986Y0118165D01*
X0044095Y0118140D01*
X0044203Y0118112D01*
X0044310Y0118079D01*
X0044416Y0118043D01*
X0044520Y0118003D01*
X0044623Y0117960D01*
X0044725Y0117913D01*
X0044824Y0117862D01*
X0044922Y0117808D01*
X0045018Y0117750D01*
X0045112Y0117689D01*
X0045203Y0117625D01*
X0045292Y0117558D01*
X0045379Y0117487D01*
X0045463Y0117413D01*
X0045545Y0117337D01*
X0045623Y0117257D01*
X0045699Y0117175D01*
X0045772Y0117090D01*
X0045842Y0117003D01*
X0045908Y0116913D01*
X0045972Y0116821D01*
X0046032Y0116727D01*
X0046089Y0116631D01*
X0046142Y0116532D01*
X0046192Y0116432D01*
X0046238Y0116331D01*
X0046281Y0116227D01*
X0046320Y0116122D01*
X0046355Y0116016D01*
X0046386Y0115909D01*
X0046414Y0115800D01*
X0046437Y0115691D01*
X0046457Y0115581D01*
X0046473Y0115470D01*
X0046485Y0115359D01*
X0046493Y0115248D01*
X0046497Y0115136D01*
X0046497Y0115024D01*
X0046493Y0114912D01*
X0046485Y0114801D01*
X0046473Y0114690D01*
X0046457Y0114579D01*
X0046437Y0114469D01*
X0046414Y0114360D01*
X0046386Y0114251D01*
X0046355Y0114144D01*
X0046320Y0114038D01*
X0046281Y0113933D01*
X0046238Y0113829D01*
X0046192Y0113728D01*
X0046142Y0113628D01*
X0046089Y0113529D01*
X0046032Y0113433D01*
X0045972Y0113339D01*
X0045908Y0113247D01*
X0045842Y0113157D01*
X0045772Y0113070D01*
X0045699Y0112985D01*
X0045623Y0112903D01*
X0045545Y0112823D01*
X0045463Y0112747D01*
X0045379Y0112673D01*
X0045292Y0112602D01*
X0045203Y0112535D01*
X0045112Y0112471D01*
X0045018Y0112410D01*
X0044922Y0112352D01*
X0044824Y0112298D01*
X0044725Y0112247D01*
X0044623Y0112200D01*
X0044520Y0112157D01*
X0044416Y0112117D01*
X0044310Y0112081D01*
X0044203Y0112048D01*
X0044095Y0112020D01*
X0043986Y0111995D01*
X0043876Y0111975D01*
X0043765Y0111958D01*
X0043654Y0111945D01*
X0043543Y0111936D01*
X0043431Y0111931D01*
X0043319Y0111930D01*
X0043207Y0111933D01*
X0043096Y0111940D01*
X0042984Y0111951D01*
X0042874Y0111966D01*
X0042763Y0111985D01*
X0042654Y0112007D01*
X0042545Y0112034D01*
X0042438Y0112064D01*
X0042331Y0112098D01*
X0042226Y0112136D01*
X0042122Y0112178D01*
X0042020Y0112223D01*
X0041919Y0112272D01*
X0041821Y0112324D01*
X0041724Y0112380D01*
X0041629Y0112440D01*
X0041536Y0112502D01*
X0041446Y0112568D01*
X0041358Y0112637D01*
X0041273Y0112709D01*
X0041190Y0112785D01*
X0041110Y0112863D01*
X0041032Y0112943D01*
X0040958Y0113027D01*
X0040887Y0113113D01*
X0040818Y0113201D01*
X0040753Y0113292D01*
X0040692Y0113386D01*
X0040633Y0113481D01*
X0040578Y0113578D01*
X0040527Y0113677D01*
X0040479Y0113778D01*
X0040434Y0113881D01*
X0040393Y0113985D01*
X0040356Y0114091D01*
X0040323Y0114197D01*
X0040294Y0114305D01*
X0040268Y0114414D01*
X0040246Y0114524D01*
X0040229Y0114634D01*
X0040215Y0114745D01*
X0040205Y0114857D01*
X0040199Y0114968D01*
X0040197Y0115080D01*
X0040197Y0211143D02*
X0040199Y0211255D01*
X0040205Y0211366D01*
X0040215Y0211478D01*
X0040229Y0211589D01*
X0040246Y0211699D01*
X0040268Y0211809D01*
X0040294Y0211918D01*
X0040323Y0212026D01*
X0040356Y0212132D01*
X0040393Y0212238D01*
X0040434Y0212342D01*
X0040479Y0212445D01*
X0040527Y0212546D01*
X0040578Y0212645D01*
X0040633Y0212742D01*
X0040692Y0212837D01*
X0040753Y0212931D01*
X0040818Y0213022D01*
X0040887Y0213110D01*
X0040958Y0213196D01*
X0041032Y0213280D01*
X0041110Y0213360D01*
X0041190Y0213438D01*
X0041273Y0213514D01*
X0041358Y0213586D01*
X0041446Y0213655D01*
X0041536Y0213721D01*
X0041629Y0213783D01*
X0041724Y0213843D01*
X0041821Y0213899D01*
X0041919Y0213951D01*
X0042020Y0214000D01*
X0042122Y0214045D01*
X0042226Y0214087D01*
X0042331Y0214125D01*
X0042438Y0214159D01*
X0042545Y0214189D01*
X0042654Y0214216D01*
X0042763Y0214238D01*
X0042874Y0214257D01*
X0042984Y0214272D01*
X0043096Y0214283D01*
X0043207Y0214290D01*
X0043319Y0214293D01*
X0043431Y0214292D01*
X0043543Y0214287D01*
X0043654Y0214278D01*
X0043765Y0214265D01*
X0043876Y0214248D01*
X0043986Y0214228D01*
X0044095Y0214203D01*
X0044203Y0214175D01*
X0044310Y0214142D01*
X0044416Y0214106D01*
X0044520Y0214066D01*
X0044623Y0214023D01*
X0044725Y0213976D01*
X0044824Y0213925D01*
X0044922Y0213871D01*
X0045018Y0213813D01*
X0045112Y0213752D01*
X0045203Y0213688D01*
X0045292Y0213621D01*
X0045379Y0213550D01*
X0045463Y0213476D01*
X0045545Y0213400D01*
X0045623Y0213320D01*
X0045699Y0213238D01*
X0045772Y0213153D01*
X0045842Y0213066D01*
X0045908Y0212976D01*
X0045972Y0212884D01*
X0046032Y0212790D01*
X0046089Y0212694D01*
X0046142Y0212595D01*
X0046192Y0212495D01*
X0046238Y0212394D01*
X0046281Y0212290D01*
X0046320Y0212185D01*
X0046355Y0212079D01*
X0046386Y0211972D01*
X0046414Y0211863D01*
X0046437Y0211754D01*
X0046457Y0211644D01*
X0046473Y0211533D01*
X0046485Y0211422D01*
X0046493Y0211311D01*
X0046497Y0211199D01*
X0046497Y0211087D01*
X0046493Y0210975D01*
X0046485Y0210864D01*
X0046473Y0210753D01*
X0046457Y0210642D01*
X0046437Y0210532D01*
X0046414Y0210423D01*
X0046386Y0210314D01*
X0046355Y0210207D01*
X0046320Y0210101D01*
X0046281Y0209996D01*
X0046238Y0209892D01*
X0046192Y0209791D01*
X0046142Y0209691D01*
X0046089Y0209592D01*
X0046032Y0209496D01*
X0045972Y0209402D01*
X0045908Y0209310D01*
X0045842Y0209220D01*
X0045772Y0209133D01*
X0045699Y0209048D01*
X0045623Y0208966D01*
X0045545Y0208886D01*
X0045463Y0208810D01*
X0045379Y0208736D01*
X0045292Y0208665D01*
X0045203Y0208598D01*
X0045112Y0208534D01*
X0045018Y0208473D01*
X0044922Y0208415D01*
X0044824Y0208361D01*
X0044725Y0208310D01*
X0044623Y0208263D01*
X0044520Y0208220D01*
X0044416Y0208180D01*
X0044310Y0208144D01*
X0044203Y0208111D01*
X0044095Y0208083D01*
X0043986Y0208058D01*
X0043876Y0208038D01*
X0043765Y0208021D01*
X0043654Y0208008D01*
X0043543Y0207999D01*
X0043431Y0207994D01*
X0043319Y0207993D01*
X0043207Y0207996D01*
X0043096Y0208003D01*
X0042984Y0208014D01*
X0042874Y0208029D01*
X0042763Y0208048D01*
X0042654Y0208070D01*
X0042545Y0208097D01*
X0042438Y0208127D01*
X0042331Y0208161D01*
X0042226Y0208199D01*
X0042122Y0208241D01*
X0042020Y0208286D01*
X0041919Y0208335D01*
X0041821Y0208387D01*
X0041724Y0208443D01*
X0041629Y0208503D01*
X0041536Y0208565D01*
X0041446Y0208631D01*
X0041358Y0208700D01*
X0041273Y0208772D01*
X0041190Y0208848D01*
X0041110Y0208926D01*
X0041032Y0209006D01*
X0040958Y0209090D01*
X0040887Y0209176D01*
X0040818Y0209264D01*
X0040753Y0209355D01*
X0040692Y0209449D01*
X0040633Y0209544D01*
X0040578Y0209641D01*
X0040527Y0209740D01*
X0040479Y0209841D01*
X0040434Y0209944D01*
X0040393Y0210048D01*
X0040356Y0210154D01*
X0040323Y0210260D01*
X0040294Y0210368D01*
X0040268Y0210477D01*
X0040246Y0210587D01*
X0040229Y0210697D01*
X0040215Y0210808D01*
X0040205Y0210920D01*
X0040199Y0211031D01*
X0040197Y0211143D01*
X0078544Y0238702D02*
X0078546Y0238814D01*
X0078552Y0238925D01*
X0078562Y0239037D01*
X0078576Y0239148D01*
X0078593Y0239258D01*
X0078615Y0239368D01*
X0078641Y0239477D01*
X0078670Y0239585D01*
X0078703Y0239691D01*
X0078740Y0239797D01*
X0078781Y0239901D01*
X0078826Y0240004D01*
X0078874Y0240105D01*
X0078925Y0240204D01*
X0078980Y0240301D01*
X0079039Y0240396D01*
X0079100Y0240490D01*
X0079165Y0240581D01*
X0079234Y0240669D01*
X0079305Y0240755D01*
X0079379Y0240839D01*
X0079457Y0240919D01*
X0079537Y0240997D01*
X0079620Y0241073D01*
X0079705Y0241145D01*
X0079793Y0241214D01*
X0079883Y0241280D01*
X0079976Y0241342D01*
X0080071Y0241402D01*
X0080168Y0241458D01*
X0080266Y0241510D01*
X0080367Y0241559D01*
X0080469Y0241604D01*
X0080573Y0241646D01*
X0080678Y0241684D01*
X0080785Y0241718D01*
X0080892Y0241748D01*
X0081001Y0241775D01*
X0081110Y0241797D01*
X0081221Y0241816D01*
X0081331Y0241831D01*
X0081443Y0241842D01*
X0081554Y0241849D01*
X0081666Y0241852D01*
X0081778Y0241851D01*
X0081890Y0241846D01*
X0082001Y0241837D01*
X0082112Y0241824D01*
X0082223Y0241807D01*
X0082333Y0241787D01*
X0082442Y0241762D01*
X0082550Y0241734D01*
X0082657Y0241701D01*
X0082763Y0241665D01*
X0082867Y0241625D01*
X0082970Y0241582D01*
X0083072Y0241535D01*
X0083171Y0241484D01*
X0083269Y0241430D01*
X0083365Y0241372D01*
X0083459Y0241311D01*
X0083550Y0241247D01*
X0083639Y0241180D01*
X0083726Y0241109D01*
X0083810Y0241035D01*
X0083892Y0240959D01*
X0083970Y0240879D01*
X0084046Y0240797D01*
X0084119Y0240712D01*
X0084189Y0240625D01*
X0084255Y0240535D01*
X0084319Y0240443D01*
X0084379Y0240349D01*
X0084436Y0240253D01*
X0084489Y0240154D01*
X0084539Y0240054D01*
X0084585Y0239953D01*
X0084628Y0239849D01*
X0084667Y0239744D01*
X0084702Y0239638D01*
X0084733Y0239531D01*
X0084761Y0239422D01*
X0084784Y0239313D01*
X0084804Y0239203D01*
X0084820Y0239092D01*
X0084832Y0238981D01*
X0084840Y0238870D01*
X0084844Y0238758D01*
X0084844Y0238646D01*
X0084840Y0238534D01*
X0084832Y0238423D01*
X0084820Y0238312D01*
X0084804Y0238201D01*
X0084784Y0238091D01*
X0084761Y0237982D01*
X0084733Y0237873D01*
X0084702Y0237766D01*
X0084667Y0237660D01*
X0084628Y0237555D01*
X0084585Y0237451D01*
X0084539Y0237350D01*
X0084489Y0237250D01*
X0084436Y0237151D01*
X0084379Y0237055D01*
X0084319Y0236961D01*
X0084255Y0236869D01*
X0084189Y0236779D01*
X0084119Y0236692D01*
X0084046Y0236607D01*
X0083970Y0236525D01*
X0083892Y0236445D01*
X0083810Y0236369D01*
X0083726Y0236295D01*
X0083639Y0236224D01*
X0083550Y0236157D01*
X0083459Y0236093D01*
X0083365Y0236032D01*
X0083269Y0235974D01*
X0083171Y0235920D01*
X0083072Y0235869D01*
X0082970Y0235822D01*
X0082867Y0235779D01*
X0082763Y0235739D01*
X0082657Y0235703D01*
X0082550Y0235670D01*
X0082442Y0235642D01*
X0082333Y0235617D01*
X0082223Y0235597D01*
X0082112Y0235580D01*
X0082001Y0235567D01*
X0081890Y0235558D01*
X0081778Y0235553D01*
X0081666Y0235552D01*
X0081554Y0235555D01*
X0081443Y0235562D01*
X0081331Y0235573D01*
X0081221Y0235588D01*
X0081110Y0235607D01*
X0081001Y0235629D01*
X0080892Y0235656D01*
X0080785Y0235686D01*
X0080678Y0235720D01*
X0080573Y0235758D01*
X0080469Y0235800D01*
X0080367Y0235845D01*
X0080266Y0235894D01*
X0080168Y0235946D01*
X0080071Y0236002D01*
X0079976Y0236062D01*
X0079883Y0236124D01*
X0079793Y0236190D01*
X0079705Y0236259D01*
X0079620Y0236331D01*
X0079537Y0236407D01*
X0079457Y0236485D01*
X0079379Y0236565D01*
X0079305Y0236649D01*
X0079234Y0236735D01*
X0079165Y0236823D01*
X0079100Y0236914D01*
X0079039Y0237008D01*
X0078980Y0237103D01*
X0078925Y0237200D01*
X0078874Y0237299D01*
X0078826Y0237400D01*
X0078781Y0237503D01*
X0078740Y0237607D01*
X0078703Y0237713D01*
X0078670Y0237819D01*
X0078641Y0237927D01*
X0078615Y0238036D01*
X0078593Y0238146D01*
X0078576Y0238256D01*
X0078562Y0238367D01*
X0078552Y0238479D01*
X0078546Y0238590D01*
X0078544Y0238702D01*
X0226103Y0302875D02*
X0226105Y0302987D01*
X0226111Y0303098D01*
X0226121Y0303210D01*
X0226135Y0303321D01*
X0226152Y0303431D01*
X0226174Y0303541D01*
X0226200Y0303650D01*
X0226229Y0303758D01*
X0226262Y0303864D01*
X0226299Y0303970D01*
X0226340Y0304074D01*
X0226385Y0304177D01*
X0226433Y0304278D01*
X0226484Y0304377D01*
X0226539Y0304474D01*
X0226598Y0304569D01*
X0226659Y0304663D01*
X0226724Y0304754D01*
X0226793Y0304842D01*
X0226864Y0304928D01*
X0226938Y0305012D01*
X0227016Y0305092D01*
X0227096Y0305170D01*
X0227179Y0305246D01*
X0227264Y0305318D01*
X0227352Y0305387D01*
X0227442Y0305453D01*
X0227535Y0305515D01*
X0227630Y0305575D01*
X0227727Y0305631D01*
X0227825Y0305683D01*
X0227926Y0305732D01*
X0228028Y0305777D01*
X0228132Y0305819D01*
X0228237Y0305857D01*
X0228344Y0305891D01*
X0228451Y0305921D01*
X0228560Y0305948D01*
X0228669Y0305970D01*
X0228780Y0305989D01*
X0228890Y0306004D01*
X0229002Y0306015D01*
X0229113Y0306022D01*
X0229225Y0306025D01*
X0229337Y0306024D01*
X0229449Y0306019D01*
X0229560Y0306010D01*
X0229671Y0305997D01*
X0229782Y0305980D01*
X0229892Y0305960D01*
X0230001Y0305935D01*
X0230109Y0305907D01*
X0230216Y0305874D01*
X0230322Y0305838D01*
X0230426Y0305798D01*
X0230529Y0305755D01*
X0230631Y0305708D01*
X0230730Y0305657D01*
X0230828Y0305603D01*
X0230924Y0305545D01*
X0231018Y0305484D01*
X0231109Y0305420D01*
X0231198Y0305353D01*
X0231285Y0305282D01*
X0231369Y0305208D01*
X0231451Y0305132D01*
X0231529Y0305052D01*
X0231605Y0304970D01*
X0231678Y0304885D01*
X0231748Y0304798D01*
X0231814Y0304708D01*
X0231878Y0304616D01*
X0231938Y0304522D01*
X0231995Y0304426D01*
X0232048Y0304327D01*
X0232098Y0304227D01*
X0232144Y0304126D01*
X0232187Y0304022D01*
X0232226Y0303917D01*
X0232261Y0303811D01*
X0232292Y0303704D01*
X0232320Y0303595D01*
X0232343Y0303486D01*
X0232363Y0303376D01*
X0232379Y0303265D01*
X0232391Y0303154D01*
X0232399Y0303043D01*
X0232403Y0302931D01*
X0232403Y0302819D01*
X0232399Y0302707D01*
X0232391Y0302596D01*
X0232379Y0302485D01*
X0232363Y0302374D01*
X0232343Y0302264D01*
X0232320Y0302155D01*
X0232292Y0302046D01*
X0232261Y0301939D01*
X0232226Y0301833D01*
X0232187Y0301728D01*
X0232144Y0301624D01*
X0232098Y0301523D01*
X0232048Y0301423D01*
X0231995Y0301324D01*
X0231938Y0301228D01*
X0231878Y0301134D01*
X0231814Y0301042D01*
X0231748Y0300952D01*
X0231678Y0300865D01*
X0231605Y0300780D01*
X0231529Y0300698D01*
X0231451Y0300618D01*
X0231369Y0300542D01*
X0231285Y0300468D01*
X0231198Y0300397D01*
X0231109Y0300330D01*
X0231018Y0300266D01*
X0230924Y0300205D01*
X0230828Y0300147D01*
X0230730Y0300093D01*
X0230631Y0300042D01*
X0230529Y0299995D01*
X0230426Y0299952D01*
X0230322Y0299912D01*
X0230216Y0299876D01*
X0230109Y0299843D01*
X0230001Y0299815D01*
X0229892Y0299790D01*
X0229782Y0299770D01*
X0229671Y0299753D01*
X0229560Y0299740D01*
X0229449Y0299731D01*
X0229337Y0299726D01*
X0229225Y0299725D01*
X0229113Y0299728D01*
X0229002Y0299735D01*
X0228890Y0299746D01*
X0228780Y0299761D01*
X0228669Y0299780D01*
X0228560Y0299802D01*
X0228451Y0299829D01*
X0228344Y0299859D01*
X0228237Y0299893D01*
X0228132Y0299931D01*
X0228028Y0299973D01*
X0227926Y0300018D01*
X0227825Y0300067D01*
X0227727Y0300119D01*
X0227630Y0300175D01*
X0227535Y0300235D01*
X0227442Y0300297D01*
X0227352Y0300363D01*
X0227264Y0300432D01*
X0227179Y0300504D01*
X0227096Y0300580D01*
X0227016Y0300658D01*
X0226938Y0300738D01*
X0226864Y0300822D01*
X0226793Y0300908D01*
X0226724Y0300996D01*
X0226659Y0301087D01*
X0226598Y0301181D01*
X0226539Y0301276D01*
X0226484Y0301373D01*
X0226433Y0301472D01*
X0226385Y0301573D01*
X0226340Y0301676D01*
X0226299Y0301780D01*
X0226262Y0301886D01*
X0226229Y0301992D01*
X0226200Y0302100D01*
X0226174Y0302209D01*
X0226152Y0302319D01*
X0226135Y0302429D01*
X0226121Y0302540D01*
X0226111Y0302652D01*
X0226105Y0302763D01*
X0226103Y0302875D01*
X0265079Y0310749D02*
X0265081Y0310861D01*
X0265087Y0310972D01*
X0265097Y0311084D01*
X0265111Y0311195D01*
X0265128Y0311305D01*
X0265150Y0311415D01*
X0265176Y0311524D01*
X0265205Y0311632D01*
X0265238Y0311738D01*
X0265275Y0311844D01*
X0265316Y0311948D01*
X0265361Y0312051D01*
X0265409Y0312152D01*
X0265460Y0312251D01*
X0265515Y0312348D01*
X0265574Y0312443D01*
X0265635Y0312537D01*
X0265700Y0312628D01*
X0265769Y0312716D01*
X0265840Y0312802D01*
X0265914Y0312886D01*
X0265992Y0312966D01*
X0266072Y0313044D01*
X0266155Y0313120D01*
X0266240Y0313192D01*
X0266328Y0313261D01*
X0266418Y0313327D01*
X0266511Y0313389D01*
X0266606Y0313449D01*
X0266703Y0313505D01*
X0266801Y0313557D01*
X0266902Y0313606D01*
X0267004Y0313651D01*
X0267108Y0313693D01*
X0267213Y0313731D01*
X0267320Y0313765D01*
X0267427Y0313795D01*
X0267536Y0313822D01*
X0267645Y0313844D01*
X0267756Y0313863D01*
X0267866Y0313878D01*
X0267978Y0313889D01*
X0268089Y0313896D01*
X0268201Y0313899D01*
X0268313Y0313898D01*
X0268425Y0313893D01*
X0268536Y0313884D01*
X0268647Y0313871D01*
X0268758Y0313854D01*
X0268868Y0313834D01*
X0268977Y0313809D01*
X0269085Y0313781D01*
X0269192Y0313748D01*
X0269298Y0313712D01*
X0269402Y0313672D01*
X0269505Y0313629D01*
X0269607Y0313582D01*
X0269706Y0313531D01*
X0269804Y0313477D01*
X0269900Y0313419D01*
X0269994Y0313358D01*
X0270085Y0313294D01*
X0270174Y0313227D01*
X0270261Y0313156D01*
X0270345Y0313082D01*
X0270427Y0313006D01*
X0270505Y0312926D01*
X0270581Y0312844D01*
X0270654Y0312759D01*
X0270724Y0312672D01*
X0270790Y0312582D01*
X0270854Y0312490D01*
X0270914Y0312396D01*
X0270971Y0312300D01*
X0271024Y0312201D01*
X0271074Y0312101D01*
X0271120Y0312000D01*
X0271163Y0311896D01*
X0271202Y0311791D01*
X0271237Y0311685D01*
X0271268Y0311578D01*
X0271296Y0311469D01*
X0271319Y0311360D01*
X0271339Y0311250D01*
X0271355Y0311139D01*
X0271367Y0311028D01*
X0271375Y0310917D01*
X0271379Y0310805D01*
X0271379Y0310693D01*
X0271375Y0310581D01*
X0271367Y0310470D01*
X0271355Y0310359D01*
X0271339Y0310248D01*
X0271319Y0310138D01*
X0271296Y0310029D01*
X0271268Y0309920D01*
X0271237Y0309813D01*
X0271202Y0309707D01*
X0271163Y0309602D01*
X0271120Y0309498D01*
X0271074Y0309397D01*
X0271024Y0309297D01*
X0270971Y0309198D01*
X0270914Y0309102D01*
X0270854Y0309008D01*
X0270790Y0308916D01*
X0270724Y0308826D01*
X0270654Y0308739D01*
X0270581Y0308654D01*
X0270505Y0308572D01*
X0270427Y0308492D01*
X0270345Y0308416D01*
X0270261Y0308342D01*
X0270174Y0308271D01*
X0270085Y0308204D01*
X0269994Y0308140D01*
X0269900Y0308079D01*
X0269804Y0308021D01*
X0269706Y0307967D01*
X0269607Y0307916D01*
X0269505Y0307869D01*
X0269402Y0307826D01*
X0269298Y0307786D01*
X0269192Y0307750D01*
X0269085Y0307717D01*
X0268977Y0307689D01*
X0268868Y0307664D01*
X0268758Y0307644D01*
X0268647Y0307627D01*
X0268536Y0307614D01*
X0268425Y0307605D01*
X0268313Y0307600D01*
X0268201Y0307599D01*
X0268089Y0307602D01*
X0267978Y0307609D01*
X0267866Y0307620D01*
X0267756Y0307635D01*
X0267645Y0307654D01*
X0267536Y0307676D01*
X0267427Y0307703D01*
X0267320Y0307733D01*
X0267213Y0307767D01*
X0267108Y0307805D01*
X0267004Y0307847D01*
X0266902Y0307892D01*
X0266801Y0307941D01*
X0266703Y0307993D01*
X0266606Y0308049D01*
X0266511Y0308109D01*
X0266418Y0308171D01*
X0266328Y0308237D01*
X0266240Y0308306D01*
X0266155Y0308378D01*
X0266072Y0308454D01*
X0265992Y0308532D01*
X0265914Y0308612D01*
X0265840Y0308696D01*
X0265769Y0308782D01*
X0265700Y0308870D01*
X0265635Y0308961D01*
X0265574Y0309055D01*
X0265515Y0309150D01*
X0265460Y0309247D01*
X0265409Y0309346D01*
X0265361Y0309447D01*
X0265316Y0309550D01*
X0265275Y0309654D01*
X0265238Y0309760D01*
X0265205Y0309866D01*
X0265176Y0309974D01*
X0265150Y0310083D01*
X0265128Y0310193D01*
X0265111Y0310303D01*
X0265097Y0310414D01*
X0265087Y0310526D01*
X0265081Y0310637D01*
X0265079Y0310749D01*
X0400512Y0241851D02*
X0400514Y0241963D01*
X0400520Y0242074D01*
X0400530Y0242186D01*
X0400544Y0242297D01*
X0400561Y0242407D01*
X0400583Y0242517D01*
X0400609Y0242626D01*
X0400638Y0242734D01*
X0400671Y0242840D01*
X0400708Y0242946D01*
X0400749Y0243050D01*
X0400794Y0243153D01*
X0400842Y0243254D01*
X0400893Y0243353D01*
X0400948Y0243450D01*
X0401007Y0243545D01*
X0401068Y0243639D01*
X0401133Y0243730D01*
X0401202Y0243818D01*
X0401273Y0243904D01*
X0401347Y0243988D01*
X0401425Y0244068D01*
X0401505Y0244146D01*
X0401588Y0244222D01*
X0401673Y0244294D01*
X0401761Y0244363D01*
X0401851Y0244429D01*
X0401944Y0244491D01*
X0402039Y0244551D01*
X0402136Y0244607D01*
X0402234Y0244659D01*
X0402335Y0244708D01*
X0402437Y0244753D01*
X0402541Y0244795D01*
X0402646Y0244833D01*
X0402753Y0244867D01*
X0402860Y0244897D01*
X0402969Y0244924D01*
X0403078Y0244946D01*
X0403189Y0244965D01*
X0403299Y0244980D01*
X0403411Y0244991D01*
X0403522Y0244998D01*
X0403634Y0245001D01*
X0403746Y0245000D01*
X0403858Y0244995D01*
X0403969Y0244986D01*
X0404080Y0244973D01*
X0404191Y0244956D01*
X0404301Y0244936D01*
X0404410Y0244911D01*
X0404518Y0244883D01*
X0404625Y0244850D01*
X0404731Y0244814D01*
X0404835Y0244774D01*
X0404938Y0244731D01*
X0405040Y0244684D01*
X0405139Y0244633D01*
X0405237Y0244579D01*
X0405333Y0244521D01*
X0405427Y0244460D01*
X0405518Y0244396D01*
X0405607Y0244329D01*
X0405694Y0244258D01*
X0405778Y0244184D01*
X0405860Y0244108D01*
X0405938Y0244028D01*
X0406014Y0243946D01*
X0406087Y0243861D01*
X0406157Y0243774D01*
X0406223Y0243684D01*
X0406287Y0243592D01*
X0406347Y0243498D01*
X0406404Y0243402D01*
X0406457Y0243303D01*
X0406507Y0243203D01*
X0406553Y0243102D01*
X0406596Y0242998D01*
X0406635Y0242893D01*
X0406670Y0242787D01*
X0406701Y0242680D01*
X0406729Y0242571D01*
X0406752Y0242462D01*
X0406772Y0242352D01*
X0406788Y0242241D01*
X0406800Y0242130D01*
X0406808Y0242019D01*
X0406812Y0241907D01*
X0406812Y0241795D01*
X0406808Y0241683D01*
X0406800Y0241572D01*
X0406788Y0241461D01*
X0406772Y0241350D01*
X0406752Y0241240D01*
X0406729Y0241131D01*
X0406701Y0241022D01*
X0406670Y0240915D01*
X0406635Y0240809D01*
X0406596Y0240704D01*
X0406553Y0240600D01*
X0406507Y0240499D01*
X0406457Y0240399D01*
X0406404Y0240300D01*
X0406347Y0240204D01*
X0406287Y0240110D01*
X0406223Y0240018D01*
X0406157Y0239928D01*
X0406087Y0239841D01*
X0406014Y0239756D01*
X0405938Y0239674D01*
X0405860Y0239594D01*
X0405778Y0239518D01*
X0405694Y0239444D01*
X0405607Y0239373D01*
X0405518Y0239306D01*
X0405427Y0239242D01*
X0405333Y0239181D01*
X0405237Y0239123D01*
X0405139Y0239069D01*
X0405040Y0239018D01*
X0404938Y0238971D01*
X0404835Y0238928D01*
X0404731Y0238888D01*
X0404625Y0238852D01*
X0404518Y0238819D01*
X0404410Y0238791D01*
X0404301Y0238766D01*
X0404191Y0238746D01*
X0404080Y0238729D01*
X0403969Y0238716D01*
X0403858Y0238707D01*
X0403746Y0238702D01*
X0403634Y0238701D01*
X0403522Y0238704D01*
X0403411Y0238711D01*
X0403299Y0238722D01*
X0403189Y0238737D01*
X0403078Y0238756D01*
X0402969Y0238778D01*
X0402860Y0238805D01*
X0402753Y0238835D01*
X0402646Y0238869D01*
X0402541Y0238907D01*
X0402437Y0238949D01*
X0402335Y0238994D01*
X0402234Y0239043D01*
X0402136Y0239095D01*
X0402039Y0239151D01*
X0401944Y0239211D01*
X0401851Y0239273D01*
X0401761Y0239339D01*
X0401673Y0239408D01*
X0401588Y0239480D01*
X0401505Y0239556D01*
X0401425Y0239634D01*
X0401347Y0239714D01*
X0401273Y0239798D01*
X0401202Y0239884D01*
X0401133Y0239972D01*
X0401068Y0240063D01*
X0401007Y0240157D01*
X0400948Y0240252D01*
X0400893Y0240349D01*
X0400842Y0240448D01*
X0400794Y0240549D01*
X0400749Y0240652D01*
X0400708Y0240756D01*
X0400671Y0240862D01*
X0400638Y0240968D01*
X0400609Y0241076D01*
X0400583Y0241185D01*
X0400561Y0241295D01*
X0400544Y0241405D01*
X0400530Y0241516D01*
X0400520Y0241628D01*
X0400514Y0241739D01*
X0400512Y0241851D01*
X0416260Y0210355D02*
X0416262Y0210467D01*
X0416268Y0210578D01*
X0416278Y0210690D01*
X0416292Y0210801D01*
X0416309Y0210911D01*
X0416331Y0211021D01*
X0416357Y0211130D01*
X0416386Y0211238D01*
X0416419Y0211344D01*
X0416456Y0211450D01*
X0416497Y0211554D01*
X0416542Y0211657D01*
X0416590Y0211758D01*
X0416641Y0211857D01*
X0416696Y0211954D01*
X0416755Y0212049D01*
X0416816Y0212143D01*
X0416881Y0212234D01*
X0416950Y0212322D01*
X0417021Y0212408D01*
X0417095Y0212492D01*
X0417173Y0212572D01*
X0417253Y0212650D01*
X0417336Y0212726D01*
X0417421Y0212798D01*
X0417509Y0212867D01*
X0417599Y0212933D01*
X0417692Y0212995D01*
X0417787Y0213055D01*
X0417884Y0213111D01*
X0417982Y0213163D01*
X0418083Y0213212D01*
X0418185Y0213257D01*
X0418289Y0213299D01*
X0418394Y0213337D01*
X0418501Y0213371D01*
X0418608Y0213401D01*
X0418717Y0213428D01*
X0418826Y0213450D01*
X0418937Y0213469D01*
X0419047Y0213484D01*
X0419159Y0213495D01*
X0419270Y0213502D01*
X0419382Y0213505D01*
X0419494Y0213504D01*
X0419606Y0213499D01*
X0419717Y0213490D01*
X0419828Y0213477D01*
X0419939Y0213460D01*
X0420049Y0213440D01*
X0420158Y0213415D01*
X0420266Y0213387D01*
X0420373Y0213354D01*
X0420479Y0213318D01*
X0420583Y0213278D01*
X0420686Y0213235D01*
X0420788Y0213188D01*
X0420887Y0213137D01*
X0420985Y0213083D01*
X0421081Y0213025D01*
X0421175Y0212964D01*
X0421266Y0212900D01*
X0421355Y0212833D01*
X0421442Y0212762D01*
X0421526Y0212688D01*
X0421608Y0212612D01*
X0421686Y0212532D01*
X0421762Y0212450D01*
X0421835Y0212365D01*
X0421905Y0212278D01*
X0421971Y0212188D01*
X0422035Y0212096D01*
X0422095Y0212002D01*
X0422152Y0211906D01*
X0422205Y0211807D01*
X0422255Y0211707D01*
X0422301Y0211606D01*
X0422344Y0211502D01*
X0422383Y0211397D01*
X0422418Y0211291D01*
X0422449Y0211184D01*
X0422477Y0211075D01*
X0422500Y0210966D01*
X0422520Y0210856D01*
X0422536Y0210745D01*
X0422548Y0210634D01*
X0422556Y0210523D01*
X0422560Y0210411D01*
X0422560Y0210299D01*
X0422556Y0210187D01*
X0422548Y0210076D01*
X0422536Y0209965D01*
X0422520Y0209854D01*
X0422500Y0209744D01*
X0422477Y0209635D01*
X0422449Y0209526D01*
X0422418Y0209419D01*
X0422383Y0209313D01*
X0422344Y0209208D01*
X0422301Y0209104D01*
X0422255Y0209003D01*
X0422205Y0208903D01*
X0422152Y0208804D01*
X0422095Y0208708D01*
X0422035Y0208614D01*
X0421971Y0208522D01*
X0421905Y0208432D01*
X0421835Y0208345D01*
X0421762Y0208260D01*
X0421686Y0208178D01*
X0421608Y0208098D01*
X0421526Y0208022D01*
X0421442Y0207948D01*
X0421355Y0207877D01*
X0421266Y0207810D01*
X0421175Y0207746D01*
X0421081Y0207685D01*
X0420985Y0207627D01*
X0420887Y0207573D01*
X0420788Y0207522D01*
X0420686Y0207475D01*
X0420583Y0207432D01*
X0420479Y0207392D01*
X0420373Y0207356D01*
X0420266Y0207323D01*
X0420158Y0207295D01*
X0420049Y0207270D01*
X0419939Y0207250D01*
X0419828Y0207233D01*
X0419717Y0207220D01*
X0419606Y0207211D01*
X0419494Y0207206D01*
X0419382Y0207205D01*
X0419270Y0207208D01*
X0419159Y0207215D01*
X0419047Y0207226D01*
X0418937Y0207241D01*
X0418826Y0207260D01*
X0418717Y0207282D01*
X0418608Y0207309D01*
X0418501Y0207339D01*
X0418394Y0207373D01*
X0418289Y0207411D01*
X0418185Y0207453D01*
X0418083Y0207498D01*
X0417982Y0207547D01*
X0417884Y0207599D01*
X0417787Y0207655D01*
X0417692Y0207715D01*
X0417599Y0207777D01*
X0417509Y0207843D01*
X0417421Y0207912D01*
X0417336Y0207984D01*
X0417253Y0208060D01*
X0417173Y0208138D01*
X0417095Y0208218D01*
X0417021Y0208302D01*
X0416950Y0208388D01*
X0416881Y0208476D01*
X0416816Y0208567D01*
X0416755Y0208661D01*
X0416696Y0208756D01*
X0416641Y0208853D01*
X0416590Y0208952D01*
X0416542Y0209053D01*
X0416497Y0209156D01*
X0416456Y0209260D01*
X0416419Y0209366D01*
X0416386Y0209472D01*
X0416357Y0209580D01*
X0416331Y0209689D01*
X0416309Y0209799D01*
X0416292Y0209909D01*
X0416278Y0210020D01*
X0416268Y0210132D01*
X0416262Y0210243D01*
X0416260Y0210355D01*
X0420985Y0178465D02*
X0420987Y0178577D01*
X0420993Y0178688D01*
X0421003Y0178800D01*
X0421017Y0178911D01*
X0421034Y0179021D01*
X0421056Y0179131D01*
X0421082Y0179240D01*
X0421111Y0179348D01*
X0421144Y0179454D01*
X0421181Y0179560D01*
X0421222Y0179664D01*
X0421267Y0179767D01*
X0421315Y0179868D01*
X0421366Y0179967D01*
X0421421Y0180064D01*
X0421480Y0180159D01*
X0421541Y0180253D01*
X0421606Y0180344D01*
X0421675Y0180432D01*
X0421746Y0180518D01*
X0421820Y0180602D01*
X0421898Y0180682D01*
X0421978Y0180760D01*
X0422061Y0180836D01*
X0422146Y0180908D01*
X0422234Y0180977D01*
X0422324Y0181043D01*
X0422417Y0181105D01*
X0422512Y0181165D01*
X0422609Y0181221D01*
X0422707Y0181273D01*
X0422808Y0181322D01*
X0422910Y0181367D01*
X0423014Y0181409D01*
X0423119Y0181447D01*
X0423226Y0181481D01*
X0423333Y0181511D01*
X0423442Y0181538D01*
X0423551Y0181560D01*
X0423662Y0181579D01*
X0423772Y0181594D01*
X0423884Y0181605D01*
X0423995Y0181612D01*
X0424107Y0181615D01*
X0424219Y0181614D01*
X0424331Y0181609D01*
X0424442Y0181600D01*
X0424553Y0181587D01*
X0424664Y0181570D01*
X0424774Y0181550D01*
X0424883Y0181525D01*
X0424991Y0181497D01*
X0425098Y0181464D01*
X0425204Y0181428D01*
X0425308Y0181388D01*
X0425411Y0181345D01*
X0425513Y0181298D01*
X0425612Y0181247D01*
X0425710Y0181193D01*
X0425806Y0181135D01*
X0425900Y0181074D01*
X0425991Y0181010D01*
X0426080Y0180943D01*
X0426167Y0180872D01*
X0426251Y0180798D01*
X0426333Y0180722D01*
X0426411Y0180642D01*
X0426487Y0180560D01*
X0426560Y0180475D01*
X0426630Y0180388D01*
X0426696Y0180298D01*
X0426760Y0180206D01*
X0426820Y0180112D01*
X0426877Y0180016D01*
X0426930Y0179917D01*
X0426980Y0179817D01*
X0427026Y0179716D01*
X0427069Y0179612D01*
X0427108Y0179507D01*
X0427143Y0179401D01*
X0427174Y0179294D01*
X0427202Y0179185D01*
X0427225Y0179076D01*
X0427245Y0178966D01*
X0427261Y0178855D01*
X0427273Y0178744D01*
X0427281Y0178633D01*
X0427285Y0178521D01*
X0427285Y0178409D01*
X0427281Y0178297D01*
X0427273Y0178186D01*
X0427261Y0178075D01*
X0427245Y0177964D01*
X0427225Y0177854D01*
X0427202Y0177745D01*
X0427174Y0177636D01*
X0427143Y0177529D01*
X0427108Y0177423D01*
X0427069Y0177318D01*
X0427026Y0177214D01*
X0426980Y0177113D01*
X0426930Y0177013D01*
X0426877Y0176914D01*
X0426820Y0176818D01*
X0426760Y0176724D01*
X0426696Y0176632D01*
X0426630Y0176542D01*
X0426560Y0176455D01*
X0426487Y0176370D01*
X0426411Y0176288D01*
X0426333Y0176208D01*
X0426251Y0176132D01*
X0426167Y0176058D01*
X0426080Y0175987D01*
X0425991Y0175920D01*
X0425900Y0175856D01*
X0425806Y0175795D01*
X0425710Y0175737D01*
X0425612Y0175683D01*
X0425513Y0175632D01*
X0425411Y0175585D01*
X0425308Y0175542D01*
X0425204Y0175502D01*
X0425098Y0175466D01*
X0424991Y0175433D01*
X0424883Y0175405D01*
X0424774Y0175380D01*
X0424664Y0175360D01*
X0424553Y0175343D01*
X0424442Y0175330D01*
X0424331Y0175321D01*
X0424219Y0175316D01*
X0424107Y0175315D01*
X0423995Y0175318D01*
X0423884Y0175325D01*
X0423772Y0175336D01*
X0423662Y0175351D01*
X0423551Y0175370D01*
X0423442Y0175392D01*
X0423333Y0175419D01*
X0423226Y0175449D01*
X0423119Y0175483D01*
X0423014Y0175521D01*
X0422910Y0175563D01*
X0422808Y0175608D01*
X0422707Y0175657D01*
X0422609Y0175709D01*
X0422512Y0175765D01*
X0422417Y0175825D01*
X0422324Y0175887D01*
X0422234Y0175953D01*
X0422146Y0176022D01*
X0422061Y0176094D01*
X0421978Y0176170D01*
X0421898Y0176248D01*
X0421820Y0176328D01*
X0421746Y0176412D01*
X0421675Y0176498D01*
X0421606Y0176586D01*
X0421541Y0176677D01*
X0421480Y0176771D01*
X0421421Y0176866D01*
X0421366Y0176963D01*
X0421315Y0177062D01*
X0421267Y0177163D01*
X0421222Y0177266D01*
X0421181Y0177370D01*
X0421144Y0177476D01*
X0421111Y0177582D01*
X0421082Y0177690D01*
X0421056Y0177799D01*
X0421034Y0177909D01*
X0421017Y0178019D01*
X0421003Y0178130D01*
X0420993Y0178242D01*
X0420987Y0178353D01*
X0420985Y0178465D01*
X0420748Y0148308D02*
X0420750Y0148420D01*
X0420756Y0148531D01*
X0420766Y0148643D01*
X0420780Y0148754D01*
X0420797Y0148864D01*
X0420819Y0148974D01*
X0420845Y0149083D01*
X0420874Y0149191D01*
X0420907Y0149297D01*
X0420944Y0149403D01*
X0420985Y0149507D01*
X0421030Y0149610D01*
X0421078Y0149711D01*
X0421129Y0149810D01*
X0421184Y0149907D01*
X0421243Y0150002D01*
X0421304Y0150096D01*
X0421369Y0150187D01*
X0421438Y0150275D01*
X0421509Y0150361D01*
X0421583Y0150445D01*
X0421661Y0150525D01*
X0421741Y0150603D01*
X0421824Y0150679D01*
X0421909Y0150751D01*
X0421997Y0150820D01*
X0422087Y0150886D01*
X0422180Y0150948D01*
X0422275Y0151008D01*
X0422372Y0151064D01*
X0422470Y0151116D01*
X0422571Y0151165D01*
X0422673Y0151210D01*
X0422777Y0151252D01*
X0422882Y0151290D01*
X0422989Y0151324D01*
X0423096Y0151354D01*
X0423205Y0151381D01*
X0423314Y0151403D01*
X0423425Y0151422D01*
X0423535Y0151437D01*
X0423647Y0151448D01*
X0423758Y0151455D01*
X0423870Y0151458D01*
X0423982Y0151457D01*
X0424094Y0151452D01*
X0424205Y0151443D01*
X0424316Y0151430D01*
X0424427Y0151413D01*
X0424537Y0151393D01*
X0424646Y0151368D01*
X0424754Y0151340D01*
X0424861Y0151307D01*
X0424967Y0151271D01*
X0425071Y0151231D01*
X0425174Y0151188D01*
X0425276Y0151141D01*
X0425375Y0151090D01*
X0425473Y0151036D01*
X0425569Y0150978D01*
X0425663Y0150917D01*
X0425754Y0150853D01*
X0425843Y0150786D01*
X0425930Y0150715D01*
X0426014Y0150641D01*
X0426096Y0150565D01*
X0426174Y0150485D01*
X0426250Y0150403D01*
X0426323Y0150318D01*
X0426393Y0150231D01*
X0426459Y0150141D01*
X0426523Y0150049D01*
X0426583Y0149955D01*
X0426640Y0149859D01*
X0426693Y0149760D01*
X0426743Y0149660D01*
X0426789Y0149559D01*
X0426832Y0149455D01*
X0426871Y0149350D01*
X0426906Y0149244D01*
X0426937Y0149137D01*
X0426965Y0149028D01*
X0426988Y0148919D01*
X0427008Y0148809D01*
X0427024Y0148698D01*
X0427036Y0148587D01*
X0427044Y0148476D01*
X0427048Y0148364D01*
X0427048Y0148252D01*
X0427044Y0148140D01*
X0427036Y0148029D01*
X0427024Y0147918D01*
X0427008Y0147807D01*
X0426988Y0147697D01*
X0426965Y0147588D01*
X0426937Y0147479D01*
X0426906Y0147372D01*
X0426871Y0147266D01*
X0426832Y0147161D01*
X0426789Y0147057D01*
X0426743Y0146956D01*
X0426693Y0146856D01*
X0426640Y0146757D01*
X0426583Y0146661D01*
X0426523Y0146567D01*
X0426459Y0146475D01*
X0426393Y0146385D01*
X0426323Y0146298D01*
X0426250Y0146213D01*
X0426174Y0146131D01*
X0426096Y0146051D01*
X0426014Y0145975D01*
X0425930Y0145901D01*
X0425843Y0145830D01*
X0425754Y0145763D01*
X0425663Y0145699D01*
X0425569Y0145638D01*
X0425473Y0145580D01*
X0425375Y0145526D01*
X0425276Y0145475D01*
X0425174Y0145428D01*
X0425071Y0145385D01*
X0424967Y0145345D01*
X0424861Y0145309D01*
X0424754Y0145276D01*
X0424646Y0145248D01*
X0424537Y0145223D01*
X0424427Y0145203D01*
X0424316Y0145186D01*
X0424205Y0145173D01*
X0424094Y0145164D01*
X0423982Y0145159D01*
X0423870Y0145158D01*
X0423758Y0145161D01*
X0423647Y0145168D01*
X0423535Y0145179D01*
X0423425Y0145194D01*
X0423314Y0145213D01*
X0423205Y0145235D01*
X0423096Y0145262D01*
X0422989Y0145292D01*
X0422882Y0145326D01*
X0422777Y0145364D01*
X0422673Y0145406D01*
X0422571Y0145451D01*
X0422470Y0145500D01*
X0422372Y0145552D01*
X0422275Y0145608D01*
X0422180Y0145668D01*
X0422087Y0145730D01*
X0421997Y0145796D01*
X0421909Y0145865D01*
X0421824Y0145937D01*
X0421741Y0146013D01*
X0421661Y0146091D01*
X0421583Y0146171D01*
X0421509Y0146255D01*
X0421438Y0146341D01*
X0421369Y0146429D01*
X0421304Y0146520D01*
X0421243Y0146614D01*
X0421184Y0146709D01*
X0421129Y0146806D01*
X0421078Y0146905D01*
X0421030Y0147006D01*
X0420985Y0147109D01*
X0420944Y0147213D01*
X0420907Y0147319D01*
X0420874Y0147425D01*
X0420845Y0147533D01*
X0420819Y0147642D01*
X0420797Y0147752D01*
X0420780Y0147862D01*
X0420766Y0147973D01*
X0420756Y0148085D01*
X0420750Y0148196D01*
X0420748Y0148308D01*
D12*
X0423898Y0148308D03*
X0424135Y0178465D03*
X0419410Y0210355D03*
X0403662Y0241851D03*
X0268229Y0310749D03*
X0229253Y0302875D03*
X0081694Y0238702D03*
X0043347Y0211143D03*
X0043347Y0115080D03*
X0081694Y0087520D03*
D13*
X0173448Y0181839D03*
X0178448Y0181839D03*
X0183448Y0181839D03*
X0188448Y0181839D03*
X0188448Y0201239D03*
X0183448Y0201239D03*
X0178448Y0201239D03*
X0173448Y0201239D03*
D14*
G36*
X0186949Y0234065D02*
X0193083Y0227931D01*
X0184167Y0219015D01*
X0178033Y0225149D01*
X0186949Y0234065D01*
G37*
G36*
X0167464Y0235718D02*
X0161330Y0241852D01*
X0170246Y0250768D01*
X0176380Y0244634D01*
X0167464Y0235718D01*
G37*
X0195548Y0117428D03*
X0219170Y0117428D03*
D15*
X0167138Y0076459D03*
X0162020Y0076459D03*
X0202442Y0051772D03*
X0207560Y0051772D03*
X0230226Y0044976D03*
X0235344Y0044976D03*
X0090686Y0125270D03*
X0085568Y0125270D03*
X0254135Y0281103D03*
X0259253Y0281103D03*
X0355158Y0279331D03*
X0360276Y0279331D03*
X0360040Y0211418D03*
X0360228Y0206773D03*
X0360128Y0202291D03*
X0360228Y0197816D03*
X0365346Y0197816D03*
X0365246Y0202291D03*
X0365346Y0206773D03*
X0365158Y0211418D03*
D16*
X0368052Y0251249D03*
X0368052Y0256367D03*
X0374909Y0256399D03*
X0374909Y0251281D03*
X0381629Y0251602D03*
X0381629Y0256720D03*
X0366143Y0267757D03*
X0366143Y0272875D03*
X0267520Y0253347D03*
X0267520Y0248229D03*
X0220198Y0216064D03*
X0220198Y0210946D03*
X0084489Y0137639D03*
X0084489Y0132520D03*
X0142954Y0081772D03*
X0142954Y0076654D03*
D17*
X0207873Y0142423D03*
X0207873Y0166045D03*
X0244245Y0280358D03*
X0244245Y0303980D03*
D18*
X0208469Y0229929D03*
X0208469Y0212606D03*
X0156524Y0207701D03*
X0156524Y0225024D03*
D19*
X0210974Y0287292D02*
X0214017Y0288609D01*
X0210974Y0287292D02*
X0209657Y0290335D01*
X0212700Y0291652D01*
X0214017Y0288609D01*
X0213972Y0288712D02*
X0210359Y0288712D01*
X0209745Y0290132D02*
X0213358Y0290132D01*
X0212743Y0291552D02*
X0212469Y0291552D01*
X0211275Y0294947D02*
X0208232Y0293630D01*
X0206915Y0296673D01*
X0209958Y0297990D01*
X0211275Y0294947D01*
X0211230Y0295050D02*
X0207617Y0295050D01*
X0207003Y0296470D02*
X0210616Y0296470D01*
X0210001Y0297890D02*
X0209727Y0297890D01*
X0356080Y0221816D02*
X0356080Y0218500D01*
X0352764Y0218500D01*
X0352764Y0221816D01*
X0356080Y0221816D01*
X0356080Y0219920D02*
X0352764Y0219920D01*
X0352764Y0221340D02*
X0356080Y0221340D01*
X0362986Y0221816D02*
X0362986Y0218500D01*
X0359670Y0218500D01*
X0359670Y0221816D01*
X0362986Y0221816D01*
X0362986Y0219920D02*
X0359670Y0219920D01*
X0359670Y0221340D02*
X0362986Y0221340D01*
D20*
X0353977Y0215158D03*
X0353977Y0211221D03*
X0348623Y0217717D03*
X0348623Y0221654D03*
D21*
X0181761Y0098843D03*
X0181761Y0076796D03*
X0252228Y0064286D03*
X0252228Y0042239D03*
D22*
X0358387Y0215670D03*
X0362324Y0215670D03*
X0289371Y0246733D03*
X0285434Y0246733D03*
X0258938Y0272678D03*
X0255001Y0272678D03*
X0254843Y0276891D03*
X0258780Y0276891D03*
G36*
X0218466Y0294209D02*
X0219722Y0291308D01*
X0216460Y0289895D01*
X0215204Y0292796D01*
X0218466Y0294209D01*
G37*
G36*
X0216902Y0297823D02*
X0218158Y0294922D01*
X0214896Y0293509D01*
X0213640Y0296410D01*
X0216902Y0297823D01*
G37*
D23*
X0137324Y0176103D03*
X0129843Y0176103D03*
X0129843Y0149725D03*
X0137324Y0149725D03*
X0135036Y0078841D03*
X0127556Y0078841D03*
X0187917Y0059419D03*
X0195398Y0059419D03*
D24*
X0077055Y0125861D03*
X0077055Y0133341D03*
D25*
X0092368Y0109509D03*
X0114415Y0109509D03*
D26*
X0184691Y0261736D03*
X0221306Y0261736D03*
D27*
X0098037Y0136043D02*
X0098037Y0122941D01*
X0098037Y0136043D02*
X0119407Y0136043D01*
X0119407Y0122941D01*
X0098037Y0122941D01*
X0098037Y0123630D02*
X0119407Y0123630D01*
X0119407Y0124319D02*
X0098037Y0124319D01*
X0098037Y0125008D02*
X0119407Y0125008D01*
X0119407Y0125697D02*
X0098037Y0125697D01*
X0098037Y0126386D02*
X0119407Y0126386D01*
X0119407Y0127075D02*
X0098037Y0127075D01*
X0098037Y0127764D02*
X0119407Y0127764D01*
X0119407Y0128453D02*
X0098037Y0128453D01*
X0098037Y0129142D02*
X0119407Y0129142D01*
X0119407Y0129831D02*
X0098037Y0129831D01*
X0098037Y0130520D02*
X0119407Y0130520D01*
X0119407Y0131209D02*
X0098037Y0131209D01*
X0098037Y0131898D02*
X0119407Y0131898D01*
X0119407Y0132587D02*
X0098037Y0132587D01*
X0098037Y0133276D02*
X0119407Y0133276D01*
X0119407Y0133965D02*
X0098037Y0133965D01*
X0098037Y0134654D02*
X0119407Y0134654D01*
X0119407Y0135343D02*
X0098037Y0135343D01*
X0098037Y0136032D02*
X0119407Y0136032D01*
X0151296Y0081984D02*
X0164398Y0081984D01*
X0151296Y0081984D02*
X0151296Y0103354D01*
X0164398Y0103354D01*
X0164398Y0081984D01*
X0164398Y0082673D02*
X0151296Y0082673D01*
X0151296Y0083362D02*
X0164398Y0083362D01*
X0164398Y0084051D02*
X0151296Y0084051D01*
X0151296Y0084740D02*
X0164398Y0084740D01*
X0164398Y0085429D02*
X0151296Y0085429D01*
X0151296Y0086118D02*
X0164398Y0086118D01*
X0164398Y0086807D02*
X0151296Y0086807D01*
X0151296Y0087496D02*
X0164398Y0087496D01*
X0164398Y0088185D02*
X0151296Y0088185D01*
X0151296Y0088874D02*
X0164398Y0088874D01*
X0164398Y0089563D02*
X0151296Y0089563D01*
X0151296Y0090252D02*
X0164398Y0090252D01*
X0164398Y0090941D02*
X0151296Y0090941D01*
X0151296Y0091630D02*
X0164398Y0091630D01*
X0164398Y0092319D02*
X0151296Y0092319D01*
X0151296Y0093008D02*
X0164398Y0093008D01*
X0164398Y0093697D02*
X0151296Y0093697D01*
X0151296Y0094386D02*
X0164398Y0094386D01*
X0164398Y0095075D02*
X0151296Y0095075D01*
X0151296Y0095764D02*
X0164398Y0095764D01*
X0164398Y0096453D02*
X0151296Y0096453D01*
X0151296Y0097142D02*
X0164398Y0097142D01*
X0164398Y0097831D02*
X0151296Y0097831D01*
X0151296Y0098520D02*
X0164398Y0098520D01*
X0164398Y0099209D02*
X0151296Y0099209D01*
X0151296Y0099898D02*
X0164398Y0099898D01*
X0164398Y0100587D02*
X0151296Y0100587D01*
X0151296Y0101276D02*
X0164398Y0101276D01*
X0164398Y0101965D02*
X0151296Y0101965D01*
X0151296Y0102654D02*
X0164398Y0102654D01*
X0164398Y0103343D02*
X0151296Y0103343D01*
X0221155Y0051336D02*
X0234257Y0051336D01*
X0221155Y0051336D02*
X0221155Y0072706D01*
X0234257Y0072706D01*
X0234257Y0051336D01*
X0234257Y0052025D02*
X0221155Y0052025D01*
X0221155Y0052714D02*
X0234257Y0052714D01*
X0234257Y0053403D02*
X0221155Y0053403D01*
X0221155Y0054092D02*
X0234257Y0054092D01*
X0234257Y0054781D02*
X0221155Y0054781D01*
X0221155Y0055470D02*
X0234257Y0055470D01*
X0234257Y0056159D02*
X0221155Y0056159D01*
X0221155Y0056848D02*
X0234257Y0056848D01*
X0234257Y0057537D02*
X0221155Y0057537D01*
X0221155Y0058226D02*
X0234257Y0058226D01*
X0234257Y0058915D02*
X0221155Y0058915D01*
X0221155Y0059604D02*
X0234257Y0059604D01*
X0234257Y0060293D02*
X0221155Y0060293D01*
X0221155Y0060982D02*
X0234257Y0060982D01*
X0234257Y0061671D02*
X0221155Y0061671D01*
X0221155Y0062360D02*
X0234257Y0062360D01*
X0234257Y0063049D02*
X0221155Y0063049D01*
X0221155Y0063738D02*
X0234257Y0063738D01*
X0234257Y0064427D02*
X0221155Y0064427D01*
X0221155Y0065116D02*
X0234257Y0065116D01*
X0234257Y0065805D02*
X0221155Y0065805D01*
X0221155Y0066494D02*
X0234257Y0066494D01*
X0234257Y0067183D02*
X0221155Y0067183D01*
X0221155Y0067872D02*
X0234257Y0067872D01*
X0234257Y0068561D02*
X0221155Y0068561D01*
X0221155Y0069250D02*
X0234257Y0069250D01*
X0234257Y0069939D02*
X0221155Y0069939D01*
X0221155Y0070628D02*
X0234257Y0070628D01*
X0234257Y0071317D02*
X0221155Y0071317D01*
X0221155Y0072006D02*
X0234257Y0072006D01*
X0234257Y0072695D02*
X0221155Y0072695D01*
D28*
X0220098Y0072622D02*
X0220098Y0071106D01*
X0216810Y0071106D01*
X0216810Y0072622D01*
X0220098Y0072622D01*
X0220098Y0071373D02*
X0216810Y0071373D01*
X0216810Y0071640D02*
X0220098Y0071640D01*
X0220098Y0071907D02*
X0216810Y0071907D01*
X0216810Y0072174D02*
X0220098Y0072174D01*
X0220098Y0072441D02*
X0216810Y0072441D01*
X0220098Y0070653D02*
X0220098Y0069137D01*
X0216810Y0069137D01*
X0216810Y0070653D01*
X0220098Y0070653D01*
X0220098Y0069404D02*
X0216810Y0069404D01*
X0216810Y0069671D02*
X0220098Y0069671D01*
X0220098Y0069938D02*
X0216810Y0069938D01*
X0216810Y0070205D02*
X0220098Y0070205D01*
X0220098Y0070472D02*
X0216810Y0070472D01*
X0220098Y0068685D02*
X0220098Y0067169D01*
X0216810Y0067169D01*
X0216810Y0068685D01*
X0220098Y0068685D01*
X0220098Y0067436D02*
X0216810Y0067436D01*
X0216810Y0067703D02*
X0220098Y0067703D01*
X0220098Y0067970D02*
X0216810Y0067970D01*
X0216810Y0068237D02*
X0220098Y0068237D01*
X0220098Y0068504D02*
X0216810Y0068504D01*
X0220098Y0066716D02*
X0220098Y0065200D01*
X0216810Y0065200D01*
X0216810Y0066716D01*
X0220098Y0066716D01*
X0220098Y0065467D02*
X0216810Y0065467D01*
X0216810Y0065734D02*
X0220098Y0065734D01*
X0220098Y0066001D02*
X0216810Y0066001D01*
X0216810Y0066268D02*
X0220098Y0066268D01*
X0220098Y0066535D02*
X0216810Y0066535D01*
X0220098Y0064748D02*
X0220098Y0063232D01*
X0216810Y0063232D01*
X0216810Y0064748D01*
X0220098Y0064748D01*
X0220098Y0063499D02*
X0216810Y0063499D01*
X0216810Y0063766D02*
X0220098Y0063766D01*
X0220098Y0064033D02*
X0216810Y0064033D01*
X0216810Y0064300D02*
X0220098Y0064300D01*
X0220098Y0064567D02*
X0216810Y0064567D01*
X0220098Y0062779D02*
X0220098Y0061263D01*
X0216810Y0061263D01*
X0216810Y0062779D01*
X0220098Y0062779D01*
X0220098Y0061530D02*
X0216810Y0061530D01*
X0216810Y0061797D02*
X0220098Y0061797D01*
X0220098Y0062064D02*
X0216810Y0062064D01*
X0216810Y0062331D02*
X0220098Y0062331D01*
X0220098Y0062598D02*
X0216810Y0062598D01*
X0220098Y0060811D02*
X0220098Y0059295D01*
X0216810Y0059295D01*
X0216810Y0060811D01*
X0220098Y0060811D01*
X0220098Y0059562D02*
X0216810Y0059562D01*
X0216810Y0059829D02*
X0220098Y0059829D01*
X0220098Y0060096D02*
X0216810Y0060096D01*
X0216810Y0060363D02*
X0220098Y0060363D01*
X0220098Y0060630D02*
X0216810Y0060630D01*
X0220098Y0058842D02*
X0220098Y0057326D01*
X0216810Y0057326D01*
X0216810Y0058842D01*
X0220098Y0058842D01*
X0220098Y0057593D02*
X0216810Y0057593D01*
X0216810Y0057860D02*
X0220098Y0057860D01*
X0220098Y0058127D02*
X0216810Y0058127D01*
X0216810Y0058394D02*
X0220098Y0058394D01*
X0220098Y0058661D02*
X0216810Y0058661D01*
X0220098Y0056874D02*
X0220098Y0055358D01*
X0216810Y0055358D01*
X0216810Y0056874D01*
X0220098Y0056874D01*
X0220098Y0055625D02*
X0216810Y0055625D01*
X0216810Y0055892D02*
X0220098Y0055892D01*
X0220098Y0056159D02*
X0216810Y0056159D01*
X0216810Y0056426D02*
X0220098Y0056426D01*
X0220098Y0056693D02*
X0216810Y0056693D01*
X0220098Y0054905D02*
X0220098Y0053389D01*
X0216810Y0053389D01*
X0216810Y0054905D01*
X0220098Y0054905D01*
X0220098Y0053656D02*
X0216810Y0053656D01*
X0216810Y0053923D02*
X0220098Y0053923D01*
X0220098Y0054190D02*
X0216810Y0054190D01*
X0216810Y0054457D02*
X0220098Y0054457D01*
X0220098Y0054724D02*
X0216810Y0054724D01*
X0220098Y0052937D02*
X0220098Y0051421D01*
X0216810Y0051421D01*
X0216810Y0052937D01*
X0220098Y0052937D01*
X0220098Y0051688D02*
X0216810Y0051688D01*
X0216810Y0051955D02*
X0220098Y0051955D01*
X0220098Y0052222D02*
X0216810Y0052222D01*
X0216810Y0052489D02*
X0220098Y0052489D01*
X0220098Y0052756D02*
X0216810Y0052756D01*
X0238602Y0052937D02*
X0238602Y0051421D01*
X0235314Y0051421D01*
X0235314Y0052937D01*
X0238602Y0052937D01*
X0238602Y0051688D02*
X0235314Y0051688D01*
X0235314Y0051955D02*
X0238602Y0051955D01*
X0238602Y0052222D02*
X0235314Y0052222D01*
X0235314Y0052489D02*
X0238602Y0052489D01*
X0238602Y0052756D02*
X0235314Y0052756D01*
X0238602Y0053389D02*
X0238602Y0054905D01*
X0238602Y0053389D02*
X0235314Y0053389D01*
X0235314Y0054905D01*
X0238602Y0054905D01*
X0238602Y0053656D02*
X0235314Y0053656D01*
X0235314Y0053923D02*
X0238602Y0053923D01*
X0238602Y0054190D02*
X0235314Y0054190D01*
X0235314Y0054457D02*
X0238602Y0054457D01*
X0238602Y0054724D02*
X0235314Y0054724D01*
X0238602Y0055358D02*
X0238602Y0056874D01*
X0238602Y0055358D02*
X0235314Y0055358D01*
X0235314Y0056874D01*
X0238602Y0056874D01*
X0238602Y0055625D02*
X0235314Y0055625D01*
X0235314Y0055892D02*
X0238602Y0055892D01*
X0238602Y0056159D02*
X0235314Y0056159D01*
X0235314Y0056426D02*
X0238602Y0056426D01*
X0238602Y0056693D02*
X0235314Y0056693D01*
X0238602Y0057326D02*
X0238602Y0058842D01*
X0238602Y0057326D02*
X0235314Y0057326D01*
X0235314Y0058842D01*
X0238602Y0058842D01*
X0238602Y0057593D02*
X0235314Y0057593D01*
X0235314Y0057860D02*
X0238602Y0057860D01*
X0238602Y0058127D02*
X0235314Y0058127D01*
X0235314Y0058394D02*
X0238602Y0058394D01*
X0238602Y0058661D02*
X0235314Y0058661D01*
X0238602Y0059295D02*
X0238602Y0060811D01*
X0238602Y0059295D02*
X0235314Y0059295D01*
X0235314Y0060811D01*
X0238602Y0060811D01*
X0238602Y0059562D02*
X0235314Y0059562D01*
X0235314Y0059829D02*
X0238602Y0059829D01*
X0238602Y0060096D02*
X0235314Y0060096D01*
X0235314Y0060363D02*
X0238602Y0060363D01*
X0238602Y0060630D02*
X0235314Y0060630D01*
X0238602Y0061263D02*
X0238602Y0062779D01*
X0238602Y0061263D02*
X0235314Y0061263D01*
X0235314Y0062779D01*
X0238602Y0062779D01*
X0238602Y0061530D02*
X0235314Y0061530D01*
X0235314Y0061797D02*
X0238602Y0061797D01*
X0238602Y0062064D02*
X0235314Y0062064D01*
X0235314Y0062331D02*
X0238602Y0062331D01*
X0238602Y0062598D02*
X0235314Y0062598D01*
X0238602Y0063232D02*
X0238602Y0064748D01*
X0238602Y0063232D02*
X0235314Y0063232D01*
X0235314Y0064748D01*
X0238602Y0064748D01*
X0238602Y0063499D02*
X0235314Y0063499D01*
X0235314Y0063766D02*
X0238602Y0063766D01*
X0238602Y0064033D02*
X0235314Y0064033D01*
X0235314Y0064300D02*
X0238602Y0064300D01*
X0238602Y0064567D02*
X0235314Y0064567D01*
X0238602Y0065200D02*
X0238602Y0066716D01*
X0238602Y0065200D02*
X0235314Y0065200D01*
X0235314Y0066716D01*
X0238602Y0066716D01*
X0238602Y0065467D02*
X0235314Y0065467D01*
X0235314Y0065734D02*
X0238602Y0065734D01*
X0238602Y0066001D02*
X0235314Y0066001D01*
X0235314Y0066268D02*
X0238602Y0066268D01*
X0238602Y0066535D02*
X0235314Y0066535D01*
X0238602Y0067169D02*
X0238602Y0068685D01*
X0238602Y0067169D02*
X0235314Y0067169D01*
X0235314Y0068685D01*
X0238602Y0068685D01*
X0238602Y0067436D02*
X0235314Y0067436D01*
X0235314Y0067703D02*
X0238602Y0067703D01*
X0238602Y0067970D02*
X0235314Y0067970D01*
X0235314Y0068237D02*
X0238602Y0068237D01*
X0238602Y0068504D02*
X0235314Y0068504D01*
X0238602Y0069137D02*
X0238602Y0070653D01*
X0238602Y0069137D02*
X0235314Y0069137D01*
X0235314Y0070653D01*
X0238602Y0070653D01*
X0238602Y0069404D02*
X0235314Y0069404D01*
X0235314Y0069671D02*
X0238602Y0069671D01*
X0238602Y0069938D02*
X0235314Y0069938D01*
X0235314Y0070205D02*
X0238602Y0070205D01*
X0238602Y0070472D02*
X0235314Y0070472D01*
X0238602Y0071106D02*
X0238602Y0072622D01*
X0238602Y0071106D02*
X0235314Y0071106D01*
X0235314Y0072622D01*
X0238602Y0072622D01*
X0238602Y0071373D02*
X0235314Y0071373D01*
X0235314Y0071640D02*
X0238602Y0071640D01*
X0238602Y0071907D02*
X0235314Y0071907D01*
X0235314Y0072174D02*
X0238602Y0072174D01*
X0238602Y0072441D02*
X0235314Y0072441D01*
X0168743Y0082068D02*
X0168743Y0083584D01*
X0168743Y0082068D02*
X0165455Y0082068D01*
X0165455Y0083584D01*
X0168743Y0083584D01*
X0168743Y0082335D02*
X0165455Y0082335D01*
X0165455Y0082602D02*
X0168743Y0082602D01*
X0168743Y0082869D02*
X0165455Y0082869D01*
X0165455Y0083136D02*
X0168743Y0083136D01*
X0168743Y0083403D02*
X0165455Y0083403D01*
X0168743Y0084036D02*
X0168743Y0085552D01*
X0168743Y0084036D02*
X0165455Y0084036D01*
X0165455Y0085552D01*
X0168743Y0085552D01*
X0168743Y0084303D02*
X0165455Y0084303D01*
X0165455Y0084570D02*
X0168743Y0084570D01*
X0168743Y0084837D02*
X0165455Y0084837D01*
X0165455Y0085104D02*
X0168743Y0085104D01*
X0168743Y0085371D02*
X0165455Y0085371D01*
X0168743Y0086005D02*
X0168743Y0087521D01*
X0168743Y0086005D02*
X0165455Y0086005D01*
X0165455Y0087521D01*
X0168743Y0087521D01*
X0168743Y0086272D02*
X0165455Y0086272D01*
X0165455Y0086539D02*
X0168743Y0086539D01*
X0168743Y0086806D02*
X0165455Y0086806D01*
X0165455Y0087073D02*
X0168743Y0087073D01*
X0168743Y0087340D02*
X0165455Y0087340D01*
X0168743Y0087973D02*
X0168743Y0089489D01*
X0168743Y0087973D02*
X0165455Y0087973D01*
X0165455Y0089489D01*
X0168743Y0089489D01*
X0168743Y0088240D02*
X0165455Y0088240D01*
X0165455Y0088507D02*
X0168743Y0088507D01*
X0168743Y0088774D02*
X0165455Y0088774D01*
X0165455Y0089041D02*
X0168743Y0089041D01*
X0168743Y0089308D02*
X0165455Y0089308D01*
X0168743Y0089942D02*
X0168743Y0091458D01*
X0168743Y0089942D02*
X0165455Y0089942D01*
X0165455Y0091458D01*
X0168743Y0091458D01*
X0168743Y0090209D02*
X0165455Y0090209D01*
X0165455Y0090476D02*
X0168743Y0090476D01*
X0168743Y0090743D02*
X0165455Y0090743D01*
X0165455Y0091010D02*
X0168743Y0091010D01*
X0168743Y0091277D02*
X0165455Y0091277D01*
X0168743Y0091911D02*
X0168743Y0093427D01*
X0168743Y0091911D02*
X0165455Y0091911D01*
X0165455Y0093427D01*
X0168743Y0093427D01*
X0168743Y0092178D02*
X0165455Y0092178D01*
X0165455Y0092445D02*
X0168743Y0092445D01*
X0168743Y0092712D02*
X0165455Y0092712D01*
X0165455Y0092979D02*
X0168743Y0092979D01*
X0168743Y0093246D02*
X0165455Y0093246D01*
X0168743Y0093879D02*
X0168743Y0095395D01*
X0168743Y0093879D02*
X0165455Y0093879D01*
X0165455Y0095395D01*
X0168743Y0095395D01*
X0168743Y0094146D02*
X0165455Y0094146D01*
X0165455Y0094413D02*
X0168743Y0094413D01*
X0168743Y0094680D02*
X0165455Y0094680D01*
X0165455Y0094947D02*
X0168743Y0094947D01*
X0168743Y0095214D02*
X0165455Y0095214D01*
X0168743Y0095848D02*
X0168743Y0097364D01*
X0168743Y0095848D02*
X0165455Y0095848D01*
X0165455Y0097364D01*
X0168743Y0097364D01*
X0168743Y0096115D02*
X0165455Y0096115D01*
X0165455Y0096382D02*
X0168743Y0096382D01*
X0168743Y0096649D02*
X0165455Y0096649D01*
X0165455Y0096916D02*
X0168743Y0096916D01*
X0168743Y0097183D02*
X0165455Y0097183D01*
X0168743Y0097816D02*
X0168743Y0099332D01*
X0168743Y0097816D02*
X0165455Y0097816D01*
X0165455Y0099332D01*
X0168743Y0099332D01*
X0168743Y0098083D02*
X0165455Y0098083D01*
X0165455Y0098350D02*
X0168743Y0098350D01*
X0168743Y0098617D02*
X0165455Y0098617D01*
X0165455Y0098884D02*
X0168743Y0098884D01*
X0168743Y0099151D02*
X0165455Y0099151D01*
X0168743Y0099785D02*
X0168743Y0101301D01*
X0168743Y0099785D02*
X0165455Y0099785D01*
X0165455Y0101301D01*
X0168743Y0101301D01*
X0168743Y0100052D02*
X0165455Y0100052D01*
X0165455Y0100319D02*
X0168743Y0100319D01*
X0168743Y0100586D02*
X0165455Y0100586D01*
X0165455Y0100853D02*
X0168743Y0100853D01*
X0168743Y0101120D02*
X0165455Y0101120D01*
X0168743Y0101753D02*
X0168743Y0103269D01*
X0168743Y0101753D02*
X0165455Y0101753D01*
X0165455Y0103269D01*
X0168743Y0103269D01*
X0168743Y0102020D02*
X0165455Y0102020D01*
X0165455Y0102287D02*
X0168743Y0102287D01*
X0168743Y0102554D02*
X0165455Y0102554D01*
X0165455Y0102821D02*
X0168743Y0102821D01*
X0168743Y0103088D02*
X0165455Y0103088D01*
X0150239Y0103269D02*
X0150239Y0101753D01*
X0146951Y0101753D01*
X0146951Y0103269D01*
X0150239Y0103269D01*
X0150239Y0102020D02*
X0146951Y0102020D01*
X0146951Y0102287D02*
X0150239Y0102287D01*
X0150239Y0102554D02*
X0146951Y0102554D01*
X0146951Y0102821D02*
X0150239Y0102821D01*
X0150239Y0103088D02*
X0146951Y0103088D01*
X0150239Y0101301D02*
X0150239Y0099785D01*
X0146951Y0099785D01*
X0146951Y0101301D01*
X0150239Y0101301D01*
X0150239Y0100052D02*
X0146951Y0100052D01*
X0146951Y0100319D02*
X0150239Y0100319D01*
X0150239Y0100586D02*
X0146951Y0100586D01*
X0146951Y0100853D02*
X0150239Y0100853D01*
X0150239Y0101120D02*
X0146951Y0101120D01*
X0150239Y0099332D02*
X0150239Y0097816D01*
X0146951Y0097816D01*
X0146951Y0099332D01*
X0150239Y0099332D01*
X0150239Y0098083D02*
X0146951Y0098083D01*
X0146951Y0098350D02*
X0150239Y0098350D01*
X0150239Y0098617D02*
X0146951Y0098617D01*
X0146951Y0098884D02*
X0150239Y0098884D01*
X0150239Y0099151D02*
X0146951Y0099151D01*
X0150239Y0097364D02*
X0150239Y0095848D01*
X0146951Y0095848D01*
X0146951Y0097364D01*
X0150239Y0097364D01*
X0150239Y0096115D02*
X0146951Y0096115D01*
X0146951Y0096382D02*
X0150239Y0096382D01*
X0150239Y0096649D02*
X0146951Y0096649D01*
X0146951Y0096916D02*
X0150239Y0096916D01*
X0150239Y0097183D02*
X0146951Y0097183D01*
X0150239Y0095395D02*
X0150239Y0093879D01*
X0146951Y0093879D01*
X0146951Y0095395D01*
X0150239Y0095395D01*
X0150239Y0094146D02*
X0146951Y0094146D01*
X0146951Y0094413D02*
X0150239Y0094413D01*
X0150239Y0094680D02*
X0146951Y0094680D01*
X0146951Y0094947D02*
X0150239Y0094947D01*
X0150239Y0095214D02*
X0146951Y0095214D01*
X0150239Y0093427D02*
X0150239Y0091911D01*
X0146951Y0091911D01*
X0146951Y0093427D01*
X0150239Y0093427D01*
X0150239Y0092178D02*
X0146951Y0092178D01*
X0146951Y0092445D02*
X0150239Y0092445D01*
X0150239Y0092712D02*
X0146951Y0092712D01*
X0146951Y0092979D02*
X0150239Y0092979D01*
X0150239Y0093246D02*
X0146951Y0093246D01*
X0150239Y0091458D02*
X0150239Y0089942D01*
X0146951Y0089942D01*
X0146951Y0091458D01*
X0150239Y0091458D01*
X0150239Y0090209D02*
X0146951Y0090209D01*
X0146951Y0090476D02*
X0150239Y0090476D01*
X0150239Y0090743D02*
X0146951Y0090743D01*
X0146951Y0091010D02*
X0150239Y0091010D01*
X0150239Y0091277D02*
X0146951Y0091277D01*
X0150239Y0089489D02*
X0150239Y0087973D01*
X0146951Y0087973D01*
X0146951Y0089489D01*
X0150239Y0089489D01*
X0150239Y0088240D02*
X0146951Y0088240D01*
X0146951Y0088507D02*
X0150239Y0088507D01*
X0150239Y0088774D02*
X0146951Y0088774D01*
X0146951Y0089041D02*
X0150239Y0089041D01*
X0150239Y0089308D02*
X0146951Y0089308D01*
X0150239Y0087521D02*
X0150239Y0086005D01*
X0146951Y0086005D01*
X0146951Y0087521D01*
X0150239Y0087521D01*
X0150239Y0086272D02*
X0146951Y0086272D01*
X0146951Y0086539D02*
X0150239Y0086539D01*
X0150239Y0086806D02*
X0146951Y0086806D01*
X0146951Y0087073D02*
X0150239Y0087073D01*
X0150239Y0087340D02*
X0146951Y0087340D01*
X0150239Y0085552D02*
X0150239Y0084036D01*
X0146951Y0084036D01*
X0146951Y0085552D01*
X0150239Y0085552D01*
X0150239Y0084303D02*
X0146951Y0084303D01*
X0146951Y0084570D02*
X0150239Y0084570D01*
X0150239Y0084837D02*
X0146951Y0084837D01*
X0146951Y0085104D02*
X0150239Y0085104D01*
X0150239Y0085371D02*
X0146951Y0085371D01*
X0150239Y0083584D02*
X0150239Y0082068D01*
X0146951Y0082068D01*
X0146951Y0083584D01*
X0150239Y0083584D01*
X0150239Y0082335D02*
X0146951Y0082335D01*
X0146951Y0082602D02*
X0150239Y0082602D01*
X0150239Y0082869D02*
X0146951Y0082869D01*
X0146951Y0083136D02*
X0150239Y0083136D01*
X0150239Y0083403D02*
X0146951Y0083403D01*
X0119323Y0118596D02*
X0117807Y0118596D01*
X0117807Y0121884D01*
X0119323Y0121884D01*
X0119323Y0118596D01*
X0119323Y0118863D02*
X0117807Y0118863D01*
X0117807Y0119130D02*
X0119323Y0119130D01*
X0119323Y0119397D02*
X0117807Y0119397D01*
X0117807Y0119664D02*
X0119323Y0119664D01*
X0119323Y0119931D02*
X0117807Y0119931D01*
X0117807Y0120198D02*
X0119323Y0120198D01*
X0119323Y0120465D02*
X0117807Y0120465D01*
X0117807Y0120732D02*
X0119323Y0120732D01*
X0119323Y0120999D02*
X0117807Y0120999D01*
X0117807Y0121266D02*
X0119323Y0121266D01*
X0119323Y0121533D02*
X0117807Y0121533D01*
X0117807Y0121800D02*
X0119323Y0121800D01*
X0117354Y0118596D02*
X0115838Y0118596D01*
X0115838Y0121884D01*
X0117354Y0121884D01*
X0117354Y0118596D01*
X0117354Y0118863D02*
X0115838Y0118863D01*
X0115838Y0119130D02*
X0117354Y0119130D01*
X0117354Y0119397D02*
X0115838Y0119397D01*
X0115838Y0119664D02*
X0117354Y0119664D01*
X0117354Y0119931D02*
X0115838Y0119931D01*
X0115838Y0120198D02*
X0117354Y0120198D01*
X0117354Y0120465D02*
X0115838Y0120465D01*
X0115838Y0120732D02*
X0117354Y0120732D01*
X0117354Y0120999D02*
X0115838Y0120999D01*
X0115838Y0121266D02*
X0117354Y0121266D01*
X0117354Y0121533D02*
X0115838Y0121533D01*
X0115838Y0121800D02*
X0117354Y0121800D01*
X0115386Y0118596D02*
X0113870Y0118596D01*
X0113870Y0121884D01*
X0115386Y0121884D01*
X0115386Y0118596D01*
X0115386Y0118863D02*
X0113870Y0118863D01*
X0113870Y0119130D02*
X0115386Y0119130D01*
X0115386Y0119397D02*
X0113870Y0119397D01*
X0113870Y0119664D02*
X0115386Y0119664D01*
X0115386Y0119931D02*
X0113870Y0119931D01*
X0113870Y0120198D02*
X0115386Y0120198D01*
X0115386Y0120465D02*
X0113870Y0120465D01*
X0113870Y0120732D02*
X0115386Y0120732D01*
X0115386Y0120999D02*
X0113870Y0120999D01*
X0113870Y0121266D02*
X0115386Y0121266D01*
X0115386Y0121533D02*
X0113870Y0121533D01*
X0113870Y0121800D02*
X0115386Y0121800D01*
X0113417Y0118596D02*
X0111901Y0118596D01*
X0111901Y0121884D01*
X0113417Y0121884D01*
X0113417Y0118596D01*
X0113417Y0118863D02*
X0111901Y0118863D01*
X0111901Y0119130D02*
X0113417Y0119130D01*
X0113417Y0119397D02*
X0111901Y0119397D01*
X0111901Y0119664D02*
X0113417Y0119664D01*
X0113417Y0119931D02*
X0111901Y0119931D01*
X0111901Y0120198D02*
X0113417Y0120198D01*
X0113417Y0120465D02*
X0111901Y0120465D01*
X0111901Y0120732D02*
X0113417Y0120732D01*
X0113417Y0120999D02*
X0111901Y0120999D01*
X0111901Y0121266D02*
X0113417Y0121266D01*
X0113417Y0121533D02*
X0111901Y0121533D01*
X0111901Y0121800D02*
X0113417Y0121800D01*
X0111449Y0118596D02*
X0109933Y0118596D01*
X0109933Y0121884D01*
X0111449Y0121884D01*
X0111449Y0118596D01*
X0111449Y0118863D02*
X0109933Y0118863D01*
X0109933Y0119130D02*
X0111449Y0119130D01*
X0111449Y0119397D02*
X0109933Y0119397D01*
X0109933Y0119664D02*
X0111449Y0119664D01*
X0111449Y0119931D02*
X0109933Y0119931D01*
X0109933Y0120198D02*
X0111449Y0120198D01*
X0111449Y0120465D02*
X0109933Y0120465D01*
X0109933Y0120732D02*
X0111449Y0120732D01*
X0111449Y0120999D02*
X0109933Y0120999D01*
X0109933Y0121266D02*
X0111449Y0121266D01*
X0111449Y0121533D02*
X0109933Y0121533D01*
X0109933Y0121800D02*
X0111449Y0121800D01*
X0109480Y0118596D02*
X0107964Y0118596D01*
X0107964Y0121884D01*
X0109480Y0121884D01*
X0109480Y0118596D01*
X0109480Y0118863D02*
X0107964Y0118863D01*
X0107964Y0119130D02*
X0109480Y0119130D01*
X0109480Y0119397D02*
X0107964Y0119397D01*
X0107964Y0119664D02*
X0109480Y0119664D01*
X0109480Y0119931D02*
X0107964Y0119931D01*
X0107964Y0120198D02*
X0109480Y0120198D01*
X0109480Y0120465D02*
X0107964Y0120465D01*
X0107964Y0120732D02*
X0109480Y0120732D01*
X0109480Y0120999D02*
X0107964Y0120999D01*
X0107964Y0121266D02*
X0109480Y0121266D01*
X0109480Y0121533D02*
X0107964Y0121533D01*
X0107964Y0121800D02*
X0109480Y0121800D01*
X0107512Y0118596D02*
X0105996Y0118596D01*
X0105996Y0121884D01*
X0107512Y0121884D01*
X0107512Y0118596D01*
X0107512Y0118863D02*
X0105996Y0118863D01*
X0105996Y0119130D02*
X0107512Y0119130D01*
X0107512Y0119397D02*
X0105996Y0119397D01*
X0105996Y0119664D02*
X0107512Y0119664D01*
X0107512Y0119931D02*
X0105996Y0119931D01*
X0105996Y0120198D02*
X0107512Y0120198D01*
X0107512Y0120465D02*
X0105996Y0120465D01*
X0105996Y0120732D02*
X0107512Y0120732D01*
X0107512Y0120999D02*
X0105996Y0120999D01*
X0105996Y0121266D02*
X0107512Y0121266D01*
X0107512Y0121533D02*
X0105996Y0121533D01*
X0105996Y0121800D02*
X0107512Y0121800D01*
X0105543Y0118596D02*
X0104027Y0118596D01*
X0104027Y0121884D01*
X0105543Y0121884D01*
X0105543Y0118596D01*
X0105543Y0118863D02*
X0104027Y0118863D01*
X0104027Y0119130D02*
X0105543Y0119130D01*
X0105543Y0119397D02*
X0104027Y0119397D01*
X0104027Y0119664D02*
X0105543Y0119664D01*
X0105543Y0119931D02*
X0104027Y0119931D01*
X0104027Y0120198D02*
X0105543Y0120198D01*
X0105543Y0120465D02*
X0104027Y0120465D01*
X0104027Y0120732D02*
X0105543Y0120732D01*
X0105543Y0120999D02*
X0104027Y0120999D01*
X0104027Y0121266D02*
X0105543Y0121266D01*
X0105543Y0121533D02*
X0104027Y0121533D01*
X0104027Y0121800D02*
X0105543Y0121800D01*
X0103575Y0118596D02*
X0102059Y0118596D01*
X0102059Y0121884D01*
X0103575Y0121884D01*
X0103575Y0118596D01*
X0103575Y0118863D02*
X0102059Y0118863D01*
X0102059Y0119130D02*
X0103575Y0119130D01*
X0103575Y0119397D02*
X0102059Y0119397D01*
X0102059Y0119664D02*
X0103575Y0119664D01*
X0103575Y0119931D02*
X0102059Y0119931D01*
X0102059Y0120198D02*
X0103575Y0120198D01*
X0103575Y0120465D02*
X0102059Y0120465D01*
X0102059Y0120732D02*
X0103575Y0120732D01*
X0103575Y0120999D02*
X0102059Y0120999D01*
X0102059Y0121266D02*
X0103575Y0121266D01*
X0103575Y0121533D02*
X0102059Y0121533D01*
X0102059Y0121800D02*
X0103575Y0121800D01*
X0101606Y0118596D02*
X0100090Y0118596D01*
X0100090Y0121884D01*
X0101606Y0121884D01*
X0101606Y0118596D01*
X0101606Y0118863D02*
X0100090Y0118863D01*
X0100090Y0119130D02*
X0101606Y0119130D01*
X0101606Y0119397D02*
X0100090Y0119397D01*
X0100090Y0119664D02*
X0101606Y0119664D01*
X0101606Y0119931D02*
X0100090Y0119931D01*
X0100090Y0120198D02*
X0101606Y0120198D01*
X0101606Y0120465D02*
X0100090Y0120465D01*
X0100090Y0120732D02*
X0101606Y0120732D01*
X0101606Y0120999D02*
X0100090Y0120999D01*
X0100090Y0121266D02*
X0101606Y0121266D01*
X0101606Y0121533D02*
X0100090Y0121533D01*
X0100090Y0121800D02*
X0101606Y0121800D01*
X0099638Y0118596D02*
X0098122Y0118596D01*
X0098122Y0121884D01*
X0099638Y0121884D01*
X0099638Y0118596D01*
X0099638Y0118863D02*
X0098122Y0118863D01*
X0098122Y0119130D02*
X0099638Y0119130D01*
X0099638Y0119397D02*
X0098122Y0119397D01*
X0098122Y0119664D02*
X0099638Y0119664D01*
X0099638Y0119931D02*
X0098122Y0119931D01*
X0098122Y0120198D02*
X0099638Y0120198D01*
X0099638Y0120465D02*
X0098122Y0120465D01*
X0098122Y0120732D02*
X0099638Y0120732D01*
X0099638Y0120999D02*
X0098122Y0120999D01*
X0098122Y0121266D02*
X0099638Y0121266D01*
X0099638Y0121533D02*
X0098122Y0121533D01*
X0098122Y0121800D02*
X0099638Y0121800D01*
X0099638Y0137100D02*
X0098122Y0137100D01*
X0098122Y0140388D01*
X0099638Y0140388D01*
X0099638Y0137100D01*
X0099638Y0137367D02*
X0098122Y0137367D01*
X0098122Y0137634D02*
X0099638Y0137634D01*
X0099638Y0137901D02*
X0098122Y0137901D01*
X0098122Y0138168D02*
X0099638Y0138168D01*
X0099638Y0138435D02*
X0098122Y0138435D01*
X0098122Y0138702D02*
X0099638Y0138702D01*
X0099638Y0138969D02*
X0098122Y0138969D01*
X0098122Y0139236D02*
X0099638Y0139236D01*
X0099638Y0139503D02*
X0098122Y0139503D01*
X0098122Y0139770D02*
X0099638Y0139770D01*
X0099638Y0140037D02*
X0098122Y0140037D01*
X0098122Y0140304D02*
X0099638Y0140304D01*
X0100090Y0137100D02*
X0101606Y0137100D01*
X0100090Y0137100D02*
X0100090Y0140388D01*
X0101606Y0140388D01*
X0101606Y0137100D01*
X0101606Y0137367D02*
X0100090Y0137367D01*
X0100090Y0137634D02*
X0101606Y0137634D01*
X0101606Y0137901D02*
X0100090Y0137901D01*
X0100090Y0138168D02*
X0101606Y0138168D01*
X0101606Y0138435D02*
X0100090Y0138435D01*
X0100090Y0138702D02*
X0101606Y0138702D01*
X0101606Y0138969D02*
X0100090Y0138969D01*
X0100090Y0139236D02*
X0101606Y0139236D01*
X0101606Y0139503D02*
X0100090Y0139503D01*
X0100090Y0139770D02*
X0101606Y0139770D01*
X0101606Y0140037D02*
X0100090Y0140037D01*
X0100090Y0140304D02*
X0101606Y0140304D01*
X0102059Y0137100D02*
X0103575Y0137100D01*
X0102059Y0137100D02*
X0102059Y0140388D01*
X0103575Y0140388D01*
X0103575Y0137100D01*
X0103575Y0137367D02*
X0102059Y0137367D01*
X0102059Y0137634D02*
X0103575Y0137634D01*
X0103575Y0137901D02*
X0102059Y0137901D01*
X0102059Y0138168D02*
X0103575Y0138168D01*
X0103575Y0138435D02*
X0102059Y0138435D01*
X0102059Y0138702D02*
X0103575Y0138702D01*
X0103575Y0138969D02*
X0102059Y0138969D01*
X0102059Y0139236D02*
X0103575Y0139236D01*
X0103575Y0139503D02*
X0102059Y0139503D01*
X0102059Y0139770D02*
X0103575Y0139770D01*
X0103575Y0140037D02*
X0102059Y0140037D01*
X0102059Y0140304D02*
X0103575Y0140304D01*
X0104027Y0137100D02*
X0105543Y0137100D01*
X0104027Y0137100D02*
X0104027Y0140388D01*
X0105543Y0140388D01*
X0105543Y0137100D01*
X0105543Y0137367D02*
X0104027Y0137367D01*
X0104027Y0137634D02*
X0105543Y0137634D01*
X0105543Y0137901D02*
X0104027Y0137901D01*
X0104027Y0138168D02*
X0105543Y0138168D01*
X0105543Y0138435D02*
X0104027Y0138435D01*
X0104027Y0138702D02*
X0105543Y0138702D01*
X0105543Y0138969D02*
X0104027Y0138969D01*
X0104027Y0139236D02*
X0105543Y0139236D01*
X0105543Y0139503D02*
X0104027Y0139503D01*
X0104027Y0139770D02*
X0105543Y0139770D01*
X0105543Y0140037D02*
X0104027Y0140037D01*
X0104027Y0140304D02*
X0105543Y0140304D01*
X0105996Y0137100D02*
X0107512Y0137100D01*
X0105996Y0137100D02*
X0105996Y0140388D01*
X0107512Y0140388D01*
X0107512Y0137100D01*
X0107512Y0137367D02*
X0105996Y0137367D01*
X0105996Y0137634D02*
X0107512Y0137634D01*
X0107512Y0137901D02*
X0105996Y0137901D01*
X0105996Y0138168D02*
X0107512Y0138168D01*
X0107512Y0138435D02*
X0105996Y0138435D01*
X0105996Y0138702D02*
X0107512Y0138702D01*
X0107512Y0138969D02*
X0105996Y0138969D01*
X0105996Y0139236D02*
X0107512Y0139236D01*
X0107512Y0139503D02*
X0105996Y0139503D01*
X0105996Y0139770D02*
X0107512Y0139770D01*
X0107512Y0140037D02*
X0105996Y0140037D01*
X0105996Y0140304D02*
X0107512Y0140304D01*
X0107964Y0137100D02*
X0109480Y0137100D01*
X0107964Y0137100D02*
X0107964Y0140388D01*
X0109480Y0140388D01*
X0109480Y0137100D01*
X0109480Y0137367D02*
X0107964Y0137367D01*
X0107964Y0137634D02*
X0109480Y0137634D01*
X0109480Y0137901D02*
X0107964Y0137901D01*
X0107964Y0138168D02*
X0109480Y0138168D01*
X0109480Y0138435D02*
X0107964Y0138435D01*
X0107964Y0138702D02*
X0109480Y0138702D01*
X0109480Y0138969D02*
X0107964Y0138969D01*
X0107964Y0139236D02*
X0109480Y0139236D01*
X0109480Y0139503D02*
X0107964Y0139503D01*
X0107964Y0139770D02*
X0109480Y0139770D01*
X0109480Y0140037D02*
X0107964Y0140037D01*
X0107964Y0140304D02*
X0109480Y0140304D01*
X0109933Y0137100D02*
X0111449Y0137100D01*
X0109933Y0137100D02*
X0109933Y0140388D01*
X0111449Y0140388D01*
X0111449Y0137100D01*
X0111449Y0137367D02*
X0109933Y0137367D01*
X0109933Y0137634D02*
X0111449Y0137634D01*
X0111449Y0137901D02*
X0109933Y0137901D01*
X0109933Y0138168D02*
X0111449Y0138168D01*
X0111449Y0138435D02*
X0109933Y0138435D01*
X0109933Y0138702D02*
X0111449Y0138702D01*
X0111449Y0138969D02*
X0109933Y0138969D01*
X0109933Y0139236D02*
X0111449Y0139236D01*
X0111449Y0139503D02*
X0109933Y0139503D01*
X0109933Y0139770D02*
X0111449Y0139770D01*
X0111449Y0140037D02*
X0109933Y0140037D01*
X0109933Y0140304D02*
X0111449Y0140304D01*
X0111901Y0137100D02*
X0113417Y0137100D01*
X0111901Y0137100D02*
X0111901Y0140388D01*
X0113417Y0140388D01*
X0113417Y0137100D01*
X0113417Y0137367D02*
X0111901Y0137367D01*
X0111901Y0137634D02*
X0113417Y0137634D01*
X0113417Y0137901D02*
X0111901Y0137901D01*
X0111901Y0138168D02*
X0113417Y0138168D01*
X0113417Y0138435D02*
X0111901Y0138435D01*
X0111901Y0138702D02*
X0113417Y0138702D01*
X0113417Y0138969D02*
X0111901Y0138969D01*
X0111901Y0139236D02*
X0113417Y0139236D01*
X0113417Y0139503D02*
X0111901Y0139503D01*
X0111901Y0139770D02*
X0113417Y0139770D01*
X0113417Y0140037D02*
X0111901Y0140037D01*
X0111901Y0140304D02*
X0113417Y0140304D01*
X0113870Y0137100D02*
X0115386Y0137100D01*
X0113870Y0137100D02*
X0113870Y0140388D01*
X0115386Y0140388D01*
X0115386Y0137100D01*
X0115386Y0137367D02*
X0113870Y0137367D01*
X0113870Y0137634D02*
X0115386Y0137634D01*
X0115386Y0137901D02*
X0113870Y0137901D01*
X0113870Y0138168D02*
X0115386Y0138168D01*
X0115386Y0138435D02*
X0113870Y0138435D01*
X0113870Y0138702D02*
X0115386Y0138702D01*
X0115386Y0138969D02*
X0113870Y0138969D01*
X0113870Y0139236D02*
X0115386Y0139236D01*
X0115386Y0139503D02*
X0113870Y0139503D01*
X0113870Y0139770D02*
X0115386Y0139770D01*
X0115386Y0140037D02*
X0113870Y0140037D01*
X0113870Y0140304D02*
X0115386Y0140304D01*
X0115838Y0137100D02*
X0117354Y0137100D01*
X0115838Y0137100D02*
X0115838Y0140388D01*
X0117354Y0140388D01*
X0117354Y0137100D01*
X0117354Y0137367D02*
X0115838Y0137367D01*
X0115838Y0137634D02*
X0117354Y0137634D01*
X0117354Y0137901D02*
X0115838Y0137901D01*
X0115838Y0138168D02*
X0117354Y0138168D01*
X0117354Y0138435D02*
X0115838Y0138435D01*
X0115838Y0138702D02*
X0117354Y0138702D01*
X0117354Y0138969D02*
X0115838Y0138969D01*
X0115838Y0139236D02*
X0117354Y0139236D01*
X0117354Y0139503D02*
X0115838Y0139503D01*
X0115838Y0139770D02*
X0117354Y0139770D01*
X0117354Y0140037D02*
X0115838Y0140037D01*
X0115838Y0140304D02*
X0117354Y0140304D01*
X0117807Y0137100D02*
X0119323Y0137100D01*
X0117807Y0137100D02*
X0117807Y0140388D01*
X0119323Y0140388D01*
X0119323Y0137100D01*
X0119323Y0137367D02*
X0117807Y0137367D01*
X0117807Y0137634D02*
X0119323Y0137634D01*
X0119323Y0137901D02*
X0117807Y0137901D01*
X0117807Y0138168D02*
X0119323Y0138168D01*
X0119323Y0138435D02*
X0117807Y0138435D01*
X0117807Y0138702D02*
X0119323Y0138702D01*
X0119323Y0138969D02*
X0117807Y0138969D01*
X0117807Y0139236D02*
X0119323Y0139236D01*
X0119323Y0139503D02*
X0117807Y0139503D01*
X0117807Y0139770D02*
X0119323Y0139770D01*
X0119323Y0140037D02*
X0117807Y0140037D01*
X0117807Y0140304D02*
X0119323Y0140304D01*
D29*
X0119616Y0138895D02*
X0119616Y0136743D01*
X0119616Y0138895D02*
X0121552Y0138895D01*
X0121552Y0136743D01*
X0119616Y0136743D01*
X0119616Y0137083D02*
X0121552Y0137083D01*
X0121552Y0137423D02*
X0119616Y0137423D01*
X0119616Y0137763D02*
X0121552Y0137763D01*
X0121552Y0138103D02*
X0119616Y0138103D01*
X0119616Y0138443D02*
X0121552Y0138443D01*
X0121552Y0138783D02*
X0119616Y0138783D01*
X0119616Y0122241D02*
X0119616Y0120089D01*
X0119616Y0122241D02*
X0121552Y0122241D01*
X0121552Y0120089D01*
X0119616Y0120089D01*
X0119616Y0120429D02*
X0121552Y0120429D01*
X0121552Y0120769D02*
X0119616Y0120769D01*
X0119616Y0121109D02*
X0121552Y0121109D01*
X0121552Y0121449D02*
X0119616Y0121449D01*
X0119616Y0121789D02*
X0121552Y0121789D01*
X0121552Y0122129D02*
X0119616Y0122129D01*
X0095892Y0122241D02*
X0095892Y0120089D01*
X0095892Y0122241D02*
X0097828Y0122241D01*
X0097828Y0120089D01*
X0095892Y0120089D01*
X0095892Y0120429D02*
X0097828Y0120429D01*
X0097828Y0120769D02*
X0095892Y0120769D01*
X0095892Y0121109D02*
X0097828Y0121109D01*
X0097828Y0121449D02*
X0095892Y0121449D01*
X0095892Y0121789D02*
X0097828Y0121789D01*
X0097828Y0122129D02*
X0095892Y0122129D01*
X0095892Y0136743D02*
X0095892Y0138895D01*
X0097828Y0138895D01*
X0097828Y0136743D01*
X0095892Y0136743D01*
X0095892Y0137083D02*
X0097828Y0137083D01*
X0097828Y0137423D02*
X0095892Y0137423D01*
X0095892Y0137763D02*
X0097828Y0137763D01*
X0097828Y0138103D02*
X0095892Y0138103D01*
X0095892Y0138443D02*
X0097828Y0138443D01*
X0097828Y0138783D02*
X0095892Y0138783D01*
X0148444Y0103563D02*
X0150596Y0103563D01*
X0148444Y0103563D02*
X0148444Y0105499D01*
X0150596Y0105499D01*
X0150596Y0103563D01*
X0150596Y0103903D02*
X0148444Y0103903D01*
X0148444Y0104243D02*
X0150596Y0104243D01*
X0150596Y0104583D02*
X0148444Y0104583D01*
X0148444Y0104923D02*
X0150596Y0104923D01*
X0150596Y0105263D02*
X0148444Y0105263D01*
X0165098Y0103563D02*
X0167250Y0103563D01*
X0165098Y0103563D02*
X0165098Y0105499D01*
X0167250Y0105499D01*
X0167250Y0103563D01*
X0167250Y0103903D02*
X0165098Y0103903D01*
X0165098Y0104243D02*
X0167250Y0104243D01*
X0167250Y0104583D02*
X0165098Y0104583D01*
X0165098Y0104923D02*
X0167250Y0104923D01*
X0167250Y0105263D02*
X0165098Y0105263D01*
X0165098Y0079838D02*
X0167250Y0079838D01*
X0165098Y0079838D02*
X0165098Y0081774D01*
X0167250Y0081774D01*
X0167250Y0079838D01*
X0167250Y0080178D02*
X0165098Y0080178D01*
X0165098Y0080518D02*
X0167250Y0080518D01*
X0167250Y0080858D02*
X0165098Y0080858D01*
X0165098Y0081198D02*
X0167250Y0081198D01*
X0167250Y0081538D02*
X0165098Y0081538D01*
X0150596Y0079838D02*
X0148444Y0079838D01*
X0148444Y0081774D01*
X0150596Y0081774D01*
X0150596Y0079838D01*
X0150596Y0080178D02*
X0148444Y0080178D01*
X0148444Y0080518D02*
X0150596Y0080518D01*
X0150596Y0080858D02*
X0148444Y0080858D01*
X0148444Y0081198D02*
X0150596Y0081198D01*
X0150596Y0081538D02*
X0148444Y0081538D01*
X0218304Y0072915D02*
X0220456Y0072915D01*
X0218304Y0072915D02*
X0218304Y0074851D01*
X0220456Y0074851D01*
X0220456Y0072915D01*
X0220456Y0073255D02*
X0218304Y0073255D01*
X0218304Y0073595D02*
X0220456Y0073595D01*
X0220456Y0073935D02*
X0218304Y0073935D01*
X0218304Y0074275D02*
X0220456Y0074275D01*
X0220456Y0074615D02*
X0218304Y0074615D01*
X0234957Y0072915D02*
X0237109Y0072915D01*
X0234957Y0072915D02*
X0234957Y0074851D01*
X0237109Y0074851D01*
X0237109Y0072915D01*
X0237109Y0073255D02*
X0234957Y0073255D01*
X0234957Y0073595D02*
X0237109Y0073595D01*
X0237109Y0073935D02*
X0234957Y0073935D01*
X0234957Y0074275D02*
X0237109Y0074275D01*
X0237109Y0074615D02*
X0234957Y0074615D01*
X0234957Y0049191D02*
X0237109Y0049191D01*
X0234957Y0049191D02*
X0234957Y0051127D01*
X0237109Y0051127D01*
X0237109Y0049191D01*
X0237109Y0049531D02*
X0234957Y0049531D01*
X0234957Y0049871D02*
X0237109Y0049871D01*
X0237109Y0050211D02*
X0234957Y0050211D01*
X0234957Y0050551D02*
X0237109Y0050551D01*
X0237109Y0050891D02*
X0234957Y0050891D01*
X0220456Y0049191D02*
X0218304Y0049191D01*
X0218304Y0051127D01*
X0220456Y0051127D01*
X0220456Y0049191D01*
X0220456Y0049531D02*
X0218304Y0049531D01*
X0218304Y0049871D02*
X0220456Y0049871D01*
X0220456Y0050211D02*
X0218304Y0050211D01*
X0218304Y0050551D02*
X0220456Y0050551D01*
X0220456Y0050891D02*
X0218304Y0050891D01*
D30*
X0301576Y0049174D03*
X0301576Y0078702D03*
X0357717Y0096536D03*
X0357717Y0126064D03*
D31*
X0065946Y0131024D03*
X0065946Y0195198D03*
D32*
X0075198Y0182796D03*
X0075198Y0178859D03*
X0075198Y0174922D03*
X0075198Y0170985D03*
X0075198Y0167048D03*
X0075198Y0163111D03*
X0075198Y0159174D03*
X0075198Y0155237D03*
X0075198Y0151300D03*
X0075198Y0147363D03*
X0075198Y0143426D03*
D33*
X0354441Y0263489D02*
X0356221Y0263489D01*
X0354441Y0263489D02*
X0354441Y0268379D01*
X0356221Y0268379D01*
X0356221Y0263489D01*
X0356221Y0264082D02*
X0354441Y0264082D01*
X0354441Y0264675D02*
X0356221Y0264675D01*
X0356221Y0265268D02*
X0354441Y0265268D01*
X0354441Y0265861D02*
X0356221Y0265861D01*
X0356221Y0266454D02*
X0354441Y0266454D01*
X0354441Y0267047D02*
X0356221Y0267047D01*
X0356221Y0267640D02*
X0354441Y0267640D01*
X0354441Y0268233D02*
X0356221Y0268233D01*
X0357000Y0263489D02*
X0358780Y0263489D01*
X0357000Y0263489D02*
X0357000Y0268379D01*
X0358780Y0268379D01*
X0358780Y0263489D01*
X0358780Y0264082D02*
X0357000Y0264082D01*
X0357000Y0264675D02*
X0358780Y0264675D01*
X0358780Y0265268D02*
X0357000Y0265268D01*
X0357000Y0265861D02*
X0358780Y0265861D01*
X0358780Y0266454D02*
X0357000Y0266454D01*
X0357000Y0267047D02*
X0358780Y0267047D01*
X0358780Y0267640D02*
X0357000Y0267640D01*
X0357000Y0268233D02*
X0358780Y0268233D01*
X0359559Y0263489D02*
X0361339Y0263489D01*
X0359559Y0263489D02*
X0359559Y0268379D01*
X0361339Y0268379D01*
X0361339Y0263489D01*
X0361339Y0264082D02*
X0359559Y0264082D01*
X0359559Y0264675D02*
X0361339Y0264675D01*
X0361339Y0265268D02*
X0359559Y0265268D01*
X0359559Y0265861D02*
X0361339Y0265861D01*
X0361339Y0266454D02*
X0359559Y0266454D01*
X0359559Y0267047D02*
X0361339Y0267047D01*
X0361339Y0267640D02*
X0359559Y0267640D01*
X0359559Y0268233D02*
X0361339Y0268233D01*
X0361339Y0275938D02*
X0359559Y0275938D01*
X0361339Y0275938D02*
X0361339Y0271048D01*
X0359559Y0271048D01*
X0359559Y0275938D01*
X0359559Y0271641D02*
X0361339Y0271641D01*
X0361339Y0272234D02*
X0359559Y0272234D01*
X0359559Y0272827D02*
X0361339Y0272827D01*
X0361339Y0273420D02*
X0359559Y0273420D01*
X0359559Y0274013D02*
X0361339Y0274013D01*
X0361339Y0274606D02*
X0359559Y0274606D01*
X0359559Y0275199D02*
X0361339Y0275199D01*
X0361339Y0275792D02*
X0359559Y0275792D01*
X0356221Y0275938D02*
X0354441Y0275938D01*
X0356221Y0275938D02*
X0356221Y0271048D01*
X0354441Y0271048D01*
X0354441Y0275938D01*
X0354441Y0271641D02*
X0356221Y0271641D01*
X0356221Y0272234D02*
X0354441Y0272234D01*
X0354441Y0272827D02*
X0356221Y0272827D01*
X0356221Y0273420D02*
X0354441Y0273420D01*
X0354441Y0274013D02*
X0356221Y0274013D01*
X0356221Y0274606D02*
X0354441Y0274606D01*
X0354441Y0275199D02*
X0356221Y0275199D01*
X0356221Y0275792D02*
X0354441Y0275792D01*
D34*
X0345276Y0275198D03*
X0335276Y0275198D03*
X0335276Y0285198D03*
X0345276Y0285198D03*
X0345276Y0265198D03*
X0335276Y0265198D03*
X0335276Y0255198D03*
X0345276Y0255198D03*
D35*
X0340276Y0119213D03*
X0340276Y0090473D03*
X0349725Y0081812D03*
X0378072Y0083387D03*
X0378072Y0112127D03*
X0321772Y0073150D03*
X0349725Y0053072D03*
X0321772Y0044410D03*
X0285946Y0041261D03*
X0285946Y0070001D03*
D36*
X0151160Y0259984D03*
X0158387Y0263111D03*
X0165613Y0266238D03*
D37*
X0167749Y0276171D03*
X0142457Y0265226D03*
D38*
X0179275Y0281671D03*
X0188308Y0285580D03*
X0197341Y0289489D03*
D39*
X0120050Y0170788D03*
X0120050Y0168229D03*
X0120050Y0165670D03*
X0120050Y0163111D03*
X0120050Y0160552D03*
X0120050Y0157993D03*
X0120050Y0155434D03*
X0097806Y0155434D03*
X0097806Y0157993D03*
X0097806Y0160552D03*
X0097806Y0163111D03*
X0097806Y0165670D03*
X0097806Y0168229D03*
X0097806Y0170788D03*
D40*
X0363898Y0171969D03*
X0363898Y0166064D03*
X0363898Y0160158D03*
X0363898Y0154253D03*
X0363898Y0148347D03*
X0363898Y0177875D03*
D41*
X0384331Y0188131D03*
X0384331Y0138091D03*
D42*
X0214312Y0180828D03*
X0209312Y0180828D03*
X0204312Y0180828D03*
X0199312Y0180828D03*
X0199312Y0201300D03*
X0204312Y0201300D03*
X0209312Y0201300D03*
X0214312Y0201300D03*
D43*
G36*
X0237664Y0225503D02*
X0229582Y0217421D01*
X0218996Y0228007D01*
X0227078Y0236089D01*
X0237664Y0225503D01*
G37*
G36*
X0260770Y0248609D02*
X0252688Y0240527D01*
X0242102Y0251113D01*
X0250184Y0259195D01*
X0260770Y0248609D01*
G37*
D44*
X0262324Y0254843D03*
X0263111Y0263111D03*
X0269017Y0260749D03*
X0274135Y0257993D03*
X0283190Y0252087D03*
X0282009Y0246182D03*
X0283583Y0241457D03*
X0287127Y0239489D03*
X0289883Y0241851D03*
X0295394Y0239883D03*
X0297363Y0244213D03*
X0301300Y0245788D03*
X0300119Y0251694D03*
X0300119Y0256024D03*
X0313898Y0245788D03*
X0317442Y0233583D03*
X0321772Y0233583D03*
X0330828Y0233583D03*
X0334765Y0233583D03*
X0340276Y0233977D03*
X0345788Y0235552D03*
X0350158Y0233780D03*
X0360355Y0233977D03*
X0365080Y0238308D03*
X0370985Y0245001D03*
X0376103Y0240697D03*
X0383190Y0246182D03*
X0392481Y0251182D03*
X0384765Y0263269D03*
X0373347Y0265473D03*
X0367048Y0262717D03*
X0352481Y0259961D03*
X0354056Y0252875D03*
X0378859Y0232009D03*
X0382402Y0228072D03*
X0388308Y0232009D03*
X0385158Y0235158D03*
X0409804Y0222166D03*
X0396969Y0209961D03*
X0399725Y0207206D03*
X0402087Y0204056D03*
X0404450Y0200513D03*
X0393032Y0210355D03*
X0388702Y0210355D03*
X0383977Y0195001D03*
X0356418Y0195394D03*
X0353269Y0198150D03*
X0349725Y0200119D03*
X0347363Y0203662D03*
X0351300Y0206024D03*
X0349725Y0209568D03*
X0348938Y0214292D03*
X0338308Y0216654D03*
X0338308Y0222166D03*
X0337914Y0226103D03*
X0333190Y0221772D03*
X0324135Y0222560D03*
X0322954Y0218623D03*
X0279646Y0228072D03*
X0267478Y0241111D03*
X0237914Y0251694D03*
X0228347Y0256143D03*
X0229253Y0267835D03*
X0230434Y0275316D03*
X0236733Y0273741D03*
X0261143Y0285158D03*
X0263898Y0280434D03*
X0272087Y0283505D03*
X0277284Y0273820D03*
X0285434Y0278072D03*
X0289135Y0272442D03*
X0294371Y0275867D03*
X0297757Y0280434D03*
X0290276Y0287914D03*
X0292245Y0306024D03*
X0266261Y0300906D03*
X0254646Y0309568D03*
X0221379Y0295394D03*
X0208780Y0267993D03*
X0196969Y0259568D03*
X0202481Y0256024D03*
X0179646Y0247757D03*
X0177678Y0256024D03*
X0158505Y0241182D03*
X0171300Y0221379D03*
X0187835Y0213820D03*
X0217717Y0235276D03*
X0228859Y0241064D03*
X0233583Y0239095D03*
X0270985Y0271930D03*
X0296182Y0267835D03*
X0316851Y0274174D03*
X0323741Y0268623D03*
X0352875Y0284371D03*
X0368358Y0281912D03*
X0339489Y0295788D03*
X0337180Y0300031D03*
X0330198Y0300434D03*
X0192245Y0190276D03*
X0182009Y0189095D03*
X0176103Y0187914D03*
X0169017Y0185946D03*
X0163111Y0178072D03*
X0153745Y0177596D03*
X0148544Y0172166D03*
X0145001Y0157206D03*
X0159095Y0142875D03*
X0186654Y0138308D03*
X0191772Y0136969D03*
X0197757Y0131143D03*
X0189331Y0129489D03*
X0187520Y0117442D03*
X0206654Y0120906D03*
X0206812Y0114450D03*
X0207206Y0103662D03*
X0216654Y0095001D03*
X0226103Y0084371D03*
X0239489Y0092245D03*
X0232009Y0101694D03*
X0256418Y0092245D03*
X0248150Y0082796D03*
X0241064Y0071772D03*
X0229646Y0070591D03*
X0224922Y0070591D03*
X0224922Y0065473D03*
X0229646Y0065473D03*
X0229646Y0059961D03*
X0224922Y0059961D03*
X0224922Y0054843D03*
X0229646Y0054843D03*
X0241851Y0060749D03*
X0264292Y0045788D03*
X0313505Y0050906D03*
X0318229Y0050906D03*
X0322560Y0050906D03*
X0326891Y0051300D03*
X0286339Y0081615D03*
X0277678Y0090276D03*
X0266261Y0082796D03*
X0305631Y0096969D03*
X0317048Y0085946D03*
X0332009Y0097363D03*
X0342245Y0133583D03*
X0352481Y0135552D03*
X0353269Y0145788D03*
X0344213Y0146576D03*
X0350119Y0154056D03*
X0357206Y0159961D03*
X0351694Y0166261D03*
X0348544Y0173741D03*
X0345788Y0178465D03*
X0212087Y0130828D03*
X0191851Y0148544D03*
X0202087Y0154056D03*
X0202087Y0172560D03*
X0138702Y0196339D03*
X0122245Y0205394D03*
X0111143Y0205631D03*
X0100513Y0195001D03*
X0091457Y0201694D03*
X0079646Y0201694D03*
X0117048Y0177284D03*
X0115080Y0167048D03*
X0115080Y0161930D03*
X0119804Y0146576D03*
X0119804Y0142639D03*
X0110355Y0132009D03*
X0105237Y0132009D03*
X0100119Y0132009D03*
X0100119Y0126497D03*
X0105237Y0126497D03*
X0110355Y0126497D03*
X0121772Y0115080D03*
X0126103Y0109174D03*
X0131615Y0106418D03*
X0130040Y0100906D03*
X0122560Y0098544D03*
X0117835Y0099331D03*
X0128072Y0094607D03*
X0135552Y0096182D03*
X0142639Y0094607D03*
X0140670Y0102087D03*
X0144213Y0105631D03*
X0155631Y0100119D03*
X0160355Y0100119D03*
X0160355Y0094607D03*
X0155631Y0094607D03*
X0155631Y0089489D03*
X0160355Y0089489D03*
X0160355Y0083977D03*
X0155631Y0083977D03*
X0171772Y0085946D03*
X0171379Y0102875D03*
X0158387Y0112402D03*
X0195001Y0075709D03*
X0195001Y0070198D03*
X0202087Y0070198D03*
X0202087Y0075709D03*
X0207599Y0075709D03*
X0210749Y0070591D03*
X0214686Y0072954D03*
X0210749Y0063898D03*
X0213505Y0059174D03*
X0201694Y0063505D03*
X0183583Y0064292D03*
X0156812Y0063898D03*
X0133977Y0072166D03*
X0095158Y0089331D03*
X0079568Y0099017D03*
X0075709Y0113347D03*
X0064213Y0108229D03*
X0051300Y0119725D03*
X0040198Y0127678D03*
X0057206Y0145788D03*
X0059174Y0150119D03*
X0064292Y0150119D03*
X0062717Y0145788D03*
X0053662Y0149725D03*
X0052087Y0154450D03*
X0057206Y0154450D03*
X0062324Y0154450D03*
X0039883Y0161930D03*
X0034765Y0162324D03*
X0028465Y0162324D03*
X0028465Y0167442D03*
X0028465Y0172954D03*
X0033977Y0173347D03*
X0033977Y0167835D03*
X0040276Y0167835D03*
X0039883Y0174528D03*
X0037127Y0179646D03*
X0029646Y0179646D03*
D45*
X0405631Y0129646D03*
X0406024Y0107993D03*
M02*
