%
M48
M72
T01C0.01378
T02C0.02756
T03C0.03150
T04C0.03937
T05C0.04000
T06C0.04331
T07C0.06299
T08C0.06600
%
T01
X95158Y89331
X79568Y99017
X75709Y113347
X64213Y108229
X51300Y119725
X40198Y127678
X57206Y145788
X59174Y150119
X64292Y150119
X62717Y145788
X53662Y149725
X52087Y154450
X57206Y154450
X62324Y154450
X39883Y161930
X34765Y162324
X28465Y162324
X28465Y167442
X28465Y172954
X33977Y173347
X33977Y167835
X40276Y167835
X39883Y174528
X37127Y179646
X29646Y179646
X79646Y201694
X91457Y201694
X100513Y195001
X111143Y205631
X122245Y205394
X138702Y196339
X153745Y177596
X148544Y172166
X163111Y178072
X169017Y185946
X176103Y187914
X182009Y189095
X192245Y190276
X202087Y172560
X202087Y154056
X191851Y148544
X186654Y138308
X191772Y136969
X197757Y131143
X189331Y129489
X187520Y117442
X206654Y120906
X206812Y114450
X207206Y103662
X216654Y95001
X226103Y84371
X239489Y92245
X232009Y101694
X256418Y92245
X248150Y82796
X241064Y71772
X229646Y70591
X224922Y70591
X224922Y65473
X229646Y65473
X229646Y59961
X224922Y59961
X224922Y54843
X229646Y54843
X241851Y60749
X264292Y45788
X313505Y50906
X318229Y50906
X322560Y50906
X326891Y51300
X286339Y81615
X277678Y90276
X266261Y82796
X305631Y96969
X317048Y85946
X332009Y97363
X342245Y133583
X352481Y135552
X353269Y145788
X344213Y146576
X350119Y154056
X357206Y159961
X351694Y166261
X348544Y173741
X345788Y178465
X356418Y195394
X353269Y198150
X349725Y200119
X347363Y203662
X351300Y206024
X349725Y209568
X348938Y214292
X338308Y216654
X338308Y222166
X337914Y226103
X333190Y221772
X324135Y222560
X322954Y218623
X321772Y233583
X317442Y233583
X330828Y233583
X334765Y233583
X340276Y233977
X345788Y235552
X350158Y233780
X360355Y233977
X365080Y238308
X370985Y245001
X376103Y240697
X383190Y246182
X392481Y251182
X384765Y263269
X373347Y265473
X367048Y262717
X352481Y259961
X354056Y252875
X378859Y232009
X382402Y228072
X388308Y232009
X385158Y235158
X409804Y222166
X396969Y209961
X399725Y207206
X402087Y204056
X404450Y200513
X393032Y210355
X388702Y210355
X383977Y195001
X313898Y245788
X301300Y245788
X297363Y244213
X295394Y239883
X289883Y241851
X287127Y239489
X283583Y241457
X282009Y246182
X283190Y252087
X274135Y257993
X269017Y260749
X263111Y263111
X262324Y254843
X267478Y241111
X279646Y228072
X300119Y251694
X300119Y256024
X296182Y267835
X294371Y275867
X289135Y272442
X285434Y278072
X277284Y273820
X270985Y271930
X263898Y280434
X261143Y285158
X272087Y283505
X290276Y287914
X297757Y280434
X316851Y274174
X323741Y268623
X352875Y284371
X368358Y281912
X339489Y295788
X337180Y300031
X330198Y300434
X292245Y306024
X266261Y300906
X254646Y309568
X221379Y295394
X230434Y275316
X236733Y273741
X229253Y267835
X228347Y256143
X237914Y251694
X228859Y241064
X233583Y239095
X217717Y235276
X202481Y256024
X196969Y259568
X208780Y267993
X179646Y247757
X177678Y256024
X158505Y241182
X171300Y221379
X187835Y213820
X117048Y177284
X115080Y167048
X115080Y161930
X119804Y146576
X119804Y142639
X110355Y132009
X105237Y132009
X100119Y132009
X100119Y126497
X105237Y126497
X110355Y126497
X121772Y115080
X126103Y109174
X131615Y106418
X130040Y100906
X122560Y98544
X117835Y99331
X128072Y94607
X135552Y96182
X142639Y94607
X140670Y102087
X144213Y105631
X155631Y100119
X160355Y100119
X160355Y94607
X155631Y94607
X155631Y89489
X160355Y89489
X160355Y83977
X155631Y83977
X171772Y85946
X171379Y102875
X158387Y112402
X159095Y142875
X145001Y157206
X212087Y130828
X207599Y75709
X202087Y75709
X202087Y70198
X201694Y63505
X210749Y63898
X213505Y59174
X210749Y70591
X214686Y72954
X195001Y75709
X195001Y70198
X183583Y64292
X156812Y63898
X133977Y72166
T02
X151160Y259984
X158387Y263111
X165613Y266238
T03
X179275Y281671
X188308Y285580
X197341Y289489
T04
X357717Y126064
X357717Y96536
X301576Y78702
X301576Y49174
T05
X335276Y255198
X345276Y255198
X345276Y265198
X335276Y265198
X335276Y275198
X345276Y275198
X345276Y285198
X335276Y285198
T06
X167749Y276171
X142457Y265226
T07
X81694Y87520
X43347Y115080
X43347Y211143
X81694Y238702
X229253Y302875
X268229Y310749
X403662Y241851
X419410Y210355
X424135Y178465
X423898Y148308
T08
X405631Y129646
X406024Y107993
M30
