G75*
%MOIN*%
%OFA0B0*%
%FSLAX25Y25*%
%IPPOS*%
%LPD*%
%AMOC8*
5,1,8,0,0,1.08239X$1,22.5*
%
%ADD10R,0.02200X0.07800*%
%ADD11R,0.07874X0.11811*%
%ADD12R,0.02756X0.03543*%
%ADD13R,0.03543X0.02756*%
%ADD14R,0.11811X0.07874*%
%ADD15R,0.09449X0.09449*%
%ADD16C,0.01181*%
%ADD17R,0.02756X0.02362*%
%ADD18R,0.12598X0.07087*%
%ADD19R,0.02362X0.02756*%
%ADD20R,0.05118X0.05906*%
%ADD21R,0.05906X0.05118*%
%ADD22R,0.07087X0.12598*%
%ADD23R,0.07087X0.14173*%
%ADD24R,0.05547X0.04457*%
%ADD25R,0.05545X0.04560*%
%ADD26R,0.05546X0.04405*%
%ADD27R,0.05543X0.04303*%
%ADD28R,0.05658X0.04309*%
%ADD29R,0.05646X0.04403*%
%ADD30R,0.05651X0.04490*%
%ADD31R,0.05646X0.04568*%
%ADD32R,0.01517X0.15397*%
%ADD33R,0.01245X0.15414*%
%ADD34C,0.00148*%
%ADD35C,0.00221*%
%ADD36R,0.04457X0.05547*%
%ADD37R,0.04560X0.05545*%
%ADD38R,0.04405X0.05546*%
%ADD39R,0.04303X0.05543*%
%ADD40R,0.04309X0.05658*%
%ADD41R,0.04403X0.05646*%
%ADD42R,0.04490X0.05651*%
%ADD43R,0.04568X0.05646*%
%ADD44R,0.15397X0.01517*%
%ADD45R,0.15414X0.01245*%
%ADD46R,0.11024X0.08268*%
%ADD47R,0.07480X0.02362*%
%ADD48C,0.00394*%
%ADD49R,0.27165X0.07087*%
%ADD50R,0.03937X0.01378*%
%ADD51R,0.03937X0.02362*%
%ADD52R,0.07087X0.04921*%
%ADD53R,0.02362X0.08661*%
%ADD54R,0.10630X0.14173*%
D10*
X0173448Y0181839D03*
X0178448Y0181839D03*
X0183448Y0181839D03*
X0188448Y0181839D03*
X0188448Y0201239D03*
X0183448Y0201239D03*
X0178448Y0201239D03*
X0173448Y0201239D03*
D11*
G36*
X0186949Y0233499D02*
X0192517Y0227931D01*
X0184167Y0219581D01*
X0178599Y0225149D01*
X0186949Y0233499D01*
G37*
G36*
X0167464Y0236284D02*
X0161896Y0241852D01*
X0170246Y0250202D01*
X0175814Y0244634D01*
X0167464Y0236284D01*
G37*
X0195548Y0117428D03*
X0219170Y0117428D03*
D12*
X0167138Y0076459D03*
X0162020Y0076459D03*
X0202442Y0051772D03*
X0207560Y0051772D03*
X0230226Y0044976D03*
X0235344Y0044976D03*
X0090686Y0125270D03*
X0085568Y0125270D03*
X0254135Y0281103D03*
X0259253Y0281103D03*
X0355158Y0279331D03*
X0360276Y0279331D03*
X0360040Y0211418D03*
X0360228Y0206773D03*
X0360128Y0202291D03*
X0360228Y0197816D03*
X0365346Y0197816D03*
X0365246Y0202291D03*
X0365346Y0206773D03*
X0365158Y0211418D03*
D13*
X0368052Y0251249D03*
X0368052Y0256367D03*
X0374909Y0256399D03*
X0374909Y0251281D03*
X0381629Y0251602D03*
X0381629Y0256720D03*
X0366143Y0267757D03*
X0366143Y0272875D03*
X0267520Y0253347D03*
X0267520Y0248229D03*
X0220198Y0216064D03*
X0220198Y0210946D03*
X0084489Y0137639D03*
X0084489Y0132520D03*
X0142954Y0081772D03*
X0142954Y0076654D03*
D14*
X0207873Y0142423D03*
X0207873Y0166045D03*
X0244245Y0280358D03*
X0244245Y0303980D03*
D15*
X0208469Y0229929D03*
X0208469Y0212606D03*
X0156524Y0207701D03*
X0156524Y0225024D03*
D16*
X0211120Y0287661D02*
X0213648Y0288755D01*
X0211120Y0287661D02*
X0210026Y0290189D01*
X0212554Y0291283D01*
X0213648Y0288755D01*
X0213611Y0288841D02*
X0210609Y0288841D01*
X0210099Y0290021D02*
X0213100Y0290021D01*
X0212589Y0291201D02*
X0212365Y0291201D01*
X0210906Y0295093D02*
X0208378Y0293999D01*
X0207284Y0296527D01*
X0209812Y0297621D01*
X0210906Y0295093D01*
X0210869Y0295179D02*
X0207867Y0295179D01*
X0207357Y0296359D02*
X0210358Y0296359D01*
X0209847Y0297539D02*
X0209623Y0297539D01*
X0355800Y0221536D02*
X0355800Y0218780D01*
X0353044Y0218780D01*
X0353044Y0221536D01*
X0355800Y0221536D01*
X0355800Y0219960D02*
X0353044Y0219960D01*
X0353044Y0221140D02*
X0355800Y0221140D01*
X0362706Y0221536D02*
X0362706Y0218780D01*
X0359950Y0218780D01*
X0359950Y0221536D01*
X0362706Y0221536D01*
X0362706Y0219960D02*
X0359950Y0219960D01*
X0359950Y0221140D02*
X0362706Y0221140D01*
D17*
X0353977Y0215158D03*
X0353977Y0211221D03*
X0348623Y0217717D03*
X0348623Y0221654D03*
D18*
X0181761Y0098843D03*
X0181761Y0076796D03*
X0252228Y0064286D03*
X0252228Y0042239D03*
D19*
X0358387Y0215670D03*
X0362324Y0215670D03*
X0289371Y0246733D03*
X0285434Y0246733D03*
X0258938Y0272678D03*
X0255001Y0272678D03*
X0254843Y0276891D03*
X0258780Y0276891D03*
G36*
X0218258Y0293683D02*
X0219196Y0291516D01*
X0216668Y0290421D01*
X0215730Y0292588D01*
X0218258Y0293683D01*
G37*
G36*
X0216694Y0297297D02*
X0217632Y0295130D01*
X0215104Y0294035D01*
X0214166Y0296202D01*
X0216694Y0297297D01*
G37*
D20*
X0127556Y0078841D03*
X0135036Y0078841D03*
X0187917Y0059419D03*
X0195398Y0059419D03*
X0137324Y0149725D03*
X0129843Y0149725D03*
X0129843Y0176103D03*
X0137324Y0176103D03*
D21*
X0077055Y0133341D03*
X0077055Y0125861D03*
D22*
X0092368Y0109509D03*
X0114415Y0109509D03*
D23*
X0184691Y0261736D03*
X0221306Y0261736D03*
D24*
X0161038Y0090046D03*
X0230897Y0059399D03*
D25*
X0230898Y0054151D03*
X0161039Y0084798D03*
D26*
X0161039Y0095269D03*
X0230898Y0064622D03*
D27*
X0230899Y0069870D03*
X0161040Y0100517D03*
D28*
X0154605Y0100514D03*
X0224464Y0069867D03*
D29*
X0224470Y0064623D03*
X0154611Y0095270D03*
D30*
X0154608Y0090030D03*
X0224467Y0059383D03*
D31*
X0224470Y0054147D03*
X0154611Y0084794D03*
D32*
X0149215Y0090876D03*
X0219074Y0060228D03*
D33*
X0236336Y0060220D03*
X0166477Y0090867D03*
D34*
X0168403Y0091118D02*
X0168403Y0090282D01*
X0165795Y0090282D01*
X0165795Y0091118D01*
X0168403Y0091118D01*
X0168403Y0090429D02*
X0165795Y0090429D01*
X0165795Y0090576D02*
X0168403Y0090576D01*
X0168403Y0090723D02*
X0165795Y0090723D01*
X0165795Y0090870D02*
X0168403Y0090870D01*
X0168403Y0091017D02*
X0165795Y0091017D01*
X0168403Y0092251D02*
X0168403Y0093087D01*
X0168403Y0092251D02*
X0165795Y0092251D01*
X0165795Y0093087D01*
X0168403Y0093087D01*
X0168403Y0092398D02*
X0165795Y0092398D01*
X0165795Y0092545D02*
X0168403Y0092545D01*
X0168403Y0092692D02*
X0165795Y0092692D01*
X0165795Y0092839D02*
X0168403Y0092839D01*
X0168403Y0092986D02*
X0165795Y0092986D01*
X0168403Y0094219D02*
X0168403Y0095055D01*
X0168403Y0094219D02*
X0165795Y0094219D01*
X0165795Y0095055D01*
X0168403Y0095055D01*
X0168403Y0094366D02*
X0165795Y0094366D01*
X0165795Y0094513D02*
X0168403Y0094513D01*
X0168403Y0094660D02*
X0165795Y0094660D01*
X0165795Y0094807D02*
X0168403Y0094807D01*
X0168403Y0094954D02*
X0165795Y0094954D01*
X0168403Y0096188D02*
X0168403Y0097024D01*
X0168403Y0096188D02*
X0165795Y0096188D01*
X0165795Y0097024D01*
X0168403Y0097024D01*
X0168403Y0096335D02*
X0165795Y0096335D01*
X0165795Y0096482D02*
X0168403Y0096482D01*
X0168403Y0096629D02*
X0165795Y0096629D01*
X0165795Y0096776D02*
X0168403Y0096776D01*
X0168403Y0096923D02*
X0165795Y0096923D01*
X0168403Y0098156D02*
X0168403Y0098992D01*
X0168403Y0098156D02*
X0165795Y0098156D01*
X0165795Y0098992D01*
X0168403Y0098992D01*
X0168403Y0098303D02*
X0165795Y0098303D01*
X0165795Y0098450D02*
X0168403Y0098450D01*
X0168403Y0098597D02*
X0165795Y0098597D01*
X0165795Y0098744D02*
X0168403Y0098744D01*
X0168403Y0098891D02*
X0165795Y0098891D01*
X0168403Y0100125D02*
X0168403Y0100961D01*
X0168403Y0100125D02*
X0165795Y0100125D01*
X0165795Y0100961D01*
X0168403Y0100961D01*
X0168403Y0100272D02*
X0165795Y0100272D01*
X0165795Y0100419D02*
X0168403Y0100419D01*
X0168403Y0100566D02*
X0165795Y0100566D01*
X0165795Y0100713D02*
X0168403Y0100713D01*
X0168403Y0100860D02*
X0165795Y0100860D01*
X0168403Y0102093D02*
X0168403Y0102929D01*
X0168403Y0102093D02*
X0165795Y0102093D01*
X0165795Y0102929D01*
X0168403Y0102929D01*
X0168403Y0102240D02*
X0165795Y0102240D01*
X0165795Y0102387D02*
X0168403Y0102387D01*
X0168403Y0102534D02*
X0165795Y0102534D01*
X0165795Y0102681D02*
X0168403Y0102681D01*
X0168403Y0102828D02*
X0165795Y0102828D01*
X0168403Y0089149D02*
X0168403Y0088313D01*
X0165795Y0088313D01*
X0165795Y0089149D01*
X0168403Y0089149D01*
X0168403Y0088460D02*
X0165795Y0088460D01*
X0165795Y0088607D02*
X0168403Y0088607D01*
X0168403Y0088754D02*
X0165795Y0088754D01*
X0165795Y0088901D02*
X0168403Y0088901D01*
X0168403Y0089048D02*
X0165795Y0089048D01*
X0168403Y0087181D02*
X0168403Y0086345D01*
X0165795Y0086345D01*
X0165795Y0087181D01*
X0168403Y0087181D01*
X0168403Y0086492D02*
X0165795Y0086492D01*
X0165795Y0086639D02*
X0168403Y0086639D01*
X0168403Y0086786D02*
X0165795Y0086786D01*
X0165795Y0086933D02*
X0168403Y0086933D01*
X0168403Y0087080D02*
X0165795Y0087080D01*
X0168403Y0085212D02*
X0168403Y0084376D01*
X0165795Y0084376D01*
X0165795Y0085212D01*
X0168403Y0085212D01*
X0168403Y0084523D02*
X0165795Y0084523D01*
X0165795Y0084670D02*
X0168403Y0084670D01*
X0168403Y0084817D02*
X0165795Y0084817D01*
X0165795Y0084964D02*
X0168403Y0084964D01*
X0168403Y0085111D02*
X0165795Y0085111D01*
X0168403Y0083244D02*
X0168403Y0082408D01*
X0165795Y0082408D01*
X0165795Y0083244D01*
X0168403Y0083244D01*
X0168403Y0082555D02*
X0165795Y0082555D01*
X0165795Y0082702D02*
X0168403Y0082702D01*
X0168403Y0082849D02*
X0165795Y0082849D01*
X0165795Y0082996D02*
X0168403Y0082996D01*
X0168403Y0083143D02*
X0165795Y0083143D01*
X0149899Y0083244D02*
X0149899Y0082408D01*
X0147291Y0082408D01*
X0147291Y0083244D01*
X0149899Y0083244D01*
X0149899Y0082555D02*
X0147291Y0082555D01*
X0147291Y0082702D02*
X0149899Y0082702D01*
X0149899Y0082849D02*
X0147291Y0082849D01*
X0147291Y0082996D02*
X0149899Y0082996D01*
X0149899Y0083143D02*
X0147291Y0083143D01*
X0149899Y0084376D02*
X0149899Y0085212D01*
X0149899Y0084376D02*
X0147291Y0084376D01*
X0147291Y0085212D01*
X0149899Y0085212D01*
X0149899Y0084523D02*
X0147291Y0084523D01*
X0147291Y0084670D02*
X0149899Y0084670D01*
X0149899Y0084817D02*
X0147291Y0084817D01*
X0147291Y0084964D02*
X0149899Y0084964D01*
X0149899Y0085111D02*
X0147291Y0085111D01*
X0149899Y0086345D02*
X0149899Y0087181D01*
X0149899Y0086345D02*
X0147291Y0086345D01*
X0147291Y0087181D01*
X0149899Y0087181D01*
X0149899Y0086492D02*
X0147291Y0086492D01*
X0147291Y0086639D02*
X0149899Y0086639D01*
X0149899Y0086786D02*
X0147291Y0086786D01*
X0147291Y0086933D02*
X0149899Y0086933D01*
X0149899Y0087080D02*
X0147291Y0087080D01*
X0149899Y0088313D02*
X0149899Y0089149D01*
X0149899Y0088313D02*
X0147291Y0088313D01*
X0147291Y0089149D01*
X0149899Y0089149D01*
X0149899Y0088460D02*
X0147291Y0088460D01*
X0147291Y0088607D02*
X0149899Y0088607D01*
X0149899Y0088754D02*
X0147291Y0088754D01*
X0147291Y0088901D02*
X0149899Y0088901D01*
X0149899Y0089048D02*
X0147291Y0089048D01*
X0149899Y0090282D02*
X0149899Y0091118D01*
X0149899Y0090282D02*
X0147291Y0090282D01*
X0147291Y0091118D01*
X0149899Y0091118D01*
X0149899Y0090429D02*
X0147291Y0090429D01*
X0147291Y0090576D02*
X0149899Y0090576D01*
X0149899Y0090723D02*
X0147291Y0090723D01*
X0147291Y0090870D02*
X0149899Y0090870D01*
X0149899Y0091017D02*
X0147291Y0091017D01*
X0149899Y0092251D02*
X0149899Y0093087D01*
X0149899Y0092251D02*
X0147291Y0092251D01*
X0147291Y0093087D01*
X0149899Y0093087D01*
X0149899Y0092398D02*
X0147291Y0092398D01*
X0147291Y0092545D02*
X0149899Y0092545D01*
X0149899Y0092692D02*
X0147291Y0092692D01*
X0147291Y0092839D02*
X0149899Y0092839D01*
X0149899Y0092986D02*
X0147291Y0092986D01*
X0149899Y0094219D02*
X0149899Y0095055D01*
X0149899Y0094219D02*
X0147291Y0094219D01*
X0147291Y0095055D01*
X0149899Y0095055D01*
X0149899Y0094366D02*
X0147291Y0094366D01*
X0147291Y0094513D02*
X0149899Y0094513D01*
X0149899Y0094660D02*
X0147291Y0094660D01*
X0147291Y0094807D02*
X0149899Y0094807D01*
X0149899Y0094954D02*
X0147291Y0094954D01*
X0149899Y0096188D02*
X0149899Y0097024D01*
X0149899Y0096188D02*
X0147291Y0096188D01*
X0147291Y0097024D01*
X0149899Y0097024D01*
X0149899Y0096335D02*
X0147291Y0096335D01*
X0147291Y0096482D02*
X0149899Y0096482D01*
X0149899Y0096629D02*
X0147291Y0096629D01*
X0147291Y0096776D02*
X0149899Y0096776D01*
X0149899Y0096923D02*
X0147291Y0096923D01*
X0149899Y0098156D02*
X0149899Y0098992D01*
X0149899Y0098156D02*
X0147291Y0098156D01*
X0147291Y0098992D01*
X0149899Y0098992D01*
X0149899Y0098303D02*
X0147291Y0098303D01*
X0147291Y0098450D02*
X0149899Y0098450D01*
X0149899Y0098597D02*
X0147291Y0098597D01*
X0147291Y0098744D02*
X0149899Y0098744D01*
X0149899Y0098891D02*
X0147291Y0098891D01*
X0149899Y0100125D02*
X0149899Y0100961D01*
X0149899Y0100125D02*
X0147291Y0100125D01*
X0147291Y0100961D01*
X0149899Y0100961D01*
X0149899Y0100272D02*
X0147291Y0100272D01*
X0147291Y0100419D02*
X0149899Y0100419D01*
X0149899Y0100566D02*
X0147291Y0100566D01*
X0147291Y0100713D02*
X0149899Y0100713D01*
X0149899Y0100860D02*
X0147291Y0100860D01*
X0149899Y0102093D02*
X0149899Y0102929D01*
X0149899Y0102093D02*
X0147291Y0102093D01*
X0147291Y0102929D01*
X0149899Y0102929D01*
X0149899Y0102240D02*
X0147291Y0102240D01*
X0147291Y0102387D02*
X0149899Y0102387D01*
X0149899Y0102534D02*
X0147291Y0102534D01*
X0147291Y0102681D02*
X0149899Y0102681D01*
X0149899Y0102828D02*
X0147291Y0102828D01*
X0118983Y0118936D02*
X0118147Y0118936D01*
X0118147Y0121544D01*
X0118983Y0121544D01*
X0118983Y0118936D01*
X0118983Y0119083D02*
X0118147Y0119083D01*
X0118147Y0119230D02*
X0118983Y0119230D01*
X0118983Y0119377D02*
X0118147Y0119377D01*
X0118147Y0119524D02*
X0118983Y0119524D01*
X0118983Y0119671D02*
X0118147Y0119671D01*
X0118147Y0119818D02*
X0118983Y0119818D01*
X0118983Y0119965D02*
X0118147Y0119965D01*
X0118147Y0120112D02*
X0118983Y0120112D01*
X0118983Y0120259D02*
X0118147Y0120259D01*
X0118147Y0120406D02*
X0118983Y0120406D01*
X0118983Y0120553D02*
X0118147Y0120553D01*
X0118147Y0120700D02*
X0118983Y0120700D01*
X0118983Y0120847D02*
X0118147Y0120847D01*
X0118147Y0120994D02*
X0118983Y0120994D01*
X0118983Y0121141D02*
X0118147Y0121141D01*
X0118147Y0121288D02*
X0118983Y0121288D01*
X0118983Y0121435D02*
X0118147Y0121435D01*
X0117014Y0118936D02*
X0116178Y0118936D01*
X0116178Y0121544D01*
X0117014Y0121544D01*
X0117014Y0118936D01*
X0117014Y0119083D02*
X0116178Y0119083D01*
X0116178Y0119230D02*
X0117014Y0119230D01*
X0117014Y0119377D02*
X0116178Y0119377D01*
X0116178Y0119524D02*
X0117014Y0119524D01*
X0117014Y0119671D02*
X0116178Y0119671D01*
X0116178Y0119818D02*
X0117014Y0119818D01*
X0117014Y0119965D02*
X0116178Y0119965D01*
X0116178Y0120112D02*
X0117014Y0120112D01*
X0117014Y0120259D02*
X0116178Y0120259D01*
X0116178Y0120406D02*
X0117014Y0120406D01*
X0117014Y0120553D02*
X0116178Y0120553D01*
X0116178Y0120700D02*
X0117014Y0120700D01*
X0117014Y0120847D02*
X0116178Y0120847D01*
X0116178Y0120994D02*
X0117014Y0120994D01*
X0117014Y0121141D02*
X0116178Y0121141D01*
X0116178Y0121288D02*
X0117014Y0121288D01*
X0117014Y0121435D02*
X0116178Y0121435D01*
X0115046Y0118936D02*
X0114210Y0118936D01*
X0114210Y0121544D01*
X0115046Y0121544D01*
X0115046Y0118936D01*
X0115046Y0119083D02*
X0114210Y0119083D01*
X0114210Y0119230D02*
X0115046Y0119230D01*
X0115046Y0119377D02*
X0114210Y0119377D01*
X0114210Y0119524D02*
X0115046Y0119524D01*
X0115046Y0119671D02*
X0114210Y0119671D01*
X0114210Y0119818D02*
X0115046Y0119818D01*
X0115046Y0119965D02*
X0114210Y0119965D01*
X0114210Y0120112D02*
X0115046Y0120112D01*
X0115046Y0120259D02*
X0114210Y0120259D01*
X0114210Y0120406D02*
X0115046Y0120406D01*
X0115046Y0120553D02*
X0114210Y0120553D01*
X0114210Y0120700D02*
X0115046Y0120700D01*
X0115046Y0120847D02*
X0114210Y0120847D01*
X0114210Y0120994D02*
X0115046Y0120994D01*
X0115046Y0121141D02*
X0114210Y0121141D01*
X0114210Y0121288D02*
X0115046Y0121288D01*
X0115046Y0121435D02*
X0114210Y0121435D01*
X0113077Y0118936D02*
X0112241Y0118936D01*
X0112241Y0121544D01*
X0113077Y0121544D01*
X0113077Y0118936D01*
X0113077Y0119083D02*
X0112241Y0119083D01*
X0112241Y0119230D02*
X0113077Y0119230D01*
X0113077Y0119377D02*
X0112241Y0119377D01*
X0112241Y0119524D02*
X0113077Y0119524D01*
X0113077Y0119671D02*
X0112241Y0119671D01*
X0112241Y0119818D02*
X0113077Y0119818D01*
X0113077Y0119965D02*
X0112241Y0119965D01*
X0112241Y0120112D02*
X0113077Y0120112D01*
X0113077Y0120259D02*
X0112241Y0120259D01*
X0112241Y0120406D02*
X0113077Y0120406D01*
X0113077Y0120553D02*
X0112241Y0120553D01*
X0112241Y0120700D02*
X0113077Y0120700D01*
X0113077Y0120847D02*
X0112241Y0120847D01*
X0112241Y0120994D02*
X0113077Y0120994D01*
X0113077Y0121141D02*
X0112241Y0121141D01*
X0112241Y0121288D02*
X0113077Y0121288D01*
X0113077Y0121435D02*
X0112241Y0121435D01*
X0111109Y0118936D02*
X0110273Y0118936D01*
X0110273Y0121544D01*
X0111109Y0121544D01*
X0111109Y0118936D01*
X0111109Y0119083D02*
X0110273Y0119083D01*
X0110273Y0119230D02*
X0111109Y0119230D01*
X0111109Y0119377D02*
X0110273Y0119377D01*
X0110273Y0119524D02*
X0111109Y0119524D01*
X0111109Y0119671D02*
X0110273Y0119671D01*
X0110273Y0119818D02*
X0111109Y0119818D01*
X0111109Y0119965D02*
X0110273Y0119965D01*
X0110273Y0120112D02*
X0111109Y0120112D01*
X0111109Y0120259D02*
X0110273Y0120259D01*
X0110273Y0120406D02*
X0111109Y0120406D01*
X0111109Y0120553D02*
X0110273Y0120553D01*
X0110273Y0120700D02*
X0111109Y0120700D01*
X0111109Y0120847D02*
X0110273Y0120847D01*
X0110273Y0120994D02*
X0111109Y0120994D01*
X0111109Y0121141D02*
X0110273Y0121141D01*
X0110273Y0121288D02*
X0111109Y0121288D01*
X0111109Y0121435D02*
X0110273Y0121435D01*
X0109140Y0118936D02*
X0108304Y0118936D01*
X0108304Y0121544D01*
X0109140Y0121544D01*
X0109140Y0118936D01*
X0109140Y0119083D02*
X0108304Y0119083D01*
X0108304Y0119230D02*
X0109140Y0119230D01*
X0109140Y0119377D02*
X0108304Y0119377D01*
X0108304Y0119524D02*
X0109140Y0119524D01*
X0109140Y0119671D02*
X0108304Y0119671D01*
X0108304Y0119818D02*
X0109140Y0119818D01*
X0109140Y0119965D02*
X0108304Y0119965D01*
X0108304Y0120112D02*
X0109140Y0120112D01*
X0109140Y0120259D02*
X0108304Y0120259D01*
X0108304Y0120406D02*
X0109140Y0120406D01*
X0109140Y0120553D02*
X0108304Y0120553D01*
X0108304Y0120700D02*
X0109140Y0120700D01*
X0109140Y0120847D02*
X0108304Y0120847D01*
X0108304Y0120994D02*
X0109140Y0120994D01*
X0109140Y0121141D02*
X0108304Y0121141D01*
X0108304Y0121288D02*
X0109140Y0121288D01*
X0109140Y0121435D02*
X0108304Y0121435D01*
X0107172Y0118936D02*
X0106336Y0118936D01*
X0106336Y0121544D01*
X0107172Y0121544D01*
X0107172Y0118936D01*
X0107172Y0119083D02*
X0106336Y0119083D01*
X0106336Y0119230D02*
X0107172Y0119230D01*
X0107172Y0119377D02*
X0106336Y0119377D01*
X0106336Y0119524D02*
X0107172Y0119524D01*
X0107172Y0119671D02*
X0106336Y0119671D01*
X0106336Y0119818D02*
X0107172Y0119818D01*
X0107172Y0119965D02*
X0106336Y0119965D01*
X0106336Y0120112D02*
X0107172Y0120112D01*
X0107172Y0120259D02*
X0106336Y0120259D01*
X0106336Y0120406D02*
X0107172Y0120406D01*
X0107172Y0120553D02*
X0106336Y0120553D01*
X0106336Y0120700D02*
X0107172Y0120700D01*
X0107172Y0120847D02*
X0106336Y0120847D01*
X0106336Y0120994D02*
X0107172Y0120994D01*
X0107172Y0121141D02*
X0106336Y0121141D01*
X0106336Y0121288D02*
X0107172Y0121288D01*
X0107172Y0121435D02*
X0106336Y0121435D01*
X0105203Y0118936D02*
X0104367Y0118936D01*
X0104367Y0121544D01*
X0105203Y0121544D01*
X0105203Y0118936D01*
X0105203Y0119083D02*
X0104367Y0119083D01*
X0104367Y0119230D02*
X0105203Y0119230D01*
X0105203Y0119377D02*
X0104367Y0119377D01*
X0104367Y0119524D02*
X0105203Y0119524D01*
X0105203Y0119671D02*
X0104367Y0119671D01*
X0104367Y0119818D02*
X0105203Y0119818D01*
X0105203Y0119965D02*
X0104367Y0119965D01*
X0104367Y0120112D02*
X0105203Y0120112D01*
X0105203Y0120259D02*
X0104367Y0120259D01*
X0104367Y0120406D02*
X0105203Y0120406D01*
X0105203Y0120553D02*
X0104367Y0120553D01*
X0104367Y0120700D02*
X0105203Y0120700D01*
X0105203Y0120847D02*
X0104367Y0120847D01*
X0104367Y0120994D02*
X0105203Y0120994D01*
X0105203Y0121141D02*
X0104367Y0121141D01*
X0104367Y0121288D02*
X0105203Y0121288D01*
X0105203Y0121435D02*
X0104367Y0121435D01*
X0103235Y0118936D02*
X0102399Y0118936D01*
X0102399Y0121544D01*
X0103235Y0121544D01*
X0103235Y0118936D01*
X0103235Y0119083D02*
X0102399Y0119083D01*
X0102399Y0119230D02*
X0103235Y0119230D01*
X0103235Y0119377D02*
X0102399Y0119377D01*
X0102399Y0119524D02*
X0103235Y0119524D01*
X0103235Y0119671D02*
X0102399Y0119671D01*
X0102399Y0119818D02*
X0103235Y0119818D01*
X0103235Y0119965D02*
X0102399Y0119965D01*
X0102399Y0120112D02*
X0103235Y0120112D01*
X0103235Y0120259D02*
X0102399Y0120259D01*
X0102399Y0120406D02*
X0103235Y0120406D01*
X0103235Y0120553D02*
X0102399Y0120553D01*
X0102399Y0120700D02*
X0103235Y0120700D01*
X0103235Y0120847D02*
X0102399Y0120847D01*
X0102399Y0120994D02*
X0103235Y0120994D01*
X0103235Y0121141D02*
X0102399Y0121141D01*
X0102399Y0121288D02*
X0103235Y0121288D01*
X0103235Y0121435D02*
X0102399Y0121435D01*
X0101266Y0118936D02*
X0100430Y0118936D01*
X0100430Y0121544D01*
X0101266Y0121544D01*
X0101266Y0118936D01*
X0101266Y0119083D02*
X0100430Y0119083D01*
X0100430Y0119230D02*
X0101266Y0119230D01*
X0101266Y0119377D02*
X0100430Y0119377D01*
X0100430Y0119524D02*
X0101266Y0119524D01*
X0101266Y0119671D02*
X0100430Y0119671D01*
X0100430Y0119818D02*
X0101266Y0119818D01*
X0101266Y0119965D02*
X0100430Y0119965D01*
X0100430Y0120112D02*
X0101266Y0120112D01*
X0101266Y0120259D02*
X0100430Y0120259D01*
X0100430Y0120406D02*
X0101266Y0120406D01*
X0101266Y0120553D02*
X0100430Y0120553D01*
X0100430Y0120700D02*
X0101266Y0120700D01*
X0101266Y0120847D02*
X0100430Y0120847D01*
X0100430Y0120994D02*
X0101266Y0120994D01*
X0101266Y0121141D02*
X0100430Y0121141D01*
X0100430Y0121288D02*
X0101266Y0121288D01*
X0101266Y0121435D02*
X0100430Y0121435D01*
X0099298Y0118936D02*
X0098462Y0118936D01*
X0098462Y0121544D01*
X0099298Y0121544D01*
X0099298Y0118936D01*
X0099298Y0119083D02*
X0098462Y0119083D01*
X0098462Y0119230D02*
X0099298Y0119230D01*
X0099298Y0119377D02*
X0098462Y0119377D01*
X0098462Y0119524D02*
X0099298Y0119524D01*
X0099298Y0119671D02*
X0098462Y0119671D01*
X0098462Y0119818D02*
X0099298Y0119818D01*
X0099298Y0119965D02*
X0098462Y0119965D01*
X0098462Y0120112D02*
X0099298Y0120112D01*
X0099298Y0120259D02*
X0098462Y0120259D01*
X0098462Y0120406D02*
X0099298Y0120406D01*
X0099298Y0120553D02*
X0098462Y0120553D01*
X0098462Y0120700D02*
X0099298Y0120700D01*
X0099298Y0120847D02*
X0098462Y0120847D01*
X0098462Y0120994D02*
X0099298Y0120994D01*
X0099298Y0121141D02*
X0098462Y0121141D01*
X0098462Y0121288D02*
X0099298Y0121288D01*
X0099298Y0121435D02*
X0098462Y0121435D01*
X0098462Y0137440D02*
X0099298Y0137440D01*
X0098462Y0137440D02*
X0098462Y0140048D01*
X0099298Y0140048D01*
X0099298Y0137440D01*
X0099298Y0137587D02*
X0098462Y0137587D01*
X0098462Y0137734D02*
X0099298Y0137734D01*
X0099298Y0137881D02*
X0098462Y0137881D01*
X0098462Y0138028D02*
X0099298Y0138028D01*
X0099298Y0138175D02*
X0098462Y0138175D01*
X0098462Y0138322D02*
X0099298Y0138322D01*
X0099298Y0138469D02*
X0098462Y0138469D01*
X0098462Y0138616D02*
X0099298Y0138616D01*
X0099298Y0138763D02*
X0098462Y0138763D01*
X0098462Y0138910D02*
X0099298Y0138910D01*
X0099298Y0139057D02*
X0098462Y0139057D01*
X0098462Y0139204D02*
X0099298Y0139204D01*
X0099298Y0139351D02*
X0098462Y0139351D01*
X0098462Y0139498D02*
X0099298Y0139498D01*
X0099298Y0139645D02*
X0098462Y0139645D01*
X0098462Y0139792D02*
X0099298Y0139792D01*
X0099298Y0139939D02*
X0098462Y0139939D01*
X0100430Y0137440D02*
X0101266Y0137440D01*
X0100430Y0137440D02*
X0100430Y0140048D01*
X0101266Y0140048D01*
X0101266Y0137440D01*
X0101266Y0137587D02*
X0100430Y0137587D01*
X0100430Y0137734D02*
X0101266Y0137734D01*
X0101266Y0137881D02*
X0100430Y0137881D01*
X0100430Y0138028D02*
X0101266Y0138028D01*
X0101266Y0138175D02*
X0100430Y0138175D01*
X0100430Y0138322D02*
X0101266Y0138322D01*
X0101266Y0138469D02*
X0100430Y0138469D01*
X0100430Y0138616D02*
X0101266Y0138616D01*
X0101266Y0138763D02*
X0100430Y0138763D01*
X0100430Y0138910D02*
X0101266Y0138910D01*
X0101266Y0139057D02*
X0100430Y0139057D01*
X0100430Y0139204D02*
X0101266Y0139204D01*
X0101266Y0139351D02*
X0100430Y0139351D01*
X0100430Y0139498D02*
X0101266Y0139498D01*
X0101266Y0139645D02*
X0100430Y0139645D01*
X0100430Y0139792D02*
X0101266Y0139792D01*
X0101266Y0139939D02*
X0100430Y0139939D01*
X0102399Y0137440D02*
X0103235Y0137440D01*
X0102399Y0137440D02*
X0102399Y0140048D01*
X0103235Y0140048D01*
X0103235Y0137440D01*
X0103235Y0137587D02*
X0102399Y0137587D01*
X0102399Y0137734D02*
X0103235Y0137734D01*
X0103235Y0137881D02*
X0102399Y0137881D01*
X0102399Y0138028D02*
X0103235Y0138028D01*
X0103235Y0138175D02*
X0102399Y0138175D01*
X0102399Y0138322D02*
X0103235Y0138322D01*
X0103235Y0138469D02*
X0102399Y0138469D01*
X0102399Y0138616D02*
X0103235Y0138616D01*
X0103235Y0138763D02*
X0102399Y0138763D01*
X0102399Y0138910D02*
X0103235Y0138910D01*
X0103235Y0139057D02*
X0102399Y0139057D01*
X0102399Y0139204D02*
X0103235Y0139204D01*
X0103235Y0139351D02*
X0102399Y0139351D01*
X0102399Y0139498D02*
X0103235Y0139498D01*
X0103235Y0139645D02*
X0102399Y0139645D01*
X0102399Y0139792D02*
X0103235Y0139792D01*
X0103235Y0139939D02*
X0102399Y0139939D01*
X0104367Y0137440D02*
X0105203Y0137440D01*
X0104367Y0137440D02*
X0104367Y0140048D01*
X0105203Y0140048D01*
X0105203Y0137440D01*
X0105203Y0137587D02*
X0104367Y0137587D01*
X0104367Y0137734D02*
X0105203Y0137734D01*
X0105203Y0137881D02*
X0104367Y0137881D01*
X0104367Y0138028D02*
X0105203Y0138028D01*
X0105203Y0138175D02*
X0104367Y0138175D01*
X0104367Y0138322D02*
X0105203Y0138322D01*
X0105203Y0138469D02*
X0104367Y0138469D01*
X0104367Y0138616D02*
X0105203Y0138616D01*
X0105203Y0138763D02*
X0104367Y0138763D01*
X0104367Y0138910D02*
X0105203Y0138910D01*
X0105203Y0139057D02*
X0104367Y0139057D01*
X0104367Y0139204D02*
X0105203Y0139204D01*
X0105203Y0139351D02*
X0104367Y0139351D01*
X0104367Y0139498D02*
X0105203Y0139498D01*
X0105203Y0139645D02*
X0104367Y0139645D01*
X0104367Y0139792D02*
X0105203Y0139792D01*
X0105203Y0139939D02*
X0104367Y0139939D01*
X0106336Y0137440D02*
X0107172Y0137440D01*
X0106336Y0137440D02*
X0106336Y0140048D01*
X0107172Y0140048D01*
X0107172Y0137440D01*
X0107172Y0137587D02*
X0106336Y0137587D01*
X0106336Y0137734D02*
X0107172Y0137734D01*
X0107172Y0137881D02*
X0106336Y0137881D01*
X0106336Y0138028D02*
X0107172Y0138028D01*
X0107172Y0138175D02*
X0106336Y0138175D01*
X0106336Y0138322D02*
X0107172Y0138322D01*
X0107172Y0138469D02*
X0106336Y0138469D01*
X0106336Y0138616D02*
X0107172Y0138616D01*
X0107172Y0138763D02*
X0106336Y0138763D01*
X0106336Y0138910D02*
X0107172Y0138910D01*
X0107172Y0139057D02*
X0106336Y0139057D01*
X0106336Y0139204D02*
X0107172Y0139204D01*
X0107172Y0139351D02*
X0106336Y0139351D01*
X0106336Y0139498D02*
X0107172Y0139498D01*
X0107172Y0139645D02*
X0106336Y0139645D01*
X0106336Y0139792D02*
X0107172Y0139792D01*
X0107172Y0139939D02*
X0106336Y0139939D01*
X0108304Y0137440D02*
X0109140Y0137440D01*
X0108304Y0137440D02*
X0108304Y0140048D01*
X0109140Y0140048D01*
X0109140Y0137440D01*
X0109140Y0137587D02*
X0108304Y0137587D01*
X0108304Y0137734D02*
X0109140Y0137734D01*
X0109140Y0137881D02*
X0108304Y0137881D01*
X0108304Y0138028D02*
X0109140Y0138028D01*
X0109140Y0138175D02*
X0108304Y0138175D01*
X0108304Y0138322D02*
X0109140Y0138322D01*
X0109140Y0138469D02*
X0108304Y0138469D01*
X0108304Y0138616D02*
X0109140Y0138616D01*
X0109140Y0138763D02*
X0108304Y0138763D01*
X0108304Y0138910D02*
X0109140Y0138910D01*
X0109140Y0139057D02*
X0108304Y0139057D01*
X0108304Y0139204D02*
X0109140Y0139204D01*
X0109140Y0139351D02*
X0108304Y0139351D01*
X0108304Y0139498D02*
X0109140Y0139498D01*
X0109140Y0139645D02*
X0108304Y0139645D01*
X0108304Y0139792D02*
X0109140Y0139792D01*
X0109140Y0139939D02*
X0108304Y0139939D01*
X0110273Y0137440D02*
X0111109Y0137440D01*
X0110273Y0137440D02*
X0110273Y0140048D01*
X0111109Y0140048D01*
X0111109Y0137440D01*
X0111109Y0137587D02*
X0110273Y0137587D01*
X0110273Y0137734D02*
X0111109Y0137734D01*
X0111109Y0137881D02*
X0110273Y0137881D01*
X0110273Y0138028D02*
X0111109Y0138028D01*
X0111109Y0138175D02*
X0110273Y0138175D01*
X0110273Y0138322D02*
X0111109Y0138322D01*
X0111109Y0138469D02*
X0110273Y0138469D01*
X0110273Y0138616D02*
X0111109Y0138616D01*
X0111109Y0138763D02*
X0110273Y0138763D01*
X0110273Y0138910D02*
X0111109Y0138910D01*
X0111109Y0139057D02*
X0110273Y0139057D01*
X0110273Y0139204D02*
X0111109Y0139204D01*
X0111109Y0139351D02*
X0110273Y0139351D01*
X0110273Y0139498D02*
X0111109Y0139498D01*
X0111109Y0139645D02*
X0110273Y0139645D01*
X0110273Y0139792D02*
X0111109Y0139792D01*
X0111109Y0139939D02*
X0110273Y0139939D01*
X0112241Y0137440D02*
X0113077Y0137440D01*
X0112241Y0137440D02*
X0112241Y0140048D01*
X0113077Y0140048D01*
X0113077Y0137440D01*
X0113077Y0137587D02*
X0112241Y0137587D01*
X0112241Y0137734D02*
X0113077Y0137734D01*
X0113077Y0137881D02*
X0112241Y0137881D01*
X0112241Y0138028D02*
X0113077Y0138028D01*
X0113077Y0138175D02*
X0112241Y0138175D01*
X0112241Y0138322D02*
X0113077Y0138322D01*
X0113077Y0138469D02*
X0112241Y0138469D01*
X0112241Y0138616D02*
X0113077Y0138616D01*
X0113077Y0138763D02*
X0112241Y0138763D01*
X0112241Y0138910D02*
X0113077Y0138910D01*
X0113077Y0139057D02*
X0112241Y0139057D01*
X0112241Y0139204D02*
X0113077Y0139204D01*
X0113077Y0139351D02*
X0112241Y0139351D01*
X0112241Y0139498D02*
X0113077Y0139498D01*
X0113077Y0139645D02*
X0112241Y0139645D01*
X0112241Y0139792D02*
X0113077Y0139792D01*
X0113077Y0139939D02*
X0112241Y0139939D01*
X0114210Y0137440D02*
X0115046Y0137440D01*
X0114210Y0137440D02*
X0114210Y0140048D01*
X0115046Y0140048D01*
X0115046Y0137440D01*
X0115046Y0137587D02*
X0114210Y0137587D01*
X0114210Y0137734D02*
X0115046Y0137734D01*
X0115046Y0137881D02*
X0114210Y0137881D01*
X0114210Y0138028D02*
X0115046Y0138028D01*
X0115046Y0138175D02*
X0114210Y0138175D01*
X0114210Y0138322D02*
X0115046Y0138322D01*
X0115046Y0138469D02*
X0114210Y0138469D01*
X0114210Y0138616D02*
X0115046Y0138616D01*
X0115046Y0138763D02*
X0114210Y0138763D01*
X0114210Y0138910D02*
X0115046Y0138910D01*
X0115046Y0139057D02*
X0114210Y0139057D01*
X0114210Y0139204D02*
X0115046Y0139204D01*
X0115046Y0139351D02*
X0114210Y0139351D01*
X0114210Y0139498D02*
X0115046Y0139498D01*
X0115046Y0139645D02*
X0114210Y0139645D01*
X0114210Y0139792D02*
X0115046Y0139792D01*
X0115046Y0139939D02*
X0114210Y0139939D01*
X0116178Y0137440D02*
X0117014Y0137440D01*
X0116178Y0137440D02*
X0116178Y0140048D01*
X0117014Y0140048D01*
X0117014Y0137440D01*
X0117014Y0137587D02*
X0116178Y0137587D01*
X0116178Y0137734D02*
X0117014Y0137734D01*
X0117014Y0137881D02*
X0116178Y0137881D01*
X0116178Y0138028D02*
X0117014Y0138028D01*
X0117014Y0138175D02*
X0116178Y0138175D01*
X0116178Y0138322D02*
X0117014Y0138322D01*
X0117014Y0138469D02*
X0116178Y0138469D01*
X0116178Y0138616D02*
X0117014Y0138616D01*
X0117014Y0138763D02*
X0116178Y0138763D01*
X0116178Y0138910D02*
X0117014Y0138910D01*
X0117014Y0139057D02*
X0116178Y0139057D01*
X0116178Y0139204D02*
X0117014Y0139204D01*
X0117014Y0139351D02*
X0116178Y0139351D01*
X0116178Y0139498D02*
X0117014Y0139498D01*
X0117014Y0139645D02*
X0116178Y0139645D01*
X0116178Y0139792D02*
X0117014Y0139792D01*
X0117014Y0139939D02*
X0116178Y0139939D01*
X0118147Y0137440D02*
X0118983Y0137440D01*
X0118147Y0137440D02*
X0118147Y0140048D01*
X0118983Y0140048D01*
X0118983Y0137440D01*
X0118983Y0137587D02*
X0118147Y0137587D01*
X0118147Y0137734D02*
X0118983Y0137734D01*
X0118983Y0137881D02*
X0118147Y0137881D01*
X0118147Y0138028D02*
X0118983Y0138028D01*
X0118983Y0138175D02*
X0118147Y0138175D01*
X0118147Y0138322D02*
X0118983Y0138322D01*
X0118983Y0138469D02*
X0118147Y0138469D01*
X0118147Y0138616D02*
X0118983Y0138616D01*
X0118983Y0138763D02*
X0118147Y0138763D01*
X0118147Y0138910D02*
X0118983Y0138910D01*
X0118983Y0139057D02*
X0118147Y0139057D01*
X0118147Y0139204D02*
X0118983Y0139204D01*
X0118983Y0139351D02*
X0118147Y0139351D01*
X0118147Y0139498D02*
X0118983Y0139498D01*
X0118983Y0139645D02*
X0118147Y0139645D01*
X0118147Y0139792D02*
X0118983Y0139792D01*
X0118983Y0139939D02*
X0118147Y0139939D01*
X0219758Y0072282D02*
X0219758Y0071446D01*
X0217150Y0071446D01*
X0217150Y0072282D01*
X0219758Y0072282D01*
X0219758Y0071593D02*
X0217150Y0071593D01*
X0217150Y0071740D02*
X0219758Y0071740D01*
X0219758Y0071887D02*
X0217150Y0071887D01*
X0217150Y0072034D02*
X0219758Y0072034D01*
X0219758Y0072181D02*
X0217150Y0072181D01*
X0219758Y0070313D02*
X0219758Y0069477D01*
X0217150Y0069477D01*
X0217150Y0070313D01*
X0219758Y0070313D01*
X0219758Y0069624D02*
X0217150Y0069624D01*
X0217150Y0069771D02*
X0219758Y0069771D01*
X0219758Y0069918D02*
X0217150Y0069918D01*
X0217150Y0070065D02*
X0219758Y0070065D01*
X0219758Y0070212D02*
X0217150Y0070212D01*
X0219758Y0068345D02*
X0219758Y0067509D01*
X0217150Y0067509D01*
X0217150Y0068345D01*
X0219758Y0068345D01*
X0219758Y0067656D02*
X0217150Y0067656D01*
X0217150Y0067803D02*
X0219758Y0067803D01*
X0219758Y0067950D02*
X0217150Y0067950D01*
X0217150Y0068097D02*
X0219758Y0068097D01*
X0219758Y0068244D02*
X0217150Y0068244D01*
X0219758Y0066376D02*
X0219758Y0065540D01*
X0217150Y0065540D01*
X0217150Y0066376D01*
X0219758Y0066376D01*
X0219758Y0065687D02*
X0217150Y0065687D01*
X0217150Y0065834D02*
X0219758Y0065834D01*
X0219758Y0065981D02*
X0217150Y0065981D01*
X0217150Y0066128D02*
X0219758Y0066128D01*
X0219758Y0066275D02*
X0217150Y0066275D01*
X0219758Y0064408D02*
X0219758Y0063572D01*
X0217150Y0063572D01*
X0217150Y0064408D01*
X0219758Y0064408D01*
X0219758Y0063719D02*
X0217150Y0063719D01*
X0217150Y0063866D02*
X0219758Y0063866D01*
X0219758Y0064013D02*
X0217150Y0064013D01*
X0217150Y0064160D02*
X0219758Y0064160D01*
X0219758Y0064307D02*
X0217150Y0064307D01*
X0219758Y0062439D02*
X0219758Y0061603D01*
X0217150Y0061603D01*
X0217150Y0062439D01*
X0219758Y0062439D01*
X0219758Y0061750D02*
X0217150Y0061750D01*
X0217150Y0061897D02*
X0219758Y0061897D01*
X0219758Y0062044D02*
X0217150Y0062044D01*
X0217150Y0062191D02*
X0219758Y0062191D01*
X0219758Y0062338D02*
X0217150Y0062338D01*
X0219758Y0060471D02*
X0219758Y0059635D01*
X0217150Y0059635D01*
X0217150Y0060471D01*
X0219758Y0060471D01*
X0219758Y0059782D02*
X0217150Y0059782D01*
X0217150Y0059929D02*
X0219758Y0059929D01*
X0219758Y0060076D02*
X0217150Y0060076D01*
X0217150Y0060223D02*
X0219758Y0060223D01*
X0219758Y0060370D02*
X0217150Y0060370D01*
X0219758Y0058502D02*
X0219758Y0057666D01*
X0217150Y0057666D01*
X0217150Y0058502D01*
X0219758Y0058502D01*
X0219758Y0057813D02*
X0217150Y0057813D01*
X0217150Y0057960D02*
X0219758Y0057960D01*
X0219758Y0058107D02*
X0217150Y0058107D01*
X0217150Y0058254D02*
X0219758Y0058254D01*
X0219758Y0058401D02*
X0217150Y0058401D01*
X0219758Y0056534D02*
X0219758Y0055698D01*
X0217150Y0055698D01*
X0217150Y0056534D01*
X0219758Y0056534D01*
X0219758Y0055845D02*
X0217150Y0055845D01*
X0217150Y0055992D02*
X0219758Y0055992D01*
X0219758Y0056139D02*
X0217150Y0056139D01*
X0217150Y0056286D02*
X0219758Y0056286D01*
X0219758Y0056433D02*
X0217150Y0056433D01*
X0219758Y0054565D02*
X0219758Y0053729D01*
X0217150Y0053729D01*
X0217150Y0054565D01*
X0219758Y0054565D01*
X0219758Y0053876D02*
X0217150Y0053876D01*
X0217150Y0054023D02*
X0219758Y0054023D01*
X0219758Y0054170D02*
X0217150Y0054170D01*
X0217150Y0054317D02*
X0219758Y0054317D01*
X0219758Y0054464D02*
X0217150Y0054464D01*
X0219758Y0052597D02*
X0219758Y0051761D01*
X0217150Y0051761D01*
X0217150Y0052597D01*
X0219758Y0052597D01*
X0219758Y0051908D02*
X0217150Y0051908D01*
X0217150Y0052055D02*
X0219758Y0052055D01*
X0219758Y0052202D02*
X0217150Y0052202D01*
X0217150Y0052349D02*
X0219758Y0052349D01*
X0219758Y0052496D02*
X0217150Y0052496D01*
X0238262Y0052597D02*
X0238262Y0051761D01*
X0235654Y0051761D01*
X0235654Y0052597D01*
X0238262Y0052597D01*
X0238262Y0051908D02*
X0235654Y0051908D01*
X0235654Y0052055D02*
X0238262Y0052055D01*
X0238262Y0052202D02*
X0235654Y0052202D01*
X0235654Y0052349D02*
X0238262Y0052349D01*
X0238262Y0052496D02*
X0235654Y0052496D01*
X0238262Y0053729D02*
X0238262Y0054565D01*
X0238262Y0053729D02*
X0235654Y0053729D01*
X0235654Y0054565D01*
X0238262Y0054565D01*
X0238262Y0053876D02*
X0235654Y0053876D01*
X0235654Y0054023D02*
X0238262Y0054023D01*
X0238262Y0054170D02*
X0235654Y0054170D01*
X0235654Y0054317D02*
X0238262Y0054317D01*
X0238262Y0054464D02*
X0235654Y0054464D01*
X0238262Y0055698D02*
X0238262Y0056534D01*
X0238262Y0055698D02*
X0235654Y0055698D01*
X0235654Y0056534D01*
X0238262Y0056534D01*
X0238262Y0055845D02*
X0235654Y0055845D01*
X0235654Y0055992D02*
X0238262Y0055992D01*
X0238262Y0056139D02*
X0235654Y0056139D01*
X0235654Y0056286D02*
X0238262Y0056286D01*
X0238262Y0056433D02*
X0235654Y0056433D01*
X0238262Y0057666D02*
X0238262Y0058502D01*
X0238262Y0057666D02*
X0235654Y0057666D01*
X0235654Y0058502D01*
X0238262Y0058502D01*
X0238262Y0057813D02*
X0235654Y0057813D01*
X0235654Y0057960D02*
X0238262Y0057960D01*
X0238262Y0058107D02*
X0235654Y0058107D01*
X0235654Y0058254D02*
X0238262Y0058254D01*
X0238262Y0058401D02*
X0235654Y0058401D01*
X0238262Y0059635D02*
X0238262Y0060471D01*
X0238262Y0059635D02*
X0235654Y0059635D01*
X0235654Y0060471D01*
X0238262Y0060471D01*
X0238262Y0059782D02*
X0235654Y0059782D01*
X0235654Y0059929D02*
X0238262Y0059929D01*
X0238262Y0060076D02*
X0235654Y0060076D01*
X0235654Y0060223D02*
X0238262Y0060223D01*
X0238262Y0060370D02*
X0235654Y0060370D01*
X0238262Y0061603D02*
X0238262Y0062439D01*
X0238262Y0061603D02*
X0235654Y0061603D01*
X0235654Y0062439D01*
X0238262Y0062439D01*
X0238262Y0061750D02*
X0235654Y0061750D01*
X0235654Y0061897D02*
X0238262Y0061897D01*
X0238262Y0062044D02*
X0235654Y0062044D01*
X0235654Y0062191D02*
X0238262Y0062191D01*
X0238262Y0062338D02*
X0235654Y0062338D01*
X0238262Y0063572D02*
X0238262Y0064408D01*
X0238262Y0063572D02*
X0235654Y0063572D01*
X0235654Y0064408D01*
X0238262Y0064408D01*
X0238262Y0063719D02*
X0235654Y0063719D01*
X0235654Y0063866D02*
X0238262Y0063866D01*
X0238262Y0064013D02*
X0235654Y0064013D01*
X0235654Y0064160D02*
X0238262Y0064160D01*
X0238262Y0064307D02*
X0235654Y0064307D01*
X0238262Y0065540D02*
X0238262Y0066376D01*
X0238262Y0065540D02*
X0235654Y0065540D01*
X0235654Y0066376D01*
X0238262Y0066376D01*
X0238262Y0065687D02*
X0235654Y0065687D01*
X0235654Y0065834D02*
X0238262Y0065834D01*
X0238262Y0065981D02*
X0235654Y0065981D01*
X0235654Y0066128D02*
X0238262Y0066128D01*
X0238262Y0066275D02*
X0235654Y0066275D01*
X0238262Y0067509D02*
X0238262Y0068345D01*
X0238262Y0067509D02*
X0235654Y0067509D01*
X0235654Y0068345D01*
X0238262Y0068345D01*
X0238262Y0067656D02*
X0235654Y0067656D01*
X0235654Y0067803D02*
X0238262Y0067803D01*
X0238262Y0067950D02*
X0235654Y0067950D01*
X0235654Y0068097D02*
X0238262Y0068097D01*
X0238262Y0068244D02*
X0235654Y0068244D01*
X0238262Y0069477D02*
X0238262Y0070313D01*
X0238262Y0069477D02*
X0235654Y0069477D01*
X0235654Y0070313D01*
X0238262Y0070313D01*
X0238262Y0069624D02*
X0235654Y0069624D01*
X0235654Y0069771D02*
X0238262Y0069771D01*
X0238262Y0069918D02*
X0235654Y0069918D01*
X0235654Y0070065D02*
X0238262Y0070065D01*
X0238262Y0070212D02*
X0235654Y0070212D01*
X0238262Y0071446D02*
X0238262Y0072282D01*
X0238262Y0071446D02*
X0235654Y0071446D01*
X0235654Y0072282D01*
X0238262Y0072282D01*
X0238262Y0071593D02*
X0235654Y0071593D01*
X0235654Y0071740D02*
X0238262Y0071740D01*
X0238262Y0071887D02*
X0235654Y0071887D01*
X0235654Y0072034D02*
X0238262Y0072034D01*
X0238262Y0072181D02*
X0235654Y0072181D01*
D35*
X0235297Y0073255D02*
X0236769Y0073255D01*
X0235297Y0073255D02*
X0235297Y0074511D01*
X0236769Y0074511D01*
X0236769Y0073255D01*
X0236769Y0073475D02*
X0235297Y0073475D01*
X0235297Y0073695D02*
X0236769Y0073695D01*
X0236769Y0073915D02*
X0235297Y0073915D01*
X0235297Y0074135D02*
X0236769Y0074135D01*
X0236769Y0074355D02*
X0235297Y0074355D01*
X0220116Y0073255D02*
X0218644Y0073255D01*
X0218644Y0074511D01*
X0220116Y0074511D01*
X0220116Y0073255D01*
X0220116Y0073475D02*
X0218644Y0073475D01*
X0218644Y0073695D02*
X0220116Y0073695D01*
X0220116Y0073915D02*
X0218644Y0073915D01*
X0218644Y0074135D02*
X0220116Y0074135D01*
X0220116Y0074355D02*
X0218644Y0074355D01*
X0218644Y0049531D02*
X0220116Y0049531D01*
X0218644Y0049531D02*
X0218644Y0050787D01*
X0220116Y0050787D01*
X0220116Y0049531D01*
X0220116Y0049751D02*
X0218644Y0049751D01*
X0218644Y0049971D02*
X0220116Y0049971D01*
X0220116Y0050191D02*
X0218644Y0050191D01*
X0218644Y0050411D02*
X0220116Y0050411D01*
X0220116Y0050631D02*
X0218644Y0050631D01*
X0235297Y0049531D02*
X0236769Y0049531D01*
X0235297Y0049531D02*
X0235297Y0050787D01*
X0236769Y0050787D01*
X0236769Y0049531D01*
X0236769Y0049751D02*
X0235297Y0049751D01*
X0235297Y0049971D02*
X0236769Y0049971D01*
X0236769Y0050191D02*
X0235297Y0050191D01*
X0235297Y0050411D02*
X0236769Y0050411D01*
X0236769Y0050631D02*
X0235297Y0050631D01*
X0166910Y0080178D02*
X0165438Y0080178D01*
X0165438Y0081434D01*
X0166910Y0081434D01*
X0166910Y0080178D01*
X0166910Y0080398D02*
X0165438Y0080398D01*
X0165438Y0080618D02*
X0166910Y0080618D01*
X0166910Y0080838D02*
X0165438Y0080838D01*
X0165438Y0081058D02*
X0166910Y0081058D01*
X0166910Y0081278D02*
X0165438Y0081278D01*
X0150256Y0080178D02*
X0148784Y0080178D01*
X0148784Y0081434D01*
X0150256Y0081434D01*
X0150256Y0080178D01*
X0150256Y0080398D02*
X0148784Y0080398D01*
X0148784Y0080618D02*
X0150256Y0080618D01*
X0150256Y0080838D02*
X0148784Y0080838D01*
X0148784Y0081058D02*
X0150256Y0081058D01*
X0150256Y0081278D02*
X0148784Y0081278D01*
X0148784Y0103903D02*
X0150256Y0103903D01*
X0148784Y0103903D02*
X0148784Y0105159D01*
X0150256Y0105159D01*
X0150256Y0103903D01*
X0150256Y0104123D02*
X0148784Y0104123D01*
X0148784Y0104343D02*
X0150256Y0104343D01*
X0150256Y0104563D02*
X0148784Y0104563D01*
X0148784Y0104783D02*
X0150256Y0104783D01*
X0150256Y0105003D02*
X0148784Y0105003D01*
X0165438Y0103903D02*
X0166910Y0103903D01*
X0165438Y0103903D02*
X0165438Y0105159D01*
X0166910Y0105159D01*
X0166910Y0103903D01*
X0166910Y0104123D02*
X0165438Y0104123D01*
X0165438Y0104343D02*
X0166910Y0104343D01*
X0166910Y0104563D02*
X0165438Y0104563D01*
X0165438Y0104783D02*
X0166910Y0104783D01*
X0166910Y0105003D02*
X0165438Y0105003D01*
X0119956Y0120429D02*
X0119956Y0121901D01*
X0121212Y0121901D01*
X0121212Y0120429D01*
X0119956Y0120429D01*
X0119956Y0120649D02*
X0121212Y0120649D01*
X0121212Y0120869D02*
X0119956Y0120869D01*
X0119956Y0121089D02*
X0121212Y0121089D01*
X0121212Y0121309D02*
X0119956Y0121309D01*
X0119956Y0121529D02*
X0121212Y0121529D01*
X0121212Y0121749D02*
X0119956Y0121749D01*
X0119956Y0137083D02*
X0119956Y0138555D01*
X0121212Y0138555D01*
X0121212Y0137083D01*
X0119956Y0137083D01*
X0119956Y0137303D02*
X0121212Y0137303D01*
X0121212Y0137523D02*
X0119956Y0137523D01*
X0119956Y0137743D02*
X0121212Y0137743D01*
X0121212Y0137963D02*
X0119956Y0137963D01*
X0119956Y0138183D02*
X0121212Y0138183D01*
X0121212Y0138403D02*
X0119956Y0138403D01*
X0096232Y0138555D02*
X0096232Y0137083D01*
X0096232Y0138555D02*
X0097488Y0138555D01*
X0097488Y0137083D01*
X0096232Y0137083D01*
X0096232Y0137303D02*
X0097488Y0137303D01*
X0097488Y0137523D02*
X0096232Y0137523D01*
X0096232Y0137743D02*
X0097488Y0137743D01*
X0097488Y0137963D02*
X0096232Y0137963D01*
X0096232Y0138183D02*
X0097488Y0138183D01*
X0097488Y0138403D02*
X0096232Y0138403D01*
X0096232Y0121901D02*
X0096232Y0120429D01*
X0096232Y0121901D02*
X0097488Y0121901D01*
X0097488Y0120429D01*
X0096232Y0120429D01*
X0096232Y0120649D02*
X0097488Y0120649D01*
X0097488Y0120869D02*
X0096232Y0120869D01*
X0096232Y0121089D02*
X0097488Y0121089D01*
X0097488Y0121309D02*
X0096232Y0121309D01*
X0096232Y0121529D02*
X0097488Y0121529D01*
X0097488Y0121749D02*
X0096232Y0121749D01*
D36*
X0106100Y0126301D03*
D37*
X0100851Y0126300D03*
D38*
X0111323Y0126301D03*
D39*
X0116571Y0126299D03*
D40*
X0116567Y0132735D03*
D41*
X0111324Y0132729D03*
D42*
X0106083Y0132731D03*
D43*
X0100847Y0132728D03*
D44*
X0106929Y0138125D03*
D45*
X0106921Y0120863D03*
D46*
X0065946Y0131024D03*
X0065946Y0195198D03*
D47*
X0075198Y0182796D03*
X0075198Y0178859D03*
X0075198Y0174922D03*
X0075198Y0170985D03*
X0075198Y0167048D03*
X0075198Y0163111D03*
X0075198Y0159174D03*
X0075198Y0155237D03*
X0075198Y0151300D03*
X0075198Y0147363D03*
X0075198Y0143426D03*
D48*
X0354741Y0263789D02*
X0355921Y0263789D01*
X0354741Y0263789D02*
X0354741Y0268079D01*
X0355921Y0268079D01*
X0355921Y0263789D01*
X0355921Y0264182D02*
X0354741Y0264182D01*
X0354741Y0264575D02*
X0355921Y0264575D01*
X0355921Y0264968D02*
X0354741Y0264968D01*
X0354741Y0265361D02*
X0355921Y0265361D01*
X0355921Y0265754D02*
X0354741Y0265754D01*
X0354741Y0266147D02*
X0355921Y0266147D01*
X0355921Y0266540D02*
X0354741Y0266540D01*
X0354741Y0266933D02*
X0355921Y0266933D01*
X0355921Y0267326D02*
X0354741Y0267326D01*
X0354741Y0267719D02*
X0355921Y0267719D01*
X0357300Y0263789D02*
X0358480Y0263789D01*
X0357300Y0263789D02*
X0357300Y0268079D01*
X0358480Y0268079D01*
X0358480Y0263789D01*
X0358480Y0264182D02*
X0357300Y0264182D01*
X0357300Y0264575D02*
X0358480Y0264575D01*
X0358480Y0264968D02*
X0357300Y0264968D01*
X0357300Y0265361D02*
X0358480Y0265361D01*
X0358480Y0265754D02*
X0357300Y0265754D01*
X0357300Y0266147D02*
X0358480Y0266147D01*
X0358480Y0266540D02*
X0357300Y0266540D01*
X0357300Y0266933D02*
X0358480Y0266933D01*
X0358480Y0267326D02*
X0357300Y0267326D01*
X0357300Y0267719D02*
X0358480Y0267719D01*
X0359859Y0263789D02*
X0361039Y0263789D01*
X0359859Y0263789D02*
X0359859Y0268079D01*
X0361039Y0268079D01*
X0361039Y0263789D01*
X0361039Y0264182D02*
X0359859Y0264182D01*
X0359859Y0264575D02*
X0361039Y0264575D01*
X0361039Y0264968D02*
X0359859Y0264968D01*
X0359859Y0265361D02*
X0361039Y0265361D01*
X0361039Y0265754D02*
X0359859Y0265754D01*
X0359859Y0266147D02*
X0361039Y0266147D01*
X0361039Y0266540D02*
X0359859Y0266540D01*
X0359859Y0266933D02*
X0361039Y0266933D01*
X0361039Y0267326D02*
X0359859Y0267326D01*
X0359859Y0267719D02*
X0361039Y0267719D01*
X0361039Y0275638D02*
X0359859Y0275638D01*
X0361039Y0275638D02*
X0361039Y0271348D01*
X0359859Y0271348D01*
X0359859Y0275638D01*
X0359859Y0271741D02*
X0361039Y0271741D01*
X0361039Y0272134D02*
X0359859Y0272134D01*
X0359859Y0272527D02*
X0361039Y0272527D01*
X0361039Y0272920D02*
X0359859Y0272920D01*
X0359859Y0273313D02*
X0361039Y0273313D01*
X0361039Y0273706D02*
X0359859Y0273706D01*
X0359859Y0274099D02*
X0361039Y0274099D01*
X0361039Y0274492D02*
X0359859Y0274492D01*
X0359859Y0274885D02*
X0361039Y0274885D01*
X0361039Y0275278D02*
X0359859Y0275278D01*
X0355921Y0275638D02*
X0354741Y0275638D01*
X0355921Y0275638D02*
X0355921Y0271348D01*
X0354741Y0271348D01*
X0354741Y0275638D01*
X0354741Y0271741D02*
X0355921Y0271741D01*
X0355921Y0272134D02*
X0354741Y0272134D01*
X0354741Y0272527D02*
X0355921Y0272527D01*
X0355921Y0272920D02*
X0354741Y0272920D01*
X0354741Y0273313D02*
X0355921Y0273313D01*
X0355921Y0273706D02*
X0354741Y0273706D01*
X0354741Y0274099D02*
X0355921Y0274099D01*
X0355921Y0274492D02*
X0354741Y0274492D01*
X0354741Y0274885D02*
X0355921Y0274885D01*
X0355921Y0275278D02*
X0354741Y0275278D01*
D49*
X0340276Y0119213D03*
X0340276Y0090473D03*
X0349725Y0081812D03*
X0378072Y0083387D03*
X0378072Y0112127D03*
X0321772Y0073150D03*
X0349725Y0053072D03*
X0321772Y0044410D03*
X0285946Y0041261D03*
X0285946Y0070001D03*
D50*
X0120050Y0155434D03*
X0120050Y0157993D03*
X0120050Y0160552D03*
X0120050Y0163111D03*
X0120050Y0165670D03*
X0120050Y0168229D03*
X0120050Y0170788D03*
X0097806Y0170788D03*
X0097806Y0168229D03*
X0097806Y0165670D03*
X0097806Y0163111D03*
X0097806Y0160552D03*
X0097806Y0157993D03*
X0097806Y0155434D03*
D51*
X0363898Y0154253D03*
X0363898Y0160158D03*
X0363898Y0166064D03*
X0363898Y0171969D03*
X0363898Y0177875D03*
X0363898Y0148347D03*
D52*
X0384331Y0138091D03*
X0384331Y0188131D03*
D53*
X0214312Y0180828D03*
X0209312Y0180828D03*
X0204312Y0180828D03*
X0199312Y0180828D03*
X0199312Y0201300D03*
X0204312Y0201300D03*
X0209312Y0201300D03*
X0214312Y0201300D03*
D54*
G36*
X0237098Y0225503D02*
X0229582Y0217987D01*
X0219562Y0228007D01*
X0227078Y0235523D01*
X0237098Y0225503D01*
G37*
G36*
X0260204Y0248609D02*
X0252688Y0241093D01*
X0242668Y0251113D01*
X0250184Y0258629D01*
X0260204Y0248609D01*
G37*
M02*
