G04 EAGLE Gerber X2 export*
G75*
%MOMM*%
%FSLAX34Y34*%
%LPD*%
%AMOC8*
5,1,8,0,0,1.08239X$1,22.5*%
G01*
%ADD10R,1.300000X1.500000*%
%ADD11R,0.900000X0.700000*%
%ADD12R,0.700000X0.900000*%
%ADD13R,1.000000X0.800000*%
%ADD14R,0.800000X1.000000*%
%ADD15R,1.200000X1.300000*%
%ADD16R,1.300000X1.200000*%
%ADD17R,0.245000X1.600000*%
%ADD18R,1.600000X0.245000*%
%ADD19R,2.032000X0.660400*%
%ADD20R,2.200000X0.600000*%
%ADD21R,5.080000X2.540000*%
%ADD22R,0.600000X0.700000*%
%ADD23R,1.400000X1.200000*%
%ADD24R,0.850000X0.280000*%
%ADD25R,0.280000X0.850000*%
%ADD26R,4.150000X4.150000*%
%ADD27C,0.330000*%


D10*
X1080500Y625800D03*
X1061500Y625800D03*
D11*
X1045100Y621800D03*
X1045100Y634800D03*
D12*
X985300Y637800D03*
X972300Y637800D03*
X674700Y740300D03*
X661700Y740300D03*
X548270Y731790D03*
X535270Y731790D03*
D11*
X767360Y820728D03*
X767360Y833728D03*
X783232Y820576D03*
X783232Y833576D03*
D12*
X829266Y825632D03*
X816266Y825632D03*
D11*
X887218Y801582D03*
X887218Y814582D03*
D12*
X687314Y820568D03*
X674314Y820568D03*
X705662Y825718D03*
X718662Y825718D03*
X865700Y728200D03*
X878700Y728200D03*
X867200Y712200D03*
X880200Y712200D03*
D11*
X793800Y820700D03*
X793800Y833700D03*
X514700Y641400D03*
X514700Y628400D03*
D12*
X1062300Y645700D03*
X1075300Y645700D03*
D10*
X1061400Y604700D03*
X1080400Y604700D03*
D13*
X565638Y748692D03*
X585638Y748692D03*
D14*
X630954Y695140D03*
X630954Y675140D03*
D15*
X466878Y645622D03*
X487198Y645622D03*
D16*
X512904Y581316D03*
X512904Y601636D03*
D17*
X831000Y650500D03*
X827000Y650500D03*
X823000Y650500D03*
X819000Y650500D03*
X815000Y650500D03*
X811000Y650500D03*
X807000Y650500D03*
X803000Y650500D03*
X799000Y650500D03*
X795000Y650500D03*
X791000Y650500D03*
X787000Y650500D03*
X783000Y650500D03*
X779000Y650500D03*
X775000Y650500D03*
X771000Y650500D03*
X767000Y650500D03*
X763000Y650500D03*
X759000Y650500D03*
X755000Y650500D03*
X751000Y650500D03*
X747000Y650500D03*
X743000Y650500D03*
X739000Y650500D03*
X735000Y650500D03*
X731000Y650500D03*
X727000Y650500D03*
X723000Y650500D03*
X719000Y650500D03*
X715000Y650500D03*
X711000Y650500D03*
X707000Y650500D03*
D18*
X692500Y665000D03*
X692500Y669000D03*
X692500Y673000D03*
X692500Y677000D03*
X692500Y681000D03*
X692500Y685000D03*
X692500Y689000D03*
X692500Y693000D03*
X692500Y697000D03*
X692500Y701000D03*
X692500Y705000D03*
X692500Y709000D03*
X692500Y713000D03*
X692500Y717000D03*
X692500Y721000D03*
X692500Y725000D03*
X692500Y729000D03*
X692500Y733000D03*
X692500Y737000D03*
X692500Y741000D03*
X692500Y745000D03*
X692500Y749000D03*
X692500Y753000D03*
X692500Y757000D03*
X692500Y761000D03*
X692500Y765000D03*
X692500Y769000D03*
X692500Y773000D03*
X692500Y777000D03*
X692500Y781000D03*
X692500Y785000D03*
X692500Y789000D03*
D17*
X707000Y803500D03*
X711000Y803500D03*
X715000Y803500D03*
X719000Y803500D03*
X723000Y803500D03*
X727000Y803500D03*
X731000Y803500D03*
X735000Y803500D03*
X739000Y803500D03*
X743000Y803500D03*
X747000Y803500D03*
X751000Y803500D03*
X755000Y803500D03*
X759000Y803500D03*
X763000Y803500D03*
X767000Y803500D03*
X771000Y803500D03*
X775000Y803500D03*
X779000Y803500D03*
X783000Y803500D03*
X787000Y803500D03*
X791000Y803500D03*
X795000Y803500D03*
X799000Y803500D03*
X803000Y803500D03*
X807000Y803500D03*
X811000Y803500D03*
X815000Y803500D03*
X819000Y803500D03*
X823000Y803500D03*
X827000Y803500D03*
X831000Y803500D03*
D18*
X845500Y789000D03*
X845500Y785000D03*
X845500Y781000D03*
X845500Y777000D03*
X845500Y773000D03*
X845500Y769000D03*
X845500Y765000D03*
X845500Y761000D03*
X845500Y757000D03*
X845500Y753000D03*
X845500Y749000D03*
X845500Y745000D03*
X845500Y741000D03*
X845500Y737000D03*
X845500Y733000D03*
X845500Y729000D03*
X845500Y725000D03*
X845500Y721000D03*
X845500Y717000D03*
X845500Y713000D03*
X845500Y709000D03*
X845500Y705000D03*
X845500Y701000D03*
X845500Y697000D03*
X845500Y693000D03*
X845500Y689000D03*
X845500Y685000D03*
X845500Y681000D03*
X845500Y677000D03*
X845500Y673000D03*
X845500Y669000D03*
X845500Y665000D03*
D19*
X540244Y673558D03*
X601712Y673558D03*
X540244Y686258D03*
X540244Y698958D03*
X601712Y686258D03*
X601712Y698958D03*
X540244Y711658D03*
X601712Y711658D03*
D20*
X503590Y442686D03*
X595590Y468086D03*
X503590Y429986D03*
X503590Y455386D03*
X503590Y468086D03*
X595590Y455386D03*
X595590Y480786D03*
X595590Y493486D03*
X503590Y493486D03*
X595590Y518886D03*
X503590Y480786D03*
X503590Y506186D03*
X595590Y506186D03*
X503590Y518886D03*
X595590Y442686D03*
X595590Y429986D03*
D21*
X461244Y575940D03*
X461244Y615940D03*
D22*
X873900Y787700D03*
X883900Y787700D03*
X662200Y766900D03*
X672200Y766900D03*
D12*
X567996Y732328D03*
X580996Y732328D03*
D11*
X646738Y679012D03*
X646738Y692012D03*
D23*
X846136Y818210D03*
X868136Y818210D03*
X868136Y802210D03*
X846136Y802210D03*
D24*
X979250Y588282D03*
D25*
X1006500Y556032D03*
D24*
X1038750Y583282D03*
D25*
X1006500Y615532D03*
X1001500Y615532D03*
X996500Y615532D03*
X991500Y615532D03*
X986500Y615532D03*
X1011500Y615532D03*
X1016500Y615532D03*
X1021500Y615532D03*
X1026500Y615532D03*
X1031500Y615532D03*
X1001500Y556032D03*
X996500Y556032D03*
X991500Y556032D03*
X986500Y556032D03*
X1011500Y556032D03*
X1016500Y556032D03*
X1021500Y556032D03*
X1026500Y556032D03*
X1031500Y556032D03*
D24*
X1038750Y578282D03*
X1038750Y573282D03*
X1038750Y568282D03*
X1038750Y563282D03*
X1038750Y588282D03*
X1038750Y593282D03*
X1038750Y603282D03*
X1038750Y598282D03*
X1038750Y608282D03*
X979250Y583282D03*
X979250Y578282D03*
X979250Y573282D03*
X979250Y568282D03*
X979250Y563282D03*
X979250Y593282D03*
X979250Y598282D03*
X979250Y603282D03*
X979250Y608282D03*
D26*
X1009000Y585782D03*
D27*
X668964Y796990D02*
X661264Y796990D01*
X661264Y812690D01*
X668964Y812690D01*
X668964Y796990D01*
X668964Y800289D02*
X661264Y800289D01*
X661264Y803588D02*
X668964Y803588D01*
X668964Y806887D02*
X661264Y806887D01*
X661264Y810186D02*
X668964Y810186D01*
X685264Y796990D02*
X692964Y796990D01*
X685264Y796990D02*
X685264Y812690D01*
X692964Y812690D01*
X692964Y796990D01*
X692964Y800289D02*
X685264Y800289D01*
X685264Y803588D02*
X692964Y803588D01*
X692964Y806887D02*
X685264Y806887D01*
X685264Y810186D02*
X692964Y810186D01*
D10*
X575500Y768000D03*
X594500Y768000D03*
M02*
