M48
;GenerationSoftware,Autodesk,EAGLE,8.6.0*%
;CreationDate,2018-05-09T14:54:21Z*%
FMAT,2
ICI,OFF
METRIC,TZ,000.000
T8C0.350
T7C0.700
T6C0.800
T5C1.000
T4C1.016
T3C1.100
T2C1.600
T1C1.676
%
G90
M71
T1
X109400Y38600
X109500Y33100
T2
X112900Y59100
X108900Y67100
X74500Y84600
X64600Y82600
X114100Y51000
X114040Y43340
X27120Y27900
X17380Y34900
X17380Y59300
X27120Y66300
T3
X48978Y75817
X42554Y73037
T4
X91530Y78110
X94070Y78110
X91530Y75570
X94070Y75570
X91530Y73030
X94070Y73030
X91530Y70490
X94070Y70490
T5
X82970Y25660
X82970Y18160
X97230Y30190
X97230Y37690
T6
X54200Y78207
X51906Y77214
X56494Y79200
T7
X46600Y72500
X44764Y71706
X48436Y73294
T8
X63800Y27100
X67200Y29100
X69400Y26700
X71500Y29100
X74000Y26700
X76900Y28600
X79100Y26400
X84000Y30300
X86900Y27500
X90700Y30400
X46600Y34220
X46780Y41960
X55080Y40460
X56600Y38980
X54460Y38560
X58860Y36380
X58900Y34740
X59000Y32000
X60240Y38900
X53780Y40800
X55100Y43400
X103900Y55200
X57800Y70700
X74000Y82100
X80600Y83400
X77400Y63600
X96900Y55300
X40400Y24000
X103500Y63600
X53000Y22000
X66500Y75200
X76800Y75220
X78870Y76300
X79810Y74870
X81140Y75740
X75480Y77680
X71050Y84300
X64370Y70730
X46630Y66930
X86850Y75310
X106060Y69470
X104100Y72540
X95310Y65050
X79300Y66500
X49300Y52900
X86000Y18600
X87200Y18600
X88300Y18600
X89400Y18700
X37500Y30700
X46200Y21900
X73500Y17300
X54000Y35500
X36100Y50700
X65300Y31500
X54080Y59980
X49880Y61900
X41600Y55540
X37420Y57840
X59400Y73740
X90240Y81980
X110460Y62100
X16580Y38100
X19400Y36080
X22680Y33160
X25600Y34460
X26580Y30820
X30540Y28360
X26600Y56900
X29600Y56900
X73000Y70400
X64600Y73700
X61670Y65430
X93300Y39600
X95900Y40100
X96100Y42700
X93800Y42900
X74309Y66912
X47800Y50900
X52600Y53700
X55200Y54000
X73200Y72500
X75200Y74740
X96300Y69900
X88600Y73900
X78300Y69700
X73400Y76900
X56400Y71600
X94200Y65500
X95300Y44800
X43200Y45600
X62600Y80700
X64900Y75600
X87000Y65000
X92300Y60700
X95000Y60100
X88100Y65000
X91000Y62000
X92200Y63100
X81900Y67700
X47100Y27000
X81400Y66600
X80000Y67100
X97100Y46300
X95700Y47900
X88700Y62200
X78400Y67000
X94900Y49800
X78000Y68200
X88400Y61200
X94200Y51000
X76000Y71200
X74700Y71900
X44100Y49400
X45421Y50779
X35600Y46800
X35600Y48100
X81600Y73700
X95900Y71700
X72700Y78100
X80100Y78800
X82000Y76900
X90400Y65000
X96100Y56000
X91400Y65000
X95200Y56500
X92800Y65100
X94600Y57400
X86100Y68100
X64500Y66900
X82600Y69600
X66800Y69600
X82600Y70700
X97900Y65100
X102600Y64600
X99100Y66200
X104200Y65400
X51500Y70700
X52000Y68600
X57700Y44800
X57700Y49500
X31900Y55200
X34600Y57900
X95600Y58000
X50000Y27500
X36800Y41900
X36800Y42900
X43000Y32500
X42100Y31600
X49900Y31800
X60900Y24200
X59900Y23600
X67600Y23900
X95200Y58900
X38400Y33400
X39800Y32700
X39400Y31300
X38900Y29700
X40800Y30100
X42600Y29700
X19600Y44900
X20000Y43700
X20900Y44900
X21400Y43800
X22200Y44900
X22700Y43800
X20900Y42700
X22300Y42700
X55900Y24900
X57700Y24900
X59100Y24900
X55900Y23500
X57700Y23500
X57600Y21800
X59900Y21900
X60600Y20700
X13900Y51300
X13600Y49600
X13600Y48200
X13600Y46900
X15200Y46900
X16500Y46800
X16600Y48300
X15000Y48300
X15000Y49700
X16500Y50000
X15800Y51300
X92600Y80800
X100600Y67900
X92014Y81878
X101900Y66807
X103700Y68200
X99933Y77275
X67800Y21100
X36300Y30900
X37300Y34900
X82900Y68100
X65700Y66400
X101200Y73100
X99600Y72400
X96000Y77900
X51100Y53400
X61400Y29800
X33100Y39200
X34400Y39200
X34400Y37800
X33100Y37800
X31800Y37800
X31800Y39200
X64700Y19600
X63500Y19600
X47100Y31100
X45900Y31100
X64700Y23600
X105000Y64600
X109100Y56600
X108500Y57500
X107900Y58300
X107200Y59000
X106200Y59100
X105100Y59100
X64700Y22300
X64700Y20900
X63500Y23600
X63500Y22300
X63500Y20900
X45900Y29700
X45900Y28400
X45900Y27000
X47100Y29700
X47100Y28400
X92300Y62100
M30