G75*
%MOIN*%
%OFA0B0*%
%FSLAX25Y25*%
%IPPOS*%
%LPD*%
%AMOC8*
5,1,8,0,0,1.08239X$1,22.5*
%
%ADD10C,0.07099*%
%ADD11R,0.05918X0.06706*%
%ADD12R,0.04343X0.03556*%
%ADD13R,0.03556X0.04343*%
%ADD14R,0.04737X0.03950*%
%ADD15R,0.03950X0.04737*%
%ADD16R,0.05524X0.05918*%
%ADD17R,0.05918X0.05524*%
%ADD18R,0.01765X0.07099*%
%ADD19R,0.07099X0.01765*%
%ADD20R,0.08800X0.03400*%
%ADD21R,0.09461X0.03162*%
%ADD22R,0.20800X0.10800*%
%ADD23R,0.03162X0.03556*%
%ADD24C,0.06737*%
%ADD25R,0.06312X0.05524*%
%ADD26R,0.04146X0.01902*%
%ADD27R,0.01902X0.04146*%
%ADD28R,0.17139X0.17139*%
%ADD29C,0.01539*%
%ADD30C,0.08200*%
%ADD31C,0.05556*%
%ADD32C,0.07296*%
%ADD33C,0.05950*%
%ADD34C,0.03778*%
%ADD35C,0.12611*%
D10*
X0081694Y0087520D03*
X0043347Y0115080D03*
X0043347Y0211143D03*
X0081694Y0238702D03*
X0229253Y0302875D03*
X0268229Y0310749D03*
X0403662Y0241851D03*
X0419410Y0210355D03*
X0424135Y0178465D03*
X0423898Y0148308D03*
D11*
X0400276Y0215749D03*
X0392796Y0215749D03*
X0392835Y0224056D03*
X0400316Y0224056D03*
X0208977Y0280040D03*
X0201497Y0280040D03*
D12*
X0229543Y0250124D03*
X0229543Y0245006D03*
X0177560Y0230198D03*
X0177560Y0225080D03*
X0277032Y0300799D03*
X0277032Y0305917D03*
X0283281Y0305857D03*
X0287442Y0305906D03*
X0287442Y0300788D03*
X0283281Y0300739D03*
X0324220Y0298380D03*
X0324220Y0293261D03*
X0386379Y0227599D03*
X0386379Y0222481D03*
D13*
X0393150Y0231891D03*
X0398269Y0231891D03*
X0362835Y0228780D03*
X0357717Y0228780D03*
X0321457Y0258072D03*
X0316339Y0258072D03*
X0315749Y0264371D03*
X0320867Y0264371D03*
X0301405Y0302730D03*
X0296287Y0302730D03*
X0257860Y0302764D03*
X0252742Y0302764D03*
X0245518Y0300736D03*
X0240400Y0300736D03*
X0240552Y0269135D03*
X0235434Y0269135D03*
X0203661Y0265996D03*
X0198543Y0265996D03*
X0190776Y0265784D03*
X0185658Y0265784D03*
D14*
X0197614Y0272439D03*
X0205488Y0272439D03*
D15*
X0223329Y0251355D03*
X0223329Y0243481D03*
D16*
X0166732Y0231860D03*
X0158732Y0231860D03*
D17*
X0176853Y0214543D03*
X0176853Y0206543D03*
D18*
X0253269Y0233780D03*
X0254843Y0233780D03*
X0256418Y0233780D03*
X0257993Y0233780D03*
X0259568Y0233780D03*
X0261143Y0233780D03*
X0262717Y0233780D03*
X0264292Y0233780D03*
X0265867Y0233780D03*
X0267442Y0233780D03*
X0269017Y0233780D03*
X0270591Y0233780D03*
X0272166Y0233780D03*
X0273741Y0233780D03*
X0275316Y0233780D03*
X0276891Y0233780D03*
X0278465Y0233780D03*
X0280040Y0233780D03*
X0281615Y0233780D03*
X0283190Y0233780D03*
X0284765Y0233780D03*
X0286339Y0233780D03*
X0287914Y0233780D03*
X0289489Y0233780D03*
X0291064Y0233780D03*
X0292639Y0233780D03*
X0294213Y0233780D03*
X0295788Y0233780D03*
X0297363Y0233780D03*
X0298938Y0233780D03*
X0300513Y0233780D03*
X0302087Y0233780D03*
X0302087Y0294017D03*
X0300513Y0294017D03*
X0298938Y0294017D03*
X0297363Y0294017D03*
X0295788Y0294017D03*
X0294213Y0294017D03*
X0292639Y0294017D03*
X0291064Y0294017D03*
X0289489Y0294017D03*
X0287914Y0294017D03*
X0286339Y0294017D03*
X0284765Y0294017D03*
X0283190Y0294017D03*
X0281615Y0294017D03*
X0280040Y0294017D03*
X0278465Y0294017D03*
X0276891Y0294017D03*
X0275316Y0294017D03*
X0273741Y0294017D03*
X0272166Y0294017D03*
X0270591Y0294017D03*
X0269017Y0294017D03*
X0267442Y0294017D03*
X0265867Y0294017D03*
X0264292Y0294017D03*
X0262717Y0294017D03*
X0261143Y0294017D03*
X0259568Y0294017D03*
X0257993Y0294017D03*
X0256418Y0294017D03*
X0254843Y0294017D03*
X0253269Y0294017D03*
D19*
X0247560Y0288308D03*
X0247560Y0286733D03*
X0247560Y0285158D03*
X0247560Y0283583D03*
X0247560Y0282009D03*
X0247560Y0280434D03*
X0247560Y0278859D03*
X0247560Y0277284D03*
X0247560Y0275709D03*
X0247560Y0274135D03*
X0247560Y0272560D03*
X0247560Y0270985D03*
X0247560Y0269410D03*
X0247560Y0267835D03*
X0247560Y0266261D03*
X0247560Y0264686D03*
X0247560Y0263111D03*
X0247560Y0261536D03*
X0247560Y0259961D03*
X0247560Y0258387D03*
X0247560Y0256812D03*
X0247560Y0255237D03*
X0247560Y0253662D03*
X0247560Y0252087D03*
X0247560Y0250513D03*
X0247560Y0248938D03*
X0247560Y0247363D03*
X0247560Y0245788D03*
X0247560Y0244213D03*
X0247560Y0242639D03*
X0247560Y0241064D03*
X0247560Y0239489D03*
X0307796Y0239489D03*
X0307796Y0241064D03*
X0307796Y0242639D03*
X0307796Y0244213D03*
X0307796Y0245788D03*
X0307796Y0247363D03*
X0307796Y0248938D03*
X0307796Y0250513D03*
X0307796Y0252087D03*
X0307796Y0253662D03*
X0307796Y0255237D03*
X0307796Y0256812D03*
X0307796Y0258387D03*
X0307796Y0259961D03*
X0307796Y0261536D03*
X0307796Y0263111D03*
X0307796Y0264686D03*
X0307796Y0266261D03*
X0307796Y0267835D03*
X0307796Y0269410D03*
X0307796Y0270985D03*
X0307796Y0272560D03*
X0307796Y0274135D03*
X0307796Y0275709D03*
X0307796Y0277284D03*
X0307796Y0278859D03*
X0307796Y0280434D03*
X0307796Y0282009D03*
X0307796Y0283583D03*
X0307796Y0285158D03*
X0307796Y0286733D03*
X0307796Y0288308D03*
D20*
X0211817Y0257858D03*
X0211817Y0252858D03*
X0211817Y0247858D03*
X0211817Y0242858D03*
X0187617Y0242858D03*
X0187617Y0247858D03*
X0187617Y0252858D03*
X0187617Y0257858D03*
D21*
X0173186Y0181964D03*
X0173186Y0176964D03*
X0173186Y0171964D03*
X0173186Y0166964D03*
X0173186Y0161964D03*
X0173186Y0156964D03*
X0173186Y0151964D03*
X0173186Y0146964D03*
X0209406Y0146964D03*
X0209406Y0151964D03*
X0209406Y0156964D03*
X0209406Y0161964D03*
X0209406Y0166964D03*
X0209406Y0171964D03*
X0209406Y0176964D03*
X0209406Y0181964D03*
D22*
X0156514Y0204426D03*
X0156514Y0220174D03*
D23*
X0235631Y0279607D03*
X0239568Y0279607D03*
X0318977Y0287796D03*
X0322914Y0287796D03*
D24*
X0357717Y0126064D03*
X0357717Y0096536D03*
X0301576Y0078702D03*
X0301576Y0049174D03*
D25*
X0308046Y0293509D03*
X0308046Y0299808D03*
X0316708Y0299808D03*
X0316708Y0293509D03*
D26*
X0360454Y0217159D03*
X0360454Y0215191D03*
X0360454Y0213222D03*
X0360454Y0211254D03*
X0360454Y0209285D03*
X0360454Y0207317D03*
X0360454Y0205348D03*
X0360454Y0203380D03*
X0360454Y0201411D03*
X0360454Y0199443D03*
X0383879Y0199443D03*
X0383879Y0201411D03*
X0383879Y0203380D03*
X0383879Y0205348D03*
X0383879Y0207317D03*
X0383879Y0209285D03*
X0383879Y0211254D03*
X0383879Y0213222D03*
X0383879Y0215191D03*
X0383879Y0217159D03*
D27*
X0381024Y0220013D03*
X0379056Y0220013D03*
X0377087Y0220013D03*
X0375119Y0220013D03*
X0373150Y0220013D03*
X0371182Y0220013D03*
X0369213Y0220013D03*
X0367245Y0220013D03*
X0365276Y0220013D03*
X0363308Y0220013D03*
X0363308Y0196588D03*
X0365276Y0196588D03*
X0367245Y0196588D03*
X0369213Y0196588D03*
X0371182Y0196588D03*
X0373150Y0196588D03*
X0375119Y0196588D03*
X0377087Y0196588D03*
X0379056Y0196588D03*
X0381024Y0196588D03*
D28*
X0372166Y0208301D03*
D29*
X0248023Y0291173D02*
X0244431Y0291173D01*
X0244431Y0297915D01*
X0248023Y0297915D01*
X0248023Y0291173D01*
X0248023Y0292711D02*
X0244431Y0292711D01*
X0244431Y0294249D02*
X0248023Y0294249D01*
X0248023Y0295787D02*
X0244431Y0295787D01*
X0244431Y0297325D02*
X0248023Y0297325D01*
X0238574Y0291173D02*
X0234982Y0291173D01*
X0234982Y0297915D01*
X0238574Y0297915D01*
X0238574Y0291173D01*
X0238574Y0292711D02*
X0234982Y0292711D01*
X0234982Y0294249D02*
X0238574Y0294249D01*
X0238574Y0295787D02*
X0234982Y0295787D01*
X0234982Y0297325D02*
X0238574Y0297325D01*
D30*
X0335276Y0285198D03*
X0345276Y0285198D03*
X0345276Y0275198D03*
X0335276Y0275198D03*
X0335276Y0265198D03*
X0345276Y0265198D03*
X0345276Y0255198D03*
X0335276Y0255198D03*
D31*
X0165613Y0266238D03*
X0158387Y0263111D03*
X0151160Y0259984D03*
D32*
X0142457Y0265226D03*
X0167749Y0276171D03*
D33*
X0179275Y0281671D03*
X0188308Y0285580D03*
X0197341Y0289489D03*
D34*
X0221379Y0295394D03*
X0230434Y0275316D03*
X0236733Y0273741D03*
X0229253Y0267835D03*
X0228347Y0256143D03*
X0237914Y0251694D03*
X0228859Y0241064D03*
X0233583Y0239095D03*
X0217717Y0235276D03*
X0202481Y0256024D03*
X0196969Y0259568D03*
X0208780Y0267993D03*
X0179646Y0247757D03*
X0177678Y0256024D03*
X0158505Y0241182D03*
X0171300Y0221379D03*
X0187835Y0213820D03*
X0192245Y0190276D03*
X0182009Y0189095D03*
X0176103Y0187914D03*
X0169017Y0185946D03*
X0163111Y0178072D03*
X0153745Y0177596D03*
X0148544Y0172166D03*
X0145001Y0157206D03*
X0159095Y0142875D03*
X0186654Y0138308D03*
X0191772Y0136969D03*
X0197757Y0131143D03*
X0189331Y0129489D03*
X0187520Y0117442D03*
X0206654Y0120906D03*
X0206812Y0114450D03*
X0207206Y0103662D03*
X0216654Y0095001D03*
X0226103Y0084371D03*
X0239489Y0092245D03*
X0232009Y0101694D03*
X0256418Y0092245D03*
X0248150Y0082796D03*
X0241064Y0071772D03*
X0229646Y0070591D03*
X0224922Y0070591D03*
X0224922Y0065473D03*
X0229646Y0065473D03*
X0229646Y0059961D03*
X0224922Y0059961D03*
X0224922Y0054843D03*
X0229646Y0054843D03*
X0241851Y0060749D03*
X0264292Y0045788D03*
X0313505Y0050906D03*
X0318229Y0050906D03*
X0322560Y0050906D03*
X0326891Y0051300D03*
X0286339Y0081615D03*
X0277678Y0090276D03*
X0266261Y0082796D03*
X0305631Y0096969D03*
X0317048Y0085946D03*
X0332009Y0097363D03*
X0342245Y0133583D03*
X0352481Y0135552D03*
X0353269Y0145788D03*
X0344213Y0146576D03*
X0350119Y0154056D03*
X0357206Y0159961D03*
X0351694Y0166261D03*
X0348544Y0173741D03*
X0345788Y0178465D03*
X0356418Y0195394D03*
X0353269Y0198150D03*
X0349725Y0200119D03*
X0347363Y0203662D03*
X0351300Y0206024D03*
X0349725Y0209568D03*
X0348938Y0214292D03*
X0338308Y0216654D03*
X0338308Y0222166D03*
X0337914Y0226103D03*
X0333190Y0221772D03*
X0324135Y0222560D03*
X0322954Y0218623D03*
X0321772Y0233583D03*
X0317442Y0233583D03*
X0330828Y0233583D03*
X0334765Y0233583D03*
X0340276Y0233977D03*
X0345788Y0235552D03*
X0350158Y0233780D03*
X0360355Y0233977D03*
X0365080Y0238308D03*
X0370985Y0245001D03*
X0376103Y0240697D03*
X0383190Y0246182D03*
X0392481Y0251182D03*
X0384765Y0263269D03*
X0373347Y0265473D03*
X0367048Y0262717D03*
X0352481Y0259961D03*
X0354056Y0252875D03*
X0378859Y0232009D03*
X0382402Y0228072D03*
X0388308Y0232009D03*
X0385158Y0235158D03*
X0409804Y0222166D03*
X0396969Y0209961D03*
X0399725Y0207206D03*
X0402087Y0204056D03*
X0404450Y0200513D03*
X0393032Y0210355D03*
X0388702Y0210355D03*
X0383977Y0195001D03*
X0313898Y0245788D03*
X0301300Y0245788D03*
X0297363Y0244213D03*
X0295394Y0239883D03*
X0289883Y0241851D03*
X0287127Y0239489D03*
X0283583Y0241457D03*
X0282009Y0246182D03*
X0283190Y0252087D03*
X0274135Y0257993D03*
X0269017Y0260749D03*
X0263111Y0263111D03*
X0262324Y0254843D03*
X0267478Y0241111D03*
X0279646Y0228072D03*
X0300119Y0251694D03*
X0300119Y0256024D03*
X0296182Y0267835D03*
X0294371Y0275867D03*
X0289135Y0272442D03*
X0285434Y0278072D03*
X0277284Y0273820D03*
X0270985Y0271930D03*
X0263898Y0280434D03*
X0261143Y0285158D03*
X0272087Y0283505D03*
X0290276Y0287914D03*
X0297757Y0280434D03*
X0316851Y0274174D03*
X0323741Y0268623D03*
X0352875Y0284371D03*
X0368358Y0281912D03*
X0339489Y0295788D03*
X0337180Y0300031D03*
X0330198Y0300434D03*
X0292245Y0306024D03*
X0266261Y0300906D03*
X0254646Y0309568D03*
X0122245Y0205394D03*
X0111143Y0205631D03*
X0100513Y0195001D03*
X0091457Y0201694D03*
X0079646Y0201694D03*
X0117048Y0177284D03*
X0115080Y0167048D03*
X0115080Y0161930D03*
X0119804Y0146576D03*
X0119804Y0142639D03*
X0110355Y0132009D03*
X0105237Y0132009D03*
X0100119Y0132009D03*
X0100119Y0126497D03*
X0105237Y0126497D03*
X0110355Y0126497D03*
X0121772Y0115080D03*
X0126103Y0109174D03*
X0131615Y0106418D03*
X0130040Y0100906D03*
X0122560Y0098544D03*
X0117835Y0099331D03*
X0128072Y0094607D03*
X0135552Y0096182D03*
X0142639Y0094607D03*
X0140670Y0102087D03*
X0144213Y0105631D03*
X0155631Y0100119D03*
X0160355Y0100119D03*
X0160355Y0094607D03*
X0155631Y0094607D03*
X0155631Y0089489D03*
X0160355Y0089489D03*
X0160355Y0083977D03*
X0155631Y0083977D03*
X0171772Y0085946D03*
X0171379Y0102875D03*
X0158387Y0112402D03*
X0191851Y0148544D03*
X0202087Y0154056D03*
X0202087Y0172560D03*
X0212087Y0130828D03*
X0207599Y0075709D03*
X0202087Y0075709D03*
X0202087Y0070198D03*
X0201694Y0063505D03*
X0210749Y0063898D03*
X0213505Y0059174D03*
X0210749Y0070591D03*
X0214686Y0072954D03*
X0195001Y0075709D03*
X0195001Y0070198D03*
X0183583Y0064292D03*
X0156812Y0063898D03*
X0133977Y0072166D03*
X0095158Y0089331D03*
X0079568Y0099017D03*
X0075709Y0113347D03*
X0064213Y0108229D03*
X0051300Y0119725D03*
X0040198Y0127678D03*
X0057206Y0145788D03*
X0059174Y0150119D03*
X0064292Y0150119D03*
X0062717Y0145788D03*
X0053662Y0149725D03*
X0052087Y0154450D03*
X0057206Y0154450D03*
X0062324Y0154450D03*
X0039883Y0161930D03*
X0034765Y0162324D03*
X0028465Y0162324D03*
X0028465Y0167442D03*
X0028465Y0172954D03*
X0033977Y0173347D03*
X0033977Y0167835D03*
X0040276Y0167835D03*
X0039883Y0174528D03*
X0037127Y0179646D03*
X0029646Y0179646D03*
X0138702Y0196339D03*
D35*
X0405631Y0129646D03*
X0406024Y0107993D03*
M02*
