G75*
%MOIN*%
%OFA0B0*%
%FSLAX25Y25*%
%IPPOS*%
%LPD*%
%AMOC8*
5,1,8,0,0,1.08239X$1,22.5*
%
%ADD10C,0.05937*%
%ADD11C,0.06000*%
%ADD12C,0.04756*%
%ADD13C,0.06496*%
%ADD14C,0.05150*%
%ADD15C,0.00600*%
%ADD16C,0.02978*%
%ADD17C,0.09900*%
%ADD18C,0.01600*%
%ADD19C,0.02000*%
D10*
X0301576Y0049174D03*
X0301576Y0078702D03*
X0357717Y0096536D03*
X0357717Y0126064D03*
D11*
X0345276Y0255198D03*
X0335276Y0255198D03*
X0335276Y0265198D03*
X0345276Y0265198D03*
X0345276Y0275198D03*
X0335276Y0275198D03*
X0335276Y0285198D03*
X0345276Y0285198D03*
D12*
X0165613Y0266238D03*
X0158387Y0263111D03*
X0151160Y0259984D03*
D13*
X0142457Y0265226D03*
X0167749Y0276171D03*
D14*
X0179275Y0281671D03*
X0188308Y0285580D03*
X0197341Y0289489D03*
D15*
X0219017Y0076432D02*
X0097818Y0076432D01*
X0099203Y0075834D02*
X0219017Y0075834D01*
X0219017Y0075235D02*
X0215783Y0075235D01*
X0215675Y0075343D02*
X0213696Y0075343D01*
X0212297Y0073943D01*
X0212297Y0072422D01*
X0211738Y0072980D01*
X0209759Y0072980D01*
X0208360Y0071581D01*
X0208360Y0069602D01*
X0209759Y0068202D01*
X0211738Y0068202D01*
X0213138Y0069602D01*
X0213138Y0071123D01*
X0213696Y0070565D01*
X0215675Y0070565D01*
X0217075Y0071964D01*
X0217075Y0073943D01*
X0215675Y0075343D01*
X0216381Y0074637D02*
X0219017Y0074637D01*
X0219017Y0074038D02*
X0216980Y0074038D01*
X0217075Y0073440D02*
X0219017Y0073440D01*
X0219017Y0072841D02*
X0217075Y0072841D01*
X0217075Y0072243D02*
X0219017Y0072243D01*
X0219017Y0071644D02*
X0216755Y0071644D01*
X0216157Y0071046D02*
X0219017Y0071046D01*
X0219017Y0070447D02*
X0213138Y0070447D01*
X0213138Y0069849D02*
X0219017Y0069849D01*
X0219017Y0069250D02*
X0212786Y0069250D01*
X0212188Y0068652D02*
X0219017Y0068652D01*
X0219017Y0068053D02*
X0117210Y0068053D01*
X0115825Y0068652D02*
X0209310Y0068652D01*
X0208711Y0069250D02*
X0114440Y0069250D01*
X0113055Y0069849D02*
X0132916Y0069849D01*
X0132988Y0069777D02*
X0134967Y0069777D01*
X0136366Y0071177D01*
X0136366Y0073156D01*
X0134967Y0074555D01*
X0132988Y0074555D01*
X0131588Y0073156D01*
X0131588Y0071177D01*
X0132988Y0069777D01*
X0132318Y0070447D02*
X0111670Y0070447D01*
X0110284Y0071046D02*
X0131719Y0071046D01*
X0131588Y0071644D02*
X0108899Y0071644D01*
X0107514Y0072243D02*
X0131588Y0072243D01*
X0131588Y0072841D02*
X0106129Y0072841D01*
X0104744Y0073440D02*
X0131872Y0073440D01*
X0132471Y0074038D02*
X0103359Y0074038D01*
X0101973Y0074637D02*
X0212991Y0074637D01*
X0213589Y0075235D02*
X0100588Y0075235D01*
X0096433Y0077031D02*
X0218483Y0077031D01*
X0219017Y0076497D02*
X0215867Y0079646D01*
X0149725Y0079646D01*
X0139095Y0090276D01*
X0126891Y0090276D01*
X0122166Y0095001D01*
X0115473Y0095001D01*
X0101694Y0108780D01*
X0095394Y0108780D01*
X0069017Y0135158D01*
X0060749Y0135158D01*
X0047757Y0148150D01*
X0047757Y0156812D01*
X0043032Y0161536D01*
X0043032Y0181221D01*
X0041851Y0182402D01*
X0027264Y0182402D01*
X0025588Y0173478D01*
X0024945Y0163111D01*
X0025588Y0152744D01*
X0027505Y0142536D01*
X0030667Y0132643D01*
X0035026Y0123216D01*
X0037299Y0119566D01*
X0039127Y0121395D01*
X0041865Y0122529D01*
X0044829Y0122529D01*
X0047567Y0121395D01*
X0048911Y0120051D01*
X0048911Y0120715D01*
X0050310Y0122114D01*
X0052290Y0122114D01*
X0053689Y0120715D01*
X0053689Y0118736D01*
X0052290Y0117336D01*
X0050476Y0117336D01*
X0050797Y0116561D01*
X0050797Y0113598D01*
X0049663Y0110860D01*
X0047567Y0108764D01*
X0045703Y0107992D01*
X0047052Y0106327D01*
X0054535Y0099123D01*
X0062849Y0092898D01*
X0071868Y0087747D01*
X0074244Y0086669D01*
X0074244Y0089002D01*
X0075378Y0091740D01*
X0077474Y0093836D01*
X0080212Y0094970D01*
X0083176Y0094970D01*
X0085914Y0093836D01*
X0088009Y0091740D01*
X0089143Y0089002D01*
X0089143Y0086039D01*
X0088009Y0083301D01*
X0086173Y0081464D01*
X0218715Y0024195D01*
X0219017Y0024075D01*
X0219017Y0076497D01*
X0220217Y0076432D02*
X0297948Y0076432D01*
X0297925Y0076464D02*
X0298320Y0075921D01*
X0298795Y0075446D01*
X0299338Y0075051D01*
X0299937Y0074746D01*
X0300576Y0074538D01*
X0301240Y0074433D01*
X0301276Y0074433D01*
X0301276Y0078402D01*
X0297307Y0078402D01*
X0297307Y0078366D01*
X0297412Y0077702D01*
X0297620Y0077063D01*
X0297925Y0076464D01*
X0297636Y0077031D02*
X0220180Y0077031D01*
X0220217Y0076994D02*
X0216364Y0080846D01*
X0150222Y0080846D01*
X0140295Y0090773D01*
X0140176Y0090892D01*
X0148973Y0085394D01*
X0149228Y0085139D01*
X0149381Y0085139D01*
X0149511Y0085058D01*
X0149862Y0085139D01*
X0150222Y0085139D01*
X0150330Y0085247D01*
X0150479Y0085282D01*
X0150670Y0085587D01*
X0150925Y0085842D01*
X0150925Y0085995D01*
X0151006Y0086125D01*
X0150925Y0086476D01*
X0150925Y0115183D01*
X0121357Y0144751D01*
X0122193Y0145586D01*
X0122193Y0147565D01*
X0120793Y0148965D01*
X0118814Y0148965D01*
X0117979Y0148129D01*
X0108799Y0157309D01*
X0108096Y0158012D01*
X0048834Y0158012D01*
X0048544Y0157721D01*
X0044232Y0162033D01*
X0044232Y0181718D01*
X0043051Y0182899D01*
X0042348Y0183602D01*
X0027489Y0183602D01*
X0027505Y0183686D01*
X0030667Y0193579D01*
X0035026Y0203006D01*
X0037299Y0206656D01*
X0039127Y0204827D01*
X0041865Y0203693D01*
X0044829Y0203693D01*
X0047567Y0204827D01*
X0049663Y0206923D01*
X0050797Y0209661D01*
X0050797Y0212624D01*
X0049663Y0215362D01*
X0047567Y0217458D01*
X0045703Y0218230D01*
X0047052Y0219896D01*
X0054535Y0227099D01*
X0062849Y0233324D01*
X0071868Y0238475D01*
X0074244Y0239553D01*
X0074244Y0237220D01*
X0075378Y0234482D01*
X0077474Y0232386D01*
X0080212Y0231252D01*
X0083176Y0231252D01*
X0085914Y0232386D01*
X0088009Y0234482D01*
X0089143Y0237220D01*
X0089143Y0240183D01*
X0088009Y0242921D01*
X0086173Y0244758D01*
X0138931Y0267554D01*
X0138309Y0266051D01*
X0138309Y0264401D01*
X0138940Y0262877D01*
X0140107Y0261710D01*
X0141632Y0261078D01*
X0143282Y0261078D01*
X0144807Y0261710D01*
X0145973Y0262877D01*
X0146605Y0264401D01*
X0146605Y0266051D01*
X0145973Y0267576D01*
X0144807Y0268743D01*
X0143282Y0269374D01*
X0143144Y0269374D01*
X0164215Y0278479D01*
X0163601Y0276996D01*
X0163601Y0275346D01*
X0164233Y0273822D01*
X0165400Y0272655D01*
X0166924Y0272023D01*
X0168574Y0272023D01*
X0170099Y0272655D01*
X0171266Y0273822D01*
X0171897Y0275346D01*
X0171897Y0276996D01*
X0171266Y0278521D01*
X0170099Y0279688D01*
X0168574Y0280319D01*
X0168475Y0280319D01*
X0176458Y0283769D01*
X0176329Y0283640D01*
X0175800Y0282362D01*
X0175800Y0280980D01*
X0176329Y0279703D01*
X0177307Y0278726D01*
X0178584Y0278196D01*
X0179966Y0278196D01*
X0181243Y0278726D01*
X0182221Y0279703D01*
X0182750Y0280980D01*
X0182750Y0282362D01*
X0182221Y0283640D01*
X0181243Y0284617D01*
X0179966Y0285146D01*
X0179646Y0285146D01*
X0185481Y0287667D01*
X0185362Y0287549D01*
X0184833Y0286271D01*
X0184833Y0284889D01*
X0185362Y0283612D01*
X0186340Y0282634D01*
X0187617Y0282105D01*
X0188999Y0282105D01*
X0190276Y0282634D01*
X0191254Y0283612D01*
X0191783Y0284889D01*
X0191783Y0286271D01*
X0191254Y0287549D01*
X0190276Y0288526D01*
X0188999Y0289055D01*
X0188692Y0289055D01*
X0194504Y0291566D01*
X0194395Y0291457D01*
X0193866Y0290180D01*
X0193866Y0288798D01*
X0194395Y0287521D01*
X0195373Y0286543D01*
X0196650Y0286014D01*
X0198032Y0286014D01*
X0199309Y0286543D01*
X0200287Y0287521D01*
X0200816Y0288798D01*
X0200816Y0290180D01*
X0200287Y0291457D01*
X0199309Y0292435D01*
X0198032Y0292964D01*
X0197739Y0292964D01*
X0218715Y0302027D01*
X0221803Y0303251D01*
X0221803Y0301393D01*
X0222937Y0298655D01*
X0225033Y0296559D01*
X0227771Y0295425D01*
X0230735Y0295425D01*
X0233473Y0296559D01*
X0235568Y0298655D01*
X0236702Y0301393D01*
X0236702Y0304357D01*
X0235568Y0307095D01*
X0234967Y0307696D01*
X0239302Y0309062D01*
X0253499Y0312073D01*
X0261070Y0312931D01*
X0260780Y0312231D01*
X0260780Y0309267D01*
X0261914Y0306529D01*
X0264009Y0304433D01*
X0266747Y0303299D01*
X0269711Y0303299D01*
X0272449Y0304433D01*
X0274545Y0306529D01*
X0275679Y0309267D01*
X0275679Y0312231D01*
X0275018Y0313825D01*
X0282431Y0313948D01*
X0296898Y0312794D01*
X0311187Y0310255D01*
X0325167Y0306356D01*
X0335962Y0302191D01*
X0334792Y0301020D01*
X0334792Y0299041D01*
X0336191Y0297642D01*
X0337964Y0297642D01*
X0337100Y0296778D01*
X0337100Y0294799D01*
X0338499Y0293399D01*
X0340479Y0293399D01*
X0341878Y0294799D01*
X0341878Y0296778D01*
X0340479Y0298177D01*
X0338706Y0298177D01*
X0339569Y0299041D01*
X0339569Y0300700D01*
X0351683Y0294632D01*
X0363974Y0286915D01*
X0367366Y0284299D01*
X0365969Y0282902D01*
X0365969Y0280922D01*
X0367368Y0279523D01*
X0369347Y0279523D01*
X0370747Y0280922D01*
X0370747Y0281693D01*
X0375467Y0278053D01*
X0386056Y0268128D01*
X0395643Y0257232D01*
X0401556Y0249042D01*
X0399442Y0248167D01*
X0397347Y0246071D01*
X0396213Y0243333D01*
X0396213Y0240369D01*
X0397347Y0237631D01*
X0399442Y0235536D01*
X0402180Y0234402D01*
X0405144Y0234402D01*
X0407882Y0235536D01*
X0409183Y0236837D01*
X0411464Y0232937D01*
X0417553Y0219763D01*
X0418238Y0217805D01*
X0417928Y0217805D01*
X0415190Y0216671D01*
X0413095Y0214575D01*
X0411961Y0211837D01*
X0411961Y0208873D01*
X0413095Y0206135D01*
X0415190Y0204040D01*
X0417928Y0202906D01*
X0420892Y0202906D01*
X0422917Y0203744D01*
X0425805Y0191969D01*
X0426753Y0185444D01*
X0425616Y0185915D01*
X0422653Y0185915D01*
X0419915Y0184781D01*
X0417819Y0182685D01*
X0416685Y0179947D01*
X0416685Y0176984D01*
X0417819Y0174245D01*
X0419915Y0172150D01*
X0422653Y0171016D01*
X0425616Y0171016D01*
X0428159Y0172069D01*
X0428590Y0163111D01*
X0428178Y0154563D01*
X0428118Y0154623D01*
X0425380Y0155757D01*
X0422417Y0155757D01*
X0419679Y0154623D01*
X0417583Y0152528D01*
X0416449Y0149790D01*
X0416449Y0146826D01*
X0417583Y0144088D01*
X0419679Y0141992D01*
X0422417Y0140858D01*
X0425380Y0140858D01*
X0426853Y0141468D01*
X0425805Y0134253D01*
X0422348Y0120157D01*
X0417553Y0106459D01*
X0411464Y0093285D01*
X0404138Y0080757D01*
X0395643Y0068990D01*
X0386056Y0058094D01*
X0375467Y0048169D01*
X0363974Y0039307D01*
X0351683Y0031590D01*
X0338707Y0025090D01*
X0325167Y0019866D01*
X0311187Y0015967D01*
X0296898Y0013428D01*
X0282431Y0012274D01*
X0267920Y0012515D01*
X0253499Y0014149D01*
X0239302Y0017160D01*
X0225460Y0021521D01*
X0220217Y0023600D01*
X0220217Y0076994D01*
X0219581Y0077629D02*
X0297436Y0077629D01*
X0297329Y0078228D02*
X0218983Y0078228D01*
X0218384Y0078826D02*
X0301276Y0078826D01*
X0301276Y0079002D02*
X0301276Y0078402D01*
X0301876Y0078402D01*
X0301876Y0079002D01*
X0301276Y0079002D01*
X0301276Y0082970D01*
X0301240Y0082970D01*
X0300576Y0082865D01*
X0299937Y0082657D01*
X0299338Y0082352D01*
X0298795Y0081957D01*
X0298320Y0081482D01*
X0297925Y0080939D01*
X0297620Y0080340D01*
X0297412Y0079701D01*
X0297307Y0079038D01*
X0297307Y0079002D01*
X0301276Y0079002D01*
X0301276Y0079425D02*
X0301876Y0079425D01*
X0301876Y0079002D02*
X0301876Y0082970D01*
X0301912Y0082970D01*
X0302575Y0082865D01*
X0303214Y0082657D01*
X0303813Y0082352D01*
X0304356Y0081957D01*
X0304831Y0081482D01*
X0305226Y0080939D01*
X0305531Y0080340D01*
X0305739Y0079701D01*
X0305844Y0079038D01*
X0305844Y0079002D01*
X0301876Y0079002D01*
X0301876Y0078826D02*
X0402744Y0078826D01*
X0402312Y0078228D02*
X0305822Y0078228D01*
X0305844Y0078366D02*
X0305844Y0078402D01*
X0301876Y0078402D01*
X0301876Y0074433D01*
X0301912Y0074433D01*
X0302575Y0074538D01*
X0303214Y0074746D01*
X0303813Y0075051D01*
X0304356Y0075446D01*
X0304831Y0075921D01*
X0305226Y0076464D01*
X0305531Y0077063D01*
X0305739Y0077702D01*
X0305844Y0078366D01*
X0305715Y0077629D02*
X0401880Y0077629D01*
X0401448Y0077031D02*
X0305515Y0077031D01*
X0305203Y0076432D02*
X0401016Y0076432D01*
X0400584Y0075834D02*
X0304744Y0075834D01*
X0304067Y0075235D02*
X0400152Y0075235D01*
X0399719Y0074637D02*
X0302879Y0074637D01*
X0301876Y0074637D02*
X0301276Y0074637D01*
X0301276Y0075235D02*
X0301876Y0075235D01*
X0301876Y0075834D02*
X0301276Y0075834D01*
X0301276Y0076432D02*
X0301876Y0076432D01*
X0301876Y0077031D02*
X0301276Y0077031D01*
X0301276Y0077629D02*
X0301876Y0077629D01*
X0301876Y0078228D02*
X0301276Y0078228D01*
X0301276Y0080023D02*
X0301876Y0080023D01*
X0301876Y0080622D02*
X0301276Y0080622D01*
X0301276Y0081220D02*
X0301876Y0081220D01*
X0301876Y0081819D02*
X0301276Y0081819D01*
X0301276Y0082417D02*
X0301876Y0082417D01*
X0303685Y0082417D02*
X0405109Y0082417D01*
X0404759Y0081819D02*
X0304495Y0081819D01*
X0305022Y0081220D02*
X0404409Y0081220D01*
X0404041Y0080622D02*
X0305388Y0080622D01*
X0305634Y0080023D02*
X0403609Y0080023D01*
X0403176Y0079425D02*
X0305783Y0079425D01*
X0300273Y0074637D02*
X0220217Y0074637D01*
X0220217Y0075235D02*
X0299084Y0075235D01*
X0298407Y0075834D02*
X0220217Y0075834D01*
X0220217Y0074038D02*
X0239951Y0074038D01*
X0240074Y0074161D02*
X0238675Y0072762D01*
X0238675Y0070783D01*
X0240074Y0069383D01*
X0242053Y0069383D01*
X0243453Y0070783D01*
X0243453Y0072762D01*
X0242053Y0074161D01*
X0240074Y0074161D01*
X0239353Y0073440D02*
X0220217Y0073440D01*
X0220217Y0072841D02*
X0238754Y0072841D01*
X0238675Y0072243D02*
X0220217Y0072243D01*
X0220217Y0071644D02*
X0238675Y0071644D01*
X0238675Y0071046D02*
X0220217Y0071046D01*
X0220217Y0070447D02*
X0239010Y0070447D01*
X0239609Y0069849D02*
X0220217Y0069849D01*
X0220217Y0069250D02*
X0395830Y0069250D01*
X0396262Y0069849D02*
X0242519Y0069849D01*
X0243117Y0070447D02*
X0396695Y0070447D01*
X0397127Y0071046D02*
X0243453Y0071046D01*
X0243453Y0071644D02*
X0397559Y0071644D01*
X0397991Y0072243D02*
X0243453Y0072243D01*
X0243373Y0072841D02*
X0398423Y0072841D01*
X0398855Y0073440D02*
X0242775Y0073440D01*
X0242176Y0074038D02*
X0399287Y0074038D01*
X0395345Y0068652D02*
X0220217Y0068652D01*
X0220217Y0068053D02*
X0394818Y0068053D01*
X0394292Y0067455D02*
X0220217Y0067455D01*
X0220217Y0066856D02*
X0393765Y0066856D01*
X0393238Y0066258D02*
X0220217Y0066258D01*
X0220217Y0065659D02*
X0392712Y0065659D01*
X0392185Y0065061D02*
X0220217Y0065061D01*
X0220217Y0064462D02*
X0391659Y0064462D01*
X0391132Y0063864D02*
X0220217Y0063864D01*
X0220217Y0063265D02*
X0390606Y0063265D01*
X0390079Y0062667D02*
X0243312Y0062667D01*
X0242841Y0063138D02*
X0240862Y0063138D01*
X0239462Y0061738D01*
X0239462Y0059759D01*
X0240862Y0058360D01*
X0242841Y0058360D01*
X0244240Y0059759D01*
X0244240Y0061738D01*
X0242841Y0063138D01*
X0243910Y0062068D02*
X0389552Y0062068D01*
X0389026Y0061470D02*
X0244240Y0061470D01*
X0244240Y0060871D02*
X0388499Y0060871D01*
X0387973Y0060273D02*
X0244240Y0060273D01*
X0244155Y0059674D02*
X0387446Y0059674D01*
X0386920Y0059075D02*
X0243556Y0059075D01*
X0242958Y0058477D02*
X0386393Y0058477D01*
X0385826Y0057878D02*
X0220217Y0057878D01*
X0220217Y0057280D02*
X0385187Y0057280D01*
X0384549Y0056681D02*
X0220217Y0056681D01*
X0220217Y0056083D02*
X0383910Y0056083D01*
X0383272Y0055484D02*
X0220217Y0055484D01*
X0220217Y0054886D02*
X0382633Y0054886D01*
X0381995Y0054287D02*
X0220217Y0054287D01*
X0220217Y0053689D02*
X0325901Y0053689D01*
X0324528Y0052316D01*
X0323549Y0053295D01*
X0321570Y0053295D01*
X0320394Y0052119D01*
X0319219Y0053295D01*
X0317240Y0053295D01*
X0315867Y0051923D01*
X0314494Y0053295D01*
X0312515Y0053295D01*
X0311116Y0051896D01*
X0311116Y0049917D01*
X0312515Y0048517D01*
X0314494Y0048517D01*
X0315867Y0049890D01*
X0317240Y0048517D01*
X0319219Y0048517D01*
X0320394Y0049693D01*
X0321570Y0048517D01*
X0323549Y0048517D01*
X0324922Y0049890D01*
X0325901Y0048911D01*
X0327880Y0048911D01*
X0329280Y0050310D01*
X0329280Y0052290D01*
X0327880Y0053689D01*
X0325901Y0053689D01*
X0325302Y0053090D02*
X0323754Y0053090D01*
X0324353Y0052492D02*
X0324704Y0052492D01*
X0324531Y0049499D02*
X0325313Y0049499D01*
X0323933Y0048901D02*
X0376248Y0048901D01*
X0376886Y0049499D02*
X0328468Y0049499D01*
X0329067Y0050098D02*
X0377525Y0050098D01*
X0378163Y0050696D02*
X0329280Y0050696D01*
X0329280Y0051295D02*
X0378802Y0051295D01*
X0379441Y0051893D02*
X0329280Y0051893D01*
X0329077Y0052492D02*
X0380079Y0052492D01*
X0380718Y0053090D02*
X0328479Y0053090D01*
X0327880Y0053689D02*
X0381356Y0053689D01*
X0375609Y0048302D02*
X0305402Y0048302D01*
X0305444Y0048405D02*
X0304855Y0046983D01*
X0303767Y0045894D01*
X0302345Y0045306D01*
X0300806Y0045306D01*
X0299384Y0045894D01*
X0298296Y0046983D01*
X0297707Y0048405D01*
X0297707Y0049944D01*
X0298296Y0051365D01*
X0299384Y0052454D01*
X0300806Y0053043D01*
X0302345Y0053043D01*
X0303767Y0052454D01*
X0304855Y0051365D01*
X0305444Y0049944D01*
X0305444Y0048405D01*
X0305444Y0048901D02*
X0312132Y0048901D01*
X0311533Y0049499D02*
X0305444Y0049499D01*
X0305380Y0050098D02*
X0311116Y0050098D01*
X0311116Y0050696D02*
X0305132Y0050696D01*
X0304884Y0051295D02*
X0311116Y0051295D01*
X0311116Y0051893D02*
X0304327Y0051893D01*
X0303674Y0052492D02*
X0311712Y0052492D01*
X0312310Y0053090D02*
X0220217Y0053090D01*
X0220217Y0052492D02*
X0299477Y0052492D01*
X0298824Y0051893D02*
X0220217Y0051893D01*
X0220217Y0051295D02*
X0298267Y0051295D01*
X0298019Y0050696D02*
X0220217Y0050696D01*
X0220217Y0050098D02*
X0297771Y0050098D01*
X0297707Y0049499D02*
X0220217Y0049499D01*
X0220217Y0048901D02*
X0297707Y0048901D01*
X0297749Y0048302D02*
X0220217Y0048302D01*
X0220217Y0047704D02*
X0262829Y0047704D01*
X0263303Y0048177D02*
X0261903Y0046778D01*
X0261903Y0044799D01*
X0263303Y0043399D01*
X0265282Y0043399D01*
X0266681Y0044799D01*
X0266681Y0046778D01*
X0265282Y0048177D01*
X0263303Y0048177D01*
X0262231Y0047105D02*
X0220217Y0047105D01*
X0220217Y0046507D02*
X0261903Y0046507D01*
X0261903Y0045908D02*
X0220217Y0045908D01*
X0220217Y0045310D02*
X0261903Y0045310D01*
X0261991Y0044711D02*
X0220217Y0044711D01*
X0220217Y0044113D02*
X0262589Y0044113D01*
X0263188Y0043514D02*
X0220217Y0043514D01*
X0220217Y0042916D02*
X0368654Y0042916D01*
X0369430Y0043514D02*
X0265397Y0043514D01*
X0265995Y0044113D02*
X0370206Y0044113D01*
X0370983Y0044711D02*
X0266594Y0044711D01*
X0266681Y0045310D02*
X0300796Y0045310D01*
X0299370Y0045908D02*
X0266681Y0045908D01*
X0266681Y0046507D02*
X0298772Y0046507D01*
X0298245Y0047105D02*
X0266354Y0047105D01*
X0265755Y0047704D02*
X0297997Y0047704D01*
X0302355Y0045310D02*
X0371759Y0045310D01*
X0372535Y0045908D02*
X0303781Y0045908D01*
X0304379Y0046507D02*
X0373311Y0046507D01*
X0374087Y0047105D02*
X0304906Y0047105D01*
X0305154Y0047704D02*
X0374864Y0047704D01*
X0367878Y0042317D02*
X0220217Y0042317D01*
X0220217Y0041719D02*
X0367101Y0041719D01*
X0366325Y0041120D02*
X0220217Y0041120D01*
X0220217Y0040522D02*
X0365549Y0040522D01*
X0364773Y0039923D02*
X0220217Y0039923D01*
X0220217Y0039325D02*
X0363996Y0039325D01*
X0363048Y0038726D02*
X0220217Y0038726D01*
X0220217Y0038128D02*
X0362095Y0038128D01*
X0361142Y0037529D02*
X0220217Y0037529D01*
X0220217Y0036931D02*
X0360188Y0036931D01*
X0359235Y0036332D02*
X0220217Y0036332D01*
X0220217Y0035734D02*
X0358282Y0035734D01*
X0357329Y0035135D02*
X0220217Y0035135D01*
X0220217Y0034537D02*
X0356375Y0034537D01*
X0355422Y0033938D02*
X0220217Y0033938D01*
X0220217Y0033340D02*
X0354469Y0033340D01*
X0353515Y0032741D02*
X0220217Y0032741D01*
X0220217Y0032142D02*
X0352562Y0032142D01*
X0351590Y0031544D02*
X0220217Y0031544D01*
X0220217Y0030945D02*
X0350395Y0030945D01*
X0349201Y0030347D02*
X0220217Y0030347D01*
X0220217Y0029748D02*
X0348006Y0029748D01*
X0346811Y0029150D02*
X0220217Y0029150D01*
X0220217Y0028551D02*
X0345617Y0028551D01*
X0344422Y0027953D02*
X0220217Y0027953D01*
X0220217Y0027354D02*
X0343227Y0027354D01*
X0342032Y0026756D02*
X0220217Y0026756D01*
X0220217Y0026157D02*
X0340838Y0026157D01*
X0339643Y0025559D02*
X0220217Y0025559D01*
X0220217Y0024960D02*
X0338371Y0024960D01*
X0336820Y0024362D02*
X0220217Y0024362D01*
X0220217Y0023763D02*
X0335269Y0023763D01*
X0333717Y0023165D02*
X0221313Y0023165D01*
X0222823Y0022566D02*
X0332166Y0022566D01*
X0330615Y0021968D02*
X0224333Y0021968D01*
X0225942Y0021369D02*
X0329064Y0021369D01*
X0327512Y0020771D02*
X0227842Y0020771D01*
X0229742Y0020172D02*
X0325961Y0020172D01*
X0324120Y0019574D02*
X0231641Y0019574D01*
X0233541Y0018975D02*
X0321974Y0018975D01*
X0319828Y0018377D02*
X0235441Y0018377D01*
X0237340Y0017778D02*
X0317682Y0017778D01*
X0315537Y0017180D02*
X0239240Y0017180D01*
X0242031Y0016581D02*
X0313391Y0016581D01*
X0311245Y0015983D02*
X0244853Y0015983D01*
X0247675Y0015384D02*
X0307909Y0015384D01*
X0304540Y0014786D02*
X0250496Y0014786D01*
X0253318Y0014187D02*
X0301171Y0014187D01*
X0297801Y0013589D02*
X0258443Y0013589D01*
X0263726Y0012990D02*
X0291407Y0012990D01*
X0283904Y0012392D02*
X0275352Y0012392D01*
X0314878Y0048901D02*
X0316856Y0048901D01*
X0316258Y0049499D02*
X0315476Y0049499D01*
X0315298Y0052492D02*
X0316436Y0052492D01*
X0317035Y0053090D02*
X0314699Y0053090D01*
X0319424Y0053090D02*
X0321365Y0053090D01*
X0320767Y0052492D02*
X0320022Y0052492D01*
X0320201Y0049499D02*
X0320588Y0049499D01*
X0321187Y0048901D02*
X0319602Y0048901D01*
X0297368Y0079425D02*
X0217786Y0079425D01*
X0217187Y0080023D02*
X0297517Y0080023D01*
X0297763Y0080622D02*
X0216589Y0080622D01*
X0216089Y0079425D02*
X0090892Y0079425D01*
X0092277Y0078826D02*
X0216687Y0078826D01*
X0217286Y0078228D02*
X0093662Y0078228D01*
X0095047Y0077629D02*
X0217884Y0077629D01*
X0212392Y0074038D02*
X0135484Y0074038D01*
X0136082Y0073440D02*
X0212297Y0073440D01*
X0212297Y0072841D02*
X0211877Y0072841D01*
X0213138Y0071046D02*
X0213215Y0071046D01*
X0209620Y0072841D02*
X0136366Y0072841D01*
X0136366Y0072243D02*
X0209022Y0072243D01*
X0208423Y0071644D02*
X0136366Y0071644D01*
X0136235Y0071046D02*
X0208360Y0071046D01*
X0208360Y0070447D02*
X0135637Y0070447D01*
X0135038Y0069849D02*
X0208360Y0069849D01*
X0219017Y0067455D02*
X0118595Y0067455D01*
X0119981Y0066856D02*
X0219017Y0066856D01*
X0219017Y0066258D02*
X0184996Y0066258D01*
X0184573Y0066681D02*
X0182594Y0066681D01*
X0181194Y0065282D01*
X0181194Y0063303D01*
X0182594Y0061903D01*
X0184573Y0061903D01*
X0185972Y0063303D01*
X0185972Y0065282D01*
X0184573Y0066681D01*
X0185595Y0065659D02*
X0219017Y0065659D01*
X0219017Y0065061D02*
X0185972Y0065061D01*
X0185972Y0064462D02*
X0219017Y0064462D01*
X0219017Y0063864D02*
X0185972Y0063864D01*
X0185935Y0063265D02*
X0219017Y0063265D01*
X0219017Y0062667D02*
X0185336Y0062667D01*
X0184738Y0062068D02*
X0219017Y0062068D01*
X0219017Y0061470D02*
X0132447Y0061470D01*
X0131062Y0062068D02*
X0155264Y0062068D01*
X0155822Y0061509D02*
X0157801Y0061509D01*
X0159201Y0062909D01*
X0159201Y0064888D01*
X0157801Y0066287D01*
X0155822Y0066287D01*
X0154423Y0064888D01*
X0154423Y0062909D01*
X0155822Y0061509D01*
X0154665Y0062667D02*
X0129677Y0062667D01*
X0128292Y0063265D02*
X0154423Y0063265D01*
X0154423Y0063864D02*
X0126907Y0063864D01*
X0125521Y0064462D02*
X0154423Y0064462D01*
X0154595Y0065061D02*
X0124136Y0065061D01*
X0122751Y0065659D02*
X0155194Y0065659D01*
X0155792Y0066258D02*
X0121366Y0066258D01*
X0133832Y0060871D02*
X0219017Y0060871D01*
X0219017Y0060273D02*
X0135218Y0060273D01*
X0136603Y0059674D02*
X0219017Y0059674D01*
X0219017Y0059075D02*
X0137988Y0059075D01*
X0139373Y0058477D02*
X0219017Y0058477D01*
X0219017Y0057878D02*
X0140758Y0057878D01*
X0142144Y0057280D02*
X0219017Y0057280D01*
X0219017Y0056681D02*
X0143529Y0056681D01*
X0144914Y0056083D02*
X0219017Y0056083D01*
X0219017Y0055484D02*
X0146299Y0055484D01*
X0147684Y0054886D02*
X0219017Y0054886D01*
X0219017Y0054287D02*
X0149069Y0054287D01*
X0150455Y0053689D02*
X0219017Y0053689D01*
X0219017Y0053090D02*
X0151840Y0053090D01*
X0153225Y0052492D02*
X0219017Y0052492D01*
X0219017Y0051893D02*
X0154610Y0051893D01*
X0155995Y0051295D02*
X0219017Y0051295D01*
X0219017Y0050696D02*
X0157380Y0050696D01*
X0158766Y0050098D02*
X0219017Y0050098D01*
X0219017Y0049499D02*
X0160151Y0049499D01*
X0161536Y0048901D02*
X0219017Y0048901D01*
X0219017Y0048302D02*
X0162921Y0048302D01*
X0164306Y0047704D02*
X0219017Y0047704D01*
X0219017Y0047105D02*
X0165692Y0047105D01*
X0167077Y0046507D02*
X0219017Y0046507D01*
X0219017Y0045908D02*
X0168462Y0045908D01*
X0169847Y0045310D02*
X0219017Y0045310D01*
X0219017Y0044711D02*
X0171232Y0044711D01*
X0172617Y0044113D02*
X0219017Y0044113D01*
X0219017Y0043514D02*
X0174003Y0043514D01*
X0175388Y0042916D02*
X0219017Y0042916D01*
X0219017Y0042317D02*
X0176773Y0042317D01*
X0178158Y0041719D02*
X0219017Y0041719D01*
X0219017Y0041120D02*
X0179543Y0041120D01*
X0180929Y0040522D02*
X0219017Y0040522D01*
X0219017Y0039923D02*
X0182314Y0039923D01*
X0183699Y0039325D02*
X0219017Y0039325D01*
X0219017Y0038726D02*
X0185084Y0038726D01*
X0186469Y0038128D02*
X0219017Y0038128D01*
X0219017Y0037529D02*
X0187854Y0037529D01*
X0189240Y0036931D02*
X0219017Y0036931D01*
X0219017Y0036332D02*
X0190625Y0036332D01*
X0192010Y0035734D02*
X0219017Y0035734D01*
X0219017Y0035135D02*
X0193395Y0035135D01*
X0194780Y0034537D02*
X0219017Y0034537D01*
X0219017Y0033938D02*
X0196165Y0033938D01*
X0197551Y0033340D02*
X0219017Y0033340D01*
X0219017Y0032741D02*
X0198936Y0032741D01*
X0200321Y0032142D02*
X0219017Y0032142D01*
X0219017Y0031544D02*
X0201706Y0031544D01*
X0203091Y0030945D02*
X0219017Y0030945D01*
X0219017Y0030347D02*
X0204477Y0030347D01*
X0205862Y0029748D02*
X0219017Y0029748D01*
X0219017Y0029150D02*
X0207247Y0029150D01*
X0208632Y0028551D02*
X0219017Y0028551D01*
X0219017Y0027953D02*
X0210017Y0027953D01*
X0211402Y0027354D02*
X0219017Y0027354D01*
X0219017Y0026756D02*
X0212788Y0026756D01*
X0214173Y0026157D02*
X0219017Y0026157D01*
X0219017Y0025559D02*
X0215558Y0025559D01*
X0216943Y0024960D02*
X0219017Y0024960D01*
X0219017Y0024362D02*
X0218328Y0024362D01*
X0220217Y0058477D02*
X0240744Y0058477D01*
X0240146Y0059075D02*
X0220217Y0059075D01*
X0220217Y0059674D02*
X0239547Y0059674D01*
X0239462Y0060273D02*
X0220217Y0060273D01*
X0220217Y0060871D02*
X0239462Y0060871D01*
X0239462Y0061470D02*
X0220217Y0061470D01*
X0220217Y0062068D02*
X0239792Y0062068D01*
X0240390Y0062667D02*
X0220217Y0062667D01*
X0182429Y0062068D02*
X0158360Y0062068D01*
X0158958Y0062667D02*
X0181830Y0062667D01*
X0181232Y0063265D02*
X0159201Y0063265D01*
X0159201Y0063864D02*
X0181194Y0063864D01*
X0181194Y0064462D02*
X0159201Y0064462D01*
X0159028Y0065061D02*
X0181194Y0065061D01*
X0181572Y0065659D02*
X0158430Y0065659D01*
X0157831Y0066258D02*
X0182170Y0066258D01*
X0172762Y0083557D02*
X0174161Y0084956D01*
X0174161Y0086935D01*
X0172762Y0088335D01*
X0170783Y0088335D01*
X0169383Y0086935D01*
X0169383Y0084956D01*
X0170783Y0083557D01*
X0172762Y0083557D01*
X0172820Y0083614D02*
X0405809Y0083614D01*
X0405459Y0083016D02*
X0148053Y0083016D01*
X0148651Y0082417D02*
X0299466Y0082417D01*
X0298656Y0081819D02*
X0149250Y0081819D01*
X0149848Y0081220D02*
X0298129Y0081220D01*
X0287636Y0100240D02*
X0277678Y0099456D01*
X0277678Y0099456D01*
X0267720Y0100240D01*
X0267720Y0100240D01*
X0258007Y0102571D01*
X0258007Y0102571D01*
X0248779Y0106394D01*
X0248779Y0106394D01*
X0240262Y0111613D01*
X0240262Y0111613D01*
X0232667Y0118100D01*
X0232667Y0118100D01*
X0232667Y0118100D01*
X0226180Y0125695D01*
X0226180Y0125695D01*
X0220961Y0134212D01*
X0220961Y0134212D01*
X0217138Y0143441D01*
X0217138Y0143441D01*
X0214807Y0153153D01*
X0214807Y0153153D01*
X0214023Y0163111D01*
X0214023Y0163111D01*
X0214807Y0173069D01*
X0214807Y0173069D01*
X0217138Y0182782D01*
X0217138Y0182782D01*
X0220961Y0192010D01*
X0220961Y0192010D01*
X0226180Y0200527D01*
X0226180Y0200527D01*
X0232667Y0208122D01*
X0232667Y0208122D01*
X0240262Y0214609D01*
X0240262Y0214609D01*
X0248779Y0219828D01*
X0248779Y0219828D01*
X0258007Y0223651D01*
X0258007Y0223651D01*
X0267720Y0225982D01*
X0267720Y0225982D01*
X0277581Y0226759D01*
X0277257Y0227082D01*
X0277257Y0229061D01*
X0278657Y0230461D01*
X0280636Y0230461D01*
X0282035Y0229061D01*
X0282035Y0227082D01*
X0281425Y0226471D01*
X0287636Y0225982D01*
X0287636Y0225982D01*
X0297348Y0223651D01*
X0297348Y0223651D01*
X0306577Y0219828D01*
X0306577Y0219828D01*
X0315093Y0214609D01*
X0315093Y0214609D01*
X0322689Y0208122D01*
X0322689Y0208122D01*
X0322689Y0208122D01*
X0329176Y0200527D01*
X0329176Y0200527D01*
X0334395Y0192010D01*
X0338218Y0182782D01*
X0340549Y0173069D01*
X0341333Y0163111D01*
X0341333Y0163111D01*
X0340549Y0153153D01*
X0338218Y0143441D01*
X0334395Y0134212D01*
X0329176Y0125695D01*
X0322689Y0118100D01*
X0322689Y0118100D01*
X0315093Y0111613D01*
X0306577Y0106394D01*
X0297348Y0102571D01*
X0297348Y0102571D01*
X0287636Y0100240D01*
X0287636Y0100240D01*
X0288190Y0100373D02*
X0355845Y0100373D01*
X0356079Y0100492D02*
X0355480Y0100187D01*
X0354937Y0099792D01*
X0354461Y0099317D01*
X0354067Y0098773D01*
X0353762Y0098175D01*
X0353554Y0097536D01*
X0353449Y0096872D01*
X0353449Y0096836D01*
X0357417Y0096836D01*
X0357417Y0096236D01*
X0353449Y0096236D01*
X0353449Y0096200D01*
X0353554Y0095537D01*
X0353762Y0094898D01*
X0354067Y0094299D01*
X0354461Y0093755D01*
X0354937Y0093280D01*
X0355480Y0092885D01*
X0356079Y0092580D01*
X0356718Y0092373D01*
X0357381Y0092268D01*
X0357417Y0092268D01*
X0357417Y0096236D01*
X0358017Y0096236D01*
X0358017Y0092268D01*
X0358053Y0092268D01*
X0358717Y0092373D01*
X0359356Y0092580D01*
X0359955Y0092885D01*
X0360498Y0093280D01*
X0360973Y0093755D01*
X0361368Y0094299D01*
X0361673Y0094898D01*
X0361881Y0095537D01*
X0361986Y0096200D01*
X0361986Y0096236D01*
X0358017Y0096236D01*
X0358017Y0096836D01*
X0357417Y0096836D01*
X0357417Y0100805D01*
X0357381Y0100805D01*
X0356718Y0100700D01*
X0356079Y0100492D01*
X0357417Y0100373D02*
X0358017Y0100373D01*
X0358017Y0100805D02*
X0358017Y0096836D01*
X0361986Y0096836D01*
X0361986Y0096872D01*
X0361881Y0097536D01*
X0361673Y0098175D01*
X0361368Y0098773D01*
X0360973Y0099317D01*
X0360498Y0099792D01*
X0359955Y0100187D01*
X0359356Y0100492D01*
X0358717Y0100700D01*
X0358053Y0100805D01*
X0358017Y0100805D01*
X0358017Y0099774D02*
X0357417Y0099774D01*
X0357417Y0099176D02*
X0358017Y0099176D01*
X0358017Y0098577D02*
X0357417Y0098577D01*
X0357417Y0097979D02*
X0358017Y0097979D01*
X0358017Y0097380D02*
X0357417Y0097380D01*
X0357417Y0096782D02*
X0150925Y0096782D01*
X0150925Y0097380D02*
X0353529Y0097380D01*
X0353698Y0097979D02*
X0150925Y0097979D01*
X0150925Y0098577D02*
X0353967Y0098577D01*
X0354359Y0099176D02*
X0150925Y0099176D01*
X0150925Y0099774D02*
X0273633Y0099774D01*
X0267165Y0100373D02*
X0150925Y0100373D01*
X0150925Y0100971D02*
X0169904Y0100971D01*
X0170389Y0100486D02*
X0172368Y0100486D01*
X0173768Y0101885D01*
X0173768Y0103864D01*
X0172368Y0105264D01*
X0170389Y0105264D01*
X0168990Y0103864D01*
X0168990Y0101885D01*
X0170389Y0100486D01*
X0169305Y0101570D02*
X0150925Y0101570D01*
X0150925Y0102168D02*
X0168990Y0102168D01*
X0168990Y0102767D02*
X0150925Y0102767D01*
X0150925Y0103365D02*
X0168990Y0103365D01*
X0169089Y0103964D02*
X0150925Y0103964D01*
X0150925Y0104562D02*
X0169688Y0104562D01*
X0170286Y0105161D02*
X0150925Y0105161D01*
X0150925Y0105759D02*
X0250311Y0105759D01*
X0251756Y0105161D02*
X0172471Y0105161D01*
X0173070Y0104562D02*
X0253201Y0104562D01*
X0254646Y0103964D02*
X0173668Y0103964D01*
X0173768Y0103365D02*
X0256091Y0103365D01*
X0257536Y0102767D02*
X0173768Y0102767D01*
X0173768Y0102168D02*
X0259686Y0102168D01*
X0262179Y0101570D02*
X0173452Y0101570D01*
X0172854Y0100971D02*
X0264672Y0100971D01*
X0248866Y0106358D02*
X0150925Y0106358D01*
X0150925Y0106956D02*
X0247861Y0106956D01*
X0246885Y0107555D02*
X0150925Y0107555D01*
X0150925Y0108153D02*
X0245908Y0108153D01*
X0244931Y0108752D02*
X0150925Y0108752D01*
X0150925Y0109350D02*
X0243954Y0109350D01*
X0242978Y0109949D02*
X0150925Y0109949D01*
X0150925Y0110547D02*
X0242001Y0110547D01*
X0241024Y0111146D02*
X0150925Y0111146D01*
X0150925Y0111744D02*
X0240108Y0111744D01*
X0239408Y0112343D02*
X0150925Y0112343D01*
X0150925Y0112942D02*
X0238707Y0112942D01*
X0238006Y0113540D02*
X0150925Y0113540D01*
X0150925Y0114139D02*
X0237305Y0114139D01*
X0236605Y0114737D02*
X0150925Y0114737D01*
X0150773Y0115336D02*
X0186248Y0115336D01*
X0186531Y0115053D02*
X0188510Y0115053D01*
X0189909Y0116452D01*
X0189909Y0118431D01*
X0188510Y0119831D01*
X0186531Y0119831D01*
X0185131Y0118431D01*
X0185131Y0116452D01*
X0186531Y0115053D01*
X0185650Y0115934D02*
X0150174Y0115934D01*
X0149575Y0116533D02*
X0185131Y0116533D01*
X0185131Y0117131D02*
X0148977Y0117131D01*
X0148378Y0117730D02*
X0185131Y0117730D01*
X0185131Y0118328D02*
X0147780Y0118328D01*
X0147181Y0118927D02*
X0185627Y0118927D01*
X0186225Y0119525D02*
X0146583Y0119525D01*
X0145984Y0120124D02*
X0230939Y0120124D01*
X0230427Y0120722D02*
X0145386Y0120722D01*
X0144787Y0121321D02*
X0229916Y0121321D01*
X0229405Y0121919D02*
X0144189Y0121919D01*
X0143590Y0122518D02*
X0228894Y0122518D01*
X0228383Y0123116D02*
X0142992Y0123116D01*
X0142393Y0123715D02*
X0227872Y0123715D01*
X0227360Y0124313D02*
X0141795Y0124313D01*
X0141196Y0124912D02*
X0226849Y0124912D01*
X0226338Y0125510D02*
X0140598Y0125510D01*
X0139999Y0126109D02*
X0225927Y0126109D01*
X0225560Y0126707D02*
X0139401Y0126707D01*
X0138802Y0127306D02*
X0225193Y0127306D01*
X0224826Y0127904D02*
X0138204Y0127904D01*
X0137605Y0128503D02*
X0224460Y0128503D01*
X0224093Y0129101D02*
X0137007Y0129101D01*
X0136408Y0129700D02*
X0223726Y0129700D01*
X0223359Y0130298D02*
X0135810Y0130298D01*
X0135211Y0130897D02*
X0222992Y0130897D01*
X0222626Y0131495D02*
X0134613Y0131495D01*
X0134014Y0132094D02*
X0222259Y0132094D01*
X0221892Y0132692D02*
X0133416Y0132692D01*
X0132817Y0133291D02*
X0221525Y0133291D01*
X0221159Y0133889D02*
X0132219Y0133889D01*
X0131620Y0134488D02*
X0220847Y0134488D01*
X0220599Y0135086D02*
X0131022Y0135086D01*
X0130423Y0135685D02*
X0220351Y0135685D01*
X0220103Y0136283D02*
X0129825Y0136283D01*
X0129226Y0136882D02*
X0219855Y0136882D01*
X0219607Y0137480D02*
X0128628Y0137480D01*
X0128029Y0138079D02*
X0219359Y0138079D01*
X0219111Y0138677D02*
X0127431Y0138677D01*
X0126832Y0139276D02*
X0218863Y0139276D01*
X0218615Y0139875D02*
X0126234Y0139875D01*
X0125635Y0140473D02*
X0218367Y0140473D01*
X0218120Y0141072D02*
X0125037Y0141072D01*
X0124438Y0141670D02*
X0217872Y0141670D01*
X0217624Y0142269D02*
X0123839Y0142269D01*
X0123241Y0142867D02*
X0217376Y0142867D01*
X0217132Y0143466D02*
X0122642Y0143466D01*
X0122044Y0144064D02*
X0216989Y0144064D01*
X0216845Y0144663D02*
X0121445Y0144663D01*
X0121868Y0145261D02*
X0216701Y0145261D01*
X0216558Y0145860D02*
X0122193Y0145860D01*
X0122193Y0146458D02*
X0190559Y0146458D01*
X0190862Y0146155D02*
X0192841Y0146155D01*
X0194240Y0147555D01*
X0194240Y0149534D01*
X0192841Y0150933D01*
X0190862Y0150933D01*
X0189462Y0149534D01*
X0189462Y0147555D01*
X0190862Y0146155D01*
X0189960Y0147057D02*
X0122193Y0147057D01*
X0122103Y0147655D02*
X0189462Y0147655D01*
X0189462Y0148254D02*
X0121504Y0148254D01*
X0120906Y0148852D02*
X0189462Y0148852D01*
X0189462Y0149451D02*
X0116657Y0149451D01*
X0116059Y0150049D02*
X0189978Y0150049D01*
X0190576Y0150648D02*
X0115460Y0150648D01*
X0114862Y0151246D02*
X0215264Y0151246D01*
X0215408Y0150648D02*
X0193126Y0150648D01*
X0193725Y0150049D02*
X0215552Y0150049D01*
X0215695Y0149451D02*
X0194240Y0149451D01*
X0194240Y0148852D02*
X0215839Y0148852D01*
X0215983Y0148254D02*
X0194240Y0148254D01*
X0194240Y0147655D02*
X0216126Y0147655D01*
X0216270Y0147057D02*
X0193742Y0147057D01*
X0193144Y0146458D02*
X0216414Y0146458D01*
X0215121Y0151845D02*
X0203255Y0151845D01*
X0203077Y0151667D02*
X0204476Y0153066D01*
X0204476Y0155045D01*
X0203077Y0156445D01*
X0201098Y0156445D01*
X0199698Y0155045D01*
X0199698Y0153066D01*
X0201098Y0151667D01*
X0203077Y0151667D01*
X0203853Y0152443D02*
X0214977Y0152443D01*
X0214833Y0153042D02*
X0204452Y0153042D01*
X0204476Y0153640D02*
X0214768Y0153640D01*
X0214721Y0154239D02*
X0204476Y0154239D01*
X0204476Y0154837D02*
X0214674Y0154837D01*
X0214627Y0155436D02*
X0204086Y0155436D01*
X0203487Y0156034D02*
X0214580Y0156034D01*
X0214533Y0156633D02*
X0147390Y0156633D01*
X0147390Y0156216D02*
X0145990Y0154817D01*
X0144011Y0154817D01*
X0142612Y0156216D01*
X0142612Y0158195D01*
X0144011Y0159594D01*
X0145990Y0159594D01*
X0147390Y0158195D01*
X0147390Y0156216D01*
X0147208Y0156034D02*
X0200687Y0156034D01*
X0200089Y0155436D02*
X0146610Y0155436D01*
X0146011Y0154837D02*
X0199698Y0154837D01*
X0199698Y0154239D02*
X0111869Y0154239D01*
X0111271Y0154837D02*
X0143990Y0154837D01*
X0143392Y0155436D02*
X0110672Y0155436D01*
X0110074Y0156034D02*
X0142793Y0156034D01*
X0142612Y0156633D02*
X0109475Y0156633D01*
X0108877Y0157231D02*
X0142612Y0157231D01*
X0142612Y0157830D02*
X0108278Y0157830D01*
X0107599Y0156812D02*
X0117415Y0146996D01*
X0117415Y0145586D01*
X0118394Y0144607D01*
X0117415Y0143628D01*
X0117415Y0141649D01*
X0118814Y0140250D01*
X0120793Y0140250D01*
X0122193Y0141649D01*
X0122193Y0142218D01*
X0149725Y0114686D01*
X0149725Y0086339D01*
X0140276Y0092245D01*
X0128072Y0092245D01*
X0123855Y0096461D01*
X0124949Y0097555D01*
X0124949Y0099534D01*
X0123549Y0100933D01*
X0121570Y0100933D01*
X0120224Y0099587D01*
X0120224Y0100321D01*
X0118825Y0101720D01*
X0116846Y0101720D01*
X0115446Y0100321D01*
X0115446Y0098342D01*
X0116819Y0096969D01*
X0115867Y0096969D01*
X0102087Y0110749D01*
X0096182Y0110749D01*
X0070198Y0136733D01*
X0062324Y0136733D01*
X0049331Y0149725D01*
X0049331Y0156812D01*
X0107599Y0156812D01*
X0107778Y0156633D02*
X0049331Y0156633D01*
X0049331Y0156034D02*
X0108377Y0156034D01*
X0108975Y0155436D02*
X0049331Y0155436D01*
X0049331Y0154837D02*
X0109574Y0154837D01*
X0110172Y0154239D02*
X0049331Y0154239D01*
X0049331Y0153640D02*
X0110771Y0153640D01*
X0111369Y0153042D02*
X0049331Y0153042D01*
X0049331Y0152443D02*
X0111968Y0152443D01*
X0112566Y0151845D02*
X0049331Y0151845D01*
X0049331Y0151246D02*
X0113165Y0151246D01*
X0113763Y0150648D02*
X0049331Y0150648D01*
X0049331Y0150049D02*
X0114362Y0150049D01*
X0114960Y0149451D02*
X0049606Y0149451D01*
X0050205Y0148852D02*
X0115559Y0148852D01*
X0116157Y0148254D02*
X0050803Y0148254D01*
X0051402Y0147655D02*
X0116756Y0147655D01*
X0117354Y0147057D02*
X0052000Y0147057D01*
X0052599Y0146458D02*
X0117415Y0146458D01*
X0117415Y0145860D02*
X0053197Y0145860D01*
X0053796Y0145261D02*
X0117740Y0145261D01*
X0118338Y0144663D02*
X0054394Y0144663D01*
X0054993Y0144064D02*
X0117851Y0144064D01*
X0117415Y0143466D02*
X0055591Y0143466D01*
X0056190Y0142867D02*
X0117415Y0142867D01*
X0117415Y0142269D02*
X0056788Y0142269D01*
X0057387Y0141670D02*
X0117415Y0141670D01*
X0117992Y0141072D02*
X0057985Y0141072D01*
X0058584Y0140473D02*
X0118591Y0140473D01*
X0121017Y0140473D02*
X0123938Y0140473D01*
X0124536Y0139875D02*
X0059182Y0139875D01*
X0059781Y0139276D02*
X0125135Y0139276D01*
X0125734Y0138677D02*
X0060379Y0138677D01*
X0060978Y0138079D02*
X0126332Y0138079D01*
X0126931Y0137480D02*
X0061576Y0137480D01*
X0062175Y0136882D02*
X0127529Y0136882D01*
X0128128Y0136283D02*
X0070647Y0136283D01*
X0071246Y0135685D02*
X0128726Y0135685D01*
X0129325Y0135086D02*
X0071844Y0135086D01*
X0072443Y0134488D02*
X0129923Y0134488D01*
X0130522Y0133889D02*
X0111853Y0133889D01*
X0111345Y0134398D02*
X0109366Y0134398D01*
X0107966Y0132998D01*
X0107966Y0131019D01*
X0109366Y0129620D01*
X0111345Y0129620D01*
X0112744Y0131019D01*
X0112744Y0132998D01*
X0111345Y0134398D01*
X0112451Y0133291D02*
X0131120Y0133291D01*
X0131719Y0132692D02*
X0112744Y0132692D01*
X0112744Y0132094D02*
X0132317Y0132094D01*
X0132916Y0131495D02*
X0112744Y0131495D01*
X0112622Y0130897D02*
X0133514Y0130897D01*
X0134113Y0130298D02*
X0112023Y0130298D01*
X0111425Y0129700D02*
X0134711Y0129700D01*
X0135310Y0129101D02*
X0077829Y0129101D01*
X0077231Y0129700D02*
X0099049Y0129700D01*
X0099129Y0129620D02*
X0101108Y0129620D01*
X0102508Y0131019D01*
X0102508Y0132998D01*
X0101108Y0134398D01*
X0099129Y0134398D01*
X0097730Y0132998D01*
X0097730Y0131019D01*
X0099129Y0129620D01*
X0099129Y0128886D02*
X0097730Y0127486D01*
X0097730Y0125507D01*
X0099129Y0124108D01*
X0101108Y0124108D01*
X0102508Y0125507D01*
X0102508Y0127486D01*
X0101108Y0128886D01*
X0099129Y0128886D01*
X0098746Y0128503D02*
X0078428Y0128503D01*
X0079026Y0127904D02*
X0098148Y0127904D01*
X0097730Y0127306D02*
X0079625Y0127306D01*
X0080223Y0126707D02*
X0097730Y0126707D01*
X0097730Y0126109D02*
X0080822Y0126109D01*
X0081420Y0125510D02*
X0097730Y0125510D01*
X0098325Y0124912D02*
X0082019Y0124912D01*
X0082617Y0124313D02*
X0098924Y0124313D01*
X0101314Y0124313D02*
X0104042Y0124313D01*
X0104247Y0124108D02*
X0106227Y0124108D01*
X0107626Y0125507D01*
X0107626Y0127486D01*
X0106227Y0128886D01*
X0104247Y0128886D01*
X0102848Y0127486D01*
X0102848Y0125507D01*
X0104247Y0124108D01*
X0103444Y0124912D02*
X0101912Y0124912D01*
X0102508Y0125510D02*
X0102848Y0125510D01*
X0102848Y0126109D02*
X0102508Y0126109D01*
X0102508Y0126707D02*
X0102848Y0126707D01*
X0102848Y0127306D02*
X0102508Y0127306D01*
X0102090Y0127904D02*
X0103266Y0127904D01*
X0103864Y0128503D02*
X0101491Y0128503D01*
X0101189Y0129700D02*
X0104167Y0129700D01*
X0104247Y0129620D02*
X0106227Y0129620D01*
X0107626Y0131019D01*
X0107626Y0132998D01*
X0106227Y0134398D01*
X0104247Y0134398D01*
X0102848Y0132998D01*
X0102848Y0131019D01*
X0104247Y0129620D01*
X0103569Y0130298D02*
X0101787Y0130298D01*
X0102386Y0130897D02*
X0102970Y0130897D01*
X0102848Y0131495D02*
X0102508Y0131495D01*
X0102508Y0132094D02*
X0102848Y0132094D01*
X0102848Y0132692D02*
X0102508Y0132692D01*
X0102215Y0133291D02*
X0103141Y0133291D01*
X0103739Y0133889D02*
X0101617Y0133889D01*
X0098621Y0133889D02*
X0073041Y0133889D01*
X0073640Y0133291D02*
X0098023Y0133291D01*
X0097730Y0132692D02*
X0074238Y0132692D01*
X0074837Y0132094D02*
X0097730Y0132094D01*
X0097730Y0131495D02*
X0075435Y0131495D01*
X0076034Y0130897D02*
X0097852Y0130897D01*
X0098451Y0130298D02*
X0076632Y0130298D01*
X0075073Y0129101D02*
X0042153Y0129101D01*
X0042587Y0128667D02*
X0041187Y0130067D01*
X0039208Y0130067D01*
X0037809Y0128667D01*
X0037809Y0126688D01*
X0039208Y0125289D01*
X0041187Y0125289D01*
X0042587Y0126688D01*
X0042587Y0128667D01*
X0042587Y0128503D02*
X0075672Y0128503D01*
X0076271Y0127904D02*
X0042587Y0127904D01*
X0042587Y0127306D02*
X0076869Y0127306D01*
X0077468Y0126707D02*
X0042587Y0126707D01*
X0042007Y0126109D02*
X0078066Y0126109D01*
X0078665Y0125510D02*
X0041408Y0125510D01*
X0038987Y0125510D02*
X0033965Y0125510D01*
X0034242Y0124912D02*
X0079263Y0124912D01*
X0079862Y0124313D02*
X0034519Y0124313D01*
X0034796Y0123715D02*
X0080460Y0123715D01*
X0081059Y0123116D02*
X0035088Y0123116D01*
X0035461Y0122518D02*
X0041838Y0122518D01*
X0040393Y0121919D02*
X0035834Y0121919D01*
X0036206Y0121321D02*
X0039053Y0121321D01*
X0038455Y0120722D02*
X0036579Y0120722D01*
X0036951Y0120124D02*
X0037856Y0120124D01*
X0044857Y0122518D02*
X0081657Y0122518D01*
X0082256Y0121919D02*
X0052485Y0121919D01*
X0053083Y0121321D02*
X0082854Y0121321D01*
X0083453Y0120722D02*
X0053682Y0120722D01*
X0053689Y0120124D02*
X0084051Y0120124D01*
X0084650Y0119525D02*
X0053689Y0119525D01*
X0053689Y0118927D02*
X0085248Y0118927D01*
X0085847Y0118328D02*
X0053281Y0118328D01*
X0052683Y0117730D02*
X0086445Y0117730D01*
X0087044Y0117131D02*
X0050561Y0117131D01*
X0050797Y0116533D02*
X0087642Y0116533D01*
X0088241Y0115934D02*
X0050797Y0115934D01*
X0050797Y0115336D02*
X0074319Y0115336D01*
X0074720Y0115736D02*
X0073320Y0114337D01*
X0073320Y0112358D01*
X0074720Y0110958D01*
X0076699Y0110958D01*
X0078098Y0112358D01*
X0078098Y0114337D01*
X0076699Y0115736D01*
X0074720Y0115736D01*
X0073721Y0114737D02*
X0050797Y0114737D01*
X0050797Y0114139D02*
X0073320Y0114139D01*
X0073320Y0113540D02*
X0050773Y0113540D01*
X0050525Y0112942D02*
X0073320Y0112942D01*
X0073335Y0112343D02*
X0050277Y0112343D01*
X0050029Y0111744D02*
X0073934Y0111744D01*
X0074532Y0111146D02*
X0049781Y0111146D01*
X0049351Y0110547D02*
X0063153Y0110547D01*
X0063224Y0110618D02*
X0061824Y0109219D01*
X0061824Y0107240D01*
X0063224Y0105840D01*
X0065203Y0105840D01*
X0066602Y0107240D01*
X0066602Y0109219D01*
X0065203Y0110618D01*
X0063224Y0110618D01*
X0062555Y0109949D02*
X0048752Y0109949D01*
X0048153Y0109350D02*
X0061956Y0109350D01*
X0061824Y0108752D02*
X0047538Y0108752D01*
X0046093Y0108153D02*
X0061824Y0108153D01*
X0061824Y0107555D02*
X0046058Y0107555D01*
X0046542Y0106956D02*
X0062108Y0106956D01*
X0062706Y0106358D02*
X0047027Y0106358D01*
X0047641Y0105759D02*
X0104715Y0105759D01*
X0105313Y0105161D02*
X0048263Y0105161D01*
X0048885Y0104562D02*
X0105912Y0104562D01*
X0106510Y0103964D02*
X0049506Y0103964D01*
X0050128Y0103365D02*
X0107109Y0103365D01*
X0107707Y0102767D02*
X0050750Y0102767D01*
X0051371Y0102168D02*
X0108306Y0102168D01*
X0108904Y0101570D02*
X0051993Y0101570D01*
X0052615Y0100971D02*
X0078144Y0100971D01*
X0078578Y0101405D02*
X0077179Y0100006D01*
X0077179Y0098027D01*
X0078578Y0096628D01*
X0080557Y0096628D01*
X0081957Y0098027D01*
X0081957Y0100006D01*
X0080557Y0101405D01*
X0078578Y0101405D01*
X0077545Y0100373D02*
X0053237Y0100373D01*
X0053858Y0099774D02*
X0077179Y0099774D01*
X0077179Y0099176D02*
X0054480Y0099176D01*
X0055264Y0098577D02*
X0077179Y0098577D01*
X0077227Y0097979D02*
X0056063Y0097979D01*
X0056863Y0097380D02*
X0077826Y0097380D01*
X0078424Y0096782D02*
X0057662Y0096782D01*
X0058461Y0096183D02*
X0114291Y0096183D01*
X0114889Y0095585D02*
X0059261Y0095585D01*
X0060060Y0094986D02*
X0122181Y0094986D01*
X0122779Y0094388D02*
X0084582Y0094388D01*
X0085960Y0093789D02*
X0123378Y0093789D01*
X0123976Y0093191D02*
X0086559Y0093191D01*
X0087157Y0092592D02*
X0124575Y0092592D01*
X0125173Y0091994D02*
X0087756Y0091994D01*
X0088152Y0091395D02*
X0093843Y0091395D01*
X0094169Y0091720D02*
X0092769Y0090321D01*
X0092769Y0088342D01*
X0094169Y0086943D01*
X0096148Y0086943D01*
X0097547Y0088342D01*
X0097547Y0090321D01*
X0096148Y0091720D01*
X0094169Y0091720D01*
X0093245Y0090797D02*
X0088400Y0090797D01*
X0088648Y0090198D02*
X0092769Y0090198D01*
X0092769Y0089600D02*
X0088896Y0089600D01*
X0089143Y0089001D02*
X0092769Y0089001D01*
X0092769Y0088403D02*
X0089143Y0088403D01*
X0089143Y0087804D02*
X0093307Y0087804D01*
X0093906Y0087206D02*
X0089143Y0087206D01*
X0089143Y0086607D02*
X0142765Y0086607D01*
X0143363Y0086009D02*
X0089131Y0086009D01*
X0088883Y0085410D02*
X0143962Y0085410D01*
X0144560Y0084811D02*
X0088635Y0084811D01*
X0088387Y0084213D02*
X0145159Y0084213D01*
X0145757Y0083614D02*
X0088139Y0083614D01*
X0087724Y0083016D02*
X0146356Y0083016D01*
X0146954Y0082417D02*
X0087126Y0082417D01*
X0086527Y0081819D02*
X0147553Y0081819D01*
X0148151Y0081220D02*
X0086736Y0081220D01*
X0088122Y0080622D02*
X0148750Y0080622D01*
X0149348Y0080023D02*
X0089507Y0080023D01*
X0096411Y0087206D02*
X0142166Y0087206D01*
X0141568Y0087804D02*
X0097009Y0087804D01*
X0097547Y0088403D02*
X0140969Y0088403D01*
X0140371Y0089001D02*
X0097547Y0089001D01*
X0097547Y0089600D02*
X0139772Y0089600D01*
X0139174Y0090198D02*
X0097547Y0090198D01*
X0097072Y0090797D02*
X0126370Y0090797D01*
X0125772Y0091395D02*
X0096473Y0091395D01*
X0081908Y0097979D02*
X0112495Y0097979D01*
X0111897Y0098577D02*
X0081957Y0098577D01*
X0081957Y0099176D02*
X0111298Y0099176D01*
X0110700Y0099774D02*
X0081957Y0099774D01*
X0081590Y0100373D02*
X0110101Y0100373D01*
X0109503Y0100971D02*
X0080991Y0100971D01*
X0081310Y0097380D02*
X0113094Y0097380D01*
X0113692Y0096782D02*
X0080711Y0096782D01*
X0078806Y0094388D02*
X0060860Y0094388D01*
X0061659Y0093789D02*
X0077427Y0093789D01*
X0076829Y0093191D02*
X0062459Y0093191D01*
X0063385Y0092592D02*
X0076230Y0092592D01*
X0075632Y0091994D02*
X0064433Y0091994D01*
X0065481Y0091395D02*
X0075235Y0091395D01*
X0074987Y0090797D02*
X0066529Y0090797D01*
X0067577Y0090198D02*
X0074739Y0090198D01*
X0074491Y0089600D02*
X0068625Y0089600D01*
X0069673Y0089001D02*
X0074244Y0089001D01*
X0074244Y0088403D02*
X0070721Y0088403D01*
X0071769Y0087804D02*
X0074244Y0087804D01*
X0074244Y0087206D02*
X0073062Y0087206D01*
X0065721Y0106358D02*
X0104116Y0106358D01*
X0103518Y0106956D02*
X0066319Y0106956D01*
X0066602Y0107555D02*
X0102919Y0107555D01*
X0102321Y0108153D02*
X0066602Y0108153D01*
X0066602Y0108752D02*
X0101722Y0108752D01*
X0102887Y0109949D02*
X0149725Y0109949D01*
X0149725Y0110547D02*
X0102289Y0110547D01*
X0103486Y0109350D02*
X0149725Y0109350D01*
X0149725Y0108752D02*
X0104084Y0108752D01*
X0104683Y0108153D02*
X0149725Y0108153D01*
X0149725Y0107555D02*
X0145668Y0107555D01*
X0145203Y0108020D02*
X0143224Y0108020D01*
X0141824Y0106620D01*
X0141824Y0104641D01*
X0143224Y0103242D01*
X0145203Y0103242D01*
X0146602Y0104641D01*
X0146602Y0106620D01*
X0145203Y0108020D01*
X0146266Y0106956D02*
X0149725Y0106956D01*
X0149725Y0106358D02*
X0146602Y0106358D01*
X0146602Y0105759D02*
X0149725Y0105759D01*
X0149725Y0105161D02*
X0146602Y0105161D01*
X0146524Y0104562D02*
X0149725Y0104562D01*
X0149725Y0103964D02*
X0145925Y0103964D01*
X0145327Y0103365D02*
X0149725Y0103365D01*
X0149725Y0102767D02*
X0143059Y0102767D01*
X0143059Y0103077D02*
X0141660Y0104476D01*
X0139681Y0104476D01*
X0138281Y0103077D01*
X0138281Y0101098D01*
X0139681Y0099698D01*
X0141660Y0099698D01*
X0143059Y0101098D01*
X0143059Y0103077D01*
X0143100Y0103365D02*
X0142771Y0103365D01*
X0142502Y0103964D02*
X0142172Y0103964D01*
X0141903Y0104562D02*
X0108274Y0104562D01*
X0108872Y0103964D02*
X0139168Y0103964D01*
X0138569Y0103365D02*
X0109471Y0103365D01*
X0110069Y0102767D02*
X0138281Y0102767D01*
X0138281Y0102168D02*
X0110668Y0102168D01*
X0111266Y0101570D02*
X0116695Y0101570D01*
X0116097Y0100971D02*
X0111865Y0100971D01*
X0112463Y0100373D02*
X0115498Y0100373D01*
X0115446Y0099774D02*
X0113062Y0099774D01*
X0113660Y0099176D02*
X0115446Y0099176D01*
X0115446Y0098577D02*
X0114259Y0098577D01*
X0114857Y0097979D02*
X0115810Y0097979D01*
X0115456Y0097380D02*
X0116408Y0097380D01*
X0120224Y0099774D02*
X0120412Y0099774D01*
X0120173Y0100373D02*
X0121010Y0100373D01*
X0119574Y0100971D02*
X0138408Y0100971D01*
X0138281Y0101570D02*
X0118976Y0101570D01*
X0124110Y0100373D02*
X0139006Y0100373D01*
X0139605Y0099774D02*
X0124708Y0099774D01*
X0124949Y0099176D02*
X0149725Y0099176D01*
X0149725Y0099774D02*
X0141735Y0099774D01*
X0142334Y0100373D02*
X0149725Y0100373D01*
X0149725Y0100971D02*
X0142932Y0100971D01*
X0143059Y0101570D02*
X0149725Y0101570D01*
X0149725Y0102168D02*
X0143059Y0102168D01*
X0141824Y0105161D02*
X0107675Y0105161D01*
X0107077Y0105759D02*
X0141824Y0105759D01*
X0141824Y0106358D02*
X0106478Y0106358D01*
X0105880Y0106956D02*
X0142161Y0106956D01*
X0142759Y0107555D02*
X0105281Y0107555D01*
X0095785Y0111146D02*
X0149725Y0111146D01*
X0149725Y0111744D02*
X0095186Y0111744D01*
X0094588Y0112343D02*
X0149725Y0112343D01*
X0149725Y0112942D02*
X0123013Y0112942D01*
X0122762Y0112691D02*
X0124161Y0114090D01*
X0124161Y0116069D01*
X0122762Y0117468D01*
X0120783Y0117468D01*
X0119383Y0116069D01*
X0119383Y0114090D01*
X0120783Y0112691D01*
X0122762Y0112691D01*
X0123611Y0113540D02*
X0149725Y0113540D01*
X0149725Y0114139D02*
X0124161Y0114139D01*
X0124161Y0114737D02*
X0149674Y0114737D01*
X0149075Y0115336D02*
X0124161Y0115336D01*
X0124161Y0115934D02*
X0148477Y0115934D01*
X0147878Y0116533D02*
X0123698Y0116533D01*
X0123099Y0117131D02*
X0147280Y0117131D01*
X0146681Y0117730D02*
X0089201Y0117730D01*
X0088603Y0118328D02*
X0146083Y0118328D01*
X0145484Y0118927D02*
X0088004Y0118927D01*
X0087406Y0119525D02*
X0144886Y0119525D01*
X0144287Y0120124D02*
X0086807Y0120124D01*
X0086209Y0120722D02*
X0143689Y0120722D01*
X0143090Y0121321D02*
X0085610Y0121321D01*
X0085012Y0121919D02*
X0142492Y0121919D01*
X0141893Y0122518D02*
X0084413Y0122518D01*
X0083815Y0123116D02*
X0141295Y0123116D01*
X0140696Y0123715D02*
X0083216Y0123715D01*
X0089800Y0117131D02*
X0120445Y0117131D01*
X0119847Y0116533D02*
X0090398Y0116533D01*
X0090997Y0115934D02*
X0119383Y0115934D01*
X0119383Y0115336D02*
X0091595Y0115336D01*
X0092194Y0114737D02*
X0119383Y0114737D01*
X0119383Y0114139D02*
X0092792Y0114139D01*
X0093391Y0113540D02*
X0119933Y0113540D01*
X0120532Y0112942D02*
X0093989Y0112942D01*
X0092430Y0111744D02*
X0077485Y0111744D01*
X0076887Y0111146D02*
X0093029Y0111146D01*
X0093627Y0110547D02*
X0065274Y0110547D01*
X0065872Y0109949D02*
X0094226Y0109949D01*
X0094824Y0109350D02*
X0066471Y0109350D01*
X0078084Y0112343D02*
X0091832Y0112343D01*
X0091233Y0112942D02*
X0078098Y0112942D01*
X0078098Y0113540D02*
X0090635Y0113540D01*
X0090036Y0114139D02*
X0078098Y0114139D01*
X0077698Y0114737D02*
X0089438Y0114737D01*
X0088839Y0115336D02*
X0077100Y0115336D01*
X0074475Y0129700D02*
X0041554Y0129700D01*
X0038841Y0129700D02*
X0032028Y0129700D01*
X0031751Y0130298D02*
X0073876Y0130298D01*
X0073278Y0130897D02*
X0031474Y0130897D01*
X0031198Y0131495D02*
X0072679Y0131495D01*
X0072081Y0132094D02*
X0030921Y0132094D01*
X0030651Y0132692D02*
X0071482Y0132692D01*
X0070884Y0133291D02*
X0030460Y0133291D01*
X0030269Y0133889D02*
X0070285Y0133889D01*
X0069687Y0134488D02*
X0030077Y0134488D01*
X0029886Y0135086D02*
X0069088Y0135086D01*
X0060222Y0135685D02*
X0029695Y0135685D01*
X0029503Y0136283D02*
X0059624Y0136283D01*
X0059025Y0136882D02*
X0029312Y0136882D01*
X0029121Y0137480D02*
X0058427Y0137480D01*
X0057828Y0138079D02*
X0028929Y0138079D01*
X0028738Y0138677D02*
X0057230Y0138677D01*
X0056631Y0139276D02*
X0028547Y0139276D01*
X0028355Y0139875D02*
X0056033Y0139875D01*
X0055434Y0140473D02*
X0028164Y0140473D01*
X0027973Y0141072D02*
X0054836Y0141072D01*
X0054237Y0141670D02*
X0027781Y0141670D01*
X0027590Y0142269D02*
X0053639Y0142269D01*
X0053040Y0142867D02*
X0027442Y0142867D01*
X0027330Y0143466D02*
X0052441Y0143466D01*
X0051843Y0144064D02*
X0027218Y0144064D01*
X0027105Y0144663D02*
X0051244Y0144663D01*
X0050646Y0145261D02*
X0026993Y0145261D01*
X0026880Y0145860D02*
X0050047Y0145860D01*
X0049449Y0146458D02*
X0026768Y0146458D01*
X0026656Y0147057D02*
X0048850Y0147057D01*
X0048252Y0147655D02*
X0026543Y0147655D01*
X0026431Y0148254D02*
X0047757Y0148254D01*
X0047757Y0148852D02*
X0026318Y0148852D01*
X0026206Y0149451D02*
X0047757Y0149451D01*
X0047757Y0150049D02*
X0026094Y0150049D01*
X0025981Y0150648D02*
X0047757Y0150648D01*
X0047757Y0151246D02*
X0025869Y0151246D01*
X0025756Y0151845D02*
X0047757Y0151845D01*
X0047757Y0152443D02*
X0025644Y0152443D01*
X0025569Y0153042D02*
X0047757Y0153042D01*
X0047757Y0153640D02*
X0025532Y0153640D01*
X0025495Y0154239D02*
X0047757Y0154239D01*
X0047757Y0154837D02*
X0025458Y0154837D01*
X0025421Y0155436D02*
X0047757Y0155436D01*
X0047757Y0156034D02*
X0025384Y0156034D01*
X0025347Y0156633D02*
X0047757Y0156633D01*
X0047337Y0157231D02*
X0025310Y0157231D01*
X0025272Y0157830D02*
X0046739Y0157830D01*
X0046140Y0158428D02*
X0025235Y0158428D01*
X0025198Y0159027D02*
X0045542Y0159027D01*
X0044943Y0159625D02*
X0025161Y0159625D01*
X0025124Y0160224D02*
X0044345Y0160224D01*
X0043746Y0160822D02*
X0025087Y0160822D01*
X0025050Y0161421D02*
X0043148Y0161421D01*
X0043032Y0162019D02*
X0025013Y0162019D01*
X0024976Y0162618D02*
X0043032Y0162618D01*
X0043032Y0163216D02*
X0024952Y0163216D01*
X0024989Y0163815D02*
X0043032Y0163815D01*
X0043032Y0164413D02*
X0025026Y0164413D01*
X0025063Y0165012D02*
X0043032Y0165012D01*
X0043032Y0165611D02*
X0025100Y0165611D01*
X0025137Y0166209D02*
X0043032Y0166209D01*
X0043032Y0166808D02*
X0025174Y0166808D01*
X0025211Y0167406D02*
X0043032Y0167406D01*
X0043032Y0168005D02*
X0025248Y0168005D01*
X0025286Y0168603D02*
X0043032Y0168603D01*
X0043032Y0169202D02*
X0025323Y0169202D01*
X0025360Y0169800D02*
X0043032Y0169800D01*
X0043032Y0170399D02*
X0025397Y0170399D01*
X0025434Y0170997D02*
X0043032Y0170997D01*
X0043032Y0171596D02*
X0025471Y0171596D01*
X0025508Y0172194D02*
X0043032Y0172194D01*
X0043032Y0172793D02*
X0025545Y0172793D01*
X0025582Y0173391D02*
X0043032Y0173391D01*
X0043032Y0173990D02*
X0025684Y0173990D01*
X0025796Y0174588D02*
X0043032Y0174588D01*
X0043032Y0175187D02*
X0025908Y0175187D01*
X0026021Y0175785D02*
X0043032Y0175785D01*
X0043032Y0176384D02*
X0026133Y0176384D01*
X0026246Y0176982D02*
X0043032Y0176982D01*
X0043032Y0177581D02*
X0026358Y0177581D01*
X0026470Y0178179D02*
X0043032Y0178179D01*
X0043032Y0178778D02*
X0026583Y0178778D01*
X0026695Y0179376D02*
X0043032Y0179376D01*
X0043032Y0179975D02*
X0026808Y0179975D01*
X0026920Y0180573D02*
X0043032Y0180573D01*
X0043032Y0181172D02*
X0027032Y0181172D01*
X0027145Y0181770D02*
X0042483Y0181770D01*
X0041885Y0182369D02*
X0027257Y0182369D01*
X0027658Y0184164D02*
X0167419Y0184164D01*
X0168018Y0183566D02*
X0042385Y0183566D01*
X0042983Y0182967D02*
X0217215Y0182967D01*
X0217039Y0182369D02*
X0043582Y0182369D01*
X0044180Y0181770D02*
X0216896Y0181770D01*
X0216752Y0181172D02*
X0044232Y0181172D01*
X0044232Y0180573D02*
X0216608Y0180573D01*
X0216465Y0179975D02*
X0164586Y0179975D01*
X0164101Y0180461D02*
X0165500Y0179061D01*
X0165500Y0177082D01*
X0164101Y0175683D01*
X0162121Y0175683D01*
X0160722Y0177082D01*
X0160722Y0179061D01*
X0162121Y0180461D01*
X0164101Y0180461D01*
X0165185Y0179376D02*
X0216321Y0179376D01*
X0216177Y0178778D02*
X0165500Y0178778D01*
X0165500Y0178179D02*
X0216033Y0178179D01*
X0215890Y0177581D02*
X0165500Y0177581D01*
X0165400Y0176982D02*
X0215746Y0176982D01*
X0215602Y0176384D02*
X0164802Y0176384D01*
X0164203Y0175785D02*
X0215459Y0175785D01*
X0215315Y0175187D02*
X0118329Y0175187D01*
X0118038Y0174895D02*
X0119437Y0176295D01*
X0119437Y0178274D01*
X0118038Y0179673D01*
X0116058Y0179673D01*
X0114659Y0178274D01*
X0114659Y0176295D01*
X0116058Y0174895D01*
X0118038Y0174895D01*
X0118927Y0175785D02*
X0152176Y0175785D01*
X0152755Y0175207D02*
X0154734Y0175207D01*
X0156134Y0176606D01*
X0156134Y0178585D01*
X0154734Y0179985D01*
X0152755Y0179985D01*
X0151356Y0178585D01*
X0151356Y0176606D01*
X0152755Y0175207D01*
X0151578Y0176384D02*
X0119437Y0176384D01*
X0119437Y0176982D02*
X0151356Y0176982D01*
X0151356Y0177581D02*
X0119437Y0177581D01*
X0119437Y0178179D02*
X0151356Y0178179D01*
X0151548Y0178778D02*
X0118933Y0178778D01*
X0118335Y0179376D02*
X0152147Y0179376D01*
X0152745Y0179975D02*
X0044232Y0179975D01*
X0044232Y0179376D02*
X0115762Y0179376D01*
X0115163Y0178778D02*
X0044232Y0178778D01*
X0044232Y0178179D02*
X0114659Y0178179D01*
X0114659Y0177581D02*
X0044232Y0177581D01*
X0044232Y0176982D02*
X0114659Y0176982D01*
X0114659Y0176384D02*
X0044232Y0176384D01*
X0044232Y0175785D02*
X0115169Y0175785D01*
X0115767Y0175187D02*
X0044232Y0175187D01*
X0044232Y0174588D02*
X0200737Y0174588D01*
X0201098Y0174949D02*
X0199698Y0173549D01*
X0199698Y0171570D01*
X0201098Y0170171D01*
X0203077Y0170171D01*
X0204476Y0171570D01*
X0204476Y0173549D01*
X0203077Y0174949D01*
X0201098Y0174949D01*
X0200139Y0173990D02*
X0150099Y0173990D01*
X0149534Y0174555D02*
X0150933Y0173156D01*
X0150933Y0171177D01*
X0149534Y0169777D01*
X0147555Y0169777D01*
X0146155Y0171177D01*
X0146155Y0173156D01*
X0147555Y0174555D01*
X0149534Y0174555D01*
X0150698Y0173391D02*
X0199698Y0173391D01*
X0199698Y0172793D02*
X0150933Y0172793D01*
X0150933Y0172194D02*
X0199698Y0172194D01*
X0199698Y0171596D02*
X0150933Y0171596D01*
X0150754Y0170997D02*
X0200272Y0170997D01*
X0200870Y0170399D02*
X0150155Y0170399D01*
X0149557Y0169800D02*
X0214549Y0169800D01*
X0214502Y0169202D02*
X0116304Y0169202D01*
X0116069Y0169437D02*
X0114090Y0169437D01*
X0112691Y0168038D01*
X0112691Y0166058D01*
X0114090Y0164659D01*
X0116069Y0164659D01*
X0117468Y0166058D01*
X0117468Y0168038D01*
X0116069Y0169437D01*
X0116903Y0168603D02*
X0214455Y0168603D01*
X0214408Y0168005D02*
X0117468Y0168005D01*
X0117468Y0167406D02*
X0214361Y0167406D01*
X0214314Y0166808D02*
X0117468Y0166808D01*
X0117468Y0166209D02*
X0214267Y0166209D01*
X0214220Y0165611D02*
X0117021Y0165611D01*
X0116422Y0165012D02*
X0214172Y0165012D01*
X0214125Y0164413D02*
X0044232Y0164413D01*
X0044232Y0163815D02*
X0113586Y0163815D01*
X0114090Y0164319D02*
X0112691Y0162919D01*
X0112691Y0160940D01*
X0114090Y0159541D01*
X0116069Y0159541D01*
X0117468Y0160940D01*
X0117468Y0162919D01*
X0116069Y0164319D01*
X0114090Y0164319D01*
X0113737Y0165012D02*
X0044232Y0165012D01*
X0044232Y0165611D02*
X0113139Y0165611D01*
X0112691Y0166209D02*
X0044232Y0166209D01*
X0044232Y0166808D02*
X0112691Y0166808D01*
X0112691Y0167406D02*
X0044232Y0167406D01*
X0044232Y0168005D02*
X0112691Y0168005D01*
X0113256Y0168603D02*
X0044232Y0168603D01*
X0044232Y0169202D02*
X0113855Y0169202D01*
X0116573Y0163815D02*
X0214078Y0163815D01*
X0214031Y0163216D02*
X0117171Y0163216D01*
X0117468Y0162618D02*
X0214062Y0162618D01*
X0214109Y0162019D02*
X0117468Y0162019D01*
X0117468Y0161421D02*
X0214156Y0161421D01*
X0214203Y0160822D02*
X0117351Y0160822D01*
X0116752Y0160224D02*
X0214250Y0160224D01*
X0214297Y0159625D02*
X0116154Y0159625D01*
X0114006Y0159625D02*
X0046640Y0159625D01*
X0047239Y0159027D02*
X0143444Y0159027D01*
X0142845Y0158428D02*
X0047837Y0158428D01*
X0048436Y0157830D02*
X0048652Y0157830D01*
X0046042Y0160224D02*
X0113407Y0160224D01*
X0112809Y0160822D02*
X0045443Y0160822D01*
X0044845Y0161421D02*
X0112691Y0161421D01*
X0112691Y0162019D02*
X0044246Y0162019D01*
X0044232Y0162618D02*
X0112691Y0162618D01*
X0112988Y0163216D02*
X0044232Y0163216D01*
X0044232Y0169800D02*
X0147532Y0169800D01*
X0146933Y0170399D02*
X0044232Y0170399D01*
X0044232Y0170997D02*
X0146335Y0170997D01*
X0146155Y0171596D02*
X0044232Y0171596D01*
X0044232Y0172194D02*
X0146155Y0172194D01*
X0146155Y0172793D02*
X0044232Y0172793D01*
X0044232Y0173391D02*
X0146391Y0173391D01*
X0146989Y0173990D02*
X0044232Y0173990D01*
X0028231Y0185960D02*
X0166628Y0185960D01*
X0166628Y0186558D02*
X0028423Y0186558D01*
X0028614Y0187157D02*
X0166849Y0187157D01*
X0166628Y0186935D02*
X0166628Y0184956D01*
X0168027Y0183557D01*
X0170006Y0183557D01*
X0171405Y0184956D01*
X0171405Y0186935D01*
X0170006Y0188335D01*
X0168027Y0188335D01*
X0166628Y0186935D01*
X0167448Y0187755D02*
X0028805Y0187755D01*
X0028997Y0188354D02*
X0173714Y0188354D01*
X0173714Y0188904D02*
X0173714Y0186925D01*
X0175114Y0185525D01*
X0177093Y0185525D01*
X0178492Y0186925D01*
X0178492Y0188904D01*
X0177093Y0190303D01*
X0175114Y0190303D01*
X0173714Y0188904D01*
X0173763Y0188952D02*
X0029188Y0188952D01*
X0029379Y0189551D02*
X0174361Y0189551D01*
X0174960Y0190149D02*
X0029571Y0190149D01*
X0029762Y0190748D02*
X0180283Y0190748D01*
X0180881Y0191346D02*
X0029953Y0191346D01*
X0030145Y0191945D02*
X0190535Y0191945D01*
X0191134Y0192544D02*
X0030336Y0192544D01*
X0030527Y0193142D02*
X0098993Y0193142D01*
X0099523Y0192612D02*
X0101502Y0192612D01*
X0102902Y0194011D01*
X0102902Y0195990D01*
X0101502Y0197390D01*
X0099523Y0197390D01*
X0098124Y0195990D01*
X0098124Y0194011D01*
X0099523Y0192612D01*
X0098394Y0193741D02*
X0030742Y0193741D01*
X0031018Y0194339D02*
X0098124Y0194339D01*
X0098124Y0194938D02*
X0031295Y0194938D01*
X0031572Y0195536D02*
X0098124Y0195536D01*
X0098268Y0196135D02*
X0031849Y0196135D01*
X0032125Y0196733D02*
X0098866Y0196733D01*
X0099465Y0197332D02*
X0032402Y0197332D01*
X0032679Y0197930D02*
X0136914Y0197930D01*
X0137512Y0198529D02*
X0032956Y0198529D01*
X0033232Y0199127D02*
X0225322Y0199127D01*
X0224956Y0198529D02*
X0139891Y0198529D01*
X0139691Y0198728D02*
X0137712Y0198728D01*
X0136313Y0197329D01*
X0136313Y0195350D01*
X0137712Y0193950D01*
X0139691Y0193950D01*
X0141091Y0195350D01*
X0141091Y0197329D01*
X0139691Y0198728D01*
X0140489Y0197930D02*
X0224589Y0197930D01*
X0224222Y0197332D02*
X0141088Y0197332D01*
X0141091Y0196733D02*
X0223855Y0196733D01*
X0223488Y0196135D02*
X0141091Y0196135D01*
X0141091Y0195536D02*
X0223122Y0195536D01*
X0222755Y0194938D02*
X0140678Y0194938D01*
X0140080Y0194339D02*
X0222388Y0194339D01*
X0222021Y0193741D02*
X0102631Y0193741D01*
X0102902Y0194339D02*
X0137323Y0194339D01*
X0136725Y0194938D02*
X0102902Y0194938D01*
X0102902Y0195536D02*
X0136313Y0195536D01*
X0136313Y0196135D02*
X0102757Y0196135D01*
X0102159Y0196733D02*
X0136313Y0196733D01*
X0136315Y0197332D02*
X0101560Y0197332D01*
X0093846Y0200704D02*
X0092447Y0199305D01*
X0090468Y0199305D01*
X0089069Y0200704D01*
X0089069Y0202683D01*
X0090468Y0204083D01*
X0092447Y0204083D01*
X0093846Y0202683D01*
X0093846Y0200704D01*
X0093846Y0200923D02*
X0226518Y0200923D01*
X0226056Y0200324D02*
X0093466Y0200324D01*
X0092868Y0199726D02*
X0225689Y0199726D01*
X0227029Y0201521D02*
X0093846Y0201521D01*
X0093846Y0202120D02*
X0227541Y0202120D01*
X0228052Y0202718D02*
X0093811Y0202718D01*
X0093213Y0203317D02*
X0110078Y0203317D01*
X0110153Y0203242D02*
X0112132Y0203242D01*
X0113531Y0204641D01*
X0113531Y0206620D01*
X0112132Y0208020D01*
X0110153Y0208020D01*
X0108754Y0206620D01*
X0108754Y0204641D01*
X0110153Y0203242D01*
X0109479Y0203915D02*
X0092614Y0203915D01*
X0090300Y0203915D02*
X0080803Y0203915D01*
X0080636Y0204083D02*
X0078657Y0204083D01*
X0077257Y0202683D01*
X0077257Y0200704D01*
X0078657Y0199305D01*
X0080636Y0199305D01*
X0082035Y0200704D01*
X0082035Y0202683D01*
X0080636Y0204083D01*
X0081402Y0203317D02*
X0089702Y0203317D01*
X0089103Y0202718D02*
X0082000Y0202718D01*
X0082035Y0202120D02*
X0089069Y0202120D01*
X0089069Y0201521D02*
X0082035Y0201521D01*
X0082035Y0200923D02*
X0089069Y0200923D01*
X0089448Y0200324D02*
X0081655Y0200324D01*
X0081057Y0199726D02*
X0090047Y0199726D01*
X0102032Y0193142D02*
X0221655Y0193142D01*
X0221288Y0192544D02*
X0193356Y0192544D01*
X0193234Y0192665D02*
X0191255Y0192665D01*
X0189856Y0191266D01*
X0189856Y0189287D01*
X0191255Y0187887D01*
X0193234Y0187887D01*
X0194634Y0189287D01*
X0194634Y0191266D01*
X0193234Y0192665D01*
X0193955Y0191945D02*
X0220934Y0191945D01*
X0220686Y0191346D02*
X0194553Y0191346D01*
X0194634Y0190748D02*
X0220438Y0190748D01*
X0220190Y0190149D02*
X0194634Y0190149D01*
X0194634Y0189551D02*
X0219942Y0189551D01*
X0219694Y0188952D02*
X0194299Y0188952D01*
X0193701Y0188354D02*
X0219447Y0188354D01*
X0219199Y0187755D02*
X0184047Y0187755D01*
X0184398Y0188106D02*
X0182998Y0186706D01*
X0181019Y0186706D01*
X0179620Y0188106D01*
X0179620Y0190085D01*
X0181019Y0191484D01*
X0182998Y0191484D01*
X0184398Y0190085D01*
X0184398Y0188106D01*
X0184398Y0188354D02*
X0190789Y0188354D01*
X0190190Y0188952D02*
X0184398Y0188952D01*
X0184398Y0189551D02*
X0189856Y0189551D01*
X0189856Y0190149D02*
X0184333Y0190149D01*
X0183734Y0190748D02*
X0189856Y0190748D01*
X0189936Y0191346D02*
X0183136Y0191346D01*
X0179684Y0190149D02*
X0177246Y0190149D01*
X0177845Y0189551D02*
X0179620Y0189551D01*
X0179620Y0188952D02*
X0178443Y0188952D01*
X0178492Y0188354D02*
X0179620Y0188354D01*
X0179970Y0187755D02*
X0178492Y0187755D01*
X0178492Y0187157D02*
X0180568Y0187157D01*
X0178126Y0186558D02*
X0218703Y0186558D01*
X0218455Y0185960D02*
X0177527Y0185960D01*
X0174679Y0185960D02*
X0171405Y0185960D01*
X0171405Y0186558D02*
X0174080Y0186558D01*
X0173714Y0187157D02*
X0171184Y0187157D01*
X0170585Y0187755D02*
X0173714Y0187755D01*
X0171405Y0185361D02*
X0218207Y0185361D01*
X0217959Y0184763D02*
X0171212Y0184763D01*
X0170614Y0184164D02*
X0217711Y0184164D01*
X0217463Y0183566D02*
X0170015Y0183566D01*
X0166821Y0184763D02*
X0027849Y0184763D01*
X0028040Y0185361D02*
X0166628Y0185361D01*
X0161636Y0179975D02*
X0154744Y0179975D01*
X0155342Y0179376D02*
X0161037Y0179376D01*
X0160722Y0178778D02*
X0155941Y0178778D01*
X0156134Y0178179D02*
X0160722Y0178179D01*
X0160722Y0177581D02*
X0156134Y0177581D01*
X0156134Y0176982D02*
X0160822Y0176982D01*
X0161420Y0176384D02*
X0155911Y0176384D01*
X0155313Y0175785D02*
X0162019Y0175785D01*
X0146558Y0159027D02*
X0214344Y0159027D01*
X0214391Y0158428D02*
X0147156Y0158428D01*
X0147390Y0157830D02*
X0214438Y0157830D01*
X0214486Y0157231D02*
X0147390Y0157231D01*
X0123339Y0141072D02*
X0121615Y0141072D01*
X0122193Y0141670D02*
X0122741Y0141670D01*
X0118104Y0148254D02*
X0117854Y0148254D01*
X0117256Y0148852D02*
X0118702Y0148852D01*
X0114263Y0151845D02*
X0200920Y0151845D01*
X0200322Y0152443D02*
X0113665Y0152443D01*
X0113066Y0153042D02*
X0199723Y0153042D01*
X0199698Y0153640D02*
X0112468Y0153640D01*
X0108857Y0133889D02*
X0106735Y0133889D01*
X0107333Y0133291D02*
X0108259Y0133291D01*
X0107966Y0132692D02*
X0107626Y0132692D01*
X0107626Y0132094D02*
X0107966Y0132094D01*
X0107966Y0131495D02*
X0107626Y0131495D01*
X0107504Y0130897D02*
X0108088Y0130897D01*
X0108687Y0130298D02*
X0106905Y0130298D01*
X0106307Y0129700D02*
X0109285Y0129700D01*
X0109366Y0128886D02*
X0107966Y0127486D01*
X0107966Y0125507D01*
X0109366Y0124108D01*
X0111345Y0124108D01*
X0112744Y0125507D01*
X0112744Y0127486D01*
X0111345Y0128886D01*
X0109366Y0128886D01*
X0108983Y0128503D02*
X0106610Y0128503D01*
X0107208Y0127904D02*
X0108384Y0127904D01*
X0107966Y0127306D02*
X0107626Y0127306D01*
X0107626Y0126707D02*
X0107966Y0126707D01*
X0107966Y0126109D02*
X0107626Y0126109D01*
X0107626Y0125510D02*
X0107966Y0125510D01*
X0108562Y0124912D02*
X0107030Y0124912D01*
X0106432Y0124313D02*
X0109160Y0124313D01*
X0111550Y0124313D02*
X0140098Y0124313D01*
X0139499Y0124912D02*
X0112149Y0124912D01*
X0112744Y0125510D02*
X0138901Y0125510D01*
X0138302Y0126109D02*
X0112744Y0126109D01*
X0112744Y0126707D02*
X0137704Y0126707D01*
X0137105Y0127306D02*
X0112744Y0127306D01*
X0112326Y0127904D02*
X0136507Y0127904D01*
X0135908Y0128503D02*
X0111728Y0128503D01*
X0124949Y0098577D02*
X0149725Y0098577D01*
X0149725Y0097979D02*
X0124949Y0097979D01*
X0124774Y0097380D02*
X0149725Y0097380D01*
X0149725Y0096782D02*
X0124176Y0096782D01*
X0124133Y0096183D02*
X0149725Y0096183D01*
X0149725Y0095585D02*
X0124732Y0095585D01*
X0125330Y0094986D02*
X0149725Y0094986D01*
X0149725Y0094388D02*
X0125929Y0094388D01*
X0126527Y0093789D02*
X0149725Y0093789D01*
X0149725Y0093191D02*
X0127126Y0093191D01*
X0127724Y0092592D02*
X0149725Y0092592D01*
X0149725Y0091994D02*
X0140678Y0091994D01*
X0141636Y0091395D02*
X0149725Y0091395D01*
X0149725Y0090797D02*
X0142594Y0090797D01*
X0143551Y0090198D02*
X0149725Y0090198D01*
X0149725Y0089600D02*
X0144509Y0089600D01*
X0145466Y0089001D02*
X0149725Y0089001D01*
X0149725Y0088403D02*
X0146424Y0088403D01*
X0147382Y0087804D02*
X0149725Y0087804D01*
X0149725Y0087206D02*
X0148339Y0087206D01*
X0149297Y0086607D02*
X0149725Y0086607D01*
X0150925Y0086607D02*
X0169383Y0086607D01*
X0169383Y0086009D02*
X0150933Y0086009D01*
X0150559Y0085410D02*
X0169383Y0085410D01*
X0169528Y0084811D02*
X0146257Y0084811D01*
X0146856Y0084213D02*
X0170127Y0084213D01*
X0170725Y0083614D02*
X0147454Y0083614D01*
X0148948Y0085410D02*
X0145659Y0085410D01*
X0145060Y0086009D02*
X0147990Y0086009D01*
X0147033Y0086607D02*
X0144462Y0086607D01*
X0143863Y0087206D02*
X0146075Y0087206D01*
X0145118Y0087804D02*
X0143265Y0087804D01*
X0142666Y0088403D02*
X0144160Y0088403D01*
X0143202Y0089001D02*
X0142068Y0089001D01*
X0142245Y0089600D02*
X0141469Y0089600D01*
X0141287Y0090198D02*
X0140871Y0090198D01*
X0140329Y0090797D02*
X0140272Y0090797D01*
X0150925Y0090797D02*
X0410009Y0090797D01*
X0410359Y0091395D02*
X0150925Y0091395D01*
X0150925Y0091994D02*
X0410709Y0091994D01*
X0411059Y0092592D02*
X0359379Y0092592D01*
X0360375Y0093191D02*
X0411409Y0093191D01*
X0411697Y0093789D02*
X0360998Y0093789D01*
X0361413Y0094388D02*
X0411974Y0094388D01*
X0412250Y0094986D02*
X0361702Y0094986D01*
X0361888Y0095585D02*
X0412527Y0095585D01*
X0412803Y0096183D02*
X0361983Y0096183D01*
X0361905Y0097380D02*
X0413357Y0097380D01*
X0413080Y0096782D02*
X0358017Y0096782D01*
X0358017Y0096183D02*
X0357417Y0096183D01*
X0357417Y0095585D02*
X0358017Y0095585D01*
X0358017Y0094986D02*
X0357417Y0094986D01*
X0357417Y0094388D02*
X0358017Y0094388D01*
X0358017Y0093789D02*
X0357417Y0093789D01*
X0357417Y0093191D02*
X0358017Y0093191D01*
X0358017Y0092592D02*
X0357417Y0092592D01*
X0356056Y0092592D02*
X0150925Y0092592D01*
X0150925Y0093191D02*
X0355060Y0093191D01*
X0354437Y0093789D02*
X0150925Y0093789D01*
X0150925Y0094388D02*
X0354021Y0094388D01*
X0353733Y0094986D02*
X0150925Y0094986D01*
X0150925Y0095585D02*
X0353546Y0095585D01*
X0353452Y0096183D02*
X0150925Y0096183D01*
X0150925Y0090198D02*
X0409659Y0090198D01*
X0409309Y0089600D02*
X0150925Y0089600D01*
X0150925Y0089001D02*
X0408959Y0089001D01*
X0408609Y0088403D02*
X0150925Y0088403D01*
X0150925Y0087804D02*
X0170252Y0087804D01*
X0169654Y0087206D02*
X0150925Y0087206D01*
X0173293Y0087804D02*
X0408259Y0087804D01*
X0407909Y0087206D02*
X0173891Y0087206D01*
X0174161Y0086607D02*
X0407559Y0086607D01*
X0407209Y0086009D02*
X0174161Y0086009D01*
X0174161Y0085410D02*
X0406859Y0085410D01*
X0406509Y0084811D02*
X0174017Y0084811D01*
X0173418Y0084213D02*
X0406159Y0084213D01*
X0413633Y0097979D02*
X0361737Y0097979D01*
X0361468Y0098577D02*
X0413910Y0098577D01*
X0414187Y0099176D02*
X0361076Y0099176D01*
X0360516Y0099774D02*
X0414463Y0099774D01*
X0414740Y0100373D02*
X0359590Y0100373D01*
X0354919Y0099774D02*
X0281723Y0099774D01*
X0290683Y0100971D02*
X0415016Y0100971D01*
X0415293Y0101570D02*
X0293176Y0101570D01*
X0295669Y0102168D02*
X0415570Y0102168D01*
X0415846Y0102767D02*
X0297820Y0102767D01*
X0299265Y0103365D02*
X0416123Y0103365D01*
X0416399Y0103964D02*
X0300710Y0103964D01*
X0302155Y0104562D02*
X0416676Y0104562D01*
X0416953Y0105161D02*
X0303600Y0105161D01*
X0305045Y0105759D02*
X0417229Y0105759D01*
X0417506Y0106358D02*
X0306490Y0106358D01*
X0307495Y0106956D02*
X0417727Y0106956D01*
X0417936Y0107555D02*
X0308471Y0107555D01*
X0309448Y0108153D02*
X0418146Y0108153D01*
X0418355Y0108752D02*
X0310425Y0108752D01*
X0311401Y0109350D02*
X0418565Y0109350D01*
X0418774Y0109949D02*
X0312378Y0109949D01*
X0313355Y0110547D02*
X0418984Y0110547D01*
X0419193Y0111146D02*
X0314331Y0111146D01*
X0315247Y0111744D02*
X0419403Y0111744D01*
X0419612Y0112343D02*
X0315948Y0112343D01*
X0316649Y0112942D02*
X0419822Y0112942D01*
X0420031Y0113540D02*
X0317350Y0113540D01*
X0318051Y0114139D02*
X0420241Y0114139D01*
X0420450Y0114737D02*
X0318751Y0114737D01*
X0319452Y0115336D02*
X0420660Y0115336D01*
X0420869Y0115934D02*
X0320153Y0115934D01*
X0320854Y0116533D02*
X0421079Y0116533D01*
X0421288Y0117131D02*
X0321554Y0117131D01*
X0322255Y0117730D02*
X0421498Y0117730D01*
X0421707Y0118328D02*
X0322884Y0118328D01*
X0323395Y0118927D02*
X0421917Y0118927D01*
X0422126Y0119525D02*
X0323906Y0119525D01*
X0324417Y0120124D02*
X0422336Y0120124D01*
X0422486Y0120722D02*
X0324928Y0120722D01*
X0325440Y0121321D02*
X0422633Y0121321D01*
X0422780Y0121919D02*
X0325951Y0121919D01*
X0326462Y0122518D02*
X0356169Y0122518D01*
X0355526Y0122784D02*
X0356948Y0122195D01*
X0358487Y0122195D01*
X0359909Y0122784D01*
X0360997Y0123872D01*
X0361586Y0125294D01*
X0361586Y0126833D01*
X0360997Y0128255D01*
X0359909Y0129343D01*
X0358487Y0129932D01*
X0356948Y0129932D01*
X0355526Y0129343D01*
X0354438Y0128255D01*
X0353849Y0126833D01*
X0353849Y0125294D01*
X0354438Y0123872D01*
X0355526Y0122784D01*
X0355194Y0123116D02*
X0326973Y0123116D01*
X0327484Y0123715D02*
X0354595Y0123715D01*
X0354255Y0124313D02*
X0327995Y0124313D01*
X0328507Y0124912D02*
X0354007Y0124912D01*
X0353849Y0125510D02*
X0329018Y0125510D01*
X0329429Y0126109D02*
X0353849Y0126109D01*
X0353849Y0126707D02*
X0329796Y0126707D01*
X0330163Y0127306D02*
X0354045Y0127306D01*
X0354292Y0127904D02*
X0330530Y0127904D01*
X0330896Y0128503D02*
X0354685Y0128503D01*
X0355284Y0129101D02*
X0331263Y0129101D01*
X0331630Y0129700D02*
X0356387Y0129700D01*
X0359048Y0129700D02*
X0399781Y0129700D01*
X0399781Y0130298D02*
X0331997Y0130298D01*
X0332363Y0130897D02*
X0399817Y0130897D01*
X0399781Y0130810D02*
X0399781Y0128483D01*
X0400671Y0126333D01*
X0402317Y0124687D01*
X0404467Y0123796D01*
X0406794Y0123796D01*
X0408944Y0124687D01*
X0410590Y0126333D01*
X0411481Y0128483D01*
X0411481Y0130810D01*
X0410590Y0132960D01*
X0408944Y0134606D01*
X0406794Y0135496D01*
X0404467Y0135496D01*
X0402317Y0134606D01*
X0400671Y0132960D01*
X0399781Y0130810D01*
X0400065Y0131495D02*
X0343535Y0131495D01*
X0343234Y0131194D02*
X0344634Y0132594D01*
X0344634Y0134573D01*
X0343234Y0135972D01*
X0341255Y0135972D01*
X0339856Y0134573D01*
X0339856Y0132594D01*
X0341255Y0131194D01*
X0343234Y0131194D01*
X0344134Y0132094D02*
X0400312Y0132094D01*
X0400560Y0132692D02*
X0344634Y0132692D01*
X0344634Y0133291D02*
X0351364Y0133291D01*
X0351492Y0133163D02*
X0353471Y0133163D01*
X0354870Y0134562D01*
X0354870Y0136542D01*
X0353471Y0137941D01*
X0351492Y0137941D01*
X0350092Y0136542D01*
X0350092Y0134562D01*
X0351492Y0133163D01*
X0350765Y0133889D02*
X0344634Y0133889D01*
X0344634Y0134488D02*
X0350167Y0134488D01*
X0350092Y0135086D02*
X0344120Y0135086D01*
X0343522Y0135685D02*
X0350092Y0135685D01*
X0350092Y0136283D02*
X0335253Y0136283D01*
X0335005Y0135685D02*
X0340968Y0135685D01*
X0340369Y0135086D02*
X0334757Y0135086D01*
X0334509Y0134488D02*
X0339856Y0134488D01*
X0339856Y0133889D02*
X0334197Y0133889D01*
X0333830Y0133291D02*
X0339856Y0133291D01*
X0339856Y0132692D02*
X0333464Y0132692D01*
X0333097Y0132094D02*
X0340356Y0132094D01*
X0340954Y0131495D02*
X0332730Y0131495D01*
X0335501Y0136882D02*
X0350433Y0136882D01*
X0351031Y0137480D02*
X0335749Y0137480D01*
X0335997Y0138079D02*
X0426361Y0138079D01*
X0426448Y0138677D02*
X0336245Y0138677D01*
X0336493Y0139276D02*
X0426535Y0139276D01*
X0426622Y0139875D02*
X0336740Y0139875D01*
X0336988Y0140473D02*
X0426709Y0140473D01*
X0426796Y0141072D02*
X0425895Y0141072D01*
X0426274Y0137480D02*
X0353931Y0137480D01*
X0354530Y0136882D02*
X0426187Y0136882D01*
X0426100Y0136283D02*
X0354870Y0136283D01*
X0354870Y0135685D02*
X0426013Y0135685D01*
X0425926Y0135086D02*
X0407784Y0135086D01*
X0409062Y0134488D02*
X0425839Y0134488D01*
X0425716Y0133889D02*
X0409661Y0133889D01*
X0410259Y0133291D02*
X0425569Y0133291D01*
X0425422Y0132692D02*
X0410701Y0132692D01*
X0410949Y0132094D02*
X0425275Y0132094D01*
X0425129Y0131495D02*
X0411197Y0131495D01*
X0411445Y0130897D02*
X0424982Y0130897D01*
X0424835Y0130298D02*
X0411481Y0130298D01*
X0411481Y0129700D02*
X0424688Y0129700D01*
X0424541Y0129101D02*
X0411481Y0129101D01*
X0411481Y0128503D02*
X0424395Y0128503D01*
X0424248Y0127904D02*
X0411241Y0127904D01*
X0410993Y0127306D02*
X0424101Y0127306D01*
X0423954Y0126707D02*
X0410745Y0126707D01*
X0410366Y0126109D02*
X0423807Y0126109D01*
X0423661Y0125510D02*
X0409768Y0125510D01*
X0409169Y0124912D02*
X0423514Y0124912D01*
X0423367Y0124313D02*
X0408042Y0124313D01*
X0403219Y0124313D02*
X0361179Y0124313D01*
X0361427Y0124912D02*
X0402092Y0124912D01*
X0401494Y0125510D02*
X0361586Y0125510D01*
X0361586Y0126109D02*
X0400895Y0126109D01*
X0400516Y0126707D02*
X0361586Y0126707D01*
X0361390Y0127306D02*
X0400268Y0127306D01*
X0400020Y0127904D02*
X0361142Y0127904D01*
X0360749Y0128503D02*
X0399781Y0128503D01*
X0399781Y0129101D02*
X0360151Y0129101D01*
X0360839Y0123715D02*
X0423220Y0123715D01*
X0423073Y0123116D02*
X0360241Y0123116D01*
X0359265Y0122518D02*
X0422927Y0122518D01*
X0403477Y0135086D02*
X0354870Y0135086D01*
X0354796Y0134488D02*
X0402199Y0134488D01*
X0401601Y0133889D02*
X0354197Y0133889D01*
X0353599Y0133291D02*
X0401002Y0133291D01*
X0417607Y0144064D02*
X0354923Y0144064D01*
X0354324Y0143466D02*
X0418205Y0143466D01*
X0418804Y0142867D02*
X0337980Y0142867D01*
X0338224Y0143466D02*
X0352213Y0143466D01*
X0352279Y0143399D02*
X0354258Y0143399D01*
X0355657Y0144799D01*
X0355657Y0146778D01*
X0354258Y0148177D01*
X0352279Y0148177D01*
X0350880Y0146778D01*
X0350880Y0144799D01*
X0352279Y0143399D01*
X0351614Y0144064D02*
X0338367Y0144064D01*
X0338511Y0144663D02*
X0342748Y0144663D01*
X0343224Y0144187D02*
X0345203Y0144187D01*
X0346602Y0145586D01*
X0346602Y0147565D01*
X0345203Y0148965D01*
X0343224Y0148965D01*
X0341824Y0147565D01*
X0341824Y0145586D01*
X0343224Y0144187D01*
X0342149Y0145261D02*
X0338655Y0145261D01*
X0338798Y0145860D02*
X0341824Y0145860D01*
X0341824Y0146458D02*
X0338942Y0146458D01*
X0339086Y0147057D02*
X0341824Y0147057D01*
X0341914Y0147655D02*
X0339229Y0147655D01*
X0339373Y0148254D02*
X0342513Y0148254D01*
X0343111Y0148852D02*
X0339517Y0148852D01*
X0339660Y0149451D02*
X0416449Y0149451D01*
X0416449Y0148852D02*
X0345315Y0148852D01*
X0345914Y0148254D02*
X0416449Y0148254D01*
X0416449Y0147655D02*
X0354780Y0147655D01*
X0355379Y0147057D02*
X0416449Y0147057D01*
X0416601Y0146458D02*
X0355657Y0146458D01*
X0355657Y0145860D02*
X0416849Y0145860D01*
X0417097Y0145261D02*
X0355657Y0145261D01*
X0355521Y0144663D02*
X0417345Y0144663D01*
X0419402Y0142269D02*
X0337732Y0142269D01*
X0337484Y0141670D02*
X0420457Y0141670D01*
X0421902Y0141072D02*
X0337236Y0141072D01*
X0345679Y0144663D02*
X0351016Y0144663D01*
X0350880Y0145261D02*
X0346277Y0145261D01*
X0346602Y0145860D02*
X0350880Y0145860D01*
X0350880Y0146458D02*
X0346602Y0146458D01*
X0346602Y0147057D02*
X0351158Y0147057D01*
X0351757Y0147655D02*
X0346512Y0147655D01*
X0349129Y0151667D02*
X0351108Y0151667D01*
X0351797Y0152356D01*
X0384288Y0152356D01*
X0385283Y0153352D01*
X0391189Y0159257D01*
X0391189Y0201217D01*
X0390193Y0202213D01*
X0364996Y0227409D01*
X0361847Y0227409D01*
X0358118Y0231138D01*
X0358118Y0232836D01*
X0359366Y0231588D01*
X0361345Y0231588D01*
X0362744Y0232988D01*
X0362744Y0234967D01*
X0361345Y0236366D01*
X0359366Y0236366D01*
X0357966Y0234967D01*
X0357966Y0234833D01*
X0357122Y0235677D01*
X0348192Y0244607D01*
X0354071Y0250486D01*
X0355045Y0250486D01*
X0356445Y0251885D01*
X0356445Y0253864D01*
X0355045Y0255264D01*
X0353066Y0255264D01*
X0351667Y0253864D01*
X0351667Y0252890D01*
X0345284Y0246507D01*
X0336339Y0246507D01*
X0329184Y0253662D01*
X0329184Y0265867D01*
X0328071Y0266980D01*
X0326130Y0268921D01*
X0326130Y0269612D01*
X0324730Y0271012D01*
X0322751Y0271012D01*
X0321352Y0269612D01*
X0321352Y0267633D01*
X0322751Y0266234D01*
X0323443Y0266234D01*
X0325384Y0264293D01*
X0325384Y0252088D01*
X0334765Y0242707D01*
X0344088Y0242707D01*
X0344088Y0237230D01*
X0343399Y0236542D01*
X0343399Y0234562D01*
X0344799Y0233163D01*
X0346778Y0233163D01*
X0347769Y0234155D01*
X0347769Y0232791D01*
X0349169Y0231391D01*
X0351148Y0231391D01*
X0352547Y0232791D01*
X0352547Y0234770D01*
X0351148Y0236169D01*
X0349169Y0236169D01*
X0348177Y0235178D01*
X0348177Y0236542D01*
X0347488Y0237230D01*
X0347488Y0240503D01*
X0354718Y0233273D01*
X0354718Y0229730D01*
X0359443Y0225005D01*
X0360438Y0224009D01*
X0363588Y0224009D01*
X0387789Y0199808D01*
X0387789Y0160666D01*
X0382879Y0155756D01*
X0351797Y0155756D01*
X0351108Y0156445D01*
X0349129Y0156445D01*
X0347730Y0155045D01*
X0347730Y0153066D01*
X0349129Y0151667D01*
X0348952Y0151845D02*
X0340235Y0151845D01*
X0340379Y0152443D02*
X0348353Y0152443D01*
X0347755Y0153042D02*
X0340523Y0153042D01*
X0340588Y0153640D02*
X0347730Y0153640D01*
X0347730Y0154239D02*
X0340635Y0154239D01*
X0340682Y0154837D02*
X0347730Y0154837D01*
X0348120Y0155436D02*
X0340729Y0155436D01*
X0340776Y0156034D02*
X0348719Y0156034D01*
X0351519Y0156034D02*
X0383158Y0156034D01*
X0383756Y0156633D02*
X0340823Y0156633D01*
X0340870Y0157231D02*
X0384355Y0157231D01*
X0384953Y0157830D02*
X0358452Y0157830D01*
X0358195Y0157572D02*
X0359594Y0158972D01*
X0359594Y0160951D01*
X0358195Y0162350D01*
X0356216Y0162350D01*
X0354817Y0160951D01*
X0354817Y0158972D01*
X0356216Y0157572D01*
X0358195Y0157572D01*
X0359051Y0158428D02*
X0385552Y0158428D01*
X0386150Y0159027D02*
X0359594Y0159027D01*
X0359594Y0159625D02*
X0386749Y0159625D01*
X0387347Y0160224D02*
X0359594Y0160224D01*
X0359594Y0160822D02*
X0387789Y0160822D01*
X0387789Y0161421D02*
X0359125Y0161421D01*
X0358526Y0162019D02*
X0387789Y0162019D01*
X0387789Y0162618D02*
X0341294Y0162618D01*
X0341325Y0163216D02*
X0387789Y0163216D01*
X0387789Y0163815D02*
X0341278Y0163815D01*
X0341231Y0164413D02*
X0350162Y0164413D01*
X0350704Y0163872D02*
X0352683Y0163872D01*
X0354083Y0165271D01*
X0354083Y0167250D01*
X0352683Y0168650D01*
X0350704Y0168650D01*
X0349305Y0167250D01*
X0349305Y0165271D01*
X0350704Y0163872D01*
X0349564Y0165012D02*
X0341183Y0165012D01*
X0341136Y0165611D02*
X0349305Y0165611D01*
X0349305Y0166209D02*
X0341089Y0166209D01*
X0341042Y0166808D02*
X0349305Y0166808D01*
X0349461Y0167406D02*
X0340995Y0167406D01*
X0340948Y0168005D02*
X0350059Y0168005D01*
X0350658Y0168603D02*
X0340901Y0168603D01*
X0340854Y0169202D02*
X0387789Y0169202D01*
X0387789Y0169800D02*
X0340807Y0169800D01*
X0340760Y0170399D02*
X0387789Y0170399D01*
X0387789Y0170997D02*
X0340712Y0170997D01*
X0340665Y0171596D02*
X0347311Y0171596D01*
X0347555Y0171352D02*
X0349534Y0171352D01*
X0350933Y0172751D01*
X0350933Y0174730D01*
X0349534Y0176130D01*
X0347555Y0176130D01*
X0346155Y0174730D01*
X0346155Y0172751D01*
X0347555Y0171352D01*
X0346712Y0172194D02*
X0340618Y0172194D01*
X0340571Y0172793D02*
X0346155Y0172793D01*
X0346155Y0173391D02*
X0340472Y0173391D01*
X0340328Y0173990D02*
X0346155Y0173990D01*
X0346155Y0174588D02*
X0340185Y0174588D01*
X0340041Y0175187D02*
X0346611Y0175187D01*
X0347210Y0175785D02*
X0339897Y0175785D01*
X0339754Y0176384D02*
X0344491Y0176384D01*
X0344799Y0176076D02*
X0346778Y0176076D01*
X0348177Y0177476D01*
X0348177Y0179455D01*
X0346778Y0180854D01*
X0344799Y0180854D01*
X0343399Y0179455D01*
X0343399Y0177476D01*
X0344799Y0176076D01*
X0343893Y0176982D02*
X0339610Y0176982D01*
X0339466Y0177581D02*
X0343399Y0177581D01*
X0343399Y0178179D02*
X0339322Y0178179D01*
X0339179Y0178778D02*
X0343399Y0178778D01*
X0343399Y0179376D02*
X0339035Y0179376D01*
X0338891Y0179975D02*
X0343919Y0179975D01*
X0344518Y0180573D02*
X0338748Y0180573D01*
X0338604Y0181172D02*
X0387789Y0181172D01*
X0387789Y0181770D02*
X0338460Y0181770D01*
X0338317Y0182369D02*
X0387789Y0182369D01*
X0387789Y0182967D02*
X0338141Y0182967D01*
X0337893Y0183566D02*
X0387789Y0183566D01*
X0387789Y0184164D02*
X0337645Y0184164D01*
X0337397Y0184763D02*
X0387789Y0184763D01*
X0387789Y0185361D02*
X0337149Y0185361D01*
X0336901Y0185960D02*
X0387789Y0185960D01*
X0387789Y0186558D02*
X0336653Y0186558D01*
X0336405Y0187157D02*
X0387789Y0187157D01*
X0387789Y0187755D02*
X0336157Y0187755D01*
X0335909Y0188354D02*
X0387789Y0188354D01*
X0387789Y0188952D02*
X0335661Y0188952D01*
X0335414Y0189551D02*
X0387789Y0189551D01*
X0387789Y0190149D02*
X0335166Y0190149D01*
X0334918Y0190748D02*
X0387789Y0190748D01*
X0387789Y0191346D02*
X0334670Y0191346D01*
X0334422Y0191945D02*
X0387789Y0191945D01*
X0387789Y0192544D02*
X0334068Y0192544D01*
X0333701Y0193142D02*
X0355292Y0193142D01*
X0355429Y0193006D02*
X0357408Y0193006D01*
X0358807Y0194405D01*
X0358807Y0196384D01*
X0357408Y0197783D01*
X0355657Y0197783D01*
X0355657Y0199140D01*
X0354258Y0200539D01*
X0352279Y0200539D01*
X0352114Y0200375D01*
X0352114Y0201108D01*
X0350715Y0202508D01*
X0349587Y0202508D01*
X0349752Y0202673D01*
X0349752Y0204194D01*
X0350310Y0203635D01*
X0352290Y0203635D01*
X0353689Y0205035D01*
X0353689Y0207014D01*
X0352290Y0208413D01*
X0351949Y0208413D01*
X0352114Y0208578D01*
X0352114Y0210557D01*
X0350715Y0211957D01*
X0349981Y0211957D01*
X0351327Y0213303D01*
X0351327Y0215282D01*
X0349927Y0216681D01*
X0347948Y0216681D01*
X0346549Y0215282D01*
X0346549Y0213303D01*
X0347948Y0211903D01*
X0348682Y0211903D01*
X0347336Y0210557D01*
X0347336Y0208578D01*
X0348736Y0207179D01*
X0349076Y0207179D01*
X0348911Y0207014D01*
X0348911Y0205493D01*
X0348353Y0206051D01*
X0346373Y0206051D01*
X0344974Y0204652D01*
X0344974Y0202673D01*
X0346373Y0201273D01*
X0347501Y0201273D01*
X0347336Y0201108D01*
X0347336Y0199129D01*
X0348736Y0197730D01*
X0350715Y0197730D01*
X0350880Y0197895D01*
X0350880Y0197161D01*
X0352279Y0195761D01*
X0354029Y0195761D01*
X0354029Y0194405D01*
X0355429Y0193006D01*
X0354694Y0193741D02*
X0333334Y0193741D01*
X0332968Y0194339D02*
X0354095Y0194339D01*
X0354029Y0194938D02*
X0332601Y0194938D01*
X0332234Y0195536D02*
X0354029Y0195536D01*
X0351906Y0196135D02*
X0331867Y0196135D01*
X0331501Y0196733D02*
X0351307Y0196733D01*
X0350880Y0197332D02*
X0331134Y0197332D01*
X0330767Y0197930D02*
X0348535Y0197930D01*
X0347937Y0198529D02*
X0330400Y0198529D01*
X0330034Y0199127D02*
X0347338Y0199127D01*
X0347336Y0199726D02*
X0329667Y0199726D01*
X0329300Y0200324D02*
X0347336Y0200324D01*
X0347336Y0200923D02*
X0328838Y0200923D01*
X0328327Y0201521D02*
X0346125Y0201521D01*
X0345527Y0202120D02*
X0327815Y0202120D01*
X0327304Y0202718D02*
X0344974Y0202718D01*
X0344974Y0203317D02*
X0326793Y0203317D01*
X0326282Y0203915D02*
X0344974Y0203915D01*
X0344974Y0204514D02*
X0325771Y0204514D01*
X0325259Y0205112D02*
X0345435Y0205112D01*
X0346033Y0205711D02*
X0324748Y0205711D01*
X0324237Y0206309D02*
X0348911Y0206309D01*
X0348911Y0205711D02*
X0348693Y0205711D01*
X0348911Y0206908D02*
X0323726Y0206908D01*
X0323215Y0207506D02*
X0348408Y0207506D01*
X0347810Y0208105D02*
X0322704Y0208105D01*
X0322008Y0208703D02*
X0347336Y0208703D01*
X0347336Y0209302D02*
X0321307Y0209302D01*
X0320607Y0209900D02*
X0347336Y0209900D01*
X0347336Y0210499D02*
X0319906Y0210499D01*
X0319205Y0211097D02*
X0347876Y0211097D01*
X0348475Y0211696D02*
X0318504Y0211696D01*
X0317804Y0212294D02*
X0347557Y0212294D01*
X0346958Y0212893D02*
X0317103Y0212893D01*
X0316402Y0213491D02*
X0346549Y0213491D01*
X0346549Y0214090D02*
X0315701Y0214090D01*
X0314964Y0214688D02*
X0336895Y0214688D01*
X0337318Y0214265D02*
X0335919Y0215665D01*
X0335919Y0217644D01*
X0337318Y0219043D01*
X0339297Y0219043D01*
X0340697Y0217644D01*
X0340697Y0215665D01*
X0339297Y0214265D01*
X0337318Y0214265D01*
X0336297Y0215287D02*
X0313987Y0215287D01*
X0313011Y0215885D02*
X0335919Y0215885D01*
X0335919Y0216484D02*
X0324193Y0216484D01*
X0323943Y0216234D02*
X0325343Y0217633D01*
X0325343Y0219612D01*
X0324784Y0220171D01*
X0325124Y0220171D01*
X0326524Y0221570D01*
X0326524Y0223549D01*
X0325124Y0224949D01*
X0323145Y0224949D01*
X0321746Y0223549D01*
X0321746Y0221570D01*
X0322304Y0221012D01*
X0321964Y0221012D01*
X0320565Y0219612D01*
X0320565Y0217633D01*
X0321964Y0216234D01*
X0323943Y0216234D01*
X0324792Y0217082D02*
X0335919Y0217082D01*
X0335956Y0217681D02*
X0325343Y0217681D01*
X0325343Y0218280D02*
X0336555Y0218280D01*
X0337153Y0218878D02*
X0325343Y0218878D01*
X0325343Y0219477D02*
X0332107Y0219477D01*
X0332200Y0219383D02*
X0334179Y0219383D01*
X0335579Y0220783D01*
X0335579Y0222762D01*
X0334179Y0224161D01*
X0332200Y0224161D01*
X0330801Y0222762D01*
X0330801Y0220783D01*
X0332200Y0219383D01*
X0331509Y0220075D02*
X0324880Y0220075D01*
X0325627Y0220674D02*
X0330910Y0220674D01*
X0330801Y0221272D02*
X0326225Y0221272D01*
X0326524Y0221871D02*
X0330801Y0221871D01*
X0330801Y0222469D02*
X0326524Y0222469D01*
X0326524Y0223068D02*
X0331106Y0223068D01*
X0331705Y0223666D02*
X0326407Y0223666D01*
X0325808Y0224265D02*
X0336374Y0224265D01*
X0336701Y0223938D02*
X0335919Y0223156D01*
X0335919Y0221177D01*
X0337318Y0219777D01*
X0339297Y0219777D01*
X0340697Y0221177D01*
X0340697Y0223156D01*
X0339521Y0224331D01*
X0340303Y0225114D01*
X0340303Y0227093D01*
X0338904Y0228492D01*
X0336925Y0228492D01*
X0335525Y0227093D01*
X0335525Y0225114D01*
X0336701Y0223938D01*
X0336429Y0223666D02*
X0334675Y0223666D01*
X0335273Y0223068D02*
X0335919Y0223068D01*
X0335919Y0222469D02*
X0335579Y0222469D01*
X0335579Y0221871D02*
X0335919Y0221871D01*
X0335919Y0221272D02*
X0335579Y0221272D01*
X0335469Y0220674D02*
X0336422Y0220674D01*
X0337020Y0220075D02*
X0334871Y0220075D01*
X0334272Y0219477D02*
X0368121Y0219477D01*
X0367522Y0220075D02*
X0339595Y0220075D01*
X0340194Y0220674D02*
X0366924Y0220674D01*
X0366325Y0221272D02*
X0340697Y0221272D01*
X0340697Y0221871D02*
X0365727Y0221871D01*
X0365128Y0222469D02*
X0340697Y0222469D01*
X0340697Y0223068D02*
X0364530Y0223068D01*
X0363931Y0223666D02*
X0340186Y0223666D01*
X0339588Y0224265D02*
X0360183Y0224265D01*
X0359585Y0224863D02*
X0340053Y0224863D01*
X0340303Y0225462D02*
X0358986Y0225462D01*
X0358388Y0226060D02*
X0340303Y0226060D01*
X0340303Y0226659D02*
X0357789Y0226659D01*
X0357191Y0227257D02*
X0340139Y0227257D01*
X0339540Y0227856D02*
X0356592Y0227856D01*
X0355994Y0228454D02*
X0338942Y0228454D01*
X0336887Y0228454D02*
X0282035Y0228454D01*
X0282035Y0227856D02*
X0336288Y0227856D01*
X0335690Y0227257D02*
X0282035Y0227257D01*
X0281612Y0226659D02*
X0335525Y0226659D01*
X0335525Y0226060D02*
X0286648Y0226060D01*
X0289805Y0225462D02*
X0335525Y0225462D01*
X0335776Y0224863D02*
X0325210Y0224863D01*
X0323059Y0224863D02*
X0292298Y0224863D01*
X0294791Y0224265D02*
X0322461Y0224265D01*
X0321862Y0223666D02*
X0297284Y0223666D01*
X0298756Y0223068D02*
X0321746Y0223068D01*
X0321746Y0222469D02*
X0300201Y0222469D01*
X0301646Y0221871D02*
X0321746Y0221871D01*
X0322044Y0221272D02*
X0303091Y0221272D01*
X0304536Y0220674D02*
X0321626Y0220674D01*
X0321027Y0220075D02*
X0305981Y0220075D01*
X0307151Y0219477D02*
X0320565Y0219477D01*
X0320565Y0218878D02*
X0308127Y0218878D01*
X0309104Y0218280D02*
X0320565Y0218280D01*
X0320565Y0217681D02*
X0310081Y0217681D01*
X0311057Y0217082D02*
X0321115Y0217082D01*
X0321714Y0216484D02*
X0312034Y0216484D01*
X0316452Y0231194D02*
X0318431Y0231194D01*
X0319607Y0232370D01*
X0320783Y0231194D01*
X0322762Y0231194D01*
X0324161Y0232594D01*
X0324161Y0234573D01*
X0322762Y0235972D01*
X0320783Y0235972D01*
X0319607Y0234797D01*
X0318431Y0235972D01*
X0316452Y0235972D01*
X0315053Y0234573D01*
X0315053Y0232594D01*
X0316452Y0231194D01*
X0316200Y0231447D02*
X0083646Y0231447D01*
X0085091Y0232045D02*
X0315601Y0232045D01*
X0315053Y0232644D02*
X0086171Y0232644D01*
X0086770Y0233242D02*
X0216373Y0233242D01*
X0216728Y0232887D02*
X0218707Y0232887D01*
X0220106Y0234287D01*
X0220106Y0236266D01*
X0218707Y0237665D01*
X0216728Y0237665D01*
X0215328Y0236266D01*
X0215328Y0234287D01*
X0216728Y0232887D01*
X0215774Y0233841D02*
X0087368Y0233841D01*
X0087967Y0234439D02*
X0215328Y0234439D01*
X0215328Y0235038D02*
X0088240Y0235038D01*
X0088487Y0235636D02*
X0215328Y0235636D01*
X0215328Y0236235D02*
X0088735Y0236235D01*
X0088983Y0236833D02*
X0215896Y0236833D01*
X0216494Y0237432D02*
X0089143Y0237432D01*
X0089143Y0238030D02*
X0231270Y0238030D01*
X0231194Y0238106D02*
X0232594Y0236706D01*
X0234573Y0236706D01*
X0235972Y0238106D01*
X0235972Y0240085D01*
X0234573Y0241484D01*
X0232594Y0241484D01*
X0231248Y0240138D01*
X0231248Y0242053D01*
X0229849Y0243453D01*
X0227870Y0243453D01*
X0226470Y0242053D01*
X0226470Y0240074D01*
X0227870Y0238675D01*
X0229849Y0238675D01*
X0231194Y0240021D01*
X0231194Y0238106D01*
X0231194Y0238629D02*
X0089143Y0238629D01*
X0089143Y0239227D02*
X0157081Y0239227D01*
X0157515Y0238793D02*
X0159494Y0238793D01*
X0160894Y0240192D01*
X0160894Y0242171D01*
X0159494Y0243571D01*
X0157515Y0243571D01*
X0156116Y0242171D01*
X0156116Y0240192D01*
X0157515Y0238793D01*
X0156482Y0239826D02*
X0089143Y0239826D01*
X0089043Y0240424D02*
X0156116Y0240424D01*
X0156116Y0241023D02*
X0088796Y0241023D01*
X0088548Y0241621D02*
X0156116Y0241621D01*
X0156164Y0242220D02*
X0088300Y0242220D01*
X0088052Y0242818D02*
X0156763Y0242818D01*
X0157361Y0243417D02*
X0087514Y0243417D01*
X0086915Y0244015D02*
X0280797Y0244015D01*
X0281019Y0243793D02*
X0282540Y0243793D01*
X0281194Y0242447D01*
X0281194Y0240468D01*
X0282594Y0239069D01*
X0284573Y0239069D01*
X0284738Y0239233D01*
X0284738Y0238499D01*
X0286137Y0237100D01*
X0288116Y0237100D01*
X0289516Y0238499D01*
X0289516Y0239462D01*
X0290872Y0239462D01*
X0292272Y0240862D01*
X0292272Y0242841D01*
X0290872Y0244240D01*
X0288893Y0244240D01*
X0287494Y0242841D01*
X0287494Y0241878D01*
X0286137Y0241878D01*
X0285972Y0241713D01*
X0285972Y0242447D01*
X0284573Y0243846D01*
X0283052Y0243846D01*
X0284398Y0245192D01*
X0284398Y0247171D01*
X0282998Y0248571D01*
X0281019Y0248571D01*
X0279620Y0247171D01*
X0279620Y0245192D01*
X0281019Y0243793D01*
X0281566Y0242818D02*
X0269149Y0242818D01*
X0269748Y0242220D02*
X0281194Y0242220D01*
X0281194Y0241621D02*
X0269867Y0241621D01*
X0269867Y0242101D02*
X0268467Y0243500D01*
X0266488Y0243500D01*
X0265089Y0242101D01*
X0265089Y0240121D01*
X0266488Y0238722D01*
X0268467Y0238722D01*
X0269867Y0240121D01*
X0269867Y0242101D01*
X0269867Y0241023D02*
X0281194Y0241023D01*
X0281238Y0240424D02*
X0269867Y0240424D01*
X0269571Y0239826D02*
X0281837Y0239826D01*
X0282435Y0239227D02*
X0268973Y0239227D01*
X0265983Y0239227D02*
X0235972Y0239227D01*
X0235972Y0238629D02*
X0284738Y0238629D01*
X0284732Y0239227D02*
X0284738Y0239227D01*
X0285207Y0238030D02*
X0235897Y0238030D01*
X0235299Y0237432D02*
X0285805Y0237432D01*
X0288448Y0237432D02*
X0344088Y0237432D01*
X0344088Y0238030D02*
X0296921Y0238030D01*
X0296384Y0237494D02*
X0297783Y0238893D01*
X0297783Y0240872D01*
X0296831Y0241824D01*
X0298353Y0241824D01*
X0299752Y0243224D01*
X0299752Y0243958D01*
X0300310Y0243399D01*
X0302290Y0243399D01*
X0303689Y0244799D01*
X0303689Y0246778D01*
X0302290Y0248177D01*
X0300310Y0248177D01*
X0298911Y0246778D01*
X0298911Y0246044D01*
X0298353Y0246602D01*
X0296373Y0246602D01*
X0294974Y0245203D01*
X0294974Y0243224D01*
X0295926Y0242272D01*
X0294405Y0242272D01*
X0293006Y0240872D01*
X0293006Y0238893D01*
X0294405Y0237494D01*
X0296384Y0237494D01*
X0297519Y0238629D02*
X0344088Y0238629D01*
X0344088Y0239227D02*
X0297783Y0239227D01*
X0297783Y0239826D02*
X0344088Y0239826D01*
X0344088Y0240424D02*
X0297783Y0240424D01*
X0297633Y0241023D02*
X0344088Y0241023D01*
X0344088Y0241621D02*
X0297034Y0241621D01*
X0298748Y0242220D02*
X0344088Y0242220D01*
X0347488Y0240424D02*
X0347567Y0240424D01*
X0347488Y0239826D02*
X0348165Y0239826D01*
X0348764Y0239227D02*
X0347488Y0239227D01*
X0347488Y0238629D02*
X0349362Y0238629D01*
X0349961Y0238030D02*
X0347488Y0238030D01*
X0347488Y0237432D02*
X0350559Y0237432D01*
X0351158Y0236833D02*
X0347885Y0236833D01*
X0348177Y0236235D02*
X0351756Y0236235D01*
X0351681Y0235636D02*
X0352355Y0235636D01*
X0352279Y0235038D02*
X0352953Y0235038D01*
X0352547Y0234439D02*
X0353552Y0234439D01*
X0354150Y0233841D02*
X0352547Y0233841D01*
X0352547Y0233242D02*
X0354718Y0233242D01*
X0354718Y0232644D02*
X0352400Y0232644D01*
X0351802Y0232045D02*
X0354718Y0232045D01*
X0354718Y0231447D02*
X0351203Y0231447D01*
X0349113Y0231447D02*
X0336006Y0231447D01*
X0335754Y0231194D02*
X0337154Y0232594D01*
X0337154Y0234573D01*
X0335754Y0235972D01*
X0333775Y0235972D01*
X0332796Y0234993D01*
X0331817Y0235972D01*
X0329838Y0235972D01*
X0328439Y0234573D01*
X0328439Y0232594D01*
X0329838Y0231194D01*
X0331817Y0231194D01*
X0332796Y0232173D01*
X0333775Y0231194D01*
X0335754Y0231194D01*
X0336605Y0232045D02*
X0338830Y0232045D01*
X0339287Y0231588D02*
X0341266Y0231588D01*
X0342665Y0232988D01*
X0342665Y0234967D01*
X0341266Y0236366D01*
X0339287Y0236366D01*
X0337887Y0234967D01*
X0337887Y0232988D01*
X0339287Y0231588D01*
X0338231Y0232644D02*
X0337154Y0232644D01*
X0337154Y0233242D02*
X0337887Y0233242D01*
X0337887Y0233841D02*
X0337154Y0233841D01*
X0337154Y0234439D02*
X0337887Y0234439D01*
X0337959Y0235038D02*
X0336689Y0235038D01*
X0336090Y0235636D02*
X0338557Y0235636D01*
X0339156Y0236235D02*
X0220106Y0236235D01*
X0220106Y0235636D02*
X0316116Y0235636D01*
X0315518Y0235038D02*
X0220106Y0235038D01*
X0220106Y0234439D02*
X0315053Y0234439D01*
X0315053Y0233841D02*
X0219660Y0233841D01*
X0219062Y0233242D02*
X0315053Y0233242D01*
X0318684Y0231447D02*
X0320531Y0231447D01*
X0319932Y0232045D02*
X0319282Y0232045D01*
X0319366Y0235038D02*
X0319848Y0235038D01*
X0320447Y0235636D02*
X0318767Y0235636D01*
X0323098Y0235636D02*
X0329502Y0235636D01*
X0328903Y0235038D02*
X0323697Y0235038D01*
X0324161Y0234439D02*
X0328439Y0234439D01*
X0328439Y0233841D02*
X0324161Y0233841D01*
X0324161Y0233242D02*
X0328439Y0233242D01*
X0328439Y0232644D02*
X0324161Y0232644D01*
X0323613Y0232045D02*
X0328987Y0232045D01*
X0329586Y0231447D02*
X0323014Y0231447D01*
X0332069Y0231447D02*
X0333523Y0231447D01*
X0332924Y0232045D02*
X0332668Y0232045D01*
X0332752Y0235038D02*
X0332840Y0235038D01*
X0333439Y0235636D02*
X0332153Y0235636D01*
X0334654Y0242818D02*
X0299347Y0242818D01*
X0299752Y0243417D02*
X0300293Y0243417D01*
X0302307Y0243417D02*
X0312891Y0243417D01*
X0312909Y0243399D02*
X0314888Y0243399D01*
X0316287Y0244799D01*
X0316287Y0246778D01*
X0314888Y0248177D01*
X0312909Y0248177D01*
X0311509Y0246778D01*
X0311509Y0244799D01*
X0312909Y0243399D01*
X0312293Y0244015D02*
X0302906Y0244015D01*
X0303504Y0244614D02*
X0311694Y0244614D01*
X0311509Y0245213D02*
X0303689Y0245213D01*
X0303689Y0245811D02*
X0311509Y0245811D01*
X0311509Y0246410D02*
X0303689Y0246410D01*
X0303459Y0247008D02*
X0311740Y0247008D01*
X0312338Y0247607D02*
X0302860Y0247607D01*
X0301108Y0249305D02*
X0302508Y0250704D01*
X0302508Y0252683D01*
X0301332Y0253859D01*
X0302508Y0255035D01*
X0302508Y0257014D01*
X0301108Y0258413D01*
X0299129Y0258413D01*
X0297730Y0257014D01*
X0297730Y0255035D01*
X0298906Y0253859D01*
X0297730Y0252683D01*
X0297730Y0250704D01*
X0299129Y0249305D01*
X0301108Y0249305D01*
X0301206Y0249402D02*
X0328070Y0249402D01*
X0328668Y0248804D02*
X0181978Y0248804D01*
X0182035Y0248746D02*
X0180636Y0250146D01*
X0178657Y0250146D01*
X0177257Y0248746D01*
X0177257Y0246767D01*
X0178657Y0245368D01*
X0180636Y0245368D01*
X0182035Y0246767D01*
X0182035Y0248746D01*
X0182035Y0248205D02*
X0280653Y0248205D01*
X0280055Y0247607D02*
X0182035Y0247607D01*
X0182035Y0247008D02*
X0279620Y0247008D01*
X0279620Y0246410D02*
X0181678Y0246410D01*
X0181079Y0245811D02*
X0279620Y0245811D01*
X0279620Y0245213D02*
X0087224Y0245213D01*
X0086317Y0244614D02*
X0280198Y0244614D01*
X0282164Y0243417D02*
X0268551Y0243417D01*
X0266405Y0243417D02*
X0229884Y0243417D01*
X0230483Y0242818D02*
X0265807Y0242818D01*
X0265208Y0242220D02*
X0231081Y0242220D01*
X0231248Y0241621D02*
X0265089Y0241621D01*
X0265089Y0241023D02*
X0235034Y0241023D01*
X0235633Y0240424D02*
X0265089Y0240424D01*
X0265385Y0239826D02*
X0235972Y0239826D01*
X0234700Y0236833D02*
X0343691Y0236833D01*
X0343399Y0236235D02*
X0341397Y0236235D01*
X0341996Y0235636D02*
X0343399Y0235636D01*
X0343399Y0235038D02*
X0342594Y0235038D01*
X0342665Y0234439D02*
X0343522Y0234439D01*
X0344121Y0233841D02*
X0342665Y0233841D01*
X0342665Y0233242D02*
X0344719Y0233242D01*
X0346857Y0233242D02*
X0347769Y0233242D01*
X0347769Y0233841D02*
X0347456Y0233841D01*
X0347916Y0232644D02*
X0342322Y0232644D01*
X0341723Y0232045D02*
X0348515Y0232045D01*
X0348636Y0235636D02*
X0348177Y0235636D01*
X0352973Y0239826D02*
X0363219Y0239826D01*
X0362691Y0239297D02*
X0362691Y0237318D01*
X0364090Y0235919D01*
X0366069Y0235919D01*
X0367468Y0237318D01*
X0367468Y0239297D01*
X0366069Y0240697D01*
X0364090Y0240697D01*
X0362691Y0239297D01*
X0362691Y0239227D02*
X0353572Y0239227D01*
X0354171Y0238629D02*
X0362691Y0238629D01*
X0362691Y0238030D02*
X0354769Y0238030D01*
X0355368Y0237432D02*
X0362691Y0237432D01*
X0363176Y0236833D02*
X0355966Y0236833D01*
X0356565Y0236235D02*
X0359234Y0236235D01*
X0358636Y0235636D02*
X0357163Y0235636D01*
X0357122Y0235677D02*
X0357122Y0235677D01*
X0357762Y0235038D02*
X0358037Y0235038D01*
X0358118Y0232644D02*
X0358310Y0232644D01*
X0358118Y0232045D02*
X0358908Y0232045D01*
X0358118Y0231447D02*
X0376470Y0231447D01*
X0376470Y0231019D02*
X0377870Y0229620D01*
X0379849Y0229620D01*
X0381248Y0231019D01*
X0381248Y0232998D01*
X0379849Y0234398D01*
X0377870Y0234398D01*
X0376470Y0232998D01*
X0376470Y0231019D01*
X0376641Y0230848D02*
X0358408Y0230848D01*
X0359006Y0230250D02*
X0377239Y0230250D01*
X0377838Y0229651D02*
X0359605Y0229651D01*
X0360203Y0229053D02*
X0380013Y0229053D01*
X0380013Y0229061D02*
X0380013Y0227082D01*
X0381413Y0225683D01*
X0383392Y0225683D01*
X0384791Y0227082D01*
X0384791Y0229061D01*
X0383392Y0230461D01*
X0381413Y0230461D01*
X0380013Y0229061D01*
X0379880Y0229651D02*
X0380603Y0229651D01*
X0380479Y0230250D02*
X0381202Y0230250D01*
X0381077Y0230848D02*
X0412429Y0230848D01*
X0412706Y0230250D02*
X0383603Y0230250D01*
X0384201Y0229651D02*
X0412983Y0229651D01*
X0413259Y0229053D02*
X0384791Y0229053D01*
X0384791Y0228454D02*
X0413536Y0228454D01*
X0413812Y0227856D02*
X0384791Y0227856D01*
X0384791Y0227257D02*
X0414089Y0227257D01*
X0414366Y0226659D02*
X0384368Y0226659D01*
X0383769Y0226060D02*
X0414642Y0226060D01*
X0414919Y0225462D02*
X0366944Y0225462D01*
X0366346Y0226060D02*
X0381035Y0226060D01*
X0380437Y0226659D02*
X0365747Y0226659D01*
X0365149Y0227257D02*
X0380013Y0227257D01*
X0380013Y0227856D02*
X0361400Y0227856D01*
X0360802Y0228454D02*
X0380013Y0228454D01*
X0381248Y0231447D02*
X0412153Y0231447D01*
X0411876Y0232045D02*
X0381248Y0232045D01*
X0381248Y0232644D02*
X0411600Y0232644D01*
X0411285Y0233242D02*
X0386621Y0233242D01*
X0386148Y0232769D02*
X0387547Y0234169D01*
X0387547Y0236148D01*
X0386148Y0237547D01*
X0384169Y0237547D01*
X0382769Y0236148D01*
X0382769Y0234169D01*
X0384169Y0232769D01*
X0386148Y0232769D01*
X0387219Y0233841D02*
X0410935Y0233841D01*
X0410585Y0234439D02*
X0405235Y0234439D01*
X0406680Y0235038D02*
X0410236Y0235038D01*
X0409886Y0235636D02*
X0407983Y0235636D01*
X0408581Y0236235D02*
X0409536Y0236235D01*
X0409186Y0236833D02*
X0409180Y0236833D01*
X0402089Y0234439D02*
X0387547Y0234439D01*
X0387547Y0235038D02*
X0400644Y0235038D01*
X0399342Y0235636D02*
X0387547Y0235636D01*
X0387460Y0236235D02*
X0398743Y0236235D01*
X0398145Y0236833D02*
X0386862Y0236833D01*
X0386263Y0237432D02*
X0397546Y0237432D01*
X0397181Y0238030D02*
X0367468Y0238030D01*
X0367468Y0237432D02*
X0384053Y0237432D01*
X0383455Y0236833D02*
X0366984Y0236833D01*
X0366385Y0236235D02*
X0382856Y0236235D01*
X0382769Y0235636D02*
X0362074Y0235636D01*
X0361476Y0236235D02*
X0363774Y0236235D01*
X0362673Y0235038D02*
X0382769Y0235038D01*
X0382769Y0234439D02*
X0362744Y0234439D01*
X0362744Y0233841D02*
X0377313Y0233841D01*
X0376714Y0233242D02*
X0362744Y0233242D01*
X0362400Y0232644D02*
X0376470Y0232644D01*
X0376470Y0232045D02*
X0361802Y0232045D01*
X0355395Y0229053D02*
X0282035Y0229053D01*
X0281445Y0229651D02*
X0354797Y0229651D01*
X0354718Y0230250D02*
X0280847Y0230250D01*
X0278446Y0230250D02*
X0058743Y0230250D01*
X0059543Y0230848D02*
X0354718Y0230848D01*
X0352375Y0240424D02*
X0363818Y0240424D01*
X0366341Y0240424D02*
X0373714Y0240424D01*
X0373714Y0239826D02*
X0366940Y0239826D01*
X0367468Y0239227D02*
X0374194Y0239227D01*
X0373714Y0239707D02*
X0375114Y0238308D01*
X0377093Y0238308D01*
X0378492Y0239707D01*
X0378492Y0241686D01*
X0377093Y0243086D01*
X0375114Y0243086D01*
X0373714Y0241686D01*
X0373714Y0239707D01*
X0373714Y0241023D02*
X0351776Y0241023D01*
X0351178Y0241621D02*
X0373714Y0241621D01*
X0374248Y0242220D02*
X0350579Y0242220D01*
X0349981Y0242818D02*
X0369789Y0242818D01*
X0369995Y0242612D02*
X0371975Y0242612D01*
X0373374Y0244011D01*
X0373374Y0245990D01*
X0371975Y0247390D01*
X0369995Y0247390D01*
X0368596Y0245990D01*
X0368596Y0244011D01*
X0369995Y0242612D01*
X0369190Y0243417D02*
X0349382Y0243417D01*
X0348784Y0244015D02*
X0368596Y0244015D01*
X0368596Y0244614D02*
X0348199Y0244614D01*
X0348798Y0245213D02*
X0368596Y0245213D01*
X0368596Y0245811D02*
X0349396Y0245811D01*
X0349995Y0246410D02*
X0369015Y0246410D01*
X0369614Y0247008D02*
X0350593Y0247008D01*
X0351192Y0247607D02*
X0381236Y0247607D01*
X0380801Y0247171D02*
X0380801Y0245192D01*
X0382200Y0243793D01*
X0384179Y0243793D01*
X0385579Y0245192D01*
X0385579Y0247171D01*
X0384179Y0248571D01*
X0382200Y0248571D01*
X0380801Y0247171D01*
X0380801Y0247008D02*
X0372356Y0247008D01*
X0372955Y0246410D02*
X0380801Y0246410D01*
X0380801Y0245811D02*
X0373374Y0245811D01*
X0373374Y0245213D02*
X0380801Y0245213D01*
X0381379Y0244614D02*
X0373374Y0244614D01*
X0373374Y0244015D02*
X0381978Y0244015D01*
X0384402Y0244015D02*
X0396495Y0244015D01*
X0396247Y0243417D02*
X0372780Y0243417D01*
X0372181Y0242818D02*
X0374846Y0242818D01*
X0377360Y0242818D02*
X0396213Y0242818D01*
X0396213Y0242220D02*
X0377959Y0242220D01*
X0378492Y0241621D02*
X0396213Y0241621D01*
X0396213Y0241023D02*
X0378492Y0241023D01*
X0378492Y0240424D02*
X0396213Y0240424D01*
X0396438Y0239826D02*
X0378492Y0239826D01*
X0378012Y0239227D02*
X0396686Y0239227D01*
X0396934Y0238629D02*
X0377414Y0238629D01*
X0374793Y0238629D02*
X0367468Y0238629D01*
X0380405Y0233841D02*
X0383097Y0233841D01*
X0383696Y0233242D02*
X0381004Y0233242D01*
X0369937Y0222469D02*
X0407415Y0222469D01*
X0407415Y0221871D02*
X0370535Y0221871D01*
X0371134Y0221272D02*
X0407415Y0221272D01*
X0407415Y0221177D02*
X0408814Y0219777D01*
X0410793Y0219777D01*
X0412193Y0221177D01*
X0412193Y0223156D01*
X0410793Y0224555D01*
X0408814Y0224555D01*
X0407415Y0223156D01*
X0407415Y0221177D01*
X0407918Y0220674D02*
X0371732Y0220674D01*
X0372331Y0220075D02*
X0408517Y0220075D01*
X0411091Y0220075D02*
X0417408Y0220075D01*
X0417653Y0219477D02*
X0372929Y0219477D01*
X0373528Y0218878D02*
X0417862Y0218878D01*
X0418072Y0218280D02*
X0374126Y0218280D01*
X0374725Y0217681D02*
X0417630Y0217681D01*
X0416185Y0217082D02*
X0375323Y0217082D01*
X0375922Y0216484D02*
X0415004Y0216484D01*
X0414405Y0215885D02*
X0376520Y0215885D01*
X0377119Y0215287D02*
X0413807Y0215287D01*
X0413208Y0214688D02*
X0377717Y0214688D01*
X0378316Y0214090D02*
X0412894Y0214090D01*
X0412646Y0213491D02*
X0378914Y0213491D01*
X0379513Y0212893D02*
X0412398Y0212893D01*
X0412150Y0212294D02*
X0380111Y0212294D01*
X0380710Y0211696D02*
X0411961Y0211696D01*
X0411961Y0211097D02*
X0381308Y0211097D01*
X0381907Y0210499D02*
X0411961Y0210499D01*
X0411961Y0209900D02*
X0382505Y0209900D01*
X0383104Y0209302D02*
X0411961Y0209302D01*
X0412031Y0208703D02*
X0383702Y0208703D01*
X0384301Y0208105D02*
X0412279Y0208105D01*
X0412527Y0207506D02*
X0384899Y0207506D01*
X0385498Y0206908D02*
X0412775Y0206908D01*
X0413023Y0206309D02*
X0386096Y0206309D01*
X0386695Y0205711D02*
X0413519Y0205711D01*
X0414118Y0205112D02*
X0387293Y0205112D01*
X0387892Y0204514D02*
X0414716Y0204514D01*
X0415491Y0203915D02*
X0388490Y0203915D01*
X0389089Y0203317D02*
X0416936Y0203317D01*
X0421885Y0203317D02*
X0423022Y0203317D01*
X0423169Y0202718D02*
X0389688Y0202718D01*
X0390286Y0202120D02*
X0423315Y0202120D01*
X0423462Y0201521D02*
X0390885Y0201521D01*
X0391189Y0200923D02*
X0423609Y0200923D01*
X0423756Y0200324D02*
X0391189Y0200324D01*
X0391189Y0199726D02*
X0423902Y0199726D01*
X0424049Y0199127D02*
X0391189Y0199127D01*
X0391189Y0198529D02*
X0424196Y0198529D01*
X0424343Y0197930D02*
X0391189Y0197930D01*
X0391189Y0197332D02*
X0424490Y0197332D01*
X0424636Y0196733D02*
X0391189Y0196733D01*
X0391189Y0196135D02*
X0424783Y0196135D01*
X0424930Y0195536D02*
X0391189Y0195536D01*
X0391189Y0194938D02*
X0425077Y0194938D01*
X0425224Y0194339D02*
X0391189Y0194339D01*
X0391189Y0193741D02*
X0425370Y0193741D01*
X0425517Y0193142D02*
X0391189Y0193142D01*
X0391189Y0192544D02*
X0425664Y0192544D01*
X0425808Y0191945D02*
X0391189Y0191945D01*
X0391189Y0191346D02*
X0425895Y0191346D01*
X0425982Y0190748D02*
X0391189Y0190748D01*
X0391189Y0190149D02*
X0426069Y0190149D01*
X0426156Y0189551D02*
X0391189Y0189551D01*
X0391189Y0188952D02*
X0426243Y0188952D01*
X0426330Y0188354D02*
X0391189Y0188354D01*
X0391189Y0187755D02*
X0426417Y0187755D01*
X0426504Y0187157D02*
X0391189Y0187157D01*
X0391189Y0186558D02*
X0426591Y0186558D01*
X0426678Y0185960D02*
X0391189Y0185960D01*
X0391189Y0185361D02*
X0421316Y0185361D01*
X0419897Y0184763D02*
X0391189Y0184763D01*
X0391189Y0184164D02*
X0419298Y0184164D01*
X0418700Y0183566D02*
X0391189Y0183566D01*
X0391189Y0182967D02*
X0418101Y0182967D01*
X0417688Y0182369D02*
X0391189Y0182369D01*
X0391189Y0181770D02*
X0417440Y0181770D01*
X0417192Y0181172D02*
X0391189Y0181172D01*
X0391189Y0180573D02*
X0416944Y0180573D01*
X0416696Y0179975D02*
X0391189Y0179975D01*
X0391189Y0179376D02*
X0416685Y0179376D01*
X0416685Y0178778D02*
X0391189Y0178778D01*
X0391189Y0178179D02*
X0416685Y0178179D01*
X0416685Y0177581D02*
X0391189Y0177581D01*
X0391189Y0176982D02*
X0416686Y0176982D01*
X0416933Y0176384D02*
X0391189Y0176384D01*
X0391189Y0175785D02*
X0417181Y0175785D01*
X0417429Y0175187D02*
X0391189Y0175187D01*
X0391189Y0174588D02*
X0417677Y0174588D01*
X0418075Y0173990D02*
X0391189Y0173990D01*
X0391189Y0173391D02*
X0418673Y0173391D01*
X0419272Y0172793D02*
X0391189Y0172793D01*
X0391189Y0172194D02*
X0419871Y0172194D01*
X0421253Y0171596D02*
X0391189Y0171596D01*
X0391189Y0170997D02*
X0428210Y0170997D01*
X0428239Y0170399D02*
X0391189Y0170399D01*
X0391189Y0169800D02*
X0428268Y0169800D01*
X0428297Y0169202D02*
X0391189Y0169202D01*
X0391189Y0168603D02*
X0428325Y0168603D01*
X0428354Y0168005D02*
X0391189Y0168005D01*
X0391189Y0167406D02*
X0428383Y0167406D01*
X0428412Y0166808D02*
X0391189Y0166808D01*
X0391189Y0166209D02*
X0428441Y0166209D01*
X0428469Y0165611D02*
X0391189Y0165611D01*
X0391189Y0165012D02*
X0428498Y0165012D01*
X0428527Y0164413D02*
X0391189Y0164413D01*
X0391189Y0163815D02*
X0428556Y0163815D01*
X0428585Y0163216D02*
X0391189Y0163216D01*
X0391189Y0162618D02*
X0428566Y0162618D01*
X0428537Y0162019D02*
X0391189Y0162019D01*
X0391189Y0161421D02*
X0428508Y0161421D01*
X0428480Y0160822D02*
X0391189Y0160822D01*
X0391189Y0160224D02*
X0428451Y0160224D01*
X0428422Y0159625D02*
X0391189Y0159625D01*
X0390959Y0159027D02*
X0428393Y0159027D01*
X0428364Y0158428D02*
X0390360Y0158428D01*
X0389762Y0157830D02*
X0428336Y0157830D01*
X0428307Y0157231D02*
X0389163Y0157231D01*
X0388565Y0156633D02*
X0428278Y0156633D01*
X0428249Y0156034D02*
X0387966Y0156034D01*
X0387368Y0155436D02*
X0421640Y0155436D01*
X0420195Y0154837D02*
X0386769Y0154837D01*
X0386171Y0154239D02*
X0419294Y0154239D01*
X0418695Y0153640D02*
X0385572Y0153640D01*
X0384973Y0153042D02*
X0418097Y0153042D01*
X0417548Y0152443D02*
X0384375Y0152443D01*
X0387789Y0164413D02*
X0353225Y0164413D01*
X0353824Y0165012D02*
X0387789Y0165012D01*
X0387789Y0165611D02*
X0354083Y0165611D01*
X0354083Y0166209D02*
X0387789Y0166209D01*
X0387789Y0166808D02*
X0354083Y0166808D01*
X0353927Y0167406D02*
X0387789Y0167406D01*
X0387789Y0168005D02*
X0353328Y0168005D01*
X0352730Y0168603D02*
X0387789Y0168603D01*
X0387789Y0171596D02*
X0349777Y0171596D01*
X0350376Y0172194D02*
X0387789Y0172194D01*
X0387789Y0172793D02*
X0350933Y0172793D01*
X0350933Y0173391D02*
X0387789Y0173391D01*
X0387789Y0173990D02*
X0350933Y0173990D01*
X0350933Y0174588D02*
X0387789Y0174588D01*
X0387789Y0175187D02*
X0350477Y0175187D01*
X0349878Y0175785D02*
X0387789Y0175785D01*
X0387789Y0176384D02*
X0347085Y0176384D01*
X0347684Y0176982D02*
X0387789Y0176982D01*
X0387789Y0177581D02*
X0348177Y0177581D01*
X0348177Y0178179D02*
X0387789Y0178179D01*
X0387789Y0178778D02*
X0348177Y0178778D01*
X0348177Y0179376D02*
X0387789Y0179376D01*
X0387789Y0179975D02*
X0347657Y0179975D01*
X0347059Y0180573D02*
X0387789Y0180573D01*
X0384967Y0192612D02*
X0382988Y0192612D01*
X0381588Y0194011D01*
X0381588Y0195990D01*
X0382988Y0197390D01*
X0384967Y0197390D01*
X0386366Y0195990D01*
X0386366Y0194011D01*
X0384967Y0192612D01*
X0385497Y0193142D02*
X0387789Y0193142D01*
X0387789Y0193741D02*
X0386095Y0193741D01*
X0386366Y0194339D02*
X0387789Y0194339D01*
X0387789Y0194938D02*
X0386366Y0194938D01*
X0386366Y0195536D02*
X0387789Y0195536D01*
X0387789Y0196135D02*
X0386222Y0196135D01*
X0385623Y0196733D02*
X0387789Y0196733D01*
X0387789Y0197332D02*
X0385025Y0197332D01*
X0382929Y0197332D02*
X0357859Y0197332D01*
X0358458Y0196733D02*
X0382331Y0196733D01*
X0381732Y0196135D02*
X0358807Y0196135D01*
X0358807Y0195536D02*
X0381588Y0195536D01*
X0381588Y0194938D02*
X0358807Y0194938D01*
X0358741Y0194339D02*
X0381588Y0194339D01*
X0381859Y0193741D02*
X0358143Y0193741D01*
X0357544Y0193142D02*
X0382457Y0193142D01*
X0387789Y0197930D02*
X0355657Y0197930D01*
X0355657Y0198529D02*
X0387789Y0198529D01*
X0387789Y0199127D02*
X0355657Y0199127D01*
X0355072Y0199726D02*
X0387789Y0199726D01*
X0387273Y0200324D02*
X0354473Y0200324D01*
X0352114Y0200923D02*
X0386675Y0200923D01*
X0386076Y0201521D02*
X0351701Y0201521D01*
X0351103Y0202120D02*
X0385478Y0202120D01*
X0384879Y0202718D02*
X0349752Y0202718D01*
X0349752Y0203317D02*
X0384281Y0203317D01*
X0383682Y0203915D02*
X0352569Y0203915D01*
X0353168Y0204514D02*
X0383084Y0204514D01*
X0382485Y0205112D02*
X0353689Y0205112D01*
X0353689Y0205711D02*
X0381887Y0205711D01*
X0381288Y0206309D02*
X0353689Y0206309D01*
X0353689Y0206908D02*
X0380690Y0206908D01*
X0380091Y0207506D02*
X0353197Y0207506D01*
X0352598Y0208105D02*
X0379493Y0208105D01*
X0378894Y0208703D02*
X0352114Y0208703D01*
X0352114Y0209302D02*
X0378296Y0209302D01*
X0377697Y0209900D02*
X0352114Y0209900D01*
X0352114Y0210499D02*
X0377099Y0210499D01*
X0376500Y0211097D02*
X0351574Y0211097D01*
X0350976Y0211696D02*
X0375902Y0211696D01*
X0375303Y0212294D02*
X0350319Y0212294D01*
X0350917Y0212893D02*
X0374705Y0212893D01*
X0374106Y0213491D02*
X0351327Y0213491D01*
X0351327Y0214090D02*
X0373507Y0214090D01*
X0372909Y0214688D02*
X0351327Y0214688D01*
X0351321Y0215287D02*
X0372310Y0215287D01*
X0371712Y0215885D02*
X0350723Y0215885D01*
X0350124Y0216484D02*
X0371113Y0216484D01*
X0370515Y0217082D02*
X0340697Y0217082D01*
X0340697Y0216484D02*
X0347751Y0216484D01*
X0347153Y0215885D02*
X0340697Y0215885D01*
X0340319Y0215287D02*
X0346554Y0215287D01*
X0346549Y0214688D02*
X0339720Y0214688D01*
X0340660Y0217681D02*
X0369916Y0217681D01*
X0369318Y0218280D02*
X0340061Y0218280D01*
X0339463Y0218878D02*
X0368719Y0218878D01*
X0369338Y0223068D02*
X0407415Y0223068D01*
X0407925Y0223666D02*
X0368740Y0223666D01*
X0368141Y0224265D02*
X0408524Y0224265D01*
X0411084Y0224265D02*
X0415472Y0224265D01*
X0415195Y0224863D02*
X0367543Y0224863D01*
X0385000Y0244614D02*
X0396743Y0244614D01*
X0396991Y0245213D02*
X0385579Y0245213D01*
X0385579Y0245811D02*
X0397239Y0245811D01*
X0397685Y0246410D02*
X0385579Y0246410D01*
X0385579Y0247008D02*
X0398284Y0247008D01*
X0398882Y0247607D02*
X0385144Y0247607D01*
X0384545Y0248205D02*
X0399535Y0248205D01*
X0400980Y0248804D02*
X0393481Y0248804D01*
X0393471Y0248793D02*
X0394870Y0250192D01*
X0394870Y0252171D01*
X0393471Y0253571D01*
X0391492Y0253571D01*
X0390092Y0252171D01*
X0390092Y0250192D01*
X0391492Y0248793D01*
X0393471Y0248793D01*
X0394080Y0249402D02*
X0401296Y0249402D01*
X0400864Y0250001D02*
X0394678Y0250001D01*
X0394870Y0250599D02*
X0400431Y0250599D01*
X0399999Y0251198D02*
X0394870Y0251198D01*
X0394870Y0251796D02*
X0399567Y0251796D01*
X0399135Y0252395D02*
X0394647Y0252395D01*
X0394048Y0252993D02*
X0398703Y0252993D01*
X0398271Y0253592D02*
X0356445Y0253592D01*
X0356445Y0252993D02*
X0390914Y0252993D01*
X0390315Y0252395D02*
X0356445Y0252395D01*
X0356356Y0251796D02*
X0390092Y0251796D01*
X0390092Y0251198D02*
X0355757Y0251198D01*
X0355159Y0250599D02*
X0390092Y0250599D01*
X0390284Y0250001D02*
X0353586Y0250001D01*
X0352987Y0249402D02*
X0390882Y0249402D01*
X0391481Y0248804D02*
X0352389Y0248804D01*
X0351790Y0248205D02*
X0381834Y0248205D01*
X0394106Y0258978D02*
X0354870Y0258978D01*
X0354870Y0258972D02*
X0353471Y0257572D01*
X0351492Y0257572D01*
X0350092Y0258972D01*
X0350092Y0260951D01*
X0351492Y0262350D01*
X0353471Y0262350D01*
X0354870Y0260951D01*
X0354870Y0258972D01*
X0354870Y0259577D02*
X0393579Y0259577D01*
X0393053Y0260175D02*
X0354870Y0260175D01*
X0354870Y0260774D02*
X0365613Y0260774D01*
X0366058Y0260328D02*
X0368038Y0260328D01*
X0369437Y0261728D01*
X0369437Y0263707D01*
X0368038Y0265106D01*
X0366058Y0265106D01*
X0364659Y0263707D01*
X0364659Y0261728D01*
X0366058Y0260328D01*
X0365015Y0261372D02*
X0354449Y0261372D01*
X0353850Y0261971D02*
X0364659Y0261971D01*
X0364659Y0262569D02*
X0348164Y0262569D01*
X0348583Y0262988D02*
X0349176Y0264422D01*
X0349176Y0265973D01*
X0348583Y0267407D01*
X0347486Y0268504D01*
X0346052Y0269098D01*
X0344501Y0269098D01*
X0343067Y0268504D01*
X0341970Y0267407D01*
X0341376Y0265973D01*
X0341376Y0264422D01*
X0341970Y0262988D01*
X0343067Y0261891D01*
X0344501Y0261298D01*
X0346052Y0261298D01*
X0347486Y0261891D01*
X0348583Y0262988D01*
X0348657Y0263168D02*
X0364659Y0263168D01*
X0364719Y0263766D02*
X0348905Y0263766D01*
X0349153Y0264365D02*
X0365317Y0264365D01*
X0365916Y0264963D02*
X0349176Y0264963D01*
X0349176Y0265562D02*
X0370958Y0265562D01*
X0370958Y0266160D02*
X0349099Y0266160D01*
X0348851Y0266759D02*
X0371254Y0266759D01*
X0370958Y0266463D02*
X0370958Y0264484D01*
X0372358Y0263084D01*
X0374337Y0263084D01*
X0375736Y0264484D01*
X0375736Y0266463D01*
X0374337Y0267862D01*
X0372358Y0267862D01*
X0370958Y0266463D01*
X0371853Y0267357D02*
X0348603Y0267357D01*
X0348033Y0267956D02*
X0386207Y0267956D01*
X0386734Y0267357D02*
X0374842Y0267357D01*
X0375440Y0266759D02*
X0387261Y0266759D01*
X0387787Y0266160D02*
X0375736Y0266160D01*
X0375736Y0265562D02*
X0383679Y0265562D01*
X0383775Y0265657D02*
X0382376Y0264258D01*
X0382376Y0262279D01*
X0383775Y0260880D01*
X0385754Y0260880D01*
X0387154Y0262279D01*
X0387154Y0264258D01*
X0385754Y0265657D01*
X0383775Y0265657D01*
X0383081Y0264963D02*
X0375736Y0264963D01*
X0375617Y0264365D02*
X0382482Y0264365D01*
X0382376Y0263766D02*
X0375019Y0263766D01*
X0374420Y0263168D02*
X0382376Y0263168D01*
X0382376Y0262569D02*
X0369437Y0262569D01*
X0369437Y0261971D02*
X0382684Y0261971D01*
X0383282Y0261372D02*
X0369082Y0261372D01*
X0368483Y0260774D02*
X0392526Y0260774D01*
X0392000Y0261372D02*
X0386247Y0261372D01*
X0386845Y0261971D02*
X0391473Y0261971D01*
X0390947Y0262569D02*
X0387154Y0262569D01*
X0387154Y0263168D02*
X0390420Y0263168D01*
X0389893Y0263766D02*
X0387154Y0263766D01*
X0387047Y0264365D02*
X0389367Y0264365D01*
X0388840Y0264963D02*
X0386448Y0264963D01*
X0385850Y0265562D02*
X0388314Y0265562D01*
X0385601Y0268554D02*
X0347363Y0268554D01*
X0346052Y0271298D02*
X0347486Y0271891D01*
X0348583Y0272988D01*
X0349176Y0274422D01*
X0349176Y0275973D01*
X0348583Y0277407D01*
X0347486Y0278504D01*
X0346052Y0279098D01*
X0344501Y0279098D01*
X0343067Y0278504D01*
X0341970Y0277407D01*
X0341376Y0275973D01*
X0341376Y0274422D01*
X0341970Y0272988D01*
X0343067Y0271891D01*
X0344501Y0271298D01*
X0346052Y0271298D01*
X0346654Y0271547D02*
X0382408Y0271547D01*
X0381770Y0272146D02*
X0347740Y0272146D01*
X0348338Y0272744D02*
X0381131Y0272744D01*
X0380493Y0273343D02*
X0348729Y0273343D01*
X0348977Y0273941D02*
X0379854Y0273941D01*
X0379216Y0274540D02*
X0349176Y0274540D01*
X0349176Y0275138D02*
X0378577Y0275138D01*
X0377938Y0275737D02*
X0349176Y0275737D01*
X0349027Y0276335D02*
X0377300Y0276335D01*
X0376661Y0276934D02*
X0348779Y0276934D01*
X0348457Y0277532D02*
X0376023Y0277532D01*
X0375366Y0278131D02*
X0347859Y0278131D01*
X0346942Y0278729D02*
X0374590Y0278729D01*
X0373814Y0279328D02*
X0300029Y0279328D01*
X0300146Y0279444D02*
X0298746Y0278045D01*
X0296767Y0278045D01*
X0295368Y0279444D01*
X0295368Y0281423D01*
X0296767Y0282823D01*
X0298746Y0282823D01*
X0300146Y0281423D01*
X0300146Y0279444D01*
X0300146Y0279926D02*
X0366965Y0279926D01*
X0366366Y0280525D02*
X0300146Y0280525D01*
X0300146Y0281123D02*
X0365969Y0281123D01*
X0365969Y0281722D02*
X0347076Y0281722D01*
X0347486Y0281891D02*
X0348583Y0282988D01*
X0349176Y0284422D01*
X0349176Y0285973D01*
X0348583Y0287407D01*
X0347486Y0288504D01*
X0346052Y0289098D01*
X0344501Y0289098D01*
X0343067Y0288504D01*
X0341970Y0287407D01*
X0341376Y0285973D01*
X0341376Y0284422D01*
X0341970Y0282988D01*
X0343067Y0281891D01*
X0344501Y0281298D01*
X0346052Y0281298D01*
X0347486Y0281891D01*
X0347914Y0282320D02*
X0351547Y0282320D01*
X0351885Y0281982D02*
X0353864Y0281982D01*
X0355264Y0283381D01*
X0355264Y0285360D01*
X0353864Y0286760D01*
X0351885Y0286760D01*
X0350486Y0285360D01*
X0350486Y0283381D01*
X0351885Y0281982D01*
X0350948Y0282919D02*
X0348513Y0282919D01*
X0348802Y0283517D02*
X0350486Y0283517D01*
X0350486Y0284116D02*
X0349050Y0284116D01*
X0349176Y0284714D02*
X0350486Y0284714D01*
X0350486Y0285313D02*
X0349176Y0285313D01*
X0349176Y0285911D02*
X0351037Y0285911D01*
X0351635Y0286510D02*
X0348954Y0286510D01*
X0348706Y0287108D02*
X0363666Y0287108D01*
X0364499Y0286510D02*
X0354114Y0286510D01*
X0354713Y0285911D02*
X0365275Y0285911D01*
X0366052Y0285313D02*
X0355264Y0285313D01*
X0355264Y0284714D02*
X0366828Y0284714D01*
X0367183Y0284116D02*
X0355264Y0284116D01*
X0355264Y0283517D02*
X0366584Y0283517D01*
X0365986Y0282919D02*
X0354801Y0282919D01*
X0354203Y0282320D02*
X0365969Y0282320D01*
X0369750Y0279926D02*
X0373038Y0279926D01*
X0372261Y0280525D02*
X0370349Y0280525D01*
X0370747Y0281123D02*
X0371485Y0281123D01*
X0362712Y0287707D02*
X0348283Y0287707D01*
X0347684Y0288305D02*
X0361759Y0288305D01*
X0360806Y0288904D02*
X0346520Y0288904D01*
X0344033Y0288904D02*
X0336520Y0288904D01*
X0336052Y0289098D02*
X0334501Y0289098D01*
X0333067Y0288504D01*
X0331970Y0287407D01*
X0331376Y0285973D01*
X0331376Y0284422D01*
X0331970Y0282988D01*
X0333067Y0281891D01*
X0334501Y0281298D01*
X0336052Y0281298D01*
X0337486Y0281891D01*
X0338583Y0282988D01*
X0339176Y0284422D01*
X0339176Y0285973D01*
X0338583Y0287407D01*
X0337486Y0288504D01*
X0336052Y0289098D01*
X0337684Y0288305D02*
X0342869Y0288305D01*
X0342270Y0287707D02*
X0338283Y0287707D01*
X0338706Y0287108D02*
X0341846Y0287108D01*
X0341599Y0286510D02*
X0338954Y0286510D01*
X0339176Y0285911D02*
X0341376Y0285911D01*
X0341376Y0285313D02*
X0339176Y0285313D01*
X0339176Y0284714D02*
X0341376Y0284714D01*
X0341503Y0284116D02*
X0339050Y0284116D01*
X0338802Y0283517D02*
X0341751Y0283517D01*
X0342040Y0282919D02*
X0338513Y0282919D01*
X0337914Y0282320D02*
X0342638Y0282320D01*
X0343477Y0281722D02*
X0337076Y0281722D01*
X0336052Y0279098D02*
X0334501Y0279098D01*
X0333067Y0278504D01*
X0331970Y0277407D01*
X0331376Y0275973D01*
X0331376Y0274422D01*
X0331970Y0272988D01*
X0333067Y0271891D01*
X0334501Y0271298D01*
X0336052Y0271298D01*
X0337486Y0271891D01*
X0338583Y0272988D01*
X0339176Y0274422D01*
X0339176Y0275973D01*
X0338583Y0277407D01*
X0337486Y0278504D01*
X0336052Y0279098D01*
X0336942Y0278729D02*
X0343611Y0278729D01*
X0342694Y0278131D02*
X0337859Y0278131D01*
X0338457Y0277532D02*
X0342095Y0277532D01*
X0341774Y0276934D02*
X0338779Y0276934D01*
X0339027Y0276335D02*
X0341526Y0276335D01*
X0341376Y0275737D02*
X0339176Y0275737D01*
X0339176Y0275138D02*
X0341376Y0275138D01*
X0341376Y0274540D02*
X0339176Y0274540D01*
X0338977Y0273941D02*
X0341576Y0273941D01*
X0341823Y0273343D02*
X0338729Y0273343D01*
X0338338Y0272744D02*
X0342215Y0272744D01*
X0342813Y0272146D02*
X0337740Y0272146D01*
X0336654Y0271547D02*
X0343899Y0271547D01*
X0343189Y0268554D02*
X0337363Y0268554D01*
X0337486Y0268504D02*
X0336052Y0269098D01*
X0334501Y0269098D01*
X0333067Y0268504D01*
X0331970Y0267407D01*
X0331376Y0265973D01*
X0331376Y0264422D01*
X0331970Y0262988D01*
X0333067Y0261891D01*
X0334501Y0261298D01*
X0336052Y0261298D01*
X0337486Y0261891D01*
X0338583Y0262988D01*
X0339176Y0264422D01*
X0339176Y0265973D01*
X0338583Y0267407D01*
X0337486Y0268504D01*
X0338033Y0267956D02*
X0342519Y0267956D01*
X0341950Y0267357D02*
X0338603Y0267357D01*
X0338851Y0266759D02*
X0341702Y0266759D01*
X0341454Y0266160D02*
X0339099Y0266160D01*
X0339176Y0265562D02*
X0341376Y0265562D01*
X0341376Y0264963D02*
X0339176Y0264963D01*
X0339153Y0264365D02*
X0341400Y0264365D01*
X0341648Y0263766D02*
X0338905Y0263766D01*
X0338657Y0263168D02*
X0341896Y0263168D01*
X0342389Y0262569D02*
X0338164Y0262569D01*
X0337565Y0261971D02*
X0342988Y0261971D01*
X0344320Y0261372D02*
X0336232Y0261372D01*
X0334320Y0261372D02*
X0329184Y0261372D01*
X0329184Y0260774D02*
X0350092Y0260774D01*
X0350092Y0260175D02*
X0329184Y0260175D01*
X0329184Y0259577D02*
X0350092Y0259577D01*
X0350092Y0258978D02*
X0346340Y0258978D01*
X0346052Y0259098D02*
X0347486Y0258504D01*
X0348583Y0257407D01*
X0349176Y0255973D01*
X0349176Y0254422D01*
X0348583Y0252988D01*
X0347486Y0251891D01*
X0346052Y0251298D01*
X0344501Y0251298D01*
X0343067Y0251891D01*
X0341970Y0252988D01*
X0341376Y0254422D01*
X0341376Y0255973D01*
X0341970Y0257407D01*
X0343067Y0258504D01*
X0344501Y0259098D01*
X0346052Y0259098D01*
X0347610Y0258380D02*
X0350684Y0258380D01*
X0351283Y0257781D02*
X0348208Y0257781D01*
X0348675Y0257183D02*
X0395678Y0257183D01*
X0396110Y0256584D02*
X0348923Y0256584D01*
X0349171Y0255986D02*
X0396542Y0255986D01*
X0396974Y0255387D02*
X0349176Y0255387D01*
X0349176Y0254789D02*
X0352591Y0254789D01*
X0351993Y0254190D02*
X0349080Y0254190D01*
X0348832Y0253592D02*
X0351667Y0253592D01*
X0351667Y0252993D02*
X0348585Y0252993D01*
X0347989Y0252395D02*
X0351172Y0252395D01*
X0350573Y0251796D02*
X0347256Y0251796D01*
X0348778Y0250001D02*
X0332845Y0250001D01*
X0332247Y0250599D02*
X0349376Y0250599D01*
X0349975Y0251198D02*
X0331648Y0251198D01*
X0331050Y0251796D02*
X0333297Y0251796D01*
X0333067Y0251891D02*
X0334501Y0251298D01*
X0336052Y0251298D01*
X0337486Y0251891D01*
X0338583Y0252988D01*
X0339176Y0254422D01*
X0339176Y0255973D01*
X0338583Y0257407D01*
X0337486Y0258504D01*
X0336052Y0259098D01*
X0334501Y0259098D01*
X0333067Y0258504D01*
X0331970Y0257407D01*
X0331376Y0255973D01*
X0331376Y0254422D01*
X0331970Y0252988D01*
X0333067Y0251891D01*
X0332564Y0252395D02*
X0330451Y0252395D01*
X0329853Y0252993D02*
X0331968Y0252993D01*
X0331720Y0253592D02*
X0329254Y0253592D01*
X0329184Y0254190D02*
X0331472Y0254190D01*
X0331376Y0254789D02*
X0329184Y0254789D01*
X0329184Y0255387D02*
X0331376Y0255387D01*
X0331381Y0255986D02*
X0329184Y0255986D01*
X0329184Y0256584D02*
X0331629Y0256584D01*
X0331877Y0257183D02*
X0329184Y0257183D01*
X0329184Y0257781D02*
X0332345Y0257781D01*
X0332943Y0258380D02*
X0329184Y0258380D01*
X0329184Y0258978D02*
X0334212Y0258978D01*
X0336340Y0258978D02*
X0344212Y0258978D01*
X0342943Y0258380D02*
X0337610Y0258380D01*
X0338208Y0257781D02*
X0342345Y0257781D01*
X0341877Y0257183D02*
X0338675Y0257183D01*
X0338923Y0256584D02*
X0341629Y0256584D01*
X0341381Y0255986D02*
X0339171Y0255986D01*
X0339176Y0255387D02*
X0341376Y0255387D01*
X0341376Y0254789D02*
X0339176Y0254789D01*
X0339080Y0254190D02*
X0341472Y0254190D01*
X0341720Y0253592D02*
X0338832Y0253592D01*
X0338585Y0252993D02*
X0341968Y0252993D01*
X0342564Y0252395D02*
X0337989Y0252395D01*
X0337256Y0251796D02*
X0343297Y0251796D01*
X0346982Y0248205D02*
X0334641Y0248205D01*
X0335239Y0247607D02*
X0346384Y0247607D01*
X0345785Y0247008D02*
X0335838Y0247008D01*
X0334042Y0248804D02*
X0347581Y0248804D01*
X0348179Y0249402D02*
X0333444Y0249402D01*
X0330464Y0247008D02*
X0316057Y0247008D01*
X0316287Y0246410D02*
X0331063Y0246410D01*
X0331661Y0245811D02*
X0316287Y0245811D01*
X0316287Y0245213D02*
X0332260Y0245213D01*
X0332858Y0244614D02*
X0316103Y0244614D01*
X0315504Y0244015D02*
X0333457Y0244015D01*
X0334055Y0243417D02*
X0314906Y0243417D01*
X0315459Y0247607D02*
X0329865Y0247607D01*
X0329267Y0248205D02*
X0283364Y0248205D01*
X0283963Y0247607D02*
X0299740Y0247607D01*
X0299141Y0247008D02*
X0284398Y0247008D01*
X0284398Y0246410D02*
X0296181Y0246410D01*
X0295582Y0245811D02*
X0284398Y0245811D01*
X0284398Y0245213D02*
X0294984Y0245213D01*
X0294974Y0244614D02*
X0283819Y0244614D01*
X0283221Y0244015D02*
X0288668Y0244015D01*
X0288070Y0243417D02*
X0285002Y0243417D01*
X0285601Y0242818D02*
X0287494Y0242818D01*
X0287494Y0242220D02*
X0285972Y0242220D01*
X0289516Y0239227D02*
X0293006Y0239227D01*
X0293006Y0239826D02*
X0291236Y0239826D01*
X0291834Y0240424D02*
X0293006Y0240424D01*
X0293156Y0241023D02*
X0292272Y0241023D01*
X0292272Y0241621D02*
X0293755Y0241621D01*
X0294353Y0242220D02*
X0292272Y0242220D01*
X0292272Y0242818D02*
X0295379Y0242818D01*
X0294974Y0243417D02*
X0291695Y0243417D01*
X0291097Y0244015D02*
X0294974Y0244015D01*
X0298545Y0246410D02*
X0298911Y0246410D01*
X0299032Y0249402D02*
X0239001Y0249402D01*
X0238904Y0249305D02*
X0240303Y0250704D01*
X0240303Y0252683D01*
X0238904Y0254083D01*
X0236925Y0254083D01*
X0235525Y0252683D01*
X0235525Y0250704D01*
X0236925Y0249305D01*
X0238904Y0249305D01*
X0239600Y0250001D02*
X0281898Y0250001D01*
X0282200Y0249698D02*
X0284179Y0249698D01*
X0285579Y0251098D01*
X0285579Y0253077D01*
X0284179Y0254476D01*
X0282200Y0254476D01*
X0280801Y0253077D01*
X0280801Y0251098D01*
X0282200Y0249698D01*
X0281300Y0250599D02*
X0240198Y0250599D01*
X0240303Y0251198D02*
X0280801Y0251198D01*
X0280801Y0251796D02*
X0240303Y0251796D01*
X0240303Y0252395D02*
X0280801Y0252395D01*
X0280801Y0252993D02*
X0263852Y0252993D01*
X0263313Y0252454D02*
X0264713Y0253854D01*
X0264713Y0255833D01*
X0263313Y0257232D01*
X0261334Y0257232D01*
X0259935Y0255833D01*
X0259935Y0253854D01*
X0261334Y0252454D01*
X0263313Y0252454D01*
X0264451Y0253592D02*
X0281316Y0253592D01*
X0281914Y0254190D02*
X0264713Y0254190D01*
X0264713Y0254789D02*
X0297976Y0254789D01*
X0297730Y0255387D02*
X0264713Y0255387D01*
X0264560Y0255986D02*
X0272763Y0255986D01*
X0273145Y0255604D02*
X0275124Y0255604D01*
X0276524Y0257003D01*
X0276524Y0258982D01*
X0275124Y0260382D01*
X0273145Y0260382D01*
X0271746Y0258982D01*
X0271746Y0257003D01*
X0273145Y0255604D01*
X0272165Y0256584D02*
X0263961Y0256584D01*
X0263363Y0257183D02*
X0271746Y0257183D01*
X0271746Y0257781D02*
X0230087Y0257781D01*
X0230686Y0257183D02*
X0261285Y0257183D01*
X0260686Y0256584D02*
X0230736Y0256584D01*
X0230736Y0257132D02*
X0230736Y0255153D01*
X0229337Y0253754D01*
X0227358Y0253754D01*
X0225958Y0255153D01*
X0225958Y0257132D01*
X0227358Y0258531D01*
X0229337Y0258531D01*
X0230736Y0257132D01*
X0230736Y0255986D02*
X0260088Y0255986D01*
X0259935Y0255387D02*
X0230736Y0255387D01*
X0230372Y0254789D02*
X0259935Y0254789D01*
X0259935Y0254190D02*
X0229773Y0254190D01*
X0226921Y0254190D02*
X0204025Y0254190D01*
X0203471Y0253635D02*
X0204870Y0255035D01*
X0204870Y0257014D01*
X0203471Y0258413D01*
X0201492Y0258413D01*
X0200092Y0257014D01*
X0200092Y0255035D01*
X0201492Y0253635D01*
X0203471Y0253635D01*
X0204624Y0254789D02*
X0226323Y0254789D01*
X0225958Y0255387D02*
X0204870Y0255387D01*
X0204870Y0255986D02*
X0225958Y0255986D01*
X0225958Y0256584D02*
X0204870Y0256584D01*
X0204701Y0257183D02*
X0226009Y0257183D01*
X0226607Y0257781D02*
X0204103Y0257781D01*
X0203504Y0258380D02*
X0227206Y0258380D01*
X0229489Y0258380D02*
X0268007Y0258380D01*
X0268027Y0258360D02*
X0270006Y0258360D01*
X0271405Y0259759D01*
X0271405Y0261738D01*
X0270006Y0263138D01*
X0268027Y0263138D01*
X0266628Y0261738D01*
X0266628Y0259759D01*
X0268027Y0258360D01*
X0267409Y0258978D02*
X0199358Y0258978D01*
X0199358Y0258578D02*
X0197959Y0257179D01*
X0195980Y0257179D01*
X0194580Y0258578D01*
X0194580Y0260557D01*
X0195980Y0261957D01*
X0197959Y0261957D01*
X0199358Y0260557D01*
X0199358Y0258578D01*
X0199160Y0258380D02*
X0201458Y0258380D01*
X0200859Y0257781D02*
X0198561Y0257781D01*
X0197963Y0257183D02*
X0200261Y0257183D01*
X0200092Y0256584D02*
X0180067Y0256584D01*
X0180067Y0257014D02*
X0180067Y0255035D01*
X0178667Y0253635D01*
X0176688Y0253635D01*
X0175289Y0255035D01*
X0175289Y0257014D01*
X0176688Y0258413D01*
X0178667Y0258413D01*
X0180067Y0257014D01*
X0179898Y0257183D02*
X0195976Y0257183D01*
X0195377Y0257781D02*
X0179300Y0257781D01*
X0178701Y0258380D02*
X0194779Y0258380D01*
X0194580Y0258978D02*
X0154292Y0258978D01*
X0154438Y0259332D02*
X0153939Y0258127D01*
X0153017Y0257205D01*
X0151812Y0256706D01*
X0150508Y0256706D01*
X0149303Y0257205D01*
X0148381Y0258127D01*
X0147882Y0259332D01*
X0147882Y0260636D01*
X0148381Y0261841D01*
X0149303Y0262763D01*
X0150508Y0263262D01*
X0151812Y0263262D01*
X0153017Y0262763D01*
X0153939Y0261841D01*
X0154438Y0260636D01*
X0154438Y0259332D01*
X0154438Y0259577D02*
X0194580Y0259577D01*
X0194580Y0260175D02*
X0159865Y0260175D01*
X0160243Y0260332D02*
X0161166Y0261254D01*
X0161665Y0262459D01*
X0161665Y0263763D01*
X0161166Y0264968D01*
X0160243Y0265890D01*
X0159039Y0266389D01*
X0157735Y0266389D01*
X0156530Y0265890D01*
X0155608Y0264968D01*
X0155109Y0263763D01*
X0155109Y0262459D01*
X0155608Y0261254D01*
X0156530Y0260332D01*
X0157735Y0259833D01*
X0159039Y0259833D01*
X0160243Y0260332D01*
X0160685Y0260774D02*
X0194797Y0260774D01*
X0195395Y0261372D02*
X0161214Y0261372D01*
X0161462Y0261971D02*
X0260873Y0261971D01*
X0260722Y0262121D02*
X0262121Y0260722D01*
X0264101Y0260722D01*
X0265500Y0262121D01*
X0265500Y0264101D01*
X0264101Y0265500D01*
X0262121Y0265500D01*
X0260722Y0264101D01*
X0260722Y0262121D01*
X0260722Y0262569D02*
X0161665Y0262569D01*
X0161665Y0263168D02*
X0164460Y0263168D01*
X0164961Y0262960D02*
X0166265Y0262960D01*
X0167470Y0263459D01*
X0168392Y0264381D01*
X0168891Y0265586D01*
X0168891Y0266890D01*
X0168392Y0268095D01*
X0167470Y0269017D01*
X0166265Y0269516D01*
X0164961Y0269516D01*
X0163756Y0269017D01*
X0162834Y0268095D01*
X0162335Y0266890D01*
X0162335Y0265586D01*
X0162834Y0264381D01*
X0163756Y0263459D01*
X0164961Y0262960D01*
X0163449Y0263766D02*
X0161663Y0263766D01*
X0161415Y0264365D02*
X0162851Y0264365D01*
X0162593Y0264963D02*
X0161167Y0264963D01*
X0160571Y0265562D02*
X0162345Y0265562D01*
X0162335Y0266160D02*
X0159590Y0266160D01*
X0157183Y0266160D02*
X0146560Y0266160D01*
X0146605Y0265562D02*
X0156202Y0265562D01*
X0155606Y0264963D02*
X0146605Y0264963D01*
X0146590Y0264365D02*
X0155358Y0264365D01*
X0155110Y0263766D02*
X0146342Y0263766D01*
X0146094Y0263168D02*
X0150281Y0263168D01*
X0149110Y0262569D02*
X0145666Y0262569D01*
X0145068Y0261971D02*
X0148511Y0261971D01*
X0148187Y0261372D02*
X0143992Y0261372D01*
X0140922Y0261372D02*
X0124624Y0261372D01*
X0123239Y0260774D02*
X0147939Y0260774D01*
X0147882Y0260175D02*
X0121854Y0260175D01*
X0120469Y0259577D02*
X0147882Y0259577D01*
X0148029Y0258978D02*
X0119084Y0258978D01*
X0117698Y0258380D02*
X0148277Y0258380D01*
X0148727Y0257781D02*
X0116313Y0257781D01*
X0114928Y0257183D02*
X0149357Y0257183D01*
X0152963Y0257183D02*
X0175458Y0257183D01*
X0175289Y0256584D02*
X0113543Y0256584D01*
X0112158Y0255986D02*
X0175289Y0255986D01*
X0175289Y0255387D02*
X0110772Y0255387D01*
X0109387Y0254789D02*
X0175535Y0254789D01*
X0176134Y0254190D02*
X0108002Y0254190D01*
X0106617Y0253592D02*
X0236434Y0253592D01*
X0235835Y0252993D02*
X0105232Y0252993D01*
X0103847Y0252395D02*
X0235525Y0252395D01*
X0235525Y0251796D02*
X0102461Y0251796D01*
X0101076Y0251198D02*
X0235525Y0251198D01*
X0235630Y0250599D02*
X0099691Y0250599D01*
X0098306Y0250001D02*
X0178512Y0250001D01*
X0177913Y0249402D02*
X0096921Y0249402D01*
X0095535Y0248804D02*
X0177315Y0248804D01*
X0177257Y0248205D02*
X0094150Y0248205D01*
X0092765Y0247607D02*
X0177257Y0247607D01*
X0177257Y0247008D02*
X0091380Y0247008D01*
X0089995Y0246410D02*
X0177615Y0246410D01*
X0178214Y0245811D02*
X0088610Y0245811D01*
X0074244Y0239227D02*
X0073527Y0239227D01*
X0074244Y0238629D02*
X0072208Y0238629D01*
X0071090Y0238030D02*
X0074244Y0238030D01*
X0074244Y0237432D02*
X0070042Y0237432D01*
X0068994Y0236833D02*
X0074404Y0236833D01*
X0074652Y0236235D02*
X0067946Y0236235D01*
X0066898Y0235636D02*
X0074900Y0235636D01*
X0075148Y0235038D02*
X0065850Y0235038D01*
X0064802Y0234439D02*
X0075421Y0234439D01*
X0076019Y0233841D02*
X0063754Y0233841D01*
X0062740Y0233242D02*
X0076618Y0233242D01*
X0077216Y0232644D02*
X0061941Y0232644D01*
X0061141Y0232045D02*
X0078297Y0232045D01*
X0079742Y0231447D02*
X0060342Y0231447D01*
X0057944Y0229651D02*
X0277848Y0229651D01*
X0277257Y0229053D02*
X0057144Y0229053D01*
X0056345Y0228454D02*
X0277257Y0228454D01*
X0277257Y0227856D02*
X0055545Y0227856D01*
X0054746Y0227257D02*
X0277257Y0227257D01*
X0276313Y0226659D02*
X0054077Y0226659D01*
X0053456Y0226060D02*
X0268708Y0226060D01*
X0265551Y0225462D02*
X0052834Y0225462D01*
X0052212Y0224863D02*
X0263058Y0224863D01*
X0260565Y0224265D02*
X0051591Y0224265D01*
X0050969Y0223666D02*
X0170209Y0223666D01*
X0170310Y0223768D02*
X0168911Y0222368D01*
X0168911Y0220389D01*
X0170310Y0218990D01*
X0172290Y0218990D01*
X0173689Y0220389D01*
X0173689Y0222368D01*
X0172290Y0223768D01*
X0170310Y0223768D01*
X0169610Y0223068D02*
X0050347Y0223068D01*
X0049725Y0222469D02*
X0169012Y0222469D01*
X0168911Y0221871D02*
X0049104Y0221871D01*
X0048482Y0221272D02*
X0168911Y0221272D01*
X0168911Y0220674D02*
X0047860Y0220674D01*
X0047239Y0220075D02*
X0169225Y0220075D01*
X0169824Y0219477D02*
X0046713Y0219477D01*
X0046228Y0218878D02*
X0247229Y0218878D01*
X0248205Y0219477D02*
X0172776Y0219477D01*
X0173375Y0220075D02*
X0249375Y0220075D01*
X0250820Y0220674D02*
X0173689Y0220674D01*
X0173689Y0221272D02*
X0252265Y0221272D01*
X0253710Y0221871D02*
X0173689Y0221871D01*
X0173588Y0222469D02*
X0255155Y0222469D01*
X0256600Y0223068D02*
X0172990Y0223068D01*
X0172391Y0223666D02*
X0258072Y0223666D01*
X0246252Y0218280D02*
X0045744Y0218280D01*
X0047029Y0217681D02*
X0245275Y0217681D01*
X0244299Y0217082D02*
X0047943Y0217082D01*
X0048541Y0216484D02*
X0243322Y0216484D01*
X0242345Y0215885D02*
X0189148Y0215885D01*
X0188825Y0216209D02*
X0186846Y0216209D01*
X0185446Y0214809D01*
X0185446Y0212830D01*
X0186846Y0211431D01*
X0188825Y0211431D01*
X0190224Y0212830D01*
X0190224Y0214809D01*
X0188825Y0216209D01*
X0189747Y0215287D02*
X0241369Y0215287D01*
X0240392Y0214688D02*
X0190224Y0214688D01*
X0190224Y0214090D02*
X0239655Y0214090D01*
X0238954Y0213491D02*
X0190224Y0213491D01*
X0190224Y0212893D02*
X0238253Y0212893D01*
X0237552Y0212294D02*
X0189689Y0212294D01*
X0189090Y0211696D02*
X0236851Y0211696D01*
X0236151Y0211097D02*
X0050797Y0211097D01*
X0050797Y0210499D02*
X0235450Y0210499D01*
X0234749Y0209900D02*
X0050797Y0209900D01*
X0050648Y0209302D02*
X0234048Y0209302D01*
X0233348Y0208703D02*
X0050400Y0208703D01*
X0050152Y0208105D02*
X0232652Y0208105D01*
X0232667Y0208122D02*
X0232667Y0208122D01*
X0232141Y0207506D02*
X0123512Y0207506D01*
X0123234Y0207783D02*
X0121255Y0207783D01*
X0119856Y0206384D01*
X0119856Y0204405D01*
X0121255Y0203006D01*
X0123234Y0203006D01*
X0124634Y0204405D01*
X0124634Y0206384D01*
X0123234Y0207783D01*
X0124110Y0206908D02*
X0231630Y0206908D01*
X0231119Y0206309D02*
X0124634Y0206309D01*
X0124634Y0205711D02*
X0230608Y0205711D01*
X0230096Y0205112D02*
X0124634Y0205112D01*
X0124634Y0204514D02*
X0229585Y0204514D01*
X0229074Y0203915D02*
X0124144Y0203915D01*
X0123546Y0203317D02*
X0228563Y0203317D01*
X0218951Y0187157D02*
X0183449Y0187157D01*
X0203438Y0174588D02*
X0215171Y0174588D01*
X0215028Y0173990D02*
X0204036Y0173990D01*
X0204476Y0173391D02*
X0214884Y0173391D01*
X0214785Y0172793D02*
X0204476Y0172793D01*
X0204476Y0172194D02*
X0214738Y0172194D01*
X0214691Y0171596D02*
X0204476Y0171596D01*
X0203903Y0170997D02*
X0214643Y0170997D01*
X0214596Y0170399D02*
X0203305Y0170399D01*
X0186581Y0211696D02*
X0050797Y0211696D01*
X0050797Y0212294D02*
X0185982Y0212294D01*
X0185446Y0212893D02*
X0050686Y0212893D01*
X0050438Y0213491D02*
X0185446Y0213491D01*
X0185446Y0214090D02*
X0050190Y0214090D01*
X0049942Y0214688D02*
X0185446Y0214688D01*
X0185924Y0215287D02*
X0049694Y0215287D01*
X0049140Y0215885D02*
X0186523Y0215885D01*
X0160527Y0239826D02*
X0226718Y0239826D01*
X0226470Y0240424D02*
X0160894Y0240424D01*
X0160894Y0241023D02*
X0226470Y0241023D01*
X0226470Y0241621D02*
X0160894Y0241621D01*
X0160845Y0242220D02*
X0226637Y0242220D01*
X0227235Y0242818D02*
X0160247Y0242818D01*
X0159648Y0243417D02*
X0227834Y0243417D01*
X0231248Y0241023D02*
X0232133Y0241023D01*
X0231534Y0240424D02*
X0231248Y0240424D01*
X0231194Y0239826D02*
X0231000Y0239826D01*
X0231194Y0239227D02*
X0230401Y0239227D01*
X0231868Y0237432D02*
X0218940Y0237432D01*
X0219539Y0236833D02*
X0232467Y0236833D01*
X0227317Y0239227D02*
X0159929Y0239227D01*
X0180781Y0250001D02*
X0236229Y0250001D01*
X0236827Y0249402D02*
X0181380Y0249402D01*
X0179222Y0254190D02*
X0200937Y0254190D01*
X0200338Y0254789D02*
X0179821Y0254789D01*
X0180067Y0255387D02*
X0200092Y0255387D01*
X0200092Y0255986D02*
X0180067Y0255986D01*
X0176655Y0258380D02*
X0154044Y0258380D01*
X0153593Y0257781D02*
X0176056Y0257781D01*
X0168375Y0264365D02*
X0260986Y0264365D01*
X0260722Y0263766D02*
X0167777Y0263766D01*
X0166766Y0263168D02*
X0260722Y0263168D01*
X0261471Y0261372D02*
X0198543Y0261372D01*
X0199142Y0260774D02*
X0262070Y0260774D01*
X0264152Y0260774D02*
X0266628Y0260774D01*
X0266628Y0261372D02*
X0264751Y0261372D01*
X0265349Y0261971D02*
X0266860Y0261971D01*
X0267459Y0262569D02*
X0265500Y0262569D01*
X0265500Y0263168D02*
X0325384Y0263168D01*
X0325384Y0263766D02*
X0265500Y0263766D01*
X0265236Y0264365D02*
X0325312Y0264365D01*
X0324713Y0264963D02*
X0264637Y0264963D01*
X0261585Y0264963D02*
X0168633Y0264963D01*
X0168881Y0265562D02*
X0228148Y0265562D01*
X0228263Y0265446D02*
X0230242Y0265446D01*
X0231642Y0266846D01*
X0231642Y0268825D01*
X0230242Y0270224D01*
X0228263Y0270224D01*
X0226864Y0268825D01*
X0226864Y0266846D01*
X0228263Y0265446D01*
X0227549Y0266160D02*
X0210326Y0266160D01*
X0209770Y0265604D02*
X0211169Y0267003D01*
X0211169Y0268982D01*
X0209770Y0270382D01*
X0207791Y0270382D01*
X0206391Y0268982D01*
X0206391Y0267003D01*
X0207791Y0265604D01*
X0209770Y0265604D01*
X0210925Y0266759D02*
X0226951Y0266759D01*
X0226864Y0267357D02*
X0211169Y0267357D01*
X0211169Y0267956D02*
X0226864Y0267956D01*
X0226864Y0268554D02*
X0211169Y0268554D01*
X0210999Y0269153D02*
X0227192Y0269153D01*
X0227790Y0269751D02*
X0210400Y0269751D01*
X0209802Y0270350D02*
X0269186Y0270350D01*
X0268596Y0270940D02*
X0269995Y0269541D01*
X0271975Y0269541D01*
X0273374Y0270940D01*
X0273374Y0272919D01*
X0271975Y0274319D01*
X0269995Y0274319D01*
X0268596Y0272919D01*
X0268596Y0270940D01*
X0268596Y0270948D02*
X0146787Y0270948D01*
X0145402Y0270350D02*
X0207759Y0270350D01*
X0207160Y0269751D02*
X0144017Y0269751D01*
X0143816Y0269153D02*
X0164084Y0269153D01*
X0163294Y0268554D02*
X0144995Y0268554D01*
X0145593Y0267956D02*
X0162777Y0267956D01*
X0162529Y0267357D02*
X0146064Y0267357D01*
X0146312Y0266759D02*
X0162335Y0266759D01*
X0167142Y0269153D02*
X0206562Y0269153D01*
X0206391Y0268554D02*
X0167932Y0268554D01*
X0168450Y0267956D02*
X0206391Y0267956D01*
X0206391Y0267357D02*
X0168697Y0267357D01*
X0168891Y0266759D02*
X0206636Y0266759D01*
X0207234Y0266160D02*
X0168891Y0266160D01*
X0168870Y0272146D02*
X0234950Y0272146D01*
X0234351Y0272744D02*
X0170188Y0272744D01*
X0170787Y0273343D02*
X0229029Y0273343D01*
X0229444Y0272927D02*
X0228045Y0274326D01*
X0228045Y0276305D01*
X0229444Y0277705D01*
X0231423Y0277705D01*
X0232823Y0276305D01*
X0232823Y0274326D01*
X0231423Y0272927D01*
X0229444Y0272927D01*
X0228430Y0273941D02*
X0171315Y0273941D01*
X0171563Y0274540D02*
X0228045Y0274540D01*
X0228045Y0275138D02*
X0171811Y0275138D01*
X0171897Y0275737D02*
X0228045Y0275737D01*
X0228075Y0276335D02*
X0171897Y0276335D01*
X0171897Y0276934D02*
X0228673Y0276934D01*
X0229272Y0277532D02*
X0171675Y0277532D01*
X0171428Y0278131D02*
X0262823Y0278131D01*
X0262909Y0278045D02*
X0264888Y0278045D01*
X0266287Y0279444D01*
X0266287Y0281423D01*
X0264888Y0282823D01*
X0262909Y0282823D01*
X0261509Y0281423D01*
X0261509Y0279444D01*
X0262909Y0278045D01*
X0262225Y0278729D02*
X0181247Y0278729D01*
X0181845Y0279328D02*
X0261626Y0279328D01*
X0261509Y0279926D02*
X0182313Y0279926D01*
X0182561Y0280525D02*
X0261509Y0280525D01*
X0261509Y0281123D02*
X0182750Y0281123D01*
X0182750Y0281722D02*
X0261808Y0281722D01*
X0262406Y0282320D02*
X0189518Y0282320D01*
X0190560Y0282919D02*
X0260004Y0282919D01*
X0260153Y0282769D02*
X0262132Y0282769D01*
X0263531Y0284169D01*
X0263531Y0286148D01*
X0262132Y0287547D01*
X0260153Y0287547D01*
X0258754Y0286148D01*
X0258754Y0284169D01*
X0260153Y0282769D01*
X0259405Y0283517D02*
X0191159Y0283517D01*
X0191462Y0284116D02*
X0258807Y0284116D01*
X0258754Y0284714D02*
X0191710Y0284714D01*
X0191783Y0285313D02*
X0258754Y0285313D01*
X0258754Y0285911D02*
X0191783Y0285911D01*
X0191684Y0286510D02*
X0195454Y0286510D01*
X0194808Y0287108D02*
X0191436Y0287108D01*
X0191095Y0287707D02*
X0194318Y0287707D01*
X0194070Y0288305D02*
X0190497Y0288305D01*
X0189364Y0288904D02*
X0193866Y0288904D01*
X0193866Y0289502D02*
X0189728Y0289502D01*
X0191113Y0290101D02*
X0193866Y0290101D01*
X0194081Y0290699D02*
X0192498Y0290699D01*
X0193883Y0291298D02*
X0194329Y0291298D01*
X0198039Y0293093D02*
X0220301Y0293093D01*
X0220389Y0293006D02*
X0222368Y0293006D01*
X0223768Y0294405D01*
X0223768Y0296384D01*
X0222368Y0297783D01*
X0220389Y0297783D01*
X0218990Y0296384D01*
X0218990Y0294405D01*
X0220389Y0293006D01*
X0219703Y0293692D02*
X0199424Y0293692D01*
X0199164Y0292495D02*
X0355086Y0292495D01*
X0354133Y0293093D02*
X0222456Y0293093D01*
X0223055Y0293692D02*
X0338207Y0293692D01*
X0337608Y0294290D02*
X0223653Y0294290D01*
X0223768Y0294889D02*
X0337100Y0294889D01*
X0337100Y0295487D02*
X0230885Y0295487D01*
X0232330Y0296086D02*
X0337100Y0296086D01*
X0337100Y0296684D02*
X0233598Y0296684D01*
X0234196Y0297283D02*
X0337605Y0297283D01*
X0335951Y0297882D02*
X0234795Y0297882D01*
X0235393Y0298480D02*
X0328773Y0298480D01*
X0329208Y0298045D02*
X0331187Y0298045D01*
X0332587Y0299444D01*
X0332587Y0301423D01*
X0331187Y0302823D01*
X0329208Y0302823D01*
X0327809Y0301423D01*
X0327809Y0299444D01*
X0329208Y0298045D01*
X0328174Y0299079D02*
X0267811Y0299079D01*
X0267250Y0298517D02*
X0268650Y0299917D01*
X0268650Y0301896D01*
X0267250Y0303295D01*
X0265271Y0303295D01*
X0263872Y0301896D01*
X0263872Y0299917D01*
X0265271Y0298517D01*
X0267250Y0298517D01*
X0268410Y0299677D02*
X0327809Y0299677D01*
X0327809Y0300276D02*
X0268650Y0300276D01*
X0268650Y0300874D02*
X0327809Y0300874D01*
X0327858Y0301473D02*
X0268650Y0301473D01*
X0268474Y0302071D02*
X0328456Y0302071D01*
X0329055Y0302670D02*
X0267876Y0302670D01*
X0267277Y0303268D02*
X0333171Y0303268D01*
X0334722Y0302670D02*
X0331340Y0302670D01*
X0331939Y0302071D02*
X0335843Y0302071D01*
X0335244Y0301473D02*
X0332537Y0301473D01*
X0332587Y0300874D02*
X0334792Y0300874D01*
X0334792Y0300276D02*
X0332587Y0300276D01*
X0332587Y0299677D02*
X0334792Y0299677D01*
X0334792Y0299079D02*
X0332221Y0299079D01*
X0331622Y0298480D02*
X0335352Y0298480D01*
X0339008Y0298480D02*
X0344001Y0298480D01*
X0345196Y0297882D02*
X0340774Y0297882D01*
X0341373Y0297283D02*
X0346390Y0297283D01*
X0347585Y0296684D02*
X0341878Y0296684D01*
X0341878Y0296086D02*
X0348780Y0296086D01*
X0349974Y0295487D02*
X0341878Y0295487D01*
X0341878Y0294889D02*
X0351169Y0294889D01*
X0352226Y0294290D02*
X0341370Y0294290D01*
X0340771Y0293692D02*
X0353179Y0293692D01*
X0356039Y0291896D02*
X0199848Y0291896D01*
X0200353Y0291298D02*
X0356993Y0291298D01*
X0357946Y0290699D02*
X0200601Y0290699D01*
X0200816Y0290101D02*
X0289085Y0290101D01*
X0289287Y0290303D02*
X0287887Y0288904D01*
X0287887Y0286925D01*
X0289287Y0285525D01*
X0291266Y0285525D01*
X0292665Y0286925D01*
X0292665Y0288904D01*
X0334033Y0288904D01*
X0332869Y0288305D02*
X0292665Y0288305D01*
X0292665Y0287707D02*
X0332270Y0287707D01*
X0331846Y0287108D02*
X0292665Y0287108D01*
X0292251Y0286510D02*
X0331599Y0286510D01*
X0331376Y0285911D02*
X0291652Y0285911D01*
X0288901Y0285911D02*
X0263531Y0285911D01*
X0263531Y0285313D02*
X0270517Y0285313D01*
X0271098Y0285894D02*
X0269698Y0284494D01*
X0269698Y0282515D01*
X0271098Y0281116D01*
X0273077Y0281116D01*
X0274476Y0282515D01*
X0274476Y0284494D01*
X0273077Y0285894D01*
X0271098Y0285894D01*
X0269918Y0284714D02*
X0263531Y0284714D01*
X0263479Y0284116D02*
X0269698Y0284116D01*
X0269698Y0283517D02*
X0262880Y0283517D01*
X0262281Y0282919D02*
X0269698Y0282919D01*
X0269893Y0282320D02*
X0265391Y0282320D01*
X0265989Y0281722D02*
X0270492Y0281722D01*
X0271090Y0281123D02*
X0266287Y0281123D01*
X0266287Y0280525D02*
X0295368Y0280525D01*
X0295368Y0281123D02*
X0273084Y0281123D01*
X0273683Y0281722D02*
X0295666Y0281722D01*
X0296265Y0282320D02*
X0274281Y0282320D01*
X0274476Y0282919D02*
X0332040Y0282919D01*
X0331751Y0283517D02*
X0274476Y0283517D01*
X0274476Y0284116D02*
X0331503Y0284116D01*
X0331376Y0284714D02*
X0274256Y0284714D01*
X0273658Y0285313D02*
X0331376Y0285313D01*
X0332638Y0282320D02*
X0299249Y0282320D01*
X0299847Y0281722D02*
X0333477Y0281722D01*
X0333611Y0278729D02*
X0299430Y0278729D01*
X0298832Y0278131D02*
X0332694Y0278131D01*
X0332095Y0277532D02*
X0296084Y0277532D01*
X0296681Y0278131D02*
X0295486Y0278131D01*
X0295360Y0278256D02*
X0293381Y0278256D01*
X0291982Y0276856D01*
X0291982Y0274877D01*
X0293381Y0273478D01*
X0295360Y0273478D01*
X0296760Y0274877D01*
X0296760Y0276856D01*
X0295360Y0278256D01*
X0296083Y0278729D02*
X0287823Y0278729D01*
X0287823Y0279061D02*
X0286423Y0280461D01*
X0284444Y0280461D01*
X0283045Y0279061D01*
X0283045Y0277082D01*
X0284444Y0275683D01*
X0286423Y0275683D01*
X0287823Y0277082D01*
X0287823Y0279061D01*
X0287556Y0279328D02*
X0295484Y0279328D01*
X0295368Y0279926D02*
X0286958Y0279926D01*
X0287823Y0278131D02*
X0293256Y0278131D01*
X0292658Y0277532D02*
X0287823Y0277532D01*
X0287674Y0276934D02*
X0292059Y0276934D01*
X0291982Y0276335D02*
X0287076Y0276335D01*
X0286477Y0275737D02*
X0291982Y0275737D01*
X0291982Y0275138D02*
X0279344Y0275138D01*
X0279673Y0274809D02*
X0278274Y0276209D01*
X0276295Y0276209D01*
X0274895Y0274809D01*
X0274895Y0272830D01*
X0276295Y0271431D01*
X0278274Y0271431D01*
X0279673Y0272830D01*
X0279673Y0274809D01*
X0279673Y0274540D02*
X0287854Y0274540D01*
X0288145Y0274831D02*
X0286746Y0273431D01*
X0286746Y0271452D01*
X0288145Y0270053D01*
X0290124Y0270053D01*
X0291524Y0271452D01*
X0291524Y0273431D01*
X0290124Y0274831D01*
X0288145Y0274831D01*
X0287255Y0273941D02*
X0279673Y0273941D01*
X0279673Y0273343D02*
X0286746Y0273343D01*
X0286746Y0272744D02*
X0279587Y0272744D01*
X0278989Y0272146D02*
X0286746Y0272146D01*
X0286746Y0271547D02*
X0278390Y0271547D01*
X0276178Y0271547D02*
X0273374Y0271547D01*
X0273374Y0270948D02*
X0287249Y0270948D01*
X0287848Y0270350D02*
X0272784Y0270350D01*
X0272185Y0269751D02*
X0294719Y0269751D01*
X0295192Y0270224D02*
X0293793Y0268825D01*
X0293793Y0266846D01*
X0295192Y0265446D01*
X0297171Y0265446D01*
X0298571Y0266846D01*
X0298571Y0268825D01*
X0297171Y0270224D01*
X0295192Y0270224D01*
X0294121Y0269153D02*
X0231314Y0269153D01*
X0231642Y0268554D02*
X0293793Y0268554D01*
X0293793Y0267956D02*
X0231642Y0267956D01*
X0231642Y0267357D02*
X0293793Y0267357D01*
X0293880Y0266759D02*
X0231555Y0266759D01*
X0230956Y0266160D02*
X0294478Y0266160D01*
X0295077Y0265562D02*
X0230358Y0265562D01*
X0230715Y0269751D02*
X0269785Y0269751D01*
X0268596Y0271547D02*
X0237918Y0271547D01*
X0237723Y0271352D02*
X0239122Y0272751D01*
X0239122Y0274730D01*
X0237723Y0276130D01*
X0235744Y0276130D01*
X0234344Y0274730D01*
X0234344Y0272751D01*
X0235744Y0271352D01*
X0237723Y0271352D01*
X0238516Y0272146D02*
X0268596Y0272146D01*
X0268596Y0272744D02*
X0239115Y0272744D01*
X0239122Y0273343D02*
X0269019Y0273343D01*
X0269618Y0273941D02*
X0239122Y0273941D01*
X0239122Y0274540D02*
X0274895Y0274540D01*
X0274895Y0273941D02*
X0272352Y0273941D01*
X0272951Y0273343D02*
X0274895Y0273343D01*
X0274981Y0272744D02*
X0273374Y0272744D01*
X0273374Y0272146D02*
X0275580Y0272146D01*
X0275224Y0275138D02*
X0238714Y0275138D01*
X0238116Y0275737D02*
X0275823Y0275737D01*
X0278746Y0275737D02*
X0284390Y0275737D01*
X0283792Y0276335D02*
X0232793Y0276335D01*
X0232823Y0275737D02*
X0235350Y0275737D01*
X0234752Y0275138D02*
X0232823Y0275138D01*
X0232823Y0274540D02*
X0234344Y0274540D01*
X0234344Y0273941D02*
X0232438Y0273941D01*
X0231839Y0273343D02*
X0234344Y0273343D01*
X0235548Y0271547D02*
X0148172Y0271547D01*
X0149557Y0272146D02*
X0166629Y0272146D01*
X0165310Y0272744D02*
X0150943Y0272744D01*
X0152328Y0273343D02*
X0164712Y0273343D01*
X0164183Y0273941D02*
X0153713Y0273941D01*
X0155098Y0274540D02*
X0163935Y0274540D01*
X0163687Y0275138D02*
X0156483Y0275138D01*
X0157869Y0275737D02*
X0163601Y0275737D01*
X0163601Y0276335D02*
X0159254Y0276335D01*
X0160639Y0276934D02*
X0163601Y0276934D01*
X0163823Y0277532D02*
X0162024Y0277532D01*
X0163409Y0278131D02*
X0164071Y0278131D01*
X0168950Y0280525D02*
X0175989Y0280525D01*
X0175800Y0281123D02*
X0170335Y0281123D01*
X0169523Y0279926D02*
X0176237Y0279926D01*
X0176704Y0279328D02*
X0170459Y0279328D01*
X0171058Y0278729D02*
X0177303Y0278729D01*
X0175800Y0281722D02*
X0171720Y0281722D01*
X0173106Y0282320D02*
X0175800Y0282320D01*
X0176030Y0282919D02*
X0174491Y0282919D01*
X0175876Y0283517D02*
X0176278Y0283517D01*
X0180031Y0285313D02*
X0184833Y0285313D01*
X0184833Y0285911D02*
X0181417Y0285911D01*
X0181009Y0284714D02*
X0184905Y0284714D01*
X0185153Y0284116D02*
X0181744Y0284116D01*
X0182271Y0283517D02*
X0185457Y0283517D01*
X0186055Y0282919D02*
X0182519Y0282919D01*
X0182750Y0282320D02*
X0187098Y0282320D01*
X0184932Y0286510D02*
X0182802Y0286510D01*
X0184187Y0287108D02*
X0185180Y0287108D01*
X0199228Y0286510D02*
X0259116Y0286510D01*
X0259714Y0287108D02*
X0199874Y0287108D01*
X0200364Y0287707D02*
X0287887Y0287707D01*
X0287887Y0288305D02*
X0200612Y0288305D01*
X0200816Y0288904D02*
X0287888Y0288904D01*
X0288486Y0289502D02*
X0200816Y0289502D01*
X0200809Y0294290D02*
X0219104Y0294290D01*
X0218990Y0294889D02*
X0202194Y0294889D01*
X0203579Y0295487D02*
X0218990Y0295487D01*
X0218990Y0296086D02*
X0204965Y0296086D01*
X0206350Y0296684D02*
X0219290Y0296684D01*
X0219889Y0297283D02*
X0207735Y0297283D01*
X0209120Y0297882D02*
X0223711Y0297882D01*
X0223112Y0298480D02*
X0210505Y0298480D01*
X0211891Y0299079D02*
X0222762Y0299079D01*
X0222514Y0299677D02*
X0213276Y0299677D01*
X0214661Y0300276D02*
X0222266Y0300276D01*
X0222018Y0300874D02*
X0216046Y0300874D01*
X0217431Y0301473D02*
X0221803Y0301473D01*
X0221803Y0302071D02*
X0218826Y0302071D01*
X0220336Y0302670D02*
X0221803Y0302670D01*
X0222869Y0297283D02*
X0224309Y0297283D01*
X0224908Y0296684D02*
X0223467Y0296684D01*
X0223768Y0296086D02*
X0226176Y0296086D01*
X0227621Y0295487D02*
X0223768Y0295487D01*
X0235744Y0299079D02*
X0264710Y0299079D01*
X0264111Y0299677D02*
X0235992Y0299677D01*
X0236239Y0300276D02*
X0263872Y0300276D01*
X0263872Y0300874D02*
X0236487Y0300874D01*
X0236702Y0301473D02*
X0263872Y0301473D01*
X0264047Y0302071D02*
X0236702Y0302071D01*
X0236702Y0302670D02*
X0264645Y0302670D01*
X0265244Y0303268D02*
X0236702Y0303268D01*
X0236702Y0303867D02*
X0265377Y0303867D01*
X0263977Y0304465D02*
X0236657Y0304465D01*
X0236409Y0305064D02*
X0263379Y0305064D01*
X0262780Y0305662D02*
X0236162Y0305662D01*
X0235914Y0306261D02*
X0262182Y0306261D01*
X0261777Y0306859D02*
X0235666Y0306859D01*
X0235205Y0307458D02*
X0253378Y0307458D01*
X0253657Y0307179D02*
X0255636Y0307179D01*
X0257035Y0308578D01*
X0257035Y0310557D01*
X0255636Y0311957D01*
X0253657Y0311957D01*
X0252257Y0310557D01*
X0252257Y0308578D01*
X0253657Y0307179D01*
X0252779Y0308056D02*
X0236110Y0308056D01*
X0238010Y0308655D02*
X0252257Y0308655D01*
X0252257Y0309253D02*
X0240204Y0309253D01*
X0243026Y0309852D02*
X0252257Y0309852D01*
X0252257Y0310450D02*
X0245847Y0310450D01*
X0248669Y0311049D02*
X0252749Y0311049D01*
X0253347Y0311647D02*
X0251491Y0311647D01*
X0255022Y0312246D02*
X0260786Y0312246D01*
X0260780Y0311647D02*
X0255945Y0311647D01*
X0256544Y0311049D02*
X0260780Y0311049D01*
X0260780Y0310450D02*
X0257035Y0310450D01*
X0257035Y0309852D02*
X0260780Y0309852D01*
X0260785Y0309253D02*
X0257035Y0309253D01*
X0257035Y0308655D02*
X0261033Y0308655D01*
X0261281Y0308056D02*
X0256513Y0308056D01*
X0255915Y0307458D02*
X0261529Y0307458D01*
X0261034Y0312844D02*
X0260305Y0312844D01*
X0271081Y0303867D02*
X0291024Y0303867D01*
X0291255Y0303635D02*
X0293234Y0303635D01*
X0294634Y0305035D01*
X0294634Y0307014D01*
X0293234Y0308413D01*
X0291255Y0308413D01*
X0289856Y0307014D01*
X0289856Y0305035D01*
X0291255Y0303635D01*
X0290426Y0304465D02*
X0272481Y0304465D01*
X0273079Y0305064D02*
X0289856Y0305064D01*
X0289856Y0305662D02*
X0273678Y0305662D01*
X0274276Y0306261D02*
X0289856Y0306261D01*
X0289856Y0306859D02*
X0274681Y0306859D01*
X0274929Y0307458D02*
X0290300Y0307458D01*
X0290898Y0308056D02*
X0275177Y0308056D01*
X0275425Y0308655D02*
X0316926Y0308655D01*
X0314781Y0309253D02*
X0275673Y0309253D01*
X0275679Y0309852D02*
X0312635Y0309852D01*
X0310091Y0310450D02*
X0275679Y0310450D01*
X0275679Y0311049D02*
X0306722Y0311049D01*
X0303353Y0311647D02*
X0275679Y0311647D01*
X0275672Y0312246D02*
X0299984Y0312246D01*
X0296266Y0312844D02*
X0275425Y0312844D01*
X0275177Y0313443D02*
X0288763Y0313443D01*
X0293592Y0308056D02*
X0319072Y0308056D01*
X0321218Y0307458D02*
X0294190Y0307458D01*
X0294634Y0306859D02*
X0323364Y0306859D01*
X0325414Y0306261D02*
X0294634Y0306261D01*
X0294634Y0305662D02*
X0326966Y0305662D01*
X0328517Y0305064D02*
X0294634Y0305064D01*
X0294064Y0304465D02*
X0330068Y0304465D01*
X0331620Y0303867D02*
X0293466Y0303867D01*
X0291266Y0290303D02*
X0289287Y0290303D01*
X0291266Y0290303D02*
X0292665Y0288904D01*
X0292067Y0289502D02*
X0359853Y0289502D01*
X0358899Y0290101D02*
X0291468Y0290101D01*
X0287887Y0287108D02*
X0262571Y0287108D01*
X0263170Y0286510D02*
X0288302Y0286510D01*
X0283910Y0279926D02*
X0266287Y0279926D01*
X0266171Y0279328D02*
X0283311Y0279328D01*
X0283045Y0278729D02*
X0265572Y0278729D01*
X0264974Y0278131D02*
X0283045Y0278131D01*
X0283045Y0277532D02*
X0231596Y0277532D01*
X0232195Y0276934D02*
X0283193Y0276934D01*
X0290415Y0274540D02*
X0292320Y0274540D01*
X0292918Y0273941D02*
X0291014Y0273941D01*
X0291524Y0273343D02*
X0314462Y0273343D01*
X0314462Y0273184D02*
X0315862Y0271785D01*
X0317841Y0271785D01*
X0319240Y0273184D01*
X0319240Y0275164D01*
X0317841Y0276563D01*
X0315862Y0276563D01*
X0314462Y0275164D01*
X0314462Y0273184D01*
X0314903Y0272744D02*
X0291524Y0272744D01*
X0291524Y0272146D02*
X0315501Y0272146D01*
X0314462Y0273941D02*
X0295824Y0273941D01*
X0296422Y0274540D02*
X0314462Y0274540D01*
X0314462Y0275138D02*
X0296760Y0275138D01*
X0296760Y0275737D02*
X0315035Y0275737D01*
X0315634Y0276335D02*
X0296760Y0276335D01*
X0296683Y0276934D02*
X0331774Y0276934D01*
X0331526Y0276335D02*
X0318069Y0276335D01*
X0318667Y0275737D02*
X0331376Y0275737D01*
X0331376Y0275138D02*
X0319240Y0275138D01*
X0319240Y0274540D02*
X0331376Y0274540D01*
X0331576Y0273941D02*
X0319240Y0273941D01*
X0319240Y0273343D02*
X0331823Y0273343D01*
X0332215Y0272744D02*
X0318800Y0272744D01*
X0318201Y0272146D02*
X0332813Y0272146D01*
X0333899Y0271547D02*
X0291524Y0271547D01*
X0291020Y0270948D02*
X0322688Y0270948D01*
X0322090Y0270350D02*
X0290421Y0270350D01*
X0297644Y0269751D02*
X0321491Y0269751D01*
X0321352Y0269153D02*
X0298243Y0269153D01*
X0298571Y0268554D02*
X0321352Y0268554D01*
X0321352Y0267956D02*
X0298571Y0267956D01*
X0298571Y0267357D02*
X0321628Y0267357D01*
X0322226Y0266759D02*
X0298484Y0266759D01*
X0297885Y0266160D02*
X0323516Y0266160D01*
X0324115Y0265562D02*
X0297287Y0265562D01*
X0299096Y0258380D02*
X0276524Y0258380D01*
X0276524Y0258978D02*
X0325384Y0258978D01*
X0325384Y0258380D02*
X0301142Y0258380D01*
X0301741Y0257781D02*
X0325384Y0257781D01*
X0325384Y0257183D02*
X0302339Y0257183D01*
X0302508Y0256584D02*
X0325384Y0256584D01*
X0325384Y0255986D02*
X0302508Y0255986D01*
X0302508Y0255387D02*
X0325384Y0255387D01*
X0325384Y0254789D02*
X0302262Y0254789D01*
X0301663Y0254190D02*
X0325384Y0254190D01*
X0325384Y0253592D02*
X0301599Y0253592D01*
X0302198Y0252993D02*
X0325384Y0252993D01*
X0325384Y0252395D02*
X0302508Y0252395D01*
X0302508Y0251796D02*
X0325676Y0251796D01*
X0326274Y0251198D02*
X0302508Y0251198D01*
X0302403Y0250599D02*
X0326873Y0250599D01*
X0327471Y0250001D02*
X0301804Y0250001D01*
X0298433Y0250001D02*
X0284481Y0250001D01*
X0285080Y0250599D02*
X0297835Y0250599D01*
X0297730Y0251198D02*
X0285579Y0251198D01*
X0285579Y0251796D02*
X0297730Y0251796D01*
X0297730Y0252395D02*
X0285579Y0252395D01*
X0285579Y0252993D02*
X0298040Y0252993D01*
X0298638Y0253592D02*
X0285064Y0253592D01*
X0284465Y0254190D02*
X0298575Y0254190D01*
X0297730Y0255986D02*
X0275506Y0255986D01*
X0276104Y0256584D02*
X0297730Y0256584D01*
X0297899Y0257183D02*
X0276524Y0257183D01*
X0276524Y0257781D02*
X0298497Y0257781D01*
X0275929Y0259577D02*
X0325384Y0259577D01*
X0325384Y0260175D02*
X0275331Y0260175D01*
X0272939Y0260175D02*
X0271405Y0260175D01*
X0271405Y0260774D02*
X0325384Y0260774D01*
X0325384Y0261372D02*
X0271405Y0261372D01*
X0271173Y0261971D02*
X0325384Y0261971D01*
X0325384Y0262569D02*
X0270575Y0262569D01*
X0271223Y0259577D02*
X0272340Y0259577D01*
X0271746Y0258978D02*
X0270625Y0258978D01*
X0270026Y0258380D02*
X0271746Y0258380D01*
X0266810Y0259577D02*
X0199358Y0259577D01*
X0199358Y0260175D02*
X0266628Y0260175D01*
X0260197Y0253592D02*
X0239395Y0253592D01*
X0239993Y0252993D02*
X0260795Y0252993D01*
X0289047Y0238030D02*
X0293868Y0238030D01*
X0293270Y0238629D02*
X0289516Y0238629D01*
X0323741Y0268623D02*
X0324528Y0269410D01*
X0325392Y0270350D02*
X0383685Y0270350D01*
X0383047Y0270948D02*
X0324794Y0270948D01*
X0325991Y0269751D02*
X0384324Y0269751D01*
X0384962Y0269153D02*
X0326130Y0269153D01*
X0326496Y0268554D02*
X0333189Y0268554D01*
X0332519Y0267956D02*
X0327095Y0267956D01*
X0327693Y0267357D02*
X0331950Y0267357D01*
X0331702Y0266759D02*
X0328292Y0266759D01*
X0328890Y0266160D02*
X0331454Y0266160D01*
X0331376Y0265562D02*
X0329184Y0265562D01*
X0329184Y0264963D02*
X0331376Y0264963D01*
X0331400Y0264365D02*
X0329184Y0264365D01*
X0329184Y0263766D02*
X0331648Y0263766D01*
X0331896Y0263168D02*
X0329184Y0263168D01*
X0329184Y0262569D02*
X0332389Y0262569D01*
X0332988Y0261971D02*
X0329184Y0261971D01*
X0346232Y0261372D02*
X0350513Y0261372D01*
X0351112Y0261971D02*
X0347565Y0261971D01*
X0353679Y0257781D02*
X0395159Y0257781D01*
X0394633Y0258380D02*
X0354278Y0258380D01*
X0355521Y0254789D02*
X0397407Y0254789D01*
X0397839Y0254190D02*
X0356119Y0254190D01*
X0369437Y0263168D02*
X0372274Y0263168D01*
X0371676Y0263766D02*
X0369377Y0263766D01*
X0368779Y0264365D02*
X0371077Y0264365D01*
X0370958Y0264963D02*
X0368180Y0264963D01*
X0342806Y0299079D02*
X0339569Y0299079D01*
X0339569Y0299677D02*
X0341612Y0299677D01*
X0340417Y0300276D02*
X0339569Y0300276D01*
X0411682Y0223666D02*
X0415749Y0223666D01*
X0416025Y0223068D02*
X0412193Y0223068D01*
X0412193Y0222469D02*
X0416302Y0222469D01*
X0416579Y0221871D02*
X0412193Y0221871D01*
X0412193Y0221272D02*
X0416855Y0221272D01*
X0417132Y0220674D02*
X0411690Y0220674D01*
X0350031Y0203915D02*
X0349752Y0203915D01*
X0355885Y0162019D02*
X0341247Y0162019D01*
X0341200Y0161421D02*
X0355287Y0161421D01*
X0354817Y0160822D02*
X0341153Y0160822D01*
X0341106Y0160224D02*
X0354817Y0160224D01*
X0354817Y0159625D02*
X0341059Y0159625D01*
X0341012Y0159027D02*
X0354817Y0159027D01*
X0355360Y0158428D02*
X0340965Y0158428D01*
X0340917Y0157830D02*
X0355959Y0157830D01*
X0351286Y0151845D02*
X0417300Y0151845D01*
X0417052Y0151246D02*
X0340092Y0151246D01*
X0339948Y0150648D02*
X0416804Y0150648D01*
X0416556Y0150049D02*
X0339804Y0150049D01*
X0426157Y0155436D02*
X0428220Y0155436D01*
X0428191Y0154837D02*
X0427602Y0154837D01*
X0428181Y0171596D02*
X0427016Y0171596D01*
X0235904Y0115336D02*
X0188793Y0115336D01*
X0189391Y0115934D02*
X0235203Y0115934D01*
X0234502Y0116533D02*
X0189909Y0116533D01*
X0189909Y0117131D02*
X0233801Y0117131D01*
X0233101Y0117730D02*
X0189909Y0117730D01*
X0189909Y0118328D02*
X0232472Y0118328D01*
X0231961Y0118927D02*
X0189414Y0118927D01*
X0188816Y0119525D02*
X0231450Y0119525D01*
X0120944Y0203317D02*
X0112207Y0203317D01*
X0112806Y0203915D02*
X0120346Y0203915D01*
X0119856Y0204514D02*
X0113404Y0204514D01*
X0113531Y0205112D02*
X0119856Y0205112D01*
X0119856Y0205711D02*
X0113531Y0205711D01*
X0113531Y0206309D02*
X0119856Y0206309D01*
X0120380Y0206908D02*
X0113244Y0206908D01*
X0112645Y0207506D02*
X0120978Y0207506D01*
X0109640Y0207506D02*
X0049904Y0207506D01*
X0049648Y0206908D02*
X0109041Y0206908D01*
X0108754Y0206309D02*
X0049049Y0206309D01*
X0048451Y0205711D02*
X0108754Y0205711D01*
X0108754Y0205112D02*
X0047852Y0205112D01*
X0046811Y0204514D02*
X0108881Y0204514D01*
X0078489Y0203915D02*
X0045366Y0203915D01*
X0041329Y0203915D02*
X0035592Y0203915D01*
X0035220Y0203317D02*
X0077891Y0203317D01*
X0077292Y0202718D02*
X0034893Y0202718D01*
X0034616Y0202120D02*
X0077257Y0202120D01*
X0077257Y0201521D02*
X0034340Y0201521D01*
X0034063Y0200923D02*
X0077257Y0200923D01*
X0077637Y0200324D02*
X0033786Y0200324D01*
X0033509Y0199726D02*
X0078236Y0199726D01*
X0039884Y0204514D02*
X0035965Y0204514D01*
X0036337Y0205112D02*
X0038842Y0205112D01*
X0038244Y0205711D02*
X0036710Y0205711D01*
X0037083Y0206309D02*
X0037645Y0206309D01*
X0126009Y0261971D02*
X0139846Y0261971D01*
X0139248Y0262569D02*
X0127395Y0262569D01*
X0128780Y0263168D02*
X0138820Y0263168D01*
X0138572Y0263766D02*
X0130165Y0263766D01*
X0131550Y0264365D02*
X0138324Y0264365D01*
X0138309Y0264963D02*
X0132935Y0264963D01*
X0134321Y0265562D02*
X0138309Y0265562D01*
X0138354Y0266160D02*
X0135706Y0266160D01*
X0137091Y0266759D02*
X0138602Y0266759D01*
X0138476Y0267357D02*
X0138850Y0267357D01*
X0152039Y0263168D02*
X0155109Y0263168D01*
X0155109Y0262569D02*
X0153210Y0262569D01*
X0153809Y0261971D02*
X0155311Y0261971D01*
X0155559Y0261372D02*
X0154133Y0261372D01*
X0154381Y0260774D02*
X0156088Y0260774D01*
X0156908Y0260175D02*
X0154438Y0260175D01*
X0038242Y0129101D02*
X0032305Y0129101D01*
X0032581Y0128503D02*
X0037809Y0128503D01*
X0037809Y0127904D02*
X0032858Y0127904D01*
X0033135Y0127306D02*
X0037809Y0127306D01*
X0037809Y0126707D02*
X0033412Y0126707D01*
X0033688Y0126109D02*
X0038388Y0126109D01*
X0046302Y0121919D02*
X0050115Y0121919D01*
X0049517Y0121321D02*
X0047641Y0121321D01*
X0048240Y0120722D02*
X0048918Y0120722D01*
X0048911Y0120124D02*
X0048838Y0120124D01*
D16*
X0051300Y0119725D03*
X0040198Y0127678D03*
X0057206Y0145788D03*
X0059174Y0150119D03*
X0064292Y0150119D03*
X0062717Y0145788D03*
X0053662Y0149725D03*
X0052087Y0154450D03*
X0057206Y0154450D03*
X0062324Y0154450D03*
X0039883Y0161930D03*
X0034765Y0162324D03*
X0028465Y0162324D03*
X0028465Y0167442D03*
X0028465Y0172954D03*
X0033977Y0173347D03*
X0033977Y0167835D03*
X0040276Y0167835D03*
X0039883Y0174528D03*
X0037127Y0179646D03*
X0029646Y0179646D03*
X0079646Y0201694D03*
X0091457Y0201694D03*
X0100513Y0195001D03*
X0111143Y0205631D03*
X0122245Y0205394D03*
X0138702Y0196339D03*
X0153745Y0177596D03*
X0148544Y0172166D03*
X0163111Y0178072D03*
X0169017Y0185946D03*
X0176103Y0187914D03*
X0182009Y0189095D03*
X0192245Y0190276D03*
X0202087Y0172560D03*
X0202087Y0154056D03*
X0191851Y0148544D03*
X0186654Y0138308D03*
X0191772Y0136969D03*
X0197757Y0131143D03*
X0189331Y0129489D03*
X0187520Y0117442D03*
X0206654Y0120906D03*
X0206812Y0114450D03*
X0207206Y0103662D03*
X0216654Y0095001D03*
X0226103Y0084371D03*
X0239489Y0092245D03*
X0232009Y0101694D03*
X0256418Y0092245D03*
X0248150Y0082796D03*
X0241064Y0071772D03*
X0229646Y0070591D03*
X0224922Y0070591D03*
X0224922Y0065473D03*
X0229646Y0065473D03*
X0229646Y0059961D03*
X0224922Y0059961D03*
X0224922Y0054843D03*
X0229646Y0054843D03*
X0241851Y0060749D03*
X0264292Y0045788D03*
X0313505Y0050906D03*
X0318229Y0050906D03*
X0322560Y0050906D03*
X0326891Y0051300D03*
X0286339Y0081615D03*
X0277678Y0090276D03*
X0266261Y0082796D03*
X0305631Y0096969D03*
X0317048Y0085946D03*
X0332009Y0097363D03*
X0342245Y0133583D03*
X0352481Y0135552D03*
X0353269Y0145788D03*
X0344213Y0146576D03*
X0350119Y0154056D03*
X0357206Y0159961D03*
X0351694Y0166261D03*
X0348544Y0173741D03*
X0345788Y0178465D03*
X0356418Y0195394D03*
X0353269Y0198150D03*
X0349725Y0200119D03*
X0347363Y0203662D03*
X0351300Y0206024D03*
X0349725Y0209568D03*
X0348938Y0214292D03*
X0338308Y0216654D03*
X0338308Y0222166D03*
X0337914Y0226103D03*
X0333190Y0221772D03*
X0324135Y0222560D03*
X0322954Y0218623D03*
X0321772Y0233583D03*
X0317442Y0233583D03*
X0330828Y0233583D03*
X0334765Y0233583D03*
X0340276Y0233977D03*
X0345788Y0235552D03*
X0350158Y0233780D03*
X0360355Y0233977D03*
X0365080Y0238308D03*
X0370985Y0245001D03*
X0376103Y0240697D03*
X0383190Y0246182D03*
X0392481Y0251182D03*
X0384765Y0263269D03*
X0373347Y0265473D03*
X0367048Y0262717D03*
X0352481Y0259961D03*
X0354056Y0252875D03*
X0378859Y0232009D03*
X0382402Y0228072D03*
X0388308Y0232009D03*
X0385158Y0235158D03*
X0409804Y0222166D03*
X0396969Y0209961D03*
X0399725Y0207206D03*
X0402087Y0204056D03*
X0404450Y0200513D03*
X0393032Y0210355D03*
X0388702Y0210355D03*
X0383977Y0195001D03*
X0313898Y0245788D03*
X0301300Y0245788D03*
X0297363Y0244213D03*
X0295394Y0239883D03*
X0289883Y0241851D03*
X0287127Y0239489D03*
X0283583Y0241457D03*
X0282009Y0246182D03*
X0283190Y0252087D03*
X0274135Y0257993D03*
X0269017Y0260749D03*
X0263111Y0263111D03*
X0262324Y0254843D03*
X0267478Y0241111D03*
X0279646Y0228072D03*
X0300119Y0251694D03*
X0300119Y0256024D03*
X0296182Y0267835D03*
X0294371Y0275867D03*
X0289135Y0272442D03*
X0285434Y0278072D03*
X0277284Y0273820D03*
X0270985Y0271930D03*
X0263898Y0280434D03*
X0261143Y0285158D03*
X0272087Y0283505D03*
X0290276Y0287914D03*
X0297757Y0280434D03*
X0316851Y0274174D03*
X0323741Y0268623D03*
X0352875Y0284371D03*
X0368358Y0281912D03*
X0339489Y0295788D03*
X0337180Y0300031D03*
X0330198Y0300434D03*
X0292245Y0306024D03*
X0266261Y0300906D03*
X0254646Y0309568D03*
X0221379Y0295394D03*
X0230434Y0275316D03*
X0236733Y0273741D03*
X0229253Y0267835D03*
X0228347Y0256143D03*
X0237914Y0251694D03*
X0228859Y0241064D03*
X0233583Y0239095D03*
X0217717Y0235276D03*
X0202481Y0256024D03*
X0196969Y0259568D03*
X0208780Y0267993D03*
X0179646Y0247757D03*
X0177678Y0256024D03*
X0158505Y0241182D03*
X0171300Y0221379D03*
X0187835Y0213820D03*
X0117048Y0177284D03*
X0115080Y0167048D03*
X0115080Y0161930D03*
X0119804Y0146576D03*
X0119804Y0142639D03*
X0110355Y0132009D03*
X0105237Y0132009D03*
X0100119Y0132009D03*
X0100119Y0126497D03*
X0105237Y0126497D03*
X0110355Y0126497D03*
X0121772Y0115080D03*
X0126103Y0109174D03*
X0131615Y0106418D03*
X0130040Y0100906D03*
X0122560Y0098544D03*
X0117835Y0099331D03*
X0128072Y0094607D03*
X0135552Y0096182D03*
X0142639Y0094607D03*
X0140670Y0102087D03*
X0144213Y0105631D03*
X0155631Y0100119D03*
X0160355Y0100119D03*
X0160355Y0094607D03*
X0155631Y0094607D03*
X0155631Y0089489D03*
X0160355Y0089489D03*
X0160355Y0083977D03*
X0155631Y0083977D03*
X0171772Y0085946D03*
X0171379Y0102875D03*
X0158387Y0112402D03*
X0159095Y0142875D03*
X0145001Y0157206D03*
X0075709Y0113347D03*
X0064213Y0108229D03*
X0079568Y0099017D03*
X0095158Y0089331D03*
X0133977Y0072166D03*
X0156812Y0063898D03*
X0183583Y0064292D03*
X0195001Y0070198D03*
X0195001Y0075709D03*
X0202087Y0075709D03*
X0202087Y0070198D03*
X0207599Y0075709D03*
X0210749Y0070591D03*
X0214686Y0072954D03*
X0210749Y0063898D03*
X0213505Y0059174D03*
X0201694Y0063505D03*
X0212087Y0130828D03*
D17*
X0405631Y0129646D03*
X0406024Y0107993D03*
D18*
X0383583Y0154056D02*
X0350119Y0154056D01*
X0383583Y0154056D02*
X0389489Y0159961D01*
X0389489Y0200513D01*
X0364292Y0225709D01*
X0361143Y0225709D01*
X0356418Y0230434D01*
X0356418Y0233977D01*
X0345788Y0244607D01*
X0345788Y0235552D01*
X0345788Y0244607D02*
X0354056Y0252875D01*
D19*
X0345788Y0244607D02*
X0335552Y0244607D01*
X0327284Y0252875D01*
X0327284Y0265080D01*
X0323741Y0268623D01*
M02*
