G04 EAGLE Gerber X2 export*
G75*
%MOMM*%
%FSLAX34Y34*%
%LPD*%
%AMOC8*
5,1,8,0,0,1.08239X$1,22.5*%
G01*
%ADD10R,0.558800X1.981200*%
%ADD11R,2.000000X3.000000*%
%ADD12R,0.700000X0.900000*%
%ADD13R,0.900000X0.700000*%
%ADD14R,3.000000X2.000000*%
%ADD15R,2.400000X2.400000*%
%ADD16C,0.300000*%
%ADD17R,0.700000X0.600000*%
%ADD18R,3.200000X1.800000*%
%ADD19R,0.600000X0.700000*%
%ADD20R,1.300000X1.500000*%
%ADD21R,1.500000X1.300000*%
%ADD22R,1.800000X3.200000*%
%ADD23R,1.800000X3.600000*%
%ADD24R,1.408969X1.132000*%
%ADD25R,1.408416X1.158291*%
%ADD26R,1.408744X1.118800*%
%ADD27R,1.407994X1.092841*%
%ADD28R,1.437131X1.094559*%
%ADD29R,1.434150X1.118406*%
%ADD30R,1.435381X1.140469*%
%ADD31R,1.434009X1.160269*%
%ADD32R,0.385381X3.910769*%
%ADD33R,0.316159X3.915181*%
%ADD34C,0.037500*%
%ADD35C,0.056250*%
%ADD36R,1.132000X1.408969*%
%ADD37R,1.158291X1.408416*%
%ADD38R,1.118800X1.408744*%
%ADD39R,1.092841X1.407994*%
%ADD40R,1.094559X1.437131*%
%ADD41R,1.118406X1.434150*%
%ADD42R,1.140469X1.435381*%
%ADD43R,1.160269X1.434009*%
%ADD44R,3.910769X0.385381*%
%ADD45R,3.915181X0.316159*%
%ADD46R,2.800000X2.100000*%
%ADD47R,1.900000X0.600000*%
%ADD48C,0.100000*%
%ADD49R,6.900000X1.800000*%
%ADD50R,1.000000X0.350000*%
%ADD51R,1.000000X0.600000*%
%ADD52R,1.800000X1.250000*%
%ADD53R,0.600000X2.200000*%
%ADD54R,2.700000X3.600000*%


D10*
X542356Y567844D03*
X529656Y567844D03*
X516956Y567844D03*
X504256Y567844D03*
X504256Y518568D03*
X516956Y518568D03*
X529656Y518568D03*
X542356Y518568D03*
D11*
G36*
X489054Y656858D02*
X474912Y671000D01*
X496124Y692212D01*
X510266Y678070D01*
X489054Y656858D01*
G37*
G36*
X538550Y649786D02*
X552692Y635644D01*
X531480Y614432D01*
X517338Y628574D01*
X538550Y649786D01*
G37*
D12*
X991200Y593700D03*
X978200Y593700D03*
X590900Y188200D03*
X577900Y188200D03*
D13*
X426800Y264400D03*
X426800Y251400D03*
D12*
X722200Y770700D03*
X709200Y770700D03*
D11*
X560390Y354964D03*
X620390Y354964D03*
D13*
X743200Y687200D03*
X743200Y700200D03*
D14*
X684080Y828808D03*
X684080Y768808D03*
D12*
X978800Y766200D03*
X965800Y766200D03*
D13*
X278300Y406300D03*
X278300Y393300D03*
X993700Y736800D03*
X993700Y749800D03*
D12*
X978676Y581902D03*
X991676Y581902D03*
X978422Y570518D03*
X991422Y570518D03*
D14*
X591696Y478452D03*
X591696Y418452D03*
D12*
X978676Y559150D03*
X991676Y559150D03*
D13*
X1015966Y694952D03*
X1015966Y707952D03*
X998550Y694870D03*
X998550Y707870D03*
X1033036Y695766D03*
X1033036Y708766D03*
D12*
X475228Y250904D03*
X488228Y250904D03*
X294040Y374884D03*
X281040Y374884D03*
X648472Y170936D03*
X661472Y170936D03*
D15*
X461270Y584258D03*
X461270Y628258D03*
X593208Y596718D03*
X593208Y640718D03*
D16*
X967430Y619400D02*
X967430Y612400D01*
X960430Y612400D01*
X960430Y619400D01*
X967430Y619400D01*
X967430Y615399D02*
X960430Y615399D01*
X960430Y618398D02*
X967430Y618398D01*
X984970Y619400D02*
X984970Y612400D01*
X977970Y612400D01*
X977970Y619400D01*
X984970Y619400D01*
X984970Y615399D02*
X977970Y615399D01*
X977970Y618398D02*
X984970Y618398D01*
D17*
X962800Y603200D03*
X962800Y593200D03*
D18*
X525372Y251760D03*
X525372Y307760D03*
X704356Y163984D03*
X704356Y219984D03*
D19*
X711400Y749300D03*
X721400Y749300D03*
X798700Y683400D03*
X788700Y683400D03*
D20*
X541008Y207622D03*
X560008Y207622D03*
X387690Y256954D03*
X406690Y256954D03*
D21*
X259418Y376384D03*
X259418Y395384D03*
D19*
X974000Y604500D03*
X984000Y604500D03*
D17*
X949200Y609700D03*
X949200Y619700D03*
D22*
X298312Y334850D03*
X354312Y334850D03*
D23*
X625814Y721508D03*
X532814Y721508D03*
D24*
X650177Y207572D03*
D25*
X650180Y194241D03*
D26*
X650178Y220838D03*
D27*
X650182Y234168D03*
D28*
X633836Y234159D03*
D29*
X633851Y220840D03*
D30*
X633845Y207530D03*
D31*
X633852Y194231D03*
D32*
X620145Y209678D03*
D33*
X663991Y209656D03*
D34*
X621885Y238169D02*
X621885Y240295D01*
X621885Y238169D02*
X615259Y238169D01*
X615259Y240295D01*
X621885Y240295D01*
X621885Y238543D02*
X615259Y238543D01*
X615259Y238917D02*
X621885Y238917D01*
X621885Y239291D02*
X615259Y239291D01*
X615259Y239665D02*
X621885Y239665D01*
X621885Y240039D02*
X615259Y240039D01*
X668885Y240295D02*
X668885Y238169D01*
X662259Y238169D01*
X662259Y240295D01*
X668885Y240295D01*
X668885Y238543D02*
X662259Y238543D01*
X662259Y238917D02*
X668885Y238917D01*
X668885Y239291D02*
X662259Y239291D01*
X662259Y239665D02*
X668885Y239665D01*
X668885Y240039D02*
X662259Y240039D01*
X621885Y235295D02*
X621885Y233169D01*
X615259Y233169D01*
X615259Y235295D01*
X621885Y235295D01*
X621885Y233543D02*
X615259Y233543D01*
X615259Y233917D02*
X621885Y233917D01*
X621885Y234291D02*
X615259Y234291D01*
X615259Y234665D02*
X621885Y234665D01*
X621885Y235039D02*
X615259Y235039D01*
X621885Y230295D02*
X621885Y228169D01*
X615259Y228169D01*
X615259Y230295D01*
X621885Y230295D01*
X621885Y228543D02*
X615259Y228543D01*
X615259Y228917D02*
X621885Y228917D01*
X621885Y229291D02*
X615259Y229291D01*
X615259Y229665D02*
X621885Y229665D01*
X621885Y230039D02*
X615259Y230039D01*
X621885Y225295D02*
X621885Y223169D01*
X615259Y223169D01*
X615259Y225295D01*
X621885Y225295D01*
X621885Y223543D02*
X615259Y223543D01*
X615259Y223917D02*
X621885Y223917D01*
X621885Y224291D02*
X615259Y224291D01*
X615259Y224665D02*
X621885Y224665D01*
X621885Y225039D02*
X615259Y225039D01*
X621885Y220295D02*
X621885Y218169D01*
X615259Y218169D01*
X615259Y220295D01*
X621885Y220295D01*
X621885Y218543D02*
X615259Y218543D01*
X615259Y218917D02*
X621885Y218917D01*
X621885Y219291D02*
X615259Y219291D01*
X615259Y219665D02*
X621885Y219665D01*
X621885Y220039D02*
X615259Y220039D01*
X621885Y215295D02*
X621885Y213169D01*
X615259Y213169D01*
X615259Y215295D01*
X621885Y215295D01*
X621885Y213543D02*
X615259Y213543D01*
X615259Y213917D02*
X621885Y213917D01*
X621885Y214291D02*
X615259Y214291D01*
X615259Y214665D02*
X621885Y214665D01*
X621885Y215039D02*
X615259Y215039D01*
X621885Y210295D02*
X621885Y208169D01*
X615259Y208169D01*
X615259Y210295D01*
X621885Y210295D01*
X621885Y208543D02*
X615259Y208543D01*
X615259Y208917D02*
X621885Y208917D01*
X621885Y209291D02*
X615259Y209291D01*
X615259Y209665D02*
X621885Y209665D01*
X621885Y210039D02*
X615259Y210039D01*
X621885Y205295D02*
X621885Y203169D01*
X615259Y203169D01*
X615259Y205295D01*
X621885Y205295D01*
X621885Y203543D02*
X615259Y203543D01*
X615259Y203917D02*
X621885Y203917D01*
X621885Y204291D02*
X615259Y204291D01*
X615259Y204665D02*
X621885Y204665D01*
X621885Y205039D02*
X615259Y205039D01*
X621885Y200295D02*
X621885Y198169D01*
X615259Y198169D01*
X615259Y200295D01*
X621885Y200295D01*
X621885Y198543D02*
X615259Y198543D01*
X615259Y198917D02*
X621885Y198917D01*
X621885Y199291D02*
X615259Y199291D01*
X615259Y199665D02*
X621885Y199665D01*
X621885Y200039D02*
X615259Y200039D01*
X621885Y195295D02*
X621885Y193169D01*
X615259Y193169D01*
X615259Y195295D01*
X621885Y195295D01*
X621885Y193543D02*
X615259Y193543D01*
X615259Y193917D02*
X621885Y193917D01*
X621885Y194291D02*
X615259Y194291D01*
X615259Y194665D02*
X621885Y194665D01*
X621885Y195039D02*
X615259Y195039D01*
X621885Y190295D02*
X621885Y188169D01*
X615259Y188169D01*
X615259Y190295D01*
X621885Y190295D01*
X621885Y188543D02*
X615259Y188543D01*
X615259Y188917D02*
X621885Y188917D01*
X621885Y189291D02*
X615259Y189291D01*
X615259Y189665D02*
X621885Y189665D01*
X621885Y190039D02*
X615259Y190039D01*
X668885Y190295D02*
X668885Y188169D01*
X662259Y188169D01*
X662259Y190295D01*
X668885Y190295D01*
X668885Y188543D02*
X662259Y188543D01*
X662259Y188917D02*
X668885Y188917D01*
X668885Y189291D02*
X662259Y189291D01*
X662259Y189665D02*
X668885Y189665D01*
X668885Y190039D02*
X662259Y190039D01*
X668885Y193169D02*
X668885Y195295D01*
X668885Y193169D02*
X662259Y193169D01*
X662259Y195295D01*
X668885Y195295D01*
X668885Y193543D02*
X662259Y193543D01*
X662259Y193917D02*
X668885Y193917D01*
X668885Y194291D02*
X662259Y194291D01*
X662259Y194665D02*
X668885Y194665D01*
X668885Y195039D02*
X662259Y195039D01*
X668885Y198169D02*
X668885Y200295D01*
X668885Y198169D02*
X662259Y198169D01*
X662259Y200295D01*
X668885Y200295D01*
X668885Y198543D02*
X662259Y198543D01*
X662259Y198917D02*
X668885Y198917D01*
X668885Y199291D02*
X662259Y199291D01*
X662259Y199665D02*
X668885Y199665D01*
X668885Y200039D02*
X662259Y200039D01*
X668885Y203169D02*
X668885Y205295D01*
X668885Y203169D02*
X662259Y203169D01*
X662259Y205295D01*
X668885Y205295D01*
X668885Y203543D02*
X662259Y203543D01*
X662259Y203917D02*
X668885Y203917D01*
X668885Y204291D02*
X662259Y204291D01*
X662259Y204665D02*
X668885Y204665D01*
X668885Y205039D02*
X662259Y205039D01*
X668885Y208169D02*
X668885Y210295D01*
X668885Y208169D02*
X662259Y208169D01*
X662259Y210295D01*
X668885Y210295D01*
X668885Y208543D02*
X662259Y208543D01*
X662259Y208917D02*
X668885Y208917D01*
X668885Y209291D02*
X662259Y209291D01*
X662259Y209665D02*
X668885Y209665D01*
X668885Y210039D02*
X662259Y210039D01*
X668885Y213169D02*
X668885Y215295D01*
X668885Y213169D02*
X662259Y213169D01*
X662259Y215295D01*
X668885Y215295D01*
X668885Y213543D02*
X662259Y213543D01*
X662259Y213917D02*
X668885Y213917D01*
X668885Y214291D02*
X662259Y214291D01*
X662259Y214665D02*
X668885Y214665D01*
X668885Y215039D02*
X662259Y215039D01*
X668885Y218169D02*
X668885Y220295D01*
X668885Y218169D02*
X662259Y218169D01*
X662259Y220295D01*
X668885Y220295D01*
X668885Y218543D02*
X662259Y218543D01*
X662259Y218917D02*
X668885Y218917D01*
X668885Y219291D02*
X662259Y219291D01*
X662259Y219665D02*
X668885Y219665D01*
X668885Y220039D02*
X662259Y220039D01*
X668885Y223169D02*
X668885Y225295D01*
X668885Y223169D02*
X662259Y223169D01*
X662259Y225295D01*
X668885Y225295D01*
X668885Y223543D02*
X662259Y223543D01*
X662259Y223917D02*
X668885Y223917D01*
X668885Y224291D02*
X662259Y224291D01*
X662259Y224665D02*
X668885Y224665D01*
X668885Y225039D02*
X662259Y225039D01*
X668885Y228169D02*
X668885Y230295D01*
X668885Y228169D02*
X662259Y228169D01*
X662259Y230295D01*
X668885Y230295D01*
X668885Y228543D02*
X662259Y228543D01*
X662259Y228917D02*
X668885Y228917D01*
X668885Y229291D02*
X662259Y229291D01*
X662259Y229665D02*
X668885Y229665D01*
X668885Y230039D02*
X662259Y230039D01*
X668885Y233169D02*
X668885Y235295D01*
X668885Y233169D02*
X662259Y233169D01*
X662259Y235295D01*
X668885Y235295D01*
X668885Y233543D02*
X662259Y233543D01*
X662259Y233917D02*
X668885Y233917D01*
X668885Y234291D02*
X662259Y234291D01*
X662259Y234665D02*
X668885Y234665D01*
X668885Y235039D02*
X662259Y235039D01*
D35*
X661353Y242768D02*
X665091Y242768D01*
X661353Y242768D02*
X661353Y245956D01*
X665091Y245956D01*
X665091Y242768D01*
X665091Y243330D02*
X661353Y243330D01*
X661353Y243892D02*
X665091Y243892D01*
X665091Y244454D02*
X661353Y244454D01*
X661353Y245016D02*
X665091Y245016D01*
X665091Y245578D02*
X661353Y245578D01*
X622791Y242768D02*
X619053Y242768D01*
X619053Y245956D01*
X622791Y245956D01*
X622791Y242768D01*
X622791Y243330D02*
X619053Y243330D01*
X619053Y243892D02*
X622791Y243892D01*
X622791Y244454D02*
X619053Y244454D01*
X619053Y245016D02*
X622791Y245016D01*
X622791Y245578D02*
X619053Y245578D01*
X619053Y182508D02*
X622791Y182508D01*
X619053Y182508D02*
X619053Y185696D01*
X622791Y185696D01*
X622791Y182508D01*
X622791Y183070D02*
X619053Y183070D01*
X619053Y183632D02*
X622791Y183632D01*
X622791Y184194D02*
X619053Y184194D01*
X619053Y184756D02*
X622791Y184756D01*
X622791Y185318D02*
X619053Y185318D01*
X661353Y182508D02*
X665091Y182508D01*
X661353Y182508D02*
X661353Y185696D01*
X665091Y185696D01*
X665091Y182508D01*
X665091Y183070D02*
X661353Y183070D01*
X661353Y183632D02*
X665091Y183632D01*
X665091Y184194D02*
X661353Y184194D01*
X661353Y184756D02*
X665091Y184756D01*
X665091Y185318D02*
X661353Y185318D01*
D24*
X472735Y285416D03*
D25*
X472738Y272085D03*
D26*
X472736Y298682D03*
D27*
X472740Y312012D03*
D28*
X456394Y312003D03*
D29*
X456409Y298684D03*
D30*
X456403Y285374D03*
D31*
X456410Y272075D03*
D32*
X442703Y287522D03*
D33*
X486549Y287500D03*
D34*
X444443Y316013D02*
X444443Y318139D01*
X444443Y316013D02*
X437817Y316013D01*
X437817Y318139D01*
X444443Y318139D01*
X444443Y316387D02*
X437817Y316387D01*
X437817Y316761D02*
X444443Y316761D01*
X444443Y317135D02*
X437817Y317135D01*
X437817Y317509D02*
X444443Y317509D01*
X444443Y317883D02*
X437817Y317883D01*
X491443Y318139D02*
X491443Y316013D01*
X484817Y316013D01*
X484817Y318139D01*
X491443Y318139D01*
X491443Y316387D02*
X484817Y316387D01*
X484817Y316761D02*
X491443Y316761D01*
X491443Y317135D02*
X484817Y317135D01*
X484817Y317509D02*
X491443Y317509D01*
X491443Y317883D02*
X484817Y317883D01*
X444443Y313139D02*
X444443Y311013D01*
X437817Y311013D01*
X437817Y313139D01*
X444443Y313139D01*
X444443Y311387D02*
X437817Y311387D01*
X437817Y311761D02*
X444443Y311761D01*
X444443Y312135D02*
X437817Y312135D01*
X437817Y312509D02*
X444443Y312509D01*
X444443Y312883D02*
X437817Y312883D01*
X444443Y308139D02*
X444443Y306013D01*
X437817Y306013D01*
X437817Y308139D01*
X444443Y308139D01*
X444443Y306387D02*
X437817Y306387D01*
X437817Y306761D02*
X444443Y306761D01*
X444443Y307135D02*
X437817Y307135D01*
X437817Y307509D02*
X444443Y307509D01*
X444443Y307883D02*
X437817Y307883D01*
X444443Y303139D02*
X444443Y301013D01*
X437817Y301013D01*
X437817Y303139D01*
X444443Y303139D01*
X444443Y301387D02*
X437817Y301387D01*
X437817Y301761D02*
X444443Y301761D01*
X444443Y302135D02*
X437817Y302135D01*
X437817Y302509D02*
X444443Y302509D01*
X444443Y302883D02*
X437817Y302883D01*
X444443Y298139D02*
X444443Y296013D01*
X437817Y296013D01*
X437817Y298139D01*
X444443Y298139D01*
X444443Y296387D02*
X437817Y296387D01*
X437817Y296761D02*
X444443Y296761D01*
X444443Y297135D02*
X437817Y297135D01*
X437817Y297509D02*
X444443Y297509D01*
X444443Y297883D02*
X437817Y297883D01*
X444443Y293139D02*
X444443Y291013D01*
X437817Y291013D01*
X437817Y293139D01*
X444443Y293139D01*
X444443Y291387D02*
X437817Y291387D01*
X437817Y291761D02*
X444443Y291761D01*
X444443Y292135D02*
X437817Y292135D01*
X437817Y292509D02*
X444443Y292509D01*
X444443Y292883D02*
X437817Y292883D01*
X444443Y288139D02*
X444443Y286013D01*
X437817Y286013D01*
X437817Y288139D01*
X444443Y288139D01*
X444443Y286387D02*
X437817Y286387D01*
X437817Y286761D02*
X444443Y286761D01*
X444443Y287135D02*
X437817Y287135D01*
X437817Y287509D02*
X444443Y287509D01*
X444443Y287883D02*
X437817Y287883D01*
X444443Y283139D02*
X444443Y281013D01*
X437817Y281013D01*
X437817Y283139D01*
X444443Y283139D01*
X444443Y281387D02*
X437817Y281387D01*
X437817Y281761D02*
X444443Y281761D01*
X444443Y282135D02*
X437817Y282135D01*
X437817Y282509D02*
X444443Y282509D01*
X444443Y282883D02*
X437817Y282883D01*
X444443Y278139D02*
X444443Y276013D01*
X437817Y276013D01*
X437817Y278139D01*
X444443Y278139D01*
X444443Y276387D02*
X437817Y276387D01*
X437817Y276761D02*
X444443Y276761D01*
X444443Y277135D02*
X437817Y277135D01*
X437817Y277509D02*
X444443Y277509D01*
X444443Y277883D02*
X437817Y277883D01*
X444443Y273139D02*
X444443Y271013D01*
X437817Y271013D01*
X437817Y273139D01*
X444443Y273139D01*
X444443Y271387D02*
X437817Y271387D01*
X437817Y271761D02*
X444443Y271761D01*
X444443Y272135D02*
X437817Y272135D01*
X437817Y272509D02*
X444443Y272509D01*
X444443Y272883D02*
X437817Y272883D01*
X444443Y268139D02*
X444443Y266013D01*
X437817Y266013D01*
X437817Y268139D01*
X444443Y268139D01*
X444443Y266387D02*
X437817Y266387D01*
X437817Y266761D02*
X444443Y266761D01*
X444443Y267135D02*
X437817Y267135D01*
X437817Y267509D02*
X444443Y267509D01*
X444443Y267883D02*
X437817Y267883D01*
X491443Y268139D02*
X491443Y266013D01*
X484817Y266013D01*
X484817Y268139D01*
X491443Y268139D01*
X491443Y266387D02*
X484817Y266387D01*
X484817Y266761D02*
X491443Y266761D01*
X491443Y267135D02*
X484817Y267135D01*
X484817Y267509D02*
X491443Y267509D01*
X491443Y267883D02*
X484817Y267883D01*
X491443Y271013D02*
X491443Y273139D01*
X491443Y271013D02*
X484817Y271013D01*
X484817Y273139D01*
X491443Y273139D01*
X491443Y271387D02*
X484817Y271387D01*
X484817Y271761D02*
X491443Y271761D01*
X491443Y272135D02*
X484817Y272135D01*
X484817Y272509D02*
X491443Y272509D01*
X491443Y272883D02*
X484817Y272883D01*
X491443Y276013D02*
X491443Y278139D01*
X491443Y276013D02*
X484817Y276013D01*
X484817Y278139D01*
X491443Y278139D01*
X491443Y276387D02*
X484817Y276387D01*
X484817Y276761D02*
X491443Y276761D01*
X491443Y277135D02*
X484817Y277135D01*
X484817Y277509D02*
X491443Y277509D01*
X491443Y277883D02*
X484817Y277883D01*
X491443Y281013D02*
X491443Y283139D01*
X491443Y281013D02*
X484817Y281013D01*
X484817Y283139D01*
X491443Y283139D01*
X491443Y281387D02*
X484817Y281387D01*
X484817Y281761D02*
X491443Y281761D01*
X491443Y282135D02*
X484817Y282135D01*
X484817Y282509D02*
X491443Y282509D01*
X491443Y282883D02*
X484817Y282883D01*
X491443Y286013D02*
X491443Y288139D01*
X491443Y286013D02*
X484817Y286013D01*
X484817Y288139D01*
X491443Y288139D01*
X491443Y286387D02*
X484817Y286387D01*
X484817Y286761D02*
X491443Y286761D01*
X491443Y287135D02*
X484817Y287135D01*
X484817Y287509D02*
X491443Y287509D01*
X491443Y287883D02*
X484817Y287883D01*
X491443Y291013D02*
X491443Y293139D01*
X491443Y291013D02*
X484817Y291013D01*
X484817Y293139D01*
X491443Y293139D01*
X491443Y291387D02*
X484817Y291387D01*
X484817Y291761D02*
X491443Y291761D01*
X491443Y292135D02*
X484817Y292135D01*
X484817Y292509D02*
X491443Y292509D01*
X491443Y292883D02*
X484817Y292883D01*
X491443Y296013D02*
X491443Y298139D01*
X491443Y296013D02*
X484817Y296013D01*
X484817Y298139D01*
X491443Y298139D01*
X491443Y296387D02*
X484817Y296387D01*
X484817Y296761D02*
X491443Y296761D01*
X491443Y297135D02*
X484817Y297135D01*
X484817Y297509D02*
X491443Y297509D01*
X491443Y297883D02*
X484817Y297883D01*
X491443Y301013D02*
X491443Y303139D01*
X491443Y301013D02*
X484817Y301013D01*
X484817Y303139D01*
X491443Y303139D01*
X491443Y301387D02*
X484817Y301387D01*
X484817Y301761D02*
X491443Y301761D01*
X491443Y302135D02*
X484817Y302135D01*
X484817Y302509D02*
X491443Y302509D01*
X491443Y302883D02*
X484817Y302883D01*
X491443Y306013D02*
X491443Y308139D01*
X491443Y306013D02*
X484817Y306013D01*
X484817Y308139D01*
X491443Y308139D01*
X491443Y306387D02*
X484817Y306387D01*
X484817Y306761D02*
X491443Y306761D01*
X491443Y307135D02*
X484817Y307135D01*
X484817Y307509D02*
X491443Y307509D01*
X491443Y307883D02*
X484817Y307883D01*
X491443Y311013D02*
X491443Y313139D01*
X491443Y311013D02*
X484817Y311013D01*
X484817Y313139D01*
X491443Y313139D01*
X491443Y311387D02*
X484817Y311387D01*
X484817Y311761D02*
X491443Y311761D01*
X491443Y312135D02*
X484817Y312135D01*
X484817Y312509D02*
X491443Y312509D01*
X491443Y312883D02*
X484817Y312883D01*
D35*
X483911Y320612D02*
X487649Y320612D01*
X483911Y320612D02*
X483911Y323800D01*
X487649Y323800D01*
X487649Y320612D01*
X487649Y321174D02*
X483911Y321174D01*
X483911Y321736D02*
X487649Y321736D01*
X487649Y322298D02*
X483911Y322298D01*
X483911Y322860D02*
X487649Y322860D01*
X487649Y323422D02*
X483911Y323422D01*
X445349Y320612D02*
X441611Y320612D01*
X441611Y323800D01*
X445349Y323800D01*
X445349Y320612D01*
X445349Y321174D02*
X441611Y321174D01*
X441611Y321736D02*
X445349Y321736D01*
X445349Y322298D02*
X441611Y322298D01*
X441611Y322860D02*
X445349Y322860D01*
X445349Y323422D02*
X441611Y323422D01*
X441611Y260352D02*
X445349Y260352D01*
X441611Y260352D02*
X441611Y263540D01*
X445349Y263540D01*
X445349Y260352D01*
X445349Y260914D02*
X441611Y260914D01*
X441611Y261476D02*
X445349Y261476D01*
X445349Y262038D02*
X441611Y262038D01*
X441611Y262600D02*
X445349Y262600D01*
X445349Y263162D02*
X441611Y263162D01*
X483911Y260352D02*
X487649Y260352D01*
X483911Y260352D02*
X483911Y263540D01*
X487649Y263540D01*
X487649Y260352D01*
X487649Y260914D02*
X483911Y260914D01*
X483911Y261476D02*
X487649Y261476D01*
X487649Y262038D02*
X483911Y262038D01*
X483911Y262600D02*
X487649Y262600D01*
X487649Y263162D02*
X483911Y263162D01*
D36*
X333192Y377503D03*
D37*
X319861Y377500D03*
D38*
X346458Y377502D03*
D39*
X359788Y377498D03*
D40*
X359779Y393844D03*
D41*
X346460Y393829D03*
D42*
X333150Y393835D03*
D43*
X319851Y393828D03*
D44*
X335298Y407535D03*
D45*
X335276Y363689D03*
D34*
X363789Y405795D02*
X365915Y405795D01*
X363789Y405795D02*
X363789Y412421D01*
X365915Y412421D01*
X365915Y405795D01*
X365915Y406169D02*
X363789Y406169D01*
X363789Y406543D02*
X365915Y406543D01*
X365915Y406917D02*
X363789Y406917D01*
X363789Y407291D02*
X365915Y407291D01*
X365915Y407665D02*
X363789Y407665D01*
X363789Y408039D02*
X365915Y408039D01*
X365915Y408413D02*
X363789Y408413D01*
X363789Y408787D02*
X365915Y408787D01*
X365915Y409161D02*
X363789Y409161D01*
X363789Y409535D02*
X365915Y409535D01*
X365915Y409909D02*
X363789Y409909D01*
X363789Y410283D02*
X365915Y410283D01*
X365915Y410657D02*
X363789Y410657D01*
X363789Y411031D02*
X365915Y411031D01*
X365915Y411405D02*
X363789Y411405D01*
X363789Y411779D02*
X365915Y411779D01*
X365915Y412153D02*
X363789Y412153D01*
X363789Y358795D02*
X365915Y358795D01*
X363789Y358795D02*
X363789Y365421D01*
X365915Y365421D01*
X365915Y358795D01*
X365915Y359169D02*
X363789Y359169D01*
X363789Y359543D02*
X365915Y359543D01*
X365915Y359917D02*
X363789Y359917D01*
X363789Y360291D02*
X365915Y360291D01*
X365915Y360665D02*
X363789Y360665D01*
X363789Y361039D02*
X365915Y361039D01*
X365915Y361413D02*
X363789Y361413D01*
X363789Y361787D02*
X365915Y361787D01*
X365915Y362161D02*
X363789Y362161D01*
X363789Y362535D02*
X365915Y362535D01*
X365915Y362909D02*
X363789Y362909D01*
X363789Y363283D02*
X365915Y363283D01*
X365915Y363657D02*
X363789Y363657D01*
X363789Y364031D02*
X365915Y364031D01*
X365915Y364405D02*
X363789Y364405D01*
X363789Y364779D02*
X365915Y364779D01*
X365915Y365153D02*
X363789Y365153D01*
X360915Y405795D02*
X358789Y405795D01*
X358789Y412421D01*
X360915Y412421D01*
X360915Y405795D01*
X360915Y406169D02*
X358789Y406169D01*
X358789Y406543D02*
X360915Y406543D01*
X360915Y406917D02*
X358789Y406917D01*
X358789Y407291D02*
X360915Y407291D01*
X360915Y407665D02*
X358789Y407665D01*
X358789Y408039D02*
X360915Y408039D01*
X360915Y408413D02*
X358789Y408413D01*
X358789Y408787D02*
X360915Y408787D01*
X360915Y409161D02*
X358789Y409161D01*
X358789Y409535D02*
X360915Y409535D01*
X360915Y409909D02*
X358789Y409909D01*
X358789Y410283D02*
X360915Y410283D01*
X360915Y410657D02*
X358789Y410657D01*
X358789Y411031D02*
X360915Y411031D01*
X360915Y411405D02*
X358789Y411405D01*
X358789Y411779D02*
X360915Y411779D01*
X360915Y412153D02*
X358789Y412153D01*
X355915Y405795D02*
X353789Y405795D01*
X353789Y412421D01*
X355915Y412421D01*
X355915Y405795D01*
X355915Y406169D02*
X353789Y406169D01*
X353789Y406543D02*
X355915Y406543D01*
X355915Y406917D02*
X353789Y406917D01*
X353789Y407291D02*
X355915Y407291D01*
X355915Y407665D02*
X353789Y407665D01*
X353789Y408039D02*
X355915Y408039D01*
X355915Y408413D02*
X353789Y408413D01*
X353789Y408787D02*
X355915Y408787D01*
X355915Y409161D02*
X353789Y409161D01*
X353789Y409535D02*
X355915Y409535D01*
X355915Y409909D02*
X353789Y409909D01*
X353789Y410283D02*
X355915Y410283D01*
X355915Y410657D02*
X353789Y410657D01*
X353789Y411031D02*
X355915Y411031D01*
X355915Y411405D02*
X353789Y411405D01*
X353789Y411779D02*
X355915Y411779D01*
X355915Y412153D02*
X353789Y412153D01*
X350915Y405795D02*
X348789Y405795D01*
X348789Y412421D01*
X350915Y412421D01*
X350915Y405795D01*
X350915Y406169D02*
X348789Y406169D01*
X348789Y406543D02*
X350915Y406543D01*
X350915Y406917D02*
X348789Y406917D01*
X348789Y407291D02*
X350915Y407291D01*
X350915Y407665D02*
X348789Y407665D01*
X348789Y408039D02*
X350915Y408039D01*
X350915Y408413D02*
X348789Y408413D01*
X348789Y408787D02*
X350915Y408787D01*
X350915Y409161D02*
X348789Y409161D01*
X348789Y409535D02*
X350915Y409535D01*
X350915Y409909D02*
X348789Y409909D01*
X348789Y410283D02*
X350915Y410283D01*
X350915Y410657D02*
X348789Y410657D01*
X348789Y411031D02*
X350915Y411031D01*
X350915Y411405D02*
X348789Y411405D01*
X348789Y411779D02*
X350915Y411779D01*
X350915Y412153D02*
X348789Y412153D01*
X345915Y405795D02*
X343789Y405795D01*
X343789Y412421D01*
X345915Y412421D01*
X345915Y405795D01*
X345915Y406169D02*
X343789Y406169D01*
X343789Y406543D02*
X345915Y406543D01*
X345915Y406917D02*
X343789Y406917D01*
X343789Y407291D02*
X345915Y407291D01*
X345915Y407665D02*
X343789Y407665D01*
X343789Y408039D02*
X345915Y408039D01*
X345915Y408413D02*
X343789Y408413D01*
X343789Y408787D02*
X345915Y408787D01*
X345915Y409161D02*
X343789Y409161D01*
X343789Y409535D02*
X345915Y409535D01*
X345915Y409909D02*
X343789Y409909D01*
X343789Y410283D02*
X345915Y410283D01*
X345915Y410657D02*
X343789Y410657D01*
X343789Y411031D02*
X345915Y411031D01*
X345915Y411405D02*
X343789Y411405D01*
X343789Y411779D02*
X345915Y411779D01*
X345915Y412153D02*
X343789Y412153D01*
X340915Y405795D02*
X338789Y405795D01*
X338789Y412421D01*
X340915Y412421D01*
X340915Y405795D01*
X340915Y406169D02*
X338789Y406169D01*
X338789Y406543D02*
X340915Y406543D01*
X340915Y406917D02*
X338789Y406917D01*
X338789Y407291D02*
X340915Y407291D01*
X340915Y407665D02*
X338789Y407665D01*
X338789Y408039D02*
X340915Y408039D01*
X340915Y408413D02*
X338789Y408413D01*
X338789Y408787D02*
X340915Y408787D01*
X340915Y409161D02*
X338789Y409161D01*
X338789Y409535D02*
X340915Y409535D01*
X340915Y409909D02*
X338789Y409909D01*
X338789Y410283D02*
X340915Y410283D01*
X340915Y410657D02*
X338789Y410657D01*
X338789Y411031D02*
X340915Y411031D01*
X340915Y411405D02*
X338789Y411405D01*
X338789Y411779D02*
X340915Y411779D01*
X340915Y412153D02*
X338789Y412153D01*
X335915Y405795D02*
X333789Y405795D01*
X333789Y412421D01*
X335915Y412421D01*
X335915Y405795D01*
X335915Y406169D02*
X333789Y406169D01*
X333789Y406543D02*
X335915Y406543D01*
X335915Y406917D02*
X333789Y406917D01*
X333789Y407291D02*
X335915Y407291D01*
X335915Y407665D02*
X333789Y407665D01*
X333789Y408039D02*
X335915Y408039D01*
X335915Y408413D02*
X333789Y408413D01*
X333789Y408787D02*
X335915Y408787D01*
X335915Y409161D02*
X333789Y409161D01*
X333789Y409535D02*
X335915Y409535D01*
X335915Y409909D02*
X333789Y409909D01*
X333789Y410283D02*
X335915Y410283D01*
X335915Y410657D02*
X333789Y410657D01*
X333789Y411031D02*
X335915Y411031D01*
X335915Y411405D02*
X333789Y411405D01*
X333789Y411779D02*
X335915Y411779D01*
X335915Y412153D02*
X333789Y412153D01*
X330915Y405795D02*
X328789Y405795D01*
X328789Y412421D01*
X330915Y412421D01*
X330915Y405795D01*
X330915Y406169D02*
X328789Y406169D01*
X328789Y406543D02*
X330915Y406543D01*
X330915Y406917D02*
X328789Y406917D01*
X328789Y407291D02*
X330915Y407291D01*
X330915Y407665D02*
X328789Y407665D01*
X328789Y408039D02*
X330915Y408039D01*
X330915Y408413D02*
X328789Y408413D01*
X328789Y408787D02*
X330915Y408787D01*
X330915Y409161D02*
X328789Y409161D01*
X328789Y409535D02*
X330915Y409535D01*
X330915Y409909D02*
X328789Y409909D01*
X328789Y410283D02*
X330915Y410283D01*
X330915Y410657D02*
X328789Y410657D01*
X328789Y411031D02*
X330915Y411031D01*
X330915Y411405D02*
X328789Y411405D01*
X328789Y411779D02*
X330915Y411779D01*
X330915Y412153D02*
X328789Y412153D01*
X325915Y405795D02*
X323789Y405795D01*
X323789Y412421D01*
X325915Y412421D01*
X325915Y405795D01*
X325915Y406169D02*
X323789Y406169D01*
X323789Y406543D02*
X325915Y406543D01*
X325915Y406917D02*
X323789Y406917D01*
X323789Y407291D02*
X325915Y407291D01*
X325915Y407665D02*
X323789Y407665D01*
X323789Y408039D02*
X325915Y408039D01*
X325915Y408413D02*
X323789Y408413D01*
X323789Y408787D02*
X325915Y408787D01*
X325915Y409161D02*
X323789Y409161D01*
X323789Y409535D02*
X325915Y409535D01*
X325915Y409909D02*
X323789Y409909D01*
X323789Y410283D02*
X325915Y410283D01*
X325915Y410657D02*
X323789Y410657D01*
X323789Y411031D02*
X325915Y411031D01*
X325915Y411405D02*
X323789Y411405D01*
X323789Y411779D02*
X325915Y411779D01*
X325915Y412153D02*
X323789Y412153D01*
X320915Y405795D02*
X318789Y405795D01*
X318789Y412421D01*
X320915Y412421D01*
X320915Y405795D01*
X320915Y406169D02*
X318789Y406169D01*
X318789Y406543D02*
X320915Y406543D01*
X320915Y406917D02*
X318789Y406917D01*
X318789Y407291D02*
X320915Y407291D01*
X320915Y407665D02*
X318789Y407665D01*
X318789Y408039D02*
X320915Y408039D01*
X320915Y408413D02*
X318789Y408413D01*
X318789Y408787D02*
X320915Y408787D01*
X320915Y409161D02*
X318789Y409161D01*
X318789Y409535D02*
X320915Y409535D01*
X320915Y409909D02*
X318789Y409909D01*
X318789Y410283D02*
X320915Y410283D01*
X320915Y410657D02*
X318789Y410657D01*
X318789Y411031D02*
X320915Y411031D01*
X320915Y411405D02*
X318789Y411405D01*
X318789Y411779D02*
X320915Y411779D01*
X320915Y412153D02*
X318789Y412153D01*
X315915Y405795D02*
X313789Y405795D01*
X313789Y412421D01*
X315915Y412421D01*
X315915Y405795D01*
X315915Y406169D02*
X313789Y406169D01*
X313789Y406543D02*
X315915Y406543D01*
X315915Y406917D02*
X313789Y406917D01*
X313789Y407291D02*
X315915Y407291D01*
X315915Y407665D02*
X313789Y407665D01*
X313789Y408039D02*
X315915Y408039D01*
X315915Y408413D02*
X313789Y408413D01*
X313789Y408787D02*
X315915Y408787D01*
X315915Y409161D02*
X313789Y409161D01*
X313789Y409535D02*
X315915Y409535D01*
X315915Y409909D02*
X313789Y409909D01*
X313789Y410283D02*
X315915Y410283D01*
X315915Y410657D02*
X313789Y410657D01*
X313789Y411031D02*
X315915Y411031D01*
X315915Y411405D02*
X313789Y411405D01*
X313789Y411779D02*
X315915Y411779D01*
X315915Y412153D02*
X313789Y412153D01*
X313789Y358795D02*
X315915Y358795D01*
X313789Y358795D02*
X313789Y365421D01*
X315915Y365421D01*
X315915Y358795D01*
X315915Y359169D02*
X313789Y359169D01*
X313789Y359543D02*
X315915Y359543D01*
X315915Y359917D02*
X313789Y359917D01*
X313789Y360291D02*
X315915Y360291D01*
X315915Y360665D02*
X313789Y360665D01*
X313789Y361039D02*
X315915Y361039D01*
X315915Y361413D02*
X313789Y361413D01*
X313789Y361787D02*
X315915Y361787D01*
X315915Y362161D02*
X313789Y362161D01*
X313789Y362535D02*
X315915Y362535D01*
X315915Y362909D02*
X313789Y362909D01*
X313789Y363283D02*
X315915Y363283D01*
X315915Y363657D02*
X313789Y363657D01*
X313789Y364031D02*
X315915Y364031D01*
X315915Y364405D02*
X313789Y364405D01*
X313789Y364779D02*
X315915Y364779D01*
X315915Y365153D02*
X313789Y365153D01*
X318789Y358795D02*
X320915Y358795D01*
X318789Y358795D02*
X318789Y365421D01*
X320915Y365421D01*
X320915Y358795D01*
X320915Y359169D02*
X318789Y359169D01*
X318789Y359543D02*
X320915Y359543D01*
X320915Y359917D02*
X318789Y359917D01*
X318789Y360291D02*
X320915Y360291D01*
X320915Y360665D02*
X318789Y360665D01*
X318789Y361039D02*
X320915Y361039D01*
X320915Y361413D02*
X318789Y361413D01*
X318789Y361787D02*
X320915Y361787D01*
X320915Y362161D02*
X318789Y362161D01*
X318789Y362535D02*
X320915Y362535D01*
X320915Y362909D02*
X318789Y362909D01*
X318789Y363283D02*
X320915Y363283D01*
X320915Y363657D02*
X318789Y363657D01*
X318789Y364031D02*
X320915Y364031D01*
X320915Y364405D02*
X318789Y364405D01*
X318789Y364779D02*
X320915Y364779D01*
X320915Y365153D02*
X318789Y365153D01*
X323789Y358795D02*
X325915Y358795D01*
X323789Y358795D02*
X323789Y365421D01*
X325915Y365421D01*
X325915Y358795D01*
X325915Y359169D02*
X323789Y359169D01*
X323789Y359543D02*
X325915Y359543D01*
X325915Y359917D02*
X323789Y359917D01*
X323789Y360291D02*
X325915Y360291D01*
X325915Y360665D02*
X323789Y360665D01*
X323789Y361039D02*
X325915Y361039D01*
X325915Y361413D02*
X323789Y361413D01*
X323789Y361787D02*
X325915Y361787D01*
X325915Y362161D02*
X323789Y362161D01*
X323789Y362535D02*
X325915Y362535D01*
X325915Y362909D02*
X323789Y362909D01*
X323789Y363283D02*
X325915Y363283D01*
X325915Y363657D02*
X323789Y363657D01*
X323789Y364031D02*
X325915Y364031D01*
X325915Y364405D02*
X323789Y364405D01*
X323789Y364779D02*
X325915Y364779D01*
X325915Y365153D02*
X323789Y365153D01*
X328789Y358795D02*
X330915Y358795D01*
X328789Y358795D02*
X328789Y365421D01*
X330915Y365421D01*
X330915Y358795D01*
X330915Y359169D02*
X328789Y359169D01*
X328789Y359543D02*
X330915Y359543D01*
X330915Y359917D02*
X328789Y359917D01*
X328789Y360291D02*
X330915Y360291D01*
X330915Y360665D02*
X328789Y360665D01*
X328789Y361039D02*
X330915Y361039D01*
X330915Y361413D02*
X328789Y361413D01*
X328789Y361787D02*
X330915Y361787D01*
X330915Y362161D02*
X328789Y362161D01*
X328789Y362535D02*
X330915Y362535D01*
X330915Y362909D02*
X328789Y362909D01*
X328789Y363283D02*
X330915Y363283D01*
X330915Y363657D02*
X328789Y363657D01*
X328789Y364031D02*
X330915Y364031D01*
X330915Y364405D02*
X328789Y364405D01*
X328789Y364779D02*
X330915Y364779D01*
X330915Y365153D02*
X328789Y365153D01*
X333789Y358795D02*
X335915Y358795D01*
X333789Y358795D02*
X333789Y365421D01*
X335915Y365421D01*
X335915Y358795D01*
X335915Y359169D02*
X333789Y359169D01*
X333789Y359543D02*
X335915Y359543D01*
X335915Y359917D02*
X333789Y359917D01*
X333789Y360291D02*
X335915Y360291D01*
X335915Y360665D02*
X333789Y360665D01*
X333789Y361039D02*
X335915Y361039D01*
X335915Y361413D02*
X333789Y361413D01*
X333789Y361787D02*
X335915Y361787D01*
X335915Y362161D02*
X333789Y362161D01*
X333789Y362535D02*
X335915Y362535D01*
X335915Y362909D02*
X333789Y362909D01*
X333789Y363283D02*
X335915Y363283D01*
X335915Y363657D02*
X333789Y363657D01*
X333789Y364031D02*
X335915Y364031D01*
X335915Y364405D02*
X333789Y364405D01*
X333789Y364779D02*
X335915Y364779D01*
X335915Y365153D02*
X333789Y365153D01*
X338789Y358795D02*
X340915Y358795D01*
X338789Y358795D02*
X338789Y365421D01*
X340915Y365421D01*
X340915Y358795D01*
X340915Y359169D02*
X338789Y359169D01*
X338789Y359543D02*
X340915Y359543D01*
X340915Y359917D02*
X338789Y359917D01*
X338789Y360291D02*
X340915Y360291D01*
X340915Y360665D02*
X338789Y360665D01*
X338789Y361039D02*
X340915Y361039D01*
X340915Y361413D02*
X338789Y361413D01*
X338789Y361787D02*
X340915Y361787D01*
X340915Y362161D02*
X338789Y362161D01*
X338789Y362535D02*
X340915Y362535D01*
X340915Y362909D02*
X338789Y362909D01*
X338789Y363283D02*
X340915Y363283D01*
X340915Y363657D02*
X338789Y363657D01*
X338789Y364031D02*
X340915Y364031D01*
X340915Y364405D02*
X338789Y364405D01*
X338789Y364779D02*
X340915Y364779D01*
X340915Y365153D02*
X338789Y365153D01*
X343789Y358795D02*
X345915Y358795D01*
X343789Y358795D02*
X343789Y365421D01*
X345915Y365421D01*
X345915Y358795D01*
X345915Y359169D02*
X343789Y359169D01*
X343789Y359543D02*
X345915Y359543D01*
X345915Y359917D02*
X343789Y359917D01*
X343789Y360291D02*
X345915Y360291D01*
X345915Y360665D02*
X343789Y360665D01*
X343789Y361039D02*
X345915Y361039D01*
X345915Y361413D02*
X343789Y361413D01*
X343789Y361787D02*
X345915Y361787D01*
X345915Y362161D02*
X343789Y362161D01*
X343789Y362535D02*
X345915Y362535D01*
X345915Y362909D02*
X343789Y362909D01*
X343789Y363283D02*
X345915Y363283D01*
X345915Y363657D02*
X343789Y363657D01*
X343789Y364031D02*
X345915Y364031D01*
X345915Y364405D02*
X343789Y364405D01*
X343789Y364779D02*
X345915Y364779D01*
X345915Y365153D02*
X343789Y365153D01*
X348789Y358795D02*
X350915Y358795D01*
X348789Y358795D02*
X348789Y365421D01*
X350915Y365421D01*
X350915Y358795D01*
X350915Y359169D02*
X348789Y359169D01*
X348789Y359543D02*
X350915Y359543D01*
X350915Y359917D02*
X348789Y359917D01*
X348789Y360291D02*
X350915Y360291D01*
X350915Y360665D02*
X348789Y360665D01*
X348789Y361039D02*
X350915Y361039D01*
X350915Y361413D02*
X348789Y361413D01*
X348789Y361787D02*
X350915Y361787D01*
X350915Y362161D02*
X348789Y362161D01*
X348789Y362535D02*
X350915Y362535D01*
X350915Y362909D02*
X348789Y362909D01*
X348789Y363283D02*
X350915Y363283D01*
X350915Y363657D02*
X348789Y363657D01*
X348789Y364031D02*
X350915Y364031D01*
X350915Y364405D02*
X348789Y364405D01*
X348789Y364779D02*
X350915Y364779D01*
X350915Y365153D02*
X348789Y365153D01*
X353789Y358795D02*
X355915Y358795D01*
X353789Y358795D02*
X353789Y365421D01*
X355915Y365421D01*
X355915Y358795D01*
X355915Y359169D02*
X353789Y359169D01*
X353789Y359543D02*
X355915Y359543D01*
X355915Y359917D02*
X353789Y359917D01*
X353789Y360291D02*
X355915Y360291D01*
X355915Y360665D02*
X353789Y360665D01*
X353789Y361039D02*
X355915Y361039D01*
X355915Y361413D02*
X353789Y361413D01*
X353789Y361787D02*
X355915Y361787D01*
X355915Y362161D02*
X353789Y362161D01*
X353789Y362535D02*
X355915Y362535D01*
X355915Y362909D02*
X353789Y362909D01*
X353789Y363283D02*
X355915Y363283D01*
X355915Y363657D02*
X353789Y363657D01*
X353789Y364031D02*
X355915Y364031D01*
X355915Y364405D02*
X353789Y364405D01*
X353789Y364779D02*
X355915Y364779D01*
X355915Y365153D02*
X353789Y365153D01*
X358789Y358795D02*
X360915Y358795D01*
X358789Y358795D02*
X358789Y365421D01*
X360915Y365421D01*
X360915Y358795D01*
X360915Y359169D02*
X358789Y359169D01*
X358789Y359543D02*
X360915Y359543D01*
X360915Y359917D02*
X358789Y359917D01*
X358789Y360291D02*
X360915Y360291D01*
X360915Y360665D02*
X358789Y360665D01*
X358789Y361039D02*
X360915Y361039D01*
X360915Y361413D02*
X358789Y361413D01*
X358789Y361787D02*
X360915Y361787D01*
X360915Y362161D02*
X358789Y362161D01*
X358789Y362535D02*
X360915Y362535D01*
X360915Y362909D02*
X358789Y362909D01*
X358789Y363283D02*
X360915Y363283D01*
X360915Y363657D02*
X358789Y363657D01*
X358789Y364031D02*
X360915Y364031D01*
X360915Y364405D02*
X358789Y364405D01*
X358789Y364779D02*
X360915Y364779D01*
X360915Y365153D02*
X358789Y365153D01*
D35*
X368388Y366327D02*
X368388Y362589D01*
X368388Y366327D02*
X371576Y366327D01*
X371576Y362589D01*
X368388Y362589D01*
X368388Y363151D02*
X371576Y363151D01*
X371576Y363713D02*
X368388Y363713D01*
X368388Y364275D02*
X371576Y364275D01*
X371576Y364837D02*
X368388Y364837D01*
X368388Y365399D02*
X371576Y365399D01*
X371576Y365961D02*
X368388Y365961D01*
X368388Y404889D02*
X368388Y408627D01*
X371576Y408627D01*
X371576Y404889D01*
X368388Y404889D01*
X368388Y405451D02*
X371576Y405451D01*
X371576Y406013D02*
X368388Y406013D01*
X368388Y406575D02*
X371576Y406575D01*
X371576Y407137D02*
X368388Y407137D01*
X368388Y407699D02*
X371576Y407699D01*
X371576Y408261D02*
X368388Y408261D01*
X308128Y408627D02*
X308128Y404889D01*
X308128Y408627D02*
X311316Y408627D01*
X311316Y404889D01*
X308128Y404889D01*
X308128Y405451D02*
X311316Y405451D01*
X311316Y406013D02*
X308128Y406013D01*
X308128Y406575D02*
X311316Y406575D01*
X311316Y407137D02*
X308128Y407137D01*
X308128Y407699D02*
X311316Y407699D01*
X311316Y408261D02*
X308128Y408261D01*
X308128Y366327D02*
X308128Y362589D01*
X308128Y366327D02*
X311316Y366327D01*
X311316Y362589D01*
X308128Y362589D01*
X308128Y363151D02*
X311316Y363151D01*
X311316Y363713D02*
X308128Y363713D01*
X308128Y364275D02*
X311316Y364275D01*
X311316Y364837D02*
X308128Y364837D01*
X308128Y365399D02*
X311316Y365399D01*
X311316Y365961D02*
X308128Y365961D01*
D46*
X231200Y389500D03*
X231200Y552500D03*
D47*
X254700Y471000D03*
X254700Y461000D03*
X254700Y451000D03*
X254700Y441000D03*
X254700Y481000D03*
X254700Y491000D03*
X254700Y501000D03*
X254700Y511000D03*
X254700Y431000D03*
X254700Y521000D03*
X254700Y421000D03*
D48*
X964738Y726720D02*
X967738Y726720D01*
X964738Y726720D02*
X964738Y737620D01*
X967738Y737620D01*
X967738Y726720D01*
X967738Y727719D02*
X964738Y727719D01*
X964738Y728718D02*
X967738Y728718D01*
X967738Y729717D02*
X964738Y729717D01*
X964738Y730716D02*
X967738Y730716D01*
X967738Y731715D02*
X964738Y731715D01*
X964738Y732714D02*
X967738Y732714D01*
X967738Y733713D02*
X964738Y733713D01*
X964738Y734712D02*
X967738Y734712D01*
X967738Y735711D02*
X964738Y735711D01*
X964738Y736710D02*
X967738Y736710D01*
X971238Y726720D02*
X974238Y726720D01*
X971238Y726720D02*
X971238Y737620D01*
X974238Y737620D01*
X974238Y726720D01*
X974238Y727719D02*
X971238Y727719D01*
X971238Y728718D02*
X974238Y728718D01*
X974238Y729717D02*
X971238Y729717D01*
X971238Y730716D02*
X974238Y730716D01*
X974238Y731715D02*
X971238Y731715D01*
X971238Y732714D02*
X974238Y732714D01*
X974238Y733713D02*
X971238Y733713D01*
X971238Y734712D02*
X974238Y734712D01*
X974238Y735711D02*
X971238Y735711D01*
X971238Y736710D02*
X974238Y736710D01*
X977738Y726720D02*
X980738Y726720D01*
X977738Y726720D02*
X977738Y737620D01*
X980738Y737620D01*
X980738Y726720D01*
X980738Y727719D02*
X977738Y727719D01*
X977738Y728718D02*
X980738Y728718D01*
X980738Y729717D02*
X977738Y729717D01*
X977738Y730716D02*
X980738Y730716D01*
X980738Y731715D02*
X977738Y731715D01*
X977738Y732714D02*
X980738Y732714D01*
X980738Y733713D02*
X977738Y733713D01*
X977738Y734712D02*
X980738Y734712D01*
X980738Y735711D02*
X977738Y735711D01*
X977738Y736710D02*
X980738Y736710D01*
X980738Y756820D02*
X977738Y756820D01*
X980738Y756820D02*
X980738Y745920D01*
X977738Y745920D01*
X977738Y756820D01*
X977738Y746919D02*
X980738Y746919D01*
X980738Y747918D02*
X977738Y747918D01*
X977738Y748917D02*
X980738Y748917D01*
X980738Y749916D02*
X977738Y749916D01*
X977738Y750915D02*
X980738Y750915D01*
X980738Y751914D02*
X977738Y751914D01*
X977738Y752913D02*
X980738Y752913D01*
X980738Y753912D02*
X977738Y753912D01*
X977738Y754911D02*
X980738Y754911D01*
X980738Y755910D02*
X977738Y755910D01*
X967738Y756820D02*
X964738Y756820D01*
X967738Y756820D02*
X967738Y745920D01*
X964738Y745920D01*
X964738Y756820D01*
X964738Y746919D02*
X967738Y746919D01*
X967738Y747918D02*
X964738Y747918D01*
X964738Y748917D02*
X967738Y748917D01*
X967738Y749916D02*
X964738Y749916D01*
X964738Y750915D02*
X967738Y750915D01*
X967738Y751914D02*
X964738Y751914D01*
X964738Y752913D02*
X967738Y752913D01*
X967738Y753912D02*
X964738Y753912D01*
X964738Y754911D02*
X967738Y754911D01*
X967738Y755910D02*
X964738Y755910D01*
D19*
G36*
X618074Y802654D02*
X620457Y797148D01*
X614034Y794368D01*
X611651Y799874D01*
X618074Y802654D01*
G37*
G36*
X614102Y811832D02*
X616485Y806326D01*
X610062Y803546D01*
X607679Y809052D01*
X614102Y811832D01*
G37*
D16*
X599401Y806233D02*
X592977Y803453D01*
X590197Y809877D01*
X596621Y812657D01*
X599401Y806233D01*
X599306Y806452D02*
X591679Y806452D01*
X590381Y809451D02*
X598008Y809451D01*
X596711Y812450D02*
X596143Y812450D01*
X606367Y790135D02*
X599943Y787355D01*
X597163Y793779D01*
X603587Y796559D01*
X606367Y790135D01*
X606272Y790354D02*
X598645Y790354D01*
X597347Y793353D02*
X604974Y793353D01*
X603677Y796352D02*
X603109Y796352D01*
D19*
X711000Y760000D03*
X721000Y760000D03*
D49*
X790000Y234500D03*
X790000Y161500D03*
X928000Y286500D03*
X928000Y359500D03*
X881000Y242500D03*
X881000Y169500D03*
X1024000Y268500D03*
X1024000Y341500D03*
X952000Y264500D03*
X952000Y191500D03*
D50*
X312125Y490500D03*
X312125Y484000D03*
X312125Y477500D03*
X312125Y471000D03*
X312125Y464500D03*
X312125Y458000D03*
X312125Y451500D03*
X368625Y451500D03*
X368625Y458000D03*
X368625Y464500D03*
X368625Y471000D03*
X368625Y477500D03*
X368625Y484000D03*
X368625Y490500D03*
D20*
X412500Y437000D03*
X393500Y437000D03*
X412500Y504000D03*
X393500Y504000D03*
D51*
X988000Y478500D03*
X988000Y463500D03*
X988000Y448500D03*
X988000Y493500D03*
X988000Y508500D03*
X988000Y433500D03*
D52*
X1039900Y407450D03*
X1039900Y534550D03*
D13*
X623000Y592500D03*
X623000Y605500D03*
D53*
X595350Y568000D03*
X595350Y516000D03*
X608050Y568000D03*
X582650Y568000D03*
X569950Y568000D03*
X608050Y516000D03*
X582650Y516000D03*
X569950Y516000D03*
D54*
G36*
X665928Y629474D02*
X646836Y610382D01*
X621382Y635836D01*
X640474Y654928D01*
X665928Y629474D01*
G37*
G36*
X724618Y688164D02*
X705526Y669072D01*
X680072Y694526D01*
X699164Y713618D01*
X724618Y688164D01*
G37*
M02*
