G75*
%MOIN*%
%OFA0B0*%
%FSLAX25Y25*%
%IPPOS*%
%LPD*%
%AMOC8*
5,1,8,0,0,1.08239X$1,22.5*
%
%ADD10C,0.00600*%
%ADD11C,0.00000*%
%ADD12C,0.07099*%
%ADD13R,0.03000X0.08600*%
%ADD14R,0.12611X0.08674*%
%ADD15R,0.03556X0.04343*%
%ADD16R,0.04343X0.03556*%
%ADD17R,0.10249X0.10249*%
%ADD18C,0.01421*%
%ADD19R,0.03162X0.05524*%
%ADD20R,0.03556X0.03162*%
%ADD21R,0.13398X0.07887*%
%ADD22R,0.03162X0.03556*%
%ADD23R,0.05918X0.06706*%
%ADD24R,0.06706X0.05918*%
%ADD25R,0.07887X0.13398*%
%ADD26R,0.14973X0.07887*%
%ADD27R,0.07887X0.14973*%
%ADD28C,0.00690*%
%ADD29C,0.00268*%
%ADD30C,0.00341*%
%ADD31C,0.06737*%
%ADD32R,0.11824X0.09068*%
%ADD33C,0.00594*%
%ADD34C,0.08200*%
%ADD35R,0.07887X0.27965*%
%ADD36R,0.27965X0.07887*%
%ADD37C,0.03778*%
%ADD38C,0.03975*%
D10*
X0154843Y0163111D02*
X0154861Y0164560D01*
X0154914Y0166009D01*
X0155003Y0167455D01*
X0155127Y0168899D01*
X0155287Y0170340D01*
X0155482Y0171776D01*
X0155712Y0173207D01*
X0155978Y0174632D01*
X0156278Y0176050D01*
X0156613Y0177460D01*
X0156982Y0178862D01*
X0157386Y0180254D01*
X0157824Y0181635D01*
X0158295Y0183006D01*
X0158800Y0184365D01*
X0159338Y0185710D01*
X0159909Y0187043D01*
X0160513Y0188360D01*
X0161149Y0189663D01*
X0161816Y0190949D01*
X0162515Y0192219D01*
X0163245Y0193471D01*
X0164005Y0194705D01*
X0164796Y0195920D01*
X0165616Y0197115D01*
X0166465Y0198290D01*
X0167342Y0199444D01*
X0168248Y0200575D01*
X0169181Y0201684D01*
X0170141Y0202770D01*
X0171128Y0203832D01*
X0172140Y0204869D01*
X0173177Y0205881D01*
X0174239Y0206868D01*
X0175325Y0207828D01*
X0176434Y0208761D01*
X0177565Y0209667D01*
X0178719Y0210544D01*
X0179894Y0211393D01*
X0181089Y0212213D01*
X0182304Y0213004D01*
X0183538Y0213764D01*
X0184790Y0214494D01*
X0186060Y0215193D01*
X0187346Y0215860D01*
X0188649Y0216496D01*
X0189966Y0217100D01*
X0191299Y0217671D01*
X0192644Y0218209D01*
X0194003Y0218714D01*
X0195374Y0219185D01*
X0196755Y0219623D01*
X0198147Y0220027D01*
X0199549Y0220396D01*
X0200959Y0220731D01*
X0202377Y0221031D01*
X0203802Y0221297D01*
X0205233Y0221527D01*
X0206669Y0221722D01*
X0208110Y0221882D01*
X0209554Y0222006D01*
X0211000Y0222095D01*
X0212449Y0222148D01*
X0213898Y0222166D01*
X0215347Y0222148D01*
X0216796Y0222095D01*
X0218242Y0222006D01*
X0219686Y0221882D01*
X0221127Y0221722D01*
X0222563Y0221527D01*
X0223994Y0221297D01*
X0225419Y0221031D01*
X0226837Y0220731D01*
X0228247Y0220396D01*
X0229649Y0220027D01*
X0231041Y0219623D01*
X0232422Y0219185D01*
X0233793Y0218714D01*
X0235152Y0218209D01*
X0236497Y0217671D01*
X0237830Y0217100D01*
X0239147Y0216496D01*
X0240450Y0215860D01*
X0241736Y0215193D01*
X0243006Y0214494D01*
X0244258Y0213764D01*
X0245492Y0213004D01*
X0246707Y0212213D01*
X0247902Y0211393D01*
X0249077Y0210544D01*
X0250231Y0209667D01*
X0251362Y0208761D01*
X0252471Y0207828D01*
X0253557Y0206868D01*
X0254619Y0205881D01*
X0255656Y0204869D01*
X0256668Y0203832D01*
X0257655Y0202770D01*
X0258615Y0201684D01*
X0259548Y0200575D01*
X0260454Y0199444D01*
X0261331Y0198290D01*
X0262180Y0197115D01*
X0263000Y0195920D01*
X0263791Y0194705D01*
X0264551Y0193471D01*
X0265281Y0192219D01*
X0265980Y0190949D01*
X0266647Y0189663D01*
X0267283Y0188360D01*
X0267887Y0187043D01*
X0268458Y0185710D01*
X0268996Y0184365D01*
X0269501Y0183006D01*
X0269972Y0181635D01*
X0270410Y0180254D01*
X0270814Y0178862D01*
X0271183Y0177460D01*
X0271518Y0176050D01*
X0271818Y0174632D01*
X0272084Y0173207D01*
X0272314Y0171776D01*
X0272509Y0170340D01*
X0272669Y0168899D01*
X0272793Y0167455D01*
X0272882Y0166009D01*
X0272935Y0164560D01*
X0272953Y0163111D01*
X0272935Y0161662D01*
X0272882Y0160213D01*
X0272793Y0158767D01*
X0272669Y0157323D01*
X0272509Y0155882D01*
X0272314Y0154446D01*
X0272084Y0153015D01*
X0271818Y0151590D01*
X0271518Y0150172D01*
X0271183Y0148762D01*
X0270814Y0147360D01*
X0270410Y0145968D01*
X0269972Y0144587D01*
X0269501Y0143216D01*
X0268996Y0141857D01*
X0268458Y0140512D01*
X0267887Y0139179D01*
X0267283Y0137862D01*
X0266647Y0136559D01*
X0265980Y0135273D01*
X0265281Y0134003D01*
X0264551Y0132751D01*
X0263791Y0131517D01*
X0263000Y0130302D01*
X0262180Y0129107D01*
X0261331Y0127932D01*
X0260454Y0126778D01*
X0259548Y0125647D01*
X0258615Y0124538D01*
X0257655Y0123452D01*
X0256668Y0122390D01*
X0255656Y0121353D01*
X0254619Y0120341D01*
X0253557Y0119354D01*
X0252471Y0118394D01*
X0251362Y0117461D01*
X0250231Y0116555D01*
X0249077Y0115678D01*
X0247902Y0114829D01*
X0246707Y0114009D01*
X0245492Y0113218D01*
X0244258Y0112458D01*
X0243006Y0111728D01*
X0241736Y0111029D01*
X0240450Y0110362D01*
X0239147Y0109726D01*
X0237830Y0109122D01*
X0236497Y0108551D01*
X0235152Y0108013D01*
X0233793Y0107508D01*
X0232422Y0107037D01*
X0231041Y0106599D01*
X0229649Y0106195D01*
X0228247Y0105826D01*
X0226837Y0105491D01*
X0225419Y0105191D01*
X0223994Y0104925D01*
X0222563Y0104695D01*
X0221127Y0104500D01*
X0219686Y0104340D01*
X0218242Y0104216D01*
X0216796Y0104127D01*
X0215347Y0104074D01*
X0213898Y0104056D01*
X0212449Y0104074D01*
X0211000Y0104127D01*
X0209554Y0104216D01*
X0208110Y0104340D01*
X0206669Y0104500D01*
X0205233Y0104695D01*
X0203802Y0104925D01*
X0202377Y0105191D01*
X0200959Y0105491D01*
X0199549Y0105826D01*
X0198147Y0106195D01*
X0196755Y0106599D01*
X0195374Y0107037D01*
X0194003Y0107508D01*
X0192644Y0108013D01*
X0191299Y0108551D01*
X0189966Y0109122D01*
X0188649Y0109726D01*
X0187346Y0110362D01*
X0186060Y0111029D01*
X0184790Y0111728D01*
X0183538Y0112458D01*
X0182304Y0113218D01*
X0181089Y0114009D01*
X0179894Y0114829D01*
X0178719Y0115678D01*
X0177565Y0116555D01*
X0176434Y0117461D01*
X0175325Y0118394D01*
X0174239Y0119354D01*
X0173177Y0120341D01*
X0172140Y0121353D01*
X0171128Y0122390D01*
X0170141Y0123452D01*
X0169181Y0124538D01*
X0168248Y0125647D01*
X0167342Y0126778D01*
X0166465Y0127932D01*
X0165616Y0129107D01*
X0164796Y0130302D01*
X0164005Y0131517D01*
X0163245Y0132751D01*
X0162515Y0134003D01*
X0161816Y0135273D01*
X0161149Y0136559D01*
X0160513Y0137862D01*
X0159909Y0139179D01*
X0159338Y0140512D01*
X0158800Y0141857D01*
X0158295Y0143216D01*
X0157824Y0144587D01*
X0157386Y0145968D01*
X0156982Y0147360D01*
X0156613Y0148762D01*
X0156278Y0150172D01*
X0155978Y0151590D01*
X0155712Y0153015D01*
X0155482Y0154446D01*
X0155287Y0155882D01*
X0155127Y0157323D01*
X0155003Y0158767D01*
X0154914Y0160213D01*
X0154861Y0161662D01*
X0154843Y0163111D01*
X0058386Y0163111D02*
X0058433Y0166927D01*
X0058573Y0170742D01*
X0058807Y0174551D01*
X0059135Y0178354D01*
X0059556Y0182147D01*
X0060069Y0185929D01*
X0060676Y0189698D01*
X0061374Y0193450D01*
X0062165Y0197184D01*
X0063046Y0200897D01*
X0064019Y0204588D01*
X0065082Y0208254D01*
X0066235Y0211892D01*
X0067477Y0215501D01*
X0068806Y0219079D01*
X0070224Y0222623D01*
X0071727Y0226131D01*
X0073317Y0229601D01*
X0074991Y0233031D01*
X0076749Y0236419D01*
X0078589Y0239763D01*
X0080511Y0243060D01*
X0082513Y0246310D01*
X0084594Y0249509D01*
X0086754Y0252656D01*
X0088990Y0255749D01*
X0091301Y0258787D01*
X0093686Y0261767D01*
X0096143Y0264687D01*
X0098671Y0267546D01*
X0101269Y0270343D01*
X0103934Y0273075D01*
X0106666Y0275740D01*
X0109463Y0278338D01*
X0112322Y0280866D01*
X0115242Y0283323D01*
X0118222Y0285708D01*
X0121260Y0288019D01*
X0124353Y0290255D01*
X0127500Y0292415D01*
X0130699Y0294496D01*
X0133949Y0296498D01*
X0137246Y0298420D01*
X0140590Y0300260D01*
X0143978Y0302018D01*
X0147408Y0303692D01*
X0150878Y0305282D01*
X0154386Y0306785D01*
X0157930Y0308203D01*
X0161508Y0309532D01*
X0165117Y0310774D01*
X0168755Y0311927D01*
X0172421Y0312990D01*
X0176112Y0313963D01*
X0179825Y0314844D01*
X0183559Y0315635D01*
X0187311Y0316333D01*
X0191080Y0316940D01*
X0194862Y0317453D01*
X0198655Y0317874D01*
X0202458Y0318202D01*
X0206267Y0318436D01*
X0210082Y0318576D01*
X0213898Y0318623D01*
X0217714Y0318576D01*
X0221529Y0318436D01*
X0225338Y0318202D01*
X0229141Y0317874D01*
X0232934Y0317453D01*
X0236716Y0316940D01*
X0240485Y0316333D01*
X0244237Y0315635D01*
X0247971Y0314844D01*
X0251684Y0313963D01*
X0255375Y0312990D01*
X0259041Y0311927D01*
X0262679Y0310774D01*
X0266288Y0309532D01*
X0269866Y0308203D01*
X0273410Y0306785D01*
X0276918Y0305282D01*
X0280388Y0303692D01*
X0283818Y0302018D01*
X0287206Y0300260D01*
X0290550Y0298420D01*
X0293847Y0296498D01*
X0297097Y0294496D01*
X0300296Y0292415D01*
X0303443Y0290255D01*
X0306536Y0288019D01*
X0309574Y0285708D01*
X0312554Y0283323D01*
X0315474Y0280866D01*
X0318333Y0278338D01*
X0321130Y0275740D01*
X0323862Y0273075D01*
X0326527Y0270343D01*
X0329125Y0267546D01*
X0331653Y0264687D01*
X0334110Y0261767D01*
X0336495Y0258787D01*
X0338806Y0255749D01*
X0341042Y0252656D01*
X0343202Y0249509D01*
X0345283Y0246310D01*
X0347285Y0243060D01*
X0349207Y0239763D01*
X0351047Y0236419D01*
X0352805Y0233031D01*
X0354479Y0229601D01*
X0356069Y0226131D01*
X0357572Y0222623D01*
X0358990Y0219079D01*
X0360319Y0215501D01*
X0361561Y0211892D01*
X0362714Y0208254D01*
X0363777Y0204588D01*
X0364750Y0200897D01*
X0365631Y0197184D01*
X0366422Y0193450D01*
X0367120Y0189698D01*
X0367727Y0185929D01*
X0368240Y0182147D01*
X0368661Y0178354D01*
X0368989Y0174551D01*
X0369223Y0170742D01*
X0369363Y0166927D01*
X0369410Y0163111D01*
X0369363Y0159295D01*
X0369223Y0155480D01*
X0368989Y0151671D01*
X0368661Y0147868D01*
X0368240Y0144075D01*
X0367727Y0140293D01*
X0367120Y0136524D01*
X0366422Y0132772D01*
X0365631Y0129038D01*
X0364750Y0125325D01*
X0363777Y0121634D01*
X0362714Y0117968D01*
X0361561Y0114330D01*
X0360319Y0110721D01*
X0358990Y0107143D01*
X0357572Y0103599D01*
X0356069Y0100091D01*
X0354479Y0096621D01*
X0352805Y0093191D01*
X0351047Y0089803D01*
X0349207Y0086459D01*
X0347285Y0083162D01*
X0345283Y0079912D01*
X0343202Y0076713D01*
X0341042Y0073566D01*
X0338806Y0070473D01*
X0336495Y0067435D01*
X0334110Y0064455D01*
X0331653Y0061535D01*
X0329125Y0058676D01*
X0326527Y0055879D01*
X0323862Y0053147D01*
X0321130Y0050482D01*
X0318333Y0047884D01*
X0315474Y0045356D01*
X0312554Y0042899D01*
X0309574Y0040514D01*
X0306536Y0038203D01*
X0303443Y0035967D01*
X0300296Y0033807D01*
X0297097Y0031726D01*
X0293847Y0029724D01*
X0290550Y0027802D01*
X0287206Y0025962D01*
X0283818Y0024204D01*
X0280388Y0022530D01*
X0276918Y0020940D01*
X0273410Y0019437D01*
X0269866Y0018019D01*
X0266288Y0016690D01*
X0262679Y0015448D01*
X0259041Y0014295D01*
X0255375Y0013232D01*
X0251684Y0012259D01*
X0247971Y0011378D01*
X0244237Y0010587D01*
X0240485Y0009889D01*
X0236716Y0009282D01*
X0232934Y0008769D01*
X0229141Y0008348D01*
X0225338Y0008020D01*
X0221529Y0007786D01*
X0217714Y0007646D01*
X0213898Y0007599D01*
X0210082Y0007646D01*
X0206267Y0007786D01*
X0202458Y0008020D01*
X0198655Y0008348D01*
X0194862Y0008769D01*
X0191080Y0009282D01*
X0187311Y0009889D01*
X0183559Y0010587D01*
X0179825Y0011378D01*
X0176112Y0012259D01*
X0172421Y0013232D01*
X0168755Y0014295D01*
X0165117Y0015448D01*
X0161508Y0016690D01*
X0157930Y0018019D01*
X0154386Y0019437D01*
X0150878Y0020940D01*
X0147408Y0022530D01*
X0143978Y0024204D01*
X0140590Y0025962D01*
X0137246Y0027802D01*
X0133949Y0029724D01*
X0130699Y0031726D01*
X0127500Y0033807D01*
X0124353Y0035967D01*
X0121260Y0038203D01*
X0118222Y0040514D01*
X0115242Y0042899D01*
X0112322Y0045356D01*
X0109463Y0047884D01*
X0106666Y0050482D01*
X0103934Y0053147D01*
X0101269Y0055879D01*
X0098671Y0058676D01*
X0096143Y0061535D01*
X0093686Y0064455D01*
X0091301Y0067435D01*
X0088990Y0070473D01*
X0086754Y0073566D01*
X0084594Y0076713D01*
X0082513Y0079912D01*
X0080511Y0083162D01*
X0078589Y0086459D01*
X0076749Y0089803D01*
X0074991Y0093191D01*
X0073317Y0096621D01*
X0071727Y0100091D01*
X0070224Y0103599D01*
X0068806Y0107143D01*
X0067477Y0110721D01*
X0066235Y0114330D01*
X0065082Y0117968D01*
X0064019Y0121634D01*
X0063046Y0125325D01*
X0062165Y0129038D01*
X0061374Y0132772D01*
X0060676Y0136524D01*
X0060069Y0140293D01*
X0059556Y0144075D01*
X0059135Y0147868D01*
X0058807Y0151671D01*
X0058573Y0155480D01*
X0058433Y0159295D01*
X0058386Y0163111D01*
D11*
X0102874Y0264292D02*
X0102876Y0264404D01*
X0102882Y0264515D01*
X0102892Y0264627D01*
X0102906Y0264738D01*
X0102923Y0264848D01*
X0102945Y0264958D01*
X0102971Y0265067D01*
X0103000Y0265175D01*
X0103033Y0265281D01*
X0103070Y0265387D01*
X0103111Y0265491D01*
X0103156Y0265594D01*
X0103204Y0265695D01*
X0103255Y0265794D01*
X0103310Y0265891D01*
X0103369Y0265986D01*
X0103430Y0266080D01*
X0103495Y0266171D01*
X0103564Y0266259D01*
X0103635Y0266345D01*
X0103709Y0266429D01*
X0103787Y0266509D01*
X0103867Y0266587D01*
X0103950Y0266663D01*
X0104035Y0266735D01*
X0104123Y0266804D01*
X0104213Y0266870D01*
X0104306Y0266932D01*
X0104401Y0266992D01*
X0104498Y0267048D01*
X0104596Y0267100D01*
X0104697Y0267149D01*
X0104799Y0267194D01*
X0104903Y0267236D01*
X0105008Y0267274D01*
X0105115Y0267308D01*
X0105222Y0267338D01*
X0105331Y0267365D01*
X0105440Y0267387D01*
X0105551Y0267406D01*
X0105661Y0267421D01*
X0105773Y0267432D01*
X0105884Y0267439D01*
X0105996Y0267442D01*
X0106108Y0267441D01*
X0106220Y0267436D01*
X0106331Y0267427D01*
X0106442Y0267414D01*
X0106553Y0267397D01*
X0106663Y0267377D01*
X0106772Y0267352D01*
X0106880Y0267324D01*
X0106987Y0267291D01*
X0107093Y0267255D01*
X0107197Y0267215D01*
X0107300Y0267172D01*
X0107402Y0267125D01*
X0107501Y0267074D01*
X0107599Y0267020D01*
X0107695Y0266962D01*
X0107789Y0266901D01*
X0107880Y0266837D01*
X0107969Y0266770D01*
X0108056Y0266699D01*
X0108140Y0266625D01*
X0108222Y0266549D01*
X0108300Y0266469D01*
X0108376Y0266387D01*
X0108449Y0266302D01*
X0108519Y0266215D01*
X0108585Y0266125D01*
X0108649Y0266033D01*
X0108709Y0265939D01*
X0108766Y0265843D01*
X0108819Y0265744D01*
X0108869Y0265644D01*
X0108915Y0265543D01*
X0108958Y0265439D01*
X0108997Y0265334D01*
X0109032Y0265228D01*
X0109063Y0265121D01*
X0109091Y0265012D01*
X0109114Y0264903D01*
X0109134Y0264793D01*
X0109150Y0264682D01*
X0109162Y0264571D01*
X0109170Y0264460D01*
X0109174Y0264348D01*
X0109174Y0264236D01*
X0109170Y0264124D01*
X0109162Y0264013D01*
X0109150Y0263902D01*
X0109134Y0263791D01*
X0109114Y0263681D01*
X0109091Y0263572D01*
X0109063Y0263463D01*
X0109032Y0263356D01*
X0108997Y0263250D01*
X0108958Y0263145D01*
X0108915Y0263041D01*
X0108869Y0262940D01*
X0108819Y0262840D01*
X0108766Y0262741D01*
X0108709Y0262645D01*
X0108649Y0262551D01*
X0108585Y0262459D01*
X0108519Y0262369D01*
X0108449Y0262282D01*
X0108376Y0262197D01*
X0108300Y0262115D01*
X0108222Y0262035D01*
X0108140Y0261959D01*
X0108056Y0261885D01*
X0107969Y0261814D01*
X0107880Y0261747D01*
X0107789Y0261683D01*
X0107695Y0261622D01*
X0107599Y0261564D01*
X0107501Y0261510D01*
X0107402Y0261459D01*
X0107300Y0261412D01*
X0107197Y0261369D01*
X0107093Y0261329D01*
X0106987Y0261293D01*
X0106880Y0261260D01*
X0106772Y0261232D01*
X0106663Y0261207D01*
X0106553Y0261187D01*
X0106442Y0261170D01*
X0106331Y0261157D01*
X0106220Y0261148D01*
X0106108Y0261143D01*
X0105996Y0261142D01*
X0105884Y0261145D01*
X0105773Y0261152D01*
X0105661Y0261163D01*
X0105551Y0261178D01*
X0105440Y0261197D01*
X0105331Y0261219D01*
X0105222Y0261246D01*
X0105115Y0261276D01*
X0105008Y0261310D01*
X0104903Y0261348D01*
X0104799Y0261390D01*
X0104697Y0261435D01*
X0104596Y0261484D01*
X0104498Y0261536D01*
X0104401Y0261592D01*
X0104306Y0261652D01*
X0104213Y0261714D01*
X0104123Y0261780D01*
X0104035Y0261849D01*
X0103950Y0261921D01*
X0103867Y0261997D01*
X0103787Y0262075D01*
X0103709Y0262155D01*
X0103635Y0262239D01*
X0103564Y0262325D01*
X0103495Y0262413D01*
X0103430Y0262504D01*
X0103369Y0262598D01*
X0103310Y0262693D01*
X0103255Y0262790D01*
X0103204Y0262889D01*
X0103156Y0262990D01*
X0103111Y0263093D01*
X0103070Y0263197D01*
X0103033Y0263303D01*
X0103000Y0263409D01*
X0102971Y0263517D01*
X0102945Y0263626D01*
X0102923Y0263736D01*
X0102906Y0263846D01*
X0102892Y0263957D01*
X0102882Y0264069D01*
X0102876Y0264180D01*
X0102874Y0264292D01*
X0162323Y0302875D02*
X0162325Y0302987D01*
X0162331Y0303098D01*
X0162341Y0303210D01*
X0162355Y0303321D01*
X0162372Y0303431D01*
X0162394Y0303541D01*
X0162420Y0303650D01*
X0162449Y0303758D01*
X0162482Y0303864D01*
X0162519Y0303970D01*
X0162560Y0304074D01*
X0162605Y0304177D01*
X0162653Y0304278D01*
X0162704Y0304377D01*
X0162759Y0304474D01*
X0162818Y0304569D01*
X0162879Y0304663D01*
X0162944Y0304754D01*
X0163013Y0304842D01*
X0163084Y0304928D01*
X0163158Y0305012D01*
X0163236Y0305092D01*
X0163316Y0305170D01*
X0163399Y0305246D01*
X0163484Y0305318D01*
X0163572Y0305387D01*
X0163662Y0305453D01*
X0163755Y0305515D01*
X0163850Y0305575D01*
X0163947Y0305631D01*
X0164045Y0305683D01*
X0164146Y0305732D01*
X0164248Y0305777D01*
X0164352Y0305819D01*
X0164457Y0305857D01*
X0164564Y0305891D01*
X0164671Y0305921D01*
X0164780Y0305948D01*
X0164889Y0305970D01*
X0165000Y0305989D01*
X0165110Y0306004D01*
X0165222Y0306015D01*
X0165333Y0306022D01*
X0165445Y0306025D01*
X0165557Y0306024D01*
X0165669Y0306019D01*
X0165780Y0306010D01*
X0165891Y0305997D01*
X0166002Y0305980D01*
X0166112Y0305960D01*
X0166221Y0305935D01*
X0166329Y0305907D01*
X0166436Y0305874D01*
X0166542Y0305838D01*
X0166646Y0305798D01*
X0166749Y0305755D01*
X0166851Y0305708D01*
X0166950Y0305657D01*
X0167048Y0305603D01*
X0167144Y0305545D01*
X0167238Y0305484D01*
X0167329Y0305420D01*
X0167418Y0305353D01*
X0167505Y0305282D01*
X0167589Y0305208D01*
X0167671Y0305132D01*
X0167749Y0305052D01*
X0167825Y0304970D01*
X0167898Y0304885D01*
X0167968Y0304798D01*
X0168034Y0304708D01*
X0168098Y0304616D01*
X0168158Y0304522D01*
X0168215Y0304426D01*
X0168268Y0304327D01*
X0168318Y0304227D01*
X0168364Y0304126D01*
X0168407Y0304022D01*
X0168446Y0303917D01*
X0168481Y0303811D01*
X0168512Y0303704D01*
X0168540Y0303595D01*
X0168563Y0303486D01*
X0168583Y0303376D01*
X0168599Y0303265D01*
X0168611Y0303154D01*
X0168619Y0303043D01*
X0168623Y0302931D01*
X0168623Y0302819D01*
X0168619Y0302707D01*
X0168611Y0302596D01*
X0168599Y0302485D01*
X0168583Y0302374D01*
X0168563Y0302264D01*
X0168540Y0302155D01*
X0168512Y0302046D01*
X0168481Y0301939D01*
X0168446Y0301833D01*
X0168407Y0301728D01*
X0168364Y0301624D01*
X0168318Y0301523D01*
X0168268Y0301423D01*
X0168215Y0301324D01*
X0168158Y0301228D01*
X0168098Y0301134D01*
X0168034Y0301042D01*
X0167968Y0300952D01*
X0167898Y0300865D01*
X0167825Y0300780D01*
X0167749Y0300698D01*
X0167671Y0300618D01*
X0167589Y0300542D01*
X0167505Y0300468D01*
X0167418Y0300397D01*
X0167329Y0300330D01*
X0167238Y0300266D01*
X0167144Y0300205D01*
X0167048Y0300147D01*
X0166950Y0300093D01*
X0166851Y0300042D01*
X0166749Y0299995D01*
X0166646Y0299952D01*
X0166542Y0299912D01*
X0166436Y0299876D01*
X0166329Y0299843D01*
X0166221Y0299815D01*
X0166112Y0299790D01*
X0166002Y0299770D01*
X0165891Y0299753D01*
X0165780Y0299740D01*
X0165669Y0299731D01*
X0165557Y0299726D01*
X0165445Y0299725D01*
X0165333Y0299728D01*
X0165222Y0299735D01*
X0165110Y0299746D01*
X0165000Y0299761D01*
X0164889Y0299780D01*
X0164780Y0299802D01*
X0164671Y0299829D01*
X0164564Y0299859D01*
X0164457Y0299893D01*
X0164352Y0299931D01*
X0164248Y0299973D01*
X0164146Y0300018D01*
X0164045Y0300067D01*
X0163947Y0300119D01*
X0163850Y0300175D01*
X0163755Y0300235D01*
X0163662Y0300297D01*
X0163572Y0300363D01*
X0163484Y0300432D01*
X0163399Y0300504D01*
X0163316Y0300580D01*
X0163236Y0300658D01*
X0163158Y0300738D01*
X0163084Y0300822D01*
X0163013Y0300908D01*
X0162944Y0300996D01*
X0162879Y0301087D01*
X0162818Y0301181D01*
X0162759Y0301276D01*
X0162704Y0301373D01*
X0162653Y0301472D01*
X0162605Y0301573D01*
X0162560Y0301676D01*
X0162519Y0301780D01*
X0162482Y0301886D01*
X0162449Y0301992D01*
X0162420Y0302100D01*
X0162394Y0302209D01*
X0162372Y0302319D01*
X0162355Y0302429D01*
X0162341Y0302540D01*
X0162331Y0302652D01*
X0162325Y0302763D01*
X0162323Y0302875D01*
X0201300Y0310749D02*
X0201302Y0310861D01*
X0201308Y0310972D01*
X0201318Y0311084D01*
X0201332Y0311195D01*
X0201349Y0311305D01*
X0201371Y0311415D01*
X0201397Y0311524D01*
X0201426Y0311632D01*
X0201459Y0311738D01*
X0201496Y0311844D01*
X0201537Y0311948D01*
X0201582Y0312051D01*
X0201630Y0312152D01*
X0201681Y0312251D01*
X0201736Y0312348D01*
X0201795Y0312443D01*
X0201856Y0312537D01*
X0201921Y0312628D01*
X0201990Y0312716D01*
X0202061Y0312802D01*
X0202135Y0312886D01*
X0202213Y0312966D01*
X0202293Y0313044D01*
X0202376Y0313120D01*
X0202461Y0313192D01*
X0202549Y0313261D01*
X0202639Y0313327D01*
X0202732Y0313389D01*
X0202827Y0313449D01*
X0202924Y0313505D01*
X0203022Y0313557D01*
X0203123Y0313606D01*
X0203225Y0313651D01*
X0203329Y0313693D01*
X0203434Y0313731D01*
X0203541Y0313765D01*
X0203648Y0313795D01*
X0203757Y0313822D01*
X0203866Y0313844D01*
X0203977Y0313863D01*
X0204087Y0313878D01*
X0204199Y0313889D01*
X0204310Y0313896D01*
X0204422Y0313899D01*
X0204534Y0313898D01*
X0204646Y0313893D01*
X0204757Y0313884D01*
X0204868Y0313871D01*
X0204979Y0313854D01*
X0205089Y0313834D01*
X0205198Y0313809D01*
X0205306Y0313781D01*
X0205413Y0313748D01*
X0205519Y0313712D01*
X0205623Y0313672D01*
X0205726Y0313629D01*
X0205828Y0313582D01*
X0205927Y0313531D01*
X0206025Y0313477D01*
X0206121Y0313419D01*
X0206215Y0313358D01*
X0206306Y0313294D01*
X0206395Y0313227D01*
X0206482Y0313156D01*
X0206566Y0313082D01*
X0206648Y0313006D01*
X0206726Y0312926D01*
X0206802Y0312844D01*
X0206875Y0312759D01*
X0206945Y0312672D01*
X0207011Y0312582D01*
X0207075Y0312490D01*
X0207135Y0312396D01*
X0207192Y0312300D01*
X0207245Y0312201D01*
X0207295Y0312101D01*
X0207341Y0312000D01*
X0207384Y0311896D01*
X0207423Y0311791D01*
X0207458Y0311685D01*
X0207489Y0311578D01*
X0207517Y0311469D01*
X0207540Y0311360D01*
X0207560Y0311250D01*
X0207576Y0311139D01*
X0207588Y0311028D01*
X0207596Y0310917D01*
X0207600Y0310805D01*
X0207600Y0310693D01*
X0207596Y0310581D01*
X0207588Y0310470D01*
X0207576Y0310359D01*
X0207560Y0310248D01*
X0207540Y0310138D01*
X0207517Y0310029D01*
X0207489Y0309920D01*
X0207458Y0309813D01*
X0207423Y0309707D01*
X0207384Y0309602D01*
X0207341Y0309498D01*
X0207295Y0309397D01*
X0207245Y0309297D01*
X0207192Y0309198D01*
X0207135Y0309102D01*
X0207075Y0309008D01*
X0207011Y0308916D01*
X0206945Y0308826D01*
X0206875Y0308739D01*
X0206802Y0308654D01*
X0206726Y0308572D01*
X0206648Y0308492D01*
X0206566Y0308416D01*
X0206482Y0308342D01*
X0206395Y0308271D01*
X0206306Y0308204D01*
X0206215Y0308140D01*
X0206121Y0308079D01*
X0206025Y0308021D01*
X0205927Y0307967D01*
X0205828Y0307916D01*
X0205726Y0307869D01*
X0205623Y0307826D01*
X0205519Y0307786D01*
X0205413Y0307750D01*
X0205306Y0307717D01*
X0205198Y0307689D01*
X0205089Y0307664D01*
X0204979Y0307644D01*
X0204868Y0307627D01*
X0204757Y0307614D01*
X0204646Y0307605D01*
X0204534Y0307600D01*
X0204422Y0307599D01*
X0204310Y0307602D01*
X0204199Y0307609D01*
X0204087Y0307620D01*
X0203977Y0307635D01*
X0203866Y0307654D01*
X0203757Y0307676D01*
X0203648Y0307703D01*
X0203541Y0307733D01*
X0203434Y0307767D01*
X0203329Y0307805D01*
X0203225Y0307847D01*
X0203123Y0307892D01*
X0203022Y0307941D01*
X0202924Y0307993D01*
X0202827Y0308049D01*
X0202732Y0308109D01*
X0202639Y0308171D01*
X0202549Y0308237D01*
X0202461Y0308306D01*
X0202376Y0308378D01*
X0202293Y0308454D01*
X0202213Y0308532D01*
X0202135Y0308612D01*
X0202061Y0308696D01*
X0201990Y0308782D01*
X0201921Y0308870D01*
X0201856Y0308961D01*
X0201795Y0309055D01*
X0201736Y0309150D01*
X0201681Y0309247D01*
X0201630Y0309346D01*
X0201582Y0309447D01*
X0201537Y0309550D01*
X0201496Y0309654D01*
X0201459Y0309760D01*
X0201426Y0309866D01*
X0201397Y0309974D01*
X0201371Y0310083D01*
X0201349Y0310193D01*
X0201332Y0310303D01*
X0201318Y0310414D01*
X0201308Y0310526D01*
X0201302Y0310637D01*
X0201300Y0310749D01*
X0270197Y0298938D02*
X0270199Y0299050D01*
X0270205Y0299161D01*
X0270215Y0299273D01*
X0270229Y0299384D01*
X0270246Y0299494D01*
X0270268Y0299604D01*
X0270294Y0299713D01*
X0270323Y0299821D01*
X0270356Y0299927D01*
X0270393Y0300033D01*
X0270434Y0300137D01*
X0270479Y0300240D01*
X0270527Y0300341D01*
X0270578Y0300440D01*
X0270633Y0300537D01*
X0270692Y0300632D01*
X0270753Y0300726D01*
X0270818Y0300817D01*
X0270887Y0300905D01*
X0270958Y0300991D01*
X0271032Y0301075D01*
X0271110Y0301155D01*
X0271190Y0301233D01*
X0271273Y0301309D01*
X0271358Y0301381D01*
X0271446Y0301450D01*
X0271536Y0301516D01*
X0271629Y0301578D01*
X0271724Y0301638D01*
X0271821Y0301694D01*
X0271919Y0301746D01*
X0272020Y0301795D01*
X0272122Y0301840D01*
X0272226Y0301882D01*
X0272331Y0301920D01*
X0272438Y0301954D01*
X0272545Y0301984D01*
X0272654Y0302011D01*
X0272763Y0302033D01*
X0272874Y0302052D01*
X0272984Y0302067D01*
X0273096Y0302078D01*
X0273207Y0302085D01*
X0273319Y0302088D01*
X0273431Y0302087D01*
X0273543Y0302082D01*
X0273654Y0302073D01*
X0273765Y0302060D01*
X0273876Y0302043D01*
X0273986Y0302023D01*
X0274095Y0301998D01*
X0274203Y0301970D01*
X0274310Y0301937D01*
X0274416Y0301901D01*
X0274520Y0301861D01*
X0274623Y0301818D01*
X0274725Y0301771D01*
X0274824Y0301720D01*
X0274922Y0301666D01*
X0275018Y0301608D01*
X0275112Y0301547D01*
X0275203Y0301483D01*
X0275292Y0301416D01*
X0275379Y0301345D01*
X0275463Y0301271D01*
X0275545Y0301195D01*
X0275623Y0301115D01*
X0275699Y0301033D01*
X0275772Y0300948D01*
X0275842Y0300861D01*
X0275908Y0300771D01*
X0275972Y0300679D01*
X0276032Y0300585D01*
X0276089Y0300489D01*
X0276142Y0300390D01*
X0276192Y0300290D01*
X0276238Y0300189D01*
X0276281Y0300085D01*
X0276320Y0299980D01*
X0276355Y0299874D01*
X0276386Y0299767D01*
X0276414Y0299658D01*
X0276437Y0299549D01*
X0276457Y0299439D01*
X0276473Y0299328D01*
X0276485Y0299217D01*
X0276493Y0299106D01*
X0276497Y0298994D01*
X0276497Y0298882D01*
X0276493Y0298770D01*
X0276485Y0298659D01*
X0276473Y0298548D01*
X0276457Y0298437D01*
X0276437Y0298327D01*
X0276414Y0298218D01*
X0276386Y0298109D01*
X0276355Y0298002D01*
X0276320Y0297896D01*
X0276281Y0297791D01*
X0276238Y0297687D01*
X0276192Y0297586D01*
X0276142Y0297486D01*
X0276089Y0297387D01*
X0276032Y0297291D01*
X0275972Y0297197D01*
X0275908Y0297105D01*
X0275842Y0297015D01*
X0275772Y0296928D01*
X0275699Y0296843D01*
X0275623Y0296761D01*
X0275545Y0296681D01*
X0275463Y0296605D01*
X0275379Y0296531D01*
X0275292Y0296460D01*
X0275203Y0296393D01*
X0275112Y0296329D01*
X0275018Y0296268D01*
X0274922Y0296210D01*
X0274824Y0296156D01*
X0274725Y0296105D01*
X0274623Y0296058D01*
X0274520Y0296015D01*
X0274416Y0295975D01*
X0274310Y0295939D01*
X0274203Y0295906D01*
X0274095Y0295878D01*
X0273986Y0295853D01*
X0273876Y0295833D01*
X0273765Y0295816D01*
X0273654Y0295803D01*
X0273543Y0295794D01*
X0273431Y0295789D01*
X0273319Y0295788D01*
X0273207Y0295791D01*
X0273096Y0295798D01*
X0272984Y0295809D01*
X0272874Y0295824D01*
X0272763Y0295843D01*
X0272654Y0295865D01*
X0272545Y0295892D01*
X0272438Y0295922D01*
X0272331Y0295956D01*
X0272226Y0295994D01*
X0272122Y0296036D01*
X0272020Y0296081D01*
X0271919Y0296130D01*
X0271821Y0296182D01*
X0271724Y0296238D01*
X0271629Y0296298D01*
X0271536Y0296360D01*
X0271446Y0296426D01*
X0271358Y0296495D01*
X0271273Y0296567D01*
X0271190Y0296643D01*
X0271110Y0296721D01*
X0271032Y0296801D01*
X0270958Y0296885D01*
X0270887Y0296971D01*
X0270818Y0297059D01*
X0270753Y0297150D01*
X0270692Y0297244D01*
X0270633Y0297339D01*
X0270578Y0297436D01*
X0270527Y0297535D01*
X0270479Y0297636D01*
X0270434Y0297739D01*
X0270393Y0297843D01*
X0270356Y0297949D01*
X0270323Y0298055D01*
X0270294Y0298163D01*
X0270268Y0298272D01*
X0270246Y0298382D01*
X0270229Y0298492D01*
X0270215Y0298603D01*
X0270205Y0298715D01*
X0270199Y0298826D01*
X0270197Y0298938D01*
X0336733Y0241851D02*
X0336735Y0241963D01*
X0336741Y0242074D01*
X0336751Y0242186D01*
X0336765Y0242297D01*
X0336782Y0242407D01*
X0336804Y0242517D01*
X0336830Y0242626D01*
X0336859Y0242734D01*
X0336892Y0242840D01*
X0336929Y0242946D01*
X0336970Y0243050D01*
X0337015Y0243153D01*
X0337063Y0243254D01*
X0337114Y0243353D01*
X0337169Y0243450D01*
X0337228Y0243545D01*
X0337289Y0243639D01*
X0337354Y0243730D01*
X0337423Y0243818D01*
X0337494Y0243904D01*
X0337568Y0243988D01*
X0337646Y0244068D01*
X0337726Y0244146D01*
X0337809Y0244222D01*
X0337894Y0244294D01*
X0337982Y0244363D01*
X0338072Y0244429D01*
X0338165Y0244491D01*
X0338260Y0244551D01*
X0338357Y0244607D01*
X0338455Y0244659D01*
X0338556Y0244708D01*
X0338658Y0244753D01*
X0338762Y0244795D01*
X0338867Y0244833D01*
X0338974Y0244867D01*
X0339081Y0244897D01*
X0339190Y0244924D01*
X0339299Y0244946D01*
X0339410Y0244965D01*
X0339520Y0244980D01*
X0339632Y0244991D01*
X0339743Y0244998D01*
X0339855Y0245001D01*
X0339967Y0245000D01*
X0340079Y0244995D01*
X0340190Y0244986D01*
X0340301Y0244973D01*
X0340412Y0244956D01*
X0340522Y0244936D01*
X0340631Y0244911D01*
X0340739Y0244883D01*
X0340846Y0244850D01*
X0340952Y0244814D01*
X0341056Y0244774D01*
X0341159Y0244731D01*
X0341261Y0244684D01*
X0341360Y0244633D01*
X0341458Y0244579D01*
X0341554Y0244521D01*
X0341648Y0244460D01*
X0341739Y0244396D01*
X0341828Y0244329D01*
X0341915Y0244258D01*
X0341999Y0244184D01*
X0342081Y0244108D01*
X0342159Y0244028D01*
X0342235Y0243946D01*
X0342308Y0243861D01*
X0342378Y0243774D01*
X0342444Y0243684D01*
X0342508Y0243592D01*
X0342568Y0243498D01*
X0342625Y0243402D01*
X0342678Y0243303D01*
X0342728Y0243203D01*
X0342774Y0243102D01*
X0342817Y0242998D01*
X0342856Y0242893D01*
X0342891Y0242787D01*
X0342922Y0242680D01*
X0342950Y0242571D01*
X0342973Y0242462D01*
X0342993Y0242352D01*
X0343009Y0242241D01*
X0343021Y0242130D01*
X0343029Y0242019D01*
X0343033Y0241907D01*
X0343033Y0241795D01*
X0343029Y0241683D01*
X0343021Y0241572D01*
X0343009Y0241461D01*
X0342993Y0241350D01*
X0342973Y0241240D01*
X0342950Y0241131D01*
X0342922Y0241022D01*
X0342891Y0240915D01*
X0342856Y0240809D01*
X0342817Y0240704D01*
X0342774Y0240600D01*
X0342728Y0240499D01*
X0342678Y0240399D01*
X0342625Y0240300D01*
X0342568Y0240204D01*
X0342508Y0240110D01*
X0342444Y0240018D01*
X0342378Y0239928D01*
X0342308Y0239841D01*
X0342235Y0239756D01*
X0342159Y0239674D01*
X0342081Y0239594D01*
X0341999Y0239518D01*
X0341915Y0239444D01*
X0341828Y0239373D01*
X0341739Y0239306D01*
X0341648Y0239242D01*
X0341554Y0239181D01*
X0341458Y0239123D01*
X0341360Y0239069D01*
X0341261Y0239018D01*
X0341159Y0238971D01*
X0341056Y0238928D01*
X0340952Y0238888D01*
X0340846Y0238852D01*
X0340739Y0238819D01*
X0340631Y0238791D01*
X0340522Y0238766D01*
X0340412Y0238746D01*
X0340301Y0238729D01*
X0340190Y0238716D01*
X0340079Y0238707D01*
X0339967Y0238702D01*
X0339855Y0238701D01*
X0339743Y0238704D01*
X0339632Y0238711D01*
X0339520Y0238722D01*
X0339410Y0238737D01*
X0339299Y0238756D01*
X0339190Y0238778D01*
X0339081Y0238805D01*
X0338974Y0238835D01*
X0338867Y0238869D01*
X0338762Y0238907D01*
X0338658Y0238949D01*
X0338556Y0238994D01*
X0338455Y0239043D01*
X0338357Y0239095D01*
X0338260Y0239151D01*
X0338165Y0239211D01*
X0338072Y0239273D01*
X0337982Y0239339D01*
X0337894Y0239408D01*
X0337809Y0239480D01*
X0337726Y0239556D01*
X0337646Y0239634D01*
X0337568Y0239714D01*
X0337494Y0239798D01*
X0337423Y0239884D01*
X0337354Y0239972D01*
X0337289Y0240063D01*
X0337228Y0240157D01*
X0337169Y0240252D01*
X0337114Y0240349D01*
X0337063Y0240448D01*
X0337015Y0240549D01*
X0336970Y0240652D01*
X0336929Y0240756D01*
X0336892Y0240862D01*
X0336859Y0240968D01*
X0336830Y0241076D01*
X0336804Y0241185D01*
X0336782Y0241295D01*
X0336765Y0241405D01*
X0336751Y0241516D01*
X0336741Y0241628D01*
X0336735Y0241739D01*
X0336733Y0241851D01*
X0352481Y0210355D02*
X0352483Y0210467D01*
X0352489Y0210578D01*
X0352499Y0210690D01*
X0352513Y0210801D01*
X0352530Y0210911D01*
X0352552Y0211021D01*
X0352578Y0211130D01*
X0352607Y0211238D01*
X0352640Y0211344D01*
X0352677Y0211450D01*
X0352718Y0211554D01*
X0352763Y0211657D01*
X0352811Y0211758D01*
X0352862Y0211857D01*
X0352917Y0211954D01*
X0352976Y0212049D01*
X0353037Y0212143D01*
X0353102Y0212234D01*
X0353171Y0212322D01*
X0353242Y0212408D01*
X0353316Y0212492D01*
X0353394Y0212572D01*
X0353474Y0212650D01*
X0353557Y0212726D01*
X0353642Y0212798D01*
X0353730Y0212867D01*
X0353820Y0212933D01*
X0353913Y0212995D01*
X0354008Y0213055D01*
X0354105Y0213111D01*
X0354203Y0213163D01*
X0354304Y0213212D01*
X0354406Y0213257D01*
X0354510Y0213299D01*
X0354615Y0213337D01*
X0354722Y0213371D01*
X0354829Y0213401D01*
X0354938Y0213428D01*
X0355047Y0213450D01*
X0355158Y0213469D01*
X0355268Y0213484D01*
X0355380Y0213495D01*
X0355491Y0213502D01*
X0355603Y0213505D01*
X0355715Y0213504D01*
X0355827Y0213499D01*
X0355938Y0213490D01*
X0356049Y0213477D01*
X0356160Y0213460D01*
X0356270Y0213440D01*
X0356379Y0213415D01*
X0356487Y0213387D01*
X0356594Y0213354D01*
X0356700Y0213318D01*
X0356804Y0213278D01*
X0356907Y0213235D01*
X0357009Y0213188D01*
X0357108Y0213137D01*
X0357206Y0213083D01*
X0357302Y0213025D01*
X0357396Y0212964D01*
X0357487Y0212900D01*
X0357576Y0212833D01*
X0357663Y0212762D01*
X0357747Y0212688D01*
X0357829Y0212612D01*
X0357907Y0212532D01*
X0357983Y0212450D01*
X0358056Y0212365D01*
X0358126Y0212278D01*
X0358192Y0212188D01*
X0358256Y0212096D01*
X0358316Y0212002D01*
X0358373Y0211906D01*
X0358426Y0211807D01*
X0358476Y0211707D01*
X0358522Y0211606D01*
X0358565Y0211502D01*
X0358604Y0211397D01*
X0358639Y0211291D01*
X0358670Y0211184D01*
X0358698Y0211075D01*
X0358721Y0210966D01*
X0358741Y0210856D01*
X0358757Y0210745D01*
X0358769Y0210634D01*
X0358777Y0210523D01*
X0358781Y0210411D01*
X0358781Y0210299D01*
X0358777Y0210187D01*
X0358769Y0210076D01*
X0358757Y0209965D01*
X0358741Y0209854D01*
X0358721Y0209744D01*
X0358698Y0209635D01*
X0358670Y0209526D01*
X0358639Y0209419D01*
X0358604Y0209313D01*
X0358565Y0209208D01*
X0358522Y0209104D01*
X0358476Y0209003D01*
X0358426Y0208903D01*
X0358373Y0208804D01*
X0358316Y0208708D01*
X0358256Y0208614D01*
X0358192Y0208522D01*
X0358126Y0208432D01*
X0358056Y0208345D01*
X0357983Y0208260D01*
X0357907Y0208178D01*
X0357829Y0208098D01*
X0357747Y0208022D01*
X0357663Y0207948D01*
X0357576Y0207877D01*
X0357487Y0207810D01*
X0357396Y0207746D01*
X0357302Y0207685D01*
X0357206Y0207627D01*
X0357108Y0207573D01*
X0357009Y0207522D01*
X0356907Y0207475D01*
X0356804Y0207432D01*
X0356700Y0207392D01*
X0356594Y0207356D01*
X0356487Y0207323D01*
X0356379Y0207295D01*
X0356270Y0207270D01*
X0356160Y0207250D01*
X0356049Y0207233D01*
X0355938Y0207220D01*
X0355827Y0207211D01*
X0355715Y0207206D01*
X0355603Y0207205D01*
X0355491Y0207208D01*
X0355380Y0207215D01*
X0355268Y0207226D01*
X0355158Y0207241D01*
X0355047Y0207260D01*
X0354938Y0207282D01*
X0354829Y0207309D01*
X0354722Y0207339D01*
X0354615Y0207373D01*
X0354510Y0207411D01*
X0354406Y0207453D01*
X0354304Y0207498D01*
X0354203Y0207547D01*
X0354105Y0207599D01*
X0354008Y0207655D01*
X0353913Y0207715D01*
X0353820Y0207777D01*
X0353730Y0207843D01*
X0353642Y0207912D01*
X0353557Y0207984D01*
X0353474Y0208060D01*
X0353394Y0208138D01*
X0353316Y0208218D01*
X0353242Y0208302D01*
X0353171Y0208388D01*
X0353102Y0208476D01*
X0353037Y0208567D01*
X0352976Y0208661D01*
X0352917Y0208756D01*
X0352862Y0208853D01*
X0352811Y0208952D01*
X0352763Y0209053D01*
X0352718Y0209156D01*
X0352677Y0209260D01*
X0352640Y0209366D01*
X0352607Y0209472D01*
X0352578Y0209580D01*
X0352552Y0209689D01*
X0352530Y0209799D01*
X0352513Y0209909D01*
X0352499Y0210020D01*
X0352489Y0210132D01*
X0352483Y0210243D01*
X0352481Y0210355D01*
D12*
X0355631Y0210355D03*
X0339883Y0241851D03*
X0273347Y0298938D03*
X0204450Y0310749D03*
X0165473Y0302875D03*
X0106024Y0264292D03*
D13*
X0109669Y0201239D03*
X0114669Y0201239D03*
X0119669Y0201239D03*
X0124669Y0201239D03*
X0135803Y0200776D03*
X0140803Y0200776D03*
X0145803Y0200776D03*
X0150803Y0200776D03*
X0150803Y0181376D03*
X0145803Y0181376D03*
X0140803Y0181376D03*
X0135803Y0181376D03*
X0124669Y0181839D03*
X0119669Y0181839D03*
X0114669Y0181839D03*
X0109669Y0181839D03*
D14*
X0121365Y0165713D03*
X0144094Y0166045D03*
X0144094Y0142423D03*
X0121365Y0142091D03*
X0097236Y0198072D03*
X0097236Y0221694D03*
X0139520Y0211067D03*
X0139520Y0234689D03*
D15*
X0192560Y0241143D03*
X0197678Y0241143D03*
X0195473Y0281103D03*
X0190355Y0281103D03*
X0291379Y0279331D03*
X0296497Y0279331D03*
X0296261Y0211418D03*
X0301379Y0211418D03*
X0301566Y0206773D03*
X0301466Y0202291D03*
X0301566Y0197816D03*
X0296448Y0197816D03*
X0296348Y0202291D03*
X0296448Y0206773D03*
X0159657Y0093782D03*
X0154539Y0093782D03*
X0194793Y0060724D03*
X0199911Y0060724D03*
X0172127Y0033269D03*
X0167009Y0033269D03*
D16*
X0135867Y0061694D03*
X0135867Y0066812D03*
X0122606Y0106040D03*
X0122606Y0111158D03*
X0089607Y0123859D03*
X0089607Y0128977D03*
X0302363Y0267757D03*
X0302363Y0272875D03*
X0304272Y0256367D03*
X0304272Y0251249D03*
X0311129Y0251281D03*
X0311129Y0256399D03*
X0317850Y0256720D03*
X0317850Y0251602D03*
D17*
X0160043Y0225992D03*
X0160043Y0208669D03*
X0116761Y0212425D03*
X0116761Y0229748D03*
D18*
X0160551Y0287977D02*
X0163867Y0287977D01*
X0163867Y0284661D01*
X0160551Y0284661D01*
X0160551Y0287977D01*
X0160551Y0286081D02*
X0163867Y0286081D01*
X0163867Y0287501D02*
X0160551Y0287501D01*
X0160551Y0294882D02*
X0163867Y0294882D01*
X0163867Y0291566D01*
X0160551Y0291566D01*
X0160551Y0294882D01*
X0160551Y0292986D02*
X0163867Y0292986D01*
X0163867Y0294406D02*
X0160551Y0294406D01*
X0167361Y0294882D02*
X0170677Y0294882D01*
X0170677Y0291566D01*
X0167361Y0291566D01*
X0167361Y0294882D01*
X0167361Y0292986D02*
X0170677Y0292986D01*
X0170677Y0294406D02*
X0167361Y0294406D01*
X0167361Y0287977D02*
X0170677Y0287977D01*
X0170677Y0284661D01*
X0167361Y0284661D01*
X0167361Y0287977D01*
X0167361Y0286081D02*
X0170677Y0286081D01*
X0170677Y0287501D02*
X0167361Y0287501D01*
X0292301Y0221816D02*
X0292301Y0218500D01*
X0288985Y0218500D01*
X0288985Y0221816D01*
X0292301Y0221816D01*
X0292301Y0219920D02*
X0288985Y0219920D01*
X0288985Y0221340D02*
X0292301Y0221340D01*
X0299206Y0221816D02*
X0299206Y0218500D01*
X0295890Y0218500D01*
X0295890Y0221816D01*
X0299206Y0221816D01*
X0299206Y0219920D02*
X0295890Y0219920D01*
X0295890Y0221340D02*
X0299206Y0221340D01*
D19*
X0300906Y0170198D03*
X0307993Y0170198D03*
X0320591Y0170198D03*
X0327678Y0170198D03*
X0340276Y0170198D03*
X0347363Y0170198D03*
X0347363Y0156024D03*
X0340276Y0156024D03*
X0327678Y0156024D03*
X0320591Y0156024D03*
X0307993Y0156024D03*
X0300906Y0156024D03*
X0288308Y0156024D03*
X0281221Y0156024D03*
X0281221Y0170198D03*
X0288308Y0170198D03*
D20*
X0281438Y0175501D03*
X0281438Y0179438D03*
X0301044Y0178808D03*
X0301044Y0174871D03*
X0320926Y0175186D03*
X0320926Y0179123D03*
X0340296Y0178650D03*
X0340296Y0174713D03*
X0347225Y0151367D03*
X0347225Y0147430D03*
X0328131Y0147430D03*
X0328131Y0151367D03*
X0307857Y0151658D03*
X0307857Y0147721D03*
X0288523Y0147436D03*
X0288523Y0151373D03*
X0290198Y0211221D03*
X0290198Y0215158D03*
X0284843Y0217717D03*
X0284843Y0221654D03*
X0175749Y0289462D03*
X0175749Y0293399D03*
X0157361Y0293399D03*
X0157361Y0289462D03*
D21*
X0170839Y0085646D03*
X0170839Y0063599D03*
X0213365Y0057606D03*
X0213365Y0035558D03*
D22*
X0294607Y0215670D03*
X0298544Y0215670D03*
X0225591Y0246733D03*
X0221654Y0246733D03*
X0195158Y0272678D03*
X0191221Y0272678D03*
X0191064Y0276891D03*
X0195001Y0276891D03*
D23*
X0127950Y0063880D03*
X0120469Y0063880D03*
X0152484Y0040915D03*
X0159965Y0040915D03*
D24*
X0083354Y0114837D03*
X0083354Y0122317D03*
D25*
X0097240Y0094272D03*
X0119287Y0094272D03*
D26*
X0180663Y0227131D03*
X0180663Y0263746D03*
D27*
X0160282Y0266854D03*
X0123668Y0266854D03*
D28*
X0095281Y0120689D02*
X0095281Y0107587D01*
X0095281Y0120689D02*
X0116651Y0120689D01*
X0116651Y0107587D01*
X0095281Y0107587D01*
X0095281Y0108276D02*
X0116651Y0108276D01*
X0116651Y0108965D02*
X0095281Y0108965D01*
X0095281Y0109654D02*
X0116651Y0109654D01*
X0116651Y0110343D02*
X0095281Y0110343D01*
X0095281Y0111032D02*
X0116651Y0111032D01*
X0116651Y0111721D02*
X0095281Y0111721D01*
X0095281Y0112410D02*
X0116651Y0112410D01*
X0116651Y0113099D02*
X0095281Y0113099D01*
X0095281Y0113788D02*
X0116651Y0113788D01*
X0116651Y0114477D02*
X0095281Y0114477D01*
X0095281Y0115166D02*
X0116651Y0115166D01*
X0116651Y0115855D02*
X0095281Y0115855D01*
X0095281Y0116544D02*
X0116651Y0116544D01*
X0116651Y0117233D02*
X0095281Y0117233D01*
X0095281Y0117922D02*
X0116651Y0117922D01*
X0116651Y0118611D02*
X0095281Y0118611D01*
X0095281Y0119300D02*
X0116651Y0119300D01*
X0116651Y0119989D02*
X0095281Y0119989D01*
X0095281Y0120678D02*
X0116651Y0120678D01*
X0144210Y0067023D02*
X0157312Y0067023D01*
X0144210Y0067023D02*
X0144210Y0088393D01*
X0157312Y0088393D01*
X0157312Y0067023D01*
X0157312Y0067712D02*
X0144210Y0067712D01*
X0144210Y0068401D02*
X0157312Y0068401D01*
X0157312Y0069090D02*
X0144210Y0069090D01*
X0144210Y0069779D02*
X0157312Y0069779D01*
X0157312Y0070468D02*
X0144210Y0070468D01*
X0144210Y0071157D02*
X0157312Y0071157D01*
X0157312Y0071846D02*
X0144210Y0071846D01*
X0144210Y0072535D02*
X0157312Y0072535D01*
X0157312Y0073224D02*
X0144210Y0073224D01*
X0144210Y0073913D02*
X0157312Y0073913D01*
X0157312Y0074602D02*
X0144210Y0074602D01*
X0144210Y0075291D02*
X0157312Y0075291D01*
X0157312Y0075980D02*
X0144210Y0075980D01*
X0144210Y0076669D02*
X0157312Y0076669D01*
X0157312Y0077358D02*
X0144210Y0077358D01*
X0144210Y0078047D02*
X0157312Y0078047D01*
X0157312Y0078736D02*
X0144210Y0078736D01*
X0144210Y0079425D02*
X0157312Y0079425D01*
X0157312Y0080114D02*
X0144210Y0080114D01*
X0144210Y0080803D02*
X0157312Y0080803D01*
X0157312Y0081492D02*
X0144210Y0081492D01*
X0144210Y0082181D02*
X0157312Y0082181D01*
X0157312Y0082870D02*
X0144210Y0082870D01*
X0144210Y0083559D02*
X0157312Y0083559D01*
X0157312Y0084248D02*
X0144210Y0084248D01*
X0144210Y0084937D02*
X0157312Y0084937D01*
X0157312Y0085626D02*
X0144210Y0085626D01*
X0144210Y0086315D02*
X0157312Y0086315D01*
X0157312Y0087004D02*
X0144210Y0087004D01*
X0144210Y0087693D02*
X0157312Y0087693D01*
X0157312Y0088382D02*
X0144210Y0088382D01*
X0185722Y0032832D02*
X0198824Y0032832D01*
X0185722Y0032832D02*
X0185722Y0054202D01*
X0198824Y0054202D01*
X0198824Y0032832D01*
X0198824Y0033521D02*
X0185722Y0033521D01*
X0185722Y0034210D02*
X0198824Y0034210D01*
X0198824Y0034899D02*
X0185722Y0034899D01*
X0185722Y0035588D02*
X0198824Y0035588D01*
X0198824Y0036277D02*
X0185722Y0036277D01*
X0185722Y0036966D02*
X0198824Y0036966D01*
X0198824Y0037655D02*
X0185722Y0037655D01*
X0185722Y0038344D02*
X0198824Y0038344D01*
X0198824Y0039033D02*
X0185722Y0039033D01*
X0185722Y0039722D02*
X0198824Y0039722D01*
X0198824Y0040411D02*
X0185722Y0040411D01*
X0185722Y0041100D02*
X0198824Y0041100D01*
X0198824Y0041789D02*
X0185722Y0041789D01*
X0185722Y0042478D02*
X0198824Y0042478D01*
X0198824Y0043167D02*
X0185722Y0043167D01*
X0185722Y0043856D02*
X0198824Y0043856D01*
X0198824Y0044545D02*
X0185722Y0044545D01*
X0185722Y0045234D02*
X0198824Y0045234D01*
X0198824Y0045923D02*
X0185722Y0045923D01*
X0185722Y0046612D02*
X0198824Y0046612D01*
X0198824Y0047301D02*
X0185722Y0047301D01*
X0185722Y0047990D02*
X0198824Y0047990D01*
X0198824Y0048679D02*
X0185722Y0048679D01*
X0185722Y0049368D02*
X0198824Y0049368D01*
X0198824Y0050057D02*
X0185722Y0050057D01*
X0185722Y0050746D02*
X0198824Y0050746D01*
X0198824Y0051435D02*
X0185722Y0051435D01*
X0185722Y0052124D02*
X0198824Y0052124D01*
X0198824Y0052813D02*
X0185722Y0052813D01*
X0185722Y0053502D02*
X0198824Y0053502D01*
X0198824Y0054191D02*
X0185722Y0054191D01*
D29*
X0184665Y0054118D02*
X0184665Y0052602D01*
X0181377Y0052602D01*
X0181377Y0054118D01*
X0184665Y0054118D01*
X0184665Y0052869D02*
X0181377Y0052869D01*
X0181377Y0053136D02*
X0184665Y0053136D01*
X0184665Y0053403D02*
X0181377Y0053403D01*
X0181377Y0053670D02*
X0184665Y0053670D01*
X0184665Y0053937D02*
X0181377Y0053937D01*
X0184665Y0052149D02*
X0184665Y0050633D01*
X0181377Y0050633D01*
X0181377Y0052149D01*
X0184665Y0052149D01*
X0184665Y0050900D02*
X0181377Y0050900D01*
X0181377Y0051167D02*
X0184665Y0051167D01*
X0184665Y0051434D02*
X0181377Y0051434D01*
X0181377Y0051701D02*
X0184665Y0051701D01*
X0184665Y0051968D02*
X0181377Y0051968D01*
X0184665Y0050181D02*
X0184665Y0048665D01*
X0181377Y0048665D01*
X0181377Y0050181D01*
X0184665Y0050181D01*
X0184665Y0048932D02*
X0181377Y0048932D01*
X0181377Y0049199D02*
X0184665Y0049199D01*
X0184665Y0049466D02*
X0181377Y0049466D01*
X0181377Y0049733D02*
X0184665Y0049733D01*
X0184665Y0050000D02*
X0181377Y0050000D01*
X0184665Y0048212D02*
X0184665Y0046696D01*
X0181377Y0046696D01*
X0181377Y0048212D01*
X0184665Y0048212D01*
X0184665Y0046963D02*
X0181377Y0046963D01*
X0181377Y0047230D02*
X0184665Y0047230D01*
X0184665Y0047497D02*
X0181377Y0047497D01*
X0181377Y0047764D02*
X0184665Y0047764D01*
X0184665Y0048031D02*
X0181377Y0048031D01*
X0184665Y0046244D02*
X0184665Y0044728D01*
X0181377Y0044728D01*
X0181377Y0046244D01*
X0184665Y0046244D01*
X0184665Y0044995D02*
X0181377Y0044995D01*
X0181377Y0045262D02*
X0184665Y0045262D01*
X0184665Y0045529D02*
X0181377Y0045529D01*
X0181377Y0045796D02*
X0184665Y0045796D01*
X0184665Y0046063D02*
X0181377Y0046063D01*
X0184665Y0044275D02*
X0184665Y0042759D01*
X0181377Y0042759D01*
X0181377Y0044275D01*
X0184665Y0044275D01*
X0184665Y0043026D02*
X0181377Y0043026D01*
X0181377Y0043293D02*
X0184665Y0043293D01*
X0184665Y0043560D02*
X0181377Y0043560D01*
X0181377Y0043827D02*
X0184665Y0043827D01*
X0184665Y0044094D02*
X0181377Y0044094D01*
X0184665Y0042307D02*
X0184665Y0040791D01*
X0181377Y0040791D01*
X0181377Y0042307D01*
X0184665Y0042307D01*
X0184665Y0041058D02*
X0181377Y0041058D01*
X0181377Y0041325D02*
X0184665Y0041325D01*
X0184665Y0041592D02*
X0181377Y0041592D01*
X0181377Y0041859D02*
X0184665Y0041859D01*
X0184665Y0042126D02*
X0181377Y0042126D01*
X0184665Y0040338D02*
X0184665Y0038822D01*
X0181377Y0038822D01*
X0181377Y0040338D01*
X0184665Y0040338D01*
X0184665Y0039089D02*
X0181377Y0039089D01*
X0181377Y0039356D02*
X0184665Y0039356D01*
X0184665Y0039623D02*
X0181377Y0039623D01*
X0181377Y0039890D02*
X0184665Y0039890D01*
X0184665Y0040157D02*
X0181377Y0040157D01*
X0184665Y0038370D02*
X0184665Y0036854D01*
X0181377Y0036854D01*
X0181377Y0038370D01*
X0184665Y0038370D01*
X0184665Y0037121D02*
X0181377Y0037121D01*
X0181377Y0037388D02*
X0184665Y0037388D01*
X0184665Y0037655D02*
X0181377Y0037655D01*
X0181377Y0037922D02*
X0184665Y0037922D01*
X0184665Y0038189D02*
X0181377Y0038189D01*
X0184665Y0036401D02*
X0184665Y0034885D01*
X0181377Y0034885D01*
X0181377Y0036401D01*
X0184665Y0036401D01*
X0184665Y0035152D02*
X0181377Y0035152D01*
X0181377Y0035419D02*
X0184665Y0035419D01*
X0184665Y0035686D02*
X0181377Y0035686D01*
X0181377Y0035953D02*
X0184665Y0035953D01*
X0184665Y0036220D02*
X0181377Y0036220D01*
X0184665Y0034433D02*
X0184665Y0032917D01*
X0181377Y0032917D01*
X0181377Y0034433D01*
X0184665Y0034433D01*
X0184665Y0033184D02*
X0181377Y0033184D01*
X0181377Y0033451D02*
X0184665Y0033451D01*
X0184665Y0033718D02*
X0181377Y0033718D01*
X0181377Y0033985D02*
X0184665Y0033985D01*
X0184665Y0034252D02*
X0181377Y0034252D01*
X0203169Y0034433D02*
X0203169Y0032917D01*
X0199881Y0032917D01*
X0199881Y0034433D01*
X0203169Y0034433D01*
X0203169Y0033184D02*
X0199881Y0033184D01*
X0199881Y0033451D02*
X0203169Y0033451D01*
X0203169Y0033718D02*
X0199881Y0033718D01*
X0199881Y0033985D02*
X0203169Y0033985D01*
X0203169Y0034252D02*
X0199881Y0034252D01*
X0203169Y0034885D02*
X0203169Y0036401D01*
X0203169Y0034885D02*
X0199881Y0034885D01*
X0199881Y0036401D01*
X0203169Y0036401D01*
X0203169Y0035152D02*
X0199881Y0035152D01*
X0199881Y0035419D02*
X0203169Y0035419D01*
X0203169Y0035686D02*
X0199881Y0035686D01*
X0199881Y0035953D02*
X0203169Y0035953D01*
X0203169Y0036220D02*
X0199881Y0036220D01*
X0203169Y0036854D02*
X0203169Y0038370D01*
X0203169Y0036854D02*
X0199881Y0036854D01*
X0199881Y0038370D01*
X0203169Y0038370D01*
X0203169Y0037121D02*
X0199881Y0037121D01*
X0199881Y0037388D02*
X0203169Y0037388D01*
X0203169Y0037655D02*
X0199881Y0037655D01*
X0199881Y0037922D02*
X0203169Y0037922D01*
X0203169Y0038189D02*
X0199881Y0038189D01*
X0203169Y0038822D02*
X0203169Y0040338D01*
X0203169Y0038822D02*
X0199881Y0038822D01*
X0199881Y0040338D01*
X0203169Y0040338D01*
X0203169Y0039089D02*
X0199881Y0039089D01*
X0199881Y0039356D02*
X0203169Y0039356D01*
X0203169Y0039623D02*
X0199881Y0039623D01*
X0199881Y0039890D02*
X0203169Y0039890D01*
X0203169Y0040157D02*
X0199881Y0040157D01*
X0203169Y0040791D02*
X0203169Y0042307D01*
X0203169Y0040791D02*
X0199881Y0040791D01*
X0199881Y0042307D01*
X0203169Y0042307D01*
X0203169Y0041058D02*
X0199881Y0041058D01*
X0199881Y0041325D02*
X0203169Y0041325D01*
X0203169Y0041592D02*
X0199881Y0041592D01*
X0199881Y0041859D02*
X0203169Y0041859D01*
X0203169Y0042126D02*
X0199881Y0042126D01*
X0203169Y0042759D02*
X0203169Y0044275D01*
X0203169Y0042759D02*
X0199881Y0042759D01*
X0199881Y0044275D01*
X0203169Y0044275D01*
X0203169Y0043026D02*
X0199881Y0043026D01*
X0199881Y0043293D02*
X0203169Y0043293D01*
X0203169Y0043560D02*
X0199881Y0043560D01*
X0199881Y0043827D02*
X0203169Y0043827D01*
X0203169Y0044094D02*
X0199881Y0044094D01*
X0203169Y0044728D02*
X0203169Y0046244D01*
X0203169Y0044728D02*
X0199881Y0044728D01*
X0199881Y0046244D01*
X0203169Y0046244D01*
X0203169Y0044995D02*
X0199881Y0044995D01*
X0199881Y0045262D02*
X0203169Y0045262D01*
X0203169Y0045529D02*
X0199881Y0045529D01*
X0199881Y0045796D02*
X0203169Y0045796D01*
X0203169Y0046063D02*
X0199881Y0046063D01*
X0203169Y0046696D02*
X0203169Y0048212D01*
X0203169Y0046696D02*
X0199881Y0046696D01*
X0199881Y0048212D01*
X0203169Y0048212D01*
X0203169Y0046963D02*
X0199881Y0046963D01*
X0199881Y0047230D02*
X0203169Y0047230D01*
X0203169Y0047497D02*
X0199881Y0047497D01*
X0199881Y0047764D02*
X0203169Y0047764D01*
X0203169Y0048031D02*
X0199881Y0048031D01*
X0203169Y0048665D02*
X0203169Y0050181D01*
X0203169Y0048665D02*
X0199881Y0048665D01*
X0199881Y0050181D01*
X0203169Y0050181D01*
X0203169Y0048932D02*
X0199881Y0048932D01*
X0199881Y0049199D02*
X0203169Y0049199D01*
X0203169Y0049466D02*
X0199881Y0049466D01*
X0199881Y0049733D02*
X0203169Y0049733D01*
X0203169Y0050000D02*
X0199881Y0050000D01*
X0203169Y0050633D02*
X0203169Y0052149D01*
X0203169Y0050633D02*
X0199881Y0050633D01*
X0199881Y0052149D01*
X0203169Y0052149D01*
X0203169Y0050900D02*
X0199881Y0050900D01*
X0199881Y0051167D02*
X0203169Y0051167D01*
X0203169Y0051434D02*
X0199881Y0051434D01*
X0199881Y0051701D02*
X0203169Y0051701D01*
X0203169Y0051968D02*
X0199881Y0051968D01*
X0203169Y0052602D02*
X0203169Y0054118D01*
X0203169Y0052602D02*
X0199881Y0052602D01*
X0199881Y0054118D01*
X0203169Y0054118D01*
X0203169Y0052869D02*
X0199881Y0052869D01*
X0199881Y0053136D02*
X0203169Y0053136D01*
X0203169Y0053403D02*
X0199881Y0053403D01*
X0199881Y0053670D02*
X0203169Y0053670D01*
X0203169Y0053937D02*
X0199881Y0053937D01*
X0161657Y0067107D02*
X0161657Y0068623D01*
X0161657Y0067107D02*
X0158369Y0067107D01*
X0158369Y0068623D01*
X0161657Y0068623D01*
X0161657Y0067374D02*
X0158369Y0067374D01*
X0158369Y0067641D02*
X0161657Y0067641D01*
X0161657Y0067908D02*
X0158369Y0067908D01*
X0158369Y0068175D02*
X0161657Y0068175D01*
X0161657Y0068442D02*
X0158369Y0068442D01*
X0161657Y0069076D02*
X0161657Y0070592D01*
X0161657Y0069076D02*
X0158369Y0069076D01*
X0158369Y0070592D01*
X0161657Y0070592D01*
X0161657Y0069343D02*
X0158369Y0069343D01*
X0158369Y0069610D02*
X0161657Y0069610D01*
X0161657Y0069877D02*
X0158369Y0069877D01*
X0158369Y0070144D02*
X0161657Y0070144D01*
X0161657Y0070411D02*
X0158369Y0070411D01*
X0161657Y0071044D02*
X0161657Y0072560D01*
X0161657Y0071044D02*
X0158369Y0071044D01*
X0158369Y0072560D01*
X0161657Y0072560D01*
X0161657Y0071311D02*
X0158369Y0071311D01*
X0158369Y0071578D02*
X0161657Y0071578D01*
X0161657Y0071845D02*
X0158369Y0071845D01*
X0158369Y0072112D02*
X0161657Y0072112D01*
X0161657Y0072379D02*
X0158369Y0072379D01*
X0161657Y0073013D02*
X0161657Y0074529D01*
X0161657Y0073013D02*
X0158369Y0073013D01*
X0158369Y0074529D01*
X0161657Y0074529D01*
X0161657Y0073280D02*
X0158369Y0073280D01*
X0158369Y0073547D02*
X0161657Y0073547D01*
X0161657Y0073814D02*
X0158369Y0073814D01*
X0158369Y0074081D02*
X0161657Y0074081D01*
X0161657Y0074348D02*
X0158369Y0074348D01*
X0161657Y0074981D02*
X0161657Y0076497D01*
X0161657Y0074981D02*
X0158369Y0074981D01*
X0158369Y0076497D01*
X0161657Y0076497D01*
X0161657Y0075248D02*
X0158369Y0075248D01*
X0158369Y0075515D02*
X0161657Y0075515D01*
X0161657Y0075782D02*
X0158369Y0075782D01*
X0158369Y0076049D02*
X0161657Y0076049D01*
X0161657Y0076316D02*
X0158369Y0076316D01*
X0161657Y0076950D02*
X0161657Y0078466D01*
X0161657Y0076950D02*
X0158369Y0076950D01*
X0158369Y0078466D01*
X0161657Y0078466D01*
X0161657Y0077217D02*
X0158369Y0077217D01*
X0158369Y0077484D02*
X0161657Y0077484D01*
X0161657Y0077751D02*
X0158369Y0077751D01*
X0158369Y0078018D02*
X0161657Y0078018D01*
X0161657Y0078285D02*
X0158369Y0078285D01*
X0161657Y0078918D02*
X0161657Y0080434D01*
X0161657Y0078918D02*
X0158369Y0078918D01*
X0158369Y0080434D01*
X0161657Y0080434D01*
X0161657Y0079185D02*
X0158369Y0079185D01*
X0158369Y0079452D02*
X0161657Y0079452D01*
X0161657Y0079719D02*
X0158369Y0079719D01*
X0158369Y0079986D02*
X0161657Y0079986D01*
X0161657Y0080253D02*
X0158369Y0080253D01*
X0161657Y0080887D02*
X0161657Y0082403D01*
X0161657Y0080887D02*
X0158369Y0080887D01*
X0158369Y0082403D01*
X0161657Y0082403D01*
X0161657Y0081154D02*
X0158369Y0081154D01*
X0158369Y0081421D02*
X0161657Y0081421D01*
X0161657Y0081688D02*
X0158369Y0081688D01*
X0158369Y0081955D02*
X0161657Y0081955D01*
X0161657Y0082222D02*
X0158369Y0082222D01*
X0161657Y0082855D02*
X0161657Y0084371D01*
X0161657Y0082855D02*
X0158369Y0082855D01*
X0158369Y0084371D01*
X0161657Y0084371D01*
X0161657Y0083122D02*
X0158369Y0083122D01*
X0158369Y0083389D02*
X0161657Y0083389D01*
X0161657Y0083656D02*
X0158369Y0083656D01*
X0158369Y0083923D02*
X0161657Y0083923D01*
X0161657Y0084190D02*
X0158369Y0084190D01*
X0161657Y0084824D02*
X0161657Y0086340D01*
X0161657Y0084824D02*
X0158369Y0084824D01*
X0158369Y0086340D01*
X0161657Y0086340D01*
X0161657Y0085091D02*
X0158369Y0085091D01*
X0158369Y0085358D02*
X0161657Y0085358D01*
X0161657Y0085625D02*
X0158369Y0085625D01*
X0158369Y0085892D02*
X0161657Y0085892D01*
X0161657Y0086159D02*
X0158369Y0086159D01*
X0161657Y0086792D02*
X0161657Y0088308D01*
X0161657Y0086792D02*
X0158369Y0086792D01*
X0158369Y0088308D01*
X0161657Y0088308D01*
X0161657Y0087059D02*
X0158369Y0087059D01*
X0158369Y0087326D02*
X0161657Y0087326D01*
X0161657Y0087593D02*
X0158369Y0087593D01*
X0158369Y0087860D02*
X0161657Y0087860D01*
X0161657Y0088127D02*
X0158369Y0088127D01*
X0143153Y0088308D02*
X0143153Y0086792D01*
X0139865Y0086792D01*
X0139865Y0088308D01*
X0143153Y0088308D01*
X0143153Y0087059D02*
X0139865Y0087059D01*
X0139865Y0087326D02*
X0143153Y0087326D01*
X0143153Y0087593D02*
X0139865Y0087593D01*
X0139865Y0087860D02*
X0143153Y0087860D01*
X0143153Y0088127D02*
X0139865Y0088127D01*
X0143153Y0086340D02*
X0143153Y0084824D01*
X0139865Y0084824D01*
X0139865Y0086340D01*
X0143153Y0086340D01*
X0143153Y0085091D02*
X0139865Y0085091D01*
X0139865Y0085358D02*
X0143153Y0085358D01*
X0143153Y0085625D02*
X0139865Y0085625D01*
X0139865Y0085892D02*
X0143153Y0085892D01*
X0143153Y0086159D02*
X0139865Y0086159D01*
X0143153Y0084371D02*
X0143153Y0082855D01*
X0139865Y0082855D01*
X0139865Y0084371D01*
X0143153Y0084371D01*
X0143153Y0083122D02*
X0139865Y0083122D01*
X0139865Y0083389D02*
X0143153Y0083389D01*
X0143153Y0083656D02*
X0139865Y0083656D01*
X0139865Y0083923D02*
X0143153Y0083923D01*
X0143153Y0084190D02*
X0139865Y0084190D01*
X0143153Y0082403D02*
X0143153Y0080887D01*
X0139865Y0080887D01*
X0139865Y0082403D01*
X0143153Y0082403D01*
X0143153Y0081154D02*
X0139865Y0081154D01*
X0139865Y0081421D02*
X0143153Y0081421D01*
X0143153Y0081688D02*
X0139865Y0081688D01*
X0139865Y0081955D02*
X0143153Y0081955D01*
X0143153Y0082222D02*
X0139865Y0082222D01*
X0143153Y0080434D02*
X0143153Y0078918D01*
X0139865Y0078918D01*
X0139865Y0080434D01*
X0143153Y0080434D01*
X0143153Y0079185D02*
X0139865Y0079185D01*
X0139865Y0079452D02*
X0143153Y0079452D01*
X0143153Y0079719D02*
X0139865Y0079719D01*
X0139865Y0079986D02*
X0143153Y0079986D01*
X0143153Y0080253D02*
X0139865Y0080253D01*
X0143153Y0078466D02*
X0143153Y0076950D01*
X0139865Y0076950D01*
X0139865Y0078466D01*
X0143153Y0078466D01*
X0143153Y0077217D02*
X0139865Y0077217D01*
X0139865Y0077484D02*
X0143153Y0077484D01*
X0143153Y0077751D02*
X0139865Y0077751D01*
X0139865Y0078018D02*
X0143153Y0078018D01*
X0143153Y0078285D02*
X0139865Y0078285D01*
X0143153Y0076497D02*
X0143153Y0074981D01*
X0139865Y0074981D01*
X0139865Y0076497D01*
X0143153Y0076497D01*
X0143153Y0075248D02*
X0139865Y0075248D01*
X0139865Y0075515D02*
X0143153Y0075515D01*
X0143153Y0075782D02*
X0139865Y0075782D01*
X0139865Y0076049D02*
X0143153Y0076049D01*
X0143153Y0076316D02*
X0139865Y0076316D01*
X0143153Y0074529D02*
X0143153Y0073013D01*
X0139865Y0073013D01*
X0139865Y0074529D01*
X0143153Y0074529D01*
X0143153Y0073280D02*
X0139865Y0073280D01*
X0139865Y0073547D02*
X0143153Y0073547D01*
X0143153Y0073814D02*
X0139865Y0073814D01*
X0139865Y0074081D02*
X0143153Y0074081D01*
X0143153Y0074348D02*
X0139865Y0074348D01*
X0143153Y0072560D02*
X0143153Y0071044D01*
X0139865Y0071044D01*
X0139865Y0072560D01*
X0143153Y0072560D01*
X0143153Y0071311D02*
X0139865Y0071311D01*
X0139865Y0071578D02*
X0143153Y0071578D01*
X0143153Y0071845D02*
X0139865Y0071845D01*
X0139865Y0072112D02*
X0143153Y0072112D01*
X0143153Y0072379D02*
X0139865Y0072379D01*
X0143153Y0070592D02*
X0143153Y0069076D01*
X0139865Y0069076D01*
X0139865Y0070592D01*
X0143153Y0070592D01*
X0143153Y0069343D02*
X0139865Y0069343D01*
X0139865Y0069610D02*
X0143153Y0069610D01*
X0143153Y0069877D02*
X0139865Y0069877D01*
X0139865Y0070144D02*
X0143153Y0070144D01*
X0143153Y0070411D02*
X0139865Y0070411D01*
X0143153Y0068623D02*
X0143153Y0067107D01*
X0139865Y0067107D01*
X0139865Y0068623D01*
X0143153Y0068623D01*
X0143153Y0067374D02*
X0139865Y0067374D01*
X0139865Y0067641D02*
X0143153Y0067641D01*
X0143153Y0067908D02*
X0139865Y0067908D01*
X0139865Y0068175D02*
X0143153Y0068175D01*
X0143153Y0068442D02*
X0139865Y0068442D01*
X0116567Y0103242D02*
X0115051Y0103242D01*
X0115051Y0106530D01*
X0116567Y0106530D01*
X0116567Y0103242D01*
X0116567Y0103509D02*
X0115051Y0103509D01*
X0115051Y0103776D02*
X0116567Y0103776D01*
X0116567Y0104043D02*
X0115051Y0104043D01*
X0115051Y0104310D02*
X0116567Y0104310D01*
X0116567Y0104577D02*
X0115051Y0104577D01*
X0115051Y0104844D02*
X0116567Y0104844D01*
X0116567Y0105111D02*
X0115051Y0105111D01*
X0115051Y0105378D02*
X0116567Y0105378D01*
X0116567Y0105645D02*
X0115051Y0105645D01*
X0115051Y0105912D02*
X0116567Y0105912D01*
X0116567Y0106179D02*
X0115051Y0106179D01*
X0115051Y0106446D02*
X0116567Y0106446D01*
X0114598Y0103242D02*
X0113082Y0103242D01*
X0113082Y0106530D01*
X0114598Y0106530D01*
X0114598Y0103242D01*
X0114598Y0103509D02*
X0113082Y0103509D01*
X0113082Y0103776D02*
X0114598Y0103776D01*
X0114598Y0104043D02*
X0113082Y0104043D01*
X0113082Y0104310D02*
X0114598Y0104310D01*
X0114598Y0104577D02*
X0113082Y0104577D01*
X0113082Y0104844D02*
X0114598Y0104844D01*
X0114598Y0105111D02*
X0113082Y0105111D01*
X0113082Y0105378D02*
X0114598Y0105378D01*
X0114598Y0105645D02*
X0113082Y0105645D01*
X0113082Y0105912D02*
X0114598Y0105912D01*
X0114598Y0106179D02*
X0113082Y0106179D01*
X0113082Y0106446D02*
X0114598Y0106446D01*
X0112630Y0103242D02*
X0111114Y0103242D01*
X0111114Y0106530D01*
X0112630Y0106530D01*
X0112630Y0103242D01*
X0112630Y0103509D02*
X0111114Y0103509D01*
X0111114Y0103776D02*
X0112630Y0103776D01*
X0112630Y0104043D02*
X0111114Y0104043D01*
X0111114Y0104310D02*
X0112630Y0104310D01*
X0112630Y0104577D02*
X0111114Y0104577D01*
X0111114Y0104844D02*
X0112630Y0104844D01*
X0112630Y0105111D02*
X0111114Y0105111D01*
X0111114Y0105378D02*
X0112630Y0105378D01*
X0112630Y0105645D02*
X0111114Y0105645D01*
X0111114Y0105912D02*
X0112630Y0105912D01*
X0112630Y0106179D02*
X0111114Y0106179D01*
X0111114Y0106446D02*
X0112630Y0106446D01*
X0110661Y0103242D02*
X0109145Y0103242D01*
X0109145Y0106530D01*
X0110661Y0106530D01*
X0110661Y0103242D01*
X0110661Y0103509D02*
X0109145Y0103509D01*
X0109145Y0103776D02*
X0110661Y0103776D01*
X0110661Y0104043D02*
X0109145Y0104043D01*
X0109145Y0104310D02*
X0110661Y0104310D01*
X0110661Y0104577D02*
X0109145Y0104577D01*
X0109145Y0104844D02*
X0110661Y0104844D01*
X0110661Y0105111D02*
X0109145Y0105111D01*
X0109145Y0105378D02*
X0110661Y0105378D01*
X0110661Y0105645D02*
X0109145Y0105645D01*
X0109145Y0105912D02*
X0110661Y0105912D01*
X0110661Y0106179D02*
X0109145Y0106179D01*
X0109145Y0106446D02*
X0110661Y0106446D01*
X0108693Y0103242D02*
X0107177Y0103242D01*
X0107177Y0106530D01*
X0108693Y0106530D01*
X0108693Y0103242D01*
X0108693Y0103509D02*
X0107177Y0103509D01*
X0107177Y0103776D02*
X0108693Y0103776D01*
X0108693Y0104043D02*
X0107177Y0104043D01*
X0107177Y0104310D02*
X0108693Y0104310D01*
X0108693Y0104577D02*
X0107177Y0104577D01*
X0107177Y0104844D02*
X0108693Y0104844D01*
X0108693Y0105111D02*
X0107177Y0105111D01*
X0107177Y0105378D02*
X0108693Y0105378D01*
X0108693Y0105645D02*
X0107177Y0105645D01*
X0107177Y0105912D02*
X0108693Y0105912D01*
X0108693Y0106179D02*
X0107177Y0106179D01*
X0107177Y0106446D02*
X0108693Y0106446D01*
X0106724Y0103242D02*
X0105208Y0103242D01*
X0105208Y0106530D01*
X0106724Y0106530D01*
X0106724Y0103242D01*
X0106724Y0103509D02*
X0105208Y0103509D01*
X0105208Y0103776D02*
X0106724Y0103776D01*
X0106724Y0104043D02*
X0105208Y0104043D01*
X0105208Y0104310D02*
X0106724Y0104310D01*
X0106724Y0104577D02*
X0105208Y0104577D01*
X0105208Y0104844D02*
X0106724Y0104844D01*
X0106724Y0105111D02*
X0105208Y0105111D01*
X0105208Y0105378D02*
X0106724Y0105378D01*
X0106724Y0105645D02*
X0105208Y0105645D01*
X0105208Y0105912D02*
X0106724Y0105912D01*
X0106724Y0106179D02*
X0105208Y0106179D01*
X0105208Y0106446D02*
X0106724Y0106446D01*
X0104756Y0103242D02*
X0103240Y0103242D01*
X0103240Y0106530D01*
X0104756Y0106530D01*
X0104756Y0103242D01*
X0104756Y0103509D02*
X0103240Y0103509D01*
X0103240Y0103776D02*
X0104756Y0103776D01*
X0104756Y0104043D02*
X0103240Y0104043D01*
X0103240Y0104310D02*
X0104756Y0104310D01*
X0104756Y0104577D02*
X0103240Y0104577D01*
X0103240Y0104844D02*
X0104756Y0104844D01*
X0104756Y0105111D02*
X0103240Y0105111D01*
X0103240Y0105378D02*
X0104756Y0105378D01*
X0104756Y0105645D02*
X0103240Y0105645D01*
X0103240Y0105912D02*
X0104756Y0105912D01*
X0104756Y0106179D02*
X0103240Y0106179D01*
X0103240Y0106446D02*
X0104756Y0106446D01*
X0102787Y0103242D02*
X0101271Y0103242D01*
X0101271Y0106530D01*
X0102787Y0106530D01*
X0102787Y0103242D01*
X0102787Y0103509D02*
X0101271Y0103509D01*
X0101271Y0103776D02*
X0102787Y0103776D01*
X0102787Y0104043D02*
X0101271Y0104043D01*
X0101271Y0104310D02*
X0102787Y0104310D01*
X0102787Y0104577D02*
X0101271Y0104577D01*
X0101271Y0104844D02*
X0102787Y0104844D01*
X0102787Y0105111D02*
X0101271Y0105111D01*
X0101271Y0105378D02*
X0102787Y0105378D01*
X0102787Y0105645D02*
X0101271Y0105645D01*
X0101271Y0105912D02*
X0102787Y0105912D01*
X0102787Y0106179D02*
X0101271Y0106179D01*
X0101271Y0106446D02*
X0102787Y0106446D01*
X0100819Y0103242D02*
X0099303Y0103242D01*
X0099303Y0106530D01*
X0100819Y0106530D01*
X0100819Y0103242D01*
X0100819Y0103509D02*
X0099303Y0103509D01*
X0099303Y0103776D02*
X0100819Y0103776D01*
X0100819Y0104043D02*
X0099303Y0104043D01*
X0099303Y0104310D02*
X0100819Y0104310D01*
X0100819Y0104577D02*
X0099303Y0104577D01*
X0099303Y0104844D02*
X0100819Y0104844D01*
X0100819Y0105111D02*
X0099303Y0105111D01*
X0099303Y0105378D02*
X0100819Y0105378D01*
X0100819Y0105645D02*
X0099303Y0105645D01*
X0099303Y0105912D02*
X0100819Y0105912D01*
X0100819Y0106179D02*
X0099303Y0106179D01*
X0099303Y0106446D02*
X0100819Y0106446D01*
X0098850Y0103242D02*
X0097334Y0103242D01*
X0097334Y0106530D01*
X0098850Y0106530D01*
X0098850Y0103242D01*
X0098850Y0103509D02*
X0097334Y0103509D01*
X0097334Y0103776D02*
X0098850Y0103776D01*
X0098850Y0104043D02*
X0097334Y0104043D01*
X0097334Y0104310D02*
X0098850Y0104310D01*
X0098850Y0104577D02*
X0097334Y0104577D01*
X0097334Y0104844D02*
X0098850Y0104844D01*
X0098850Y0105111D02*
X0097334Y0105111D01*
X0097334Y0105378D02*
X0098850Y0105378D01*
X0098850Y0105645D02*
X0097334Y0105645D01*
X0097334Y0105912D02*
X0098850Y0105912D01*
X0098850Y0106179D02*
X0097334Y0106179D01*
X0097334Y0106446D02*
X0098850Y0106446D01*
X0096882Y0103242D02*
X0095366Y0103242D01*
X0095366Y0106530D01*
X0096882Y0106530D01*
X0096882Y0103242D01*
X0096882Y0103509D02*
X0095366Y0103509D01*
X0095366Y0103776D02*
X0096882Y0103776D01*
X0096882Y0104043D02*
X0095366Y0104043D01*
X0095366Y0104310D02*
X0096882Y0104310D01*
X0096882Y0104577D02*
X0095366Y0104577D01*
X0095366Y0104844D02*
X0096882Y0104844D01*
X0096882Y0105111D02*
X0095366Y0105111D01*
X0095366Y0105378D02*
X0096882Y0105378D01*
X0096882Y0105645D02*
X0095366Y0105645D01*
X0095366Y0105912D02*
X0096882Y0105912D01*
X0096882Y0106179D02*
X0095366Y0106179D01*
X0095366Y0106446D02*
X0096882Y0106446D01*
X0096882Y0121746D02*
X0095366Y0121746D01*
X0095366Y0125034D01*
X0096882Y0125034D01*
X0096882Y0121746D01*
X0096882Y0122013D02*
X0095366Y0122013D01*
X0095366Y0122280D02*
X0096882Y0122280D01*
X0096882Y0122547D02*
X0095366Y0122547D01*
X0095366Y0122814D02*
X0096882Y0122814D01*
X0096882Y0123081D02*
X0095366Y0123081D01*
X0095366Y0123348D02*
X0096882Y0123348D01*
X0096882Y0123615D02*
X0095366Y0123615D01*
X0095366Y0123882D02*
X0096882Y0123882D01*
X0096882Y0124149D02*
X0095366Y0124149D01*
X0095366Y0124416D02*
X0096882Y0124416D01*
X0096882Y0124683D02*
X0095366Y0124683D01*
X0095366Y0124950D02*
X0096882Y0124950D01*
X0097334Y0121746D02*
X0098850Y0121746D01*
X0097334Y0121746D02*
X0097334Y0125034D01*
X0098850Y0125034D01*
X0098850Y0121746D01*
X0098850Y0122013D02*
X0097334Y0122013D01*
X0097334Y0122280D02*
X0098850Y0122280D01*
X0098850Y0122547D02*
X0097334Y0122547D01*
X0097334Y0122814D02*
X0098850Y0122814D01*
X0098850Y0123081D02*
X0097334Y0123081D01*
X0097334Y0123348D02*
X0098850Y0123348D01*
X0098850Y0123615D02*
X0097334Y0123615D01*
X0097334Y0123882D02*
X0098850Y0123882D01*
X0098850Y0124149D02*
X0097334Y0124149D01*
X0097334Y0124416D02*
X0098850Y0124416D01*
X0098850Y0124683D02*
X0097334Y0124683D01*
X0097334Y0124950D02*
X0098850Y0124950D01*
X0099303Y0121746D02*
X0100819Y0121746D01*
X0099303Y0121746D02*
X0099303Y0125034D01*
X0100819Y0125034D01*
X0100819Y0121746D01*
X0100819Y0122013D02*
X0099303Y0122013D01*
X0099303Y0122280D02*
X0100819Y0122280D01*
X0100819Y0122547D02*
X0099303Y0122547D01*
X0099303Y0122814D02*
X0100819Y0122814D01*
X0100819Y0123081D02*
X0099303Y0123081D01*
X0099303Y0123348D02*
X0100819Y0123348D01*
X0100819Y0123615D02*
X0099303Y0123615D01*
X0099303Y0123882D02*
X0100819Y0123882D01*
X0100819Y0124149D02*
X0099303Y0124149D01*
X0099303Y0124416D02*
X0100819Y0124416D01*
X0100819Y0124683D02*
X0099303Y0124683D01*
X0099303Y0124950D02*
X0100819Y0124950D01*
X0101271Y0121746D02*
X0102787Y0121746D01*
X0101271Y0121746D02*
X0101271Y0125034D01*
X0102787Y0125034D01*
X0102787Y0121746D01*
X0102787Y0122013D02*
X0101271Y0122013D01*
X0101271Y0122280D02*
X0102787Y0122280D01*
X0102787Y0122547D02*
X0101271Y0122547D01*
X0101271Y0122814D02*
X0102787Y0122814D01*
X0102787Y0123081D02*
X0101271Y0123081D01*
X0101271Y0123348D02*
X0102787Y0123348D01*
X0102787Y0123615D02*
X0101271Y0123615D01*
X0101271Y0123882D02*
X0102787Y0123882D01*
X0102787Y0124149D02*
X0101271Y0124149D01*
X0101271Y0124416D02*
X0102787Y0124416D01*
X0102787Y0124683D02*
X0101271Y0124683D01*
X0101271Y0124950D02*
X0102787Y0124950D01*
X0103240Y0121746D02*
X0104756Y0121746D01*
X0103240Y0121746D02*
X0103240Y0125034D01*
X0104756Y0125034D01*
X0104756Y0121746D01*
X0104756Y0122013D02*
X0103240Y0122013D01*
X0103240Y0122280D02*
X0104756Y0122280D01*
X0104756Y0122547D02*
X0103240Y0122547D01*
X0103240Y0122814D02*
X0104756Y0122814D01*
X0104756Y0123081D02*
X0103240Y0123081D01*
X0103240Y0123348D02*
X0104756Y0123348D01*
X0104756Y0123615D02*
X0103240Y0123615D01*
X0103240Y0123882D02*
X0104756Y0123882D01*
X0104756Y0124149D02*
X0103240Y0124149D01*
X0103240Y0124416D02*
X0104756Y0124416D01*
X0104756Y0124683D02*
X0103240Y0124683D01*
X0103240Y0124950D02*
X0104756Y0124950D01*
X0105208Y0121746D02*
X0106724Y0121746D01*
X0105208Y0121746D02*
X0105208Y0125034D01*
X0106724Y0125034D01*
X0106724Y0121746D01*
X0106724Y0122013D02*
X0105208Y0122013D01*
X0105208Y0122280D02*
X0106724Y0122280D01*
X0106724Y0122547D02*
X0105208Y0122547D01*
X0105208Y0122814D02*
X0106724Y0122814D01*
X0106724Y0123081D02*
X0105208Y0123081D01*
X0105208Y0123348D02*
X0106724Y0123348D01*
X0106724Y0123615D02*
X0105208Y0123615D01*
X0105208Y0123882D02*
X0106724Y0123882D01*
X0106724Y0124149D02*
X0105208Y0124149D01*
X0105208Y0124416D02*
X0106724Y0124416D01*
X0106724Y0124683D02*
X0105208Y0124683D01*
X0105208Y0124950D02*
X0106724Y0124950D01*
X0107177Y0121746D02*
X0108693Y0121746D01*
X0107177Y0121746D02*
X0107177Y0125034D01*
X0108693Y0125034D01*
X0108693Y0121746D01*
X0108693Y0122013D02*
X0107177Y0122013D01*
X0107177Y0122280D02*
X0108693Y0122280D01*
X0108693Y0122547D02*
X0107177Y0122547D01*
X0107177Y0122814D02*
X0108693Y0122814D01*
X0108693Y0123081D02*
X0107177Y0123081D01*
X0107177Y0123348D02*
X0108693Y0123348D01*
X0108693Y0123615D02*
X0107177Y0123615D01*
X0107177Y0123882D02*
X0108693Y0123882D01*
X0108693Y0124149D02*
X0107177Y0124149D01*
X0107177Y0124416D02*
X0108693Y0124416D01*
X0108693Y0124683D02*
X0107177Y0124683D01*
X0107177Y0124950D02*
X0108693Y0124950D01*
X0109145Y0121746D02*
X0110661Y0121746D01*
X0109145Y0121746D02*
X0109145Y0125034D01*
X0110661Y0125034D01*
X0110661Y0121746D01*
X0110661Y0122013D02*
X0109145Y0122013D01*
X0109145Y0122280D02*
X0110661Y0122280D01*
X0110661Y0122547D02*
X0109145Y0122547D01*
X0109145Y0122814D02*
X0110661Y0122814D01*
X0110661Y0123081D02*
X0109145Y0123081D01*
X0109145Y0123348D02*
X0110661Y0123348D01*
X0110661Y0123615D02*
X0109145Y0123615D01*
X0109145Y0123882D02*
X0110661Y0123882D01*
X0110661Y0124149D02*
X0109145Y0124149D01*
X0109145Y0124416D02*
X0110661Y0124416D01*
X0110661Y0124683D02*
X0109145Y0124683D01*
X0109145Y0124950D02*
X0110661Y0124950D01*
X0111114Y0121746D02*
X0112630Y0121746D01*
X0111114Y0121746D02*
X0111114Y0125034D01*
X0112630Y0125034D01*
X0112630Y0121746D01*
X0112630Y0122013D02*
X0111114Y0122013D01*
X0111114Y0122280D02*
X0112630Y0122280D01*
X0112630Y0122547D02*
X0111114Y0122547D01*
X0111114Y0122814D02*
X0112630Y0122814D01*
X0112630Y0123081D02*
X0111114Y0123081D01*
X0111114Y0123348D02*
X0112630Y0123348D01*
X0112630Y0123615D02*
X0111114Y0123615D01*
X0111114Y0123882D02*
X0112630Y0123882D01*
X0112630Y0124149D02*
X0111114Y0124149D01*
X0111114Y0124416D02*
X0112630Y0124416D01*
X0112630Y0124683D02*
X0111114Y0124683D01*
X0111114Y0124950D02*
X0112630Y0124950D01*
X0113082Y0121746D02*
X0114598Y0121746D01*
X0113082Y0121746D02*
X0113082Y0125034D01*
X0114598Y0125034D01*
X0114598Y0121746D01*
X0114598Y0122013D02*
X0113082Y0122013D01*
X0113082Y0122280D02*
X0114598Y0122280D01*
X0114598Y0122547D02*
X0113082Y0122547D01*
X0113082Y0122814D02*
X0114598Y0122814D01*
X0114598Y0123081D02*
X0113082Y0123081D01*
X0113082Y0123348D02*
X0114598Y0123348D01*
X0114598Y0123615D02*
X0113082Y0123615D01*
X0113082Y0123882D02*
X0114598Y0123882D01*
X0114598Y0124149D02*
X0113082Y0124149D01*
X0113082Y0124416D02*
X0114598Y0124416D01*
X0114598Y0124683D02*
X0113082Y0124683D01*
X0113082Y0124950D02*
X0114598Y0124950D01*
X0115051Y0121746D02*
X0116567Y0121746D01*
X0115051Y0121746D02*
X0115051Y0125034D01*
X0116567Y0125034D01*
X0116567Y0121746D01*
X0116567Y0122013D02*
X0115051Y0122013D01*
X0115051Y0122280D02*
X0116567Y0122280D01*
X0116567Y0122547D02*
X0115051Y0122547D01*
X0115051Y0122814D02*
X0116567Y0122814D01*
X0116567Y0123081D02*
X0115051Y0123081D01*
X0115051Y0123348D02*
X0116567Y0123348D01*
X0116567Y0123615D02*
X0115051Y0123615D01*
X0115051Y0123882D02*
X0116567Y0123882D01*
X0116567Y0124149D02*
X0115051Y0124149D01*
X0115051Y0124416D02*
X0116567Y0124416D01*
X0116567Y0124683D02*
X0115051Y0124683D01*
X0115051Y0124950D02*
X0116567Y0124950D01*
D30*
X0116860Y0123541D02*
X0116860Y0121389D01*
X0116860Y0123541D02*
X0118796Y0123541D01*
X0118796Y0121389D01*
X0116860Y0121389D01*
X0116860Y0121729D02*
X0118796Y0121729D01*
X0118796Y0122069D02*
X0116860Y0122069D01*
X0116860Y0122409D02*
X0118796Y0122409D01*
X0118796Y0122749D02*
X0116860Y0122749D01*
X0116860Y0123089D02*
X0118796Y0123089D01*
X0118796Y0123429D02*
X0116860Y0123429D01*
X0116860Y0106887D02*
X0116860Y0104735D01*
X0116860Y0106887D02*
X0118796Y0106887D01*
X0118796Y0104735D01*
X0116860Y0104735D01*
X0116860Y0105075D02*
X0118796Y0105075D01*
X0118796Y0105415D02*
X0116860Y0105415D01*
X0116860Y0105755D02*
X0118796Y0105755D01*
X0118796Y0106095D02*
X0116860Y0106095D01*
X0116860Y0106435D02*
X0118796Y0106435D01*
X0118796Y0106775D02*
X0116860Y0106775D01*
X0093136Y0106887D02*
X0093136Y0104735D01*
X0093136Y0106887D02*
X0095072Y0106887D01*
X0095072Y0104735D01*
X0093136Y0104735D01*
X0093136Y0105075D02*
X0095072Y0105075D01*
X0095072Y0105415D02*
X0093136Y0105415D01*
X0093136Y0105755D02*
X0095072Y0105755D01*
X0095072Y0106095D02*
X0093136Y0106095D01*
X0093136Y0106435D02*
X0095072Y0106435D01*
X0095072Y0106775D02*
X0093136Y0106775D01*
X0093136Y0121389D02*
X0093136Y0123541D01*
X0095072Y0123541D01*
X0095072Y0121389D01*
X0093136Y0121389D01*
X0093136Y0121729D02*
X0095072Y0121729D01*
X0095072Y0122069D02*
X0093136Y0122069D01*
X0093136Y0122409D02*
X0095072Y0122409D01*
X0095072Y0122749D02*
X0093136Y0122749D01*
X0093136Y0123089D02*
X0095072Y0123089D01*
X0095072Y0123429D02*
X0093136Y0123429D01*
X0141358Y0088602D02*
X0143510Y0088602D01*
X0141358Y0088602D02*
X0141358Y0090538D01*
X0143510Y0090538D01*
X0143510Y0088602D01*
X0143510Y0088942D02*
X0141358Y0088942D01*
X0141358Y0089282D02*
X0143510Y0089282D01*
X0143510Y0089622D02*
X0141358Y0089622D01*
X0141358Y0089962D02*
X0143510Y0089962D01*
X0143510Y0090302D02*
X0141358Y0090302D01*
X0158011Y0088602D02*
X0160163Y0088602D01*
X0158011Y0088602D02*
X0158011Y0090538D01*
X0160163Y0090538D01*
X0160163Y0088602D01*
X0160163Y0088942D02*
X0158011Y0088942D01*
X0158011Y0089282D02*
X0160163Y0089282D01*
X0160163Y0089622D02*
X0158011Y0089622D01*
X0158011Y0089962D02*
X0160163Y0089962D01*
X0160163Y0090302D02*
X0158011Y0090302D01*
X0158011Y0064878D02*
X0160163Y0064878D01*
X0158011Y0064878D02*
X0158011Y0066814D01*
X0160163Y0066814D01*
X0160163Y0064878D01*
X0160163Y0065218D02*
X0158011Y0065218D01*
X0158011Y0065558D02*
X0160163Y0065558D01*
X0160163Y0065898D02*
X0158011Y0065898D01*
X0158011Y0066238D02*
X0160163Y0066238D01*
X0160163Y0066578D02*
X0158011Y0066578D01*
X0143510Y0064878D02*
X0141358Y0064878D01*
X0141358Y0066814D01*
X0143510Y0066814D01*
X0143510Y0064878D01*
X0143510Y0065218D02*
X0141358Y0065218D01*
X0141358Y0065558D02*
X0143510Y0065558D01*
X0143510Y0065898D02*
X0141358Y0065898D01*
X0141358Y0066238D02*
X0143510Y0066238D01*
X0143510Y0066578D02*
X0141358Y0066578D01*
X0182870Y0054412D02*
X0185022Y0054412D01*
X0182870Y0054412D02*
X0182870Y0056348D01*
X0185022Y0056348D01*
X0185022Y0054412D01*
X0185022Y0054752D02*
X0182870Y0054752D01*
X0182870Y0055092D02*
X0185022Y0055092D01*
X0185022Y0055432D02*
X0182870Y0055432D01*
X0182870Y0055772D02*
X0185022Y0055772D01*
X0185022Y0056112D02*
X0182870Y0056112D01*
X0199524Y0054412D02*
X0201676Y0054412D01*
X0199524Y0054412D02*
X0199524Y0056348D01*
X0201676Y0056348D01*
X0201676Y0054412D01*
X0201676Y0054752D02*
X0199524Y0054752D01*
X0199524Y0055092D02*
X0201676Y0055092D01*
X0201676Y0055432D02*
X0199524Y0055432D01*
X0199524Y0055772D02*
X0201676Y0055772D01*
X0201676Y0056112D02*
X0199524Y0056112D01*
X0199524Y0030687D02*
X0201676Y0030687D01*
X0199524Y0030687D02*
X0199524Y0032623D01*
X0201676Y0032623D01*
X0201676Y0030687D01*
X0201676Y0031027D02*
X0199524Y0031027D01*
X0199524Y0031367D02*
X0201676Y0031367D01*
X0201676Y0031707D02*
X0199524Y0031707D01*
X0199524Y0032047D02*
X0201676Y0032047D01*
X0201676Y0032387D02*
X0199524Y0032387D01*
X0185022Y0030687D02*
X0182870Y0030687D01*
X0182870Y0032623D01*
X0185022Y0032623D01*
X0185022Y0030687D01*
X0185022Y0031027D02*
X0182870Y0031027D01*
X0182870Y0031367D02*
X0185022Y0031367D01*
X0185022Y0031707D02*
X0182870Y0031707D01*
X0182870Y0032047D02*
X0185022Y0032047D01*
X0185022Y0032387D02*
X0182870Y0032387D01*
D31*
X0237796Y0049174D03*
X0237796Y0078702D03*
X0294489Y0097009D03*
X0294489Y0126536D03*
D32*
X0079331Y0131024D03*
X0079331Y0195198D03*
D33*
X0290661Y0263489D02*
X0292441Y0263489D01*
X0290661Y0263489D02*
X0290661Y0268379D01*
X0292441Y0268379D01*
X0292441Y0263489D01*
X0292441Y0264082D02*
X0290661Y0264082D01*
X0290661Y0264675D02*
X0292441Y0264675D01*
X0292441Y0265268D02*
X0290661Y0265268D01*
X0290661Y0265861D02*
X0292441Y0265861D01*
X0292441Y0266454D02*
X0290661Y0266454D01*
X0290661Y0267047D02*
X0292441Y0267047D01*
X0292441Y0267640D02*
X0290661Y0267640D01*
X0290661Y0268233D02*
X0292441Y0268233D01*
X0293220Y0263489D02*
X0295000Y0263489D01*
X0293220Y0263489D02*
X0293220Y0268379D01*
X0295000Y0268379D01*
X0295000Y0263489D01*
X0295000Y0264082D02*
X0293220Y0264082D01*
X0293220Y0264675D02*
X0295000Y0264675D01*
X0295000Y0265268D02*
X0293220Y0265268D01*
X0293220Y0265861D02*
X0295000Y0265861D01*
X0295000Y0266454D02*
X0293220Y0266454D01*
X0293220Y0267047D02*
X0295000Y0267047D01*
X0295000Y0267640D02*
X0293220Y0267640D01*
X0293220Y0268233D02*
X0295000Y0268233D01*
X0295779Y0263489D02*
X0297559Y0263489D01*
X0295779Y0263489D02*
X0295779Y0268379D01*
X0297559Y0268379D01*
X0297559Y0263489D01*
X0297559Y0264082D02*
X0295779Y0264082D01*
X0295779Y0264675D02*
X0297559Y0264675D01*
X0297559Y0265268D02*
X0295779Y0265268D01*
X0295779Y0265861D02*
X0297559Y0265861D01*
X0297559Y0266454D02*
X0295779Y0266454D01*
X0295779Y0267047D02*
X0297559Y0267047D01*
X0297559Y0267640D02*
X0295779Y0267640D01*
X0295779Y0268233D02*
X0297559Y0268233D01*
X0297559Y0275938D02*
X0295779Y0275938D01*
X0297559Y0275938D02*
X0297559Y0271048D01*
X0295779Y0271048D01*
X0295779Y0275938D01*
X0295779Y0271641D02*
X0297559Y0271641D01*
X0297559Y0272234D02*
X0295779Y0272234D01*
X0295779Y0272827D02*
X0297559Y0272827D01*
X0297559Y0273420D02*
X0295779Y0273420D01*
X0295779Y0274013D02*
X0297559Y0274013D01*
X0297559Y0274606D02*
X0295779Y0274606D01*
X0295779Y0275199D02*
X0297559Y0275199D01*
X0297559Y0275792D02*
X0295779Y0275792D01*
X0292441Y0275938D02*
X0290661Y0275938D01*
X0292441Y0275938D02*
X0292441Y0271048D01*
X0290661Y0271048D01*
X0290661Y0275938D01*
X0290661Y0271641D02*
X0292441Y0271641D01*
X0292441Y0272234D02*
X0290661Y0272234D01*
X0290661Y0272827D02*
X0292441Y0272827D01*
X0292441Y0273420D02*
X0290661Y0273420D01*
X0290661Y0274013D02*
X0292441Y0274013D01*
X0292441Y0274606D02*
X0290661Y0274606D01*
X0290661Y0275199D02*
X0292441Y0275199D01*
X0292441Y0275792D02*
X0290661Y0275792D01*
D34*
X0281497Y0275198D03*
X0271497Y0275198D03*
X0271497Y0285198D03*
X0281497Y0285198D03*
X0281497Y0265198D03*
X0271497Y0265198D03*
X0271497Y0255198D03*
X0281497Y0255198D03*
X0338808Y0141111D03*
X0338808Y0131111D03*
X0338808Y0121111D03*
X0338808Y0111111D03*
D35*
X0216851Y0085552D03*
X0188111Y0085552D03*
D36*
X0257993Y0073150D03*
X0276497Y0090473D03*
X0285946Y0081812D03*
X0314292Y0083387D03*
X0314292Y0112127D03*
X0276497Y0119213D03*
X0285946Y0053072D03*
X0257993Y0044410D03*
D37*
X0110749Y0065867D03*
X0110749Y0069804D03*
X0124922Y0078072D03*
X0126497Y0081615D03*
X0122560Y0082009D03*
X0129253Y0078465D03*
X0130828Y0082009D03*
X0133190Y0078859D03*
X0133190Y0074922D03*
X0135158Y0071772D03*
X0137127Y0075316D03*
X0137127Y0079253D03*
X0136339Y0083190D03*
X0134371Y0088702D03*
X0138308Y0091064D03*
X0134371Y0095001D03*
X0132009Y0098150D03*
X0128859Y0100513D03*
X0125316Y0102087D03*
X0126103Y0097757D03*
X0130040Y0094607D03*
X0125709Y0093426D03*
X0128465Y0090276D03*
X0111536Y0088308D03*
X0129253Y0074528D03*
X0126891Y0057206D03*
X0148150Y0045788D03*
X0156418Y0046182D03*
X0157993Y0049725D03*
X0156812Y0053269D03*
X0159568Y0059568D03*
X0153269Y0069017D03*
X0153269Y0073347D03*
X0148544Y0073347D03*
X0148544Y0069017D03*
X0148544Y0077678D03*
X0153269Y0077678D03*
X0164686Y0070985D03*
X0166654Y0079646D03*
X0179646Y0089883D03*
X0182402Y0087127D03*
X0176497Y0092639D03*
X0172560Y0093820D03*
X0168623Y0093820D03*
X0164686Y0093820D03*
X0163898Y0100513D03*
X0159568Y0100513D03*
X0155237Y0100513D03*
X0150906Y0100513D03*
X0146576Y0100513D03*
X0146576Y0105237D03*
X0150906Y0105237D03*
X0150906Y0109568D03*
X0146576Y0109568D03*
X0142245Y0109568D03*
X0142245Y0114292D03*
X0146576Y0114292D03*
X0150906Y0114292D03*
X0150906Y0118623D03*
X0146576Y0118623D03*
X0142245Y0118623D03*
X0137914Y0118623D03*
X0133583Y0118623D03*
X0133583Y0123347D03*
X0137914Y0123347D03*
X0142245Y0123347D03*
X0146576Y0123347D03*
X0150906Y0123347D03*
X0155237Y0118623D03*
X0155237Y0114292D03*
X0159568Y0114292D03*
X0163898Y0114292D03*
X0163898Y0109568D03*
X0159568Y0109568D03*
X0159568Y0105237D03*
X0163898Y0105237D03*
X0168229Y0105237D03*
X0168229Y0100513D03*
X0155237Y0105237D03*
X0155237Y0109568D03*
X0150906Y0127678D03*
X0146576Y0127678D03*
X0142245Y0127678D03*
X0137914Y0127678D03*
X0133583Y0127678D03*
X0133583Y0132402D03*
X0137914Y0132402D03*
X0142245Y0132402D03*
X0146576Y0132402D03*
X0150906Y0132402D03*
X0129253Y0132402D03*
X0129253Y0127678D03*
X0129253Y0123347D03*
X0129253Y0118623D03*
X0117048Y0127284D03*
X0117048Y0131221D03*
X0100119Y0132009D03*
X0098150Y0135946D03*
X0100906Y0144607D03*
X0097757Y0147363D03*
X0095001Y0150119D03*
X0100119Y0154843D03*
X0095788Y0165867D03*
X0095001Y0169804D03*
X0099331Y0178072D03*
X0105237Y0185946D03*
X0112324Y0187914D03*
X0118229Y0189095D03*
X0128465Y0190276D03*
X0138308Y0172560D03*
X0138308Y0154056D03*
X0128072Y0148544D03*
X0089095Y0119804D03*
X0090276Y0115867D03*
X0090276Y0111930D03*
X0076891Y0124135D03*
X0077678Y0152087D03*
X0075709Y0155237D03*
X0073741Y0152087D03*
X0071772Y0155237D03*
X0074922Y0159568D03*
X0072954Y0162717D03*
X0076891Y0162717D03*
X0076891Y0167048D03*
X0072954Y0167048D03*
X0135670Y0223072D03*
X0122166Y0237520D03*
X0107993Y0243032D03*
X0111930Y0252875D03*
X0094725Y0241182D03*
X0133190Y0259568D03*
X0138702Y0256024D03*
X0164568Y0256143D03*
X0174135Y0251694D03*
X0165080Y0241064D03*
X0169804Y0239095D03*
X0190670Y0245788D03*
X0194607Y0247757D03*
X0198544Y0247363D03*
X0203698Y0241111D03*
X0218229Y0246182D03*
X0219804Y0241457D03*
X0223347Y0239489D03*
X0226103Y0241851D03*
X0231221Y0240670D03*
X0233583Y0244213D03*
X0237520Y0245788D03*
X0236339Y0251694D03*
X0236339Y0256024D03*
X0250119Y0245788D03*
X0253662Y0233583D03*
X0257993Y0233583D03*
X0267048Y0233583D03*
X0270985Y0233583D03*
X0276497Y0233977D03*
X0282009Y0235552D03*
X0286379Y0233780D03*
X0296576Y0233977D03*
X0301300Y0238308D03*
X0307599Y0245788D03*
X0311143Y0241457D03*
X0319410Y0246182D03*
X0328702Y0251182D03*
X0320985Y0263269D03*
X0309568Y0265473D03*
X0303269Y0262717D03*
X0288702Y0259961D03*
X0290276Y0252875D03*
X0262717Y0264292D03*
X0259961Y0268623D03*
X0253072Y0274174D03*
X0233977Y0280434D03*
X0230591Y0275867D03*
X0225355Y0272442D03*
X0221654Y0278072D03*
X0213505Y0273820D03*
X0207206Y0271930D03*
X0198938Y0280040D03*
X0197363Y0285158D03*
X0208308Y0283505D03*
X0208780Y0299725D03*
X0190867Y0309568D03*
X0175867Y0285040D03*
X0174528Y0274528D03*
X0191064Y0260749D03*
X0199331Y0263111D03*
X0219410Y0252087D03*
X0232402Y0267835D03*
X0226497Y0287914D03*
X0228465Y0306024D03*
X0282009Y0293032D03*
X0289095Y0284371D03*
X0321379Y0235158D03*
X0324528Y0232009D03*
X0318623Y0228072D03*
X0315080Y0232009D03*
X0324922Y0210355D03*
X0329253Y0210355D03*
X0333190Y0209961D03*
X0335946Y0207206D03*
X0338308Y0204056D03*
X0340670Y0200513D03*
X0320198Y0195001D03*
X0321772Y0183583D03*
X0296576Y0187127D03*
X0292639Y0195394D03*
X0289489Y0198150D03*
X0285946Y0200119D03*
X0283583Y0203662D03*
X0287520Y0206024D03*
X0285946Y0209568D03*
X0285158Y0214292D03*
X0274528Y0216654D03*
X0274528Y0222166D03*
X0274135Y0226103D03*
X0269410Y0221772D03*
X0260355Y0222560D03*
X0259174Y0218623D03*
X0282009Y0185158D03*
X0295788Y0174922D03*
X0298544Y0163111D03*
X0288308Y0163111D03*
X0281221Y0163111D03*
X0283190Y0135552D03*
X0278465Y0127284D03*
X0269804Y0126497D03*
X0272560Y0133977D03*
X0294607Y0136339D03*
X0319410Y0163111D03*
X0338702Y0163111D03*
X0347363Y0163111D03*
X0228072Y0067835D03*
X0230040Y0064292D03*
X0225709Y0064292D03*
X0223347Y0067835D03*
X0220985Y0064292D03*
X0219017Y0067835D03*
X0216654Y0064292D03*
X0214686Y0067835D03*
X0210355Y0067835D03*
X0211930Y0064292D03*
X0207206Y0064292D03*
X0206024Y0067835D03*
X0202875Y0064686D03*
X0207599Y0051300D03*
X0206418Y0042245D03*
X0194213Y0043426D03*
X0194213Y0047757D03*
X0194213Y0052087D03*
X0189489Y0052087D03*
X0189489Y0047757D03*
X0189489Y0043426D03*
X0179253Y0047757D03*
X0174528Y0047757D03*
X0175316Y0052087D03*
X0179253Y0054450D03*
X0223741Y0060355D03*
X0224922Y0056418D03*
X0230434Y0056812D03*
X0249725Y0050906D03*
X0254450Y0050906D03*
X0258780Y0050906D03*
X0263111Y0051300D03*
X0215867Y0228072D03*
X0148780Y0281379D03*
D38*
X0296969Y0182796D03*
M02*
