G04 EAGLE Gerber X2 export*
G75*
%MOMM*%
%FSLAX34Y34*%
%LPD*%
%AMOC8*
5,1,8,0,0,1.08239X$1,22.5*%
G01*
%ADD10C,1.803200*%
%ADD11R,0.762000X2.184400*%
%ADD12R,2.203200X3.203200*%
%ADD13R,0.903200X1.103200*%
%ADD14R,1.103200X0.903200*%
%ADD15R,3.203200X2.203200*%
%ADD16R,2.603200X2.603200*%
%ADD17C,0.360959*%
%ADD18R,0.903200X0.803200*%
%ADD19R,3.403200X2.003200*%
%ADD20R,0.803200X0.903200*%
%ADD21R,1.503200X1.703200*%
%ADD22R,1.703200X1.503200*%
%ADD23R,2.003200X3.403200*%
%ADD24R,2.003200X3.803200*%
%ADD25C,0.175159*%
%ADD26C,0.067978*%
%ADD27C,0.086728*%
%ADD28C,1.711200*%
%ADD29R,3.003200X2.303200*%
%ADD30R,2.103200X0.803200*%
%ADD31C,0.150800*%
%ADD32C,2.082800*%
%ADD33R,7.103200X2.003200*%
%ADD34C,1.411200*%
%ADD35C,1.853200*%
%ADD36C,1.511200*%
%ADD37R,1.203200X0.553200*%
%ADD38R,1.203200X0.803200*%
%ADD39R,2.003200X1.453200*%
%ADD40R,0.803200X2.403200*%
%ADD41R,2.903200X3.803200*%
%ADD42C,0.959600*%
%ADD43C,3.203200*%
%ADD44C,0.254000*%


D10*
X1129000Y591000D03*
X1089000Y671000D03*
X745000Y846000D03*
X646000Y826000D03*
X1141000Y510000D03*
X1140400Y433400D03*
X271200Y279000D03*
X173800Y349000D03*
X271200Y663000D03*
X173800Y593000D03*
D11*
X542356Y567844D03*
X529656Y567844D03*
X516956Y567844D03*
X504256Y567844D03*
X504256Y518568D03*
X516956Y518568D03*
X529656Y518568D03*
X542356Y518568D03*
D12*
G36*
X489054Y655421D02*
X473475Y671000D01*
X496124Y693649D01*
X511703Y678070D01*
X489054Y655421D01*
G37*
G36*
X538550Y651223D02*
X554129Y635644D01*
X531480Y612995D01*
X515901Y628574D01*
X538550Y651223D01*
G37*
D13*
X991200Y593700D03*
X978200Y593700D03*
X590900Y188200D03*
X577900Y188200D03*
D14*
X426800Y264400D03*
X426800Y251400D03*
D13*
X722200Y770700D03*
X709200Y770700D03*
D12*
X560390Y354964D03*
X620390Y354964D03*
D14*
X743200Y687200D03*
X743200Y700200D03*
D15*
X684080Y828808D03*
X684080Y768808D03*
D13*
X978800Y766200D03*
X965800Y766200D03*
D14*
X278300Y406300D03*
X278300Y393300D03*
X993700Y736800D03*
X993700Y749800D03*
D13*
X978676Y581902D03*
X991676Y581902D03*
X978422Y570518D03*
X991422Y570518D03*
D15*
X591696Y478452D03*
X591696Y418452D03*
D13*
X978676Y559150D03*
X991676Y559150D03*
D14*
X1015966Y694952D03*
X1015966Y707952D03*
X998550Y694870D03*
X998550Y707870D03*
X1033036Y695766D03*
X1033036Y708766D03*
D13*
X475228Y250904D03*
X488228Y250904D03*
X294040Y374884D03*
X281040Y374884D03*
X648472Y170936D03*
X661472Y170936D03*
D16*
X461270Y584258D03*
X461270Y628258D03*
X593208Y596718D03*
X593208Y640718D03*
D17*
X968141Y620111D02*
X968141Y611689D01*
X959719Y611689D01*
X959719Y620111D01*
X968141Y620111D01*
X968141Y615298D02*
X959719Y615298D01*
X959719Y618907D02*
X968141Y618907D01*
X985681Y620111D02*
X985681Y611689D01*
X977259Y611689D01*
X977259Y620111D01*
X985681Y620111D01*
X985681Y615298D02*
X977259Y615298D01*
X977259Y618907D02*
X985681Y618907D01*
D18*
X962800Y603200D03*
X962800Y593200D03*
D19*
X525372Y251760D03*
X525372Y307760D03*
X704356Y163984D03*
X704356Y219984D03*
D20*
X711400Y749300D03*
X721400Y749300D03*
X798700Y683400D03*
X788700Y683400D03*
D21*
X541008Y207622D03*
X560008Y207622D03*
X387690Y256954D03*
X406690Y256954D03*
D22*
X259418Y376384D03*
X259418Y395384D03*
D20*
X974000Y604500D03*
X984000Y604500D03*
D18*
X949200Y609700D03*
X949200Y619700D03*
D23*
X298312Y334850D03*
X354312Y334850D03*
D24*
X625814Y721508D03*
X532814Y721508D03*
D25*
X625432Y187092D02*
X658712Y187092D01*
X625432Y187092D02*
X625432Y241372D01*
X658712Y241372D01*
X658712Y187092D01*
X658712Y188843D02*
X625432Y188843D01*
X625432Y190594D02*
X658712Y190594D01*
X658712Y192345D02*
X625432Y192345D01*
X625432Y194096D02*
X658712Y194096D01*
X658712Y195847D02*
X625432Y195847D01*
X625432Y197598D02*
X658712Y197598D01*
X658712Y199349D02*
X625432Y199349D01*
X625432Y201100D02*
X658712Y201100D01*
X658712Y202851D02*
X625432Y202851D01*
X625432Y204602D02*
X658712Y204602D01*
X658712Y206353D02*
X625432Y206353D01*
X625432Y208104D02*
X658712Y208104D01*
X658712Y209855D02*
X625432Y209855D01*
X625432Y211606D02*
X658712Y211606D01*
X658712Y213357D02*
X625432Y213357D01*
X625432Y215108D02*
X658712Y215108D01*
X658712Y216859D02*
X625432Y216859D01*
X625432Y218610D02*
X658712Y218610D01*
X658712Y220361D02*
X625432Y220361D01*
X625432Y222112D02*
X658712Y222112D01*
X658712Y223863D02*
X625432Y223863D01*
X625432Y225614D02*
X658712Y225614D01*
X658712Y227365D02*
X625432Y227365D01*
X625432Y229116D02*
X658712Y229116D01*
X658712Y230867D02*
X625432Y230867D01*
X625432Y232618D02*
X658712Y232618D01*
X658712Y234369D02*
X625432Y234369D01*
X625432Y236120D02*
X658712Y236120D01*
X658712Y237871D02*
X625432Y237871D01*
X625432Y239622D02*
X658712Y239622D01*
D26*
X622748Y241158D02*
X622748Y237306D01*
X614396Y237306D01*
X614396Y241158D01*
X622748Y241158D01*
X622748Y237985D02*
X614396Y237985D01*
X614396Y238664D02*
X622748Y238664D01*
X622748Y239343D02*
X614396Y239343D01*
X614396Y240022D02*
X622748Y240022D01*
X622748Y240701D02*
X614396Y240701D01*
X669748Y241158D02*
X669748Y237306D01*
X661396Y237306D01*
X661396Y241158D01*
X669748Y241158D01*
X669748Y237985D02*
X661396Y237985D01*
X661396Y238664D02*
X669748Y238664D01*
X669748Y239343D02*
X661396Y239343D01*
X661396Y240022D02*
X669748Y240022D01*
X669748Y240701D02*
X661396Y240701D01*
X622748Y236158D02*
X622748Y232306D01*
X614396Y232306D01*
X614396Y236158D01*
X622748Y236158D01*
X622748Y232985D02*
X614396Y232985D01*
X614396Y233664D02*
X622748Y233664D01*
X622748Y234343D02*
X614396Y234343D01*
X614396Y235022D02*
X622748Y235022D01*
X622748Y235701D02*
X614396Y235701D01*
X622748Y231158D02*
X622748Y227306D01*
X614396Y227306D01*
X614396Y231158D01*
X622748Y231158D01*
X622748Y227985D02*
X614396Y227985D01*
X614396Y228664D02*
X622748Y228664D01*
X622748Y229343D02*
X614396Y229343D01*
X614396Y230022D02*
X622748Y230022D01*
X622748Y230701D02*
X614396Y230701D01*
X622748Y226158D02*
X622748Y222306D01*
X614396Y222306D01*
X614396Y226158D01*
X622748Y226158D01*
X622748Y222985D02*
X614396Y222985D01*
X614396Y223664D02*
X622748Y223664D01*
X622748Y224343D02*
X614396Y224343D01*
X614396Y225022D02*
X622748Y225022D01*
X622748Y225701D02*
X614396Y225701D01*
X622748Y221158D02*
X622748Y217306D01*
X614396Y217306D01*
X614396Y221158D01*
X622748Y221158D01*
X622748Y217985D02*
X614396Y217985D01*
X614396Y218664D02*
X622748Y218664D01*
X622748Y219343D02*
X614396Y219343D01*
X614396Y220022D02*
X622748Y220022D01*
X622748Y220701D02*
X614396Y220701D01*
X622748Y216158D02*
X622748Y212306D01*
X614396Y212306D01*
X614396Y216158D01*
X622748Y216158D01*
X622748Y212985D02*
X614396Y212985D01*
X614396Y213664D02*
X622748Y213664D01*
X622748Y214343D02*
X614396Y214343D01*
X614396Y215022D02*
X622748Y215022D01*
X622748Y215701D02*
X614396Y215701D01*
X622748Y211158D02*
X622748Y207306D01*
X614396Y207306D01*
X614396Y211158D01*
X622748Y211158D01*
X622748Y207985D02*
X614396Y207985D01*
X614396Y208664D02*
X622748Y208664D01*
X622748Y209343D02*
X614396Y209343D01*
X614396Y210022D02*
X622748Y210022D01*
X622748Y210701D02*
X614396Y210701D01*
X622748Y206158D02*
X622748Y202306D01*
X614396Y202306D01*
X614396Y206158D01*
X622748Y206158D01*
X622748Y202985D02*
X614396Y202985D01*
X614396Y203664D02*
X622748Y203664D01*
X622748Y204343D02*
X614396Y204343D01*
X614396Y205022D02*
X622748Y205022D01*
X622748Y205701D02*
X614396Y205701D01*
X622748Y201158D02*
X622748Y197306D01*
X614396Y197306D01*
X614396Y201158D01*
X622748Y201158D01*
X622748Y197985D02*
X614396Y197985D01*
X614396Y198664D02*
X622748Y198664D01*
X622748Y199343D02*
X614396Y199343D01*
X614396Y200022D02*
X622748Y200022D01*
X622748Y200701D02*
X614396Y200701D01*
X622748Y196158D02*
X622748Y192306D01*
X614396Y192306D01*
X614396Y196158D01*
X622748Y196158D01*
X622748Y192985D02*
X614396Y192985D01*
X614396Y193664D02*
X622748Y193664D01*
X622748Y194343D02*
X614396Y194343D01*
X614396Y195022D02*
X622748Y195022D01*
X622748Y195701D02*
X614396Y195701D01*
X622748Y191158D02*
X622748Y187306D01*
X614396Y187306D01*
X614396Y191158D01*
X622748Y191158D01*
X622748Y187985D02*
X614396Y187985D01*
X614396Y188664D02*
X622748Y188664D01*
X622748Y189343D02*
X614396Y189343D01*
X614396Y190022D02*
X622748Y190022D01*
X622748Y190701D02*
X614396Y190701D01*
X669748Y191158D02*
X669748Y187306D01*
X661396Y187306D01*
X661396Y191158D01*
X669748Y191158D01*
X669748Y187985D02*
X661396Y187985D01*
X661396Y188664D02*
X669748Y188664D01*
X669748Y189343D02*
X661396Y189343D01*
X661396Y190022D02*
X669748Y190022D01*
X669748Y190701D02*
X661396Y190701D01*
X669748Y192306D02*
X669748Y196158D01*
X669748Y192306D02*
X661396Y192306D01*
X661396Y196158D01*
X669748Y196158D01*
X669748Y192985D02*
X661396Y192985D01*
X661396Y193664D02*
X669748Y193664D01*
X669748Y194343D02*
X661396Y194343D01*
X661396Y195022D02*
X669748Y195022D01*
X669748Y195701D02*
X661396Y195701D01*
X669748Y197306D02*
X669748Y201158D01*
X669748Y197306D02*
X661396Y197306D01*
X661396Y201158D01*
X669748Y201158D01*
X669748Y197985D02*
X661396Y197985D01*
X661396Y198664D02*
X669748Y198664D01*
X669748Y199343D02*
X661396Y199343D01*
X661396Y200022D02*
X669748Y200022D01*
X669748Y200701D02*
X661396Y200701D01*
X669748Y202306D02*
X669748Y206158D01*
X669748Y202306D02*
X661396Y202306D01*
X661396Y206158D01*
X669748Y206158D01*
X669748Y202985D02*
X661396Y202985D01*
X661396Y203664D02*
X669748Y203664D01*
X669748Y204343D02*
X661396Y204343D01*
X661396Y205022D02*
X669748Y205022D01*
X669748Y205701D02*
X661396Y205701D01*
X669748Y207306D02*
X669748Y211158D01*
X669748Y207306D02*
X661396Y207306D01*
X661396Y211158D01*
X669748Y211158D01*
X669748Y207985D02*
X661396Y207985D01*
X661396Y208664D02*
X669748Y208664D01*
X669748Y209343D02*
X661396Y209343D01*
X661396Y210022D02*
X669748Y210022D01*
X669748Y210701D02*
X661396Y210701D01*
X669748Y212306D02*
X669748Y216158D01*
X669748Y212306D02*
X661396Y212306D01*
X661396Y216158D01*
X669748Y216158D01*
X669748Y212985D02*
X661396Y212985D01*
X661396Y213664D02*
X669748Y213664D01*
X669748Y214343D02*
X661396Y214343D01*
X661396Y215022D02*
X669748Y215022D01*
X669748Y215701D02*
X661396Y215701D01*
X669748Y217306D02*
X669748Y221158D01*
X669748Y217306D02*
X661396Y217306D01*
X661396Y221158D01*
X669748Y221158D01*
X669748Y217985D02*
X661396Y217985D01*
X661396Y218664D02*
X669748Y218664D01*
X669748Y219343D02*
X661396Y219343D01*
X661396Y220022D02*
X669748Y220022D01*
X669748Y220701D02*
X661396Y220701D01*
X669748Y222306D02*
X669748Y226158D01*
X669748Y222306D02*
X661396Y222306D01*
X661396Y226158D01*
X669748Y226158D01*
X669748Y222985D02*
X661396Y222985D01*
X661396Y223664D02*
X669748Y223664D01*
X669748Y224343D02*
X661396Y224343D01*
X661396Y225022D02*
X669748Y225022D01*
X669748Y225701D02*
X661396Y225701D01*
X669748Y227306D02*
X669748Y231158D01*
X669748Y227306D02*
X661396Y227306D01*
X661396Y231158D01*
X669748Y231158D01*
X669748Y227985D02*
X661396Y227985D01*
X661396Y228664D02*
X669748Y228664D01*
X669748Y229343D02*
X661396Y229343D01*
X661396Y230022D02*
X669748Y230022D01*
X669748Y230701D02*
X661396Y230701D01*
X669748Y232306D02*
X669748Y236158D01*
X669748Y232306D02*
X661396Y232306D01*
X661396Y236158D01*
X669748Y236158D01*
X669748Y232985D02*
X661396Y232985D01*
X661396Y233664D02*
X669748Y233664D01*
X669748Y234343D02*
X661396Y234343D01*
X661396Y235022D02*
X669748Y235022D01*
X669748Y235701D02*
X661396Y235701D01*
D27*
X660489Y241904D02*
X665955Y241904D01*
X660489Y241904D02*
X660489Y246820D01*
X665955Y246820D01*
X665955Y241904D01*
X665955Y242770D02*
X660489Y242770D01*
X660489Y243636D02*
X665955Y243636D01*
X665955Y244502D02*
X660489Y244502D01*
X660489Y245368D02*
X665955Y245368D01*
X665955Y246234D02*
X660489Y246234D01*
X623655Y241904D02*
X618189Y241904D01*
X618189Y246820D01*
X623655Y246820D01*
X623655Y241904D01*
X623655Y242770D02*
X618189Y242770D01*
X618189Y243636D02*
X623655Y243636D01*
X623655Y244502D02*
X618189Y244502D01*
X618189Y245368D02*
X623655Y245368D01*
X623655Y246234D02*
X618189Y246234D01*
X618189Y181644D02*
X623655Y181644D01*
X618189Y181644D02*
X618189Y186560D01*
X623655Y186560D01*
X623655Y181644D01*
X623655Y182510D02*
X618189Y182510D01*
X618189Y183376D02*
X623655Y183376D01*
X623655Y184242D02*
X618189Y184242D01*
X618189Y185108D02*
X623655Y185108D01*
X623655Y185974D02*
X618189Y185974D01*
X660489Y181644D02*
X665955Y181644D01*
X660489Y181644D02*
X660489Y186560D01*
X665955Y186560D01*
X665955Y181644D01*
X665955Y182510D02*
X660489Y182510D01*
X660489Y183376D02*
X665955Y183376D01*
X665955Y184242D02*
X660489Y184242D01*
X660489Y185108D02*
X665955Y185108D01*
X665955Y185974D02*
X660489Y185974D01*
D25*
X481270Y264936D02*
X447990Y264936D01*
X447990Y319216D01*
X481270Y319216D01*
X481270Y264936D01*
X481270Y266687D02*
X447990Y266687D01*
X447990Y268438D02*
X481270Y268438D01*
X481270Y270189D02*
X447990Y270189D01*
X447990Y271940D02*
X481270Y271940D01*
X481270Y273691D02*
X447990Y273691D01*
X447990Y275442D02*
X481270Y275442D01*
X481270Y277193D02*
X447990Y277193D01*
X447990Y278944D02*
X481270Y278944D01*
X481270Y280695D02*
X447990Y280695D01*
X447990Y282446D02*
X481270Y282446D01*
X481270Y284197D02*
X447990Y284197D01*
X447990Y285948D02*
X481270Y285948D01*
X481270Y287699D02*
X447990Y287699D01*
X447990Y289450D02*
X481270Y289450D01*
X481270Y291201D02*
X447990Y291201D01*
X447990Y292952D02*
X481270Y292952D01*
X481270Y294703D02*
X447990Y294703D01*
X447990Y296454D02*
X481270Y296454D01*
X481270Y298205D02*
X447990Y298205D01*
X447990Y299956D02*
X481270Y299956D01*
X481270Y301707D02*
X447990Y301707D01*
X447990Y303458D02*
X481270Y303458D01*
X481270Y305209D02*
X447990Y305209D01*
X447990Y306960D02*
X481270Y306960D01*
X481270Y308711D02*
X447990Y308711D01*
X447990Y310462D02*
X481270Y310462D01*
X481270Y312213D02*
X447990Y312213D01*
X447990Y313964D02*
X481270Y313964D01*
X481270Y315715D02*
X447990Y315715D01*
X447990Y317466D02*
X481270Y317466D01*
D26*
X445306Y319002D02*
X445306Y315150D01*
X436954Y315150D01*
X436954Y319002D01*
X445306Y319002D01*
X445306Y315829D02*
X436954Y315829D01*
X436954Y316508D02*
X445306Y316508D01*
X445306Y317187D02*
X436954Y317187D01*
X436954Y317866D02*
X445306Y317866D01*
X445306Y318545D02*
X436954Y318545D01*
X492306Y319002D02*
X492306Y315150D01*
X483954Y315150D01*
X483954Y319002D01*
X492306Y319002D01*
X492306Y315829D02*
X483954Y315829D01*
X483954Y316508D02*
X492306Y316508D01*
X492306Y317187D02*
X483954Y317187D01*
X483954Y317866D02*
X492306Y317866D01*
X492306Y318545D02*
X483954Y318545D01*
X445306Y314002D02*
X445306Y310150D01*
X436954Y310150D01*
X436954Y314002D01*
X445306Y314002D01*
X445306Y310829D02*
X436954Y310829D01*
X436954Y311508D02*
X445306Y311508D01*
X445306Y312187D02*
X436954Y312187D01*
X436954Y312866D02*
X445306Y312866D01*
X445306Y313545D02*
X436954Y313545D01*
X445306Y309002D02*
X445306Y305150D01*
X436954Y305150D01*
X436954Y309002D01*
X445306Y309002D01*
X445306Y305829D02*
X436954Y305829D01*
X436954Y306508D02*
X445306Y306508D01*
X445306Y307187D02*
X436954Y307187D01*
X436954Y307866D02*
X445306Y307866D01*
X445306Y308545D02*
X436954Y308545D01*
X445306Y304002D02*
X445306Y300150D01*
X436954Y300150D01*
X436954Y304002D01*
X445306Y304002D01*
X445306Y300829D02*
X436954Y300829D01*
X436954Y301508D02*
X445306Y301508D01*
X445306Y302187D02*
X436954Y302187D01*
X436954Y302866D02*
X445306Y302866D01*
X445306Y303545D02*
X436954Y303545D01*
X445306Y299002D02*
X445306Y295150D01*
X436954Y295150D01*
X436954Y299002D01*
X445306Y299002D01*
X445306Y295829D02*
X436954Y295829D01*
X436954Y296508D02*
X445306Y296508D01*
X445306Y297187D02*
X436954Y297187D01*
X436954Y297866D02*
X445306Y297866D01*
X445306Y298545D02*
X436954Y298545D01*
X445306Y294002D02*
X445306Y290150D01*
X436954Y290150D01*
X436954Y294002D01*
X445306Y294002D01*
X445306Y290829D02*
X436954Y290829D01*
X436954Y291508D02*
X445306Y291508D01*
X445306Y292187D02*
X436954Y292187D01*
X436954Y292866D02*
X445306Y292866D01*
X445306Y293545D02*
X436954Y293545D01*
X445306Y289002D02*
X445306Y285150D01*
X436954Y285150D01*
X436954Y289002D01*
X445306Y289002D01*
X445306Y285829D02*
X436954Y285829D01*
X436954Y286508D02*
X445306Y286508D01*
X445306Y287187D02*
X436954Y287187D01*
X436954Y287866D02*
X445306Y287866D01*
X445306Y288545D02*
X436954Y288545D01*
X445306Y284002D02*
X445306Y280150D01*
X436954Y280150D01*
X436954Y284002D01*
X445306Y284002D01*
X445306Y280829D02*
X436954Y280829D01*
X436954Y281508D02*
X445306Y281508D01*
X445306Y282187D02*
X436954Y282187D01*
X436954Y282866D02*
X445306Y282866D01*
X445306Y283545D02*
X436954Y283545D01*
X445306Y279002D02*
X445306Y275150D01*
X436954Y275150D01*
X436954Y279002D01*
X445306Y279002D01*
X445306Y275829D02*
X436954Y275829D01*
X436954Y276508D02*
X445306Y276508D01*
X445306Y277187D02*
X436954Y277187D01*
X436954Y277866D02*
X445306Y277866D01*
X445306Y278545D02*
X436954Y278545D01*
X445306Y274002D02*
X445306Y270150D01*
X436954Y270150D01*
X436954Y274002D01*
X445306Y274002D01*
X445306Y270829D02*
X436954Y270829D01*
X436954Y271508D02*
X445306Y271508D01*
X445306Y272187D02*
X436954Y272187D01*
X436954Y272866D02*
X445306Y272866D01*
X445306Y273545D02*
X436954Y273545D01*
X445306Y269002D02*
X445306Y265150D01*
X436954Y265150D01*
X436954Y269002D01*
X445306Y269002D01*
X445306Y265829D02*
X436954Y265829D01*
X436954Y266508D02*
X445306Y266508D01*
X445306Y267187D02*
X436954Y267187D01*
X436954Y267866D02*
X445306Y267866D01*
X445306Y268545D02*
X436954Y268545D01*
X492306Y269002D02*
X492306Y265150D01*
X483954Y265150D01*
X483954Y269002D01*
X492306Y269002D01*
X492306Y265829D02*
X483954Y265829D01*
X483954Y266508D02*
X492306Y266508D01*
X492306Y267187D02*
X483954Y267187D01*
X483954Y267866D02*
X492306Y267866D01*
X492306Y268545D02*
X483954Y268545D01*
X492306Y270150D02*
X492306Y274002D01*
X492306Y270150D02*
X483954Y270150D01*
X483954Y274002D01*
X492306Y274002D01*
X492306Y270829D02*
X483954Y270829D01*
X483954Y271508D02*
X492306Y271508D01*
X492306Y272187D02*
X483954Y272187D01*
X483954Y272866D02*
X492306Y272866D01*
X492306Y273545D02*
X483954Y273545D01*
X492306Y275150D02*
X492306Y279002D01*
X492306Y275150D02*
X483954Y275150D01*
X483954Y279002D01*
X492306Y279002D01*
X492306Y275829D02*
X483954Y275829D01*
X483954Y276508D02*
X492306Y276508D01*
X492306Y277187D02*
X483954Y277187D01*
X483954Y277866D02*
X492306Y277866D01*
X492306Y278545D02*
X483954Y278545D01*
X492306Y280150D02*
X492306Y284002D01*
X492306Y280150D02*
X483954Y280150D01*
X483954Y284002D01*
X492306Y284002D01*
X492306Y280829D02*
X483954Y280829D01*
X483954Y281508D02*
X492306Y281508D01*
X492306Y282187D02*
X483954Y282187D01*
X483954Y282866D02*
X492306Y282866D01*
X492306Y283545D02*
X483954Y283545D01*
X492306Y285150D02*
X492306Y289002D01*
X492306Y285150D02*
X483954Y285150D01*
X483954Y289002D01*
X492306Y289002D01*
X492306Y285829D02*
X483954Y285829D01*
X483954Y286508D02*
X492306Y286508D01*
X492306Y287187D02*
X483954Y287187D01*
X483954Y287866D02*
X492306Y287866D01*
X492306Y288545D02*
X483954Y288545D01*
X492306Y290150D02*
X492306Y294002D01*
X492306Y290150D02*
X483954Y290150D01*
X483954Y294002D01*
X492306Y294002D01*
X492306Y290829D02*
X483954Y290829D01*
X483954Y291508D02*
X492306Y291508D01*
X492306Y292187D02*
X483954Y292187D01*
X483954Y292866D02*
X492306Y292866D01*
X492306Y293545D02*
X483954Y293545D01*
X492306Y295150D02*
X492306Y299002D01*
X492306Y295150D02*
X483954Y295150D01*
X483954Y299002D01*
X492306Y299002D01*
X492306Y295829D02*
X483954Y295829D01*
X483954Y296508D02*
X492306Y296508D01*
X492306Y297187D02*
X483954Y297187D01*
X483954Y297866D02*
X492306Y297866D01*
X492306Y298545D02*
X483954Y298545D01*
X492306Y300150D02*
X492306Y304002D01*
X492306Y300150D02*
X483954Y300150D01*
X483954Y304002D01*
X492306Y304002D01*
X492306Y300829D02*
X483954Y300829D01*
X483954Y301508D02*
X492306Y301508D01*
X492306Y302187D02*
X483954Y302187D01*
X483954Y302866D02*
X492306Y302866D01*
X492306Y303545D02*
X483954Y303545D01*
X492306Y305150D02*
X492306Y309002D01*
X492306Y305150D02*
X483954Y305150D01*
X483954Y309002D01*
X492306Y309002D01*
X492306Y305829D02*
X483954Y305829D01*
X483954Y306508D02*
X492306Y306508D01*
X492306Y307187D02*
X483954Y307187D01*
X483954Y307866D02*
X492306Y307866D01*
X492306Y308545D02*
X483954Y308545D01*
X492306Y310150D02*
X492306Y314002D01*
X492306Y310150D02*
X483954Y310150D01*
X483954Y314002D01*
X492306Y314002D01*
X492306Y310829D02*
X483954Y310829D01*
X483954Y311508D02*
X492306Y311508D01*
X492306Y312187D02*
X483954Y312187D01*
X483954Y312866D02*
X492306Y312866D01*
X492306Y313545D02*
X483954Y313545D01*
D27*
X483047Y319748D02*
X488513Y319748D01*
X483047Y319748D02*
X483047Y324664D01*
X488513Y324664D01*
X488513Y319748D01*
X488513Y320614D02*
X483047Y320614D01*
X483047Y321480D02*
X488513Y321480D01*
X488513Y322346D02*
X483047Y322346D01*
X483047Y323212D02*
X488513Y323212D01*
X488513Y324078D02*
X483047Y324078D01*
X446213Y319748D02*
X440747Y319748D01*
X440747Y324664D01*
X446213Y324664D01*
X446213Y319748D01*
X446213Y320614D02*
X440747Y320614D01*
X440747Y321480D02*
X446213Y321480D01*
X446213Y322346D02*
X440747Y322346D01*
X440747Y323212D02*
X446213Y323212D01*
X446213Y324078D02*
X440747Y324078D01*
X440747Y259488D02*
X446213Y259488D01*
X440747Y259488D02*
X440747Y264404D01*
X446213Y264404D01*
X446213Y259488D01*
X446213Y260354D02*
X440747Y260354D01*
X440747Y261220D02*
X446213Y261220D01*
X446213Y262086D02*
X440747Y262086D01*
X440747Y262952D02*
X446213Y262952D01*
X446213Y263818D02*
X440747Y263818D01*
X483047Y259488D02*
X488513Y259488D01*
X483047Y259488D02*
X483047Y264404D01*
X488513Y264404D01*
X488513Y259488D01*
X488513Y260354D02*
X483047Y260354D01*
X483047Y261220D02*
X488513Y261220D01*
X488513Y262086D02*
X483047Y262086D01*
X483047Y262952D02*
X488513Y262952D01*
X488513Y263818D02*
X483047Y263818D01*
D25*
X312712Y368968D02*
X312712Y402248D01*
X366992Y402248D01*
X366992Y368968D01*
X312712Y368968D01*
X312712Y370719D02*
X366992Y370719D01*
X366992Y372470D02*
X312712Y372470D01*
X312712Y374221D02*
X366992Y374221D01*
X366992Y375972D02*
X312712Y375972D01*
X312712Y377723D02*
X366992Y377723D01*
X366992Y379474D02*
X312712Y379474D01*
X312712Y381225D02*
X366992Y381225D01*
X366992Y382976D02*
X312712Y382976D01*
X312712Y384727D02*
X366992Y384727D01*
X366992Y386478D02*
X312712Y386478D01*
X312712Y388229D02*
X366992Y388229D01*
X366992Y389980D02*
X312712Y389980D01*
X312712Y391731D02*
X366992Y391731D01*
X366992Y393482D02*
X312712Y393482D01*
X312712Y395233D02*
X366992Y395233D01*
X366992Y396984D02*
X312712Y396984D01*
X312712Y398735D02*
X366992Y398735D01*
X366992Y400486D02*
X312712Y400486D01*
X312712Y402237D02*
X366992Y402237D01*
D26*
X366778Y404932D02*
X362926Y404932D01*
X362926Y413284D01*
X366778Y413284D01*
X366778Y404932D01*
X366778Y405611D02*
X362926Y405611D01*
X362926Y406290D02*
X366778Y406290D01*
X366778Y406969D02*
X362926Y406969D01*
X362926Y407648D02*
X366778Y407648D01*
X366778Y408327D02*
X362926Y408327D01*
X362926Y409006D02*
X366778Y409006D01*
X366778Y409685D02*
X362926Y409685D01*
X362926Y410364D02*
X366778Y410364D01*
X366778Y411043D02*
X362926Y411043D01*
X362926Y411722D02*
X366778Y411722D01*
X366778Y412401D02*
X362926Y412401D01*
X362926Y413080D02*
X366778Y413080D01*
X366778Y357932D02*
X362926Y357932D01*
X362926Y366284D01*
X366778Y366284D01*
X366778Y357932D01*
X366778Y358611D02*
X362926Y358611D01*
X362926Y359290D02*
X366778Y359290D01*
X366778Y359969D02*
X362926Y359969D01*
X362926Y360648D02*
X366778Y360648D01*
X366778Y361327D02*
X362926Y361327D01*
X362926Y362006D02*
X366778Y362006D01*
X366778Y362685D02*
X362926Y362685D01*
X362926Y363364D02*
X366778Y363364D01*
X366778Y364043D02*
X362926Y364043D01*
X362926Y364722D02*
X366778Y364722D01*
X366778Y365401D02*
X362926Y365401D01*
X362926Y366080D02*
X366778Y366080D01*
X361778Y404932D02*
X357926Y404932D01*
X357926Y413284D01*
X361778Y413284D01*
X361778Y404932D01*
X361778Y405611D02*
X357926Y405611D01*
X357926Y406290D02*
X361778Y406290D01*
X361778Y406969D02*
X357926Y406969D01*
X357926Y407648D02*
X361778Y407648D01*
X361778Y408327D02*
X357926Y408327D01*
X357926Y409006D02*
X361778Y409006D01*
X361778Y409685D02*
X357926Y409685D01*
X357926Y410364D02*
X361778Y410364D01*
X361778Y411043D02*
X357926Y411043D01*
X357926Y411722D02*
X361778Y411722D01*
X361778Y412401D02*
X357926Y412401D01*
X357926Y413080D02*
X361778Y413080D01*
X356778Y404932D02*
X352926Y404932D01*
X352926Y413284D01*
X356778Y413284D01*
X356778Y404932D01*
X356778Y405611D02*
X352926Y405611D01*
X352926Y406290D02*
X356778Y406290D01*
X356778Y406969D02*
X352926Y406969D01*
X352926Y407648D02*
X356778Y407648D01*
X356778Y408327D02*
X352926Y408327D01*
X352926Y409006D02*
X356778Y409006D01*
X356778Y409685D02*
X352926Y409685D01*
X352926Y410364D02*
X356778Y410364D01*
X356778Y411043D02*
X352926Y411043D01*
X352926Y411722D02*
X356778Y411722D01*
X356778Y412401D02*
X352926Y412401D01*
X352926Y413080D02*
X356778Y413080D01*
X351778Y404932D02*
X347926Y404932D01*
X347926Y413284D01*
X351778Y413284D01*
X351778Y404932D01*
X351778Y405611D02*
X347926Y405611D01*
X347926Y406290D02*
X351778Y406290D01*
X351778Y406969D02*
X347926Y406969D01*
X347926Y407648D02*
X351778Y407648D01*
X351778Y408327D02*
X347926Y408327D01*
X347926Y409006D02*
X351778Y409006D01*
X351778Y409685D02*
X347926Y409685D01*
X347926Y410364D02*
X351778Y410364D01*
X351778Y411043D02*
X347926Y411043D01*
X347926Y411722D02*
X351778Y411722D01*
X351778Y412401D02*
X347926Y412401D01*
X347926Y413080D02*
X351778Y413080D01*
X346778Y404932D02*
X342926Y404932D01*
X342926Y413284D01*
X346778Y413284D01*
X346778Y404932D01*
X346778Y405611D02*
X342926Y405611D01*
X342926Y406290D02*
X346778Y406290D01*
X346778Y406969D02*
X342926Y406969D01*
X342926Y407648D02*
X346778Y407648D01*
X346778Y408327D02*
X342926Y408327D01*
X342926Y409006D02*
X346778Y409006D01*
X346778Y409685D02*
X342926Y409685D01*
X342926Y410364D02*
X346778Y410364D01*
X346778Y411043D02*
X342926Y411043D01*
X342926Y411722D02*
X346778Y411722D01*
X346778Y412401D02*
X342926Y412401D01*
X342926Y413080D02*
X346778Y413080D01*
X341778Y404932D02*
X337926Y404932D01*
X337926Y413284D01*
X341778Y413284D01*
X341778Y404932D01*
X341778Y405611D02*
X337926Y405611D01*
X337926Y406290D02*
X341778Y406290D01*
X341778Y406969D02*
X337926Y406969D01*
X337926Y407648D02*
X341778Y407648D01*
X341778Y408327D02*
X337926Y408327D01*
X337926Y409006D02*
X341778Y409006D01*
X341778Y409685D02*
X337926Y409685D01*
X337926Y410364D02*
X341778Y410364D01*
X341778Y411043D02*
X337926Y411043D01*
X337926Y411722D02*
X341778Y411722D01*
X341778Y412401D02*
X337926Y412401D01*
X337926Y413080D02*
X341778Y413080D01*
X336778Y404932D02*
X332926Y404932D01*
X332926Y413284D01*
X336778Y413284D01*
X336778Y404932D01*
X336778Y405611D02*
X332926Y405611D01*
X332926Y406290D02*
X336778Y406290D01*
X336778Y406969D02*
X332926Y406969D01*
X332926Y407648D02*
X336778Y407648D01*
X336778Y408327D02*
X332926Y408327D01*
X332926Y409006D02*
X336778Y409006D01*
X336778Y409685D02*
X332926Y409685D01*
X332926Y410364D02*
X336778Y410364D01*
X336778Y411043D02*
X332926Y411043D01*
X332926Y411722D02*
X336778Y411722D01*
X336778Y412401D02*
X332926Y412401D01*
X332926Y413080D02*
X336778Y413080D01*
X331778Y404932D02*
X327926Y404932D01*
X327926Y413284D01*
X331778Y413284D01*
X331778Y404932D01*
X331778Y405611D02*
X327926Y405611D01*
X327926Y406290D02*
X331778Y406290D01*
X331778Y406969D02*
X327926Y406969D01*
X327926Y407648D02*
X331778Y407648D01*
X331778Y408327D02*
X327926Y408327D01*
X327926Y409006D02*
X331778Y409006D01*
X331778Y409685D02*
X327926Y409685D01*
X327926Y410364D02*
X331778Y410364D01*
X331778Y411043D02*
X327926Y411043D01*
X327926Y411722D02*
X331778Y411722D01*
X331778Y412401D02*
X327926Y412401D01*
X327926Y413080D02*
X331778Y413080D01*
X326778Y404932D02*
X322926Y404932D01*
X322926Y413284D01*
X326778Y413284D01*
X326778Y404932D01*
X326778Y405611D02*
X322926Y405611D01*
X322926Y406290D02*
X326778Y406290D01*
X326778Y406969D02*
X322926Y406969D01*
X322926Y407648D02*
X326778Y407648D01*
X326778Y408327D02*
X322926Y408327D01*
X322926Y409006D02*
X326778Y409006D01*
X326778Y409685D02*
X322926Y409685D01*
X322926Y410364D02*
X326778Y410364D01*
X326778Y411043D02*
X322926Y411043D01*
X322926Y411722D02*
X326778Y411722D01*
X326778Y412401D02*
X322926Y412401D01*
X322926Y413080D02*
X326778Y413080D01*
X321778Y404932D02*
X317926Y404932D01*
X317926Y413284D01*
X321778Y413284D01*
X321778Y404932D01*
X321778Y405611D02*
X317926Y405611D01*
X317926Y406290D02*
X321778Y406290D01*
X321778Y406969D02*
X317926Y406969D01*
X317926Y407648D02*
X321778Y407648D01*
X321778Y408327D02*
X317926Y408327D01*
X317926Y409006D02*
X321778Y409006D01*
X321778Y409685D02*
X317926Y409685D01*
X317926Y410364D02*
X321778Y410364D01*
X321778Y411043D02*
X317926Y411043D01*
X317926Y411722D02*
X321778Y411722D01*
X321778Y412401D02*
X317926Y412401D01*
X317926Y413080D02*
X321778Y413080D01*
X316778Y404932D02*
X312926Y404932D01*
X312926Y413284D01*
X316778Y413284D01*
X316778Y404932D01*
X316778Y405611D02*
X312926Y405611D01*
X312926Y406290D02*
X316778Y406290D01*
X316778Y406969D02*
X312926Y406969D01*
X312926Y407648D02*
X316778Y407648D01*
X316778Y408327D02*
X312926Y408327D01*
X312926Y409006D02*
X316778Y409006D01*
X316778Y409685D02*
X312926Y409685D01*
X312926Y410364D02*
X316778Y410364D01*
X316778Y411043D02*
X312926Y411043D01*
X312926Y411722D02*
X316778Y411722D01*
X316778Y412401D02*
X312926Y412401D01*
X312926Y413080D02*
X316778Y413080D01*
X316778Y357932D02*
X312926Y357932D01*
X312926Y366284D01*
X316778Y366284D01*
X316778Y357932D01*
X316778Y358611D02*
X312926Y358611D01*
X312926Y359290D02*
X316778Y359290D01*
X316778Y359969D02*
X312926Y359969D01*
X312926Y360648D02*
X316778Y360648D01*
X316778Y361327D02*
X312926Y361327D01*
X312926Y362006D02*
X316778Y362006D01*
X316778Y362685D02*
X312926Y362685D01*
X312926Y363364D02*
X316778Y363364D01*
X316778Y364043D02*
X312926Y364043D01*
X312926Y364722D02*
X316778Y364722D01*
X316778Y365401D02*
X312926Y365401D01*
X312926Y366080D02*
X316778Y366080D01*
X317926Y357932D02*
X321778Y357932D01*
X317926Y357932D02*
X317926Y366284D01*
X321778Y366284D01*
X321778Y357932D01*
X321778Y358611D02*
X317926Y358611D01*
X317926Y359290D02*
X321778Y359290D01*
X321778Y359969D02*
X317926Y359969D01*
X317926Y360648D02*
X321778Y360648D01*
X321778Y361327D02*
X317926Y361327D01*
X317926Y362006D02*
X321778Y362006D01*
X321778Y362685D02*
X317926Y362685D01*
X317926Y363364D02*
X321778Y363364D01*
X321778Y364043D02*
X317926Y364043D01*
X317926Y364722D02*
X321778Y364722D01*
X321778Y365401D02*
X317926Y365401D01*
X317926Y366080D02*
X321778Y366080D01*
X322926Y357932D02*
X326778Y357932D01*
X322926Y357932D02*
X322926Y366284D01*
X326778Y366284D01*
X326778Y357932D01*
X326778Y358611D02*
X322926Y358611D01*
X322926Y359290D02*
X326778Y359290D01*
X326778Y359969D02*
X322926Y359969D01*
X322926Y360648D02*
X326778Y360648D01*
X326778Y361327D02*
X322926Y361327D01*
X322926Y362006D02*
X326778Y362006D01*
X326778Y362685D02*
X322926Y362685D01*
X322926Y363364D02*
X326778Y363364D01*
X326778Y364043D02*
X322926Y364043D01*
X322926Y364722D02*
X326778Y364722D01*
X326778Y365401D02*
X322926Y365401D01*
X322926Y366080D02*
X326778Y366080D01*
X327926Y357932D02*
X331778Y357932D01*
X327926Y357932D02*
X327926Y366284D01*
X331778Y366284D01*
X331778Y357932D01*
X331778Y358611D02*
X327926Y358611D01*
X327926Y359290D02*
X331778Y359290D01*
X331778Y359969D02*
X327926Y359969D01*
X327926Y360648D02*
X331778Y360648D01*
X331778Y361327D02*
X327926Y361327D01*
X327926Y362006D02*
X331778Y362006D01*
X331778Y362685D02*
X327926Y362685D01*
X327926Y363364D02*
X331778Y363364D01*
X331778Y364043D02*
X327926Y364043D01*
X327926Y364722D02*
X331778Y364722D01*
X331778Y365401D02*
X327926Y365401D01*
X327926Y366080D02*
X331778Y366080D01*
X332926Y357932D02*
X336778Y357932D01*
X332926Y357932D02*
X332926Y366284D01*
X336778Y366284D01*
X336778Y357932D01*
X336778Y358611D02*
X332926Y358611D01*
X332926Y359290D02*
X336778Y359290D01*
X336778Y359969D02*
X332926Y359969D01*
X332926Y360648D02*
X336778Y360648D01*
X336778Y361327D02*
X332926Y361327D01*
X332926Y362006D02*
X336778Y362006D01*
X336778Y362685D02*
X332926Y362685D01*
X332926Y363364D02*
X336778Y363364D01*
X336778Y364043D02*
X332926Y364043D01*
X332926Y364722D02*
X336778Y364722D01*
X336778Y365401D02*
X332926Y365401D01*
X332926Y366080D02*
X336778Y366080D01*
X337926Y357932D02*
X341778Y357932D01*
X337926Y357932D02*
X337926Y366284D01*
X341778Y366284D01*
X341778Y357932D01*
X341778Y358611D02*
X337926Y358611D01*
X337926Y359290D02*
X341778Y359290D01*
X341778Y359969D02*
X337926Y359969D01*
X337926Y360648D02*
X341778Y360648D01*
X341778Y361327D02*
X337926Y361327D01*
X337926Y362006D02*
X341778Y362006D01*
X341778Y362685D02*
X337926Y362685D01*
X337926Y363364D02*
X341778Y363364D01*
X341778Y364043D02*
X337926Y364043D01*
X337926Y364722D02*
X341778Y364722D01*
X341778Y365401D02*
X337926Y365401D01*
X337926Y366080D02*
X341778Y366080D01*
X342926Y357932D02*
X346778Y357932D01*
X342926Y357932D02*
X342926Y366284D01*
X346778Y366284D01*
X346778Y357932D01*
X346778Y358611D02*
X342926Y358611D01*
X342926Y359290D02*
X346778Y359290D01*
X346778Y359969D02*
X342926Y359969D01*
X342926Y360648D02*
X346778Y360648D01*
X346778Y361327D02*
X342926Y361327D01*
X342926Y362006D02*
X346778Y362006D01*
X346778Y362685D02*
X342926Y362685D01*
X342926Y363364D02*
X346778Y363364D01*
X346778Y364043D02*
X342926Y364043D01*
X342926Y364722D02*
X346778Y364722D01*
X346778Y365401D02*
X342926Y365401D01*
X342926Y366080D02*
X346778Y366080D01*
X347926Y357932D02*
X351778Y357932D01*
X347926Y357932D02*
X347926Y366284D01*
X351778Y366284D01*
X351778Y357932D01*
X351778Y358611D02*
X347926Y358611D01*
X347926Y359290D02*
X351778Y359290D01*
X351778Y359969D02*
X347926Y359969D01*
X347926Y360648D02*
X351778Y360648D01*
X351778Y361327D02*
X347926Y361327D01*
X347926Y362006D02*
X351778Y362006D01*
X351778Y362685D02*
X347926Y362685D01*
X347926Y363364D02*
X351778Y363364D01*
X351778Y364043D02*
X347926Y364043D01*
X347926Y364722D02*
X351778Y364722D01*
X351778Y365401D02*
X347926Y365401D01*
X347926Y366080D02*
X351778Y366080D01*
X352926Y357932D02*
X356778Y357932D01*
X352926Y357932D02*
X352926Y366284D01*
X356778Y366284D01*
X356778Y357932D01*
X356778Y358611D02*
X352926Y358611D01*
X352926Y359290D02*
X356778Y359290D01*
X356778Y359969D02*
X352926Y359969D01*
X352926Y360648D02*
X356778Y360648D01*
X356778Y361327D02*
X352926Y361327D01*
X352926Y362006D02*
X356778Y362006D01*
X356778Y362685D02*
X352926Y362685D01*
X352926Y363364D02*
X356778Y363364D01*
X356778Y364043D02*
X352926Y364043D01*
X352926Y364722D02*
X356778Y364722D01*
X356778Y365401D02*
X352926Y365401D01*
X352926Y366080D02*
X356778Y366080D01*
X357926Y357932D02*
X361778Y357932D01*
X357926Y357932D02*
X357926Y366284D01*
X361778Y366284D01*
X361778Y357932D01*
X361778Y358611D02*
X357926Y358611D01*
X357926Y359290D02*
X361778Y359290D01*
X361778Y359969D02*
X357926Y359969D01*
X357926Y360648D02*
X361778Y360648D01*
X361778Y361327D02*
X357926Y361327D01*
X357926Y362006D02*
X361778Y362006D01*
X361778Y362685D02*
X357926Y362685D01*
X357926Y363364D02*
X361778Y363364D01*
X361778Y364043D02*
X357926Y364043D01*
X357926Y364722D02*
X361778Y364722D01*
X361778Y365401D02*
X357926Y365401D01*
X357926Y366080D02*
X361778Y366080D01*
D27*
X367524Y367191D02*
X367524Y361725D01*
X367524Y367191D02*
X372440Y367191D01*
X372440Y361725D01*
X367524Y361725D01*
X367524Y362591D02*
X372440Y362591D01*
X372440Y363457D02*
X367524Y363457D01*
X367524Y364323D02*
X372440Y364323D01*
X372440Y365189D02*
X367524Y365189D01*
X367524Y366055D02*
X372440Y366055D01*
X372440Y366921D02*
X367524Y366921D01*
X367524Y404025D02*
X367524Y409491D01*
X372440Y409491D01*
X372440Y404025D01*
X367524Y404025D01*
X367524Y404891D02*
X372440Y404891D01*
X372440Y405757D02*
X367524Y405757D01*
X367524Y406623D02*
X372440Y406623D01*
X372440Y407489D02*
X367524Y407489D01*
X367524Y408355D02*
X372440Y408355D01*
X372440Y409221D02*
X367524Y409221D01*
X307264Y409491D02*
X307264Y404025D01*
X307264Y409491D02*
X312180Y409491D01*
X312180Y404025D01*
X307264Y404025D01*
X307264Y404891D02*
X312180Y404891D01*
X312180Y405757D02*
X307264Y405757D01*
X307264Y406623D02*
X312180Y406623D01*
X312180Y407489D02*
X307264Y407489D01*
X307264Y408355D02*
X312180Y408355D01*
X312180Y409221D02*
X307264Y409221D01*
X307264Y367191D02*
X307264Y361725D01*
X307264Y367191D02*
X312180Y367191D01*
X312180Y361725D01*
X307264Y361725D01*
X307264Y362591D02*
X312180Y362591D01*
X312180Y363457D02*
X307264Y363457D01*
X307264Y364323D02*
X312180Y364323D01*
X312180Y365189D02*
X307264Y365189D01*
X307264Y366055D02*
X312180Y366055D01*
X312180Y366921D02*
X307264Y366921D01*
D28*
X829700Y256600D03*
X829700Y181600D03*
D29*
X231200Y389500D03*
X231200Y552500D03*
D30*
X254700Y471000D03*
X254700Y461000D03*
X254700Y451000D03*
X254700Y441000D03*
X254700Y481000D03*
X254700Y491000D03*
X254700Y501000D03*
X254700Y511000D03*
X254700Y431000D03*
X254700Y521000D03*
X254700Y421000D03*
D28*
X972300Y301900D03*
X972300Y376900D03*
D31*
X968500Y725958D02*
X963976Y725958D01*
X963976Y738382D01*
X968500Y738382D01*
X968500Y725958D01*
X968500Y727465D02*
X963976Y727465D01*
X963976Y728972D02*
X968500Y728972D01*
X968500Y730479D02*
X963976Y730479D01*
X963976Y731986D02*
X968500Y731986D01*
X968500Y733493D02*
X963976Y733493D01*
X963976Y735000D02*
X968500Y735000D01*
X968500Y736507D02*
X963976Y736507D01*
X963976Y738014D02*
X968500Y738014D01*
X970476Y725958D02*
X975000Y725958D01*
X970476Y725958D02*
X970476Y738382D01*
X975000Y738382D01*
X975000Y725958D01*
X975000Y727465D02*
X970476Y727465D01*
X970476Y728972D02*
X975000Y728972D01*
X975000Y730479D02*
X970476Y730479D01*
X970476Y731986D02*
X975000Y731986D01*
X975000Y733493D02*
X970476Y733493D01*
X970476Y735000D02*
X975000Y735000D01*
X975000Y736507D02*
X970476Y736507D01*
X970476Y738014D02*
X975000Y738014D01*
X976976Y725958D02*
X981500Y725958D01*
X976976Y725958D02*
X976976Y738382D01*
X981500Y738382D01*
X981500Y725958D01*
X981500Y727465D02*
X976976Y727465D01*
X976976Y728972D02*
X981500Y728972D01*
X981500Y730479D02*
X976976Y730479D01*
X976976Y731986D02*
X981500Y731986D01*
X981500Y733493D02*
X976976Y733493D01*
X976976Y735000D02*
X981500Y735000D01*
X981500Y736507D02*
X976976Y736507D01*
X976976Y738014D02*
X981500Y738014D01*
X981500Y757582D02*
X976976Y757582D01*
X981500Y757582D02*
X981500Y745158D01*
X976976Y745158D01*
X976976Y757582D01*
X976976Y746665D02*
X981500Y746665D01*
X981500Y748172D02*
X976976Y748172D01*
X976976Y749679D02*
X981500Y749679D01*
X981500Y751186D02*
X976976Y751186D01*
X976976Y752693D02*
X981500Y752693D01*
X981500Y754200D02*
X976976Y754200D01*
X976976Y755707D02*
X981500Y755707D01*
X981500Y757214D02*
X976976Y757214D01*
X968500Y757582D02*
X963976Y757582D01*
X968500Y757582D02*
X968500Y745158D01*
X963976Y745158D01*
X963976Y757582D01*
X963976Y746665D02*
X968500Y746665D01*
X968500Y748172D02*
X963976Y748172D01*
X963976Y749679D02*
X968500Y749679D01*
X968500Y751186D02*
X963976Y751186D01*
X963976Y752693D02*
X968500Y752693D01*
X968500Y754200D02*
X963976Y754200D01*
X963976Y755707D02*
X968500Y755707D01*
X968500Y757214D02*
X963976Y757214D01*
D20*
G36*
X618603Y803990D02*
X621793Y796619D01*
X613505Y793032D01*
X610315Y800403D01*
X618603Y803990D01*
G37*
G36*
X614631Y813168D02*
X617821Y805797D01*
X609533Y802210D01*
X606343Y809581D01*
X614631Y813168D01*
G37*
D17*
X600336Y805863D02*
X592607Y802518D01*
X589262Y810247D01*
X596991Y813592D01*
X600336Y805863D01*
X600222Y806127D02*
X591045Y806127D01*
X589483Y809736D02*
X598660Y809736D01*
X597098Y813345D02*
X596420Y813345D01*
X607302Y789765D02*
X599573Y786420D01*
X596228Y794149D01*
X603957Y797494D01*
X607302Y789765D01*
X607188Y790029D02*
X598011Y790029D01*
X596449Y793638D02*
X605626Y793638D01*
X604064Y797247D02*
X603386Y797247D01*
D32*
X940700Y704900D03*
X915300Y704900D03*
X940700Y730300D03*
X915300Y730300D03*
X940700Y755700D03*
X915300Y755700D03*
X940700Y781100D03*
X915300Y781100D03*
D20*
X711000Y760000D03*
X721000Y760000D03*
D33*
X790000Y234500D03*
X790000Y161500D03*
X928000Y286500D03*
X928000Y359500D03*
X881000Y242500D03*
X881000Y169500D03*
X1024000Y268500D03*
X1024000Y341500D03*
X952000Y264500D03*
X952000Y191500D03*
D34*
X466000Y725000D03*
X447645Y717057D03*
X484355Y732943D03*
D35*
X425538Y730373D03*
X489781Y758173D03*
D36*
X542000Y782072D03*
X519056Y772143D03*
X564944Y792001D03*
D37*
X312125Y490500D03*
X312125Y484000D03*
X312125Y477500D03*
X312125Y471000D03*
X312125Y464500D03*
X312125Y458000D03*
X312125Y451500D03*
X368625Y451500D03*
X368625Y458000D03*
X368625Y464500D03*
X368625Y471000D03*
X368625Y477500D03*
X368625Y484000D03*
X368625Y490500D03*
D21*
X412500Y437000D03*
X393500Y437000D03*
X412500Y504000D03*
X393500Y504000D03*
D38*
X988000Y478500D03*
X988000Y463500D03*
X988000Y448500D03*
X988000Y493500D03*
X988000Y508500D03*
X988000Y433500D03*
D39*
X1039900Y407450D03*
X1039900Y534550D03*
D14*
X623000Y592500D03*
X623000Y605500D03*
D40*
X595350Y568000D03*
X595350Y516000D03*
X608050Y568000D03*
X582650Y568000D03*
X569950Y568000D03*
X608050Y516000D03*
X582650Y516000D03*
X569950Y516000D03*
D41*
G36*
X667365Y629474D02*
X646836Y608945D01*
X619945Y635836D01*
X640474Y656365D01*
X667365Y629474D01*
G37*
G36*
X726055Y688164D02*
X705526Y667635D01*
X678635Y694526D01*
X699164Y715055D01*
X726055Y688164D01*
G37*
D42*
X471000Y270000D03*
X471000Y284000D03*
X471000Y297000D03*
X459000Y270000D03*
X459000Y284000D03*
X459000Y297000D03*
X635000Y209000D03*
X635000Y223000D03*
X635000Y236000D03*
X647000Y209000D03*
X647000Y223000D03*
X1051000Y591000D03*
X1062000Y591000D03*
X1072000Y590000D03*
X1079000Y583000D03*
X1085000Y575000D03*
X1091000Y566000D03*
X1050000Y646000D03*
X647000Y236000D03*
X459000Y311000D03*
X471000Y311000D03*
X635000Y196000D03*
X647000Y196000D03*
X318000Y392000D03*
X318000Y378000D03*
X331000Y378000D03*
X344000Y378000D03*
X344000Y392000D03*
X331000Y392000D03*
D43*
X1095000Y331000D03*
D42*
X614000Y298000D03*
X653000Y315000D03*
X638000Y271000D03*
X672000Y291000D03*
X694000Y267000D03*
X715000Y291000D03*
X740000Y267000D03*
X769000Y286000D03*
X791000Y264000D03*
X840000Y303000D03*
X869000Y275000D03*
X907000Y304000D03*
X466000Y342200D03*
X467800Y419600D03*
X550800Y404600D03*
X566000Y389800D03*
X544600Y385600D03*
X588600Y363800D03*
X589000Y347400D03*
X590000Y320000D03*
X602400Y389000D03*
X537800Y408000D03*
X551000Y434000D03*
X1039000Y552000D03*
X578000Y707000D03*
X740000Y821000D03*
X806000Y834000D03*
X774000Y636000D03*
X969000Y553000D03*
X404000Y240000D03*
X1035000Y636000D03*
X530000Y220000D03*
X665000Y752000D03*
X768000Y752200D03*
X788700Y763000D03*
X798100Y748700D03*
X811400Y757400D03*
X754800Y776800D03*
X710500Y843000D03*
X643700Y707300D03*
X466300Y669300D03*
X868500Y753100D03*
X1060600Y694700D03*
X1041000Y725400D03*
X953100Y650500D03*
X793000Y665000D03*
X493000Y529000D03*
X860000Y186000D03*
X872000Y186000D03*
X883000Y186000D03*
X894000Y187000D03*
X375000Y307000D03*
X462000Y219000D03*
X735000Y173000D03*
X540000Y355000D03*
X361000Y507000D03*
D43*
X1094000Y386000D03*
D42*
X540800Y599800D03*
X498800Y619000D03*
X416000Y555400D03*
X374200Y578400D03*
X594000Y737400D03*
X902400Y819800D03*
X1104600Y621000D03*
X165800Y381000D03*
X194000Y360800D03*
X226800Y331600D03*
X256000Y344600D03*
X265800Y308200D03*
X305400Y283600D03*
X266000Y569000D03*
X296000Y569000D03*
X730000Y704000D03*
X646000Y737000D03*
X616700Y654300D03*
X933000Y396000D03*
X959000Y401000D03*
X961000Y427000D03*
X938000Y429000D03*
X743092Y669120D03*
X478000Y509000D03*
X526000Y537000D03*
X552000Y540000D03*
X732000Y725000D03*
X752000Y747400D03*
X963000Y699000D03*
X886000Y739000D03*
X783000Y697000D03*
X734000Y769000D03*
X564000Y716000D03*
X942000Y655000D03*
X953000Y448000D03*
X432000Y456000D03*
X626000Y807000D03*
X649000Y756000D03*
X870000Y650000D03*
X923000Y607000D03*
X950000Y601000D03*
X881000Y650000D03*
X910000Y620000D03*
X922000Y631000D03*
X819000Y677000D03*
X923000Y621000D03*
X814000Y666000D03*
X800000Y671000D03*
X971000Y463000D03*
X957000Y479000D03*
X887000Y622000D03*
X784000Y670000D03*
X949000Y498000D03*
X780000Y682000D03*
X884000Y612000D03*
X942000Y510000D03*
X760000Y712000D03*
X747000Y719000D03*
X441000Y494000D03*
X454209Y507791D03*
X356000Y468000D03*
X356000Y481000D03*
X816000Y737000D03*
X959000Y717000D03*
X727000Y781000D03*
X801000Y788000D03*
X820000Y769000D03*
X904000Y650000D03*
X961000Y560000D03*
X914000Y650000D03*
X952000Y565000D03*
X928000Y651000D03*
X946000Y574000D03*
X861000Y681000D03*
X645000Y669000D03*
X826000Y696000D03*
X668000Y696000D03*
X826000Y707000D03*
X979000Y651000D03*
X1026000Y646000D03*
X991000Y662000D03*
X1042000Y654000D03*
X515000Y707000D03*
X520000Y686000D03*
X577000Y448000D03*
X577000Y495000D03*
X319000Y552000D03*
X346000Y579000D03*
X956000Y580000D03*
X500000Y275000D03*
X368000Y419000D03*
X368000Y429000D03*
X430000Y325000D03*
X421000Y316000D03*
X499000Y318000D03*
X609000Y242000D03*
X599000Y236000D03*
X676000Y239000D03*
X952000Y589000D03*
X384000Y334000D03*
X398000Y327000D03*
X394000Y313000D03*
X389000Y297000D03*
X408000Y301000D03*
X426000Y297000D03*
X196000Y449000D03*
X200000Y437000D03*
X209000Y449000D03*
X214000Y438000D03*
X222000Y449000D03*
X227000Y438000D03*
X209000Y427000D03*
X223000Y427000D03*
X559000Y249000D03*
X577000Y249000D03*
X591000Y249000D03*
X559000Y235000D03*
X577000Y235000D03*
X576000Y218000D03*
X599000Y219000D03*
X606000Y207000D03*
X139000Y513000D03*
X136000Y496000D03*
X136000Y482000D03*
X136000Y469000D03*
X152000Y469000D03*
X165000Y468000D03*
X166000Y483000D03*
X150000Y483000D03*
X150000Y497000D03*
X165000Y500000D03*
X158000Y513000D03*
X926000Y808000D03*
X1006000Y679000D03*
X920136Y818776D03*
X1019000Y668068D03*
X1037000Y682000D03*
X999326Y772755D03*
X678000Y211000D03*
X363000Y309000D03*
X373000Y349000D03*
X829000Y681000D03*
X657000Y664000D03*
X1012000Y731000D03*
X996000Y724000D03*
X960000Y779000D03*
X511000Y534000D03*
D44*
X253764Y263338D02*
X614661Y107401D01*
X621030Y104762D01*
X653513Y93260D01*
X686875Y84632D01*
X720862Y78944D01*
X755215Y76241D01*
X789673Y76541D01*
X823973Y79844D01*
X857856Y86124D01*
X891062Y95333D01*
X923339Y107401D01*
X954441Y122236D01*
X984132Y139725D01*
X1012186Y159736D01*
X1038389Y182115D01*
X1062542Y206693D01*
X1084461Y233283D01*
X1103979Y261682D01*
X1120948Y291674D01*
X1135238Y323030D01*
X1146740Y355513D01*
X1155368Y388875D01*
X1161056Y422862D01*
X1163759Y457215D01*
X1163459Y491673D01*
X1160156Y525973D01*
X1153876Y559856D01*
X1144667Y593062D01*
X1132599Y625339D01*
X1117764Y656441D01*
X1100275Y686132D01*
X1080264Y714186D01*
X1057885Y740389D01*
X1033307Y764542D01*
X1006717Y786461D01*
X978318Y805979D01*
X948326Y822948D01*
X916970Y837238D01*
X884487Y848740D01*
X851125Y857368D01*
X817138Y863056D01*
X782785Y865759D01*
X748327Y865459D01*
X714027Y862156D01*
X680144Y855876D01*
X646938Y846667D01*
X614661Y834599D01*
X253764Y678662D01*
X236970Y670831D01*
X219947Y661058D01*
X203840Y649839D01*
X188773Y637258D01*
X174860Y623413D01*
X162206Y608407D01*
X150908Y592356D01*
X141052Y575381D01*
X132713Y557611D01*
X125955Y539183D01*
X120828Y520236D01*
X117372Y500913D01*
X115614Y481364D01*
X115566Y461735D01*
X117229Y442177D01*
X120590Y422838D01*
X125624Y403866D01*
X132292Y385404D01*
X140544Y367595D01*
X150317Y350572D01*
X161536Y334465D01*
X174117Y319398D01*
X187962Y305485D01*
X202968Y292831D01*
X219019Y281533D01*
X235994Y271677D01*
X253764Y263338D01*
X919000Y469159D02*
X918910Y465479D01*
X918729Y461801D01*
X918458Y458129D01*
X918097Y454465D01*
X917647Y450811D01*
X917106Y447169D01*
X916477Y443542D01*
X915759Y439931D01*
X914952Y436339D01*
X914057Y432767D01*
X913075Y429219D01*
X912007Y425696D01*
X910852Y422200D01*
X909611Y418733D01*
X908286Y415298D01*
X906877Y411897D01*
X905385Y408531D01*
X903811Y405203D01*
X902156Y401914D01*
X900420Y398667D01*
X898606Y395464D01*
X896713Y392306D01*
X894743Y389195D01*
X892698Y386134D01*
X890578Y383124D01*
X888385Y380167D01*
X886119Y377264D01*
X883784Y374418D01*
X881379Y371630D01*
X878906Y368902D01*
X876368Y366236D01*
X873764Y363632D01*
X871098Y361094D01*
X868370Y358621D01*
X865582Y356216D01*
X862736Y353881D01*
X859834Y351615D01*
X856876Y349422D01*
X853866Y347302D01*
X850805Y345257D01*
X847694Y343287D01*
X844536Y341394D01*
X841333Y339580D01*
X838086Y337844D01*
X834797Y336189D01*
X831469Y334615D01*
X828103Y333123D01*
X824702Y331714D01*
X821267Y330389D01*
X817800Y329148D01*
X814304Y327993D01*
X810781Y326925D01*
X807233Y325943D01*
X803661Y325048D01*
X800069Y324241D01*
X796458Y323523D01*
X792831Y322894D01*
X789189Y322353D01*
X785535Y321903D01*
X781871Y321542D01*
X778199Y321271D01*
X774522Y321090D01*
X770841Y321000D01*
X767159Y321000D01*
X763479Y321090D01*
X759801Y321271D01*
X756129Y321542D01*
X752465Y321903D01*
X748811Y322353D01*
X745169Y322894D01*
X741542Y323523D01*
X737931Y324241D01*
X734339Y325048D01*
X730767Y325943D01*
X727219Y326925D01*
X723696Y327993D01*
X720200Y329148D01*
X716733Y330389D01*
X713298Y331714D01*
X709897Y333123D01*
X706531Y334615D01*
X703203Y336189D01*
X699914Y337844D01*
X696667Y339580D01*
X693464Y341394D01*
X690306Y343287D01*
X687195Y345257D01*
X684134Y347302D01*
X681124Y349422D01*
X678167Y351615D01*
X675264Y353881D01*
X672418Y356216D01*
X669630Y358621D01*
X666902Y361094D01*
X664236Y363632D01*
X661632Y366236D01*
X659094Y368902D01*
X656621Y371630D01*
X654216Y374418D01*
X651881Y377264D01*
X649615Y380167D01*
X647422Y383124D01*
X645302Y386134D01*
X643257Y389195D01*
X641287Y392306D01*
X639394Y395464D01*
X637580Y398667D01*
X635844Y401914D01*
X634189Y405203D01*
X632615Y408531D01*
X631123Y411897D01*
X629714Y415298D01*
X628389Y418733D01*
X627148Y422200D01*
X625993Y425696D01*
X624925Y429219D01*
X623943Y432767D01*
X623048Y436339D01*
X622241Y439931D01*
X621523Y443542D01*
X620894Y447169D01*
X620353Y450811D01*
X619903Y454465D01*
X619542Y458129D01*
X619271Y461801D01*
X619090Y465479D01*
X619000Y469159D01*
X619000Y472841D01*
X619090Y476522D01*
X619271Y480199D01*
X619542Y483871D01*
X619903Y487535D01*
X620353Y491189D01*
X620894Y494831D01*
X621523Y498458D01*
X622241Y502069D01*
X623048Y505661D01*
X623943Y509233D01*
X624925Y512781D01*
X625993Y516304D01*
X627148Y519800D01*
X628389Y523267D01*
X629714Y526702D01*
X631123Y530103D01*
X632615Y533469D01*
X634189Y536797D01*
X635844Y540086D01*
X637580Y543333D01*
X639394Y546536D01*
X641287Y549694D01*
X643257Y552805D01*
X645302Y555866D01*
X647422Y558876D01*
X649615Y561834D01*
X651881Y564736D01*
X654216Y567582D01*
X656621Y570370D01*
X659094Y573098D01*
X661632Y575764D01*
X664236Y578368D01*
X666902Y580906D01*
X669630Y583379D01*
X672418Y585784D01*
X675264Y588119D01*
X678167Y590385D01*
X681124Y592578D01*
X684134Y594698D01*
X687195Y596743D01*
X690306Y598713D01*
X693464Y600606D01*
X696667Y602420D01*
X699914Y604156D01*
X703203Y605811D01*
X706531Y607385D01*
X709897Y608877D01*
X713298Y610286D01*
X716733Y611611D01*
X720200Y612852D01*
X723696Y614007D01*
X727219Y615075D01*
X730767Y616057D01*
X734339Y616952D01*
X737931Y617759D01*
X741542Y618477D01*
X745169Y619106D01*
X748811Y619647D01*
X752465Y620097D01*
X756129Y620458D01*
X759801Y620729D01*
X763479Y620910D01*
X767159Y621000D01*
X770841Y621000D01*
X774522Y620910D01*
X778199Y620729D01*
X781871Y620458D01*
X785535Y620097D01*
X789189Y619647D01*
X792831Y619106D01*
X796458Y618477D01*
X800069Y617759D01*
X803661Y616952D01*
X807233Y616057D01*
X810781Y615075D01*
X814304Y614007D01*
X817800Y612852D01*
X821267Y611611D01*
X824702Y610286D01*
X828103Y608877D01*
X831469Y607385D01*
X834797Y605811D01*
X838086Y604156D01*
X841333Y602420D01*
X844536Y600606D01*
X847694Y598713D01*
X850805Y596743D01*
X853866Y594698D01*
X856876Y592578D01*
X859834Y590385D01*
X862736Y588119D01*
X865582Y585784D01*
X868370Y583379D01*
X871098Y580906D01*
X873764Y578368D01*
X876368Y575764D01*
X878906Y573098D01*
X881379Y570370D01*
X883784Y567582D01*
X886119Y564736D01*
X888385Y561834D01*
X890578Y558876D01*
X892698Y555866D01*
X894743Y552805D01*
X896713Y549694D01*
X898606Y546536D01*
X900420Y543333D01*
X902156Y540086D01*
X903811Y536797D01*
X905385Y533469D01*
X906877Y530103D01*
X908286Y526702D01*
X909611Y523267D01*
X910852Y519800D01*
X912007Y516304D01*
X913075Y512781D01*
X914057Y509233D01*
X914952Y505661D01*
X915759Y502069D01*
X916477Y498458D01*
X917106Y494831D01*
X917647Y491189D01*
X918097Y487535D01*
X918458Y483871D01*
X918729Y480199D01*
X918910Y476522D01*
X919000Y472841D01*
X919000Y469159D01*
X1137000Y590607D02*
X1136923Y589825D01*
X1136770Y589054D01*
X1136541Y588302D01*
X1136241Y587575D01*
X1135870Y586882D01*
X1135433Y586229D01*
X1134935Y585621D01*
X1134379Y585065D01*
X1133771Y584567D01*
X1133118Y584130D01*
X1132425Y583759D01*
X1131698Y583459D01*
X1130946Y583230D01*
X1130175Y583077D01*
X1129393Y583000D01*
X1128607Y583000D01*
X1127825Y583077D01*
X1127054Y583230D01*
X1126302Y583459D01*
X1125575Y583759D01*
X1124882Y584130D01*
X1124229Y584567D01*
X1123621Y585065D01*
X1123065Y585621D01*
X1122567Y586229D01*
X1122130Y586882D01*
X1121759Y587575D01*
X1121459Y588302D01*
X1121230Y589054D01*
X1121077Y589825D01*
X1121000Y590607D01*
X1121000Y591393D01*
X1121077Y592175D01*
X1121230Y592946D01*
X1121459Y593698D01*
X1121759Y594425D01*
X1122130Y595118D01*
X1122567Y595771D01*
X1123065Y596379D01*
X1123621Y596935D01*
X1124229Y597433D01*
X1124882Y597870D01*
X1125575Y598241D01*
X1126302Y598541D01*
X1127054Y598770D01*
X1127825Y598923D01*
X1128607Y599000D01*
X1129393Y599000D01*
X1130175Y598923D01*
X1130946Y598770D01*
X1131698Y598541D01*
X1132425Y598241D01*
X1133118Y597870D01*
X1133771Y597433D01*
X1134379Y596935D01*
X1134935Y596379D01*
X1135433Y595771D01*
X1135870Y595118D01*
X1136241Y594425D01*
X1136541Y593698D01*
X1136770Y592946D01*
X1136923Y592175D01*
X1137000Y591393D01*
X1137000Y590607D01*
X1097000Y670607D02*
X1096923Y669825D01*
X1096770Y669054D01*
X1096541Y668302D01*
X1096241Y667575D01*
X1095870Y666882D01*
X1095433Y666229D01*
X1094935Y665621D01*
X1094379Y665065D01*
X1093771Y664567D01*
X1093118Y664130D01*
X1092425Y663759D01*
X1091698Y663459D01*
X1090946Y663230D01*
X1090175Y663077D01*
X1089393Y663000D01*
X1088607Y663000D01*
X1087825Y663077D01*
X1087054Y663230D01*
X1086302Y663459D01*
X1085575Y663759D01*
X1084882Y664130D01*
X1084229Y664567D01*
X1083621Y665065D01*
X1083065Y665621D01*
X1082567Y666229D01*
X1082130Y666882D01*
X1081759Y667575D01*
X1081459Y668302D01*
X1081230Y669054D01*
X1081077Y669825D01*
X1081000Y670607D01*
X1081000Y671393D01*
X1081077Y672175D01*
X1081230Y672946D01*
X1081459Y673698D01*
X1081759Y674425D01*
X1082130Y675118D01*
X1082567Y675771D01*
X1083065Y676379D01*
X1083621Y676935D01*
X1084229Y677433D01*
X1084882Y677870D01*
X1085575Y678241D01*
X1086302Y678541D01*
X1087054Y678770D01*
X1087825Y678923D01*
X1088607Y679000D01*
X1089393Y679000D01*
X1090175Y678923D01*
X1090946Y678770D01*
X1091698Y678541D01*
X1092425Y678241D01*
X1093118Y677870D01*
X1093771Y677433D01*
X1094379Y676935D01*
X1094935Y676379D01*
X1095433Y675771D01*
X1095870Y675118D01*
X1096241Y674425D01*
X1096541Y673698D01*
X1096770Y672946D01*
X1096923Y672175D01*
X1097000Y671393D01*
X1097000Y670607D01*
X753000Y845607D02*
X752923Y844825D01*
X752770Y844054D01*
X752541Y843302D01*
X752241Y842575D01*
X751870Y841882D01*
X751433Y841229D01*
X750935Y840621D01*
X750379Y840065D01*
X749771Y839567D01*
X749118Y839130D01*
X748425Y838759D01*
X747698Y838459D01*
X746946Y838230D01*
X746175Y838077D01*
X745393Y838000D01*
X744607Y838000D01*
X743825Y838077D01*
X743054Y838230D01*
X742302Y838459D01*
X741575Y838759D01*
X740882Y839130D01*
X740229Y839567D01*
X739621Y840065D01*
X739065Y840621D01*
X738567Y841229D01*
X738130Y841882D01*
X737759Y842575D01*
X737459Y843302D01*
X737230Y844054D01*
X737077Y844825D01*
X737000Y845607D01*
X737000Y846393D01*
X737077Y847175D01*
X737230Y847946D01*
X737459Y848698D01*
X737759Y849425D01*
X738130Y850118D01*
X738567Y850771D01*
X739065Y851379D01*
X739621Y851935D01*
X740229Y852433D01*
X740882Y852870D01*
X741575Y853241D01*
X742302Y853541D01*
X743054Y853770D01*
X743825Y853923D01*
X744607Y854000D01*
X745393Y854000D01*
X746175Y853923D01*
X746946Y853770D01*
X747698Y853541D01*
X748425Y853241D01*
X749118Y852870D01*
X749771Y852433D01*
X750379Y851935D01*
X750935Y851379D01*
X751433Y850771D01*
X751870Y850118D01*
X752241Y849425D01*
X752541Y848698D01*
X752770Y847946D01*
X752923Y847175D01*
X753000Y846393D01*
X753000Y845607D01*
X654000Y825607D02*
X653923Y824825D01*
X653770Y824054D01*
X653541Y823302D01*
X653241Y822575D01*
X652870Y821882D01*
X652433Y821229D01*
X651935Y820621D01*
X651379Y820065D01*
X650771Y819567D01*
X650118Y819130D01*
X649425Y818759D01*
X648698Y818459D01*
X647946Y818230D01*
X647175Y818077D01*
X646393Y818000D01*
X645607Y818000D01*
X644825Y818077D01*
X644054Y818230D01*
X643302Y818459D01*
X642575Y818759D01*
X641882Y819130D01*
X641229Y819567D01*
X640621Y820065D01*
X640065Y820621D01*
X639567Y821229D01*
X639130Y821882D01*
X638759Y822575D01*
X638459Y823302D01*
X638230Y824054D01*
X638077Y824825D01*
X638000Y825607D01*
X638000Y826393D01*
X638077Y827175D01*
X638230Y827946D01*
X638459Y828698D01*
X638759Y829425D01*
X639130Y830118D01*
X639567Y830771D01*
X640065Y831379D01*
X640621Y831935D01*
X641229Y832433D01*
X641882Y832870D01*
X642575Y833241D01*
X643302Y833541D01*
X644054Y833770D01*
X644825Y833923D01*
X645607Y834000D01*
X646393Y834000D01*
X647175Y833923D01*
X647946Y833770D01*
X648698Y833541D01*
X649425Y833241D01*
X650118Y832870D01*
X650771Y832433D01*
X651379Y831935D01*
X651935Y831379D01*
X652433Y830771D01*
X652870Y830118D01*
X653241Y829425D01*
X653541Y828698D01*
X653770Y827946D01*
X653923Y827175D01*
X654000Y826393D01*
X654000Y825607D01*
X1149000Y509607D02*
X1148923Y508825D01*
X1148770Y508054D01*
X1148541Y507302D01*
X1148241Y506575D01*
X1147870Y505882D01*
X1147433Y505229D01*
X1146935Y504621D01*
X1146379Y504065D01*
X1145771Y503567D01*
X1145118Y503130D01*
X1144425Y502759D01*
X1143698Y502459D01*
X1142946Y502230D01*
X1142175Y502077D01*
X1141393Y502000D01*
X1140607Y502000D01*
X1139825Y502077D01*
X1139054Y502230D01*
X1138302Y502459D01*
X1137575Y502759D01*
X1136882Y503130D01*
X1136229Y503567D01*
X1135621Y504065D01*
X1135065Y504621D01*
X1134567Y505229D01*
X1134130Y505882D01*
X1133759Y506575D01*
X1133459Y507302D01*
X1133230Y508054D01*
X1133077Y508825D01*
X1133000Y509607D01*
X1133000Y510393D01*
X1133077Y511175D01*
X1133230Y511946D01*
X1133459Y512698D01*
X1133759Y513425D01*
X1134130Y514118D01*
X1134567Y514771D01*
X1135065Y515379D01*
X1135621Y515935D01*
X1136229Y516433D01*
X1136882Y516870D01*
X1137575Y517241D01*
X1138302Y517541D01*
X1139054Y517770D01*
X1139825Y517923D01*
X1140607Y518000D01*
X1141393Y518000D01*
X1142175Y517923D01*
X1142946Y517770D01*
X1143698Y517541D01*
X1144425Y517241D01*
X1145118Y516870D01*
X1145771Y516433D01*
X1146379Y515935D01*
X1146935Y515379D01*
X1147433Y514771D01*
X1147870Y514118D01*
X1148241Y513425D01*
X1148541Y512698D01*
X1148770Y511946D01*
X1148923Y511175D01*
X1149000Y510393D01*
X1149000Y509607D01*
X1148400Y433007D02*
X1148323Y432225D01*
X1148170Y431454D01*
X1147941Y430702D01*
X1147641Y429975D01*
X1147270Y429282D01*
X1146833Y428629D01*
X1146335Y428021D01*
X1145779Y427465D01*
X1145171Y426967D01*
X1144518Y426530D01*
X1143825Y426159D01*
X1143098Y425859D01*
X1142346Y425630D01*
X1141575Y425477D01*
X1140793Y425400D01*
X1140007Y425400D01*
X1139225Y425477D01*
X1138454Y425630D01*
X1137702Y425859D01*
X1136975Y426159D01*
X1136282Y426530D01*
X1135629Y426967D01*
X1135021Y427465D01*
X1134465Y428021D01*
X1133967Y428629D01*
X1133530Y429282D01*
X1133159Y429975D01*
X1132859Y430702D01*
X1132630Y431454D01*
X1132477Y432225D01*
X1132400Y433007D01*
X1132400Y433793D01*
X1132477Y434575D01*
X1132630Y435346D01*
X1132859Y436098D01*
X1133159Y436825D01*
X1133530Y437518D01*
X1133967Y438171D01*
X1134465Y438779D01*
X1135021Y439335D01*
X1135629Y439833D01*
X1136282Y440270D01*
X1136975Y440641D01*
X1137702Y440941D01*
X1138454Y441170D01*
X1139225Y441323D01*
X1140007Y441400D01*
X1140793Y441400D01*
X1141575Y441323D01*
X1142346Y441170D01*
X1143098Y440941D01*
X1143825Y440641D01*
X1144518Y440270D01*
X1145171Y439833D01*
X1145779Y439335D01*
X1146335Y438779D01*
X1146833Y438171D01*
X1147270Y437518D01*
X1147641Y436825D01*
X1147941Y436098D01*
X1148170Y435346D01*
X1148323Y434575D01*
X1148400Y433793D01*
X1148400Y433007D01*
X279200Y278607D02*
X279123Y277825D01*
X278970Y277054D01*
X278741Y276302D01*
X278441Y275575D01*
X278070Y274882D01*
X277633Y274229D01*
X277135Y273621D01*
X276579Y273065D01*
X275971Y272567D01*
X275318Y272130D01*
X274625Y271759D01*
X273898Y271459D01*
X273146Y271230D01*
X272375Y271077D01*
X271593Y271000D01*
X270807Y271000D01*
X270025Y271077D01*
X269254Y271230D01*
X268502Y271459D01*
X267775Y271759D01*
X267082Y272130D01*
X266429Y272567D01*
X265821Y273065D01*
X265265Y273621D01*
X264767Y274229D01*
X264330Y274882D01*
X263959Y275575D01*
X263659Y276302D01*
X263430Y277054D01*
X263277Y277825D01*
X263200Y278607D01*
X263200Y279393D01*
X263277Y280175D01*
X263430Y280946D01*
X263659Y281698D01*
X263959Y282425D01*
X264330Y283118D01*
X264767Y283771D01*
X265265Y284379D01*
X265821Y284935D01*
X266429Y285433D01*
X267082Y285870D01*
X267775Y286241D01*
X268502Y286541D01*
X269254Y286770D01*
X270025Y286923D01*
X270807Y287000D01*
X271593Y287000D01*
X272375Y286923D01*
X273146Y286770D01*
X273898Y286541D01*
X274625Y286241D01*
X275318Y285870D01*
X275971Y285433D01*
X276579Y284935D01*
X277135Y284379D01*
X277633Y283771D01*
X278070Y283118D01*
X278441Y282425D01*
X278741Y281698D01*
X278970Y280946D01*
X279123Y280175D01*
X279200Y279393D01*
X279200Y278607D01*
X181800Y348607D02*
X181723Y347825D01*
X181570Y347054D01*
X181341Y346302D01*
X181041Y345575D01*
X180670Y344882D01*
X180233Y344229D01*
X179735Y343621D01*
X179179Y343065D01*
X178571Y342567D01*
X177918Y342130D01*
X177225Y341759D01*
X176498Y341459D01*
X175746Y341230D01*
X174975Y341077D01*
X174193Y341000D01*
X173407Y341000D01*
X172625Y341077D01*
X171854Y341230D01*
X171102Y341459D01*
X170375Y341759D01*
X169682Y342130D01*
X169029Y342567D01*
X168421Y343065D01*
X167865Y343621D01*
X167367Y344229D01*
X166930Y344882D01*
X166559Y345575D01*
X166259Y346302D01*
X166030Y347054D01*
X165877Y347825D01*
X165800Y348607D01*
X165800Y349393D01*
X165877Y350175D01*
X166030Y350946D01*
X166259Y351698D01*
X166559Y352425D01*
X166930Y353118D01*
X167367Y353771D01*
X167865Y354379D01*
X168421Y354935D01*
X169029Y355433D01*
X169682Y355870D01*
X170375Y356241D01*
X171102Y356541D01*
X171854Y356770D01*
X172625Y356923D01*
X173407Y357000D01*
X174193Y357000D01*
X174975Y356923D01*
X175746Y356770D01*
X176498Y356541D01*
X177225Y356241D01*
X177918Y355870D01*
X178571Y355433D01*
X179179Y354935D01*
X179735Y354379D01*
X180233Y353771D01*
X180670Y353118D01*
X181041Y352425D01*
X181341Y351698D01*
X181570Y350946D01*
X181723Y350175D01*
X181800Y349393D01*
X181800Y348607D01*
X279200Y662607D02*
X279123Y661825D01*
X278970Y661054D01*
X278741Y660302D01*
X278441Y659575D01*
X278070Y658882D01*
X277633Y658229D01*
X277135Y657621D01*
X276579Y657065D01*
X275971Y656567D01*
X275318Y656130D01*
X274625Y655759D01*
X273898Y655459D01*
X273146Y655230D01*
X272375Y655077D01*
X271593Y655000D01*
X270807Y655000D01*
X270025Y655077D01*
X269254Y655230D01*
X268502Y655459D01*
X267775Y655759D01*
X267082Y656130D01*
X266429Y656567D01*
X265821Y657065D01*
X265265Y657621D01*
X264767Y658229D01*
X264330Y658882D01*
X263959Y659575D01*
X263659Y660302D01*
X263430Y661054D01*
X263277Y661825D01*
X263200Y662607D01*
X263200Y663393D01*
X263277Y664175D01*
X263430Y664946D01*
X263659Y665698D01*
X263959Y666425D01*
X264330Y667118D01*
X264767Y667771D01*
X265265Y668379D01*
X265821Y668935D01*
X266429Y669433D01*
X267082Y669870D01*
X267775Y670241D01*
X268502Y670541D01*
X269254Y670770D01*
X270025Y670923D01*
X270807Y671000D01*
X271593Y671000D01*
X272375Y670923D01*
X273146Y670770D01*
X273898Y670541D01*
X274625Y670241D01*
X275318Y669870D01*
X275971Y669433D01*
X276579Y668935D01*
X277135Y668379D01*
X277633Y667771D01*
X278070Y667118D01*
X278441Y666425D01*
X278741Y665698D01*
X278970Y664946D01*
X279123Y664175D01*
X279200Y663393D01*
X279200Y662607D01*
X181800Y592607D02*
X181723Y591825D01*
X181570Y591054D01*
X181341Y590302D01*
X181041Y589575D01*
X180670Y588882D01*
X180233Y588229D01*
X179735Y587621D01*
X179179Y587065D01*
X178571Y586567D01*
X177918Y586130D01*
X177225Y585759D01*
X176498Y585459D01*
X175746Y585230D01*
X174975Y585077D01*
X174193Y585000D01*
X173407Y585000D01*
X172625Y585077D01*
X171854Y585230D01*
X171102Y585459D01*
X170375Y585759D01*
X169682Y586130D01*
X169029Y586567D01*
X168421Y587065D01*
X167865Y587621D01*
X167367Y588229D01*
X166930Y588882D01*
X166559Y589575D01*
X166259Y590302D01*
X166030Y591054D01*
X165877Y591825D01*
X165800Y592607D01*
X165800Y593393D01*
X165877Y594175D01*
X166030Y594946D01*
X166259Y595698D01*
X166559Y596425D01*
X166930Y597118D01*
X167367Y597771D01*
X167865Y598379D01*
X168421Y598935D01*
X169029Y599433D01*
X169682Y599870D01*
X170375Y600241D01*
X171102Y600541D01*
X171854Y600770D01*
X172625Y600923D01*
X173407Y601000D01*
X174193Y601000D01*
X174975Y600923D01*
X175746Y600770D01*
X176498Y600541D01*
X177225Y600241D01*
X177918Y599870D01*
X178571Y599433D01*
X179179Y598935D01*
X179735Y598379D01*
X180233Y597771D01*
X180670Y597118D01*
X181041Y596425D01*
X181341Y595698D01*
X181570Y594946D01*
X181723Y594175D01*
X181800Y593393D01*
X181800Y592607D01*
X1137000Y590607D02*
X1136923Y589825D01*
X1136770Y589054D01*
X1136541Y588302D01*
X1136241Y587575D01*
X1135870Y586882D01*
X1135433Y586229D01*
X1134935Y585621D01*
X1134379Y585065D01*
X1133771Y584567D01*
X1133118Y584130D01*
X1132425Y583759D01*
X1131698Y583459D01*
X1130946Y583230D01*
X1130175Y583077D01*
X1129393Y583000D01*
X1128607Y583000D01*
X1127825Y583077D01*
X1127054Y583230D01*
X1126302Y583459D01*
X1125575Y583759D01*
X1124882Y584130D01*
X1124229Y584567D01*
X1123621Y585065D01*
X1123065Y585621D01*
X1122567Y586229D01*
X1122130Y586882D01*
X1121759Y587575D01*
X1121459Y588302D01*
X1121230Y589054D01*
X1121077Y589825D01*
X1121000Y590607D01*
X1121000Y591393D01*
X1121077Y592175D01*
X1121230Y592946D01*
X1121459Y593698D01*
X1121759Y594425D01*
X1122130Y595118D01*
X1122567Y595771D01*
X1123065Y596379D01*
X1123621Y596935D01*
X1124229Y597433D01*
X1124882Y597870D01*
X1125575Y598241D01*
X1126302Y598541D01*
X1127054Y598770D01*
X1127825Y598923D01*
X1128607Y599000D01*
X1129393Y599000D01*
X1130175Y598923D01*
X1130946Y598770D01*
X1131698Y598541D01*
X1132425Y598241D01*
X1133118Y597870D01*
X1133771Y597433D01*
X1134379Y596935D01*
X1134935Y596379D01*
X1135433Y595771D01*
X1135870Y595118D01*
X1136241Y594425D01*
X1136541Y593698D01*
X1136770Y592946D01*
X1136923Y592175D01*
X1137000Y591393D01*
X1137000Y590607D01*
X1097000Y670607D02*
X1096923Y669825D01*
X1096770Y669054D01*
X1096541Y668302D01*
X1096241Y667575D01*
X1095870Y666882D01*
X1095433Y666229D01*
X1094935Y665621D01*
X1094379Y665065D01*
X1093771Y664567D01*
X1093118Y664130D01*
X1092425Y663759D01*
X1091698Y663459D01*
X1090946Y663230D01*
X1090175Y663077D01*
X1089393Y663000D01*
X1088607Y663000D01*
X1087825Y663077D01*
X1087054Y663230D01*
X1086302Y663459D01*
X1085575Y663759D01*
X1084882Y664130D01*
X1084229Y664567D01*
X1083621Y665065D01*
X1083065Y665621D01*
X1082567Y666229D01*
X1082130Y666882D01*
X1081759Y667575D01*
X1081459Y668302D01*
X1081230Y669054D01*
X1081077Y669825D01*
X1081000Y670607D01*
X1081000Y671393D01*
X1081077Y672175D01*
X1081230Y672946D01*
X1081459Y673698D01*
X1081759Y674425D01*
X1082130Y675118D01*
X1082567Y675771D01*
X1083065Y676379D01*
X1083621Y676935D01*
X1084229Y677433D01*
X1084882Y677870D01*
X1085575Y678241D01*
X1086302Y678541D01*
X1087054Y678770D01*
X1087825Y678923D01*
X1088607Y679000D01*
X1089393Y679000D01*
X1090175Y678923D01*
X1090946Y678770D01*
X1091698Y678541D01*
X1092425Y678241D01*
X1093118Y677870D01*
X1093771Y677433D01*
X1094379Y676935D01*
X1094935Y676379D01*
X1095433Y675771D01*
X1095870Y675118D01*
X1096241Y674425D01*
X1096541Y673698D01*
X1096770Y672946D01*
X1096923Y672175D01*
X1097000Y671393D01*
X1097000Y670607D01*
X753000Y845607D02*
X752923Y844825D01*
X752770Y844054D01*
X752541Y843302D01*
X752241Y842575D01*
X751870Y841882D01*
X751433Y841229D01*
X750935Y840621D01*
X750379Y840065D01*
X749771Y839567D01*
X749118Y839130D01*
X748425Y838759D01*
X747698Y838459D01*
X746946Y838230D01*
X746175Y838077D01*
X745393Y838000D01*
X744607Y838000D01*
X743825Y838077D01*
X743054Y838230D01*
X742302Y838459D01*
X741575Y838759D01*
X740882Y839130D01*
X740229Y839567D01*
X739621Y840065D01*
X739065Y840621D01*
X738567Y841229D01*
X738130Y841882D01*
X737759Y842575D01*
X737459Y843302D01*
X737230Y844054D01*
X737077Y844825D01*
X737000Y845607D01*
X737000Y846393D01*
X737077Y847175D01*
X737230Y847946D01*
X737459Y848698D01*
X737759Y849425D01*
X738130Y850118D01*
X738567Y850771D01*
X739065Y851379D01*
X739621Y851935D01*
X740229Y852433D01*
X740882Y852870D01*
X741575Y853241D01*
X742302Y853541D01*
X743054Y853770D01*
X743825Y853923D01*
X744607Y854000D01*
X745393Y854000D01*
X746175Y853923D01*
X746946Y853770D01*
X747698Y853541D01*
X748425Y853241D01*
X749118Y852870D01*
X749771Y852433D01*
X750379Y851935D01*
X750935Y851379D01*
X751433Y850771D01*
X751870Y850118D01*
X752241Y849425D01*
X752541Y848698D01*
X752770Y847946D01*
X752923Y847175D01*
X753000Y846393D01*
X753000Y845607D01*
X654000Y825607D02*
X653923Y824825D01*
X653770Y824054D01*
X653541Y823302D01*
X653241Y822575D01*
X652870Y821882D01*
X652433Y821229D01*
X651935Y820621D01*
X651379Y820065D01*
X650771Y819567D01*
X650118Y819130D01*
X649425Y818759D01*
X648698Y818459D01*
X647946Y818230D01*
X647175Y818077D01*
X646393Y818000D01*
X645607Y818000D01*
X644825Y818077D01*
X644054Y818230D01*
X643302Y818459D01*
X642575Y818759D01*
X641882Y819130D01*
X641229Y819567D01*
X640621Y820065D01*
X640065Y820621D01*
X639567Y821229D01*
X639130Y821882D01*
X638759Y822575D01*
X638459Y823302D01*
X638230Y824054D01*
X638077Y824825D01*
X638000Y825607D01*
X638000Y826393D01*
X638077Y827175D01*
X638230Y827946D01*
X638459Y828698D01*
X638759Y829425D01*
X639130Y830118D01*
X639567Y830771D01*
X640065Y831379D01*
X640621Y831935D01*
X641229Y832433D01*
X641882Y832870D01*
X642575Y833241D01*
X643302Y833541D01*
X644054Y833770D01*
X644825Y833923D01*
X645607Y834000D01*
X646393Y834000D01*
X647175Y833923D01*
X647946Y833770D01*
X648698Y833541D01*
X649425Y833241D01*
X650118Y832870D01*
X650771Y832433D01*
X651379Y831935D01*
X651935Y831379D01*
X652433Y830771D01*
X652870Y830118D01*
X653241Y829425D01*
X653541Y828698D01*
X653770Y827946D01*
X653923Y827175D01*
X654000Y826393D01*
X654000Y825607D01*
X1149000Y509607D02*
X1148923Y508825D01*
X1148770Y508054D01*
X1148541Y507302D01*
X1148241Y506575D01*
X1147870Y505882D01*
X1147433Y505229D01*
X1146935Y504621D01*
X1146379Y504065D01*
X1145771Y503567D01*
X1145118Y503130D01*
X1144425Y502759D01*
X1143698Y502459D01*
X1142946Y502230D01*
X1142175Y502077D01*
X1141393Y502000D01*
X1140607Y502000D01*
X1139825Y502077D01*
X1139054Y502230D01*
X1138302Y502459D01*
X1137575Y502759D01*
X1136882Y503130D01*
X1136229Y503567D01*
X1135621Y504065D01*
X1135065Y504621D01*
X1134567Y505229D01*
X1134130Y505882D01*
X1133759Y506575D01*
X1133459Y507302D01*
X1133230Y508054D01*
X1133077Y508825D01*
X1133000Y509607D01*
X1133000Y510393D01*
X1133077Y511175D01*
X1133230Y511946D01*
X1133459Y512698D01*
X1133759Y513425D01*
X1134130Y514118D01*
X1134567Y514771D01*
X1135065Y515379D01*
X1135621Y515935D01*
X1136229Y516433D01*
X1136882Y516870D01*
X1137575Y517241D01*
X1138302Y517541D01*
X1139054Y517770D01*
X1139825Y517923D01*
X1140607Y518000D01*
X1141393Y518000D01*
X1142175Y517923D01*
X1142946Y517770D01*
X1143698Y517541D01*
X1144425Y517241D01*
X1145118Y516870D01*
X1145771Y516433D01*
X1146379Y515935D01*
X1146935Y515379D01*
X1147433Y514771D01*
X1147870Y514118D01*
X1148241Y513425D01*
X1148541Y512698D01*
X1148770Y511946D01*
X1148923Y511175D01*
X1149000Y510393D01*
X1149000Y509607D01*
X1148400Y433007D02*
X1148323Y432225D01*
X1148170Y431454D01*
X1147941Y430702D01*
X1147641Y429975D01*
X1147270Y429282D01*
X1146833Y428629D01*
X1146335Y428021D01*
X1145779Y427465D01*
X1145171Y426967D01*
X1144518Y426530D01*
X1143825Y426159D01*
X1143098Y425859D01*
X1142346Y425630D01*
X1141575Y425477D01*
X1140793Y425400D01*
X1140007Y425400D01*
X1139225Y425477D01*
X1138454Y425630D01*
X1137702Y425859D01*
X1136975Y426159D01*
X1136282Y426530D01*
X1135629Y426967D01*
X1135021Y427465D01*
X1134465Y428021D01*
X1133967Y428629D01*
X1133530Y429282D01*
X1133159Y429975D01*
X1132859Y430702D01*
X1132630Y431454D01*
X1132477Y432225D01*
X1132400Y433007D01*
X1132400Y433793D01*
X1132477Y434575D01*
X1132630Y435346D01*
X1132859Y436098D01*
X1133159Y436825D01*
X1133530Y437518D01*
X1133967Y438171D01*
X1134465Y438779D01*
X1135021Y439335D01*
X1135629Y439833D01*
X1136282Y440270D01*
X1136975Y440641D01*
X1137702Y440941D01*
X1138454Y441170D01*
X1139225Y441323D01*
X1140007Y441400D01*
X1140793Y441400D01*
X1141575Y441323D01*
X1142346Y441170D01*
X1143098Y440941D01*
X1143825Y440641D01*
X1144518Y440270D01*
X1145171Y439833D01*
X1145779Y439335D01*
X1146335Y438779D01*
X1146833Y438171D01*
X1147270Y437518D01*
X1147641Y436825D01*
X1147941Y436098D01*
X1148170Y435346D01*
X1148323Y434575D01*
X1148400Y433793D01*
X1148400Y433007D01*
X279200Y278607D02*
X279123Y277825D01*
X278970Y277054D01*
X278741Y276302D01*
X278441Y275575D01*
X278070Y274882D01*
X277633Y274229D01*
X277135Y273621D01*
X276579Y273065D01*
X275971Y272567D01*
X275318Y272130D01*
X274625Y271759D01*
X273898Y271459D01*
X273146Y271230D01*
X272375Y271077D01*
X271593Y271000D01*
X270807Y271000D01*
X270025Y271077D01*
X269254Y271230D01*
X268502Y271459D01*
X267775Y271759D01*
X267082Y272130D01*
X266429Y272567D01*
X265821Y273065D01*
X265265Y273621D01*
X264767Y274229D01*
X264330Y274882D01*
X263959Y275575D01*
X263659Y276302D01*
X263430Y277054D01*
X263277Y277825D01*
X263200Y278607D01*
X263200Y279393D01*
X263277Y280175D01*
X263430Y280946D01*
X263659Y281698D01*
X263959Y282425D01*
X264330Y283118D01*
X264767Y283771D01*
X265265Y284379D01*
X265821Y284935D01*
X266429Y285433D01*
X267082Y285870D01*
X267775Y286241D01*
X268502Y286541D01*
X269254Y286770D01*
X270025Y286923D01*
X270807Y287000D01*
X271593Y287000D01*
X272375Y286923D01*
X273146Y286770D01*
X273898Y286541D01*
X274625Y286241D01*
X275318Y285870D01*
X275971Y285433D01*
X276579Y284935D01*
X277135Y284379D01*
X277633Y283771D01*
X278070Y283118D01*
X278441Y282425D01*
X278741Y281698D01*
X278970Y280946D01*
X279123Y280175D01*
X279200Y279393D01*
X279200Y278607D01*
X181800Y348607D02*
X181723Y347825D01*
X181570Y347054D01*
X181341Y346302D01*
X181041Y345575D01*
X180670Y344882D01*
X180233Y344229D01*
X179735Y343621D01*
X179179Y343065D01*
X178571Y342567D01*
X177918Y342130D01*
X177225Y341759D01*
X176498Y341459D01*
X175746Y341230D01*
X174975Y341077D01*
X174193Y341000D01*
X173407Y341000D01*
X172625Y341077D01*
X171854Y341230D01*
X171102Y341459D01*
X170375Y341759D01*
X169682Y342130D01*
X169029Y342567D01*
X168421Y343065D01*
X167865Y343621D01*
X167367Y344229D01*
X166930Y344882D01*
X166559Y345575D01*
X166259Y346302D01*
X166030Y347054D01*
X165877Y347825D01*
X165800Y348607D01*
X165800Y349393D01*
X165877Y350175D01*
X166030Y350946D01*
X166259Y351698D01*
X166559Y352425D01*
X166930Y353118D01*
X167367Y353771D01*
X167865Y354379D01*
X168421Y354935D01*
X169029Y355433D01*
X169682Y355870D01*
X170375Y356241D01*
X171102Y356541D01*
X171854Y356770D01*
X172625Y356923D01*
X173407Y357000D01*
X174193Y357000D01*
X174975Y356923D01*
X175746Y356770D01*
X176498Y356541D01*
X177225Y356241D01*
X177918Y355870D01*
X178571Y355433D01*
X179179Y354935D01*
X179735Y354379D01*
X180233Y353771D01*
X180670Y353118D01*
X181041Y352425D01*
X181341Y351698D01*
X181570Y350946D01*
X181723Y350175D01*
X181800Y349393D01*
X181800Y348607D01*
X279200Y662607D02*
X279123Y661825D01*
X278970Y661054D01*
X278741Y660302D01*
X278441Y659575D01*
X278070Y658882D01*
X277633Y658229D01*
X277135Y657621D01*
X276579Y657065D01*
X275971Y656567D01*
X275318Y656130D01*
X274625Y655759D01*
X273898Y655459D01*
X273146Y655230D01*
X272375Y655077D01*
X271593Y655000D01*
X270807Y655000D01*
X270025Y655077D01*
X269254Y655230D01*
X268502Y655459D01*
X267775Y655759D01*
X267082Y656130D01*
X266429Y656567D01*
X265821Y657065D01*
X265265Y657621D01*
X264767Y658229D01*
X264330Y658882D01*
X263959Y659575D01*
X263659Y660302D01*
X263430Y661054D01*
X263277Y661825D01*
X263200Y662607D01*
X263200Y663393D01*
X263277Y664175D01*
X263430Y664946D01*
X263659Y665698D01*
X263959Y666425D01*
X264330Y667118D01*
X264767Y667771D01*
X265265Y668379D01*
X265821Y668935D01*
X266429Y669433D01*
X267082Y669870D01*
X267775Y670241D01*
X268502Y670541D01*
X269254Y670770D01*
X270025Y670923D01*
X270807Y671000D01*
X271593Y671000D01*
X272375Y670923D01*
X273146Y670770D01*
X273898Y670541D01*
X274625Y670241D01*
X275318Y669870D01*
X275971Y669433D01*
X276579Y668935D01*
X277135Y668379D01*
X277633Y667771D01*
X278070Y667118D01*
X278441Y666425D01*
X278741Y665698D01*
X278970Y664946D01*
X279123Y664175D01*
X279200Y663393D01*
X279200Y662607D01*
X181800Y592607D02*
X181723Y591825D01*
X181570Y591054D01*
X181341Y590302D01*
X181041Y589575D01*
X180670Y588882D01*
X180233Y588229D01*
X179735Y587621D01*
X179179Y587065D01*
X178571Y586567D01*
X177918Y586130D01*
X177225Y585759D01*
X176498Y585459D01*
X175746Y585230D01*
X174975Y585077D01*
X174193Y585000D01*
X173407Y585000D01*
X172625Y585077D01*
X171854Y585230D01*
X171102Y585459D01*
X170375Y585759D01*
X169682Y586130D01*
X169029Y586567D01*
X168421Y587065D01*
X167865Y587621D01*
X167367Y588229D01*
X166930Y588882D01*
X166559Y589575D01*
X166259Y590302D01*
X166030Y591054D01*
X165877Y591825D01*
X165800Y592607D01*
X165800Y593393D01*
X165877Y594175D01*
X166030Y594946D01*
X166259Y595698D01*
X166559Y596425D01*
X166930Y597118D01*
X167367Y597771D01*
X167865Y598379D01*
X168421Y598935D01*
X169029Y599433D01*
X169682Y599870D01*
X170375Y600241D01*
X171102Y600541D01*
X171854Y600770D01*
X172625Y600923D01*
X173407Y601000D01*
X174193Y601000D01*
X174975Y600923D01*
X175746Y600770D01*
X176498Y600541D01*
X177225Y600241D01*
X177918Y599870D01*
X178571Y599433D01*
X179179Y598935D01*
X179735Y598379D01*
X180233Y597771D01*
X180670Y597118D01*
X181041Y596425D01*
X181341Y595698D01*
X181570Y594946D01*
X181723Y594175D01*
X181800Y593393D01*
X181800Y592607D01*
M02*
