G04 EAGLE Gerber X2 export*
G75*
%MOMM*%
%FSLAX34Y34*%
%LPD*%
%AMOC8*
5,1,8,0,0,1.08239X$1,22.5*%
G01*
%ADD10C,1.508000*%
%ADD11C,1.524000*%
%ADD12C,1.208000*%
%ADD13C,1.650000*%
%ADD14C,1.308000*%
%ADD15C,0.756400*%
%ADD16C,2.514600*%
%ADD17C,0.406400*%
%ADD18C,0.152400*%
%ADD19C,0.508000*%
%ADD20C,0.254000*%

G36*
X781086Y87117D02*
X781086Y87117D01*
X781133Y87115D01*
X817880Y90047D01*
X817905Y90053D01*
X817952Y90056D01*
X854247Y96504D01*
X854272Y96512D01*
X854319Y96520D01*
X889826Y106424D01*
X889850Y106435D01*
X889896Y106447D01*
X924288Y119716D01*
X924310Y119729D01*
X924355Y119746D01*
X957313Y136257D01*
X957334Y136272D01*
X957377Y136293D01*
X988597Y155894D01*
X988616Y155911D01*
X988657Y155936D01*
X1017850Y178445D01*
X1017868Y178464D01*
X1017906Y178492D01*
X1044801Y203702D01*
X1044817Y203722D01*
X1044852Y203754D01*
X1069202Y231431D01*
X1069216Y231453D01*
X1069248Y231488D01*
X1090826Y261375D01*
X1090838Y261398D01*
X1090866Y261436D01*
X1109474Y293258D01*
X1109483Y293283D01*
X1109508Y293323D01*
X1124973Y326785D01*
X1124980Y326810D01*
X1125001Y326853D01*
X1137180Y361646D01*
X1137184Y361672D01*
X1137201Y361716D01*
X1145982Y397518D01*
X1145984Y397544D01*
X1145996Y397590D01*
X1148659Y415918D01*
X1148657Y416008D01*
X1148658Y416012D01*
X1148657Y416015D01*
X1148657Y416019D01*
X1148661Y416119D01*
X1148655Y416141D01*
X1148655Y416164D01*
X1148621Y416259D01*
X1148593Y416355D01*
X1148580Y416374D01*
X1148572Y416396D01*
X1148510Y416475D01*
X1148453Y416557D01*
X1148434Y416571D01*
X1148420Y416589D01*
X1148336Y416644D01*
X1148255Y416704D01*
X1148233Y416711D01*
X1148214Y416724D01*
X1148117Y416749D01*
X1148021Y416780D01*
X1147998Y416780D01*
X1147976Y416786D01*
X1147876Y416779D01*
X1147775Y416778D01*
X1147748Y416770D01*
X1147731Y416769D01*
X1147700Y416756D01*
X1147614Y416731D01*
X1144012Y415239D01*
X1136788Y415239D01*
X1130113Y418004D01*
X1125004Y423113D01*
X1122239Y429788D01*
X1122239Y437012D01*
X1125004Y443687D01*
X1130113Y448796D01*
X1136788Y451561D01*
X1144012Y451561D01*
X1150687Y448796D01*
X1150732Y448751D01*
X1150776Y448719D01*
X1150813Y448681D01*
X1150875Y448648D01*
X1150932Y448607D01*
X1150983Y448591D01*
X1151031Y448566D01*
X1151100Y448555D01*
X1151167Y448535D01*
X1151221Y448536D01*
X1151274Y448528D01*
X1151343Y448539D01*
X1151413Y448541D01*
X1151463Y448559D01*
X1151516Y448568D01*
X1151578Y448601D01*
X1151644Y448625D01*
X1151686Y448659D01*
X1151733Y448684D01*
X1151781Y448735D01*
X1151836Y448779D01*
X1151865Y448824D01*
X1151902Y448863D01*
X1151931Y448927D01*
X1151969Y448986D01*
X1151982Y449038D01*
X1152005Y449087D01*
X1152022Y449197D01*
X1152029Y449225D01*
X1152029Y449235D01*
X1152031Y449252D01*
X1153076Y470963D01*
X1153073Y470989D01*
X1153076Y471037D01*
X1151981Y493789D01*
X1151975Y493816D01*
X1151976Y493844D01*
X1151950Y493936D01*
X1151930Y494030D01*
X1151916Y494053D01*
X1151908Y494080D01*
X1151853Y494159D01*
X1151804Y494241D01*
X1151783Y494259D01*
X1151768Y494282D01*
X1151691Y494339D01*
X1151618Y494402D01*
X1151592Y494412D01*
X1151570Y494429D01*
X1151479Y494459D01*
X1151390Y494495D01*
X1151363Y494496D01*
X1151336Y494505D01*
X1151240Y494504D01*
X1151145Y494510D01*
X1151118Y494503D01*
X1151090Y494503D01*
X1150929Y494456D01*
X1144612Y491839D01*
X1137388Y491839D01*
X1130713Y494604D01*
X1125604Y499713D01*
X1122839Y506388D01*
X1122839Y513612D01*
X1125604Y520287D01*
X1130713Y525396D01*
X1137388Y528161D01*
X1144612Y528161D01*
X1147359Y527023D01*
X1147457Y527000D01*
X1147553Y526971D01*
X1147577Y526972D01*
X1147599Y526967D01*
X1147699Y526976D01*
X1147799Y526979D01*
X1147821Y526988D01*
X1147844Y526990D01*
X1147935Y527030D01*
X1148030Y527066D01*
X1148047Y527080D01*
X1148069Y527090D01*
X1148142Y527158D01*
X1148220Y527221D01*
X1148233Y527240D01*
X1148250Y527256D01*
X1148298Y527344D01*
X1148352Y527429D01*
X1148357Y527451D01*
X1148368Y527472D01*
X1148386Y527571D01*
X1148410Y527668D01*
X1148409Y527697D01*
X1148412Y527714D01*
X1148407Y527746D01*
X1148404Y527836D01*
X1145996Y544410D01*
X1145988Y544435D01*
X1145982Y544482D01*
X1138646Y574390D01*
X1138616Y574461D01*
X1138594Y574536D01*
X1138568Y574573D01*
X1138550Y574616D01*
X1138498Y574674D01*
X1138454Y574738D01*
X1138417Y574765D01*
X1138386Y574800D01*
X1138319Y574838D01*
X1138257Y574885D01*
X1138213Y574899D01*
X1138173Y574922D01*
X1138097Y574937D01*
X1138023Y574961D01*
X1137977Y574960D01*
X1137931Y574969D01*
X1137854Y574959D01*
X1137777Y574958D01*
X1137717Y574941D01*
X1137688Y574937D01*
X1137663Y574926D01*
X1137616Y574912D01*
X1132612Y572839D01*
X1125388Y572839D01*
X1118713Y575604D01*
X1113604Y580713D01*
X1110839Y587388D01*
X1110839Y594612D01*
X1113604Y601287D01*
X1118713Y606396D01*
X1125388Y609161D01*
X1126023Y609161D01*
X1126047Y609165D01*
X1126072Y609162D01*
X1126168Y609185D01*
X1126266Y609200D01*
X1126287Y609212D01*
X1126311Y609217D01*
X1126396Y609269D01*
X1126483Y609316D01*
X1126500Y609333D01*
X1126521Y609346D01*
X1126584Y609422D01*
X1126652Y609494D01*
X1126663Y609516D01*
X1126679Y609535D01*
X1126714Y609627D01*
X1126756Y609717D01*
X1126759Y609741D01*
X1126768Y609764D01*
X1126772Y609863D01*
X1126783Y609961D01*
X1126778Y609985D01*
X1126779Y610010D01*
X1126741Y610173D01*
X1125001Y615147D01*
X1124988Y615169D01*
X1124973Y615215D01*
X1109508Y648677D01*
X1109493Y648698D01*
X1109474Y648742D01*
X1103681Y658648D01*
X1103606Y658739D01*
X1103534Y658830D01*
X1103528Y658833D01*
X1103524Y658838D01*
X1103425Y658899D01*
X1103327Y658963D01*
X1103321Y658964D01*
X1103315Y658968D01*
X1103201Y658994D01*
X1103088Y659023D01*
X1103082Y659022D01*
X1103076Y659024D01*
X1102959Y659013D01*
X1102843Y659004D01*
X1102837Y659001D01*
X1102831Y659001D01*
X1102724Y658953D01*
X1102617Y658907D01*
X1102611Y658903D01*
X1102606Y658901D01*
X1102592Y658888D01*
X1102486Y658802D01*
X1099287Y655604D01*
X1092612Y652839D01*
X1085388Y652839D01*
X1078713Y655604D01*
X1073604Y660713D01*
X1070839Y667388D01*
X1070839Y674612D01*
X1073604Y681287D01*
X1078713Y686396D01*
X1083941Y688561D01*
X1084033Y688618D01*
X1084102Y688655D01*
X1084107Y688661D01*
X1084126Y688671D01*
X1084137Y688683D01*
X1084150Y688691D01*
X1084219Y688774D01*
X1084291Y688854D01*
X1084297Y688869D01*
X1084307Y688880D01*
X1084345Y688981D01*
X1084388Y689080D01*
X1084389Y689096D01*
X1084395Y689110D01*
X1084399Y689218D01*
X1084408Y689326D01*
X1084404Y689340D01*
X1084405Y689356D01*
X1084375Y689459D01*
X1084349Y689564D01*
X1084340Y689581D01*
X1084337Y689592D01*
X1084320Y689617D01*
X1084267Y689710D01*
X1069248Y710512D01*
X1069229Y710530D01*
X1069202Y710569D01*
X1044852Y738246D01*
X1044832Y738262D01*
X1044801Y738298D01*
X1017906Y763508D01*
X1017884Y763522D01*
X1017850Y763555D01*
X1005859Y772800D01*
X1005839Y772811D01*
X1005822Y772827D01*
X1005731Y772869D01*
X1005643Y772917D01*
X1005620Y772921D01*
X1005599Y772931D01*
X1005499Y772942D01*
X1005400Y772959D01*
X1005378Y772955D01*
X1005355Y772958D01*
X1005257Y772936D01*
X1005157Y772921D01*
X1005137Y772910D01*
X1005115Y772906D01*
X1005028Y772854D01*
X1004939Y772808D01*
X1004923Y772791D01*
X1004903Y772779D01*
X1004838Y772703D01*
X1004768Y772631D01*
X1004758Y772610D01*
X1004744Y772592D01*
X1004706Y772499D01*
X1004663Y772408D01*
X1004660Y772386D01*
X1004652Y772364D01*
X1004633Y772198D01*
X1004633Y770556D01*
X1001525Y767448D01*
X997128Y767448D01*
X994020Y770556D01*
X994020Y774953D01*
X997347Y778280D01*
X997387Y778335D01*
X997434Y778385D01*
X997458Y778435D01*
X997490Y778479D01*
X997510Y778545D01*
X997540Y778607D01*
X997546Y778662D01*
X997563Y778714D01*
X997561Y778783D01*
X997569Y778851D01*
X997558Y778905D01*
X997556Y778960D01*
X997533Y779025D01*
X997518Y779092D01*
X997491Y779140D01*
X997472Y779191D01*
X997429Y779245D01*
X997394Y779304D01*
X997338Y779358D01*
X997318Y779383D01*
X997300Y779395D01*
X997273Y779421D01*
X988657Y786064D01*
X988634Y786076D01*
X988597Y786106D01*
X957377Y805707D01*
X957353Y805717D01*
X957313Y805743D01*
X926545Y821157D01*
X926476Y821179D01*
X926409Y821209D01*
X926359Y821215D01*
X926311Y821230D01*
X926238Y821228D01*
X926165Y821236D01*
X926115Y821226D01*
X926065Y821225D01*
X925996Y821200D01*
X925925Y821184D01*
X925881Y821158D01*
X925833Y821141D01*
X925776Y821095D01*
X925713Y821058D01*
X925681Y821019D01*
X925641Y820988D01*
X925601Y820927D01*
X925554Y820871D01*
X925535Y820824D01*
X925507Y820781D01*
X925489Y820711D01*
X925462Y820643D01*
X925454Y820574D01*
X925446Y820543D01*
X925448Y820519D01*
X925443Y820476D01*
X925443Y816577D01*
X923472Y814606D01*
X923430Y814548D01*
X923381Y814496D01*
X923359Y814449D01*
X923328Y814407D01*
X923307Y814338D01*
X923277Y814273D01*
X923271Y814221D01*
X923256Y814171D01*
X923258Y814100D01*
X923250Y814029D01*
X923261Y813978D01*
X923262Y813926D01*
X923287Y813858D01*
X923302Y813788D01*
X923329Y813743D01*
X923347Y813695D01*
X923392Y813639D01*
X923428Y813577D01*
X923468Y813543D01*
X923501Y813503D01*
X923561Y813464D01*
X923615Y813417D01*
X923664Y813398D01*
X923707Y813370D01*
X923777Y813352D01*
X923844Y813325D01*
X923915Y813317D01*
X923946Y813309D01*
X923969Y813311D01*
X924010Y813307D01*
X928198Y813307D01*
X931307Y810198D01*
X931307Y805802D01*
X928198Y802693D01*
X923802Y802693D01*
X920693Y805802D01*
X920693Y810198D01*
X922664Y812169D01*
X922706Y812228D01*
X922756Y812280D01*
X922778Y812327D01*
X922808Y812369D01*
X922829Y812438D01*
X922859Y812503D01*
X922865Y812554D01*
X922880Y812604D01*
X922879Y812676D01*
X922886Y812747D01*
X922875Y812798D01*
X922874Y812850D01*
X922849Y812917D01*
X922834Y812987D01*
X922807Y813032D01*
X922790Y813081D01*
X922745Y813137D01*
X922708Y813199D01*
X922668Y813232D01*
X922636Y813273D01*
X922576Y813312D01*
X922521Y813358D01*
X922473Y813378D01*
X922429Y813406D01*
X922359Y813424D01*
X922293Y813450D01*
X922222Y813458D01*
X922190Y813466D01*
X922167Y813464D01*
X922126Y813469D01*
X917938Y813469D01*
X914830Y816577D01*
X914830Y820974D01*
X917581Y823725D01*
X917613Y823770D01*
X917653Y823808D01*
X917685Y823869D01*
X917724Y823925D01*
X917741Y823977D01*
X917766Y824026D01*
X917777Y824094D01*
X917797Y824160D01*
X917795Y824215D01*
X917804Y824269D01*
X917792Y824337D01*
X917790Y824406D01*
X917772Y824458D01*
X917762Y824512D01*
X917730Y824572D01*
X917706Y824637D01*
X917671Y824680D01*
X917645Y824728D01*
X917595Y824775D01*
X917552Y824829D01*
X917506Y824859D01*
X917466Y824896D01*
X917371Y824945D01*
X917345Y824962D01*
X917334Y824965D01*
X917317Y824973D01*
X889896Y835553D01*
X889870Y835558D01*
X889826Y835576D01*
X854319Y845480D01*
X854293Y845483D01*
X854247Y845496D01*
X817952Y851944D01*
X817926Y851944D01*
X817880Y851953D01*
X781133Y854885D01*
X781108Y854883D01*
X781060Y854887D01*
X762232Y854574D01*
X762193Y854567D01*
X762153Y854569D01*
X762073Y854546D01*
X761990Y854531D01*
X761955Y854512D01*
X761917Y854500D01*
X761848Y854452D01*
X761775Y854412D01*
X761748Y854383D01*
X761715Y854360D01*
X761665Y854293D01*
X761608Y854231D01*
X761592Y854195D01*
X761568Y854163D01*
X761542Y854083D01*
X761508Y854006D01*
X761504Y853967D01*
X761492Y853929D01*
X761493Y853845D01*
X761485Y853761D01*
X761494Y853723D01*
X761495Y853683D01*
X761541Y853522D01*
X763161Y849612D01*
X763161Y842388D01*
X760396Y835713D01*
X755287Y830604D01*
X748612Y827839D01*
X741388Y827839D01*
X734713Y830604D01*
X729604Y835713D01*
X726839Y842388D01*
X726839Y849612D01*
X727518Y851251D01*
X727538Y851337D01*
X727566Y851421D01*
X727566Y851457D01*
X727574Y851491D01*
X727566Y851579D01*
X727566Y851667D01*
X727555Y851701D01*
X727551Y851736D01*
X727515Y851817D01*
X727487Y851900D01*
X727465Y851928D01*
X727451Y851960D01*
X727391Y852026D01*
X727338Y852096D01*
X727309Y852116D01*
X727285Y852142D01*
X727207Y852184D01*
X727134Y852234D01*
X727100Y852243D01*
X727069Y852260D01*
X726982Y852276D01*
X726897Y852299D01*
X726852Y852299D01*
X726827Y852304D01*
X726796Y852299D01*
X726729Y852299D01*
X707500Y850121D01*
X707476Y850114D01*
X707428Y850109D01*
X671367Y842460D01*
X671343Y842451D01*
X671297Y842441D01*
X660285Y838972D01*
X660215Y838937D01*
X660140Y838909D01*
X660105Y838881D01*
X660065Y838861D01*
X660010Y838805D01*
X659948Y838756D01*
X659924Y838718D01*
X659893Y838686D01*
X659858Y838615D01*
X659815Y838549D01*
X659804Y838505D01*
X659785Y838465D01*
X659775Y838387D01*
X659755Y838310D01*
X659759Y838266D01*
X659753Y838221D01*
X659768Y838144D01*
X659774Y838065D01*
X659792Y838024D01*
X659801Y837980D01*
X659840Y837911D01*
X659871Y837839D01*
X659908Y837792D01*
X659923Y837766D01*
X659943Y837748D01*
X659975Y837708D01*
X661396Y836287D01*
X664161Y829612D01*
X664161Y822388D01*
X661396Y815713D01*
X656287Y810604D01*
X649612Y807839D01*
X642388Y807839D01*
X635713Y810604D01*
X630604Y815713D01*
X627839Y822388D01*
X627839Y826956D01*
X627833Y826996D01*
X627835Y827036D01*
X627813Y827117D01*
X627800Y827199D01*
X627781Y827234D01*
X627770Y827273D01*
X627724Y827343D01*
X627684Y827416D01*
X627655Y827444D01*
X627633Y827477D01*
X627567Y827528D01*
X627506Y827586D01*
X627470Y827603D01*
X627438Y827627D01*
X627359Y827654D01*
X627283Y827689D01*
X627243Y827694D01*
X627205Y827707D01*
X627122Y827707D01*
X627039Y827717D01*
X626999Y827708D01*
X626959Y827708D01*
X626800Y827665D01*
X626798Y827664D01*
X618953Y824555D01*
X618945Y824550D01*
X618932Y824546D01*
X565653Y801525D01*
X565576Y801476D01*
X565495Y801433D01*
X565473Y801410D01*
X565446Y801393D01*
X565389Y801321D01*
X565326Y801255D01*
X565312Y801226D01*
X565292Y801201D01*
X565261Y801115D01*
X565222Y801031D01*
X565219Y801000D01*
X565208Y800970D01*
X565205Y800878D01*
X565195Y800787D01*
X565202Y800756D01*
X565201Y800724D01*
X565228Y800636D01*
X565247Y800547D01*
X565264Y800519D01*
X565273Y800489D01*
X565327Y800414D01*
X565374Y800336D01*
X565398Y800315D01*
X565416Y800289D01*
X565491Y800235D01*
X565560Y800176D01*
X565590Y800164D01*
X565616Y800145D01*
X565703Y800118D01*
X565789Y800084D01*
X565829Y800079D01*
X565851Y800072D01*
X565883Y800073D01*
X565955Y800065D01*
X566548Y800065D01*
X569512Y798837D01*
X571781Y796569D01*
X573009Y793605D01*
X573009Y790396D01*
X571781Y787432D01*
X569512Y785164D01*
X566548Y783936D01*
X563340Y783936D01*
X560376Y785164D01*
X558107Y787432D01*
X556879Y790396D01*
X556879Y793605D01*
X558107Y796569D01*
X558275Y796737D01*
X558335Y796821D01*
X558400Y796901D01*
X558407Y796920D01*
X558419Y796937D01*
X558449Y797035D01*
X558485Y797132D01*
X558485Y797153D01*
X558491Y797172D01*
X558489Y797275D01*
X558491Y797378D01*
X558485Y797398D01*
X558485Y797418D01*
X558450Y797515D01*
X558419Y797613D01*
X558407Y797630D01*
X558400Y797649D01*
X558336Y797729D01*
X558276Y797813D01*
X558259Y797825D01*
X558247Y797841D01*
X558160Y797897D01*
X558076Y797957D01*
X558057Y797963D01*
X558040Y797974D01*
X557940Y797999D01*
X557841Y798030D01*
X557821Y798029D01*
X557801Y798034D01*
X557698Y798026D01*
X557595Y798023D01*
X557572Y798016D01*
X557556Y798015D01*
X557526Y798002D01*
X557435Y797974D01*
X542675Y791597D01*
X542597Y791547D01*
X542517Y791504D01*
X542495Y791481D01*
X542468Y791464D01*
X542410Y791392D01*
X542347Y791326D01*
X542334Y791297D01*
X542314Y791272D01*
X542282Y791186D01*
X542244Y791103D01*
X542240Y791071D01*
X542229Y791041D01*
X542227Y790949D01*
X542216Y790858D01*
X542223Y790827D01*
X542222Y790795D01*
X542249Y790708D01*
X542269Y790618D01*
X542285Y790591D01*
X542294Y790560D01*
X542348Y790486D01*
X542395Y790407D01*
X542419Y790386D01*
X542438Y790360D01*
X542512Y790307D01*
X542582Y790247D01*
X542612Y790235D01*
X542637Y790216D01*
X542725Y790189D01*
X542810Y790155D01*
X542850Y790151D01*
X542872Y790144D01*
X542905Y790145D01*
X542977Y790137D01*
X543604Y790137D01*
X546568Y788909D01*
X548837Y786640D01*
X550065Y783676D01*
X550065Y780468D01*
X548837Y777503D01*
X546568Y775235D01*
X543604Y774007D01*
X540396Y774007D01*
X537432Y775235D01*
X535163Y777503D01*
X533935Y780468D01*
X533935Y783676D01*
X535163Y786640D01*
X535358Y786835D01*
X535418Y786919D01*
X535483Y786999D01*
X535490Y787018D01*
X535501Y787035D01*
X535532Y787133D01*
X535567Y787230D01*
X535568Y787250D01*
X535574Y787270D01*
X535571Y787373D01*
X535574Y787476D01*
X535568Y787495D01*
X535567Y787516D01*
X535532Y787613D01*
X535502Y787711D01*
X535490Y787728D01*
X535483Y787747D01*
X535418Y787827D01*
X535359Y787911D01*
X535342Y787923D01*
X535329Y787939D01*
X535242Y787995D01*
X535159Y788055D01*
X535140Y788061D01*
X535122Y788072D01*
X535022Y788097D01*
X534924Y788127D01*
X534904Y788127D01*
X534884Y788132D01*
X534781Y788124D01*
X534678Y788121D01*
X534654Y788114D01*
X534639Y788113D01*
X534609Y788100D01*
X534518Y788072D01*
X519696Y781668D01*
X519619Y781618D01*
X519538Y781576D01*
X519516Y781552D01*
X519489Y781535D01*
X519432Y781464D01*
X519368Y781397D01*
X519355Y781368D01*
X519335Y781343D01*
X519303Y781257D01*
X519265Y781174D01*
X519261Y781142D01*
X519250Y781112D01*
X519248Y781021D01*
X519238Y780930D01*
X519244Y780898D01*
X519244Y780866D01*
X519270Y780779D01*
X519290Y780689D01*
X519306Y780662D01*
X519316Y780631D01*
X519369Y780557D01*
X519416Y780478D01*
X519440Y780457D01*
X519459Y780431D01*
X519533Y780378D01*
X519603Y780318D01*
X519633Y780306D01*
X519659Y780288D01*
X519746Y780261D01*
X519831Y780226D01*
X519872Y780222D01*
X519894Y780215D01*
X519926Y780216D01*
X519998Y780208D01*
X520660Y780208D01*
X523624Y778980D01*
X525893Y776711D01*
X527121Y773747D01*
X527121Y770539D01*
X525893Y767575D01*
X523624Y765306D01*
X520660Y764078D01*
X517452Y764078D01*
X514488Y765306D01*
X512219Y767575D01*
X510991Y770539D01*
X510991Y773747D01*
X512219Y776711D01*
X512441Y776933D01*
X512501Y777017D01*
X512565Y777097D01*
X512572Y777116D01*
X512584Y777133D01*
X512614Y777231D01*
X512650Y777328D01*
X512651Y777348D01*
X512657Y777368D01*
X512654Y777471D01*
X512657Y777574D01*
X512651Y777593D01*
X512650Y777613D01*
X512615Y777710D01*
X512585Y777809D01*
X512573Y777825D01*
X512566Y777845D01*
X512501Y777925D01*
X512441Y778009D01*
X512425Y778021D01*
X512412Y778037D01*
X512325Y778092D01*
X512242Y778153D01*
X512222Y778159D01*
X512205Y778170D01*
X512105Y778195D01*
X512007Y778225D01*
X511986Y778225D01*
X511967Y778230D01*
X511864Y778222D01*
X511761Y778219D01*
X511737Y778212D01*
X511721Y778211D01*
X511692Y778198D01*
X511600Y778170D01*
X491322Y769408D01*
X491244Y769358D01*
X491163Y769315D01*
X491141Y769292D01*
X491114Y769275D01*
X491057Y769203D01*
X490994Y769137D01*
X490981Y769108D01*
X490961Y769083D01*
X490929Y768997D01*
X490890Y768914D01*
X490887Y768882D01*
X490876Y768852D01*
X490873Y768760D01*
X490863Y768670D01*
X490870Y768638D01*
X490869Y768606D01*
X490896Y768519D01*
X490916Y768429D01*
X490932Y768402D01*
X490941Y768371D01*
X490995Y768297D01*
X491042Y768218D01*
X491066Y768197D01*
X491085Y768171D01*
X491159Y768118D01*
X491229Y768058D01*
X491258Y768046D01*
X491284Y768028D01*
X491372Y768001D01*
X491457Y767966D01*
X491497Y767962D01*
X491519Y767955D01*
X491551Y767956D01*
X491623Y767948D01*
X491726Y767948D01*
X495318Y766460D01*
X498068Y763710D01*
X499556Y760117D01*
X499556Y756229D01*
X498068Y752636D01*
X495318Y749886D01*
X491726Y748398D01*
X487837Y748398D01*
X484244Y749886D01*
X481495Y752636D01*
X480007Y756229D01*
X480007Y760117D01*
X481508Y763743D01*
X481526Y763819D01*
X481553Y763891D01*
X481554Y763938D01*
X481565Y763983D01*
X481557Y764060D01*
X481559Y764137D01*
X481546Y764181D01*
X481542Y764228D01*
X481510Y764298D01*
X481487Y764372D01*
X481460Y764410D01*
X481442Y764452D01*
X481389Y764509D01*
X481344Y764572D01*
X481307Y764599D01*
X481275Y764633D01*
X481207Y764671D01*
X481144Y764716D01*
X481100Y764730D01*
X481060Y764752D01*
X480983Y764766D01*
X480909Y764789D01*
X480863Y764787D01*
X480818Y764796D01*
X480741Y764784D01*
X480664Y764783D01*
X480604Y764764D01*
X480574Y764760D01*
X480550Y764748D01*
X480503Y764733D01*
X426981Y741607D01*
X426904Y741558D01*
X426823Y741515D01*
X426801Y741492D01*
X426774Y741475D01*
X426717Y741403D01*
X426654Y741337D01*
X426640Y741308D01*
X426620Y741283D01*
X426589Y741197D01*
X426550Y741114D01*
X426547Y741082D01*
X426535Y741052D01*
X426533Y740960D01*
X426523Y740869D01*
X426530Y740838D01*
X426529Y740806D01*
X426556Y740718D01*
X426575Y740629D01*
X426592Y740601D01*
X426601Y740571D01*
X426654Y740496D01*
X426701Y740418D01*
X426726Y740397D01*
X426744Y740371D01*
X426818Y740317D01*
X426888Y740258D01*
X426918Y740246D01*
X426944Y740227D01*
X427031Y740200D01*
X427116Y740166D01*
X427157Y740161D01*
X427179Y740155D01*
X427211Y740155D01*
X427283Y740147D01*
X427483Y740147D01*
X431075Y738659D01*
X433825Y735910D01*
X435313Y732317D01*
X435313Y728428D01*
X433825Y724836D01*
X431075Y722086D01*
X427483Y720598D01*
X423594Y720598D01*
X420001Y722086D01*
X417252Y724836D01*
X415764Y728428D01*
X415764Y732317D01*
X417287Y735994D01*
X417305Y736070D01*
X417331Y736142D01*
X417333Y736189D01*
X417343Y736234D01*
X417336Y736311D01*
X417338Y736388D01*
X417324Y736432D01*
X417320Y736479D01*
X417289Y736549D01*
X417266Y736623D01*
X417239Y736661D01*
X417220Y736703D01*
X417168Y736760D01*
X417123Y736823D01*
X417085Y736850D01*
X417054Y736884D01*
X416986Y736922D01*
X416923Y736967D01*
X416879Y736981D01*
X416838Y737003D01*
X416762Y737017D01*
X416688Y737040D01*
X416642Y737038D01*
X416596Y737047D01*
X416519Y737035D01*
X416442Y737034D01*
X416383Y737015D01*
X416353Y737011D01*
X416329Y736999D01*
X416282Y736984D01*
X282274Y679082D01*
X282241Y679061D01*
X282203Y679047D01*
X282138Y678995D01*
X282067Y678949D01*
X282042Y678918D01*
X282011Y678893D01*
X281966Y678823D01*
X281913Y678758D01*
X281900Y678720D01*
X281878Y678686D01*
X281857Y678605D01*
X281829Y678527D01*
X281828Y678486D01*
X281818Y678448D01*
X281824Y678364D01*
X281822Y678281D01*
X281834Y678242D01*
X281837Y678202D01*
X281870Y678126D01*
X281894Y678046D01*
X281918Y678013D01*
X281933Y677976D01*
X282036Y677847D01*
X282037Y677846D01*
X282038Y677846D01*
X282038Y677845D01*
X286596Y673287D01*
X289361Y666612D01*
X289361Y659388D01*
X286596Y652713D01*
X281487Y647604D01*
X274812Y644839D01*
X267588Y644839D01*
X260913Y647604D01*
X255804Y652713D01*
X253039Y659388D01*
X253039Y665163D01*
X253030Y665220D01*
X253030Y665279D01*
X253010Y665341D01*
X253000Y665405D01*
X252972Y665457D01*
X252954Y665513D01*
X252915Y665565D01*
X252884Y665623D01*
X252842Y665663D01*
X252807Y665710D01*
X252753Y665747D01*
X252706Y665792D01*
X252653Y665817D01*
X252605Y665850D01*
X252542Y665868D01*
X252483Y665896D01*
X252425Y665902D01*
X252369Y665918D01*
X252303Y665916D01*
X252239Y665923D01*
X252181Y665910D01*
X252123Y665908D01*
X252029Y665877D01*
X251998Y665871D01*
X251986Y665863D01*
X251963Y665856D01*
X245929Y663117D01*
X245908Y663103D01*
X245866Y663085D01*
X222957Y650002D01*
X222934Y649982D01*
X222879Y649950D01*
X201760Y634139D01*
X201739Y634117D01*
X201688Y634078D01*
X182683Y615781D01*
X182664Y615756D01*
X182619Y615712D01*
X179193Y611481D01*
X179190Y611476D01*
X179186Y611472D01*
X179130Y611370D01*
X179071Y611267D01*
X179070Y611262D01*
X179067Y611256D01*
X179047Y611141D01*
X179024Y611026D01*
X179025Y611020D01*
X179024Y611014D01*
X179041Y610898D01*
X179056Y610782D01*
X179059Y610777D01*
X179059Y610771D01*
X179113Y610667D01*
X179164Y610561D01*
X179168Y610557D01*
X179171Y610552D01*
X179255Y610470D01*
X179337Y610386D01*
X179342Y610384D01*
X179347Y610380D01*
X179494Y610299D01*
X184087Y608396D01*
X189196Y603287D01*
X191961Y596612D01*
X191961Y589388D01*
X189196Y582713D01*
X184087Y577604D01*
X177412Y574839D01*
X170188Y574839D01*
X163513Y577604D01*
X158975Y582142D01*
X158888Y582204D01*
X158805Y582270D01*
X158789Y582276D01*
X158775Y582286D01*
X158673Y582317D01*
X158573Y582353D01*
X158556Y582353D01*
X158540Y582358D01*
X158433Y582355D01*
X158327Y582357D01*
X158311Y582352D01*
X158294Y582352D01*
X158194Y582315D01*
X158093Y582283D01*
X158079Y582273D01*
X158063Y582267D01*
X157980Y582201D01*
X157894Y582138D01*
X157881Y582122D01*
X157871Y582114D01*
X157854Y582087D01*
X157790Y582006D01*
X152019Y572736D01*
X152007Y572708D01*
X151974Y572654D01*
X140901Y548708D01*
X140893Y548679D01*
X140867Y548620D01*
X132834Y523491D01*
X132830Y523461D01*
X132811Y523400D01*
X132772Y523189D01*
X132769Y523098D01*
X132760Y523009D01*
X132767Y522976D01*
X132766Y522943D01*
X132793Y522856D01*
X132812Y522768D01*
X132829Y522740D01*
X132839Y522708D01*
X132892Y522634D01*
X132938Y522557D01*
X132963Y522535D01*
X132983Y522508D01*
X133056Y522456D01*
X133125Y522397D01*
X133156Y522385D01*
X133183Y522365D01*
X133269Y522339D01*
X133353Y522305D01*
X133395Y522301D01*
X133418Y522294D01*
X133450Y522294D01*
X133520Y522287D01*
X170947Y522287D01*
X175287Y517947D01*
X175287Y468263D01*
X175301Y468172D01*
X175309Y468082D01*
X175321Y468052D01*
X175326Y468020D01*
X175369Y467939D01*
X175405Y467855D01*
X175431Y467823D01*
X175442Y467802D01*
X175465Y467780D01*
X175510Y467724D01*
X186462Y456772D01*
X186478Y456761D01*
X186490Y456745D01*
X186578Y456689D01*
X186661Y456629D01*
X186680Y456623D01*
X186697Y456612D01*
X186798Y456587D01*
X186897Y456556D01*
X186916Y456557D01*
X186936Y456552D01*
X187039Y456560D01*
X187142Y456563D01*
X187161Y456570D01*
X187181Y456571D01*
X187276Y456611D01*
X187373Y456647D01*
X187389Y456660D01*
X187407Y456667D01*
X187538Y456772D01*
X188053Y457287D01*
X337947Y457287D01*
X339510Y455724D01*
X362826Y432408D01*
X362842Y432396D01*
X362855Y432380D01*
X362942Y432324D01*
X363026Y432264D01*
X363045Y432258D01*
X363062Y432247D01*
X363162Y432222D01*
X363261Y432192D01*
X363281Y432192D01*
X363300Y432187D01*
X363403Y432195D01*
X363507Y432198D01*
X363526Y432205D01*
X363546Y432207D01*
X363640Y432247D01*
X363738Y432283D01*
X363754Y432295D01*
X363772Y432303D01*
X363903Y432408D01*
X365802Y434307D01*
X370198Y434307D01*
X373307Y431198D01*
X373307Y426802D01*
X371408Y424903D01*
X371396Y424887D01*
X371380Y424874D01*
X371324Y424787D01*
X371264Y424703D01*
X371258Y424684D01*
X371247Y424667D01*
X371222Y424567D01*
X371192Y424468D01*
X371192Y424448D01*
X371187Y424429D01*
X371195Y424326D01*
X371198Y424222D01*
X371205Y424203D01*
X371207Y424184D01*
X371247Y424089D01*
X371283Y423991D01*
X371295Y423975D01*
X371303Y423957D01*
X371376Y423866D01*
X371382Y423856D01*
X371388Y423850D01*
X371408Y423826D01*
X446287Y348947D01*
X446287Y276347D01*
X446287Y276345D01*
X446287Y276343D01*
X446306Y276176D01*
X446441Y275591D01*
X446402Y275529D01*
X446400Y275525D01*
X446397Y275521D01*
X446353Y275411D01*
X446338Y275375D01*
X446325Y275347D01*
X446324Y275343D01*
X446307Y275302D01*
X446307Y275297D01*
X446305Y275293D01*
X446287Y275126D01*
X446287Y275053D01*
X445862Y274629D01*
X445861Y274627D01*
X445859Y274625D01*
X445755Y274494D01*
X445437Y273985D01*
X445366Y273968D01*
X445361Y273966D01*
X445356Y273966D01*
X445246Y273919D01*
X445138Y273875D01*
X445135Y273872D01*
X445130Y273870D01*
X444999Y273765D01*
X444947Y273713D01*
X444347Y273713D01*
X444345Y273713D01*
X444343Y273713D01*
X444176Y273694D01*
X443591Y273559D01*
X443529Y273598D01*
X443525Y273600D01*
X443521Y273603D01*
X443411Y273647D01*
X443302Y273693D01*
X443297Y273693D01*
X443293Y273695D01*
X443126Y273713D01*
X443053Y273713D01*
X442629Y274138D01*
X442627Y274139D01*
X442625Y274141D01*
X442494Y274245D01*
X420150Y288210D01*
X420115Y288224D01*
X420085Y288246D01*
X420002Y288272D01*
X419923Y288305D01*
X419885Y288308D01*
X419850Y288319D01*
X419763Y288316D01*
X419677Y288323D01*
X419641Y288313D01*
X419604Y288312D01*
X419522Y288283D01*
X419439Y288261D01*
X419408Y288241D01*
X419373Y288228D01*
X419305Y288174D01*
X419233Y288127D01*
X419210Y288097D01*
X419181Y288074D01*
X419134Y288002D01*
X419080Y287934D01*
X419068Y287899D01*
X419048Y287867D01*
X419027Y287784D01*
X418997Y287702D01*
X418997Y287665D01*
X418988Y287629D01*
X418994Y287543D01*
X418993Y287456D01*
X419004Y287421D01*
X419007Y287383D01*
X419040Y287304D01*
X419066Y287222D01*
X419088Y287191D01*
X419103Y287157D01*
X419208Y287026D01*
X419510Y286724D01*
X444724Y261510D01*
X444798Y261457D01*
X444868Y261397D01*
X444898Y261385D01*
X444924Y261366D01*
X445011Y261339D01*
X445096Y261305D01*
X445137Y261301D01*
X445159Y261294D01*
X445191Y261295D01*
X445263Y261287D01*
X612947Y261287D01*
X622287Y251947D01*
X622287Y116641D01*
X622306Y116522D01*
X622326Y116399D01*
X622326Y116398D01*
X622379Y116299D01*
X622441Y116181D01*
X622442Y116181D01*
X622528Y116099D01*
X622619Y116012D01*
X622620Y116012D01*
X622622Y116011D01*
X622767Y115933D01*
X636086Y110654D01*
X636106Y110650D01*
X636137Y110636D01*
X671297Y99559D01*
X671322Y99555D01*
X671367Y99540D01*
X707428Y91891D01*
X707454Y91890D01*
X707500Y91879D01*
X744129Y87730D01*
X744155Y87731D01*
X744202Y87725D01*
X781060Y87113D01*
X781086Y87117D01*
G37*
%LPC*%
G36*
X743826Y312061D02*
X743826Y312061D01*
X719273Y317956D01*
X695943Y327619D01*
X694802Y328319D01*
X694801Y328319D01*
X693559Y329080D01*
X692317Y329841D01*
X691075Y330602D01*
X691075Y330603D01*
X686106Y333647D01*
X686106Y333648D01*
X684864Y334409D01*
X683621Y335170D01*
X677410Y338976D01*
X676168Y339737D01*
X676168Y339738D01*
X674926Y340499D01*
X674413Y340813D01*
X655212Y357212D01*
X638813Y376413D01*
X625619Y397943D01*
X615956Y421273D01*
X610061Y445826D01*
X608080Y471000D01*
X610061Y496174D01*
X615956Y520727D01*
X625619Y544057D01*
X638813Y565587D01*
X655212Y584788D01*
X674413Y601187D01*
X695943Y614381D01*
X719273Y624044D01*
X743826Y629939D01*
X768814Y631906D01*
X768854Y631916D01*
X768896Y631917D01*
X768973Y631945D01*
X769053Y631964D01*
X769088Y631987D01*
X769127Y632001D01*
X769191Y632052D01*
X769260Y632096D01*
X769287Y632129D01*
X769319Y632155D01*
X769364Y632224D01*
X769415Y632287D01*
X769430Y632327D01*
X769452Y632362D01*
X769472Y632441D01*
X769501Y632518D01*
X769502Y632560D01*
X769513Y632600D01*
X769506Y632682D01*
X769509Y632764D01*
X769497Y632804D01*
X769493Y632846D01*
X769461Y632921D01*
X769438Y632999D01*
X769414Y633033D01*
X769397Y633072D01*
X769300Y633193D01*
X769295Y633200D01*
X769294Y633201D01*
X769292Y633203D01*
X768693Y633802D01*
X768693Y638198D01*
X771802Y641307D01*
X776198Y641307D01*
X779307Y638198D01*
X779307Y633802D01*
X777978Y632473D01*
X777954Y632439D01*
X777922Y632411D01*
X777882Y632340D01*
X777835Y632274D01*
X777822Y632234D01*
X777802Y632197D01*
X777786Y632117D01*
X777762Y632038D01*
X777763Y631996D01*
X777755Y631955D01*
X777766Y631874D01*
X777769Y631793D01*
X777783Y631753D01*
X777789Y631712D01*
X777825Y631639D01*
X777853Y631562D01*
X777879Y631529D01*
X777898Y631491D01*
X777956Y631433D01*
X778007Y631370D01*
X778042Y631347D01*
X778072Y631317D01*
X778145Y631281D01*
X778214Y631237D01*
X778254Y631226D01*
X778292Y631208D01*
X778444Y631178D01*
X778452Y631176D01*
X778454Y631177D01*
X778457Y631176D01*
X794174Y629939D01*
X818727Y624044D01*
X842057Y614381D01*
X846391Y611725D01*
X847634Y610963D01*
X848876Y610202D01*
X850118Y609441D01*
X855087Y606396D01*
X856329Y605635D01*
X857572Y604873D01*
X863587Y601187D01*
X882788Y584788D01*
X899187Y565587D01*
X912381Y544056D01*
X922044Y520727D01*
X927939Y496173D01*
X929920Y471000D01*
X927939Y445827D01*
X922044Y421273D01*
X912381Y397944D01*
X899187Y376413D01*
X882788Y357212D01*
X863587Y340813D01*
X842056Y327619D01*
X818727Y317956D01*
X794174Y312061D01*
X769000Y310080D01*
X743826Y312061D01*
G37*
%LPD*%
G36*
X620121Y117107D02*
X620121Y117107D01*
X620204Y117116D01*
X620241Y117133D01*
X620280Y117141D01*
X620352Y117184D01*
X620427Y117219D01*
X620457Y117247D01*
X620491Y117267D01*
X620545Y117331D01*
X620606Y117388D01*
X620625Y117424D01*
X620651Y117454D01*
X620682Y117532D01*
X620721Y117606D01*
X620728Y117645D01*
X620743Y117682D01*
X620761Y117847D01*
X620761Y117848D01*
X620761Y117849D01*
X620761Y251000D01*
X620747Y251090D01*
X620739Y251181D01*
X620727Y251211D01*
X620722Y251243D01*
X620679Y251323D01*
X620643Y251407D01*
X620617Y251439D01*
X620606Y251460D01*
X620583Y251482D01*
X620538Y251538D01*
X612538Y259538D01*
X612464Y259591D01*
X612395Y259651D01*
X612365Y259663D01*
X612339Y259682D01*
X612252Y259709D01*
X612167Y259743D01*
X612126Y259747D01*
X612103Y259754D01*
X612071Y259753D01*
X612000Y259761D01*
X444315Y259761D01*
X417538Y286538D01*
X417464Y286591D01*
X417395Y286651D01*
X417365Y286663D01*
X417339Y286682D01*
X417252Y286709D01*
X417167Y286743D01*
X417126Y286747D01*
X417103Y286754D01*
X417071Y286753D01*
X417000Y286761D01*
X386315Y286761D01*
X374538Y298538D01*
X374464Y298591D01*
X374395Y298651D01*
X374365Y298663D01*
X374339Y298682D01*
X374252Y298709D01*
X374167Y298743D01*
X374126Y298747D01*
X374103Y298754D01*
X374071Y298753D01*
X374000Y298761D01*
X357315Y298761D01*
X322538Y333538D01*
X322464Y333591D01*
X322395Y333651D01*
X322365Y333663D01*
X322339Y333682D01*
X322252Y333709D01*
X322167Y333743D01*
X322126Y333747D01*
X322103Y333754D01*
X322071Y333753D01*
X322000Y333761D01*
X306315Y333761D01*
X239538Y400538D01*
X239464Y400591D01*
X239395Y400651D01*
X239365Y400663D01*
X239339Y400682D01*
X239252Y400709D01*
X239167Y400743D01*
X239126Y400747D01*
X239103Y400754D01*
X239071Y400753D01*
X239000Y400761D01*
X218315Y400761D01*
X185761Y433315D01*
X185761Y455000D01*
X185747Y455090D01*
X185739Y455181D01*
X185727Y455211D01*
X185722Y455243D01*
X185679Y455323D01*
X185643Y455407D01*
X185617Y455439D01*
X185606Y455460D01*
X185583Y455482D01*
X185538Y455538D01*
X173761Y467315D01*
X173761Y517000D01*
X173747Y517090D01*
X173739Y517181D01*
X173727Y517211D01*
X173722Y517243D01*
X173679Y517323D01*
X173643Y517407D01*
X173617Y517439D01*
X173606Y517460D01*
X173583Y517482D01*
X173538Y517538D01*
X170538Y520538D01*
X170464Y520591D01*
X170395Y520651D01*
X170365Y520663D01*
X170339Y520682D01*
X170252Y520709D01*
X170167Y520743D01*
X170126Y520747D01*
X170103Y520754D01*
X170071Y520753D01*
X170000Y520761D01*
X132947Y520761D01*
X132876Y520750D01*
X132803Y520747D01*
X132755Y520730D01*
X132705Y520722D01*
X132641Y520688D01*
X132572Y520662D01*
X132532Y520630D01*
X132487Y520606D01*
X132437Y520554D01*
X132381Y520508D01*
X132353Y520465D01*
X132318Y520428D01*
X132287Y520362D01*
X132248Y520301D01*
X132228Y520234D01*
X132214Y520205D01*
X132212Y520181D01*
X132199Y520141D01*
X127942Y497472D01*
X127941Y497441D01*
X127931Y497378D01*
X126299Y471047D01*
X126302Y471016D01*
X126299Y470953D01*
X127931Y444622D01*
X127937Y444592D01*
X127942Y444528D01*
X132811Y418600D01*
X132822Y418571D01*
X132834Y418509D01*
X140867Y393380D01*
X140881Y393352D01*
X140901Y393292D01*
X151974Y369346D01*
X151991Y369321D01*
X152019Y369264D01*
X157790Y359994D01*
X157860Y359914D01*
X157927Y359831D01*
X157941Y359821D01*
X157952Y359809D01*
X158044Y359755D01*
X158134Y359698D01*
X158150Y359693D01*
X158165Y359685D01*
X158269Y359664D01*
X158372Y359638D01*
X158389Y359639D01*
X158406Y359635D01*
X158512Y359648D01*
X158617Y359657D01*
X158633Y359663D01*
X158650Y359665D01*
X158746Y359712D01*
X158844Y359753D01*
X158860Y359766D01*
X158872Y359772D01*
X158894Y359793D01*
X158975Y359858D01*
X163513Y364396D01*
X170188Y367161D01*
X177412Y367161D01*
X184087Y364396D01*
X187394Y361089D01*
X187452Y361048D01*
X187504Y360998D01*
X187551Y360976D01*
X187593Y360946D01*
X187662Y360925D01*
X187727Y360895D01*
X187779Y360889D01*
X187829Y360874D01*
X187900Y360875D01*
X187971Y360867D01*
X188022Y360879D01*
X188074Y360880D01*
X188142Y360905D01*
X188212Y360920D01*
X188257Y360946D01*
X188305Y360964D01*
X188361Y361009D01*
X188423Y361046D01*
X188457Y361085D01*
X188497Y361118D01*
X188536Y361178D01*
X188583Y361233D01*
X188602Y361281D01*
X188630Y361325D01*
X188648Y361394D01*
X188675Y361461D01*
X188683Y361532D01*
X188691Y361563D01*
X188689Y361587D01*
X188693Y361628D01*
X188693Y362998D01*
X191802Y366107D01*
X196198Y366107D01*
X199307Y362998D01*
X199307Y358602D01*
X196198Y355493D01*
X191907Y355493D01*
X191861Y355486D01*
X191816Y355488D01*
X191741Y355466D01*
X191664Y355454D01*
X191623Y355432D01*
X191579Y355419D01*
X191515Y355375D01*
X191447Y355338D01*
X191415Y355305D01*
X191377Y355279D01*
X191331Y355217D01*
X191277Y355160D01*
X191258Y355118D01*
X191230Y355082D01*
X191206Y355008D01*
X191174Y354937D01*
X191169Y354891D01*
X191154Y354848D01*
X191155Y354770D01*
X191146Y354693D01*
X191156Y354648D01*
X191157Y354602D01*
X191195Y354470D01*
X191199Y354452D01*
X191201Y354448D01*
X191203Y354441D01*
X191961Y352612D01*
X191961Y345388D01*
X189196Y338713D01*
X184087Y333604D01*
X179494Y331701D01*
X179489Y331698D01*
X179483Y331697D01*
X179403Y331645D01*
X179328Y331606D01*
X179311Y331588D01*
X179284Y331572D01*
X179281Y331567D01*
X179276Y331564D01*
X179209Y331481D01*
X179158Y331427D01*
X179149Y331409D01*
X179128Y331382D01*
X179126Y331377D01*
X179122Y331372D01*
X179082Y331263D01*
X179055Y331204D01*
X179053Y331187D01*
X179039Y331153D01*
X179039Y331147D01*
X179037Y331141D01*
X179034Y331024D01*
X179034Y331017D01*
X179027Y330960D01*
X179031Y330945D01*
X179029Y330907D01*
X179031Y330901D01*
X179031Y330895D01*
X179065Y330783D01*
X179068Y330772D01*
X179080Y330719D01*
X179087Y330707D01*
X179098Y330671D01*
X179101Y330666D01*
X179103Y330660D01*
X179193Y330519D01*
X182619Y326288D01*
X182642Y326268D01*
X182683Y326219D01*
X201688Y307922D01*
X201714Y307905D01*
X201760Y307861D01*
X222879Y292050D01*
X222906Y292036D01*
X222957Y291998D01*
X245866Y278915D01*
X245890Y278906D01*
X245929Y278883D01*
X251963Y276144D01*
X252020Y276129D01*
X252073Y276104D01*
X252138Y276097D01*
X252201Y276080D01*
X252259Y276084D01*
X252317Y276077D01*
X252381Y276091D01*
X252446Y276095D01*
X252501Y276117D01*
X252558Y276129D01*
X252614Y276163D01*
X252674Y276187D01*
X252719Y276226D01*
X252769Y276256D01*
X252811Y276305D01*
X252861Y276348D01*
X252891Y276398D01*
X252929Y276443D01*
X252953Y276503D01*
X252987Y276559D01*
X252999Y276616D01*
X253021Y276671D01*
X253032Y276768D01*
X253038Y276800D01*
X253037Y276814D01*
X253039Y276837D01*
X253039Y282612D01*
X255804Y289287D01*
X260913Y294396D01*
X267588Y297161D01*
X274812Y297161D01*
X281487Y294396D01*
X286596Y289287D01*
X289361Y282612D01*
X289361Y275388D01*
X286596Y268713D01*
X282038Y264155D01*
X282015Y264122D01*
X281985Y264096D01*
X281943Y264023D01*
X281895Y263955D01*
X281883Y263917D01*
X281863Y263882D01*
X281847Y263800D01*
X281822Y263720D01*
X281823Y263680D01*
X281815Y263641D01*
X281826Y263558D01*
X281829Y263474D01*
X281842Y263436D01*
X281848Y263397D01*
X281884Y263322D01*
X281913Y263243D01*
X281938Y263212D01*
X281956Y263176D01*
X282014Y263116D01*
X282067Y263051D01*
X282100Y263029D01*
X282129Y263001D01*
X282272Y262919D01*
X282274Y262918D01*
X618932Y117454D01*
X618941Y117452D01*
X618953Y117445D01*
X619720Y117141D01*
X619759Y117133D01*
X619795Y117116D01*
X619878Y117107D01*
X619960Y117089D01*
X620000Y117093D01*
X620039Y117089D01*
X620121Y117107D01*
G37*
G36*
X444054Y275243D02*
X444054Y275243D01*
X444069Y275242D01*
X444174Y275269D01*
X444280Y275292D01*
X444293Y275300D01*
X444307Y275303D01*
X444398Y275363D01*
X444491Y275418D01*
X444501Y275429D01*
X444513Y275438D01*
X444580Y275523D01*
X444651Y275605D01*
X444656Y275619D01*
X444666Y275631D01*
X444702Y275733D01*
X444743Y275833D01*
X444745Y275851D01*
X444749Y275862D01*
X444749Y275892D01*
X444761Y276000D01*
X444761Y348000D01*
X444747Y348090D01*
X444739Y348181D01*
X444727Y348211D01*
X444722Y348243D01*
X444679Y348323D01*
X444643Y348407D01*
X444617Y348439D01*
X444606Y348460D01*
X444583Y348482D01*
X444538Y348538D01*
X374606Y418470D01*
X374548Y418512D01*
X374496Y418562D01*
X374449Y418584D01*
X374407Y418614D01*
X374338Y418635D01*
X374273Y418665D01*
X374221Y418671D01*
X374171Y418686D01*
X374100Y418684D01*
X374029Y418692D01*
X373978Y418681D01*
X373926Y418680D01*
X373858Y418655D01*
X373788Y418640D01*
X373743Y418613D01*
X373695Y418595D01*
X373639Y418551D01*
X373577Y418514D01*
X373543Y418474D01*
X373503Y418442D01*
X373464Y418381D01*
X373417Y418327D01*
X373398Y418279D01*
X373370Y418235D01*
X373352Y418165D01*
X373325Y418099D01*
X373317Y418027D01*
X373309Y417996D01*
X373311Y417973D01*
X373307Y417932D01*
X373307Y416802D01*
X370198Y413693D01*
X365802Y413693D01*
X362693Y416802D01*
X362693Y421198D01*
X364957Y423462D01*
X364968Y423478D01*
X364984Y423490D01*
X365040Y423578D01*
X365100Y423661D01*
X365106Y423680D01*
X365117Y423697D01*
X365142Y423798D01*
X365173Y423897D01*
X365172Y423916D01*
X365177Y423936D01*
X365169Y424039D01*
X365166Y424142D01*
X365160Y424161D01*
X365158Y424181D01*
X365118Y424276D01*
X365082Y424373D01*
X365069Y424389D01*
X365062Y424407D01*
X364957Y424538D01*
X362693Y426802D01*
X362693Y430068D01*
X362679Y430158D01*
X362671Y430249D01*
X362659Y430279D01*
X362654Y430311D01*
X362611Y430391D01*
X362575Y430475D01*
X362549Y430507D01*
X362538Y430528D01*
X362515Y430550D01*
X362470Y430606D01*
X337538Y455538D01*
X337464Y455591D01*
X337395Y455651D01*
X337365Y455663D01*
X337339Y455682D01*
X337252Y455709D01*
X337167Y455743D01*
X337126Y455747D01*
X337103Y455754D01*
X337071Y455753D01*
X337000Y455761D01*
X189000Y455761D01*
X188980Y455758D01*
X188961Y455760D01*
X188859Y455738D01*
X188757Y455722D01*
X188740Y455712D01*
X188720Y455708D01*
X188631Y455655D01*
X188540Y455606D01*
X188526Y455592D01*
X188509Y455582D01*
X188442Y455503D01*
X188371Y455428D01*
X188362Y455410D01*
X188349Y455395D01*
X188310Y455299D01*
X188267Y455205D01*
X188265Y455185D01*
X188257Y455167D01*
X188239Y455000D01*
X188239Y437000D01*
X188254Y436910D01*
X188261Y436819D01*
X188273Y436789D01*
X188279Y436757D01*
X188321Y436677D01*
X188357Y436593D01*
X188383Y436561D01*
X188394Y436540D01*
X188417Y436518D01*
X188462Y436462D01*
X221462Y403462D01*
X221536Y403409D01*
X221605Y403349D01*
X221635Y403337D01*
X221661Y403318D01*
X221748Y403291D01*
X221833Y403257D01*
X221874Y403253D01*
X221897Y403246D01*
X221929Y403247D01*
X222000Y403239D01*
X241685Y403239D01*
X307462Y337462D01*
X307536Y337409D01*
X307605Y337349D01*
X307635Y337337D01*
X307661Y337318D01*
X307748Y337291D01*
X307833Y337257D01*
X307874Y337253D01*
X307897Y337246D01*
X307929Y337247D01*
X308000Y337239D01*
X322685Y337239D01*
X357462Y302462D01*
X357536Y302409D01*
X357605Y302349D01*
X357635Y302337D01*
X357661Y302318D01*
X357748Y302291D01*
X357833Y302257D01*
X357874Y302253D01*
X357897Y302246D01*
X357929Y302247D01*
X358000Y302239D01*
X360419Y302239D01*
X360489Y302250D01*
X360561Y302252D01*
X360610Y302270D01*
X360661Y302279D01*
X360725Y302312D01*
X360792Y302337D01*
X360833Y302369D01*
X360879Y302394D01*
X360928Y302446D01*
X360984Y302490D01*
X361012Y302534D01*
X361048Y302572D01*
X361078Y302637D01*
X361117Y302697D01*
X361130Y302748D01*
X361152Y302795D01*
X361160Y302866D01*
X361177Y302936D01*
X361173Y302988D01*
X361179Y303039D01*
X361164Y303110D01*
X361158Y303181D01*
X361138Y303229D01*
X361127Y303280D01*
X361090Y303341D01*
X361062Y303407D01*
X361017Y303463D01*
X361000Y303491D01*
X360983Y303506D01*
X360957Y303538D01*
X357693Y306802D01*
X357693Y311198D01*
X360802Y314307D01*
X365198Y314307D01*
X368307Y311198D01*
X368307Y309649D01*
X368318Y309579D01*
X368320Y309507D01*
X368338Y309458D01*
X368346Y309407D01*
X368380Y309343D01*
X368405Y309276D01*
X368437Y309235D01*
X368462Y309189D01*
X368514Y309140D01*
X368558Y309084D01*
X368602Y309056D01*
X368640Y309020D01*
X368705Y308990D01*
X368765Y308951D01*
X368816Y308938D01*
X368863Y308916D01*
X368934Y308908D01*
X369004Y308891D01*
X369056Y308895D01*
X369107Y308889D01*
X369178Y308904D01*
X369249Y308910D01*
X369297Y308930D01*
X369348Y308941D01*
X369409Y308978D01*
X369475Y309006D01*
X369531Y309051D01*
X369559Y309068D01*
X369574Y309085D01*
X369606Y309111D01*
X372802Y312307D01*
X377198Y312307D01*
X380307Y309198D01*
X380307Y304802D01*
X377752Y302248D01*
X377741Y302231D01*
X377725Y302219D01*
X377669Y302132D01*
X377609Y302048D01*
X377603Y302029D01*
X377592Y302012D01*
X377567Y301912D01*
X377537Y301813D01*
X377537Y301793D01*
X377532Y301774D01*
X377540Y301671D01*
X377543Y301567D01*
X377550Y301548D01*
X377551Y301528D01*
X377592Y301433D01*
X377627Y301336D01*
X377640Y301320D01*
X377648Y301302D01*
X377752Y301171D01*
X388462Y290462D01*
X388536Y290409D01*
X388605Y290349D01*
X388635Y290337D01*
X388661Y290318D01*
X388748Y290291D01*
X388833Y290257D01*
X388874Y290253D01*
X388897Y290246D01*
X388929Y290247D01*
X389000Y290239D01*
X419782Y290239D01*
X443597Y275354D01*
X443697Y275313D01*
X443795Y275267D01*
X443810Y275265D01*
X443823Y275260D01*
X443932Y275252D01*
X444039Y275240D01*
X444054Y275243D01*
G37*
%LPC*%
G36*
X950802Y442693D02*
X950802Y442693D01*
X947693Y445802D01*
X947693Y450198D01*
X950802Y453307D01*
X955198Y453307D01*
X956725Y451780D01*
X956799Y451727D01*
X956869Y451667D01*
X956899Y451655D01*
X956925Y451636D01*
X957012Y451609D01*
X957097Y451575D01*
X957138Y451571D01*
X957160Y451564D01*
X957192Y451565D01*
X957263Y451557D01*
X1036211Y451557D01*
X1036302Y451571D01*
X1036392Y451579D01*
X1036422Y451591D01*
X1036454Y451596D01*
X1036535Y451639D01*
X1036619Y451675D01*
X1036651Y451701D01*
X1036672Y451712D01*
X1036694Y451735D01*
X1036750Y451780D01*
X1049220Y464250D01*
X1049273Y464324D01*
X1049333Y464394D01*
X1049345Y464424D01*
X1049364Y464450D01*
X1049391Y464537D01*
X1049425Y464622D01*
X1049429Y464663D01*
X1049436Y464685D01*
X1049435Y464717D01*
X1049443Y464789D01*
X1049443Y564211D01*
X1049429Y564302D01*
X1049421Y564392D01*
X1049409Y564422D01*
X1049404Y564454D01*
X1049361Y564535D01*
X1049325Y564619D01*
X1049299Y564651D01*
X1049288Y564672D01*
X1049265Y564694D01*
X1049220Y564750D01*
X987750Y626220D01*
X987676Y626273D01*
X987606Y626333D01*
X987576Y626345D01*
X987550Y626364D01*
X987463Y626391D01*
X987378Y626425D01*
X987337Y626429D01*
X987315Y626436D01*
X987283Y626435D01*
X987211Y626443D01*
X979527Y626443D01*
X965443Y640527D01*
X965443Y649211D01*
X965429Y649302D01*
X965421Y649392D01*
X965409Y649422D01*
X965404Y649454D01*
X965361Y649535D01*
X965325Y649619D01*
X965299Y649651D01*
X965288Y649672D01*
X965265Y649694D01*
X965220Y649750D01*
X946856Y668114D01*
X946798Y668156D01*
X946746Y668205D01*
X946699Y668227D01*
X946657Y668257D01*
X946588Y668278D01*
X946523Y668309D01*
X946471Y668314D01*
X946421Y668330D01*
X946350Y668328D01*
X946279Y668336D01*
X946228Y668325D01*
X946176Y668323D01*
X946108Y668299D01*
X946038Y668283D01*
X945994Y668257D01*
X945945Y668239D01*
X945889Y668194D01*
X945827Y668157D01*
X945793Y668118D01*
X945753Y668085D01*
X945714Y668025D01*
X945667Y667970D01*
X945648Y667922D01*
X945620Y667878D01*
X945602Y667809D01*
X945575Y667742D01*
X945567Y667671D01*
X945559Y667640D01*
X945561Y667616D01*
X945557Y667575D01*
X945557Y659263D01*
X945571Y659173D01*
X945579Y659082D01*
X945591Y659053D01*
X945596Y659021D01*
X945639Y658940D01*
X945675Y658856D01*
X945701Y658824D01*
X945712Y658803D01*
X945735Y658781D01*
X945780Y658725D01*
X947307Y657198D01*
X947307Y654049D01*
X947318Y653979D01*
X947320Y653907D01*
X947338Y653858D01*
X947346Y653807D01*
X947380Y653743D01*
X947405Y653676D01*
X947437Y653635D01*
X947462Y653589D01*
X947514Y653540D01*
X947558Y653484D01*
X947602Y653456D01*
X947640Y653420D01*
X947705Y653390D01*
X947765Y653351D01*
X947816Y653338D01*
X947863Y653316D01*
X947934Y653308D01*
X948004Y653291D01*
X948056Y653295D01*
X948107Y653289D01*
X948178Y653304D01*
X948249Y653310D01*
X948297Y653330D01*
X948348Y653341D01*
X948409Y653378D01*
X948475Y653406D01*
X948531Y653451D01*
X948559Y653468D01*
X948574Y653485D01*
X948606Y653511D01*
X950902Y655807D01*
X955298Y655807D01*
X958407Y652698D01*
X958407Y648302D01*
X955298Y645193D01*
X950902Y645193D01*
X947793Y648302D01*
X947793Y651451D01*
X947782Y651521D01*
X947780Y651593D01*
X947762Y651642D01*
X947754Y651693D01*
X947720Y651757D01*
X947695Y651824D01*
X947663Y651865D01*
X947638Y651911D01*
X947586Y651960D01*
X947542Y652016D01*
X947498Y652044D01*
X947460Y652080D01*
X947395Y652110D01*
X947335Y652149D01*
X947284Y652162D01*
X947237Y652184D01*
X947166Y652192D01*
X947096Y652209D01*
X947044Y652205D01*
X946993Y652211D01*
X946922Y652196D01*
X946851Y652190D01*
X946803Y652170D01*
X946752Y652159D01*
X946691Y652122D01*
X946625Y652094D01*
X946569Y652049D01*
X946541Y652032D01*
X946526Y652015D01*
X946494Y651989D01*
X944198Y649693D01*
X939802Y649693D01*
X936693Y652802D01*
X936693Y657198D01*
X938220Y658725D01*
X938273Y658799D01*
X938333Y658869D01*
X938345Y658899D01*
X938364Y658925D01*
X938391Y659012D01*
X938425Y659097D01*
X938429Y659138D01*
X938436Y659160D01*
X938435Y659192D01*
X938443Y659263D01*
X938443Y673174D01*
X938440Y673194D01*
X938442Y673213D01*
X938420Y673315D01*
X938404Y673417D01*
X938394Y673434D01*
X938390Y673454D01*
X938337Y673543D01*
X938288Y673634D01*
X938274Y673648D01*
X938264Y673665D01*
X938185Y673732D01*
X938110Y673804D01*
X938092Y673812D01*
X938077Y673825D01*
X937981Y673864D01*
X937887Y673907D01*
X937867Y673909D01*
X937849Y673917D01*
X937682Y673935D01*
X914316Y673935D01*
X890935Y697316D01*
X890935Y728001D01*
X890921Y728091D01*
X890913Y728182D01*
X890901Y728212D01*
X890896Y728244D01*
X890853Y728324D01*
X890817Y728408D01*
X890791Y728440D01*
X890780Y728461D01*
X890757Y728483D01*
X890712Y728539D01*
X885781Y733470D01*
X885707Y733523D01*
X885638Y733583D01*
X885608Y733595D01*
X885582Y733614D01*
X885495Y733641D01*
X885410Y733675D01*
X885369Y733679D01*
X885347Y733686D01*
X885314Y733685D01*
X885243Y733693D01*
X883802Y733693D01*
X880693Y736802D01*
X880693Y741198D01*
X883802Y744307D01*
X888198Y744307D01*
X891307Y741198D01*
X891307Y739757D01*
X891321Y739667D01*
X891329Y739576D01*
X891341Y739546D01*
X891346Y739514D01*
X891389Y739434D01*
X891425Y739350D01*
X891451Y739318D01*
X891462Y739297D01*
X891485Y739275D01*
X891530Y739219D01*
X896461Y734288D01*
X899065Y731684D01*
X899065Y700999D01*
X899079Y700909D01*
X899087Y700818D01*
X899099Y700788D01*
X899104Y700756D01*
X899147Y700676D01*
X899183Y700592D01*
X899209Y700560D01*
X899220Y700539D01*
X899243Y700517D01*
X899288Y700461D01*
X917461Y682288D01*
X917535Y682235D01*
X917604Y682175D01*
X917634Y682163D01*
X917660Y682144D01*
X917747Y682117D01*
X917832Y682083D01*
X917873Y682079D01*
X917896Y682072D01*
X917928Y682073D01*
X917999Y682065D01*
X940719Y682065D01*
X940810Y682079D01*
X940900Y682087D01*
X940930Y682099D01*
X940962Y682104D01*
X941043Y682147D01*
X941127Y682183D01*
X941159Y682209D01*
X941180Y682220D01*
X941202Y682243D01*
X941258Y682288D01*
X957470Y698500D01*
X957523Y698574D01*
X957583Y698644D01*
X957595Y698674D01*
X957614Y698700D01*
X957641Y698787D01*
X957675Y698872D01*
X957679Y698913D01*
X957686Y698935D01*
X957685Y698967D01*
X957693Y699039D01*
X957693Y701198D01*
X960802Y704307D01*
X965198Y704307D01*
X968307Y701198D01*
X968307Y696802D01*
X965198Y693693D01*
X963039Y693693D01*
X962948Y693679D01*
X962858Y693671D01*
X962828Y693659D01*
X962796Y693654D01*
X962715Y693611D01*
X962631Y693575D01*
X962599Y693549D01*
X962578Y693538D01*
X962556Y693515D01*
X962500Y693470D01*
X947568Y678538D01*
X947557Y678522D01*
X947541Y678510D01*
X947485Y678422D01*
X947425Y678339D01*
X947419Y678320D01*
X947408Y678303D01*
X947383Y678202D01*
X947352Y678103D01*
X947353Y678084D01*
X947348Y678064D01*
X947356Y677961D01*
X947359Y677858D01*
X947366Y677839D01*
X947367Y677819D01*
X947407Y677724D01*
X947443Y677627D01*
X947456Y677611D01*
X947463Y677593D01*
X947568Y677462D01*
X970250Y654780D01*
X972394Y652636D01*
X972452Y652594D01*
X972504Y652545D01*
X972551Y652523D01*
X972593Y652493D01*
X972662Y652472D01*
X972727Y652441D01*
X972779Y652436D01*
X972829Y652420D01*
X972900Y652422D01*
X972971Y652414D01*
X973022Y652425D01*
X973074Y652427D01*
X973142Y652451D01*
X973212Y652467D01*
X973257Y652493D01*
X973305Y652511D01*
X973361Y652556D01*
X973423Y652593D01*
X973457Y652632D01*
X973497Y652665D01*
X973536Y652725D01*
X973583Y652780D01*
X973602Y652828D01*
X973630Y652872D01*
X973648Y652941D01*
X973675Y653008D01*
X973683Y653079D01*
X973691Y653110D01*
X973689Y653134D01*
X973693Y653175D01*
X973693Y653198D01*
X976802Y656307D01*
X981198Y656307D01*
X984307Y653198D01*
X984307Y648802D01*
X981198Y645693D01*
X976802Y645693D01*
X973856Y648639D01*
X973798Y648681D01*
X973746Y648730D01*
X973699Y648752D01*
X973657Y648782D01*
X973588Y648804D01*
X973523Y648834D01*
X973471Y648839D01*
X973421Y648855D01*
X973350Y648853D01*
X973279Y648861D01*
X973228Y648850D01*
X973176Y648848D01*
X973108Y648824D01*
X973038Y648809D01*
X972993Y648782D01*
X972945Y648764D01*
X972889Y648719D01*
X972827Y648682D01*
X972793Y648643D01*
X972753Y648610D01*
X972714Y648550D01*
X972667Y648495D01*
X972648Y648447D01*
X972620Y648403D01*
X972602Y648334D01*
X972575Y648267D01*
X972567Y648196D01*
X972559Y648165D01*
X972561Y648142D01*
X972557Y648101D01*
X972557Y643789D01*
X972571Y643698D01*
X972579Y643608D01*
X972591Y643578D01*
X972596Y643546D01*
X972639Y643465D01*
X972675Y643381D01*
X972701Y643349D01*
X972712Y643328D01*
X972735Y643306D01*
X972780Y643250D01*
X982250Y633780D01*
X982324Y633727D01*
X982394Y633667D01*
X982424Y633655D01*
X982450Y633636D01*
X982537Y633609D01*
X982622Y633575D01*
X982663Y633571D01*
X982685Y633564D01*
X982717Y633565D01*
X982789Y633557D01*
X990473Y633557D01*
X1056557Y567473D01*
X1056557Y461527D01*
X1039473Y444443D01*
X957263Y444443D01*
X957173Y444429D01*
X957082Y444421D01*
X957053Y444409D01*
X957021Y444404D01*
X956940Y444361D01*
X956856Y444325D01*
X956824Y444299D01*
X956803Y444288D01*
X956781Y444265D01*
X956725Y444220D01*
X955198Y442693D01*
X950802Y442693D01*
G37*
%LPD*%
%LPC*%
G36*
X966802Y547693D02*
X966802Y547693D01*
X963693Y550802D01*
X963693Y553932D01*
X963690Y553952D01*
X963692Y553971D01*
X963670Y554073D01*
X963654Y554175D01*
X963644Y554192D01*
X963640Y554212D01*
X963587Y554301D01*
X963538Y554392D01*
X963524Y554406D01*
X963514Y554423D01*
X963435Y554490D01*
X963360Y554562D01*
X963342Y554570D01*
X963327Y554583D01*
X963231Y554622D01*
X963137Y554665D01*
X963117Y554667D01*
X963099Y554675D01*
X962932Y554693D01*
X958802Y554693D01*
X955693Y557802D01*
X955693Y559351D01*
X955682Y559421D01*
X955680Y559493D01*
X955662Y559542D01*
X955654Y559593D01*
X955620Y559657D01*
X955595Y559724D01*
X955563Y559765D01*
X955538Y559811D01*
X955487Y559860D01*
X955442Y559916D01*
X955398Y559944D01*
X955360Y559980D01*
X955295Y560010D01*
X955235Y560049D01*
X955184Y560062D01*
X955137Y560084D01*
X955066Y560092D01*
X954996Y560109D01*
X954944Y560105D01*
X954893Y560111D01*
X954822Y560096D01*
X954751Y560090D01*
X954703Y560070D01*
X954652Y560059D01*
X954591Y560022D01*
X954525Y559994D01*
X954469Y559949D01*
X954441Y559932D01*
X954426Y559915D01*
X954394Y559889D01*
X954198Y559693D01*
X949802Y559693D01*
X946693Y562802D01*
X946693Y567198D01*
X946889Y567394D01*
X946931Y567452D01*
X946980Y567504D01*
X947002Y567551D01*
X947032Y567593D01*
X947054Y567662D01*
X947084Y567727D01*
X947089Y567779D01*
X947105Y567829D01*
X947103Y567900D01*
X947111Y567971D01*
X947100Y568022D01*
X947098Y568074D01*
X947074Y568142D01*
X947059Y568212D01*
X947032Y568257D01*
X947014Y568305D01*
X946969Y568361D01*
X946932Y568423D01*
X946893Y568457D01*
X946860Y568497D01*
X946800Y568536D01*
X946745Y568583D01*
X946697Y568602D01*
X946653Y568630D01*
X946584Y568648D01*
X946517Y568675D01*
X946446Y568683D01*
X946415Y568691D01*
X946392Y568689D01*
X946351Y568693D01*
X943802Y568693D01*
X940693Y571802D01*
X940693Y576198D01*
X943802Y579307D01*
X948198Y579307D01*
X949394Y578111D01*
X949452Y578069D01*
X949504Y578020D01*
X949551Y577998D01*
X949593Y577968D01*
X949662Y577946D01*
X949727Y577916D01*
X949779Y577911D01*
X949829Y577895D01*
X949900Y577897D01*
X949971Y577889D01*
X950022Y577900D01*
X950074Y577902D01*
X950142Y577926D01*
X950212Y577941D01*
X950257Y577968D01*
X950305Y577986D01*
X950361Y578031D01*
X950423Y578068D01*
X950457Y578107D01*
X950497Y578140D01*
X950536Y578200D01*
X950583Y578255D01*
X950602Y578303D01*
X950630Y578347D01*
X950648Y578416D01*
X950675Y578483D01*
X950683Y578554D01*
X950691Y578585D01*
X950689Y578608D01*
X950693Y578649D01*
X950693Y582198D01*
X950889Y582394D01*
X950931Y582452D01*
X950980Y582504D01*
X951002Y582551D01*
X951032Y582593D01*
X951054Y582662D01*
X951084Y582727D01*
X951089Y582779D01*
X951105Y582829D01*
X951103Y582900D01*
X951111Y582971D01*
X951100Y583022D01*
X951098Y583074D01*
X951074Y583142D01*
X951059Y583212D01*
X951032Y583257D01*
X951014Y583305D01*
X950969Y583361D01*
X950932Y583423D01*
X950893Y583457D01*
X950860Y583497D01*
X950800Y583536D01*
X950745Y583583D01*
X950697Y583602D01*
X950653Y583630D01*
X950584Y583648D01*
X950517Y583675D01*
X950446Y583683D01*
X950415Y583691D01*
X950392Y583689D01*
X950351Y583693D01*
X949802Y583693D01*
X946693Y586802D01*
X946693Y591198D01*
X949889Y594394D01*
X949931Y594452D01*
X949980Y594504D01*
X950002Y594551D01*
X950032Y594593D01*
X950054Y594662D01*
X950084Y594727D01*
X950089Y594779D01*
X950105Y594829D01*
X950103Y594900D01*
X950111Y594971D01*
X950100Y595022D01*
X950098Y595074D01*
X950074Y595142D01*
X950059Y595212D01*
X950032Y595257D01*
X950014Y595305D01*
X949969Y595361D01*
X949932Y595423D01*
X949893Y595457D01*
X949860Y595497D01*
X949800Y595536D01*
X949745Y595583D01*
X949697Y595602D01*
X949653Y595630D01*
X949584Y595648D01*
X949517Y595675D01*
X949446Y595683D01*
X949415Y595691D01*
X949392Y595689D01*
X949351Y595693D01*
X947802Y595693D01*
X944693Y598802D01*
X944693Y603198D01*
X947802Y606307D01*
X952198Y606307D01*
X955307Y603198D01*
X955307Y598802D01*
X952111Y595606D01*
X952069Y595548D01*
X952020Y595496D01*
X951998Y595449D01*
X951968Y595407D01*
X951946Y595338D01*
X951916Y595273D01*
X951911Y595221D01*
X951895Y595171D01*
X951897Y595100D01*
X951889Y595029D01*
X951900Y594978D01*
X951902Y594926D01*
X951926Y594858D01*
X951941Y594788D01*
X951968Y594743D01*
X951986Y594695D01*
X952031Y594639D01*
X952068Y594577D01*
X952107Y594543D01*
X952140Y594503D01*
X952200Y594464D01*
X952255Y594417D01*
X952303Y594398D01*
X952347Y594370D01*
X952416Y594352D01*
X952483Y594325D01*
X952554Y594317D01*
X952585Y594309D01*
X952608Y594311D01*
X952649Y594307D01*
X954198Y594307D01*
X957307Y591198D01*
X957307Y586802D01*
X957111Y586606D01*
X957069Y586548D01*
X957020Y586496D01*
X956998Y586449D01*
X956968Y586407D01*
X956946Y586338D01*
X956916Y586273D01*
X956911Y586221D01*
X956895Y586171D01*
X956897Y586100D01*
X956889Y586029D01*
X956900Y585978D01*
X956902Y585926D01*
X956926Y585858D01*
X956941Y585788D01*
X956968Y585743D01*
X956986Y585695D01*
X957031Y585639D01*
X957068Y585577D01*
X957107Y585543D01*
X957140Y585503D01*
X957200Y585464D01*
X957255Y585417D01*
X957303Y585398D01*
X957347Y585370D01*
X957416Y585352D01*
X957483Y585325D01*
X957554Y585317D01*
X957585Y585309D01*
X957608Y585311D01*
X957649Y585307D01*
X958198Y585307D01*
X961307Y582198D01*
X961307Y577802D01*
X958198Y574693D01*
X953802Y574693D01*
X952606Y575889D01*
X952548Y575931D01*
X952496Y575980D01*
X952449Y576002D01*
X952407Y576032D01*
X952338Y576054D01*
X952273Y576084D01*
X952221Y576089D01*
X952171Y576105D01*
X952100Y576103D01*
X952029Y576111D01*
X951978Y576100D01*
X951926Y576098D01*
X951858Y576074D01*
X951788Y576059D01*
X951743Y576032D01*
X951695Y576014D01*
X951639Y575969D01*
X951577Y575932D01*
X951543Y575893D01*
X951503Y575860D01*
X951464Y575800D01*
X951417Y575745D01*
X951398Y575697D01*
X951370Y575653D01*
X951352Y575584D01*
X951325Y575517D01*
X951317Y575446D01*
X951309Y575415D01*
X951311Y575392D01*
X951307Y575351D01*
X951307Y571802D01*
X951111Y571606D01*
X951069Y571548D01*
X951020Y571496D01*
X950998Y571449D01*
X950968Y571407D01*
X950946Y571338D01*
X950916Y571273D01*
X950911Y571221D01*
X950895Y571171D01*
X950897Y571100D01*
X950889Y571029D01*
X950900Y570978D01*
X950902Y570926D01*
X950926Y570858D01*
X950941Y570788D01*
X950968Y570743D01*
X950986Y570695D01*
X951031Y570639D01*
X951068Y570577D01*
X951107Y570543D01*
X951140Y570503D01*
X951200Y570464D01*
X951255Y570417D01*
X951303Y570398D01*
X951347Y570370D01*
X951416Y570352D01*
X951483Y570325D01*
X951554Y570317D01*
X951585Y570309D01*
X951608Y570311D01*
X951649Y570307D01*
X954198Y570307D01*
X957307Y567198D01*
X957307Y565649D01*
X957318Y565579D01*
X957320Y565507D01*
X957338Y565458D01*
X957346Y565407D01*
X957380Y565343D01*
X957405Y565276D01*
X957437Y565235D01*
X957462Y565189D01*
X957513Y565140D01*
X957558Y565084D01*
X957602Y565056D01*
X957640Y565020D01*
X957705Y564990D01*
X957765Y564951D01*
X957816Y564938D01*
X957863Y564916D01*
X957934Y564908D01*
X958004Y564891D01*
X958056Y564895D01*
X958107Y564889D01*
X958178Y564904D01*
X958249Y564910D01*
X958297Y564930D01*
X958348Y564941D01*
X958409Y564978D01*
X958475Y565006D01*
X958531Y565051D01*
X958559Y565068D01*
X958574Y565085D01*
X958606Y565111D01*
X958802Y565307D01*
X963198Y565307D01*
X966307Y562198D01*
X966307Y559068D01*
X966309Y559056D01*
X966308Y559048D01*
X966309Y559042D01*
X966308Y559029D01*
X966330Y558927D01*
X966346Y558825D01*
X966356Y558808D01*
X966360Y558788D01*
X966413Y558699D01*
X966462Y558608D01*
X966476Y558594D01*
X966486Y558577D01*
X966565Y558510D01*
X966640Y558438D01*
X966658Y558430D01*
X966673Y558417D01*
X966769Y558378D01*
X966863Y558335D01*
X966883Y558333D01*
X966901Y558325D01*
X967068Y558307D01*
X971198Y558307D01*
X974307Y555198D01*
X974307Y550802D01*
X971198Y547693D01*
X966802Y547693D01*
G37*
%LPD*%
%LPC*%
G36*
X1091196Y371902D02*
X1091196Y371902D01*
X1086014Y374049D01*
X1082049Y378014D01*
X1079902Y383196D01*
X1079902Y388804D01*
X1082049Y393986D01*
X1086014Y397951D01*
X1091196Y400098D01*
X1096804Y400098D01*
X1101986Y397951D01*
X1105951Y393986D01*
X1108098Y388804D01*
X1108098Y383196D01*
X1105951Y378014D01*
X1101986Y374049D01*
X1096804Y371902D01*
X1091196Y371902D01*
G37*
%LPD*%
%LPC*%
G36*
X857802Y180693D02*
X857802Y180693D01*
X854693Y183802D01*
X854693Y188198D01*
X857802Y191307D01*
X862198Y191307D01*
X865462Y188043D01*
X865478Y188032D01*
X865490Y188016D01*
X865578Y187960D01*
X865661Y187900D01*
X865680Y187894D01*
X865697Y187883D01*
X865798Y187858D01*
X865897Y187827D01*
X865916Y187828D01*
X865936Y187823D01*
X866039Y187831D01*
X866142Y187834D01*
X866161Y187840D01*
X866181Y187842D01*
X866276Y187882D01*
X866373Y187918D01*
X866389Y187931D01*
X866407Y187938D01*
X866538Y188043D01*
X869802Y191307D01*
X874198Y191307D01*
X876962Y188543D01*
X876978Y188532D01*
X876990Y188516D01*
X877078Y188460D01*
X877161Y188400D01*
X877180Y188394D01*
X877197Y188383D01*
X877298Y188358D01*
X877397Y188327D01*
X877416Y188328D01*
X877436Y188323D01*
X877539Y188331D01*
X877642Y188334D01*
X877661Y188340D01*
X877681Y188342D01*
X877776Y188382D01*
X877873Y188418D01*
X877889Y188431D01*
X877907Y188438D01*
X878038Y188543D01*
X880802Y191307D01*
X885198Y191307D01*
X887462Y189043D01*
X887478Y189032D01*
X887490Y189016D01*
X887578Y188960D01*
X887661Y188900D01*
X887680Y188894D01*
X887697Y188883D01*
X887798Y188858D01*
X887897Y188827D01*
X887916Y188828D01*
X887936Y188823D01*
X888039Y188831D01*
X888142Y188834D01*
X888161Y188840D01*
X888181Y188842D01*
X888276Y188882D01*
X888373Y188918D01*
X888389Y188931D01*
X888407Y188938D01*
X888538Y189043D01*
X891802Y192307D01*
X896198Y192307D01*
X899307Y189198D01*
X899307Y184802D01*
X896198Y181693D01*
X891802Y181693D01*
X889538Y183957D01*
X889522Y183968D01*
X889510Y183984D01*
X889422Y184040D01*
X889339Y184100D01*
X889320Y184106D01*
X889303Y184117D01*
X889202Y184142D01*
X889103Y184173D01*
X889084Y184172D01*
X889064Y184177D01*
X888961Y184169D01*
X888858Y184166D01*
X888839Y184160D01*
X888819Y184158D01*
X888724Y184118D01*
X888627Y184082D01*
X888611Y184069D01*
X888593Y184062D01*
X888462Y183957D01*
X885198Y180693D01*
X880802Y180693D01*
X878038Y183457D01*
X878022Y183468D01*
X878010Y183484D01*
X877922Y183540D01*
X877839Y183600D01*
X877820Y183606D01*
X877803Y183617D01*
X877702Y183642D01*
X877603Y183673D01*
X877584Y183672D01*
X877564Y183677D01*
X877461Y183669D01*
X877358Y183666D01*
X877339Y183660D01*
X877319Y183658D01*
X877224Y183618D01*
X877127Y183582D01*
X877111Y183569D01*
X877093Y183562D01*
X876962Y183457D01*
X874198Y180693D01*
X869802Y180693D01*
X866538Y183957D01*
X866522Y183968D01*
X866510Y183984D01*
X866422Y184040D01*
X866339Y184100D01*
X866320Y184106D01*
X866303Y184117D01*
X866202Y184142D01*
X866103Y184173D01*
X866084Y184172D01*
X866064Y184177D01*
X865961Y184169D01*
X865858Y184166D01*
X865839Y184160D01*
X865819Y184158D01*
X865724Y184118D01*
X865627Y184082D01*
X865611Y184069D01*
X865593Y184062D01*
X865462Y183957D01*
X862198Y180693D01*
X857802Y180693D01*
G37*
%LPD*%
%LPC*%
G36*
X811802Y660693D02*
X811802Y660693D01*
X808693Y663802D01*
X808693Y668198D01*
X811802Y671307D01*
X815351Y671307D01*
X815421Y671318D01*
X815493Y671320D01*
X815542Y671338D01*
X815593Y671346D01*
X815657Y671380D01*
X815724Y671405D01*
X815765Y671437D01*
X815811Y671462D01*
X815860Y671513D01*
X815916Y671558D01*
X815944Y671602D01*
X815980Y671640D01*
X816010Y671705D01*
X816049Y671765D01*
X816062Y671816D01*
X816084Y671863D01*
X816092Y671934D01*
X816109Y672004D01*
X816105Y672056D01*
X816111Y672107D01*
X816096Y672178D01*
X816090Y672249D01*
X816070Y672297D01*
X816059Y672348D01*
X816022Y672409D01*
X815994Y672475D01*
X815949Y672531D01*
X815932Y672559D01*
X815915Y672574D01*
X815889Y672606D01*
X813693Y674802D01*
X813693Y679198D01*
X816802Y682307D01*
X821198Y682307D01*
X822394Y681111D01*
X822452Y681069D01*
X822504Y681020D01*
X822551Y680998D01*
X822593Y680968D01*
X822662Y680946D01*
X822727Y680916D01*
X822779Y680911D01*
X822829Y680895D01*
X822900Y680897D01*
X822971Y680889D01*
X823022Y680900D01*
X823074Y680902D01*
X823142Y680926D01*
X823212Y680941D01*
X823257Y680968D01*
X823305Y680986D01*
X823361Y681031D01*
X823423Y681068D01*
X823457Y681107D01*
X823497Y681140D01*
X823536Y681200D01*
X823583Y681255D01*
X823602Y681303D01*
X823630Y681347D01*
X823648Y681416D01*
X823675Y681483D01*
X823683Y681554D01*
X823691Y681585D01*
X823689Y681608D01*
X823693Y681649D01*
X823693Y683198D01*
X826802Y686307D01*
X831198Y686307D01*
X834307Y683198D01*
X834307Y678802D01*
X831198Y675693D01*
X826802Y675693D01*
X825606Y676889D01*
X825548Y676931D01*
X825496Y676980D01*
X825449Y677002D01*
X825407Y677032D01*
X825338Y677054D01*
X825273Y677084D01*
X825221Y677089D01*
X825171Y677105D01*
X825100Y677103D01*
X825029Y677111D01*
X824978Y677100D01*
X824926Y677098D01*
X824858Y677074D01*
X824788Y677059D01*
X824743Y677032D01*
X824695Y677014D01*
X824639Y676969D01*
X824577Y676932D01*
X824543Y676893D01*
X824503Y676860D01*
X824464Y676800D01*
X824417Y676745D01*
X824398Y676697D01*
X824370Y676653D01*
X824352Y676584D01*
X824325Y676517D01*
X824317Y676446D01*
X824309Y676415D01*
X824311Y676392D01*
X824307Y676351D01*
X824307Y674802D01*
X821198Y671693D01*
X817649Y671693D01*
X817579Y671682D01*
X817507Y671680D01*
X817458Y671662D01*
X817407Y671654D01*
X817343Y671620D01*
X817276Y671595D01*
X817235Y671563D01*
X817189Y671538D01*
X817140Y671486D01*
X817084Y671442D01*
X817056Y671398D01*
X817020Y671360D01*
X816990Y671295D01*
X816951Y671235D01*
X816938Y671184D01*
X816916Y671137D01*
X816908Y671066D01*
X816891Y670996D01*
X816895Y670944D01*
X816889Y670893D01*
X816904Y670822D01*
X816910Y670751D01*
X816930Y670703D01*
X816941Y670652D01*
X816978Y670591D01*
X817006Y670525D01*
X817051Y670469D01*
X817068Y670441D01*
X817085Y670426D01*
X817111Y670394D01*
X819307Y668198D01*
X819307Y663802D01*
X816198Y660693D01*
X811802Y660693D01*
G37*
%LPD*%
%LPC*%
G36*
X790802Y659693D02*
X790802Y659693D01*
X787693Y662802D01*
X787693Y664351D01*
X787682Y664421D01*
X787680Y664493D01*
X787662Y664542D01*
X787654Y664593D01*
X787620Y664657D01*
X787595Y664724D01*
X787563Y664765D01*
X787538Y664811D01*
X787487Y664860D01*
X787442Y664916D01*
X787398Y664944D01*
X787360Y664980D01*
X787295Y665010D01*
X787235Y665049D01*
X787184Y665062D01*
X787137Y665084D01*
X787066Y665092D01*
X786996Y665109D01*
X786944Y665105D01*
X786893Y665111D01*
X786822Y665096D01*
X786751Y665090D01*
X786703Y665070D01*
X786652Y665059D01*
X786591Y665022D01*
X786525Y664994D01*
X786469Y664949D01*
X786441Y664932D01*
X786426Y664915D01*
X786394Y664889D01*
X786198Y664693D01*
X781802Y664693D01*
X778693Y667802D01*
X778693Y672198D01*
X781889Y675394D01*
X781931Y675452D01*
X781980Y675504D01*
X782002Y675551D01*
X782032Y675593D01*
X782041Y675621D01*
X782068Y675577D01*
X782107Y675543D01*
X782140Y675503D01*
X782200Y675464D01*
X782255Y675417D01*
X782303Y675398D01*
X782347Y675370D01*
X782416Y675352D01*
X782483Y675325D01*
X782554Y675317D01*
X782585Y675309D01*
X782608Y675311D01*
X782649Y675307D01*
X786198Y675307D01*
X789307Y672198D01*
X789307Y670649D01*
X789318Y670579D01*
X789320Y670507D01*
X789338Y670458D01*
X789346Y670407D01*
X789380Y670343D01*
X789405Y670276D01*
X789437Y670235D01*
X789462Y670189D01*
X789513Y670140D01*
X789558Y670084D01*
X789602Y670056D01*
X789640Y670020D01*
X789705Y669990D01*
X789765Y669951D01*
X789816Y669938D01*
X789863Y669916D01*
X789934Y669908D01*
X790004Y669891D01*
X790056Y669895D01*
X790107Y669889D01*
X790178Y669904D01*
X790249Y669910D01*
X790297Y669930D01*
X790348Y669941D01*
X790409Y669978D01*
X790475Y670006D01*
X790531Y670051D01*
X790559Y670068D01*
X790574Y670085D01*
X790606Y670111D01*
X790802Y670307D01*
X793932Y670307D01*
X793952Y670310D01*
X793971Y670308D01*
X794073Y670330D01*
X794175Y670346D01*
X794192Y670356D01*
X794212Y670360D01*
X794301Y670413D01*
X794392Y670462D01*
X794406Y670476D01*
X794423Y670486D01*
X794490Y670565D01*
X794562Y670640D01*
X794570Y670658D01*
X794583Y670673D01*
X794622Y670769D01*
X794665Y670863D01*
X794667Y670883D01*
X794675Y670901D01*
X794693Y671068D01*
X794693Y673198D01*
X797802Y676307D01*
X802198Y676307D01*
X805307Y673198D01*
X805307Y668802D01*
X802198Y665693D01*
X799068Y665693D01*
X799048Y665690D01*
X799029Y665692D01*
X798927Y665670D01*
X798825Y665654D01*
X798808Y665644D01*
X798788Y665640D01*
X798699Y665587D01*
X798608Y665538D01*
X798594Y665524D01*
X798577Y665514D01*
X798510Y665435D01*
X798438Y665360D01*
X798430Y665342D01*
X798417Y665327D01*
X798378Y665231D01*
X798335Y665137D01*
X798333Y665117D01*
X798325Y665099D01*
X798307Y664932D01*
X798307Y662802D01*
X795198Y659693D01*
X790802Y659693D01*
G37*
%LPD*%
%LPC*%
G36*
X913481Y771955D02*
X913481Y771955D01*
X910120Y773347D01*
X907547Y775920D01*
X906155Y779281D01*
X906155Y782919D01*
X907547Y786280D01*
X910120Y788853D01*
X913481Y790245D01*
X917119Y790245D01*
X920480Y788853D01*
X923053Y786280D01*
X924445Y782919D01*
X924445Y779281D01*
X923053Y775920D01*
X920480Y773347D01*
X917119Y771955D01*
X913481Y771955D01*
G37*
%LPD*%
%LPC*%
G36*
X938881Y721155D02*
X938881Y721155D01*
X935520Y722547D01*
X932947Y725120D01*
X931555Y728481D01*
X931555Y732119D01*
X932947Y735480D01*
X935520Y738053D01*
X938881Y739445D01*
X942519Y739445D01*
X945880Y738053D01*
X948453Y735480D01*
X949845Y732119D01*
X949845Y728481D01*
X948453Y725120D01*
X945880Y722547D01*
X942519Y721155D01*
X938881Y721155D01*
G37*
%LPD*%
%LPC*%
G36*
X913481Y721155D02*
X913481Y721155D01*
X910120Y722547D01*
X907547Y725120D01*
X906155Y728481D01*
X906155Y732119D01*
X907547Y735480D01*
X910120Y738053D01*
X913481Y739445D01*
X917119Y739445D01*
X920480Y738053D01*
X923053Y735480D01*
X924445Y732119D01*
X924445Y728481D01*
X923053Y725120D01*
X920480Y722547D01*
X917119Y721155D01*
X913481Y721155D01*
G37*
%LPD*%
%LPC*%
G36*
X938881Y771955D02*
X938881Y771955D01*
X935520Y773347D01*
X932947Y775920D01*
X931555Y779281D01*
X931555Y782919D01*
X932947Y786280D01*
X935520Y788853D01*
X938881Y790245D01*
X942519Y790245D01*
X945880Y788853D01*
X948453Y786280D01*
X949845Y782919D01*
X949845Y779281D01*
X948453Y775920D01*
X945880Y773347D01*
X942519Y771955D01*
X938881Y771955D01*
G37*
%LPD*%
%LPC*%
G36*
X938881Y695755D02*
X938881Y695755D01*
X935520Y697147D01*
X932947Y699720D01*
X931555Y703081D01*
X931555Y706719D01*
X932947Y710080D01*
X935520Y712653D01*
X938881Y714045D01*
X942519Y714045D01*
X945880Y712653D01*
X948453Y710080D01*
X949845Y706719D01*
X949845Y703081D01*
X948453Y699720D01*
X945880Y697147D01*
X942519Y695755D01*
X938881Y695755D01*
G37*
%LPD*%
%LPC*%
G36*
X938881Y746555D02*
X938881Y746555D01*
X935520Y747947D01*
X932947Y750520D01*
X931555Y753881D01*
X931555Y757519D01*
X932947Y760880D01*
X935520Y763453D01*
X938881Y764845D01*
X942519Y764845D01*
X945880Y763453D01*
X948453Y760880D01*
X949845Y757519D01*
X949845Y753881D01*
X948453Y750520D01*
X945880Y747947D01*
X942519Y746555D01*
X938881Y746555D01*
G37*
%LPD*%
%LPC*%
G36*
X913481Y746555D02*
X913481Y746555D01*
X910120Y747947D01*
X907547Y750520D01*
X906155Y753881D01*
X906155Y757519D01*
X907547Y760880D01*
X910120Y763453D01*
X913481Y764845D01*
X917119Y764845D01*
X920480Y763453D01*
X923053Y760880D01*
X924445Y757519D01*
X924445Y753881D01*
X923053Y750520D01*
X920480Y747947D01*
X917119Y746555D01*
X913481Y746555D01*
G37*
%LPD*%
%LPC*%
G36*
X913481Y695755D02*
X913481Y695755D01*
X910120Y697147D01*
X907547Y699720D01*
X906155Y703081D01*
X906155Y706719D01*
X907547Y710080D01*
X910120Y712653D01*
X913481Y714045D01*
X917119Y714045D01*
X920480Y712653D01*
X923053Y710080D01*
X924445Y706719D01*
X924445Y703081D01*
X923053Y699720D01*
X920480Y697147D01*
X917119Y695755D01*
X913481Y695755D01*
G37*
%LPD*%
%LPC*%
G36*
X970497Y367835D02*
X970497Y367835D01*
X967165Y369215D01*
X964615Y371765D01*
X963235Y375097D01*
X963235Y378703D01*
X964615Y382035D01*
X967165Y384585D01*
X970497Y385965D01*
X974103Y385965D01*
X977435Y384585D01*
X979985Y382035D01*
X981365Y378703D01*
X981365Y375097D01*
X979985Y371765D01*
X977435Y369215D01*
X974103Y367835D01*
X970497Y367835D01*
G37*
%LPD*%
%LPC*%
G36*
X827897Y172535D02*
X827897Y172535D01*
X824565Y173915D01*
X822015Y176465D01*
X820635Y179797D01*
X820635Y183403D01*
X822015Y186735D01*
X824565Y189285D01*
X827897Y190665D01*
X831503Y190665D01*
X834835Y189285D01*
X837385Y186735D01*
X838765Y183403D01*
X838765Y179797D01*
X837385Y176465D01*
X834835Y173915D01*
X831503Y172535D01*
X827897Y172535D01*
G37*
%LPD*%
%LPC*%
G36*
X596802Y230693D02*
X596802Y230693D01*
X593693Y233802D01*
X593693Y238198D01*
X596802Y241307D01*
X601198Y241307D01*
X602394Y240111D01*
X602452Y240069D01*
X602504Y240020D01*
X602551Y239998D01*
X602593Y239968D01*
X602662Y239946D01*
X602727Y239916D01*
X602779Y239911D01*
X602829Y239895D01*
X602900Y239897D01*
X602971Y239889D01*
X603022Y239900D01*
X603074Y239902D01*
X603142Y239926D01*
X603212Y239941D01*
X603257Y239968D01*
X603305Y239986D01*
X603361Y240031D01*
X603423Y240068D01*
X603457Y240107D01*
X603497Y240140D01*
X603536Y240200D01*
X603583Y240255D01*
X603602Y240303D01*
X603630Y240347D01*
X603648Y240416D01*
X603675Y240483D01*
X603683Y240554D01*
X603691Y240585D01*
X603689Y240608D01*
X603693Y240649D01*
X603693Y244198D01*
X606802Y247307D01*
X611198Y247307D01*
X614307Y244198D01*
X614307Y239802D01*
X611198Y236693D01*
X606802Y236693D01*
X605606Y237889D01*
X605548Y237931D01*
X605496Y237980D01*
X605449Y238002D01*
X605407Y238032D01*
X605338Y238054D01*
X605273Y238084D01*
X605221Y238089D01*
X605171Y238105D01*
X605100Y238103D01*
X605029Y238111D01*
X604978Y238100D01*
X604926Y238098D01*
X604858Y238074D01*
X604788Y238059D01*
X604743Y238032D01*
X604695Y238014D01*
X604639Y237969D01*
X604577Y237932D01*
X604543Y237893D01*
X604503Y237860D01*
X604464Y237800D01*
X604417Y237745D01*
X604398Y237697D01*
X604370Y237653D01*
X604352Y237584D01*
X604325Y237517D01*
X604317Y237446D01*
X604309Y237415D01*
X604311Y237392D01*
X604307Y237351D01*
X604307Y233802D01*
X601198Y230693D01*
X596802Y230693D01*
G37*
%LPD*%
%LPC*%
G36*
X867802Y644693D02*
X867802Y644693D01*
X864693Y647802D01*
X864693Y652198D01*
X867802Y655307D01*
X872198Y655307D01*
X874962Y652543D01*
X874978Y652532D01*
X874990Y652516D01*
X875078Y652460D01*
X875161Y652400D01*
X875180Y652394D01*
X875197Y652383D01*
X875298Y652358D01*
X875397Y652327D01*
X875416Y652328D01*
X875436Y652323D01*
X875539Y652331D01*
X875642Y652334D01*
X875661Y652340D01*
X875681Y652342D01*
X875776Y652382D01*
X875873Y652418D01*
X875889Y652431D01*
X875907Y652438D01*
X876038Y652543D01*
X878802Y655307D01*
X883198Y655307D01*
X886307Y652198D01*
X886307Y647802D01*
X883198Y644693D01*
X878802Y644693D01*
X876038Y647457D01*
X876022Y647468D01*
X876010Y647484D01*
X875922Y647540D01*
X875839Y647600D01*
X875820Y647606D01*
X875803Y647617D01*
X875702Y647642D01*
X875603Y647673D01*
X875584Y647672D01*
X875564Y647677D01*
X875461Y647669D01*
X875358Y647666D01*
X875339Y647660D01*
X875319Y647658D01*
X875224Y647618D01*
X875127Y647582D01*
X875111Y647569D01*
X875093Y647562D01*
X874962Y647457D01*
X872198Y644693D01*
X867802Y644693D01*
G37*
%LPD*%
%LPC*%
G36*
X823802Y690693D02*
X823802Y690693D01*
X820693Y693802D01*
X820693Y698198D01*
X823457Y700962D01*
X823468Y700978D01*
X823484Y700990D01*
X823540Y701078D01*
X823600Y701161D01*
X823606Y701180D01*
X823617Y701197D01*
X823642Y701298D01*
X823673Y701397D01*
X823672Y701416D01*
X823677Y701436D01*
X823669Y701539D01*
X823666Y701642D01*
X823660Y701661D01*
X823658Y701681D01*
X823618Y701776D01*
X823582Y701873D01*
X823569Y701889D01*
X823562Y701907D01*
X823457Y702038D01*
X820693Y704802D01*
X820693Y709198D01*
X823802Y712307D01*
X828198Y712307D01*
X831307Y709198D01*
X831307Y704802D01*
X828543Y702038D01*
X828532Y702022D01*
X828516Y702010D01*
X828460Y701922D01*
X828400Y701839D01*
X828394Y701820D01*
X828383Y701803D01*
X828358Y701702D01*
X828327Y701603D01*
X828328Y701584D01*
X828323Y701564D01*
X828331Y701461D01*
X828334Y701358D01*
X828340Y701339D01*
X828342Y701319D01*
X828382Y701224D01*
X828418Y701127D01*
X828431Y701111D01*
X828438Y701093D01*
X828543Y700962D01*
X831307Y698198D01*
X831307Y693802D01*
X828198Y690693D01*
X823802Y690693D01*
G37*
%LPD*%
%LPC*%
G36*
X881802Y606693D02*
X881802Y606693D01*
X878693Y609802D01*
X878693Y614198D01*
X881802Y617307D01*
X882351Y617307D01*
X882421Y617318D01*
X882493Y617320D01*
X882542Y617338D01*
X882593Y617346D01*
X882657Y617380D01*
X882724Y617405D01*
X882765Y617437D01*
X882811Y617462D01*
X882860Y617514D01*
X882916Y617558D01*
X882944Y617602D01*
X882980Y617640D01*
X883010Y617705D01*
X883049Y617765D01*
X883062Y617816D01*
X883084Y617863D01*
X883092Y617934D01*
X883109Y618004D01*
X883105Y618056D01*
X883111Y618107D01*
X883096Y618178D01*
X883090Y618249D01*
X883070Y618297D01*
X883059Y618348D01*
X883022Y618409D01*
X882994Y618475D01*
X882949Y618531D01*
X882932Y618559D01*
X882915Y618574D01*
X882889Y618606D01*
X881693Y619802D01*
X881693Y624198D01*
X884802Y627307D01*
X889198Y627307D01*
X892307Y624198D01*
X892307Y619802D01*
X889198Y616693D01*
X888649Y616693D01*
X888579Y616682D01*
X888507Y616680D01*
X888458Y616662D01*
X888407Y616654D01*
X888343Y616620D01*
X888276Y616595D01*
X888235Y616563D01*
X888189Y616538D01*
X888140Y616486D01*
X888084Y616442D01*
X888056Y616398D01*
X888020Y616360D01*
X887990Y616295D01*
X887951Y616235D01*
X887938Y616184D01*
X887916Y616137D01*
X887908Y616066D01*
X887891Y615996D01*
X887895Y615944D01*
X887889Y615893D01*
X887904Y615822D01*
X887910Y615751D01*
X887930Y615703D01*
X887941Y615652D01*
X887978Y615591D01*
X888006Y615525D01*
X888051Y615469D01*
X888068Y615441D01*
X888085Y615426D01*
X888111Y615394D01*
X889307Y614198D01*
X889307Y609802D01*
X886198Y606693D01*
X881802Y606693D01*
G37*
%LPD*%
%LPC*%
G36*
X920802Y615693D02*
X920802Y615693D01*
X917693Y618802D01*
X917693Y623198D01*
X919457Y624962D01*
X919468Y624978D01*
X919484Y624990D01*
X919540Y625078D01*
X919600Y625161D01*
X919606Y625180D01*
X919617Y625197D01*
X919642Y625298D01*
X919673Y625397D01*
X919672Y625416D01*
X919677Y625436D01*
X919669Y625539D01*
X919666Y625642D01*
X919660Y625661D01*
X919658Y625681D01*
X919618Y625776D01*
X919582Y625873D01*
X919569Y625889D01*
X919562Y625907D01*
X919457Y626038D01*
X916693Y628802D01*
X916693Y633198D01*
X919802Y636307D01*
X924198Y636307D01*
X927307Y633198D01*
X927307Y628802D01*
X925543Y627038D01*
X925532Y627022D01*
X925516Y627010D01*
X925460Y626922D01*
X925400Y626839D01*
X925394Y626820D01*
X925383Y626803D01*
X925358Y626702D01*
X925327Y626603D01*
X925328Y626584D01*
X925323Y626564D01*
X925331Y626461D01*
X925334Y626358D01*
X925340Y626339D01*
X925342Y626319D01*
X925382Y626224D01*
X925418Y626127D01*
X925431Y626111D01*
X925438Y626093D01*
X925543Y625962D01*
X928307Y623198D01*
X928307Y618802D01*
X925198Y615693D01*
X920802Y615693D01*
G37*
%LPD*%
%LPC*%
G36*
X901802Y644693D02*
X901802Y644693D01*
X898693Y647802D01*
X898693Y652198D01*
X901802Y655307D01*
X906198Y655307D01*
X908462Y653043D01*
X908478Y653032D01*
X908490Y653016D01*
X908578Y652960D01*
X908661Y652900D01*
X908680Y652894D01*
X908697Y652883D01*
X908798Y652858D01*
X908897Y652827D01*
X908916Y652828D01*
X908936Y652823D01*
X909039Y652831D01*
X909142Y652834D01*
X909161Y652840D01*
X909181Y652842D01*
X909276Y652882D01*
X909373Y652918D01*
X909389Y652931D01*
X909407Y652938D01*
X909538Y653043D01*
X911802Y655307D01*
X916198Y655307D01*
X919307Y652198D01*
X919307Y647802D01*
X916198Y644693D01*
X911802Y644693D01*
X909538Y646957D01*
X909522Y646968D01*
X909510Y646984D01*
X909422Y647040D01*
X909339Y647100D01*
X909320Y647106D01*
X909303Y647117D01*
X909202Y647142D01*
X909103Y647173D01*
X909084Y647172D01*
X909064Y647177D01*
X908961Y647169D01*
X908858Y647166D01*
X908839Y647160D01*
X908819Y647158D01*
X908724Y647118D01*
X908627Y647082D01*
X908611Y647069D01*
X908593Y647062D01*
X908462Y646957D01*
X906198Y644693D01*
X901802Y644693D01*
G37*
%LPD*%
%LPC*%
G36*
X446140Y709492D02*
X446140Y709492D01*
X443360Y710644D01*
X441232Y712772D01*
X440080Y715552D01*
X440080Y718562D01*
X441232Y721342D01*
X443360Y723470D01*
X446140Y724622D01*
X449150Y724622D01*
X451930Y723470D01*
X454058Y721342D01*
X455210Y718562D01*
X455210Y715552D01*
X454058Y712772D01*
X451930Y710644D01*
X449150Y709492D01*
X446140Y709492D01*
G37*
%LPD*%
%LPC*%
G36*
X464495Y717435D02*
X464495Y717435D01*
X461715Y718587D01*
X459587Y720715D01*
X458435Y723495D01*
X458435Y726505D01*
X459587Y729285D01*
X461715Y731413D01*
X464495Y732565D01*
X467505Y732565D01*
X470285Y731413D01*
X472413Y729285D01*
X473565Y726505D01*
X473565Y723495D01*
X472413Y720715D01*
X470285Y718587D01*
X467505Y717435D01*
X464495Y717435D01*
G37*
%LPD*%
%LPC*%
G36*
X482850Y725378D02*
X482850Y725378D01*
X480070Y726530D01*
X477942Y728658D01*
X476790Y731438D01*
X476790Y734448D01*
X477942Y737228D01*
X480070Y739356D01*
X482850Y740508D01*
X485860Y740508D01*
X488640Y739356D01*
X490768Y737228D01*
X491920Y734448D01*
X491920Y731438D01*
X490768Y728658D01*
X488640Y726530D01*
X485860Y725378D01*
X482850Y725378D01*
G37*
%LPD*%
%LPC*%
G36*
X781932Y676423D02*
X781932Y676423D01*
X781893Y676457D01*
X781860Y676497D01*
X781800Y676536D01*
X781745Y676583D01*
X781697Y676602D01*
X781653Y676630D01*
X781584Y676648D01*
X781517Y676675D01*
X781446Y676683D01*
X781415Y676691D01*
X781392Y676689D01*
X781351Y676693D01*
X777802Y676693D01*
X774693Y679802D01*
X774693Y684198D01*
X777802Y687307D01*
X782198Y687307D01*
X785307Y684198D01*
X785307Y679802D01*
X782111Y676606D01*
X782069Y676548D01*
X782020Y676496D01*
X781998Y676449D01*
X781968Y676407D01*
X781959Y676379D01*
X781932Y676423D01*
G37*
%LPD*%
%LPC*%
G36*
X643802Y731693D02*
X643802Y731693D01*
X640693Y734802D01*
X640693Y739198D01*
X643802Y742307D01*
X648198Y742307D01*
X651307Y739198D01*
X651307Y734802D01*
X648198Y731693D01*
X643802Y731693D01*
G37*
%LPD*%
%LPC*%
G36*
X1009802Y725693D02*
X1009802Y725693D01*
X1006693Y728802D01*
X1006693Y733198D01*
X1009802Y736307D01*
X1014198Y736307D01*
X1017307Y733198D01*
X1017307Y728802D01*
X1014198Y725693D01*
X1009802Y725693D01*
G37*
%LPD*%
%LPC*%
G36*
X813802Y731693D02*
X813802Y731693D01*
X810693Y734802D01*
X810693Y739198D01*
X813802Y742307D01*
X818198Y742307D01*
X821307Y739198D01*
X821307Y734802D01*
X818198Y731693D01*
X813802Y731693D01*
G37*
%LPD*%
%LPC*%
G36*
X1038802Y720093D02*
X1038802Y720093D01*
X1035693Y723202D01*
X1035693Y727598D01*
X1038802Y730707D01*
X1043198Y730707D01*
X1046307Y727598D01*
X1046307Y723202D01*
X1043198Y720093D01*
X1038802Y720093D01*
G37*
%LPD*%
%LPC*%
G36*
X729802Y719693D02*
X729802Y719693D01*
X726693Y722802D01*
X726693Y727198D01*
X729802Y730307D01*
X734198Y730307D01*
X737307Y727198D01*
X737307Y722802D01*
X734198Y719693D01*
X729802Y719693D01*
G37*
%LPD*%
%LPC*%
G36*
X993802Y718693D02*
X993802Y718693D01*
X990693Y721802D01*
X990693Y726198D01*
X993802Y729307D01*
X998198Y729307D01*
X1001307Y726198D01*
X1001307Y721802D01*
X998198Y718693D01*
X993802Y718693D01*
G37*
%LPD*%
%LPC*%
G36*
X591802Y732093D02*
X591802Y732093D01*
X588693Y735202D01*
X588693Y739598D01*
X591802Y742707D01*
X596198Y742707D01*
X599307Y739598D01*
X599307Y735202D01*
X596198Y732093D01*
X591802Y732093D01*
G37*
%LPD*%
%LPC*%
G36*
X744802Y713693D02*
X744802Y713693D01*
X741693Y716802D01*
X741693Y721198D01*
X744802Y724307D01*
X749198Y724307D01*
X752307Y721198D01*
X752307Y716802D01*
X749198Y713693D01*
X744802Y713693D01*
G37*
%LPD*%
%LPC*%
G36*
X956802Y711693D02*
X956802Y711693D01*
X953693Y714802D01*
X953693Y719198D01*
X956802Y722307D01*
X961198Y722307D01*
X964307Y719198D01*
X964307Y714802D01*
X961198Y711693D01*
X956802Y711693D01*
G37*
%LPD*%
%LPC*%
G36*
X561802Y710693D02*
X561802Y710693D01*
X558693Y713802D01*
X558693Y718198D01*
X561802Y721307D01*
X566198Y721307D01*
X569307Y718198D01*
X569307Y713802D01*
X566198Y710693D01*
X561802Y710693D01*
G37*
%LPD*%
%LPC*%
G36*
X757802Y706693D02*
X757802Y706693D01*
X754693Y709802D01*
X754693Y714198D01*
X757802Y717307D01*
X762198Y717307D01*
X765307Y714198D01*
X765307Y709802D01*
X762198Y706693D01*
X757802Y706693D01*
G37*
%LPD*%
%LPC*%
G36*
X749802Y742093D02*
X749802Y742093D01*
X746693Y745202D01*
X746693Y749598D01*
X749802Y752707D01*
X754198Y752707D01*
X757307Y749598D01*
X757307Y745202D01*
X754198Y742093D01*
X749802Y742093D01*
G37*
%LPD*%
%LPC*%
G36*
X795902Y743393D02*
X795902Y743393D01*
X792793Y746502D01*
X792793Y750898D01*
X795902Y754007D01*
X800298Y754007D01*
X803407Y750898D01*
X803407Y746502D01*
X800298Y743393D01*
X795902Y743393D01*
G37*
%LPD*%
%LPC*%
G36*
X641502Y701993D02*
X641502Y701993D01*
X638393Y705102D01*
X638393Y709498D01*
X641502Y712607D01*
X645898Y712607D01*
X649007Y709498D01*
X649007Y705102D01*
X645898Y701993D01*
X641502Y701993D01*
G37*
%LPD*%
%LPC*%
G36*
X662802Y746693D02*
X662802Y746693D01*
X659693Y749802D01*
X659693Y754198D01*
X662802Y757307D01*
X667198Y757307D01*
X670307Y754198D01*
X670307Y749802D01*
X667198Y746693D01*
X662802Y746693D01*
G37*
%LPD*%
%LPC*%
G36*
X575802Y701693D02*
X575802Y701693D01*
X572693Y704802D01*
X572693Y709198D01*
X575802Y712307D01*
X580198Y712307D01*
X583307Y709198D01*
X583307Y704802D01*
X580198Y701693D01*
X575802Y701693D01*
G37*
%LPD*%
%LPC*%
G36*
X512802Y701693D02*
X512802Y701693D01*
X509693Y704802D01*
X509693Y709198D01*
X512802Y712307D01*
X517198Y712307D01*
X520307Y709198D01*
X520307Y704802D01*
X517198Y701693D01*
X512802Y701693D01*
G37*
%LPD*%
%LPC*%
G36*
X727802Y698693D02*
X727802Y698693D01*
X724693Y701802D01*
X724693Y706198D01*
X727802Y709307D01*
X732198Y709307D01*
X735307Y706198D01*
X735307Y701802D01*
X732198Y698693D01*
X727802Y698693D01*
G37*
%LPD*%
%LPC*%
G36*
X780802Y691693D02*
X780802Y691693D01*
X777693Y694802D01*
X777693Y699198D01*
X780802Y702307D01*
X785198Y702307D01*
X788307Y699198D01*
X788307Y694802D01*
X785198Y691693D01*
X780802Y691693D01*
G37*
%LPD*%
%LPC*%
G36*
X665802Y690693D02*
X665802Y690693D01*
X662693Y693802D01*
X662693Y698198D01*
X665802Y701307D01*
X670198Y701307D01*
X673307Y698198D01*
X673307Y693802D01*
X670198Y690693D01*
X665802Y690693D01*
G37*
%LPD*%
%LPC*%
G36*
X1058402Y689393D02*
X1058402Y689393D01*
X1055293Y692502D01*
X1055293Y696898D01*
X1058402Y700007D01*
X1062798Y700007D01*
X1065907Y696898D01*
X1065907Y692502D01*
X1062798Y689393D01*
X1058402Y689393D01*
G37*
%LPD*%
%LPC*%
G36*
X517802Y680693D02*
X517802Y680693D01*
X514693Y683802D01*
X514693Y688198D01*
X517802Y691307D01*
X522198Y691307D01*
X525307Y688198D01*
X525307Y683802D01*
X522198Y680693D01*
X517802Y680693D01*
G37*
%LPD*%
%LPC*%
G36*
X765802Y746893D02*
X765802Y746893D01*
X762693Y750002D01*
X762693Y754398D01*
X765802Y757507D01*
X770198Y757507D01*
X773307Y754398D01*
X773307Y750002D01*
X770198Y746893D01*
X765802Y746893D01*
G37*
%LPD*%
%LPC*%
G36*
X1034802Y676693D02*
X1034802Y676693D01*
X1031693Y679802D01*
X1031693Y684198D01*
X1034802Y687307D01*
X1039198Y687307D01*
X1042307Y684198D01*
X1042307Y679802D01*
X1039198Y676693D01*
X1034802Y676693D01*
G37*
%LPD*%
%LPC*%
G36*
X858802Y675693D02*
X858802Y675693D01*
X855693Y678802D01*
X855693Y683198D01*
X858802Y686307D01*
X863198Y686307D01*
X866307Y683198D01*
X866307Y678802D01*
X863198Y675693D01*
X858802Y675693D01*
G37*
%LPD*%
%LPC*%
G36*
X866302Y747793D02*
X866302Y747793D01*
X863193Y750902D01*
X863193Y755298D01*
X866302Y758407D01*
X870698Y758407D01*
X873807Y755298D01*
X873807Y750902D01*
X870698Y747793D01*
X866302Y747793D01*
G37*
%LPD*%
%LPC*%
G36*
X1003802Y673693D02*
X1003802Y673693D01*
X1000693Y676802D01*
X1000693Y681198D01*
X1003802Y684307D01*
X1008198Y684307D01*
X1011307Y681198D01*
X1011307Y676802D01*
X1008198Y673693D01*
X1003802Y673693D01*
G37*
%LPD*%
%LPC*%
G36*
X646802Y750693D02*
X646802Y750693D01*
X643693Y753802D01*
X643693Y758198D01*
X646802Y761307D01*
X651198Y761307D01*
X654307Y758198D01*
X654307Y753802D01*
X651198Y750693D01*
X646802Y750693D01*
G37*
%LPD*%
%LPC*%
G36*
X464102Y663993D02*
X464102Y663993D01*
X460993Y667102D01*
X460993Y671498D01*
X464102Y674607D01*
X468498Y674607D01*
X471607Y671498D01*
X471607Y667102D01*
X468498Y663993D01*
X464102Y663993D01*
G37*
%LPD*%
%LPC*%
G36*
X740894Y663813D02*
X740894Y663813D01*
X737785Y666922D01*
X737785Y671318D01*
X740894Y674427D01*
X745290Y674427D01*
X748399Y671318D01*
X748399Y666922D01*
X745290Y663813D01*
X740894Y663813D01*
G37*
%LPD*%
%LPC*%
G36*
X732802Y167693D02*
X732802Y167693D01*
X729693Y170802D01*
X729693Y175198D01*
X732802Y178307D01*
X737198Y178307D01*
X740307Y175198D01*
X740307Y170802D01*
X737198Y167693D01*
X732802Y167693D01*
G37*
%LPD*%
%LPC*%
G36*
X1016802Y662761D02*
X1016802Y662761D01*
X1013693Y665870D01*
X1013693Y670266D01*
X1016802Y673375D01*
X1021198Y673375D01*
X1024307Y670266D01*
X1024307Y665870D01*
X1021198Y662761D01*
X1016802Y662761D01*
G37*
%LPD*%
%LPC*%
G36*
X708302Y837693D02*
X708302Y837693D01*
X705193Y840802D01*
X705193Y845198D01*
X708302Y848307D01*
X712698Y848307D01*
X715807Y845198D01*
X715807Y840802D01*
X712698Y837693D01*
X708302Y837693D01*
G37*
%LPD*%
%LPC*%
G36*
X988802Y656693D02*
X988802Y656693D01*
X985693Y659802D01*
X985693Y664198D01*
X988802Y667307D01*
X993198Y667307D01*
X996307Y664198D01*
X996307Y659802D01*
X993198Y656693D01*
X988802Y656693D01*
G37*
%LPD*%
%LPC*%
G36*
X614502Y648993D02*
X614502Y648993D01*
X611393Y652102D01*
X611393Y656498D01*
X614502Y659607D01*
X618898Y659607D01*
X622007Y656498D01*
X622007Y652102D01*
X618898Y648993D01*
X614502Y648993D01*
G37*
%LPD*%
%LPC*%
G36*
X1039802Y648693D02*
X1039802Y648693D01*
X1036693Y651802D01*
X1036693Y656198D01*
X1039802Y659307D01*
X1044198Y659307D01*
X1047307Y656198D01*
X1047307Y651802D01*
X1044198Y648693D01*
X1039802Y648693D01*
G37*
%LPD*%
%LPC*%
G36*
X925802Y645693D02*
X925802Y645693D01*
X922693Y648802D01*
X922693Y653198D01*
X925802Y656307D01*
X930198Y656307D01*
X933307Y653198D01*
X933307Y648802D01*
X930198Y645693D01*
X925802Y645693D01*
G37*
%LPD*%
%LPC*%
G36*
X809202Y752093D02*
X809202Y752093D01*
X806093Y755202D01*
X806093Y759598D01*
X809202Y762707D01*
X813598Y762707D01*
X816707Y759598D01*
X816707Y755202D01*
X813598Y752093D01*
X809202Y752093D01*
G37*
%LPD*%
%LPC*%
G36*
X786502Y757693D02*
X786502Y757693D01*
X783393Y760802D01*
X783393Y765198D01*
X786502Y768307D01*
X790898Y768307D01*
X794007Y765198D01*
X794007Y760802D01*
X790898Y757693D01*
X786502Y757693D01*
G37*
%LPD*%
%LPC*%
G36*
X1023802Y640693D02*
X1023802Y640693D01*
X1020693Y643802D01*
X1020693Y648198D01*
X1023802Y651307D01*
X1028198Y651307D01*
X1031307Y648198D01*
X1031307Y643802D01*
X1028198Y640693D01*
X1023802Y640693D01*
G37*
%LPD*%
%LPC*%
G36*
X731802Y763693D02*
X731802Y763693D01*
X728693Y766802D01*
X728693Y771198D01*
X731802Y774307D01*
X736198Y774307D01*
X739307Y771198D01*
X739307Y766802D01*
X736198Y763693D01*
X731802Y763693D01*
G37*
%LPD*%
%LPC*%
G36*
X1032802Y630693D02*
X1032802Y630693D01*
X1029693Y633802D01*
X1029693Y638198D01*
X1032802Y641307D01*
X1037198Y641307D01*
X1040307Y638198D01*
X1040307Y633802D01*
X1037198Y630693D01*
X1032802Y630693D01*
G37*
%LPD*%
%LPC*%
G36*
X817802Y763693D02*
X817802Y763693D01*
X814693Y766802D01*
X814693Y771198D01*
X817802Y774307D01*
X822198Y774307D01*
X825307Y771198D01*
X825307Y766802D01*
X822198Y763693D01*
X817802Y763693D01*
G37*
%LPD*%
%LPC*%
G36*
X752602Y771493D02*
X752602Y771493D01*
X749493Y774602D01*
X749493Y778998D01*
X752602Y782107D01*
X756998Y782107D01*
X760107Y778998D01*
X760107Y774602D01*
X756998Y771493D01*
X752602Y771493D01*
G37*
%LPD*%
%LPC*%
G36*
X1102402Y615693D02*
X1102402Y615693D01*
X1099293Y618802D01*
X1099293Y623198D01*
X1102402Y626307D01*
X1106798Y626307D01*
X1109907Y623198D01*
X1109907Y618802D01*
X1106798Y615693D01*
X1102402Y615693D01*
G37*
%LPD*%
%LPC*%
G36*
X907802Y614693D02*
X907802Y614693D01*
X904693Y617802D01*
X904693Y622198D01*
X907802Y625307D01*
X912198Y625307D01*
X915307Y622198D01*
X915307Y617802D01*
X912198Y614693D01*
X907802Y614693D01*
G37*
%LPD*%
%LPC*%
G36*
X496602Y613693D02*
X496602Y613693D01*
X493493Y616802D01*
X493493Y621198D01*
X496602Y624307D01*
X500998Y624307D01*
X504107Y621198D01*
X504107Y616802D01*
X500998Y613693D01*
X496602Y613693D01*
G37*
%LPD*%
%LPC*%
G36*
X920802Y601693D02*
X920802Y601693D01*
X917693Y604802D01*
X917693Y609198D01*
X920802Y612307D01*
X925198Y612307D01*
X928307Y609198D01*
X928307Y604802D01*
X925198Y601693D01*
X920802Y601693D01*
G37*
%LPD*%
%LPC*%
G36*
X957802Y773693D02*
X957802Y773693D01*
X954693Y776802D01*
X954693Y781198D01*
X957802Y784307D01*
X962198Y784307D01*
X965307Y781198D01*
X965307Y776802D01*
X962198Y773693D01*
X957802Y773693D01*
G37*
%LPD*%
%LPC*%
G36*
X538602Y594493D02*
X538602Y594493D01*
X535493Y597602D01*
X535493Y601998D01*
X538602Y605107D01*
X542998Y605107D01*
X546107Y601998D01*
X546107Y597602D01*
X542998Y594493D01*
X538602Y594493D01*
G37*
%LPD*%
%LPC*%
G36*
X343802Y573693D02*
X343802Y573693D01*
X340693Y576802D01*
X340693Y581198D01*
X343802Y584307D01*
X348198Y584307D01*
X351307Y581198D01*
X351307Y576802D01*
X348198Y573693D01*
X343802Y573693D01*
G37*
%LPD*%
%LPC*%
G36*
X372002Y573093D02*
X372002Y573093D01*
X368893Y576202D01*
X368893Y580598D01*
X372002Y583707D01*
X376398Y583707D01*
X379507Y580598D01*
X379507Y576202D01*
X376398Y573093D01*
X372002Y573093D01*
G37*
%LPD*%
%LPC*%
G36*
X263802Y563693D02*
X263802Y563693D01*
X260693Y566802D01*
X260693Y571198D01*
X263802Y574307D01*
X268198Y574307D01*
X271307Y571198D01*
X271307Y566802D01*
X268198Y563693D01*
X263802Y563693D01*
G37*
%LPD*%
%LPC*%
G36*
X293802Y563693D02*
X293802Y563693D01*
X290693Y566802D01*
X290693Y571198D01*
X293802Y574307D01*
X298198Y574307D01*
X301307Y571198D01*
X301307Y566802D01*
X298198Y563693D01*
X293802Y563693D01*
G37*
%LPD*%
%LPC*%
G36*
X413802Y550093D02*
X413802Y550093D01*
X410693Y553202D01*
X410693Y557598D01*
X413802Y560707D01*
X418198Y560707D01*
X421307Y557598D01*
X421307Y553202D01*
X418198Y550093D01*
X413802Y550093D01*
G37*
%LPD*%
%LPC*%
G36*
X316802Y546693D02*
X316802Y546693D01*
X313693Y549802D01*
X313693Y554198D01*
X316802Y557307D01*
X321198Y557307D01*
X324307Y554198D01*
X324307Y549802D01*
X321198Y546693D01*
X316802Y546693D01*
G37*
%LPD*%
%LPC*%
G36*
X1036802Y546693D02*
X1036802Y546693D01*
X1033693Y549802D01*
X1033693Y554198D01*
X1036802Y557307D01*
X1041198Y557307D01*
X1044307Y554198D01*
X1044307Y549802D01*
X1041198Y546693D01*
X1036802Y546693D01*
G37*
%LPD*%
%LPC*%
G36*
X549802Y534693D02*
X549802Y534693D01*
X546693Y537802D01*
X546693Y542198D01*
X549802Y545307D01*
X554198Y545307D01*
X557307Y542198D01*
X557307Y537802D01*
X554198Y534693D01*
X549802Y534693D01*
G37*
%LPD*%
%LPC*%
G36*
X523802Y531693D02*
X523802Y531693D01*
X520693Y534802D01*
X520693Y539198D01*
X523802Y542307D01*
X528198Y542307D01*
X531307Y539198D01*
X531307Y534802D01*
X528198Y531693D01*
X523802Y531693D01*
G37*
%LPD*%
%LPC*%
G36*
X508802Y528693D02*
X508802Y528693D01*
X505693Y531802D01*
X505693Y536198D01*
X508802Y539307D01*
X513198Y539307D01*
X516307Y536198D01*
X516307Y531802D01*
X513198Y528693D01*
X508802Y528693D01*
G37*
%LPD*%
%LPC*%
G36*
X490802Y523693D02*
X490802Y523693D01*
X487693Y526802D01*
X487693Y531198D01*
X490802Y534307D01*
X495198Y534307D01*
X498307Y531198D01*
X498307Y526802D01*
X495198Y523693D01*
X490802Y523693D01*
G37*
%LPD*%
%LPC*%
G36*
X724802Y775693D02*
X724802Y775693D01*
X721693Y778802D01*
X721693Y783198D01*
X724802Y786307D01*
X729198Y786307D01*
X732307Y783198D01*
X732307Y778802D01*
X729198Y775693D01*
X724802Y775693D01*
G37*
%LPD*%
%LPC*%
G36*
X939802Y504693D02*
X939802Y504693D01*
X936693Y507802D01*
X936693Y512198D01*
X939802Y515307D01*
X944198Y515307D01*
X947307Y512198D01*
X947307Y507802D01*
X944198Y504693D01*
X939802Y504693D01*
G37*
%LPD*%
%LPC*%
G36*
X475802Y503693D02*
X475802Y503693D01*
X472693Y506802D01*
X472693Y511198D01*
X475802Y514307D01*
X480198Y514307D01*
X483307Y511198D01*
X483307Y506802D01*
X480198Y503693D01*
X475802Y503693D01*
G37*
%LPD*%
%LPC*%
G36*
X452011Y502484D02*
X452011Y502484D01*
X448903Y505593D01*
X448903Y509989D01*
X452011Y513097D01*
X456407Y513097D01*
X459516Y509989D01*
X459516Y505593D01*
X456407Y502484D01*
X452011Y502484D01*
G37*
%LPD*%
%LPC*%
G36*
X358802Y501693D02*
X358802Y501693D01*
X355693Y504802D01*
X355693Y509198D01*
X358802Y512307D01*
X363198Y512307D01*
X366307Y509198D01*
X366307Y504802D01*
X363198Y501693D01*
X358802Y501693D01*
G37*
%LPD*%
%LPC*%
G36*
X946802Y492693D02*
X946802Y492693D01*
X943693Y495802D01*
X943693Y500198D01*
X946802Y503307D01*
X951198Y503307D01*
X954307Y500198D01*
X954307Y495802D01*
X951198Y492693D01*
X946802Y492693D01*
G37*
%LPD*%
%LPC*%
G36*
X574802Y489693D02*
X574802Y489693D01*
X571693Y492802D01*
X571693Y497198D01*
X574802Y500307D01*
X579198Y500307D01*
X582307Y497198D01*
X582307Y492802D01*
X579198Y489693D01*
X574802Y489693D01*
G37*
%LPD*%
%LPC*%
G36*
X438802Y488693D02*
X438802Y488693D01*
X435693Y491802D01*
X435693Y496198D01*
X438802Y499307D01*
X443198Y499307D01*
X446307Y496198D01*
X446307Y491802D01*
X443198Y488693D01*
X438802Y488693D01*
G37*
%LPD*%
%LPC*%
G36*
X353802Y475693D02*
X353802Y475693D01*
X350693Y478802D01*
X350693Y483198D01*
X353802Y486307D01*
X358198Y486307D01*
X361307Y483198D01*
X361307Y478802D01*
X358198Y475693D01*
X353802Y475693D01*
G37*
%LPD*%
%LPC*%
G36*
X954802Y473693D02*
X954802Y473693D01*
X951693Y476802D01*
X951693Y481198D01*
X954802Y484307D01*
X959198Y484307D01*
X962307Y481198D01*
X962307Y476802D01*
X959198Y473693D01*
X954802Y473693D01*
G37*
%LPD*%
%LPC*%
G36*
X353802Y462693D02*
X353802Y462693D01*
X350693Y465802D01*
X350693Y470198D01*
X353802Y473307D01*
X358198Y473307D01*
X361307Y470198D01*
X361307Y465802D01*
X358198Y462693D01*
X353802Y462693D01*
G37*
%LPD*%
%LPC*%
G36*
X968802Y457693D02*
X968802Y457693D01*
X965693Y460802D01*
X965693Y465198D01*
X968802Y468307D01*
X973198Y468307D01*
X976307Y465198D01*
X976307Y460802D01*
X973198Y457693D01*
X968802Y457693D01*
G37*
%LPD*%
%LPC*%
G36*
X429802Y450693D02*
X429802Y450693D01*
X426693Y453802D01*
X426693Y458198D01*
X429802Y461307D01*
X434198Y461307D01*
X437307Y458198D01*
X437307Y453802D01*
X434198Y450693D01*
X429802Y450693D01*
G37*
%LPD*%
%LPC*%
G36*
X798802Y782693D02*
X798802Y782693D01*
X795693Y785802D01*
X795693Y790198D01*
X798802Y793307D01*
X803198Y793307D01*
X806307Y790198D01*
X806307Y785802D01*
X803198Y782693D01*
X798802Y782693D01*
G37*
%LPD*%
%LPC*%
G36*
X574802Y442693D02*
X574802Y442693D01*
X571693Y445802D01*
X571693Y450198D01*
X574802Y453307D01*
X579198Y453307D01*
X582307Y450198D01*
X582307Y445802D01*
X579198Y442693D01*
X574802Y442693D01*
G37*
%LPD*%
%LPC*%
G36*
X548802Y428693D02*
X548802Y428693D01*
X545693Y431802D01*
X545693Y436198D01*
X548802Y439307D01*
X553198Y439307D01*
X556307Y436198D01*
X556307Y431802D01*
X553198Y428693D01*
X548802Y428693D01*
G37*
%LPD*%
%LPC*%
G36*
X935802Y423693D02*
X935802Y423693D01*
X932693Y426802D01*
X932693Y431198D01*
X935802Y434307D01*
X940198Y434307D01*
X943307Y431198D01*
X943307Y426802D01*
X940198Y423693D01*
X935802Y423693D01*
G37*
%LPD*%
%LPC*%
G36*
X958802Y421693D02*
X958802Y421693D01*
X955693Y424802D01*
X955693Y429198D01*
X958802Y432307D01*
X963198Y432307D01*
X966307Y429198D01*
X966307Y424802D01*
X963198Y421693D01*
X958802Y421693D01*
G37*
%LPD*%
%LPC*%
G36*
X956802Y395693D02*
X956802Y395693D01*
X953693Y398802D01*
X953693Y403198D01*
X956802Y406307D01*
X961198Y406307D01*
X964307Y403198D01*
X964307Y398802D01*
X961198Y395693D01*
X956802Y395693D01*
G37*
%LPD*%
%LPC*%
G36*
X930802Y390693D02*
X930802Y390693D01*
X927693Y393802D01*
X927693Y398198D01*
X930802Y401307D01*
X935198Y401307D01*
X938307Y398198D01*
X938307Y393802D01*
X935198Y390693D01*
X930802Y390693D01*
G37*
%LPD*%
%LPC*%
G36*
X623802Y801693D02*
X623802Y801693D01*
X620693Y804802D01*
X620693Y809198D01*
X623802Y812307D01*
X628198Y812307D01*
X631307Y809198D01*
X631307Y804802D01*
X628198Y801693D01*
X623802Y801693D01*
G37*
%LPD*%
%LPC*%
G36*
X341802Y386693D02*
X341802Y386693D01*
X338693Y389802D01*
X338693Y394198D01*
X341802Y397307D01*
X346198Y397307D01*
X349307Y394198D01*
X349307Y389802D01*
X346198Y386693D01*
X341802Y386693D01*
G37*
%LPD*%
%LPC*%
G36*
X328802Y386693D02*
X328802Y386693D01*
X325693Y389802D01*
X325693Y394198D01*
X328802Y397307D01*
X333198Y397307D01*
X336307Y394198D01*
X336307Y389802D01*
X333198Y386693D01*
X328802Y386693D01*
G37*
%LPD*%
%LPC*%
G36*
X315802Y386693D02*
X315802Y386693D01*
X312693Y389802D01*
X312693Y394198D01*
X315802Y397307D01*
X320198Y397307D01*
X323307Y394198D01*
X323307Y389802D01*
X320198Y386693D01*
X315802Y386693D01*
G37*
%LPD*%
%LPC*%
G36*
X163602Y375693D02*
X163602Y375693D01*
X160493Y378802D01*
X160493Y383198D01*
X163602Y386307D01*
X167998Y386307D01*
X171107Y383198D01*
X171107Y378802D01*
X167998Y375693D01*
X163602Y375693D01*
G37*
%LPD*%
%LPC*%
G36*
X900202Y814493D02*
X900202Y814493D01*
X897093Y817602D01*
X897093Y821998D01*
X900202Y825107D01*
X904598Y825107D01*
X907707Y821998D01*
X907707Y817602D01*
X904598Y814493D01*
X900202Y814493D01*
G37*
%LPD*%
%LPC*%
G36*
X328802Y372693D02*
X328802Y372693D01*
X325693Y375802D01*
X325693Y380198D01*
X328802Y383307D01*
X333198Y383307D01*
X336307Y380198D01*
X336307Y375802D01*
X333198Y372693D01*
X328802Y372693D01*
G37*
%LPD*%
%LPC*%
G36*
X341802Y372693D02*
X341802Y372693D01*
X338693Y375802D01*
X338693Y380198D01*
X341802Y383307D01*
X346198Y383307D01*
X349307Y380198D01*
X349307Y375802D01*
X346198Y372693D01*
X341802Y372693D01*
G37*
%LPD*%
%LPC*%
G36*
X315802Y372693D02*
X315802Y372693D01*
X312693Y375802D01*
X312693Y380198D01*
X315802Y383307D01*
X320198Y383307D01*
X323307Y380198D01*
X323307Y375802D01*
X320198Y372693D01*
X315802Y372693D01*
G37*
%LPD*%
%LPC*%
G36*
X537802Y349693D02*
X537802Y349693D01*
X534693Y352802D01*
X534693Y357198D01*
X537802Y360307D01*
X542198Y360307D01*
X545307Y357198D01*
X545307Y352802D01*
X542198Y349693D01*
X537802Y349693D01*
G37*
%LPD*%
%LPC*%
G36*
X370802Y343693D02*
X370802Y343693D01*
X367693Y346802D01*
X367693Y351198D01*
X370802Y354307D01*
X375198Y354307D01*
X378307Y351198D01*
X378307Y346802D01*
X375198Y343693D01*
X370802Y343693D01*
G37*
%LPD*%
%LPC*%
G36*
X253802Y339293D02*
X253802Y339293D01*
X250693Y342402D01*
X250693Y346798D01*
X253802Y349907D01*
X258198Y349907D01*
X261307Y346798D01*
X261307Y342402D01*
X258198Y339293D01*
X253802Y339293D01*
G37*
%LPD*%
%LPC*%
G36*
X224602Y326293D02*
X224602Y326293D01*
X221493Y329402D01*
X221493Y333798D01*
X224602Y336907D01*
X228998Y336907D01*
X232107Y333798D01*
X232107Y329402D01*
X228998Y326293D01*
X224602Y326293D01*
G37*
%LPD*%
%LPC*%
G36*
X427802Y319693D02*
X427802Y319693D01*
X424693Y322802D01*
X424693Y327198D01*
X427802Y330307D01*
X432198Y330307D01*
X435307Y327198D01*
X435307Y322802D01*
X432198Y319693D01*
X427802Y319693D01*
G37*
%LPD*%
%LPC*%
G36*
X496802Y312693D02*
X496802Y312693D01*
X493693Y315802D01*
X493693Y320198D01*
X496802Y323307D01*
X501198Y323307D01*
X504307Y320198D01*
X504307Y315802D01*
X501198Y312693D01*
X496802Y312693D01*
G37*
%LPD*%
%LPC*%
G36*
X418802Y310693D02*
X418802Y310693D01*
X415693Y313802D01*
X415693Y318198D01*
X418802Y321307D01*
X423198Y321307D01*
X426307Y318198D01*
X426307Y313802D01*
X423198Y310693D01*
X418802Y310693D01*
G37*
%LPD*%
%LPC*%
G36*
X263602Y302893D02*
X263602Y302893D01*
X260493Y306002D01*
X260493Y310398D01*
X263602Y313507D01*
X267998Y313507D01*
X271107Y310398D01*
X271107Y306002D01*
X267998Y302893D01*
X263602Y302893D01*
G37*
%LPD*%
%LPC*%
G36*
X803802Y828693D02*
X803802Y828693D01*
X800693Y831802D01*
X800693Y836198D01*
X803802Y839307D01*
X808198Y839307D01*
X811307Y836198D01*
X811307Y831802D01*
X808198Y828693D01*
X803802Y828693D01*
G37*
%LPD*%
%LPC*%
G36*
X675802Y205693D02*
X675802Y205693D01*
X672693Y208802D01*
X672693Y213198D01*
X675802Y216307D01*
X680198Y216307D01*
X683307Y213198D01*
X683307Y208802D01*
X680198Y205693D01*
X675802Y205693D01*
G37*
%LPD*%
%LPC*%
G36*
X459802Y213693D02*
X459802Y213693D01*
X456693Y216802D01*
X456693Y221198D01*
X459802Y224307D01*
X464198Y224307D01*
X467307Y221198D01*
X467307Y216802D01*
X464198Y213693D01*
X459802Y213693D01*
G37*
%LPD*%
%LPC*%
G36*
X527802Y214693D02*
X527802Y214693D01*
X524693Y217802D01*
X524693Y222198D01*
X527802Y225307D01*
X532198Y225307D01*
X535307Y222198D01*
X535307Y217802D01*
X532198Y214693D01*
X527802Y214693D01*
G37*
%LPD*%
%LPC*%
G36*
X673802Y233693D02*
X673802Y233693D01*
X670693Y236802D01*
X670693Y241198D01*
X673802Y244307D01*
X678198Y244307D01*
X681307Y241198D01*
X681307Y236802D01*
X678198Y233693D01*
X673802Y233693D01*
G37*
%LPD*%
%LPC*%
G36*
X303202Y278293D02*
X303202Y278293D01*
X300093Y281402D01*
X300093Y285798D01*
X303202Y288907D01*
X307598Y288907D01*
X310707Y285798D01*
X310707Y281402D01*
X307598Y278293D01*
X303202Y278293D01*
G37*
%LPD*%
%LPC*%
G36*
X497802Y269693D02*
X497802Y269693D01*
X494693Y272802D01*
X494693Y277198D01*
X497802Y280307D01*
X502198Y280307D01*
X505307Y277198D01*
X505307Y272802D01*
X502198Y269693D01*
X497802Y269693D01*
G37*
%LPD*%
%LPC*%
G36*
X401802Y234693D02*
X401802Y234693D01*
X398693Y237802D01*
X398693Y242198D01*
X401802Y245307D01*
X406198Y245307D01*
X409307Y242198D01*
X409307Y237802D01*
X406198Y234693D01*
X401802Y234693D01*
G37*
%LPD*%
%LPC*%
G36*
X737802Y815693D02*
X737802Y815693D01*
X734693Y818802D01*
X734693Y823198D01*
X737802Y826307D01*
X742198Y826307D01*
X745307Y823198D01*
X745307Y818802D01*
X742198Y815693D01*
X737802Y815693D01*
G37*
%LPD*%
%LPC*%
G36*
X642802Y663693D02*
X642802Y663693D01*
X639693Y666802D01*
X639693Y671198D01*
X642802Y674307D01*
X647198Y674307D01*
X650307Y671198D01*
X650307Y666802D01*
X647198Y663693D01*
X642802Y663693D01*
G37*
%LPD*%
%LPC*%
G36*
X654802Y658693D02*
X654802Y658693D01*
X651693Y661802D01*
X651693Y666198D01*
X654802Y669307D01*
X659198Y669307D01*
X662307Y666198D01*
X662307Y661802D01*
X659198Y658693D01*
X654802Y658693D01*
G37*
%LPD*%
%LPC*%
G36*
X973823Y303423D02*
X973823Y303423D01*
X973823Y311865D01*
X974661Y311733D01*
X976170Y311242D01*
X977583Y310522D01*
X978867Y309589D01*
X979989Y308467D01*
X980922Y307183D01*
X981642Y305770D01*
X982133Y304261D01*
X982265Y303423D01*
X973823Y303423D01*
G37*
%LPD*%
%LPC*%
G36*
X831223Y258123D02*
X831223Y258123D01*
X831223Y266565D01*
X832061Y266433D01*
X833570Y265942D01*
X834983Y265222D01*
X836267Y264289D01*
X837389Y263167D01*
X838322Y261883D01*
X839042Y260470D01*
X839533Y258961D01*
X839665Y258123D01*
X831223Y258123D01*
G37*
%LPD*%
%LPC*%
G36*
X819735Y258123D02*
X819735Y258123D01*
X819867Y258961D01*
X820358Y260470D01*
X821078Y261883D01*
X822011Y263167D01*
X823133Y264289D01*
X824417Y265222D01*
X825830Y265942D01*
X827339Y266433D01*
X828177Y266565D01*
X828177Y258123D01*
X819735Y258123D01*
G37*
%LPD*%
%LPC*%
G36*
X831223Y255077D02*
X831223Y255077D01*
X839665Y255077D01*
X839533Y254239D01*
X839042Y252730D01*
X838322Y251317D01*
X837389Y250033D01*
X836267Y248911D01*
X834983Y247978D01*
X833570Y247258D01*
X832061Y246767D01*
X831223Y246635D01*
X831223Y255077D01*
G37*
%LPD*%
%LPC*%
G36*
X973823Y300377D02*
X973823Y300377D01*
X982265Y300377D01*
X982133Y299539D01*
X981642Y298030D01*
X980922Y296617D01*
X979989Y295333D01*
X978867Y294211D01*
X977583Y293278D01*
X976170Y292558D01*
X974661Y292067D01*
X973823Y291935D01*
X973823Y300377D01*
G37*
%LPD*%
%LPC*%
G36*
X962335Y303423D02*
X962335Y303423D01*
X962467Y304261D01*
X962958Y305770D01*
X963678Y307183D01*
X964611Y308467D01*
X965733Y309589D01*
X967017Y310522D01*
X968430Y311242D01*
X969939Y311733D01*
X970777Y311865D01*
X970777Y303423D01*
X962335Y303423D01*
G37*
%LPD*%
%LPC*%
G36*
X969939Y292067D02*
X969939Y292067D01*
X968430Y292558D01*
X967017Y293278D01*
X965733Y294211D01*
X964611Y295333D01*
X963678Y296617D01*
X962958Y298030D01*
X962467Y299539D01*
X962335Y300377D01*
X970777Y300377D01*
X970777Y291935D01*
X969939Y292067D01*
G37*
%LPD*%
%LPC*%
G36*
X827339Y246767D02*
X827339Y246767D01*
X825830Y247258D01*
X824417Y247978D01*
X823133Y248911D01*
X822011Y250033D01*
X821078Y251317D01*
X820358Y252730D01*
X819867Y254239D01*
X819735Y255077D01*
X828177Y255077D01*
X828177Y246635D01*
X827339Y246767D01*
G37*
%LPD*%
%LPC*%
G36*
X972299Y301899D02*
X972299Y301899D01*
X972299Y301901D01*
X972301Y301901D01*
X972301Y301899D01*
X972299Y301899D01*
G37*
%LPD*%
%LPC*%
G36*
X829699Y256599D02*
X829699Y256599D01*
X829699Y256601D01*
X829701Y256601D01*
X829701Y256599D01*
X829699Y256599D01*
G37*
%LPD*%
D10*
X829700Y256600D03*
X829700Y181600D03*
X972300Y301900D03*
X972300Y376900D03*
D11*
X940700Y704900D03*
X915300Y704900D03*
X940700Y730300D03*
X915300Y730300D03*
X940700Y755700D03*
X915300Y755700D03*
X940700Y781100D03*
X915300Y781100D03*
D12*
X466000Y725000D03*
X447645Y717057D03*
X484355Y732943D03*
D13*
X425538Y730373D03*
X489781Y758173D03*
D14*
X542000Y782072D03*
X519056Y772143D03*
X564944Y792001D03*
D15*
X471000Y270000D03*
X471000Y284000D03*
X471000Y297000D03*
X459000Y270000D03*
X459000Y284000D03*
X459000Y297000D03*
X635000Y209000D03*
X635000Y223000D03*
X635000Y236000D03*
X647000Y209000D03*
X647000Y223000D03*
X1051000Y591000D03*
X1062000Y591000D03*
X1072000Y590000D03*
X1079000Y583000D03*
X1085000Y575000D03*
X1091000Y566000D03*
X1050000Y646000D03*
X647000Y236000D03*
X459000Y311000D03*
X471000Y311000D03*
X635000Y196000D03*
X647000Y196000D03*
X318000Y392000D03*
X318000Y378000D03*
X331000Y378000D03*
X344000Y378000D03*
X344000Y392000D03*
X331000Y392000D03*
D16*
X1095000Y331000D03*
D15*
X614000Y298000D03*
X653000Y315000D03*
X638000Y271000D03*
X672000Y291000D03*
X694000Y267000D03*
X715000Y291000D03*
X740000Y267000D03*
X769000Y286000D03*
X791000Y264000D03*
X840000Y303000D03*
X869000Y275000D03*
X907000Y304000D03*
X466000Y342200D03*
X467800Y419600D03*
X550800Y404600D03*
X566000Y389800D03*
X544600Y385600D03*
X588600Y363800D03*
X589000Y347400D03*
X590000Y320000D03*
X602400Y389000D03*
X537800Y408000D03*
X551000Y434000D03*
X1039000Y552000D03*
X578000Y707000D03*
X740000Y821000D03*
X806000Y834000D03*
X774000Y636000D03*
X969000Y553000D03*
X404000Y240000D03*
X1035000Y636000D03*
X530000Y220000D03*
X665000Y752000D03*
X768000Y752200D03*
X788700Y763000D03*
X798100Y748700D03*
X811400Y757400D03*
X754800Y776800D03*
X710500Y843000D03*
X643700Y707300D03*
X466300Y669300D03*
X868500Y753100D03*
X1060600Y694700D03*
X1041000Y725400D03*
X953100Y650500D03*
X793000Y665000D03*
X493000Y529000D03*
X860000Y186000D03*
X872000Y186000D03*
X883000Y186000D03*
X894000Y187000D03*
X375000Y307000D03*
X462000Y219000D03*
X735000Y173000D03*
X540000Y355000D03*
X361000Y507000D03*
D16*
X1094000Y386000D03*
D15*
X540800Y599800D03*
X498800Y619000D03*
X416000Y555400D03*
X374200Y578400D03*
X594000Y737400D03*
X902400Y819800D03*
X1104600Y621000D03*
X165800Y381000D03*
X194000Y360800D03*
X226800Y331600D03*
X256000Y344600D03*
X265800Y308200D03*
X305400Y283600D03*
X266000Y569000D03*
X296000Y569000D03*
X730000Y704000D03*
X646000Y737000D03*
X616700Y654300D03*
X933000Y396000D03*
X959000Y401000D03*
X961000Y427000D03*
X938000Y429000D03*
X743092Y669120D03*
X478000Y509000D03*
X526000Y537000D03*
X552000Y540000D03*
X732000Y725000D03*
X752000Y747400D03*
X963000Y699000D03*
D17*
X942000Y678000D01*
X942000Y655000D01*
D18*
X886000Y739000D02*
X888000Y741000D01*
D15*
X886000Y739000D03*
X783000Y697000D03*
X734000Y769000D03*
X564000Y716000D03*
D17*
X942000Y678000D02*
X969000Y651000D01*
X969000Y642000D01*
X981000Y630000D01*
X989000Y630000D01*
X1053000Y566000D01*
D15*
X942000Y655000D03*
D17*
X1053000Y566000D02*
X1053000Y463000D01*
X1038000Y448000D01*
X953000Y448000D01*
D15*
X953000Y448000D03*
X432000Y456000D03*
X626000Y807000D03*
X649000Y756000D03*
D19*
X886000Y739000D02*
X895000Y730000D01*
X916000Y678000D02*
X942000Y678000D01*
X895000Y699000D02*
X895000Y730000D01*
X895000Y699000D02*
X916000Y678000D01*
D15*
X870000Y650000D03*
X923000Y607000D03*
X950000Y601000D03*
X881000Y650000D03*
X910000Y620000D03*
X922000Y631000D03*
X819000Y677000D03*
X923000Y621000D03*
X814000Y666000D03*
X800000Y671000D03*
X971000Y463000D03*
X957000Y479000D03*
X887000Y622000D03*
X784000Y670000D03*
X949000Y498000D03*
X780000Y682000D03*
X884000Y612000D03*
X942000Y510000D03*
X760000Y712000D03*
X747000Y719000D03*
X441000Y494000D03*
X454209Y507791D03*
X356000Y468000D03*
X356000Y481000D03*
X816000Y737000D03*
X959000Y717000D03*
X727000Y781000D03*
X801000Y788000D03*
X820000Y769000D03*
X904000Y650000D03*
X961000Y560000D03*
X914000Y650000D03*
X952000Y565000D03*
X928000Y651000D03*
X946000Y574000D03*
X861000Y681000D03*
X645000Y669000D03*
X826000Y696000D03*
X668000Y696000D03*
X826000Y707000D03*
X979000Y651000D03*
X1026000Y646000D03*
X991000Y662000D03*
X1042000Y654000D03*
X515000Y707000D03*
X520000Y686000D03*
X577000Y448000D03*
X577000Y495000D03*
X319000Y552000D03*
X346000Y579000D03*
X956000Y580000D03*
X500000Y275000D03*
X368000Y419000D03*
X368000Y429000D03*
X430000Y325000D03*
X421000Y316000D03*
X499000Y318000D03*
X609000Y242000D03*
X599000Y236000D03*
X676000Y239000D03*
X952000Y589000D03*
X384000Y334000D03*
X398000Y327000D03*
X394000Y313000D03*
X389000Y297000D03*
X408000Y301000D03*
X426000Y297000D03*
X196000Y449000D03*
X200000Y437000D03*
X209000Y449000D03*
X214000Y438000D03*
X222000Y449000D03*
X227000Y438000D03*
X209000Y427000D03*
X223000Y427000D03*
X559000Y249000D03*
X577000Y249000D03*
X591000Y249000D03*
X559000Y235000D03*
X577000Y235000D03*
X576000Y218000D03*
X599000Y219000D03*
X606000Y207000D03*
X139000Y513000D03*
X136000Y496000D03*
X136000Y482000D03*
X136000Y469000D03*
X152000Y469000D03*
X165000Y468000D03*
X166000Y483000D03*
X150000Y483000D03*
X150000Y497000D03*
X165000Y500000D03*
X158000Y513000D03*
X926000Y808000D03*
X1006000Y679000D03*
X920136Y818776D03*
X1019000Y668068D03*
X1037000Y682000D03*
X999326Y772755D03*
X678000Y211000D03*
X363000Y309000D03*
X373000Y349000D03*
X829000Y681000D03*
X657000Y664000D03*
X1012000Y731000D03*
X996000Y724000D03*
X960000Y779000D03*
X511000Y534000D03*
D20*
X253764Y263338D02*
X614661Y107401D01*
X621030Y104762D01*
X653513Y93260D01*
X686875Y84632D01*
X720862Y78944D01*
X755215Y76241D01*
X789673Y76541D01*
X823973Y79844D01*
X857856Y86124D01*
X891062Y95333D01*
X923339Y107401D01*
X954441Y122236D01*
X984132Y139725D01*
X1012186Y159736D01*
X1038389Y182115D01*
X1062542Y206693D01*
X1084461Y233283D01*
X1103979Y261682D01*
X1120948Y291674D01*
X1135238Y323030D01*
X1146740Y355513D01*
X1155368Y388875D01*
X1161056Y422862D01*
X1163759Y457215D01*
X1163459Y491673D01*
X1160156Y525973D01*
X1153876Y559856D01*
X1144667Y593062D01*
X1132599Y625339D01*
X1117764Y656441D01*
X1100275Y686132D01*
X1080264Y714186D01*
X1057885Y740389D01*
X1033307Y764542D01*
X1006717Y786461D01*
X978318Y805979D01*
X948326Y822948D01*
X916970Y837238D01*
X884487Y848740D01*
X851125Y857368D01*
X817138Y863056D01*
X782785Y865759D01*
X748327Y865459D01*
X714027Y862156D01*
X680144Y855876D01*
X646938Y846667D01*
X614661Y834599D01*
X253764Y678662D01*
X236970Y670831D01*
X219947Y661058D01*
X203840Y649839D01*
X188773Y637258D01*
X174860Y623413D01*
X162206Y608407D01*
X150908Y592356D01*
X141052Y575381D01*
X132713Y557611D01*
X125955Y539183D01*
X120828Y520236D01*
X117372Y500913D01*
X115614Y481364D01*
X115566Y461735D01*
X117229Y442177D01*
X120590Y422838D01*
X125624Y403866D01*
X132292Y385404D01*
X140544Y367595D01*
X150317Y350572D01*
X161536Y334465D01*
X174117Y319398D01*
X187962Y305485D01*
X202968Y292831D01*
X219019Y281533D01*
X235994Y271677D01*
X253764Y263338D01*
X919000Y469159D02*
X918910Y465479D01*
X918729Y461801D01*
X918458Y458129D01*
X918097Y454465D01*
X917647Y450811D01*
X917106Y447169D01*
X916477Y443542D01*
X915759Y439931D01*
X914952Y436339D01*
X914057Y432767D01*
X913075Y429219D01*
X912007Y425696D01*
X910852Y422200D01*
X909611Y418733D01*
X908286Y415298D01*
X906877Y411897D01*
X905385Y408531D01*
X903811Y405203D01*
X902156Y401914D01*
X900420Y398667D01*
X898606Y395464D01*
X896713Y392306D01*
X894743Y389195D01*
X892698Y386134D01*
X890578Y383124D01*
X888385Y380167D01*
X886119Y377264D01*
X883784Y374418D01*
X881379Y371630D01*
X878906Y368902D01*
X876368Y366236D01*
X873764Y363632D01*
X871098Y361094D01*
X868370Y358621D01*
X865582Y356216D01*
X862736Y353881D01*
X859834Y351615D01*
X856876Y349422D01*
X853866Y347302D01*
X850805Y345257D01*
X847694Y343287D01*
X844536Y341394D01*
X841333Y339580D01*
X838086Y337844D01*
X834797Y336189D01*
X831469Y334615D01*
X828103Y333123D01*
X824702Y331714D01*
X821267Y330389D01*
X817800Y329148D01*
X814304Y327993D01*
X810781Y326925D01*
X807233Y325943D01*
X803661Y325048D01*
X800069Y324241D01*
X796458Y323523D01*
X792831Y322894D01*
X789189Y322353D01*
X785535Y321903D01*
X781871Y321542D01*
X778199Y321271D01*
X774522Y321090D01*
X770841Y321000D01*
X767159Y321000D01*
X763479Y321090D01*
X759801Y321271D01*
X756129Y321542D01*
X752465Y321903D01*
X748811Y322353D01*
X745169Y322894D01*
X741542Y323523D01*
X737931Y324241D01*
X734339Y325048D01*
X730767Y325943D01*
X727219Y326925D01*
X723696Y327993D01*
X720200Y329148D01*
X716733Y330389D01*
X713298Y331714D01*
X709897Y333123D01*
X706531Y334615D01*
X703203Y336189D01*
X699914Y337844D01*
X696667Y339580D01*
X693464Y341394D01*
X690306Y343287D01*
X687195Y345257D01*
X684134Y347302D01*
X681124Y349422D01*
X678167Y351615D01*
X675264Y353881D01*
X672418Y356216D01*
X669630Y358621D01*
X666902Y361094D01*
X664236Y363632D01*
X661632Y366236D01*
X659094Y368902D01*
X656621Y371630D01*
X654216Y374418D01*
X651881Y377264D01*
X649615Y380167D01*
X647422Y383124D01*
X645302Y386134D01*
X643257Y389195D01*
X641287Y392306D01*
X639394Y395464D01*
X637580Y398667D01*
X635844Y401914D01*
X634189Y405203D01*
X632615Y408531D01*
X631123Y411897D01*
X629714Y415298D01*
X628389Y418733D01*
X627148Y422200D01*
X625993Y425696D01*
X624925Y429219D01*
X623943Y432767D01*
X623048Y436339D01*
X622241Y439931D01*
X621523Y443542D01*
X620894Y447169D01*
X620353Y450811D01*
X619903Y454465D01*
X619542Y458129D01*
X619271Y461801D01*
X619090Y465479D01*
X619000Y469159D01*
X619000Y472841D01*
X619090Y476522D01*
X619271Y480199D01*
X619542Y483871D01*
X619903Y487535D01*
X620353Y491189D01*
X620894Y494831D01*
X621523Y498458D01*
X622241Y502069D01*
X623048Y505661D01*
X623943Y509233D01*
X624925Y512781D01*
X625993Y516304D01*
X627148Y519800D01*
X628389Y523267D01*
X629714Y526702D01*
X631123Y530103D01*
X632615Y533469D01*
X634189Y536797D01*
X635844Y540086D01*
X637580Y543333D01*
X639394Y546536D01*
X641287Y549694D01*
X643257Y552805D01*
X645302Y555866D01*
X647422Y558876D01*
X649615Y561834D01*
X651881Y564736D01*
X654216Y567582D01*
X656621Y570370D01*
X659094Y573098D01*
X661632Y575764D01*
X664236Y578368D01*
X666902Y580906D01*
X669630Y583379D01*
X672418Y585784D01*
X675264Y588119D01*
X678167Y590385D01*
X681124Y592578D01*
X684134Y594698D01*
X687195Y596743D01*
X690306Y598713D01*
X693464Y600606D01*
X696667Y602420D01*
X699914Y604156D01*
X703203Y605811D01*
X706531Y607385D01*
X709897Y608877D01*
X713298Y610286D01*
X716733Y611611D01*
X720200Y612852D01*
X723696Y614007D01*
X727219Y615075D01*
X730767Y616057D01*
X734339Y616952D01*
X737931Y617759D01*
X741542Y618477D01*
X745169Y619106D01*
X748811Y619647D01*
X752465Y620097D01*
X756129Y620458D01*
X759801Y620729D01*
X763479Y620910D01*
X767159Y621000D01*
X770841Y621000D01*
X774522Y620910D01*
X778199Y620729D01*
X781871Y620458D01*
X785535Y620097D01*
X789189Y619647D01*
X792831Y619106D01*
X796458Y618477D01*
X800069Y617759D01*
X803661Y616952D01*
X807233Y616057D01*
X810781Y615075D01*
X814304Y614007D01*
X817800Y612852D01*
X821267Y611611D01*
X824702Y610286D01*
X828103Y608877D01*
X831469Y607385D01*
X834797Y605811D01*
X838086Y604156D01*
X841333Y602420D01*
X844536Y600606D01*
X847694Y598713D01*
X850805Y596743D01*
X853866Y594698D01*
X856876Y592578D01*
X859834Y590385D01*
X862736Y588119D01*
X865582Y585784D01*
X868370Y583379D01*
X871098Y580906D01*
X873764Y578368D01*
X876368Y575764D01*
X878906Y573098D01*
X881379Y570370D01*
X883784Y567582D01*
X886119Y564736D01*
X888385Y561834D01*
X890578Y558876D01*
X892698Y555866D01*
X894743Y552805D01*
X896713Y549694D01*
X898606Y546536D01*
X900420Y543333D01*
X902156Y540086D01*
X903811Y536797D01*
X905385Y533469D01*
X906877Y530103D01*
X908286Y526702D01*
X909611Y523267D01*
X910852Y519800D01*
X912007Y516304D01*
X913075Y512781D01*
X914057Y509233D01*
X914952Y505661D01*
X915759Y502069D01*
X916477Y498458D01*
X917106Y494831D01*
X917647Y491189D01*
X918097Y487535D01*
X918458Y483871D01*
X918729Y480199D01*
X918910Y476522D01*
X919000Y472841D01*
X919000Y469159D01*
X1137000Y590607D02*
X1136923Y589825D01*
X1136770Y589054D01*
X1136541Y588302D01*
X1136241Y587575D01*
X1135870Y586882D01*
X1135433Y586229D01*
X1134935Y585621D01*
X1134379Y585065D01*
X1133771Y584567D01*
X1133118Y584130D01*
X1132425Y583759D01*
X1131698Y583459D01*
X1130946Y583230D01*
X1130175Y583077D01*
X1129393Y583000D01*
X1128607Y583000D01*
X1127825Y583077D01*
X1127054Y583230D01*
X1126302Y583459D01*
X1125575Y583759D01*
X1124882Y584130D01*
X1124229Y584567D01*
X1123621Y585065D01*
X1123065Y585621D01*
X1122567Y586229D01*
X1122130Y586882D01*
X1121759Y587575D01*
X1121459Y588302D01*
X1121230Y589054D01*
X1121077Y589825D01*
X1121000Y590607D01*
X1121000Y591393D01*
X1121077Y592175D01*
X1121230Y592946D01*
X1121459Y593698D01*
X1121759Y594425D01*
X1122130Y595118D01*
X1122567Y595771D01*
X1123065Y596379D01*
X1123621Y596935D01*
X1124229Y597433D01*
X1124882Y597870D01*
X1125575Y598241D01*
X1126302Y598541D01*
X1127054Y598770D01*
X1127825Y598923D01*
X1128607Y599000D01*
X1129393Y599000D01*
X1130175Y598923D01*
X1130946Y598770D01*
X1131698Y598541D01*
X1132425Y598241D01*
X1133118Y597870D01*
X1133771Y597433D01*
X1134379Y596935D01*
X1134935Y596379D01*
X1135433Y595771D01*
X1135870Y595118D01*
X1136241Y594425D01*
X1136541Y593698D01*
X1136770Y592946D01*
X1136923Y592175D01*
X1137000Y591393D01*
X1137000Y590607D01*
X1097000Y670607D02*
X1096923Y669825D01*
X1096770Y669054D01*
X1096541Y668302D01*
X1096241Y667575D01*
X1095870Y666882D01*
X1095433Y666229D01*
X1094935Y665621D01*
X1094379Y665065D01*
X1093771Y664567D01*
X1093118Y664130D01*
X1092425Y663759D01*
X1091698Y663459D01*
X1090946Y663230D01*
X1090175Y663077D01*
X1089393Y663000D01*
X1088607Y663000D01*
X1087825Y663077D01*
X1087054Y663230D01*
X1086302Y663459D01*
X1085575Y663759D01*
X1084882Y664130D01*
X1084229Y664567D01*
X1083621Y665065D01*
X1083065Y665621D01*
X1082567Y666229D01*
X1082130Y666882D01*
X1081759Y667575D01*
X1081459Y668302D01*
X1081230Y669054D01*
X1081077Y669825D01*
X1081000Y670607D01*
X1081000Y671393D01*
X1081077Y672175D01*
X1081230Y672946D01*
X1081459Y673698D01*
X1081759Y674425D01*
X1082130Y675118D01*
X1082567Y675771D01*
X1083065Y676379D01*
X1083621Y676935D01*
X1084229Y677433D01*
X1084882Y677870D01*
X1085575Y678241D01*
X1086302Y678541D01*
X1087054Y678770D01*
X1087825Y678923D01*
X1088607Y679000D01*
X1089393Y679000D01*
X1090175Y678923D01*
X1090946Y678770D01*
X1091698Y678541D01*
X1092425Y678241D01*
X1093118Y677870D01*
X1093771Y677433D01*
X1094379Y676935D01*
X1094935Y676379D01*
X1095433Y675771D01*
X1095870Y675118D01*
X1096241Y674425D01*
X1096541Y673698D01*
X1096770Y672946D01*
X1096923Y672175D01*
X1097000Y671393D01*
X1097000Y670607D01*
X753000Y845607D02*
X752923Y844825D01*
X752770Y844054D01*
X752541Y843302D01*
X752241Y842575D01*
X751870Y841882D01*
X751433Y841229D01*
X750935Y840621D01*
X750379Y840065D01*
X749771Y839567D01*
X749118Y839130D01*
X748425Y838759D01*
X747698Y838459D01*
X746946Y838230D01*
X746175Y838077D01*
X745393Y838000D01*
X744607Y838000D01*
X743825Y838077D01*
X743054Y838230D01*
X742302Y838459D01*
X741575Y838759D01*
X740882Y839130D01*
X740229Y839567D01*
X739621Y840065D01*
X739065Y840621D01*
X738567Y841229D01*
X738130Y841882D01*
X737759Y842575D01*
X737459Y843302D01*
X737230Y844054D01*
X737077Y844825D01*
X737000Y845607D01*
X737000Y846393D01*
X737077Y847175D01*
X737230Y847946D01*
X737459Y848698D01*
X737759Y849425D01*
X738130Y850118D01*
X738567Y850771D01*
X739065Y851379D01*
X739621Y851935D01*
X740229Y852433D01*
X740882Y852870D01*
X741575Y853241D01*
X742302Y853541D01*
X743054Y853770D01*
X743825Y853923D01*
X744607Y854000D01*
X745393Y854000D01*
X746175Y853923D01*
X746946Y853770D01*
X747698Y853541D01*
X748425Y853241D01*
X749118Y852870D01*
X749771Y852433D01*
X750379Y851935D01*
X750935Y851379D01*
X751433Y850771D01*
X751870Y850118D01*
X752241Y849425D01*
X752541Y848698D01*
X752770Y847946D01*
X752923Y847175D01*
X753000Y846393D01*
X753000Y845607D01*
X654000Y825607D02*
X653923Y824825D01*
X653770Y824054D01*
X653541Y823302D01*
X653241Y822575D01*
X652870Y821882D01*
X652433Y821229D01*
X651935Y820621D01*
X651379Y820065D01*
X650771Y819567D01*
X650118Y819130D01*
X649425Y818759D01*
X648698Y818459D01*
X647946Y818230D01*
X647175Y818077D01*
X646393Y818000D01*
X645607Y818000D01*
X644825Y818077D01*
X644054Y818230D01*
X643302Y818459D01*
X642575Y818759D01*
X641882Y819130D01*
X641229Y819567D01*
X640621Y820065D01*
X640065Y820621D01*
X639567Y821229D01*
X639130Y821882D01*
X638759Y822575D01*
X638459Y823302D01*
X638230Y824054D01*
X638077Y824825D01*
X638000Y825607D01*
X638000Y826393D01*
X638077Y827175D01*
X638230Y827946D01*
X638459Y828698D01*
X638759Y829425D01*
X639130Y830118D01*
X639567Y830771D01*
X640065Y831379D01*
X640621Y831935D01*
X641229Y832433D01*
X641882Y832870D01*
X642575Y833241D01*
X643302Y833541D01*
X644054Y833770D01*
X644825Y833923D01*
X645607Y834000D01*
X646393Y834000D01*
X647175Y833923D01*
X647946Y833770D01*
X648698Y833541D01*
X649425Y833241D01*
X650118Y832870D01*
X650771Y832433D01*
X651379Y831935D01*
X651935Y831379D01*
X652433Y830771D01*
X652870Y830118D01*
X653241Y829425D01*
X653541Y828698D01*
X653770Y827946D01*
X653923Y827175D01*
X654000Y826393D01*
X654000Y825607D01*
X1149000Y509607D02*
X1148923Y508825D01*
X1148770Y508054D01*
X1148541Y507302D01*
X1148241Y506575D01*
X1147870Y505882D01*
X1147433Y505229D01*
X1146935Y504621D01*
X1146379Y504065D01*
X1145771Y503567D01*
X1145118Y503130D01*
X1144425Y502759D01*
X1143698Y502459D01*
X1142946Y502230D01*
X1142175Y502077D01*
X1141393Y502000D01*
X1140607Y502000D01*
X1139825Y502077D01*
X1139054Y502230D01*
X1138302Y502459D01*
X1137575Y502759D01*
X1136882Y503130D01*
X1136229Y503567D01*
X1135621Y504065D01*
X1135065Y504621D01*
X1134567Y505229D01*
X1134130Y505882D01*
X1133759Y506575D01*
X1133459Y507302D01*
X1133230Y508054D01*
X1133077Y508825D01*
X1133000Y509607D01*
X1133000Y510393D01*
X1133077Y511175D01*
X1133230Y511946D01*
X1133459Y512698D01*
X1133759Y513425D01*
X1134130Y514118D01*
X1134567Y514771D01*
X1135065Y515379D01*
X1135621Y515935D01*
X1136229Y516433D01*
X1136882Y516870D01*
X1137575Y517241D01*
X1138302Y517541D01*
X1139054Y517770D01*
X1139825Y517923D01*
X1140607Y518000D01*
X1141393Y518000D01*
X1142175Y517923D01*
X1142946Y517770D01*
X1143698Y517541D01*
X1144425Y517241D01*
X1145118Y516870D01*
X1145771Y516433D01*
X1146379Y515935D01*
X1146935Y515379D01*
X1147433Y514771D01*
X1147870Y514118D01*
X1148241Y513425D01*
X1148541Y512698D01*
X1148770Y511946D01*
X1148923Y511175D01*
X1149000Y510393D01*
X1149000Y509607D01*
X1148400Y433007D02*
X1148323Y432225D01*
X1148170Y431454D01*
X1147941Y430702D01*
X1147641Y429975D01*
X1147270Y429282D01*
X1146833Y428629D01*
X1146335Y428021D01*
X1145779Y427465D01*
X1145171Y426967D01*
X1144518Y426530D01*
X1143825Y426159D01*
X1143098Y425859D01*
X1142346Y425630D01*
X1141575Y425477D01*
X1140793Y425400D01*
X1140007Y425400D01*
X1139225Y425477D01*
X1138454Y425630D01*
X1137702Y425859D01*
X1136975Y426159D01*
X1136282Y426530D01*
X1135629Y426967D01*
X1135021Y427465D01*
X1134465Y428021D01*
X1133967Y428629D01*
X1133530Y429282D01*
X1133159Y429975D01*
X1132859Y430702D01*
X1132630Y431454D01*
X1132477Y432225D01*
X1132400Y433007D01*
X1132400Y433793D01*
X1132477Y434575D01*
X1132630Y435346D01*
X1132859Y436098D01*
X1133159Y436825D01*
X1133530Y437518D01*
X1133967Y438171D01*
X1134465Y438779D01*
X1135021Y439335D01*
X1135629Y439833D01*
X1136282Y440270D01*
X1136975Y440641D01*
X1137702Y440941D01*
X1138454Y441170D01*
X1139225Y441323D01*
X1140007Y441400D01*
X1140793Y441400D01*
X1141575Y441323D01*
X1142346Y441170D01*
X1143098Y440941D01*
X1143825Y440641D01*
X1144518Y440270D01*
X1145171Y439833D01*
X1145779Y439335D01*
X1146335Y438779D01*
X1146833Y438171D01*
X1147270Y437518D01*
X1147641Y436825D01*
X1147941Y436098D01*
X1148170Y435346D01*
X1148323Y434575D01*
X1148400Y433793D01*
X1148400Y433007D01*
X279200Y278607D02*
X279123Y277825D01*
X278970Y277054D01*
X278741Y276302D01*
X278441Y275575D01*
X278070Y274882D01*
X277633Y274229D01*
X277135Y273621D01*
X276579Y273065D01*
X275971Y272567D01*
X275318Y272130D01*
X274625Y271759D01*
X273898Y271459D01*
X273146Y271230D01*
X272375Y271077D01*
X271593Y271000D01*
X270807Y271000D01*
X270025Y271077D01*
X269254Y271230D01*
X268502Y271459D01*
X267775Y271759D01*
X267082Y272130D01*
X266429Y272567D01*
X265821Y273065D01*
X265265Y273621D01*
X264767Y274229D01*
X264330Y274882D01*
X263959Y275575D01*
X263659Y276302D01*
X263430Y277054D01*
X263277Y277825D01*
X263200Y278607D01*
X263200Y279393D01*
X263277Y280175D01*
X263430Y280946D01*
X263659Y281698D01*
X263959Y282425D01*
X264330Y283118D01*
X264767Y283771D01*
X265265Y284379D01*
X265821Y284935D01*
X266429Y285433D01*
X267082Y285870D01*
X267775Y286241D01*
X268502Y286541D01*
X269254Y286770D01*
X270025Y286923D01*
X270807Y287000D01*
X271593Y287000D01*
X272375Y286923D01*
X273146Y286770D01*
X273898Y286541D01*
X274625Y286241D01*
X275318Y285870D01*
X275971Y285433D01*
X276579Y284935D01*
X277135Y284379D01*
X277633Y283771D01*
X278070Y283118D01*
X278441Y282425D01*
X278741Y281698D01*
X278970Y280946D01*
X279123Y280175D01*
X279200Y279393D01*
X279200Y278607D01*
X181800Y348607D02*
X181723Y347825D01*
X181570Y347054D01*
X181341Y346302D01*
X181041Y345575D01*
X180670Y344882D01*
X180233Y344229D01*
X179735Y343621D01*
X179179Y343065D01*
X178571Y342567D01*
X177918Y342130D01*
X177225Y341759D01*
X176498Y341459D01*
X175746Y341230D01*
X174975Y341077D01*
X174193Y341000D01*
X173407Y341000D01*
X172625Y341077D01*
X171854Y341230D01*
X171102Y341459D01*
X170375Y341759D01*
X169682Y342130D01*
X169029Y342567D01*
X168421Y343065D01*
X167865Y343621D01*
X167367Y344229D01*
X166930Y344882D01*
X166559Y345575D01*
X166259Y346302D01*
X166030Y347054D01*
X165877Y347825D01*
X165800Y348607D01*
X165800Y349393D01*
X165877Y350175D01*
X166030Y350946D01*
X166259Y351698D01*
X166559Y352425D01*
X166930Y353118D01*
X167367Y353771D01*
X167865Y354379D01*
X168421Y354935D01*
X169029Y355433D01*
X169682Y355870D01*
X170375Y356241D01*
X171102Y356541D01*
X171854Y356770D01*
X172625Y356923D01*
X173407Y357000D01*
X174193Y357000D01*
X174975Y356923D01*
X175746Y356770D01*
X176498Y356541D01*
X177225Y356241D01*
X177918Y355870D01*
X178571Y355433D01*
X179179Y354935D01*
X179735Y354379D01*
X180233Y353771D01*
X180670Y353118D01*
X181041Y352425D01*
X181341Y351698D01*
X181570Y350946D01*
X181723Y350175D01*
X181800Y349393D01*
X181800Y348607D01*
X279200Y662607D02*
X279123Y661825D01*
X278970Y661054D01*
X278741Y660302D01*
X278441Y659575D01*
X278070Y658882D01*
X277633Y658229D01*
X277135Y657621D01*
X276579Y657065D01*
X275971Y656567D01*
X275318Y656130D01*
X274625Y655759D01*
X273898Y655459D01*
X273146Y655230D01*
X272375Y655077D01*
X271593Y655000D01*
X270807Y655000D01*
X270025Y655077D01*
X269254Y655230D01*
X268502Y655459D01*
X267775Y655759D01*
X267082Y656130D01*
X266429Y656567D01*
X265821Y657065D01*
X265265Y657621D01*
X264767Y658229D01*
X264330Y658882D01*
X263959Y659575D01*
X263659Y660302D01*
X263430Y661054D01*
X263277Y661825D01*
X263200Y662607D01*
X263200Y663393D01*
X263277Y664175D01*
X263430Y664946D01*
X263659Y665698D01*
X263959Y666425D01*
X264330Y667118D01*
X264767Y667771D01*
X265265Y668379D01*
X265821Y668935D01*
X266429Y669433D01*
X267082Y669870D01*
X267775Y670241D01*
X268502Y670541D01*
X269254Y670770D01*
X270025Y670923D01*
X270807Y671000D01*
X271593Y671000D01*
X272375Y670923D01*
X273146Y670770D01*
X273898Y670541D01*
X274625Y670241D01*
X275318Y669870D01*
X275971Y669433D01*
X276579Y668935D01*
X277135Y668379D01*
X277633Y667771D01*
X278070Y667118D01*
X278441Y666425D01*
X278741Y665698D01*
X278970Y664946D01*
X279123Y664175D01*
X279200Y663393D01*
X279200Y662607D01*
X181800Y592607D02*
X181723Y591825D01*
X181570Y591054D01*
X181341Y590302D01*
X181041Y589575D01*
X180670Y588882D01*
X180233Y588229D01*
X179735Y587621D01*
X179179Y587065D01*
X178571Y586567D01*
X177918Y586130D01*
X177225Y585759D01*
X176498Y585459D01*
X175746Y585230D01*
X174975Y585077D01*
X174193Y585000D01*
X173407Y585000D01*
X172625Y585077D01*
X171854Y585230D01*
X171102Y585459D01*
X170375Y585759D01*
X169682Y586130D01*
X169029Y586567D01*
X168421Y587065D01*
X167865Y587621D01*
X167367Y588229D01*
X166930Y588882D01*
X166559Y589575D01*
X166259Y590302D01*
X166030Y591054D01*
X165877Y591825D01*
X165800Y592607D01*
X165800Y593393D01*
X165877Y594175D01*
X166030Y594946D01*
X166259Y595698D01*
X166559Y596425D01*
X166930Y597118D01*
X167367Y597771D01*
X167865Y598379D01*
X168421Y598935D01*
X169029Y599433D01*
X169682Y599870D01*
X170375Y600241D01*
X171102Y600541D01*
X171854Y600770D01*
X172625Y600923D01*
X173407Y601000D01*
X174193Y601000D01*
X174975Y600923D01*
X175746Y600770D01*
X176498Y600541D01*
X177225Y600241D01*
X177918Y599870D01*
X178571Y599433D01*
X179179Y598935D01*
X179735Y598379D01*
X180233Y597771D01*
X180670Y597118D01*
X181041Y596425D01*
X181341Y595698D01*
X181570Y594946D01*
X181723Y594175D01*
X181800Y593393D01*
X181800Y592607D01*
X1137000Y590607D02*
X1136923Y589825D01*
X1136770Y589054D01*
X1136541Y588302D01*
X1136241Y587575D01*
X1135870Y586882D01*
X1135433Y586229D01*
X1134935Y585621D01*
X1134379Y585065D01*
X1133771Y584567D01*
X1133118Y584130D01*
X1132425Y583759D01*
X1131698Y583459D01*
X1130946Y583230D01*
X1130175Y583077D01*
X1129393Y583000D01*
X1128607Y583000D01*
X1127825Y583077D01*
X1127054Y583230D01*
X1126302Y583459D01*
X1125575Y583759D01*
X1124882Y584130D01*
X1124229Y584567D01*
X1123621Y585065D01*
X1123065Y585621D01*
X1122567Y586229D01*
X1122130Y586882D01*
X1121759Y587575D01*
X1121459Y588302D01*
X1121230Y589054D01*
X1121077Y589825D01*
X1121000Y590607D01*
X1121000Y591393D01*
X1121077Y592175D01*
X1121230Y592946D01*
X1121459Y593698D01*
X1121759Y594425D01*
X1122130Y595118D01*
X1122567Y595771D01*
X1123065Y596379D01*
X1123621Y596935D01*
X1124229Y597433D01*
X1124882Y597870D01*
X1125575Y598241D01*
X1126302Y598541D01*
X1127054Y598770D01*
X1127825Y598923D01*
X1128607Y599000D01*
X1129393Y599000D01*
X1130175Y598923D01*
X1130946Y598770D01*
X1131698Y598541D01*
X1132425Y598241D01*
X1133118Y597870D01*
X1133771Y597433D01*
X1134379Y596935D01*
X1134935Y596379D01*
X1135433Y595771D01*
X1135870Y595118D01*
X1136241Y594425D01*
X1136541Y593698D01*
X1136770Y592946D01*
X1136923Y592175D01*
X1137000Y591393D01*
X1137000Y590607D01*
X1097000Y670607D02*
X1096923Y669825D01*
X1096770Y669054D01*
X1096541Y668302D01*
X1096241Y667575D01*
X1095870Y666882D01*
X1095433Y666229D01*
X1094935Y665621D01*
X1094379Y665065D01*
X1093771Y664567D01*
X1093118Y664130D01*
X1092425Y663759D01*
X1091698Y663459D01*
X1090946Y663230D01*
X1090175Y663077D01*
X1089393Y663000D01*
X1088607Y663000D01*
X1087825Y663077D01*
X1087054Y663230D01*
X1086302Y663459D01*
X1085575Y663759D01*
X1084882Y664130D01*
X1084229Y664567D01*
X1083621Y665065D01*
X1083065Y665621D01*
X1082567Y666229D01*
X1082130Y666882D01*
X1081759Y667575D01*
X1081459Y668302D01*
X1081230Y669054D01*
X1081077Y669825D01*
X1081000Y670607D01*
X1081000Y671393D01*
X1081077Y672175D01*
X1081230Y672946D01*
X1081459Y673698D01*
X1081759Y674425D01*
X1082130Y675118D01*
X1082567Y675771D01*
X1083065Y676379D01*
X1083621Y676935D01*
X1084229Y677433D01*
X1084882Y677870D01*
X1085575Y678241D01*
X1086302Y678541D01*
X1087054Y678770D01*
X1087825Y678923D01*
X1088607Y679000D01*
X1089393Y679000D01*
X1090175Y678923D01*
X1090946Y678770D01*
X1091698Y678541D01*
X1092425Y678241D01*
X1093118Y677870D01*
X1093771Y677433D01*
X1094379Y676935D01*
X1094935Y676379D01*
X1095433Y675771D01*
X1095870Y675118D01*
X1096241Y674425D01*
X1096541Y673698D01*
X1096770Y672946D01*
X1096923Y672175D01*
X1097000Y671393D01*
X1097000Y670607D01*
X753000Y845607D02*
X752923Y844825D01*
X752770Y844054D01*
X752541Y843302D01*
X752241Y842575D01*
X751870Y841882D01*
X751433Y841229D01*
X750935Y840621D01*
X750379Y840065D01*
X749771Y839567D01*
X749118Y839130D01*
X748425Y838759D01*
X747698Y838459D01*
X746946Y838230D01*
X746175Y838077D01*
X745393Y838000D01*
X744607Y838000D01*
X743825Y838077D01*
X743054Y838230D01*
X742302Y838459D01*
X741575Y838759D01*
X740882Y839130D01*
X740229Y839567D01*
X739621Y840065D01*
X739065Y840621D01*
X738567Y841229D01*
X738130Y841882D01*
X737759Y842575D01*
X737459Y843302D01*
X737230Y844054D01*
X737077Y844825D01*
X737000Y845607D01*
X737000Y846393D01*
X737077Y847175D01*
X737230Y847946D01*
X737459Y848698D01*
X737759Y849425D01*
X738130Y850118D01*
X738567Y850771D01*
X739065Y851379D01*
X739621Y851935D01*
X740229Y852433D01*
X740882Y852870D01*
X741575Y853241D01*
X742302Y853541D01*
X743054Y853770D01*
X743825Y853923D01*
X744607Y854000D01*
X745393Y854000D01*
X746175Y853923D01*
X746946Y853770D01*
X747698Y853541D01*
X748425Y853241D01*
X749118Y852870D01*
X749771Y852433D01*
X750379Y851935D01*
X750935Y851379D01*
X751433Y850771D01*
X751870Y850118D01*
X752241Y849425D01*
X752541Y848698D01*
X752770Y847946D01*
X752923Y847175D01*
X753000Y846393D01*
X753000Y845607D01*
X654000Y825607D02*
X653923Y824825D01*
X653770Y824054D01*
X653541Y823302D01*
X653241Y822575D01*
X652870Y821882D01*
X652433Y821229D01*
X651935Y820621D01*
X651379Y820065D01*
X650771Y819567D01*
X650118Y819130D01*
X649425Y818759D01*
X648698Y818459D01*
X647946Y818230D01*
X647175Y818077D01*
X646393Y818000D01*
X645607Y818000D01*
X644825Y818077D01*
X644054Y818230D01*
X643302Y818459D01*
X642575Y818759D01*
X641882Y819130D01*
X641229Y819567D01*
X640621Y820065D01*
X640065Y820621D01*
X639567Y821229D01*
X639130Y821882D01*
X638759Y822575D01*
X638459Y823302D01*
X638230Y824054D01*
X638077Y824825D01*
X638000Y825607D01*
X638000Y826393D01*
X638077Y827175D01*
X638230Y827946D01*
X638459Y828698D01*
X638759Y829425D01*
X639130Y830118D01*
X639567Y830771D01*
X640065Y831379D01*
X640621Y831935D01*
X641229Y832433D01*
X641882Y832870D01*
X642575Y833241D01*
X643302Y833541D01*
X644054Y833770D01*
X644825Y833923D01*
X645607Y834000D01*
X646393Y834000D01*
X647175Y833923D01*
X647946Y833770D01*
X648698Y833541D01*
X649425Y833241D01*
X650118Y832870D01*
X650771Y832433D01*
X651379Y831935D01*
X651935Y831379D01*
X652433Y830771D01*
X652870Y830118D01*
X653241Y829425D01*
X653541Y828698D01*
X653770Y827946D01*
X653923Y827175D01*
X654000Y826393D01*
X654000Y825607D01*
X1149000Y509607D02*
X1148923Y508825D01*
X1148770Y508054D01*
X1148541Y507302D01*
X1148241Y506575D01*
X1147870Y505882D01*
X1147433Y505229D01*
X1146935Y504621D01*
X1146379Y504065D01*
X1145771Y503567D01*
X1145118Y503130D01*
X1144425Y502759D01*
X1143698Y502459D01*
X1142946Y502230D01*
X1142175Y502077D01*
X1141393Y502000D01*
X1140607Y502000D01*
X1139825Y502077D01*
X1139054Y502230D01*
X1138302Y502459D01*
X1137575Y502759D01*
X1136882Y503130D01*
X1136229Y503567D01*
X1135621Y504065D01*
X1135065Y504621D01*
X1134567Y505229D01*
X1134130Y505882D01*
X1133759Y506575D01*
X1133459Y507302D01*
X1133230Y508054D01*
X1133077Y508825D01*
X1133000Y509607D01*
X1133000Y510393D01*
X1133077Y511175D01*
X1133230Y511946D01*
X1133459Y512698D01*
X1133759Y513425D01*
X1134130Y514118D01*
X1134567Y514771D01*
X1135065Y515379D01*
X1135621Y515935D01*
X1136229Y516433D01*
X1136882Y516870D01*
X1137575Y517241D01*
X1138302Y517541D01*
X1139054Y517770D01*
X1139825Y517923D01*
X1140607Y518000D01*
X1141393Y518000D01*
X1142175Y517923D01*
X1142946Y517770D01*
X1143698Y517541D01*
X1144425Y517241D01*
X1145118Y516870D01*
X1145771Y516433D01*
X1146379Y515935D01*
X1146935Y515379D01*
X1147433Y514771D01*
X1147870Y514118D01*
X1148241Y513425D01*
X1148541Y512698D01*
X1148770Y511946D01*
X1148923Y511175D01*
X1149000Y510393D01*
X1149000Y509607D01*
X1148400Y433007D02*
X1148323Y432225D01*
X1148170Y431454D01*
X1147941Y430702D01*
X1147641Y429975D01*
X1147270Y429282D01*
X1146833Y428629D01*
X1146335Y428021D01*
X1145779Y427465D01*
X1145171Y426967D01*
X1144518Y426530D01*
X1143825Y426159D01*
X1143098Y425859D01*
X1142346Y425630D01*
X1141575Y425477D01*
X1140793Y425400D01*
X1140007Y425400D01*
X1139225Y425477D01*
X1138454Y425630D01*
X1137702Y425859D01*
X1136975Y426159D01*
X1136282Y426530D01*
X1135629Y426967D01*
X1135021Y427465D01*
X1134465Y428021D01*
X1133967Y428629D01*
X1133530Y429282D01*
X1133159Y429975D01*
X1132859Y430702D01*
X1132630Y431454D01*
X1132477Y432225D01*
X1132400Y433007D01*
X1132400Y433793D01*
X1132477Y434575D01*
X1132630Y435346D01*
X1132859Y436098D01*
X1133159Y436825D01*
X1133530Y437518D01*
X1133967Y438171D01*
X1134465Y438779D01*
X1135021Y439335D01*
X1135629Y439833D01*
X1136282Y440270D01*
X1136975Y440641D01*
X1137702Y440941D01*
X1138454Y441170D01*
X1139225Y441323D01*
X1140007Y441400D01*
X1140793Y441400D01*
X1141575Y441323D01*
X1142346Y441170D01*
X1143098Y440941D01*
X1143825Y440641D01*
X1144518Y440270D01*
X1145171Y439833D01*
X1145779Y439335D01*
X1146335Y438779D01*
X1146833Y438171D01*
X1147270Y437518D01*
X1147641Y436825D01*
X1147941Y436098D01*
X1148170Y435346D01*
X1148323Y434575D01*
X1148400Y433793D01*
X1148400Y433007D01*
X279200Y278607D02*
X279123Y277825D01*
X278970Y277054D01*
X278741Y276302D01*
X278441Y275575D01*
X278070Y274882D01*
X277633Y274229D01*
X277135Y273621D01*
X276579Y273065D01*
X275971Y272567D01*
X275318Y272130D01*
X274625Y271759D01*
X273898Y271459D01*
X273146Y271230D01*
X272375Y271077D01*
X271593Y271000D01*
X270807Y271000D01*
X270025Y271077D01*
X269254Y271230D01*
X268502Y271459D01*
X267775Y271759D01*
X267082Y272130D01*
X266429Y272567D01*
X265821Y273065D01*
X265265Y273621D01*
X264767Y274229D01*
X264330Y274882D01*
X263959Y275575D01*
X263659Y276302D01*
X263430Y277054D01*
X263277Y277825D01*
X263200Y278607D01*
X263200Y279393D01*
X263277Y280175D01*
X263430Y280946D01*
X263659Y281698D01*
X263959Y282425D01*
X264330Y283118D01*
X264767Y283771D01*
X265265Y284379D01*
X265821Y284935D01*
X266429Y285433D01*
X267082Y285870D01*
X267775Y286241D01*
X268502Y286541D01*
X269254Y286770D01*
X270025Y286923D01*
X270807Y287000D01*
X271593Y287000D01*
X272375Y286923D01*
X273146Y286770D01*
X273898Y286541D01*
X274625Y286241D01*
X275318Y285870D01*
X275971Y285433D01*
X276579Y284935D01*
X277135Y284379D01*
X277633Y283771D01*
X278070Y283118D01*
X278441Y282425D01*
X278741Y281698D01*
X278970Y280946D01*
X279123Y280175D01*
X279200Y279393D01*
X279200Y278607D01*
X181800Y348607D02*
X181723Y347825D01*
X181570Y347054D01*
X181341Y346302D01*
X181041Y345575D01*
X180670Y344882D01*
X180233Y344229D01*
X179735Y343621D01*
X179179Y343065D01*
X178571Y342567D01*
X177918Y342130D01*
X177225Y341759D01*
X176498Y341459D01*
X175746Y341230D01*
X174975Y341077D01*
X174193Y341000D01*
X173407Y341000D01*
X172625Y341077D01*
X171854Y341230D01*
X171102Y341459D01*
X170375Y341759D01*
X169682Y342130D01*
X169029Y342567D01*
X168421Y343065D01*
X167865Y343621D01*
X167367Y344229D01*
X166930Y344882D01*
X166559Y345575D01*
X166259Y346302D01*
X166030Y347054D01*
X165877Y347825D01*
X165800Y348607D01*
X165800Y349393D01*
X165877Y350175D01*
X166030Y350946D01*
X166259Y351698D01*
X166559Y352425D01*
X166930Y353118D01*
X167367Y353771D01*
X167865Y354379D01*
X168421Y354935D01*
X169029Y355433D01*
X169682Y355870D01*
X170375Y356241D01*
X171102Y356541D01*
X171854Y356770D01*
X172625Y356923D01*
X173407Y357000D01*
X174193Y357000D01*
X174975Y356923D01*
X175746Y356770D01*
X176498Y356541D01*
X177225Y356241D01*
X177918Y355870D01*
X178571Y355433D01*
X179179Y354935D01*
X179735Y354379D01*
X180233Y353771D01*
X180670Y353118D01*
X181041Y352425D01*
X181341Y351698D01*
X181570Y350946D01*
X181723Y350175D01*
X181800Y349393D01*
X181800Y348607D01*
X279200Y662607D02*
X279123Y661825D01*
X278970Y661054D01*
X278741Y660302D01*
X278441Y659575D01*
X278070Y658882D01*
X277633Y658229D01*
X277135Y657621D01*
X276579Y657065D01*
X275971Y656567D01*
X275318Y656130D01*
X274625Y655759D01*
X273898Y655459D01*
X273146Y655230D01*
X272375Y655077D01*
X271593Y655000D01*
X270807Y655000D01*
X270025Y655077D01*
X269254Y655230D01*
X268502Y655459D01*
X267775Y655759D01*
X267082Y656130D01*
X266429Y656567D01*
X265821Y657065D01*
X265265Y657621D01*
X264767Y658229D01*
X264330Y658882D01*
X263959Y659575D01*
X263659Y660302D01*
X263430Y661054D01*
X263277Y661825D01*
X263200Y662607D01*
X263200Y663393D01*
X263277Y664175D01*
X263430Y664946D01*
X263659Y665698D01*
X263959Y666425D01*
X264330Y667118D01*
X264767Y667771D01*
X265265Y668379D01*
X265821Y668935D01*
X266429Y669433D01*
X267082Y669870D01*
X267775Y670241D01*
X268502Y670541D01*
X269254Y670770D01*
X270025Y670923D01*
X270807Y671000D01*
X271593Y671000D01*
X272375Y670923D01*
X273146Y670770D01*
X273898Y670541D01*
X274625Y670241D01*
X275318Y669870D01*
X275971Y669433D01*
X276579Y668935D01*
X277135Y668379D01*
X277633Y667771D01*
X278070Y667118D01*
X278441Y666425D01*
X278741Y665698D01*
X278970Y664946D01*
X279123Y664175D01*
X279200Y663393D01*
X279200Y662607D01*
X181800Y592607D02*
X181723Y591825D01*
X181570Y591054D01*
X181341Y590302D01*
X181041Y589575D01*
X180670Y588882D01*
X180233Y588229D01*
X179735Y587621D01*
X179179Y587065D01*
X178571Y586567D01*
X177918Y586130D01*
X177225Y585759D01*
X176498Y585459D01*
X175746Y585230D01*
X174975Y585077D01*
X174193Y585000D01*
X173407Y585000D01*
X172625Y585077D01*
X171854Y585230D01*
X171102Y585459D01*
X170375Y585759D01*
X169682Y586130D01*
X169029Y586567D01*
X168421Y587065D01*
X167865Y587621D01*
X167367Y588229D01*
X166930Y588882D01*
X166559Y589575D01*
X166259Y590302D01*
X166030Y591054D01*
X165877Y591825D01*
X165800Y592607D01*
X165800Y593393D01*
X165877Y594175D01*
X166030Y594946D01*
X166259Y595698D01*
X166559Y596425D01*
X166930Y597118D01*
X167367Y597771D01*
X167865Y598379D01*
X168421Y598935D01*
X169029Y599433D01*
X169682Y599870D01*
X170375Y600241D01*
X171102Y600541D01*
X171854Y600770D01*
X172625Y600923D01*
X173407Y601000D01*
X174193Y601000D01*
X174975Y600923D01*
X175746Y600770D01*
X176498Y600541D01*
X177225Y600241D01*
X177918Y599870D01*
X178571Y599433D01*
X179179Y598935D01*
X179735Y598379D01*
X180233Y597771D01*
X180670Y597118D01*
X181041Y596425D01*
X181341Y595698D01*
X181570Y594946D01*
X181723Y594175D01*
X181800Y593393D01*
X181800Y592607D01*
M02*
