G75*
%MOIN*%
%OFA0B0*%
%FSLAX25Y25*%
%IPPOS*%
%LPD*%
%AMOC8*
5,1,8,0,0,1.08239X$1,22.5*
%
%ADD10C,0.10433*%
%ADD11C,0.00600*%
D10*
X0023111Y0026386D03*
X0038702Y0026386D03*
D11*
X0017411Y0012778D02*
X0017360Y0012654D01*
X0045819Y0012654D01*
X0045819Y0015230D01*
X0046953Y0017968D01*
X0049049Y0020063D01*
X0051787Y0021198D01*
X0054750Y0021198D01*
X0054874Y0021146D01*
X0054874Y0030484D01*
X0054750Y0030432D01*
X0051787Y0030432D01*
X0049049Y0031566D01*
X0046953Y0033662D01*
X0045819Y0036400D01*
X0045819Y0039364D01*
X0045870Y0039487D01*
X0017360Y0039487D01*
X0017411Y0039364D01*
X0017411Y0036400D01*
X0016277Y0033662D01*
X0014181Y0031566D01*
X0011443Y0030432D01*
X0008480Y0030432D01*
X0008356Y0030484D01*
X0008356Y0021658D01*
X0008480Y0021709D01*
X0011443Y0021709D01*
X0014181Y0020575D01*
X0016277Y0018480D01*
X0017411Y0015742D01*
X0017411Y0012778D01*
X0017411Y0013142D02*
X0045819Y0013142D01*
X0045819Y0013741D02*
X0017411Y0013741D01*
X0017411Y0014339D02*
X0045819Y0014339D01*
X0045819Y0014938D02*
X0017411Y0014938D01*
X0017411Y0015536D02*
X0045946Y0015536D01*
X0046194Y0016135D02*
X0017248Y0016135D01*
X0017000Y0016733D02*
X0046442Y0016733D01*
X0046690Y0017332D02*
X0016752Y0017332D01*
X0016504Y0017931D02*
X0046938Y0017931D01*
X0047514Y0018529D02*
X0016228Y0018529D01*
X0015629Y0019128D02*
X0048113Y0019128D01*
X0048711Y0019726D02*
X0015031Y0019726D01*
X0014432Y0020325D02*
X0021761Y0020325D01*
X0021894Y0020269D02*
X0024328Y0020269D01*
X0026576Y0021200D01*
X0028296Y0022921D01*
X0029228Y0025169D01*
X0029228Y0027602D01*
X0028296Y0029851D01*
X0026576Y0031571D01*
X0024328Y0032502D01*
X0021894Y0032502D01*
X0019646Y0031571D01*
X0017926Y0029851D01*
X0016994Y0027602D01*
X0016994Y0025169D01*
X0017926Y0022921D01*
X0019646Y0021200D01*
X0021894Y0020269D01*
X0020316Y0020923D02*
X0013342Y0020923D01*
X0011897Y0021522D02*
X0019325Y0021522D01*
X0018727Y0022120D02*
X0008356Y0022120D01*
X0008356Y0022719D02*
X0018128Y0022719D01*
X0017762Y0023317D02*
X0008356Y0023317D01*
X0008356Y0023916D02*
X0017514Y0023916D01*
X0017266Y0024514D02*
X0008356Y0024514D01*
X0008356Y0025113D02*
X0017018Y0025113D01*
X0016994Y0025711D02*
X0008356Y0025711D01*
X0008356Y0026310D02*
X0016994Y0026310D01*
X0016994Y0026908D02*
X0008356Y0026908D01*
X0008356Y0027507D02*
X0016994Y0027507D01*
X0017203Y0028105D02*
X0008356Y0028105D01*
X0008356Y0028704D02*
X0017451Y0028704D01*
X0017699Y0029302D02*
X0008356Y0029302D01*
X0008356Y0029901D02*
X0017976Y0029901D01*
X0018574Y0030499D02*
X0011605Y0030499D01*
X0013050Y0031098D02*
X0019173Y0031098D01*
X0019948Y0031696D02*
X0014311Y0031696D01*
X0014910Y0032295D02*
X0021393Y0032295D01*
X0024829Y0032295D02*
X0048320Y0032295D01*
X0047722Y0032893D02*
X0015508Y0032893D01*
X0016107Y0033492D02*
X0047123Y0033492D01*
X0046776Y0034090D02*
X0016454Y0034090D01*
X0016702Y0034689D02*
X0046528Y0034689D01*
X0046280Y0035287D02*
X0016950Y0035287D01*
X0017198Y0035886D02*
X0046032Y0035886D01*
X0045819Y0036484D02*
X0017411Y0036484D01*
X0017411Y0037083D02*
X0045819Y0037083D01*
X0045819Y0037681D02*
X0017411Y0037681D01*
X0017411Y0038280D02*
X0045819Y0038280D01*
X0045819Y0038878D02*
X0017411Y0038878D01*
X0017364Y0039477D02*
X0045866Y0039477D01*
X0048919Y0031696D02*
X0026274Y0031696D01*
X0027049Y0031098D02*
X0050180Y0031098D01*
X0051625Y0030499D02*
X0027648Y0030499D01*
X0028246Y0029901D02*
X0054874Y0029901D01*
X0054874Y0029302D02*
X0028523Y0029302D01*
X0028771Y0028704D02*
X0054874Y0028704D01*
X0054874Y0028105D02*
X0029019Y0028105D01*
X0029228Y0027507D02*
X0054874Y0027507D01*
X0054874Y0026908D02*
X0029228Y0026908D01*
X0029228Y0026310D02*
X0054874Y0026310D01*
X0054874Y0025711D02*
X0029228Y0025711D01*
X0029204Y0025113D02*
X0054874Y0025113D01*
X0054874Y0024514D02*
X0028956Y0024514D01*
X0028708Y0023916D02*
X0054874Y0023916D01*
X0054874Y0023317D02*
X0028460Y0023317D01*
X0028094Y0022719D02*
X0054874Y0022719D01*
X0054874Y0022120D02*
X0027495Y0022120D01*
X0026897Y0021522D02*
X0054874Y0021522D01*
X0051124Y0020923D02*
X0025906Y0020923D01*
X0024461Y0020325D02*
X0049679Y0020325D01*
M02*
