G75*
%MOIN*%
%OFA0B0*%
%FSLAX25Y25*%
%IPPOS*%
%LPD*%
%AMOC8*
5,1,8,0,0,1.08239X$1,22.5*
%
%ADD10C,0.10433*%
%ADD11C,0.00600*%
D10*
X0023111Y0026386D03*
X0038702Y0026386D03*
D11*
X0017411Y0012778D02*
X0017360Y0012654D01*
X0045819Y0012654D01*
X0045819Y0015230D01*
X0046953Y0017968D01*
X0049049Y0020063D01*
X0051787Y0021198D01*
X0054750Y0021198D01*
X0054874Y0021146D01*
X0054874Y0030484D01*
X0054750Y0030432D01*
X0051787Y0030432D01*
X0049049Y0031566D01*
X0046953Y0033662D01*
X0045819Y0036400D01*
X0045819Y0039364D01*
X0045870Y0039487D01*
X0017360Y0039487D01*
X0017411Y0039364D01*
X0017411Y0036400D01*
X0016277Y0033662D01*
X0014181Y0031566D01*
X0011443Y0030432D01*
X0008480Y0030432D01*
X0008356Y0030484D01*
X0008356Y0021658D01*
X0008480Y0021709D01*
X0011443Y0021709D01*
X0014181Y0020575D01*
X0016277Y0018480D01*
X0017411Y0015742D01*
X0017411Y0012778D01*
X0017411Y0013142D02*
X0045819Y0013142D01*
X0045819Y0013741D02*
X0017411Y0013741D01*
X0017411Y0014339D02*
X0045819Y0014339D01*
X0045819Y0014938D02*
X0017411Y0014938D01*
X0017411Y0015536D02*
X0045946Y0015536D01*
X0046194Y0016135D02*
X0017248Y0016135D01*
X0017000Y0016733D02*
X0046442Y0016733D01*
X0046690Y0017332D02*
X0016752Y0017332D01*
X0016504Y0017931D02*
X0046938Y0017931D01*
X0047514Y0018529D02*
X0016228Y0018529D01*
X0015629Y0019128D02*
X0048113Y0019128D01*
X0048711Y0019726D02*
X0015031Y0019726D01*
X0014432Y0020325D02*
X0037351Y0020325D01*
X0037485Y0020269D02*
X0039918Y0020269D01*
X0042166Y0021200D01*
X0043887Y0022921D01*
X0044818Y0025169D01*
X0044818Y0027602D01*
X0043887Y0029851D01*
X0042166Y0031571D01*
X0039918Y0032502D01*
X0037485Y0032502D01*
X0035237Y0031571D01*
X0033516Y0029851D01*
X0032585Y0027602D01*
X0032585Y0025169D01*
X0033516Y0022921D01*
X0035237Y0021200D01*
X0037485Y0020269D01*
X0035907Y0020923D02*
X0013342Y0020923D01*
X0011897Y0021522D02*
X0034916Y0021522D01*
X0034317Y0022120D02*
X0008356Y0022120D01*
X0008356Y0022719D02*
X0033719Y0022719D01*
X0033352Y0023317D02*
X0008356Y0023317D01*
X0008356Y0023916D02*
X0033104Y0023916D01*
X0032856Y0024514D02*
X0008356Y0024514D01*
X0008356Y0025113D02*
X0032608Y0025113D01*
X0032585Y0025711D02*
X0008356Y0025711D01*
X0008356Y0026310D02*
X0032585Y0026310D01*
X0032585Y0026908D02*
X0008356Y0026908D01*
X0008356Y0027507D02*
X0032585Y0027507D01*
X0032793Y0028105D02*
X0008356Y0028105D01*
X0008356Y0028704D02*
X0033041Y0028704D01*
X0033289Y0029302D02*
X0008356Y0029302D01*
X0008356Y0029901D02*
X0033566Y0029901D01*
X0034165Y0030499D02*
X0011605Y0030499D01*
X0013050Y0031098D02*
X0034763Y0031098D01*
X0035539Y0031696D02*
X0014311Y0031696D01*
X0014910Y0032295D02*
X0036984Y0032295D01*
X0040419Y0032295D02*
X0048320Y0032295D01*
X0047722Y0032893D02*
X0015508Y0032893D01*
X0016107Y0033492D02*
X0047123Y0033492D01*
X0046776Y0034090D02*
X0016454Y0034090D01*
X0016702Y0034689D02*
X0046528Y0034689D01*
X0046280Y0035287D02*
X0016950Y0035287D01*
X0017198Y0035886D02*
X0046032Y0035886D01*
X0045819Y0036484D02*
X0017411Y0036484D01*
X0017411Y0037083D02*
X0045819Y0037083D01*
X0045819Y0037681D02*
X0017411Y0037681D01*
X0017411Y0038280D02*
X0045819Y0038280D01*
X0045819Y0038878D02*
X0017411Y0038878D01*
X0017364Y0039477D02*
X0045866Y0039477D01*
X0048919Y0031696D02*
X0041864Y0031696D01*
X0042640Y0031098D02*
X0050180Y0031098D01*
X0051625Y0030499D02*
X0043238Y0030499D01*
X0043837Y0029901D02*
X0054874Y0029901D01*
X0054874Y0029302D02*
X0044114Y0029302D01*
X0044362Y0028704D02*
X0054874Y0028704D01*
X0054874Y0028105D02*
X0044610Y0028105D01*
X0044818Y0027507D02*
X0054874Y0027507D01*
X0054874Y0026908D02*
X0044818Y0026908D01*
X0044818Y0026310D02*
X0054874Y0026310D01*
X0054874Y0025711D02*
X0044818Y0025711D01*
X0044795Y0025113D02*
X0054874Y0025113D01*
X0054874Y0024514D02*
X0044547Y0024514D01*
X0044299Y0023916D02*
X0054874Y0023916D01*
X0054874Y0023317D02*
X0044051Y0023317D01*
X0043684Y0022719D02*
X0054874Y0022719D01*
X0054874Y0022120D02*
X0043086Y0022120D01*
X0042487Y0021522D02*
X0054874Y0021522D01*
X0051124Y0020923D02*
X0041497Y0020923D01*
X0040052Y0020325D02*
X0049679Y0020325D01*
M02*
