G75*
%MOIN*%
%OFA0B0*%
%FSLAX25Y25*%
%IPPOS*%
%LPD*%
%AMOC8*
5,1,8,0,0,1.08239X$1,22.5*
%
%ADD10C,0.00000*%
%ADD11C,0.00100*%
%ADD12C,0.00400*%
D10*
X0004056Y0008354D02*
X0004056Y0043787D01*
X0059174Y0043787D01*
X0059174Y0008354D01*
X0004056Y0008354D01*
X0006811Y0014260D02*
X0006813Y0014372D01*
X0006819Y0014483D01*
X0006829Y0014595D01*
X0006843Y0014706D01*
X0006860Y0014816D01*
X0006882Y0014926D01*
X0006908Y0015035D01*
X0006937Y0015143D01*
X0006970Y0015249D01*
X0007007Y0015355D01*
X0007048Y0015459D01*
X0007093Y0015562D01*
X0007141Y0015663D01*
X0007192Y0015762D01*
X0007247Y0015859D01*
X0007306Y0015954D01*
X0007367Y0016048D01*
X0007432Y0016139D01*
X0007501Y0016227D01*
X0007572Y0016313D01*
X0007646Y0016397D01*
X0007724Y0016477D01*
X0007804Y0016555D01*
X0007887Y0016631D01*
X0007972Y0016703D01*
X0008060Y0016772D01*
X0008150Y0016838D01*
X0008243Y0016900D01*
X0008338Y0016960D01*
X0008435Y0017016D01*
X0008533Y0017068D01*
X0008634Y0017117D01*
X0008736Y0017162D01*
X0008840Y0017204D01*
X0008945Y0017242D01*
X0009052Y0017276D01*
X0009159Y0017306D01*
X0009268Y0017333D01*
X0009377Y0017355D01*
X0009488Y0017374D01*
X0009598Y0017389D01*
X0009710Y0017400D01*
X0009821Y0017407D01*
X0009933Y0017410D01*
X0010045Y0017409D01*
X0010157Y0017404D01*
X0010268Y0017395D01*
X0010379Y0017382D01*
X0010490Y0017365D01*
X0010600Y0017345D01*
X0010709Y0017320D01*
X0010817Y0017292D01*
X0010924Y0017259D01*
X0011030Y0017223D01*
X0011134Y0017183D01*
X0011237Y0017140D01*
X0011339Y0017093D01*
X0011438Y0017042D01*
X0011536Y0016988D01*
X0011632Y0016930D01*
X0011726Y0016869D01*
X0011817Y0016805D01*
X0011906Y0016738D01*
X0011993Y0016667D01*
X0012077Y0016593D01*
X0012159Y0016517D01*
X0012237Y0016437D01*
X0012313Y0016355D01*
X0012386Y0016270D01*
X0012456Y0016183D01*
X0012522Y0016093D01*
X0012586Y0016001D01*
X0012646Y0015907D01*
X0012703Y0015811D01*
X0012756Y0015712D01*
X0012806Y0015612D01*
X0012852Y0015511D01*
X0012895Y0015407D01*
X0012934Y0015302D01*
X0012969Y0015196D01*
X0013000Y0015089D01*
X0013028Y0014980D01*
X0013051Y0014871D01*
X0013071Y0014761D01*
X0013087Y0014650D01*
X0013099Y0014539D01*
X0013107Y0014428D01*
X0013111Y0014316D01*
X0013111Y0014204D01*
X0013107Y0014092D01*
X0013099Y0013981D01*
X0013087Y0013870D01*
X0013071Y0013759D01*
X0013051Y0013649D01*
X0013028Y0013540D01*
X0013000Y0013431D01*
X0012969Y0013324D01*
X0012934Y0013218D01*
X0012895Y0013113D01*
X0012852Y0013009D01*
X0012806Y0012908D01*
X0012756Y0012808D01*
X0012703Y0012709D01*
X0012646Y0012613D01*
X0012586Y0012519D01*
X0012522Y0012427D01*
X0012456Y0012337D01*
X0012386Y0012250D01*
X0012313Y0012165D01*
X0012237Y0012083D01*
X0012159Y0012003D01*
X0012077Y0011927D01*
X0011993Y0011853D01*
X0011906Y0011782D01*
X0011817Y0011715D01*
X0011726Y0011651D01*
X0011632Y0011590D01*
X0011536Y0011532D01*
X0011438Y0011478D01*
X0011339Y0011427D01*
X0011237Y0011380D01*
X0011134Y0011337D01*
X0011030Y0011297D01*
X0010924Y0011261D01*
X0010817Y0011228D01*
X0010709Y0011200D01*
X0010600Y0011175D01*
X0010490Y0011155D01*
X0010379Y0011138D01*
X0010268Y0011125D01*
X0010157Y0011116D01*
X0010045Y0011111D01*
X0009933Y0011110D01*
X0009821Y0011113D01*
X0009710Y0011120D01*
X0009598Y0011131D01*
X0009488Y0011146D01*
X0009377Y0011165D01*
X0009268Y0011187D01*
X0009159Y0011214D01*
X0009052Y0011244D01*
X0008945Y0011278D01*
X0008840Y0011316D01*
X0008736Y0011358D01*
X0008634Y0011403D01*
X0008533Y0011452D01*
X0008435Y0011504D01*
X0008338Y0011560D01*
X0008243Y0011620D01*
X0008150Y0011682D01*
X0008060Y0011748D01*
X0007972Y0011817D01*
X0007887Y0011889D01*
X0007804Y0011965D01*
X0007724Y0012043D01*
X0007646Y0012123D01*
X0007572Y0012207D01*
X0007501Y0012293D01*
X0007432Y0012381D01*
X0007367Y0012472D01*
X0007306Y0012566D01*
X0007247Y0012661D01*
X0007192Y0012758D01*
X0007141Y0012857D01*
X0007093Y0012958D01*
X0007048Y0013061D01*
X0007007Y0013165D01*
X0006970Y0013271D01*
X0006937Y0013377D01*
X0006908Y0013485D01*
X0006882Y0013594D01*
X0006860Y0013704D01*
X0006843Y0013814D01*
X0006829Y0013925D01*
X0006819Y0014037D01*
X0006813Y0014148D01*
X0006811Y0014260D01*
X0006811Y0037882D02*
X0006813Y0037994D01*
X0006819Y0038105D01*
X0006829Y0038217D01*
X0006843Y0038328D01*
X0006860Y0038438D01*
X0006882Y0038548D01*
X0006908Y0038657D01*
X0006937Y0038765D01*
X0006970Y0038871D01*
X0007007Y0038977D01*
X0007048Y0039081D01*
X0007093Y0039184D01*
X0007141Y0039285D01*
X0007192Y0039384D01*
X0007247Y0039481D01*
X0007306Y0039576D01*
X0007367Y0039670D01*
X0007432Y0039761D01*
X0007501Y0039849D01*
X0007572Y0039935D01*
X0007646Y0040019D01*
X0007724Y0040099D01*
X0007804Y0040177D01*
X0007887Y0040253D01*
X0007972Y0040325D01*
X0008060Y0040394D01*
X0008150Y0040460D01*
X0008243Y0040522D01*
X0008338Y0040582D01*
X0008435Y0040638D01*
X0008533Y0040690D01*
X0008634Y0040739D01*
X0008736Y0040784D01*
X0008840Y0040826D01*
X0008945Y0040864D01*
X0009052Y0040898D01*
X0009159Y0040928D01*
X0009268Y0040955D01*
X0009377Y0040977D01*
X0009488Y0040996D01*
X0009598Y0041011D01*
X0009710Y0041022D01*
X0009821Y0041029D01*
X0009933Y0041032D01*
X0010045Y0041031D01*
X0010157Y0041026D01*
X0010268Y0041017D01*
X0010379Y0041004D01*
X0010490Y0040987D01*
X0010600Y0040967D01*
X0010709Y0040942D01*
X0010817Y0040914D01*
X0010924Y0040881D01*
X0011030Y0040845D01*
X0011134Y0040805D01*
X0011237Y0040762D01*
X0011339Y0040715D01*
X0011438Y0040664D01*
X0011536Y0040610D01*
X0011632Y0040552D01*
X0011726Y0040491D01*
X0011817Y0040427D01*
X0011906Y0040360D01*
X0011993Y0040289D01*
X0012077Y0040215D01*
X0012159Y0040139D01*
X0012237Y0040059D01*
X0012313Y0039977D01*
X0012386Y0039892D01*
X0012456Y0039805D01*
X0012522Y0039715D01*
X0012586Y0039623D01*
X0012646Y0039529D01*
X0012703Y0039433D01*
X0012756Y0039334D01*
X0012806Y0039234D01*
X0012852Y0039133D01*
X0012895Y0039029D01*
X0012934Y0038924D01*
X0012969Y0038818D01*
X0013000Y0038711D01*
X0013028Y0038602D01*
X0013051Y0038493D01*
X0013071Y0038383D01*
X0013087Y0038272D01*
X0013099Y0038161D01*
X0013107Y0038050D01*
X0013111Y0037938D01*
X0013111Y0037826D01*
X0013107Y0037714D01*
X0013099Y0037603D01*
X0013087Y0037492D01*
X0013071Y0037381D01*
X0013051Y0037271D01*
X0013028Y0037162D01*
X0013000Y0037053D01*
X0012969Y0036946D01*
X0012934Y0036840D01*
X0012895Y0036735D01*
X0012852Y0036631D01*
X0012806Y0036530D01*
X0012756Y0036430D01*
X0012703Y0036331D01*
X0012646Y0036235D01*
X0012586Y0036141D01*
X0012522Y0036049D01*
X0012456Y0035959D01*
X0012386Y0035872D01*
X0012313Y0035787D01*
X0012237Y0035705D01*
X0012159Y0035625D01*
X0012077Y0035549D01*
X0011993Y0035475D01*
X0011906Y0035404D01*
X0011817Y0035337D01*
X0011726Y0035273D01*
X0011632Y0035212D01*
X0011536Y0035154D01*
X0011438Y0035100D01*
X0011339Y0035049D01*
X0011237Y0035002D01*
X0011134Y0034959D01*
X0011030Y0034919D01*
X0010924Y0034883D01*
X0010817Y0034850D01*
X0010709Y0034822D01*
X0010600Y0034797D01*
X0010490Y0034777D01*
X0010379Y0034760D01*
X0010268Y0034747D01*
X0010157Y0034738D01*
X0010045Y0034733D01*
X0009933Y0034732D01*
X0009821Y0034735D01*
X0009710Y0034742D01*
X0009598Y0034753D01*
X0009488Y0034768D01*
X0009377Y0034787D01*
X0009268Y0034809D01*
X0009159Y0034836D01*
X0009052Y0034866D01*
X0008945Y0034900D01*
X0008840Y0034938D01*
X0008736Y0034980D01*
X0008634Y0035025D01*
X0008533Y0035074D01*
X0008435Y0035126D01*
X0008338Y0035182D01*
X0008243Y0035242D01*
X0008150Y0035304D01*
X0008060Y0035370D01*
X0007972Y0035439D01*
X0007887Y0035511D01*
X0007804Y0035587D01*
X0007724Y0035665D01*
X0007646Y0035745D01*
X0007572Y0035829D01*
X0007501Y0035915D01*
X0007432Y0036003D01*
X0007367Y0036094D01*
X0007306Y0036188D01*
X0007247Y0036283D01*
X0007192Y0036380D01*
X0007141Y0036479D01*
X0007093Y0036580D01*
X0007048Y0036683D01*
X0007007Y0036787D01*
X0006970Y0036893D01*
X0006937Y0036999D01*
X0006908Y0037107D01*
X0006882Y0037216D01*
X0006860Y0037326D01*
X0006843Y0037436D01*
X0006829Y0037547D01*
X0006819Y0037659D01*
X0006813Y0037770D01*
X0006811Y0037882D01*
X0050119Y0037882D02*
X0050121Y0037994D01*
X0050127Y0038105D01*
X0050137Y0038217D01*
X0050151Y0038328D01*
X0050168Y0038438D01*
X0050190Y0038548D01*
X0050216Y0038657D01*
X0050245Y0038765D01*
X0050278Y0038871D01*
X0050315Y0038977D01*
X0050356Y0039081D01*
X0050401Y0039184D01*
X0050449Y0039285D01*
X0050500Y0039384D01*
X0050555Y0039481D01*
X0050614Y0039576D01*
X0050675Y0039670D01*
X0050740Y0039761D01*
X0050809Y0039849D01*
X0050880Y0039935D01*
X0050954Y0040019D01*
X0051032Y0040099D01*
X0051112Y0040177D01*
X0051195Y0040253D01*
X0051280Y0040325D01*
X0051368Y0040394D01*
X0051458Y0040460D01*
X0051551Y0040522D01*
X0051646Y0040582D01*
X0051743Y0040638D01*
X0051841Y0040690D01*
X0051942Y0040739D01*
X0052044Y0040784D01*
X0052148Y0040826D01*
X0052253Y0040864D01*
X0052360Y0040898D01*
X0052467Y0040928D01*
X0052576Y0040955D01*
X0052685Y0040977D01*
X0052796Y0040996D01*
X0052906Y0041011D01*
X0053018Y0041022D01*
X0053129Y0041029D01*
X0053241Y0041032D01*
X0053353Y0041031D01*
X0053465Y0041026D01*
X0053576Y0041017D01*
X0053687Y0041004D01*
X0053798Y0040987D01*
X0053908Y0040967D01*
X0054017Y0040942D01*
X0054125Y0040914D01*
X0054232Y0040881D01*
X0054338Y0040845D01*
X0054442Y0040805D01*
X0054545Y0040762D01*
X0054647Y0040715D01*
X0054746Y0040664D01*
X0054844Y0040610D01*
X0054940Y0040552D01*
X0055034Y0040491D01*
X0055125Y0040427D01*
X0055214Y0040360D01*
X0055301Y0040289D01*
X0055385Y0040215D01*
X0055467Y0040139D01*
X0055545Y0040059D01*
X0055621Y0039977D01*
X0055694Y0039892D01*
X0055764Y0039805D01*
X0055830Y0039715D01*
X0055894Y0039623D01*
X0055954Y0039529D01*
X0056011Y0039433D01*
X0056064Y0039334D01*
X0056114Y0039234D01*
X0056160Y0039133D01*
X0056203Y0039029D01*
X0056242Y0038924D01*
X0056277Y0038818D01*
X0056308Y0038711D01*
X0056336Y0038602D01*
X0056359Y0038493D01*
X0056379Y0038383D01*
X0056395Y0038272D01*
X0056407Y0038161D01*
X0056415Y0038050D01*
X0056419Y0037938D01*
X0056419Y0037826D01*
X0056415Y0037714D01*
X0056407Y0037603D01*
X0056395Y0037492D01*
X0056379Y0037381D01*
X0056359Y0037271D01*
X0056336Y0037162D01*
X0056308Y0037053D01*
X0056277Y0036946D01*
X0056242Y0036840D01*
X0056203Y0036735D01*
X0056160Y0036631D01*
X0056114Y0036530D01*
X0056064Y0036430D01*
X0056011Y0036331D01*
X0055954Y0036235D01*
X0055894Y0036141D01*
X0055830Y0036049D01*
X0055764Y0035959D01*
X0055694Y0035872D01*
X0055621Y0035787D01*
X0055545Y0035705D01*
X0055467Y0035625D01*
X0055385Y0035549D01*
X0055301Y0035475D01*
X0055214Y0035404D01*
X0055125Y0035337D01*
X0055034Y0035273D01*
X0054940Y0035212D01*
X0054844Y0035154D01*
X0054746Y0035100D01*
X0054647Y0035049D01*
X0054545Y0035002D01*
X0054442Y0034959D01*
X0054338Y0034919D01*
X0054232Y0034883D01*
X0054125Y0034850D01*
X0054017Y0034822D01*
X0053908Y0034797D01*
X0053798Y0034777D01*
X0053687Y0034760D01*
X0053576Y0034747D01*
X0053465Y0034738D01*
X0053353Y0034733D01*
X0053241Y0034732D01*
X0053129Y0034735D01*
X0053018Y0034742D01*
X0052906Y0034753D01*
X0052796Y0034768D01*
X0052685Y0034787D01*
X0052576Y0034809D01*
X0052467Y0034836D01*
X0052360Y0034866D01*
X0052253Y0034900D01*
X0052148Y0034938D01*
X0052044Y0034980D01*
X0051942Y0035025D01*
X0051841Y0035074D01*
X0051743Y0035126D01*
X0051646Y0035182D01*
X0051551Y0035242D01*
X0051458Y0035304D01*
X0051368Y0035370D01*
X0051280Y0035439D01*
X0051195Y0035511D01*
X0051112Y0035587D01*
X0051032Y0035665D01*
X0050954Y0035745D01*
X0050880Y0035829D01*
X0050809Y0035915D01*
X0050740Y0036003D01*
X0050675Y0036094D01*
X0050614Y0036188D01*
X0050555Y0036283D01*
X0050500Y0036380D01*
X0050449Y0036479D01*
X0050401Y0036580D01*
X0050356Y0036683D01*
X0050315Y0036787D01*
X0050278Y0036893D01*
X0050245Y0036999D01*
X0050216Y0037107D01*
X0050190Y0037216D01*
X0050168Y0037326D01*
X0050151Y0037436D01*
X0050137Y0037547D01*
X0050127Y0037659D01*
X0050121Y0037770D01*
X0050119Y0037882D01*
X0050119Y0013748D02*
X0050121Y0013860D01*
X0050127Y0013971D01*
X0050137Y0014083D01*
X0050151Y0014194D01*
X0050168Y0014304D01*
X0050190Y0014414D01*
X0050216Y0014523D01*
X0050245Y0014631D01*
X0050278Y0014737D01*
X0050315Y0014843D01*
X0050356Y0014947D01*
X0050401Y0015050D01*
X0050449Y0015151D01*
X0050500Y0015250D01*
X0050555Y0015347D01*
X0050614Y0015442D01*
X0050675Y0015536D01*
X0050740Y0015627D01*
X0050809Y0015715D01*
X0050880Y0015801D01*
X0050954Y0015885D01*
X0051032Y0015965D01*
X0051112Y0016043D01*
X0051195Y0016119D01*
X0051280Y0016191D01*
X0051368Y0016260D01*
X0051458Y0016326D01*
X0051551Y0016388D01*
X0051646Y0016448D01*
X0051743Y0016504D01*
X0051841Y0016556D01*
X0051942Y0016605D01*
X0052044Y0016650D01*
X0052148Y0016692D01*
X0052253Y0016730D01*
X0052360Y0016764D01*
X0052467Y0016794D01*
X0052576Y0016821D01*
X0052685Y0016843D01*
X0052796Y0016862D01*
X0052906Y0016877D01*
X0053018Y0016888D01*
X0053129Y0016895D01*
X0053241Y0016898D01*
X0053353Y0016897D01*
X0053465Y0016892D01*
X0053576Y0016883D01*
X0053687Y0016870D01*
X0053798Y0016853D01*
X0053908Y0016833D01*
X0054017Y0016808D01*
X0054125Y0016780D01*
X0054232Y0016747D01*
X0054338Y0016711D01*
X0054442Y0016671D01*
X0054545Y0016628D01*
X0054647Y0016581D01*
X0054746Y0016530D01*
X0054844Y0016476D01*
X0054940Y0016418D01*
X0055034Y0016357D01*
X0055125Y0016293D01*
X0055214Y0016226D01*
X0055301Y0016155D01*
X0055385Y0016081D01*
X0055467Y0016005D01*
X0055545Y0015925D01*
X0055621Y0015843D01*
X0055694Y0015758D01*
X0055764Y0015671D01*
X0055830Y0015581D01*
X0055894Y0015489D01*
X0055954Y0015395D01*
X0056011Y0015299D01*
X0056064Y0015200D01*
X0056114Y0015100D01*
X0056160Y0014999D01*
X0056203Y0014895D01*
X0056242Y0014790D01*
X0056277Y0014684D01*
X0056308Y0014577D01*
X0056336Y0014468D01*
X0056359Y0014359D01*
X0056379Y0014249D01*
X0056395Y0014138D01*
X0056407Y0014027D01*
X0056415Y0013916D01*
X0056419Y0013804D01*
X0056419Y0013692D01*
X0056415Y0013580D01*
X0056407Y0013469D01*
X0056395Y0013358D01*
X0056379Y0013247D01*
X0056359Y0013137D01*
X0056336Y0013028D01*
X0056308Y0012919D01*
X0056277Y0012812D01*
X0056242Y0012706D01*
X0056203Y0012601D01*
X0056160Y0012497D01*
X0056114Y0012396D01*
X0056064Y0012296D01*
X0056011Y0012197D01*
X0055954Y0012101D01*
X0055894Y0012007D01*
X0055830Y0011915D01*
X0055764Y0011825D01*
X0055694Y0011738D01*
X0055621Y0011653D01*
X0055545Y0011571D01*
X0055467Y0011491D01*
X0055385Y0011415D01*
X0055301Y0011341D01*
X0055214Y0011270D01*
X0055125Y0011203D01*
X0055034Y0011139D01*
X0054940Y0011078D01*
X0054844Y0011020D01*
X0054746Y0010966D01*
X0054647Y0010915D01*
X0054545Y0010868D01*
X0054442Y0010825D01*
X0054338Y0010785D01*
X0054232Y0010749D01*
X0054125Y0010716D01*
X0054017Y0010688D01*
X0053908Y0010663D01*
X0053798Y0010643D01*
X0053687Y0010626D01*
X0053576Y0010613D01*
X0053465Y0010604D01*
X0053353Y0010599D01*
X0053241Y0010598D01*
X0053129Y0010601D01*
X0053018Y0010608D01*
X0052906Y0010619D01*
X0052796Y0010634D01*
X0052685Y0010653D01*
X0052576Y0010675D01*
X0052467Y0010702D01*
X0052360Y0010732D01*
X0052253Y0010766D01*
X0052148Y0010804D01*
X0052044Y0010846D01*
X0051942Y0010891D01*
X0051841Y0010940D01*
X0051743Y0010992D01*
X0051646Y0011048D01*
X0051551Y0011108D01*
X0051458Y0011170D01*
X0051368Y0011236D01*
X0051280Y0011305D01*
X0051195Y0011377D01*
X0051112Y0011453D01*
X0051032Y0011531D01*
X0050954Y0011611D01*
X0050880Y0011695D01*
X0050809Y0011781D01*
X0050740Y0011869D01*
X0050675Y0011960D01*
X0050614Y0012054D01*
X0050555Y0012149D01*
X0050500Y0012246D01*
X0050449Y0012345D01*
X0050401Y0012446D01*
X0050356Y0012549D01*
X0050315Y0012653D01*
X0050278Y0012759D01*
X0050245Y0012865D01*
X0050216Y0012973D01*
X0050190Y0013082D01*
X0050168Y0013192D01*
X0050151Y0013302D01*
X0050137Y0013413D01*
X0050127Y0013525D01*
X0050121Y0013636D01*
X0050119Y0013748D01*
D11*
X0050133Y0022184D02*
X0049933Y0022184D01*
X0050033Y0022184D02*
X0050033Y0023084D01*
X0049933Y0023084D02*
X0050133Y0023084D01*
X0050533Y0022884D02*
X0050533Y0022384D01*
X0050535Y0022358D01*
X0050540Y0022332D01*
X0050548Y0022307D01*
X0050560Y0022284D01*
X0050574Y0022262D01*
X0050592Y0022243D01*
X0050611Y0022225D01*
X0050633Y0022211D01*
X0050656Y0022199D01*
X0050681Y0022191D01*
X0050707Y0022186D01*
X0050733Y0022184D01*
X0051033Y0022184D01*
X0051033Y0022684D01*
X0050883Y0022684D01*
X0050533Y0022884D02*
X0050535Y0022910D01*
X0050540Y0022936D01*
X0050548Y0022961D01*
X0050560Y0022984D01*
X0050574Y0023006D01*
X0050592Y0023025D01*
X0050611Y0023043D01*
X0050633Y0023057D01*
X0050656Y0023069D01*
X0050681Y0023077D01*
X0050707Y0023082D01*
X0050733Y0023084D01*
X0051033Y0023084D01*
X0051493Y0023084D02*
X0051993Y0022184D01*
X0051993Y0023084D01*
X0051493Y0023084D02*
X0051493Y0022184D01*
X0052998Y0022709D02*
X0053273Y0022559D01*
X0053173Y0022183D02*
X0053136Y0022185D01*
X0053099Y0022189D01*
X0053063Y0022198D01*
X0053028Y0022209D01*
X0052993Y0022223D01*
X0052960Y0022240D01*
X0052929Y0022260D01*
X0052900Y0022283D01*
X0052873Y0022308D01*
X0053273Y0022559D02*
X0053295Y0022544D01*
X0053314Y0022527D01*
X0053332Y0022507D01*
X0053346Y0022485D01*
X0053358Y0022461D01*
X0053366Y0022436D01*
X0053371Y0022410D01*
X0053373Y0022384D01*
X0053371Y0022358D01*
X0053366Y0022332D01*
X0053358Y0022307D01*
X0053346Y0022284D01*
X0053332Y0022262D01*
X0053314Y0022243D01*
X0053295Y0022225D01*
X0053273Y0022211D01*
X0053250Y0022199D01*
X0053225Y0022191D01*
X0053199Y0022186D01*
X0053173Y0022184D01*
X0053323Y0023009D02*
X0053295Y0023028D01*
X0053264Y0023045D01*
X0053233Y0023059D01*
X0053200Y0023070D01*
X0053167Y0023078D01*
X0053132Y0023082D01*
X0053098Y0023084D01*
X0053072Y0023082D01*
X0053046Y0023077D01*
X0053021Y0023069D01*
X0052998Y0023057D01*
X0052976Y0023043D01*
X0052957Y0023025D01*
X0052939Y0023006D01*
X0052925Y0022984D01*
X0052913Y0022961D01*
X0052905Y0022936D01*
X0052900Y0022910D01*
X0052898Y0022884D01*
X0052900Y0022858D01*
X0052905Y0022832D01*
X0052913Y0022807D01*
X0052925Y0022783D01*
X0052939Y0022761D01*
X0052957Y0022741D01*
X0052976Y0022724D01*
X0052998Y0022709D01*
X0053683Y0023084D02*
X0054183Y0023084D01*
X0053933Y0023084D02*
X0053933Y0022184D01*
X0054553Y0022434D02*
X0054553Y0023084D01*
X0055053Y0023084D02*
X0055053Y0022434D01*
X0055051Y0022404D01*
X0055046Y0022374D01*
X0055037Y0022345D01*
X0055024Y0022318D01*
X0055009Y0022292D01*
X0054990Y0022268D01*
X0054969Y0022247D01*
X0054945Y0022228D01*
X0054919Y0022213D01*
X0054892Y0022200D01*
X0054863Y0022191D01*
X0054833Y0022186D01*
X0054803Y0022184D01*
X0054773Y0022186D01*
X0054743Y0022191D01*
X0054714Y0022200D01*
X0054687Y0022213D01*
X0054661Y0022228D01*
X0054637Y0022247D01*
X0054616Y0022268D01*
X0054597Y0022292D01*
X0054582Y0022318D01*
X0054569Y0022345D01*
X0054560Y0022374D01*
X0054555Y0022404D01*
X0054553Y0022434D01*
X0055513Y0022184D02*
X0055513Y0023084D01*
X0055763Y0023084D01*
X0055793Y0023082D01*
X0055823Y0023077D01*
X0055852Y0023068D01*
X0055879Y0023055D01*
X0055905Y0023040D01*
X0055929Y0023021D01*
X0055950Y0023000D01*
X0055969Y0022976D01*
X0055984Y0022950D01*
X0055997Y0022923D01*
X0056006Y0022894D01*
X0056011Y0022864D01*
X0056013Y0022834D01*
X0056013Y0022434D01*
X0056011Y0022404D01*
X0056006Y0022374D01*
X0055997Y0022345D01*
X0055984Y0022318D01*
X0055969Y0022292D01*
X0055950Y0022268D01*
X0055929Y0022247D01*
X0055905Y0022228D01*
X0055879Y0022213D01*
X0055852Y0022200D01*
X0055823Y0022191D01*
X0055793Y0022186D01*
X0055763Y0022184D01*
X0055513Y0022184D01*
X0056413Y0022184D02*
X0056613Y0022184D01*
X0056513Y0022184D02*
X0056513Y0023084D01*
X0056413Y0023084D02*
X0056613Y0023084D01*
X0056983Y0022834D02*
X0056983Y0022434D01*
X0056985Y0022404D01*
X0056990Y0022374D01*
X0056999Y0022345D01*
X0057012Y0022318D01*
X0057027Y0022292D01*
X0057046Y0022268D01*
X0057067Y0022247D01*
X0057091Y0022228D01*
X0057117Y0022213D01*
X0057144Y0022200D01*
X0057173Y0022191D01*
X0057203Y0022186D01*
X0057233Y0022184D01*
X0057263Y0022186D01*
X0057293Y0022191D01*
X0057322Y0022200D01*
X0057349Y0022213D01*
X0057375Y0022228D01*
X0057399Y0022247D01*
X0057420Y0022268D01*
X0057439Y0022292D01*
X0057454Y0022318D01*
X0057467Y0022345D01*
X0057476Y0022374D01*
X0057481Y0022404D01*
X0057483Y0022434D01*
X0057483Y0022834D01*
X0057481Y0022864D01*
X0057476Y0022894D01*
X0057467Y0022923D01*
X0057454Y0022950D01*
X0057439Y0022976D01*
X0057420Y0023000D01*
X0057399Y0023021D01*
X0057375Y0023040D01*
X0057349Y0023055D01*
X0057322Y0023068D01*
X0057293Y0023077D01*
X0057263Y0023082D01*
X0057233Y0023084D01*
X0057203Y0023082D01*
X0057173Y0023077D01*
X0057144Y0023068D01*
X0057117Y0023055D01*
X0057091Y0023040D01*
X0057067Y0023021D01*
X0057046Y0023000D01*
X0057027Y0022976D01*
X0057012Y0022950D01*
X0056999Y0022923D01*
X0056990Y0022894D01*
X0056985Y0022864D01*
X0056983Y0022834D01*
X0057593Y0023684D02*
X0057593Y0024584D01*
X0057343Y0024584D02*
X0057843Y0024584D01*
X0057003Y0024334D02*
X0057003Y0023934D01*
X0057001Y0023904D01*
X0056996Y0023874D01*
X0056987Y0023845D01*
X0056974Y0023818D01*
X0056959Y0023792D01*
X0056940Y0023768D01*
X0056919Y0023747D01*
X0056895Y0023728D01*
X0056869Y0023713D01*
X0056842Y0023700D01*
X0056813Y0023691D01*
X0056783Y0023686D01*
X0056753Y0023684D01*
X0056723Y0023686D01*
X0056693Y0023691D01*
X0056664Y0023700D01*
X0056637Y0023713D01*
X0056611Y0023728D01*
X0056587Y0023747D01*
X0056566Y0023768D01*
X0056547Y0023792D01*
X0056532Y0023818D01*
X0056519Y0023845D01*
X0056510Y0023874D01*
X0056505Y0023904D01*
X0056503Y0023934D01*
X0056503Y0024334D01*
X0056505Y0024364D01*
X0056510Y0024394D01*
X0056519Y0024423D01*
X0056532Y0024450D01*
X0056547Y0024476D01*
X0056566Y0024500D01*
X0056587Y0024521D01*
X0056611Y0024540D01*
X0056637Y0024555D01*
X0056664Y0024568D01*
X0056693Y0024577D01*
X0056723Y0024582D01*
X0056753Y0024584D01*
X0056783Y0024582D01*
X0056813Y0024577D01*
X0056842Y0024568D01*
X0056869Y0024555D01*
X0056895Y0024540D01*
X0056919Y0024521D01*
X0056940Y0024500D01*
X0056959Y0024476D01*
X0056974Y0024450D01*
X0056987Y0024423D01*
X0056996Y0024394D01*
X0057001Y0024364D01*
X0057003Y0024334D01*
X0055898Y0024184D02*
X0055925Y0024186D01*
X0055952Y0024191D01*
X0055978Y0024201D01*
X0056002Y0024213D01*
X0056024Y0024229D01*
X0056044Y0024247D01*
X0056061Y0024269D01*
X0056076Y0024292D01*
X0056086Y0024317D01*
X0056094Y0024343D01*
X0056098Y0024370D01*
X0056098Y0024398D01*
X0056094Y0024425D01*
X0056086Y0024451D01*
X0056076Y0024476D01*
X0056061Y0024499D01*
X0056044Y0024521D01*
X0056024Y0024539D01*
X0056002Y0024555D01*
X0055978Y0024567D01*
X0055952Y0024577D01*
X0055925Y0024582D01*
X0055898Y0024584D01*
X0055648Y0024584D01*
X0055648Y0023684D01*
X0055898Y0023684D01*
X0055928Y0023686D01*
X0055958Y0023691D01*
X0055987Y0023700D01*
X0056014Y0023713D01*
X0056040Y0023728D01*
X0056064Y0023747D01*
X0056085Y0023768D01*
X0056104Y0023792D01*
X0056119Y0023818D01*
X0056132Y0023845D01*
X0056141Y0023874D01*
X0056146Y0023904D01*
X0056148Y0023934D01*
X0056146Y0023964D01*
X0056141Y0023994D01*
X0056132Y0024023D01*
X0056119Y0024050D01*
X0056104Y0024076D01*
X0056085Y0024100D01*
X0056064Y0024121D01*
X0056040Y0024140D01*
X0056014Y0024155D01*
X0055987Y0024168D01*
X0055958Y0024177D01*
X0055928Y0024182D01*
X0055898Y0024184D01*
X0055648Y0024184D01*
X0055203Y0024334D02*
X0055203Y0023934D01*
X0055201Y0023904D01*
X0055196Y0023874D01*
X0055187Y0023845D01*
X0055174Y0023818D01*
X0055159Y0023792D01*
X0055140Y0023768D01*
X0055119Y0023747D01*
X0055095Y0023728D01*
X0055069Y0023713D01*
X0055042Y0023700D01*
X0055013Y0023691D01*
X0054983Y0023686D01*
X0054953Y0023684D01*
X0054923Y0023686D01*
X0054893Y0023691D01*
X0054864Y0023700D01*
X0054837Y0023713D01*
X0054811Y0023728D01*
X0054787Y0023747D01*
X0054766Y0023768D01*
X0054747Y0023792D01*
X0054732Y0023818D01*
X0054719Y0023845D01*
X0054710Y0023874D01*
X0054705Y0023904D01*
X0054703Y0023934D01*
X0054703Y0024334D01*
X0054705Y0024364D01*
X0054710Y0024394D01*
X0054719Y0024423D01*
X0054732Y0024450D01*
X0054747Y0024476D01*
X0054766Y0024500D01*
X0054787Y0024521D01*
X0054811Y0024540D01*
X0054837Y0024555D01*
X0054864Y0024568D01*
X0054893Y0024577D01*
X0054923Y0024582D01*
X0054953Y0024584D01*
X0054983Y0024582D01*
X0055013Y0024577D01*
X0055042Y0024568D01*
X0055069Y0024555D01*
X0055095Y0024540D01*
X0055119Y0024521D01*
X0055140Y0024500D01*
X0055159Y0024476D01*
X0055174Y0024450D01*
X0055187Y0024423D01*
X0055196Y0024394D01*
X0055201Y0024364D01*
X0055203Y0024334D01*
X0054309Y0023684D02*
X0054109Y0024084D01*
X0054059Y0024084D02*
X0053809Y0024084D01*
X0054059Y0024084D02*
X0054089Y0024086D01*
X0054119Y0024091D01*
X0054148Y0024100D01*
X0054175Y0024113D01*
X0054201Y0024128D01*
X0054225Y0024147D01*
X0054246Y0024168D01*
X0054265Y0024192D01*
X0054280Y0024218D01*
X0054293Y0024245D01*
X0054302Y0024274D01*
X0054307Y0024304D01*
X0054309Y0024334D01*
X0054307Y0024364D01*
X0054302Y0024394D01*
X0054293Y0024423D01*
X0054280Y0024450D01*
X0054265Y0024476D01*
X0054246Y0024500D01*
X0054225Y0024521D01*
X0054201Y0024540D01*
X0054175Y0024555D01*
X0054148Y0024568D01*
X0054119Y0024577D01*
X0054089Y0024582D01*
X0054059Y0024584D01*
X0053809Y0024584D01*
X0053809Y0023684D01*
X0052703Y0023684D02*
X0052703Y0024584D01*
X0052453Y0024584D02*
X0052953Y0024584D01*
X0052773Y0025434D02*
X0052775Y0025404D01*
X0052780Y0025374D01*
X0052789Y0025345D01*
X0052802Y0025318D01*
X0052817Y0025292D01*
X0052836Y0025268D01*
X0052857Y0025247D01*
X0052881Y0025228D01*
X0052907Y0025213D01*
X0052934Y0025200D01*
X0052963Y0025191D01*
X0052993Y0025186D01*
X0053023Y0025184D01*
X0053053Y0025186D01*
X0053083Y0025191D01*
X0053112Y0025200D01*
X0053139Y0025213D01*
X0053165Y0025228D01*
X0053189Y0025247D01*
X0053210Y0025268D01*
X0053229Y0025292D01*
X0053244Y0025318D01*
X0053257Y0025345D01*
X0053266Y0025374D01*
X0053271Y0025404D01*
X0053273Y0025434D01*
X0053273Y0025834D01*
X0053271Y0025864D01*
X0053266Y0025894D01*
X0053257Y0025923D01*
X0053244Y0025950D01*
X0053229Y0025976D01*
X0053210Y0026000D01*
X0053189Y0026021D01*
X0053165Y0026040D01*
X0053139Y0026055D01*
X0053112Y0026068D01*
X0053083Y0026077D01*
X0053053Y0026082D01*
X0053023Y0026084D01*
X0052993Y0026082D01*
X0052963Y0026077D01*
X0052934Y0026068D01*
X0052907Y0026055D01*
X0052881Y0026040D01*
X0052857Y0026021D01*
X0052836Y0026000D01*
X0052817Y0025976D01*
X0052802Y0025950D01*
X0052789Y0025923D01*
X0052780Y0025894D01*
X0052775Y0025864D01*
X0052773Y0025834D01*
X0052773Y0025434D01*
X0052343Y0025434D02*
X0052343Y0025834D01*
X0052341Y0025864D01*
X0052336Y0025894D01*
X0052327Y0025923D01*
X0052314Y0025950D01*
X0052299Y0025976D01*
X0052280Y0026000D01*
X0052259Y0026021D01*
X0052235Y0026040D01*
X0052209Y0026055D01*
X0052182Y0026068D01*
X0052153Y0026077D01*
X0052123Y0026082D01*
X0052093Y0026084D01*
X0051843Y0026084D01*
X0051843Y0025184D01*
X0052093Y0025184D01*
X0052123Y0025186D01*
X0052153Y0025191D01*
X0052182Y0025200D01*
X0052209Y0025213D01*
X0052235Y0025228D01*
X0052259Y0025247D01*
X0052280Y0025268D01*
X0052299Y0025292D01*
X0052314Y0025318D01*
X0052327Y0025345D01*
X0052336Y0025374D01*
X0052341Y0025404D01*
X0052343Y0025434D01*
X0051463Y0025184D02*
X0051163Y0026084D01*
X0050863Y0025184D01*
X0050938Y0025409D02*
X0051388Y0025409D01*
X0050560Y0025184D02*
X0050360Y0025184D01*
X0050334Y0025186D01*
X0050308Y0025191D01*
X0050283Y0025199D01*
X0050260Y0025211D01*
X0050238Y0025225D01*
X0050219Y0025243D01*
X0050201Y0025262D01*
X0050187Y0025284D01*
X0050175Y0025307D01*
X0050167Y0025332D01*
X0050162Y0025358D01*
X0050160Y0025384D01*
X0050160Y0025884D01*
X0050162Y0025910D01*
X0050167Y0025936D01*
X0050175Y0025961D01*
X0050187Y0025984D01*
X0050201Y0026006D01*
X0050219Y0026025D01*
X0050238Y0026043D01*
X0050260Y0026057D01*
X0050283Y0026069D01*
X0050308Y0026077D01*
X0050334Y0026082D01*
X0050360Y0026084D01*
X0050560Y0026084D01*
X0049763Y0025834D02*
X0049763Y0025434D01*
X0049761Y0025404D01*
X0049756Y0025374D01*
X0049747Y0025345D01*
X0049734Y0025318D01*
X0049719Y0025292D01*
X0049700Y0025268D01*
X0049679Y0025247D01*
X0049655Y0025228D01*
X0049629Y0025213D01*
X0049602Y0025200D01*
X0049573Y0025191D01*
X0049543Y0025186D01*
X0049513Y0025184D01*
X0049483Y0025186D01*
X0049453Y0025191D01*
X0049424Y0025200D01*
X0049397Y0025213D01*
X0049371Y0025228D01*
X0049347Y0025247D01*
X0049326Y0025268D01*
X0049307Y0025292D01*
X0049292Y0025318D01*
X0049279Y0025345D01*
X0049270Y0025374D01*
X0049265Y0025404D01*
X0049263Y0025434D01*
X0049263Y0025834D01*
X0049265Y0025864D01*
X0049270Y0025894D01*
X0049279Y0025923D01*
X0049292Y0025950D01*
X0049307Y0025976D01*
X0049326Y0026000D01*
X0049347Y0026021D01*
X0049371Y0026040D01*
X0049397Y0026055D01*
X0049424Y0026068D01*
X0049453Y0026077D01*
X0049483Y0026082D01*
X0049513Y0026084D01*
X0049543Y0026082D01*
X0049573Y0026077D01*
X0049602Y0026068D01*
X0049629Y0026055D01*
X0049655Y0026040D01*
X0049679Y0026021D01*
X0049700Y0026000D01*
X0049719Y0025976D01*
X0049734Y0025950D01*
X0049747Y0025923D01*
X0049756Y0025894D01*
X0049761Y0025864D01*
X0049763Y0025834D01*
X0048913Y0026084D02*
X0048613Y0025184D01*
X0048313Y0026084D01*
X0047713Y0026084D02*
X0048013Y0025184D01*
X0047938Y0025409D02*
X0047488Y0025409D01*
X0047413Y0025184D02*
X0047713Y0026084D01*
X0047413Y0024584D02*
X0047613Y0023684D01*
X0047813Y0024284D01*
X0048013Y0023684D01*
X0048213Y0024584D01*
X0048553Y0024584D02*
X0048753Y0024584D01*
X0048653Y0024584D02*
X0048653Y0023684D01*
X0048553Y0023684D02*
X0048753Y0023684D01*
X0049155Y0023684D02*
X0049555Y0023684D01*
X0049933Y0023684D02*
X0050183Y0023684D01*
X0050213Y0023686D01*
X0050243Y0023691D01*
X0050272Y0023700D01*
X0050299Y0023713D01*
X0050325Y0023728D01*
X0050349Y0023747D01*
X0050370Y0023768D01*
X0050389Y0023792D01*
X0050404Y0023818D01*
X0050417Y0023845D01*
X0050426Y0023874D01*
X0050431Y0023904D01*
X0050433Y0023934D01*
X0050433Y0024334D01*
X0050431Y0024364D01*
X0050426Y0024394D01*
X0050417Y0024423D01*
X0050404Y0024450D01*
X0050389Y0024476D01*
X0050370Y0024500D01*
X0050349Y0024521D01*
X0050325Y0024540D01*
X0050299Y0024555D01*
X0050272Y0024568D01*
X0050243Y0024577D01*
X0050213Y0024582D01*
X0050183Y0024584D01*
X0049933Y0024584D01*
X0049933Y0023684D01*
X0049155Y0023684D02*
X0049155Y0024584D01*
X0048775Y0023084D02*
X0048375Y0023084D01*
X0048375Y0022184D01*
X0048775Y0022184D01*
X0048675Y0022684D02*
X0048375Y0022684D01*
X0047913Y0022834D02*
X0047913Y0022434D01*
X0047911Y0022404D01*
X0047906Y0022374D01*
X0047897Y0022345D01*
X0047884Y0022318D01*
X0047869Y0022292D01*
X0047850Y0022268D01*
X0047829Y0022247D01*
X0047805Y0022228D01*
X0047779Y0022213D01*
X0047752Y0022200D01*
X0047723Y0022191D01*
X0047693Y0022186D01*
X0047663Y0022184D01*
X0047413Y0022184D01*
X0047413Y0023084D01*
X0047663Y0023084D01*
X0047693Y0023082D01*
X0047723Y0023077D01*
X0047752Y0023068D01*
X0047779Y0023055D01*
X0047805Y0023040D01*
X0047829Y0023021D01*
X0047850Y0023000D01*
X0047869Y0022976D01*
X0047884Y0022950D01*
X0047897Y0022923D01*
X0047906Y0022894D01*
X0047911Y0022864D01*
X0047913Y0022834D01*
X0049218Y0022709D02*
X0049493Y0022559D01*
X0049393Y0022183D02*
X0049356Y0022185D01*
X0049319Y0022189D01*
X0049283Y0022198D01*
X0049248Y0022209D01*
X0049213Y0022223D01*
X0049180Y0022240D01*
X0049149Y0022260D01*
X0049120Y0022283D01*
X0049093Y0022308D01*
X0049493Y0022559D02*
X0049515Y0022544D01*
X0049534Y0022527D01*
X0049552Y0022507D01*
X0049566Y0022485D01*
X0049578Y0022461D01*
X0049586Y0022436D01*
X0049591Y0022410D01*
X0049593Y0022384D01*
X0049591Y0022358D01*
X0049586Y0022332D01*
X0049578Y0022307D01*
X0049566Y0022284D01*
X0049552Y0022262D01*
X0049534Y0022243D01*
X0049515Y0022225D01*
X0049493Y0022211D01*
X0049470Y0022199D01*
X0049445Y0022191D01*
X0049419Y0022186D01*
X0049393Y0022184D01*
X0049543Y0023009D02*
X0049515Y0023028D01*
X0049484Y0023045D01*
X0049453Y0023059D01*
X0049420Y0023070D01*
X0049387Y0023078D01*
X0049352Y0023082D01*
X0049318Y0023084D01*
X0049292Y0023082D01*
X0049266Y0023077D01*
X0049241Y0023069D01*
X0049218Y0023057D01*
X0049196Y0023043D01*
X0049177Y0023025D01*
X0049159Y0023006D01*
X0049145Y0022984D01*
X0049133Y0022961D01*
X0049125Y0022936D01*
X0049120Y0022910D01*
X0049118Y0022884D01*
X0049120Y0022858D01*
X0049125Y0022832D01*
X0049133Y0022807D01*
X0049145Y0022783D01*
X0049159Y0022761D01*
X0049177Y0022741D01*
X0049196Y0022724D01*
X0049218Y0022709D01*
X0050860Y0023884D02*
X0050860Y0024384D01*
X0050862Y0024410D01*
X0050867Y0024436D01*
X0050875Y0024461D01*
X0050887Y0024484D01*
X0050901Y0024506D01*
X0050919Y0024525D01*
X0050938Y0024543D01*
X0050960Y0024557D01*
X0050983Y0024569D01*
X0051008Y0024577D01*
X0051034Y0024582D01*
X0051060Y0024584D01*
X0051260Y0024584D01*
X0051863Y0024584D02*
X0052163Y0023684D01*
X0052088Y0023909D02*
X0051638Y0023909D01*
X0051563Y0023684D02*
X0051863Y0024584D01*
X0051060Y0023684D02*
X0051034Y0023686D01*
X0051008Y0023691D01*
X0050983Y0023699D01*
X0050960Y0023711D01*
X0050938Y0023725D01*
X0050919Y0023743D01*
X0050901Y0023762D01*
X0050887Y0023784D01*
X0050875Y0023807D01*
X0050867Y0023832D01*
X0050862Y0023858D01*
X0050860Y0023884D01*
X0051060Y0023684D02*
X0051260Y0023684D01*
X0054403Y0025184D02*
X0054103Y0026084D01*
X0054703Y0026084D02*
X0054403Y0025184D01*
X0055053Y0025184D02*
X0055553Y0025184D01*
X0055908Y0025184D02*
X0055958Y0025184D01*
X0055958Y0025234D01*
X0055908Y0025234D01*
X0055908Y0025184D01*
X0056738Y0025309D02*
X0056758Y0025353D01*
X0056774Y0025398D01*
X0056788Y0025444D01*
X0056799Y0025491D01*
X0056807Y0025538D01*
X0056811Y0025586D01*
X0056813Y0025634D01*
X0056313Y0025634D02*
X0056315Y0025586D01*
X0056319Y0025538D01*
X0056327Y0025491D01*
X0056338Y0025444D01*
X0056352Y0025398D01*
X0056368Y0025353D01*
X0056388Y0025309D01*
X0056363Y0025384D02*
X0056763Y0025884D01*
X0056738Y0025959D02*
X0056728Y0025982D01*
X0056715Y0026004D01*
X0056699Y0026024D01*
X0056681Y0026042D01*
X0056660Y0026057D01*
X0056637Y0026068D01*
X0056613Y0026077D01*
X0056588Y0026082D01*
X0056563Y0026084D01*
X0056538Y0026082D01*
X0056513Y0026077D01*
X0056489Y0026068D01*
X0056466Y0026057D01*
X0056445Y0026042D01*
X0056427Y0026024D01*
X0056411Y0026004D01*
X0056398Y0025982D01*
X0056388Y0025959D01*
X0056738Y0025959D02*
X0056758Y0025915D01*
X0056774Y0025870D01*
X0056788Y0025824D01*
X0056799Y0025777D01*
X0056807Y0025730D01*
X0056811Y0025682D01*
X0056813Y0025634D01*
X0056313Y0025634D02*
X0056315Y0025682D01*
X0056319Y0025730D01*
X0056327Y0025777D01*
X0056338Y0025824D01*
X0056352Y0025870D01*
X0056368Y0025915D01*
X0056388Y0025959D01*
X0056738Y0025309D02*
X0056728Y0025286D01*
X0056715Y0025264D01*
X0056699Y0025244D01*
X0056681Y0025226D01*
X0056660Y0025211D01*
X0056637Y0025200D01*
X0056613Y0025191D01*
X0056588Y0025186D01*
X0056563Y0025184D01*
X0056538Y0025186D01*
X0056513Y0025191D01*
X0056489Y0025200D01*
X0056466Y0025211D01*
X0056445Y0025226D01*
X0056427Y0025244D01*
X0056411Y0025264D01*
X0056398Y0025286D01*
X0056388Y0025309D01*
X0055478Y0025684D02*
X0055053Y0025184D01*
X0055053Y0025884D02*
X0055065Y0025915D01*
X0055080Y0025944D01*
X0055099Y0025971D01*
X0055121Y0025996D01*
X0055145Y0026019D01*
X0055172Y0026038D01*
X0055200Y0026054D01*
X0055231Y0026067D01*
X0055262Y0026076D01*
X0055295Y0026082D01*
X0055328Y0026084D01*
X0055355Y0026082D01*
X0055382Y0026077D01*
X0055408Y0026069D01*
X0055433Y0026058D01*
X0055456Y0026044D01*
X0055477Y0026027D01*
X0055496Y0026008D01*
X0055513Y0025987D01*
X0055527Y0025964D01*
X0055538Y0025939D01*
X0055546Y0025913D01*
X0055551Y0025886D01*
X0055553Y0025859D01*
X0055551Y0025831D01*
X0055547Y0025804D01*
X0055539Y0025777D01*
X0055528Y0025751D01*
X0055514Y0025727D01*
X0055497Y0025704D01*
X0055478Y0025684D01*
X0012255Y0026609D02*
X0012255Y0027509D01*
X0011755Y0027509D02*
X0012255Y0026609D01*
X0011755Y0026609D02*
X0011755Y0027509D01*
X0011075Y0027509D02*
X0011375Y0026609D01*
X0011300Y0026834D02*
X0010850Y0026834D01*
X0010775Y0026609D02*
X0011075Y0027509D01*
X0010875Y0028109D02*
X0010875Y0029009D01*
X0010875Y0028609D02*
X0011375Y0028609D01*
X0011375Y0029009D02*
X0011375Y0028109D01*
X0010375Y0028484D02*
X0010100Y0028634D01*
X0010200Y0029009D02*
X0010234Y0029007D01*
X0010269Y0029003D01*
X0010302Y0028995D01*
X0010335Y0028984D01*
X0010366Y0028970D01*
X0010397Y0028953D01*
X0010425Y0028934D01*
X0010101Y0028634D02*
X0010079Y0028649D01*
X0010060Y0028666D01*
X0010042Y0028686D01*
X0010028Y0028708D01*
X0010016Y0028732D01*
X0010008Y0028757D01*
X0010003Y0028783D01*
X0010001Y0028809D01*
X0010000Y0028809D02*
X0010002Y0028835D01*
X0010007Y0028861D01*
X0010015Y0028886D01*
X0010027Y0028909D01*
X0010041Y0028931D01*
X0010059Y0028950D01*
X0010078Y0028968D01*
X0010100Y0028982D01*
X0010123Y0028994D01*
X0010148Y0029002D01*
X0010174Y0029007D01*
X0010200Y0029009D01*
X0009975Y0028234D02*
X0010002Y0028209D01*
X0010031Y0028186D01*
X0010062Y0028166D01*
X0010095Y0028149D01*
X0010130Y0028135D01*
X0010165Y0028124D01*
X0010201Y0028115D01*
X0010238Y0028111D01*
X0010275Y0028109D01*
X0010301Y0028111D01*
X0010327Y0028116D01*
X0010352Y0028124D01*
X0010375Y0028136D01*
X0010397Y0028150D01*
X0010416Y0028168D01*
X0010434Y0028187D01*
X0010448Y0028209D01*
X0010460Y0028232D01*
X0010468Y0028257D01*
X0010473Y0028283D01*
X0010475Y0028309D01*
X0010473Y0028335D01*
X0010468Y0028361D01*
X0010460Y0028386D01*
X0010448Y0028410D01*
X0010434Y0028432D01*
X0010416Y0028452D01*
X0010397Y0028469D01*
X0010375Y0028484D01*
X0009580Y0028334D02*
X0009130Y0028334D01*
X0009055Y0028109D02*
X0009355Y0029009D01*
X0009655Y0028109D01*
X0009525Y0027509D02*
X0009025Y0027509D01*
X0009275Y0027509D02*
X0009275Y0026609D01*
X0008735Y0026609D02*
X0008435Y0027509D01*
X0008135Y0026609D01*
X0008210Y0026834D02*
X0008660Y0026834D01*
X0009895Y0026609D02*
X0009895Y0027509D01*
X0009895Y0027109D02*
X0010395Y0027109D01*
X0010395Y0027509D02*
X0010395Y0026609D01*
X0010329Y0026009D02*
X0010329Y0025109D01*
X0010791Y0025109D02*
X0010791Y0026009D01*
X0011191Y0026009D01*
X0011571Y0026009D02*
X0011571Y0025109D01*
X0011971Y0025109D01*
X0011191Y0025109D02*
X0010791Y0025109D01*
X0010791Y0025609D02*
X0011091Y0025609D01*
X0010329Y0025609D02*
X0009829Y0025609D01*
X0009829Y0026009D02*
X0009829Y0025109D01*
X0009446Y0025109D02*
X0009246Y0025109D01*
X0009220Y0025111D01*
X0009194Y0025116D01*
X0009169Y0025124D01*
X0009146Y0025136D01*
X0009124Y0025150D01*
X0009105Y0025168D01*
X0009087Y0025187D01*
X0009073Y0025209D01*
X0009061Y0025232D01*
X0009053Y0025257D01*
X0009048Y0025283D01*
X0009046Y0025309D01*
X0009046Y0025809D01*
X0009048Y0025835D01*
X0009053Y0025861D01*
X0009061Y0025886D01*
X0009073Y0025909D01*
X0009087Y0025931D01*
X0009105Y0025950D01*
X0009124Y0025968D01*
X0009146Y0025982D01*
X0009169Y0025994D01*
X0009194Y0026002D01*
X0009220Y0026007D01*
X0009246Y0026009D01*
X0009446Y0026009D01*
X0008399Y0026009D02*
X0008099Y0025109D01*
X0008174Y0025334D02*
X0008624Y0025334D01*
X0008699Y0025109D02*
X0008399Y0026009D01*
X0007756Y0026609D02*
X0007756Y0027509D01*
X0007256Y0027509D02*
X0007756Y0026609D01*
X0007256Y0026609D02*
X0007256Y0027509D01*
X0007256Y0028109D02*
X0007556Y0029009D01*
X0007856Y0028109D01*
X0007781Y0028334D02*
X0007331Y0028334D01*
X0008250Y0028459D02*
X0008750Y0029009D01*
X0008450Y0028659D02*
X0008750Y0028109D01*
X0008250Y0028109D02*
X0008250Y0029009D01*
X0008237Y0029609D02*
X0008637Y0029609D01*
X0009017Y0029609D02*
X0009417Y0029609D01*
X0009797Y0029609D02*
X0009797Y0030509D01*
X0010197Y0030509D01*
X0010575Y0030509D02*
X0011075Y0029609D01*
X0011075Y0030509D01*
X0010575Y0030509D02*
X0010575Y0029609D01*
X0010197Y0029609D02*
X0009797Y0029609D01*
X0009797Y0030109D02*
X0010097Y0030109D01*
X0009017Y0030509D02*
X0009017Y0029609D01*
X0008237Y0029609D02*
X0008237Y0030509D01*
X0007556Y0030509D02*
X0007856Y0029609D01*
X0007781Y0029834D02*
X0007331Y0029834D01*
X0007256Y0029609D02*
X0007556Y0030509D01*
X0007506Y0026009D02*
X0007256Y0026009D01*
X0007256Y0025109D01*
X0007256Y0025509D02*
X0007506Y0025509D01*
X0007556Y0025509D02*
X0007756Y0025109D01*
X0007506Y0024509D02*
X0007256Y0024509D01*
X0007256Y0023609D01*
X0007256Y0024009D02*
X0007506Y0024009D01*
X0007556Y0024009D02*
X0007756Y0023609D01*
X0007756Y0023009D02*
X0007256Y0023009D01*
X0007506Y0023009D02*
X0007506Y0022109D01*
X0008191Y0022634D02*
X0008466Y0022484D01*
X0008366Y0022109D02*
X0008329Y0022111D01*
X0008292Y0022115D01*
X0008256Y0022124D01*
X0008221Y0022135D01*
X0008186Y0022149D01*
X0008153Y0022166D01*
X0008122Y0022186D01*
X0008093Y0022209D01*
X0008066Y0022234D01*
X0008465Y0022484D02*
X0008487Y0022469D01*
X0008506Y0022452D01*
X0008524Y0022432D01*
X0008538Y0022410D01*
X0008550Y0022386D01*
X0008558Y0022361D01*
X0008563Y0022335D01*
X0008565Y0022309D01*
X0008566Y0022309D02*
X0008564Y0022283D01*
X0008559Y0022257D01*
X0008551Y0022232D01*
X0008539Y0022209D01*
X0008525Y0022187D01*
X0008507Y0022168D01*
X0008488Y0022150D01*
X0008466Y0022136D01*
X0008443Y0022124D01*
X0008418Y0022116D01*
X0008392Y0022111D01*
X0008366Y0022109D01*
X0008516Y0022934D02*
X0008488Y0022953D01*
X0008457Y0022970D01*
X0008426Y0022984D01*
X0008393Y0022995D01*
X0008360Y0023003D01*
X0008325Y0023007D01*
X0008291Y0023009D01*
X0008265Y0023007D01*
X0008239Y0023002D01*
X0008214Y0022994D01*
X0008191Y0022982D01*
X0008169Y0022968D01*
X0008150Y0022950D01*
X0008132Y0022931D01*
X0008118Y0022909D01*
X0008106Y0022886D01*
X0008098Y0022861D01*
X0008093Y0022835D01*
X0008091Y0022809D01*
X0008093Y0022783D01*
X0008098Y0022757D01*
X0008106Y0022732D01*
X0008118Y0022708D01*
X0008132Y0022686D01*
X0008150Y0022666D01*
X0008169Y0022649D01*
X0008191Y0022634D01*
X0008935Y0022759D02*
X0008935Y0022359D01*
X0008937Y0022329D01*
X0008942Y0022299D01*
X0008951Y0022270D01*
X0008964Y0022243D01*
X0008979Y0022217D01*
X0008998Y0022193D01*
X0009019Y0022172D01*
X0009043Y0022153D01*
X0009069Y0022138D01*
X0009096Y0022125D01*
X0009125Y0022116D01*
X0009155Y0022111D01*
X0009185Y0022109D01*
X0009215Y0022111D01*
X0009245Y0022116D01*
X0009274Y0022125D01*
X0009301Y0022138D01*
X0009327Y0022153D01*
X0009351Y0022172D01*
X0009372Y0022193D01*
X0009391Y0022217D01*
X0009406Y0022243D01*
X0009419Y0022270D01*
X0009428Y0022299D01*
X0009433Y0022329D01*
X0009435Y0022359D01*
X0009435Y0022759D01*
X0009433Y0022789D01*
X0009428Y0022819D01*
X0009419Y0022848D01*
X0009406Y0022875D01*
X0009391Y0022901D01*
X0009372Y0022925D01*
X0009351Y0022946D01*
X0009327Y0022965D01*
X0009301Y0022980D01*
X0009274Y0022993D01*
X0009245Y0023002D01*
X0009215Y0023007D01*
X0009185Y0023009D01*
X0009155Y0023007D01*
X0009125Y0023002D01*
X0009096Y0022993D01*
X0009069Y0022980D01*
X0009043Y0022965D01*
X0009019Y0022946D01*
X0008998Y0022925D01*
X0008979Y0022901D01*
X0008964Y0022875D01*
X0008951Y0022848D01*
X0008942Y0022819D01*
X0008937Y0022789D01*
X0008935Y0022759D01*
X0009865Y0023009D02*
X0009865Y0022109D01*
X0010365Y0022109D02*
X0010365Y0023009D01*
X0009865Y0023009D02*
X0010365Y0022109D01*
X0010825Y0022309D02*
X0010825Y0022809D01*
X0010827Y0022835D01*
X0010832Y0022861D01*
X0010840Y0022886D01*
X0010852Y0022909D01*
X0010866Y0022931D01*
X0010884Y0022950D01*
X0010903Y0022968D01*
X0010925Y0022982D01*
X0010948Y0022994D01*
X0010973Y0023002D01*
X0010999Y0023007D01*
X0011025Y0023009D01*
X0011325Y0023009D01*
X0011325Y0022609D02*
X0011175Y0022609D01*
X0011325Y0022609D02*
X0011325Y0022109D01*
X0011025Y0022109D01*
X0010999Y0022111D01*
X0010973Y0022116D01*
X0010948Y0022124D01*
X0010925Y0022136D01*
X0010903Y0022150D01*
X0010884Y0022168D01*
X0010866Y0022187D01*
X0010852Y0022209D01*
X0010840Y0022232D01*
X0010832Y0022257D01*
X0010827Y0022283D01*
X0010825Y0022309D01*
X0010695Y0021509D02*
X0010495Y0021509D01*
X0010595Y0021509D02*
X0010595Y0020609D01*
X0010495Y0020609D02*
X0010695Y0020609D01*
X0011095Y0020609D02*
X0011095Y0021509D01*
X0011595Y0020609D01*
X0011595Y0021509D01*
X0010177Y0020609D02*
X0009777Y0020609D01*
X0009777Y0021509D01*
X0009375Y0021509D02*
X0009175Y0021509D01*
X0009275Y0021509D02*
X0009275Y0020609D01*
X0009175Y0020609D02*
X0009375Y0020609D01*
X0008857Y0020609D02*
X0008457Y0020609D01*
X0008457Y0021509D01*
X0008857Y0021509D01*
X0008757Y0021109D02*
X0008457Y0021109D01*
X0008056Y0021509D02*
X0007856Y0020609D01*
X0007656Y0021209D01*
X0007456Y0020609D01*
X0007256Y0021509D01*
X0008399Y0023609D02*
X0008399Y0024084D01*
X0008699Y0024509D01*
X0008399Y0024084D02*
X0008099Y0024509D01*
X0007506Y0024509D02*
X0007536Y0024507D01*
X0007566Y0024502D01*
X0007595Y0024493D01*
X0007622Y0024480D01*
X0007648Y0024465D01*
X0007672Y0024446D01*
X0007693Y0024425D01*
X0007712Y0024401D01*
X0007727Y0024375D01*
X0007740Y0024348D01*
X0007749Y0024319D01*
X0007754Y0024289D01*
X0007756Y0024259D01*
X0007754Y0024229D01*
X0007749Y0024199D01*
X0007740Y0024170D01*
X0007727Y0024143D01*
X0007712Y0024117D01*
X0007693Y0024093D01*
X0007672Y0024072D01*
X0007648Y0024053D01*
X0007622Y0024038D01*
X0007595Y0024025D01*
X0007566Y0024016D01*
X0007536Y0024011D01*
X0007506Y0024009D01*
X0008999Y0023609D02*
X0009299Y0024509D01*
X0009599Y0023609D01*
X0009524Y0023834D02*
X0009074Y0023834D01*
X0009979Y0023609D02*
X0009979Y0024509D01*
X0010479Y0023609D01*
X0010479Y0024509D01*
X0007506Y0025509D02*
X0007536Y0025511D01*
X0007566Y0025516D01*
X0007595Y0025525D01*
X0007622Y0025538D01*
X0007648Y0025553D01*
X0007672Y0025572D01*
X0007693Y0025593D01*
X0007712Y0025617D01*
X0007727Y0025643D01*
X0007740Y0025670D01*
X0007749Y0025699D01*
X0007754Y0025729D01*
X0007756Y0025759D01*
X0007754Y0025789D01*
X0007749Y0025819D01*
X0007740Y0025848D01*
X0007727Y0025875D01*
X0007712Y0025901D01*
X0007693Y0025925D01*
X0007672Y0025946D01*
X0007648Y0025965D01*
X0007622Y0025980D01*
X0007595Y0025993D01*
X0007566Y0026002D01*
X0007536Y0026007D01*
X0007506Y0026009D01*
D12*
X0017878Y0016461D02*
X0017878Y0013139D01*
X0017880Y0013069D01*
X0017886Y0012998D01*
X0017895Y0012929D01*
X0017909Y0012860D01*
X0017926Y0012791D01*
X0017947Y0012724D01*
X0017972Y0012658D01*
X0018000Y0012594D01*
X0018032Y0012531D01*
X0018067Y0012470D01*
X0018106Y0012411D01*
X0018147Y0012354D01*
X0018192Y0012300D01*
X0018240Y0012248D01*
X0018290Y0012199D01*
X0018344Y0012152D01*
X0018399Y0012109D01*
X0018457Y0012069D01*
X0018517Y0012032D01*
X0018579Y0011999D01*
X0018643Y0011969D01*
X0018708Y0011942D01*
X0018774Y0011919D01*
X0018842Y0011900D01*
X0018911Y0011885D01*
X0018980Y0011873D01*
X0019050Y0011865D01*
X0019121Y0011861D01*
X0019191Y0011861D01*
X0019262Y0011865D01*
X0019332Y0011873D01*
X0019401Y0011885D01*
X0019470Y0011900D01*
X0019538Y0011919D01*
X0019604Y0011942D01*
X0019669Y0011969D01*
X0019733Y0011999D01*
X0019795Y0012032D01*
X0019855Y0012069D01*
X0019913Y0012109D01*
X0019968Y0012152D01*
X0020022Y0012199D01*
X0020072Y0012248D01*
X0020120Y0012300D01*
X0020165Y0012354D01*
X0020206Y0012411D01*
X0020245Y0012470D01*
X0020280Y0012531D01*
X0020312Y0012594D01*
X0020340Y0012658D01*
X0020365Y0012724D01*
X0020386Y0012791D01*
X0020403Y0012860D01*
X0020417Y0012929D01*
X0020426Y0012998D01*
X0020432Y0013069D01*
X0020434Y0013139D01*
X0020434Y0016461D01*
X0022867Y0014545D02*
X0023506Y0014161D01*
X0024145Y0013778D01*
X0024528Y0015695D02*
X0024453Y0015738D01*
X0024377Y0015777D01*
X0024299Y0015814D01*
X0024220Y0015846D01*
X0024139Y0015876D01*
X0024057Y0015902D01*
X0023974Y0015924D01*
X0023890Y0015943D01*
X0023806Y0015959D01*
X0023721Y0015970D01*
X0023635Y0015978D01*
X0023550Y0015983D01*
X0023464Y0015984D01*
X0023378Y0015981D01*
X0023292Y0015975D01*
X0023207Y0015965D01*
X0023122Y0015951D01*
X0023506Y0016461D02*
X0023506Y0011861D01*
X0023889Y0012372D02*
X0023942Y0012384D01*
X0023994Y0012399D01*
X0024045Y0012419D01*
X0024094Y0012441D01*
X0024142Y0012467D01*
X0024188Y0012497D01*
X0024231Y0012529D01*
X0024272Y0012565D01*
X0024311Y0012603D01*
X0024346Y0012644D01*
X0024379Y0012688D01*
X0024408Y0012733D01*
X0024434Y0012781D01*
X0024457Y0012831D01*
X0024476Y0012881D01*
X0024491Y0012933D01*
X0024503Y0012987D01*
X0024510Y0013040D01*
X0024514Y0013094D01*
X0024515Y0013149D01*
X0024511Y0013203D01*
X0024503Y0013257D01*
X0024492Y0013310D01*
X0024477Y0013362D01*
X0024458Y0013413D01*
X0024435Y0013462D01*
X0024410Y0013510D01*
X0024380Y0013556D01*
X0024348Y0013599D01*
X0024313Y0013641D01*
X0024274Y0013679D01*
X0024233Y0013715D01*
X0024190Y0013748D01*
X0024145Y0013777D01*
X0023889Y0012372D02*
X0023804Y0012358D01*
X0023719Y0012348D01*
X0023633Y0012342D01*
X0023547Y0012339D01*
X0023461Y0012340D01*
X0023376Y0012345D01*
X0023290Y0012353D01*
X0023205Y0012364D01*
X0023121Y0012380D01*
X0023037Y0012399D01*
X0022954Y0012421D01*
X0022872Y0012447D01*
X0022791Y0012477D01*
X0022712Y0012509D01*
X0022634Y0012546D01*
X0022558Y0012585D01*
X0022483Y0012628D01*
X0022867Y0014545D02*
X0022822Y0014574D01*
X0022779Y0014607D01*
X0022738Y0014643D01*
X0022699Y0014681D01*
X0022664Y0014723D01*
X0022632Y0014766D01*
X0022602Y0014812D01*
X0022577Y0014860D01*
X0022554Y0014909D01*
X0022535Y0014960D01*
X0022520Y0015012D01*
X0022509Y0015065D01*
X0022501Y0015119D01*
X0022497Y0015173D01*
X0022498Y0015228D01*
X0022502Y0015282D01*
X0022509Y0015335D01*
X0022521Y0015389D01*
X0022536Y0015441D01*
X0022555Y0015491D01*
X0022578Y0015541D01*
X0022604Y0015589D01*
X0022633Y0015634D01*
X0022666Y0015678D01*
X0022701Y0015719D01*
X0022740Y0015757D01*
X0022781Y0015793D01*
X0022824Y0015825D01*
X0022870Y0015855D01*
X0022918Y0015881D01*
X0022967Y0015903D01*
X0023018Y0015923D01*
X0023070Y0015938D01*
X0023123Y0015950D01*
X0026428Y0015439D02*
X0027706Y0016461D01*
X0027706Y0011861D01*
X0028983Y0011861D02*
X0026428Y0011861D01*
M02*
