M48
;GenerationSoftware,Autodesk,EAGLE,8.6.0*%
;CreationDate,2018-04-20T14:47:39Z*%
FMAT,2
ICI,OFF
METRIC,TZ,000.000
T5C0.350
T4C0.400
T3C1.000
T2C1.016
T1C1.600
%
G90
M71
T1
X-12300Y35500
X-27400Y25700
X-2400Y37500
X15100Y34500
X32000Y20000
X36000Y12000
T2
X14630Y31010
X17170Y31010
X14630Y28470
X17170Y28470
X14630Y25930
X17170Y25930
X14630Y23390
X17170Y23390
X31727Y-5588
X31727Y-8128
X31727Y-10668
X31727Y-13208
T3
X20470Y-16790
X20470Y-9290
X6070Y-28940
X6070Y-21440
T4
X21100Y5000
T5
X-17100Y-11300
X-16000Y-11300
X-18200Y-12400
X-17100Y-12400
X-16000Y-12400
X-14900Y-12400
X-13800Y-12400
X-12700Y-12400
X-18200Y-13600
X-17100Y-13600
X-16000Y-13600
X-14900Y-13600
X-13800Y-13600
X-12700Y-13600
X-17100Y-14700
X-16000Y-14700
X-14900Y-14700
X-13800Y-14700
X-12700Y-14700
X-11600Y-14700
X-17100Y-15900
X-16000Y-15900
X-14900Y-15900
X-13800Y-15900
X-12700Y-15900
X-11600Y-15900
X-15400Y-23900
X-15400Y-22800
X-15400Y-21700
X-15400Y-20600
X-15400Y-19500
X-16600Y-23900
X-16600Y-22800
X-16600Y-21700
X-16600Y-20600
X-16600Y-19500
X-6200Y-32600
X-6200Y-31500
X-6200Y-30400
X-6200Y-29300
X-6200Y-28200
X-5000Y-32600
X-5000Y-31500
X-5000Y-30400
X-5000Y-29300
X-5000Y-28200
X32200Y9500
X-21800Y-3700
X27000Y8100
X17100Y0
X18900Y0
X21500Y0
X26800Y0
X31700Y0
X33900Y0
X-19100Y23600
X12400Y25700
X20000Y8200
X-30200Y1700
X-26200Y-23700
X-14000Y-26000
X2500Y-26100
X-34800Y-9900
X-34600Y-11000
X-33400Y-13500
X-32300Y-13600
X-31400Y-13000
X-31400Y-12000
X-31700Y-11000
X-12500Y-17600
X-11500Y-17600
X-10500Y-17600
X-9500Y-17900
X-8700Y-18600
X-8000Y-19300
X-22500Y-15500
X-21600Y-15900
X-20800Y-16500
X-20200Y-17300
X-21300Y-17400
X-22300Y-16600
X-22400Y-17700
X-21700Y-18500
X-2800Y-25000
X-2000Y-24200
X-1700Y-25100
X-900Y-24200
X-500Y-25100
X200Y-24200
X700Y-25100
X1300Y-24200
X1800Y-25100
X2400Y-24200
X3000Y-25100
X3600Y-24200
X-22100Y-26900
X4100Y-25100
X4200Y-27000
X2800Y-27100
X-16700Y-29800
X-100Y28120
X1970Y29200
X2910Y27770
X4240Y28640
X-1420Y30580
X-5850Y37200
X-16540Y30040
X-9660Y30970
X-12530Y23630
X-19870Y15230
X-30270Y19830
X9950Y28210
X29160Y22370
X27200Y25440
X18410Y17950
X-2591Y19812
X-29100Y3800
X-24300Y6600
X-21700Y6900
X-3700Y25400
X-3900Y21400
X-1700Y27640
X18100Y16200
X19400Y22800
X-21500Y-7800
X26700Y5400
X1400Y22600
X-3800Y29700
X-20500Y24500
X10100Y17900
X15400Y13600
X18100Y13000
X11200Y17900
X14100Y14900
X15300Y16000
X5000Y20600
X15400Y15000
X4400Y19700
X3100Y20000
X21000Y6100
X-18200Y-11300
X2100Y20300
X11800Y15100
X20800Y3000
X1100Y20100
X11500Y14100
X17300Y5600
X-4900Y21500
X-5900Y21000
X4700Y26600
X19000Y24600
X-4200Y31000
X3200Y31700
X5100Y29800
X13500Y17900
X19200Y8900
X14500Y17900
X18300Y9400
X15900Y18000
X17700Y10300
X9200Y21000
X-11200Y19300
X6000Y21000
X-12400Y19800
X5700Y22500
X-10100Y22500
X5700Y23600
X21000Y18000
X25700Y17500
X22200Y19100
X27300Y18300
X-26900Y20300
X-25900Y22800
X-19200Y-2300
X-19200Y2400
X18700Y10900
X-12500Y-23400
X-24600Y-9100
X-24600Y-8100
X-19200Y-18300
X-20200Y-18900
X-12000Y-21200
X-8800Y-27600
X-9800Y-28200
X-1600Y-28400
X18300Y11800
X-30100Y-2100
X-29700Y-3000
X-28900Y-2100
X-28100Y-2700
X-28000Y-3700
X-29100Y-3800
X-28300Y-4700
X-27200Y-2100
X-27000Y-3100
X-27000Y-4100
X-27300Y-5100
X-26200Y-4900
X-23200Y-20600
X-22600Y-21600
X-22200Y-20700
X-21500Y-21500
X-21100Y-20600
X-20500Y-21400
X-19700Y-20300
X-19500Y-21300
X-19500Y-22300
X-20000Y-23200
X-20500Y-22400
X-21500Y-22500
X-28700Y1700
X-27600Y1400
X-28600Y700
X-27500Y400
X-28100Y-500
X-29300Y0
X-30000Y700
X-30200Y-500
X-26900Y-400
X-26500Y700
X-26600Y1700
X-10800Y-28200
X-11800Y-28200
X-12800Y-28200
X-13800Y-28200
X-14400Y-29100
X-13300Y-29100
X-12300Y-29100
X-11300Y-29100
X-10300Y-29300
X-9000Y-29200
X-9700Y-30100
X-11000Y-30100
X-12100Y-30100
X-12100Y-31100
X-11100Y-31100
X-9900Y-31100
X-9200Y-32000
X-10500Y-32000
X-9100Y-33000
X23800Y21000
X24700Y19900
X26800Y21100
X-1900Y-30700
X-26200Y-24700
X-26000Y-19000
X24300Y26000
X22700Y25300
X19100Y30800
X-19300Y-11300
X-20400Y-11300
X-21500Y-11300
X-16000Y-10100
X-17100Y-10100
X-18200Y-10100
X-19300Y-10100
X-20400Y-10100
X-21500Y-10100
X-16000Y-9000
X-17100Y-9000
X-18200Y-9000
X-19300Y-9000
X-20400Y-9000
X-21500Y-9000
X-14900Y-11300
X-16000Y-7800
X-17100Y-7800
X-18200Y-7800
X-19300Y-7800
X-20400Y-7800
X11700Y26800
M30