G04 EAGLE Gerber X2 export*
%TF.Part,Single*%
%TF.FileFunction,Copper,L2,Inr,Mixed*%
%TF.FilePolarity,Positive*%
%TF.GenerationSoftware,Autodesk,EAGLE,8.6.0*%
%TF.CreationDate,2018-04-19T17:15:12Z*%
G75*
%MOMM*%
%FSLAX34Y34*%
%LPD*%
%AMOC8*
5,1,8,0,0,1.08239X$1,22.5*%
G01*
%ADD10C,1.508000*%
%ADD11C,1.524000*%
%ADD12C,0.756400*%
%ADD13C,0.254000*%
%ADD14C,0.152400*%
%ADD15C,0.806400*%

G36*
X37609Y-382231D02*
X37609Y-382231D01*
X37635Y-382225D01*
X37683Y-382223D01*
X74893Y-376704D01*
X74918Y-376696D01*
X74966Y-376689D01*
X111456Y-367549D01*
X111480Y-367539D01*
X111527Y-367527D01*
X146945Y-354855D01*
X146968Y-354842D01*
X147014Y-354826D01*
X181019Y-338743D01*
X181041Y-338728D01*
X181085Y-338707D01*
X213350Y-319369D01*
X213371Y-319351D01*
X213412Y-319327D01*
X243627Y-296919D01*
X243645Y-296900D01*
X243684Y-296871D01*
X271557Y-271609D01*
X271573Y-271589D01*
X271609Y-271557D01*
X296871Y-243684D01*
X296886Y-243662D01*
X296919Y-243627D01*
X319327Y-213412D01*
X319339Y-213389D01*
X319369Y-213350D01*
X338707Y-181085D01*
X338717Y-181061D01*
X338743Y-181019D01*
X354826Y-147014D01*
X354833Y-146989D01*
X354855Y-146945D01*
X367527Y-111527D01*
X367532Y-111501D01*
X367549Y-111456D01*
X376689Y-74966D01*
X376691Y-74940D01*
X376704Y-74893D01*
X382223Y-37683D01*
X382223Y-37657D01*
X382231Y-37609D01*
X384076Y-37D01*
X384073Y-11D01*
X384076Y37D01*
X382231Y37609D01*
X382225Y37635D01*
X382223Y37683D01*
X376704Y74893D01*
X376696Y74918D01*
X376689Y74966D01*
X369576Y103364D01*
X369560Y103402D01*
X369559Y103403D01*
X369559Y103404D01*
X369546Y103434D01*
X369525Y103507D01*
X369497Y103546D01*
X369478Y103590D01*
X369428Y103647D01*
X369384Y103709D01*
X369346Y103738D01*
X369314Y103773D01*
X369248Y103810D01*
X369187Y103856D01*
X369141Y103871D01*
X369100Y103894D01*
X369025Y103908D01*
X368953Y103932D01*
X368905Y103931D01*
X368858Y103940D01*
X368783Y103930D01*
X368707Y103930D01*
X368645Y103912D01*
X368614Y103907D01*
X368591Y103896D01*
X368546Y103883D01*
X363612Y101839D01*
X356388Y101839D01*
X349713Y104604D01*
X344604Y109713D01*
X341839Y116388D01*
X341839Y123612D01*
X344604Y130287D01*
X349713Y135396D01*
X356388Y138161D01*
X356917Y138161D01*
X356944Y138165D01*
X356971Y138163D01*
X357065Y138185D01*
X357160Y138200D01*
X357184Y138213D01*
X357210Y138219D01*
X357292Y138271D01*
X357377Y138316D01*
X357396Y138335D01*
X357419Y138350D01*
X357480Y138424D01*
X357546Y138494D01*
X357558Y138519D01*
X357575Y138540D01*
X357609Y138630D01*
X357650Y138717D01*
X357653Y138744D01*
X357663Y138769D01*
X357666Y138866D01*
X357677Y138961D01*
X357671Y138988D01*
X357672Y139015D01*
X357634Y139178D01*
X354855Y146945D01*
X354842Y146968D01*
X354826Y147014D01*
X338743Y181019D01*
X338728Y181041D01*
X338707Y181085D01*
X334735Y187713D01*
X334662Y187800D01*
X334591Y187888D01*
X334583Y187893D01*
X334576Y187901D01*
X334480Y187959D01*
X334385Y188021D01*
X334374Y188023D01*
X334365Y188029D01*
X334255Y188053D01*
X334146Y188081D01*
X334136Y188080D01*
X334125Y188082D01*
X334013Y188070D01*
X333901Y188061D01*
X333891Y188057D01*
X333881Y188056D01*
X333778Y188009D01*
X333674Y187965D01*
X333665Y187957D01*
X333657Y187954D01*
X333639Y187936D01*
X333544Y187860D01*
X330287Y184604D01*
X323612Y181839D01*
X316388Y181839D01*
X309713Y184604D01*
X304604Y189713D01*
X301839Y196388D01*
X301839Y203612D01*
X304604Y210287D01*
X309713Y215396D01*
X315041Y217603D01*
X315137Y217662D01*
X315234Y217719D01*
X315241Y217727D01*
X315250Y217733D01*
X315322Y217819D01*
X315396Y217904D01*
X315400Y217914D01*
X315407Y217922D01*
X315447Y218027D01*
X315491Y218131D01*
X315491Y218142D01*
X315495Y218152D01*
X315500Y218264D01*
X315508Y218377D01*
X315505Y218387D01*
X315506Y218397D01*
X315474Y218506D01*
X315446Y218615D01*
X315439Y218626D01*
X315437Y218634D01*
X315423Y218654D01*
X315361Y218760D01*
X296919Y243627D01*
X296900Y243645D01*
X296871Y243684D01*
X271609Y271557D01*
X271589Y271573D01*
X271557Y271609D01*
X243684Y296871D01*
X243662Y296886D01*
X243627Y296919D01*
X213412Y319327D01*
X213389Y319339D01*
X213350Y319369D01*
X181085Y338707D01*
X181061Y338717D01*
X181019Y338743D01*
X170247Y343837D01*
X170185Y343855D01*
X170127Y343882D01*
X170068Y343889D01*
X170011Y343905D01*
X169947Y343902D01*
X169883Y343910D01*
X169825Y343897D01*
X169765Y343894D01*
X169705Y343871D01*
X169642Y343857D01*
X169591Y343827D01*
X169536Y343805D01*
X169486Y343764D01*
X169431Y343731D01*
X169393Y343686D01*
X169347Y343648D01*
X169313Y343593D01*
X169271Y343544D01*
X169249Y343489D01*
X169218Y343439D01*
X169203Y343376D01*
X169179Y343316D01*
X169170Y343231D01*
X169162Y343199D01*
X169164Y343180D01*
X169161Y343149D01*
X169161Y341388D01*
X166396Y334713D01*
X161287Y329604D01*
X154612Y326839D01*
X147388Y326839D01*
X140713Y329604D01*
X135604Y334713D01*
X132839Y341388D01*
X132839Y348612D01*
X135604Y355287D01*
X137424Y357107D01*
X137462Y357159D01*
X137507Y357205D01*
X137533Y357259D01*
X137567Y357307D01*
X137586Y357368D01*
X137615Y357426D01*
X137622Y357485D01*
X137640Y357542D01*
X137638Y357606D01*
X137647Y357670D01*
X137635Y357729D01*
X137633Y357788D01*
X137611Y357849D01*
X137599Y357912D01*
X137569Y357963D01*
X137549Y358019D01*
X137509Y358069D01*
X137477Y358125D01*
X137432Y358165D01*
X137395Y358211D01*
X137341Y358246D01*
X137293Y358289D01*
X137216Y358326D01*
X137188Y358344D01*
X137170Y358348D01*
X137142Y358362D01*
X111527Y367527D01*
X111501Y367532D01*
X111456Y367549D01*
X74966Y376689D01*
X74940Y376691D01*
X74893Y376704D01*
X37683Y382223D01*
X37657Y382223D01*
X37609Y382231D01*
X37Y384076D01*
X11Y384073D01*
X-37Y384076D01*
X-6862Y383741D01*
X-6889Y383735D01*
X-6916Y383737D01*
X-7009Y383710D01*
X-7103Y383689D01*
X-7126Y383676D01*
X-7152Y383668D01*
X-7231Y383613D01*
X-7314Y383564D01*
X-7332Y383543D01*
X-7354Y383528D01*
X-7412Y383450D01*
X-7474Y383377D01*
X-7485Y383352D01*
X-7501Y383330D01*
X-7531Y383239D01*
X-7567Y383150D01*
X-7569Y383122D01*
X-7577Y383096D01*
X-7576Y383000D01*
X-7582Y382904D01*
X-7575Y382878D01*
X-7575Y382851D01*
X-7528Y382689D01*
X-5839Y378612D01*
X-5839Y371388D01*
X-8604Y364713D01*
X-13713Y359604D01*
X-20388Y356839D01*
X-27612Y356839D01*
X-34287Y359604D01*
X-39396Y364713D01*
X-42161Y371388D01*
X-42161Y378612D01*
X-41375Y380510D01*
X-41351Y380609D01*
X-41323Y380707D01*
X-41323Y380729D01*
X-41318Y380750D01*
X-41328Y380851D01*
X-41332Y380952D01*
X-41339Y380973D01*
X-41341Y380995D01*
X-41383Y381087D01*
X-41419Y381182D01*
X-41433Y381199D01*
X-41441Y381220D01*
X-41510Y381294D01*
X-41574Y381373D01*
X-41593Y381384D01*
X-41608Y381401D01*
X-41697Y381450D01*
X-41783Y381504D01*
X-41804Y381509D01*
X-41823Y381519D01*
X-41923Y381537D01*
X-42022Y381561D01*
X-42049Y381560D01*
X-42065Y381563D01*
X-42098Y381558D01*
X-42190Y381555D01*
X-60620Y378821D01*
X-60684Y378800D01*
X-60751Y378789D01*
X-60800Y378763D01*
X-60854Y378746D01*
X-60908Y378706D01*
X-60921Y378709D01*
X-61037Y378738D01*
X-61041Y378738D01*
X-61046Y378739D01*
X-61213Y378733D01*
X-74893Y376704D01*
X-74918Y376696D01*
X-74966Y376689D01*
X-108881Y368194D01*
X-108974Y368154D01*
X-109069Y368119D01*
X-109086Y368105D01*
X-109107Y368096D01*
X-109182Y368029D01*
X-109261Y367965D01*
X-109273Y367947D01*
X-109290Y367932D01*
X-109339Y367844D01*
X-109394Y367758D01*
X-109400Y367737D01*
X-109410Y367718D01*
X-109430Y367618D01*
X-109454Y367520D01*
X-109453Y367498D01*
X-109457Y367476D01*
X-109443Y367376D01*
X-109435Y367275D01*
X-109427Y367254D01*
X-109424Y367233D01*
X-109379Y367142D01*
X-109339Y367048D01*
X-109322Y367027D01*
X-109315Y367012D01*
X-109292Y366989D01*
X-109234Y366917D01*
X-107604Y365287D01*
X-104839Y358612D01*
X-104839Y351388D01*
X-107604Y344713D01*
X-112713Y339604D01*
X-119388Y336839D01*
X-126612Y336839D01*
X-133287Y339604D01*
X-138396Y344713D01*
X-141161Y351388D01*
X-141161Y355843D01*
X-141165Y355870D01*
X-141163Y355897D01*
X-141185Y355991D01*
X-141200Y356086D01*
X-141213Y356110D01*
X-141219Y356137D01*
X-141271Y356219D01*
X-141316Y356304D01*
X-141335Y356322D01*
X-141350Y356345D01*
X-141424Y356407D01*
X-141494Y356473D01*
X-141519Y356484D01*
X-141540Y356502D01*
X-141630Y356536D01*
X-141717Y356577D01*
X-141744Y356580D01*
X-141769Y356589D01*
X-141866Y356593D01*
X-141961Y356604D01*
X-141988Y356598D01*
X-142015Y356599D01*
X-142178Y356560D01*
X-146945Y354855D01*
X-146968Y354842D01*
X-147014Y354826D01*
X-181019Y338743D01*
X-181041Y338728D01*
X-181085Y338707D01*
X-213350Y319369D01*
X-213371Y319351D01*
X-213412Y319327D01*
X-243627Y296919D01*
X-243645Y296900D01*
X-243684Y296871D01*
X-267610Y275186D01*
X-267650Y275136D01*
X-267698Y275092D01*
X-267726Y275040D01*
X-267763Y274994D01*
X-267785Y274933D01*
X-267816Y274877D01*
X-267827Y274818D01*
X-267847Y274763D01*
X-267848Y274698D01*
X-267860Y274635D01*
X-267851Y274576D01*
X-267853Y274517D01*
X-267833Y274455D01*
X-267824Y274391D01*
X-267797Y274339D01*
X-267780Y274282D01*
X-267742Y274230D01*
X-267713Y274172D01*
X-267670Y274131D01*
X-267636Y274083D01*
X-267583Y274045D01*
X-267537Y274000D01*
X-267462Y273959D01*
X-267435Y273940D01*
X-267418Y273934D01*
X-267390Y273919D01*
X-263713Y272396D01*
X-258604Y267287D01*
X-255839Y260612D01*
X-255839Y253388D01*
X-258604Y246713D01*
X-263713Y241604D01*
X-270388Y238839D01*
X-277612Y238839D01*
X-284287Y241604D01*
X-289396Y246713D01*
X-290420Y249184D01*
X-290454Y249239D01*
X-290479Y249299D01*
X-290518Y249343D01*
X-290549Y249393D01*
X-290599Y249435D01*
X-290642Y249483D01*
X-290693Y249512D01*
X-290739Y249550D01*
X-290799Y249573D01*
X-290855Y249606D01*
X-290913Y249617D01*
X-290968Y249638D01*
X-291033Y249641D01*
X-291096Y249654D01*
X-291155Y249646D01*
X-291214Y249649D01*
X-291276Y249631D01*
X-291340Y249623D01*
X-291394Y249597D01*
X-291450Y249580D01*
X-291503Y249544D01*
X-291561Y249515D01*
X-291625Y249459D01*
X-291652Y249440D01*
X-291664Y249425D01*
X-291687Y249404D01*
X-296871Y243684D01*
X-296886Y243662D01*
X-296919Y243627D01*
X-319327Y213412D01*
X-319334Y213399D01*
X-319345Y213387D01*
X-319352Y213372D01*
X-319369Y213350D01*
X-338707Y181085D01*
X-338717Y181061D01*
X-338743Y181019D01*
X-354826Y147014D01*
X-354833Y146989D01*
X-354855Y146945D01*
X-367527Y111527D01*
X-367532Y111501D01*
X-367549Y111456D01*
X-376689Y74966D01*
X-376691Y74940D01*
X-376704Y74893D01*
X-381411Y43160D01*
X-381410Y43084D01*
X-381418Y43009D01*
X-381408Y42962D01*
X-381407Y42914D01*
X-381382Y42842D01*
X-381366Y42768D01*
X-381341Y42727D01*
X-381325Y42682D01*
X-381279Y42622D01*
X-381240Y42557D01*
X-381203Y42526D01*
X-381174Y42488D01*
X-381110Y42446D01*
X-381053Y42397D01*
X-381008Y42379D01*
X-380968Y42353D01*
X-380895Y42334D01*
X-380825Y42305D01*
X-380760Y42298D01*
X-380730Y42290D01*
X-380705Y42292D01*
X-380658Y42287D01*
X-294533Y42287D01*
X-294443Y42301D01*
X-294352Y42309D01*
X-294323Y42321D01*
X-294291Y42326D01*
X-294210Y42369D01*
X-294126Y42405D01*
X-294094Y42431D01*
X-294073Y42442D01*
X-294051Y42465D01*
X-293995Y42510D01*
X-293198Y43307D01*
X-288802Y43307D01*
X-288005Y42510D01*
X-287931Y42457D01*
X-287861Y42397D01*
X-287831Y42385D01*
X-287805Y42366D01*
X-287718Y42339D01*
X-287633Y42305D01*
X-287592Y42301D01*
X-287570Y42294D01*
X-287538Y42295D01*
X-287467Y42287D01*
X-261053Y42287D01*
X-239713Y20947D01*
X-239713Y-4947D01*
X-246053Y-11287D01*
X-316737Y-11287D01*
X-316827Y-11301D01*
X-316918Y-11309D01*
X-316948Y-11321D01*
X-316980Y-11326D01*
X-317061Y-11369D01*
X-317145Y-11405D01*
X-317177Y-11431D01*
X-317198Y-11442D01*
X-317220Y-11465D01*
X-317276Y-11510D01*
X-318180Y-12414D01*
X-318222Y-12472D01*
X-318271Y-12524D01*
X-318293Y-12571D01*
X-318323Y-12613D01*
X-318344Y-12682D01*
X-318375Y-12747D01*
X-318380Y-12799D01*
X-318396Y-12849D01*
X-318394Y-12920D01*
X-318402Y-12991D01*
X-318391Y-13042D01*
X-318389Y-13094D01*
X-318365Y-13162D01*
X-318350Y-13232D01*
X-318323Y-13277D01*
X-318305Y-13325D01*
X-318260Y-13381D01*
X-318223Y-13443D01*
X-318184Y-13477D01*
X-318151Y-13517D01*
X-318091Y-13556D01*
X-318036Y-13603D01*
X-317988Y-13622D01*
X-317944Y-13650D01*
X-317875Y-13668D01*
X-317808Y-13695D01*
X-317737Y-13703D01*
X-317706Y-13711D01*
X-317682Y-13709D01*
X-317642Y-13713D01*
X-248053Y-13713D01*
X-232713Y-29053D01*
X-232713Y-111737D01*
X-232699Y-111828D01*
X-232691Y-111918D01*
X-232679Y-111948D01*
X-232674Y-111980D01*
X-232631Y-112061D01*
X-232595Y-112145D01*
X-232569Y-112177D01*
X-232558Y-112198D01*
X-232535Y-112220D01*
X-232490Y-112276D01*
X-178713Y-166053D01*
X-178713Y-240947D01*
X-183735Y-245969D01*
X-183770Y-246017D01*
X-183812Y-246059D01*
X-183841Y-246117D01*
X-183878Y-246168D01*
X-183896Y-246225D01*
X-183923Y-246279D01*
X-183932Y-246342D01*
X-183951Y-246403D01*
X-183949Y-246463D01*
X-183958Y-246523D01*
X-183946Y-246585D01*
X-183944Y-246649D01*
X-183924Y-246706D01*
X-183913Y-246764D01*
X-183882Y-246820D01*
X-183860Y-246880D01*
X-183822Y-246927D01*
X-183793Y-246979D01*
X-183746Y-247022D01*
X-183706Y-247072D01*
X-183656Y-247105D01*
X-183611Y-247145D01*
X-183553Y-247171D01*
X-183499Y-247205D01*
X-183441Y-247220D01*
X-183386Y-247244D01*
X-183292Y-247258D01*
X-183261Y-247265D01*
X-183245Y-247264D01*
X-183220Y-247268D01*
X-105003Y-249712D01*
X-104988Y-249710D01*
X-104965Y-249712D01*
X-104027Y-249696D01*
X-103384Y-250380D01*
X-103373Y-250389D01*
X-103358Y-250407D01*
X-75297Y-277500D01*
X-75228Y-277548D01*
X-75164Y-277603D01*
X-75163Y-277603D01*
X-74402Y-278364D01*
X-74398Y-278367D01*
X-74393Y-278373D01*
X-73713Y-279029D01*
X-73713Y-279973D01*
X-73712Y-279978D01*
X-73713Y-279986D01*
X-73694Y-281063D01*
X-73695Y-281065D01*
X-73700Y-281115D01*
X-73708Y-281141D01*
X-73707Y-281171D01*
X-73713Y-281231D01*
X-73713Y-376222D01*
X-73699Y-376308D01*
X-73693Y-376395D01*
X-73679Y-376429D01*
X-73674Y-376465D01*
X-73633Y-376542D01*
X-73600Y-376622D01*
X-73575Y-376650D01*
X-73558Y-376682D01*
X-73495Y-376742D01*
X-73438Y-376808D01*
X-73407Y-376826D01*
X-73380Y-376852D01*
X-73301Y-376888D01*
X-73226Y-376932D01*
X-73180Y-376944D01*
X-73157Y-376955D01*
X-73126Y-376959D01*
X-73064Y-376975D01*
X-37683Y-382223D01*
X-37657Y-382223D01*
X-37609Y-382231D01*
X-37Y-384076D01*
X-11Y-384073D01*
X37Y-384076D01*
X37609Y-382231D01*
G37*
%LPC*%
G36*
X-25173Y-158939D02*
X-25173Y-158939D01*
X-49727Y-153044D01*
X-73056Y-143381D01*
X-73888Y-142871D01*
X-75130Y-142110D01*
X-82584Y-137543D01*
X-83826Y-136781D01*
X-85068Y-136020D01*
X-86310Y-135259D01*
X-86311Y-135259D01*
X-87553Y-134498D01*
X-94587Y-130187D01*
X-113788Y-113788D01*
X-130187Y-94587D01*
X-143381Y-73057D01*
X-153044Y-49727D01*
X-158939Y-25174D01*
X-160920Y0D01*
X-158939Y25174D01*
X-153044Y49727D01*
X-143381Y73057D01*
X-130187Y94587D01*
X-113788Y113788D01*
X-94587Y130187D01*
X-73057Y143381D01*
X-49727Y153044D01*
X-25174Y158939D01*
X0Y160920D01*
X25174Y158939D01*
X49727Y153044D01*
X73057Y143381D01*
X76459Y141296D01*
X76460Y141296D01*
X77702Y140534D01*
X78944Y139773D01*
X85155Y135967D01*
X86397Y135206D01*
X87640Y134444D01*
X92609Y131399D01*
X93851Y130638D01*
X94587Y130187D01*
X113788Y113788D01*
X130187Y94587D01*
X143381Y73057D01*
X153044Y49727D01*
X158939Y25174D01*
X160920Y0D01*
X158939Y-25174D01*
X153044Y-49727D01*
X143381Y-73057D01*
X130187Y-94587D01*
X113788Y-113788D01*
X94587Y-130187D01*
X73057Y-143381D01*
X49727Y-153044D01*
X25173Y-158939D01*
X0Y-160920D01*
X-25173Y-158939D01*
G37*
%LPD*%
G36*
X-75950Y-376403D02*
X-75950Y-376403D01*
X-75940Y-376404D01*
X-75831Y-376377D01*
X-75720Y-376353D01*
X-75711Y-376348D01*
X-75701Y-376345D01*
X-75606Y-376285D01*
X-75509Y-376227D01*
X-75502Y-376219D01*
X-75493Y-376214D01*
X-75422Y-376126D01*
X-75349Y-376040D01*
X-75345Y-376031D01*
X-75339Y-376022D01*
X-75300Y-375917D01*
X-75257Y-375812D01*
X-75256Y-375800D01*
X-75253Y-375792D01*
X-75252Y-375767D01*
X-75239Y-375645D01*
X-75239Y-280000D01*
X-75255Y-279903D01*
X-75264Y-279806D01*
X-75274Y-279783D01*
X-75279Y-279757D01*
X-75324Y-279671D01*
X-75364Y-279581D01*
X-75385Y-279557D01*
X-75394Y-279540D01*
X-75417Y-279517D01*
X-75471Y-279452D01*
X-81403Y-273725D01*
X-81457Y-273688D01*
X-81504Y-273643D01*
X-81557Y-273618D01*
X-81605Y-273585D01*
X-81668Y-273567D01*
X-81727Y-273539D01*
X-81785Y-273533D01*
X-81842Y-273517D01*
X-81907Y-273519D01*
X-81971Y-273512D01*
X-82029Y-273525D01*
X-82088Y-273527D01*
X-82148Y-273551D01*
X-82212Y-273565D01*
X-82262Y-273595D01*
X-82317Y-273616D01*
X-82367Y-273657D01*
X-82423Y-273691D01*
X-82461Y-273735D01*
X-82506Y-273773D01*
X-82540Y-273828D01*
X-82583Y-273878D01*
X-82605Y-273932D01*
X-82636Y-273982D01*
X-82650Y-274045D01*
X-82675Y-274106D01*
X-82684Y-274190D01*
X-82692Y-274222D01*
X-82690Y-274241D01*
X-82693Y-274273D01*
X-82693Y-278198D01*
X-85802Y-281307D01*
X-90198Y-281307D01*
X-91394Y-280111D01*
X-91452Y-280069D01*
X-91504Y-280020D01*
X-91551Y-279998D01*
X-91593Y-279968D01*
X-91662Y-279946D01*
X-91727Y-279916D01*
X-91779Y-279911D01*
X-91829Y-279895D01*
X-91900Y-279897D01*
X-91971Y-279889D01*
X-92022Y-279900D01*
X-92074Y-279902D01*
X-92142Y-279926D01*
X-92212Y-279941D01*
X-92257Y-279968D01*
X-92305Y-279986D01*
X-92361Y-280031D01*
X-92423Y-280068D01*
X-92457Y-280107D01*
X-92497Y-280140D01*
X-92536Y-280200D01*
X-92583Y-280255D01*
X-92602Y-280303D01*
X-92630Y-280347D01*
X-92648Y-280416D01*
X-92675Y-280483D01*
X-92683Y-280554D01*
X-92691Y-280585D01*
X-92689Y-280608D01*
X-92693Y-280649D01*
X-92693Y-284198D01*
X-95802Y-287307D01*
X-100198Y-287307D01*
X-103307Y-284198D01*
X-103307Y-279802D01*
X-100198Y-276693D01*
X-95802Y-276693D01*
X-94606Y-277889D01*
X-94548Y-277931D01*
X-94496Y-277980D01*
X-94449Y-278002D01*
X-94407Y-278032D01*
X-94338Y-278054D01*
X-94273Y-278084D01*
X-94221Y-278089D01*
X-94171Y-278105D01*
X-94100Y-278103D01*
X-94029Y-278111D01*
X-93978Y-278100D01*
X-93926Y-278098D01*
X-93858Y-278074D01*
X-93788Y-278059D01*
X-93743Y-278032D01*
X-93695Y-278014D01*
X-93639Y-277969D01*
X-93577Y-277932D01*
X-93543Y-277893D01*
X-93503Y-277860D01*
X-93464Y-277800D01*
X-93417Y-277745D01*
X-93398Y-277697D01*
X-93370Y-277653D01*
X-93352Y-277584D01*
X-93325Y-277517D01*
X-93317Y-277446D01*
X-93309Y-277415D01*
X-93311Y-277392D01*
X-93307Y-277351D01*
X-93307Y-273802D01*
X-90198Y-270693D01*
X-86428Y-270693D01*
X-86350Y-270681D01*
X-86272Y-270677D01*
X-86230Y-270661D01*
X-86185Y-270654D01*
X-86116Y-270617D01*
X-86043Y-270589D01*
X-86007Y-270560D01*
X-85967Y-270538D01*
X-85914Y-270482D01*
X-85853Y-270432D01*
X-85829Y-270393D01*
X-85798Y-270360D01*
X-85765Y-270289D01*
X-85724Y-270222D01*
X-85714Y-270178D01*
X-85694Y-270137D01*
X-85686Y-270059D01*
X-85668Y-269983D01*
X-85672Y-269938D01*
X-85667Y-269893D01*
X-85684Y-269816D01*
X-85691Y-269738D01*
X-85710Y-269697D01*
X-85720Y-269652D01*
X-85760Y-269585D01*
X-85792Y-269513D01*
X-85830Y-269467D01*
X-85846Y-269441D01*
X-85866Y-269423D01*
X-85899Y-269384D01*
X-104471Y-251452D01*
X-104531Y-251411D01*
X-104585Y-251362D01*
X-104632Y-251341D01*
X-104673Y-251312D01*
X-104743Y-251292D01*
X-104810Y-251263D01*
X-104879Y-251253D01*
X-104910Y-251244D01*
X-104934Y-251245D01*
X-104976Y-251239D01*
X-200809Y-248244D01*
X-206549Y-245374D01*
X-256671Y-195252D01*
X-256687Y-195241D01*
X-256700Y-195225D01*
X-256787Y-195169D01*
X-256871Y-195109D01*
X-256890Y-195103D01*
X-256907Y-195092D01*
X-257007Y-195067D01*
X-257106Y-195037D01*
X-257126Y-195037D01*
X-257145Y-195032D01*
X-257248Y-195040D01*
X-257352Y-195043D01*
X-257370Y-195050D01*
X-257390Y-195051D01*
X-257485Y-195092D01*
X-257583Y-195127D01*
X-257598Y-195140D01*
X-257617Y-195148D01*
X-257748Y-195252D01*
X-257802Y-195307D01*
X-262198Y-195307D01*
X-265307Y-192198D01*
X-265307Y-187802D01*
X-265252Y-187748D01*
X-265241Y-187731D01*
X-265225Y-187719D01*
X-265169Y-187632D01*
X-265109Y-187548D01*
X-265103Y-187529D01*
X-265092Y-187512D01*
X-265067Y-187412D01*
X-265037Y-187313D01*
X-265037Y-187293D01*
X-265032Y-187274D01*
X-265040Y-187171D01*
X-265043Y-187067D01*
X-265050Y-187048D01*
X-265051Y-187028D01*
X-265092Y-186933D01*
X-265127Y-186836D01*
X-265140Y-186820D01*
X-265148Y-186802D01*
X-265252Y-186671D01*
X-277374Y-174549D01*
X-281239Y-166820D01*
X-281239Y-156000D01*
X-281254Y-155910D01*
X-281261Y-155819D01*
X-281273Y-155789D01*
X-281279Y-155757D01*
X-281321Y-155677D01*
X-281357Y-155593D01*
X-281383Y-155561D01*
X-281394Y-155540D01*
X-281417Y-155518D01*
X-281462Y-155462D01*
X-294423Y-142500D01*
X-293462Y-141538D01*
X-293409Y-141464D01*
X-293349Y-141395D01*
X-293337Y-141365D01*
X-293318Y-141339D01*
X-293291Y-141252D01*
X-293257Y-141167D01*
X-293253Y-141126D01*
X-293246Y-141103D01*
X-293247Y-141071D01*
X-293239Y-141000D01*
X-293239Y-134000D01*
X-293254Y-133910D01*
X-293261Y-133819D01*
X-293273Y-133789D01*
X-293279Y-133757D01*
X-293321Y-133677D01*
X-293357Y-133593D01*
X-293383Y-133561D01*
X-293394Y-133540D01*
X-293417Y-133518D01*
X-293462Y-133462D01*
X-301239Y-125685D01*
X-301239Y-101315D01*
X-300462Y-100538D01*
X-300409Y-100464D01*
X-300349Y-100395D01*
X-300337Y-100365D01*
X-300318Y-100339D01*
X-300291Y-100252D01*
X-300257Y-100167D01*
X-300253Y-100126D01*
X-300246Y-100103D01*
X-300247Y-100071D01*
X-300239Y-100000D01*
X-300239Y-99000D01*
X-300254Y-98910D01*
X-300261Y-98819D01*
X-300273Y-98789D01*
X-300279Y-98757D01*
X-300321Y-98677D01*
X-300357Y-98593D01*
X-300383Y-98561D01*
X-300394Y-98540D01*
X-300417Y-98518D01*
X-300462Y-98462D01*
X-315239Y-83685D01*
X-315239Y-62000D01*
X-315241Y-61985D01*
X-315240Y-61971D01*
X-315254Y-61907D01*
X-315261Y-61819D01*
X-315273Y-61789D01*
X-315279Y-61757D01*
X-315292Y-61732D01*
X-315292Y-61731D01*
X-315297Y-61722D01*
X-315321Y-61677D01*
X-315357Y-61593D01*
X-315383Y-61561D01*
X-315394Y-61540D01*
X-315417Y-61518D01*
X-315462Y-61462D01*
X-326239Y-50685D01*
X-326239Y-18315D01*
X-317685Y-9761D01*
X-247000Y-9761D01*
X-246910Y-9747D01*
X-246819Y-9739D01*
X-246789Y-9727D01*
X-246757Y-9722D01*
X-246677Y-9679D01*
X-246593Y-9643D01*
X-246561Y-9617D01*
X-246540Y-9606D01*
X-246518Y-9583D01*
X-246462Y-9538D01*
X-241462Y-4538D01*
X-241409Y-4464D01*
X-241349Y-4395D01*
X-241337Y-4365D01*
X-241318Y-4339D01*
X-241291Y-4252D01*
X-241257Y-4167D01*
X-241253Y-4126D01*
X-241246Y-4103D01*
X-241247Y-4071D01*
X-241239Y-4000D01*
X-241239Y20000D01*
X-241254Y20090D01*
X-241261Y20181D01*
X-241273Y20211D01*
X-241279Y20243D01*
X-241321Y20323D01*
X-241357Y20407D01*
X-241383Y20439D01*
X-241394Y20460D01*
X-241417Y20482D01*
X-241462Y20538D01*
X-261462Y40538D01*
X-261536Y40591D01*
X-261605Y40651D01*
X-261635Y40663D01*
X-261661Y40682D01*
X-261748Y40709D01*
X-261833Y40743D01*
X-261874Y40747D01*
X-261897Y40754D01*
X-261929Y40753D01*
X-262000Y40761D01*
X-284932Y40761D01*
X-284952Y40758D01*
X-284971Y40760D01*
X-285073Y40738D01*
X-285175Y40722D01*
X-285192Y40712D01*
X-285212Y40708D01*
X-285301Y40655D01*
X-285392Y40606D01*
X-285406Y40592D01*
X-285423Y40582D01*
X-285490Y40503D01*
X-285562Y40428D01*
X-285570Y40410D01*
X-285583Y40395D01*
X-285622Y40299D01*
X-285665Y40205D01*
X-285667Y40185D01*
X-285675Y40167D01*
X-285693Y40000D01*
X-285693Y35802D01*
X-288802Y32693D01*
X-293198Y32693D01*
X-296307Y35802D01*
X-296307Y40000D01*
X-296310Y40019D01*
X-296308Y40037D01*
X-296308Y40038D01*
X-296308Y40039D01*
X-296330Y40141D01*
X-296346Y40243D01*
X-296356Y40260D01*
X-296360Y40280D01*
X-296413Y40369D01*
X-296462Y40460D01*
X-296476Y40474D01*
X-296486Y40491D01*
X-296565Y40558D01*
X-296640Y40630D01*
X-296658Y40638D01*
X-296673Y40651D01*
X-296769Y40690D01*
X-296863Y40733D01*
X-296883Y40735D01*
X-296901Y40743D01*
X-297068Y40761D01*
X-381110Y40761D01*
X-381196Y40747D01*
X-381283Y40741D01*
X-381317Y40727D01*
X-381353Y40722D01*
X-381430Y40681D01*
X-381510Y40648D01*
X-381538Y40623D01*
X-381570Y40606D01*
X-381630Y40543D01*
X-381696Y40486D01*
X-381714Y40455D01*
X-381740Y40428D01*
X-381776Y40349D01*
X-381820Y40274D01*
X-381832Y40228D01*
X-381843Y40205D01*
X-381843Y40202D01*
X-381844Y40202D01*
X-381847Y40173D01*
X-381863Y40112D01*
X-382223Y37683D01*
X-382223Y37657D01*
X-382231Y37609D01*
X-384076Y37D01*
X-384073Y11D01*
X-384076Y-37D01*
X-382231Y-37609D01*
X-382225Y-37635D01*
X-382223Y-37683D01*
X-376704Y-74893D01*
X-376696Y-74918D01*
X-376689Y-74966D01*
X-367549Y-111456D01*
X-367539Y-111480D01*
X-367527Y-111527D01*
X-354855Y-146945D01*
X-354842Y-146968D01*
X-354826Y-147014D01*
X-338743Y-181019D01*
X-338728Y-181041D01*
X-338707Y-181085D01*
X-319369Y-213350D01*
X-319351Y-213370D01*
X-319327Y-213412D01*
X-296919Y-243627D01*
X-296900Y-243645D01*
X-296877Y-243676D01*
X-296876Y-243679D01*
X-296875Y-243680D01*
X-296871Y-243684D01*
X-271609Y-271557D01*
X-271589Y-271573D01*
X-271557Y-271609D01*
X-243684Y-296871D01*
X-243662Y-296886D01*
X-243627Y-296919D01*
X-213412Y-319327D01*
X-213389Y-319339D01*
X-213350Y-319369D01*
X-181085Y-338707D01*
X-181061Y-338717D01*
X-181019Y-338743D01*
X-147014Y-354826D01*
X-146989Y-354833D01*
X-146945Y-354855D01*
X-111527Y-367527D01*
X-111501Y-367532D01*
X-111456Y-367549D01*
X-76185Y-376384D01*
X-76072Y-376393D01*
X-75961Y-376406D01*
X-75950Y-376403D01*
G37*
G36*
X-185910Y-245747D02*
X-185910Y-245747D01*
X-185819Y-245739D01*
X-185789Y-245727D01*
X-185757Y-245722D01*
X-185677Y-245679D01*
X-185593Y-245643D01*
X-185561Y-245617D01*
X-185540Y-245606D01*
X-185518Y-245583D01*
X-185462Y-245538D01*
X-180462Y-240538D01*
X-180409Y-240464D01*
X-180349Y-240395D01*
X-180337Y-240365D01*
X-180318Y-240339D01*
X-180291Y-240252D01*
X-180257Y-240167D01*
X-180253Y-240126D01*
X-180246Y-240103D01*
X-180247Y-240071D01*
X-180239Y-240000D01*
X-180239Y-167000D01*
X-180254Y-166910D01*
X-180261Y-166819D01*
X-180273Y-166789D01*
X-180279Y-166757D01*
X-180321Y-166677D01*
X-180357Y-166593D01*
X-180383Y-166561D01*
X-180394Y-166540D01*
X-180417Y-166518D01*
X-180462Y-166462D01*
X-234239Y-112685D01*
X-234239Y-30000D01*
X-234254Y-29910D01*
X-234261Y-29819D01*
X-234273Y-29789D01*
X-234279Y-29757D01*
X-234321Y-29677D01*
X-234357Y-29593D01*
X-234383Y-29561D01*
X-234394Y-29540D01*
X-234417Y-29518D01*
X-234462Y-29462D01*
X-248462Y-15462D01*
X-248536Y-15409D01*
X-248605Y-15349D01*
X-248635Y-15337D01*
X-248661Y-15318D01*
X-248748Y-15291D01*
X-248833Y-15257D01*
X-248874Y-15253D01*
X-248897Y-15246D01*
X-248929Y-15247D01*
X-249000Y-15239D01*
X-317000Y-15239D01*
X-317090Y-15254D01*
X-317181Y-15261D01*
X-317211Y-15273D01*
X-317243Y-15279D01*
X-317323Y-15321D01*
X-317407Y-15357D01*
X-317439Y-15383D01*
X-317460Y-15394D01*
X-317482Y-15417D01*
X-317538Y-15462D01*
X-321538Y-19462D01*
X-321591Y-19536D01*
X-321651Y-19605D01*
X-321663Y-19635D01*
X-321682Y-19661D01*
X-321709Y-19748D01*
X-321743Y-19833D01*
X-321747Y-19874D01*
X-321754Y-19897D01*
X-321753Y-19929D01*
X-321761Y-20000D01*
X-321761Y-48000D01*
X-321747Y-48090D01*
X-321739Y-48181D01*
X-321727Y-48211D01*
X-321722Y-48243D01*
X-321679Y-48323D01*
X-321643Y-48407D01*
X-321617Y-48439D01*
X-321606Y-48460D01*
X-321583Y-48482D01*
X-321538Y-48538D01*
X-310761Y-59315D01*
X-310761Y-81000D01*
X-310747Y-81090D01*
X-310739Y-81181D01*
X-310727Y-81211D01*
X-310722Y-81243D01*
X-310679Y-81323D01*
X-310643Y-81407D01*
X-310617Y-81439D01*
X-310606Y-81460D01*
X-310583Y-81482D01*
X-310538Y-81538D01*
X-296761Y-95315D01*
X-296761Y-125000D01*
X-296747Y-125090D01*
X-296739Y-125181D01*
X-296727Y-125211D01*
X-296722Y-125243D01*
X-296679Y-125323D01*
X-296643Y-125407D01*
X-296617Y-125439D01*
X-296606Y-125460D01*
X-296583Y-125482D01*
X-296538Y-125538D01*
X-289761Y-132315D01*
X-289761Y-140000D01*
X-289747Y-140090D01*
X-289739Y-140181D01*
X-289727Y-140211D01*
X-289722Y-140243D01*
X-289679Y-140323D01*
X-289643Y-140407D01*
X-289617Y-140439D01*
X-289606Y-140460D01*
X-289583Y-140482D01*
X-289538Y-140538D01*
X-275761Y-154315D01*
X-275761Y-172000D01*
X-275747Y-172090D01*
X-275739Y-172181D01*
X-275727Y-172211D01*
X-275722Y-172243D01*
X-275679Y-172323D01*
X-275643Y-172407D01*
X-275617Y-172439D01*
X-275606Y-172460D01*
X-275583Y-172482D01*
X-275538Y-172538D01*
X-263329Y-184748D01*
X-263313Y-184759D01*
X-263300Y-184775D01*
X-263213Y-184831D01*
X-263129Y-184891D01*
X-263110Y-184897D01*
X-263093Y-184908D01*
X-262993Y-184933D01*
X-262894Y-184963D01*
X-262874Y-184963D01*
X-262855Y-184968D01*
X-262752Y-184960D01*
X-262648Y-184957D01*
X-262630Y-184950D01*
X-262610Y-184949D01*
X-262514Y-184908D01*
X-262417Y-184873D01*
X-262402Y-184860D01*
X-262383Y-184852D01*
X-262252Y-184748D01*
X-262198Y-184693D01*
X-257802Y-184693D01*
X-254693Y-187802D01*
X-254693Y-192198D01*
X-254748Y-192252D01*
X-254759Y-192269D01*
X-254775Y-192281D01*
X-254831Y-192368D01*
X-254891Y-192452D01*
X-254897Y-192471D01*
X-254908Y-192488D01*
X-254933Y-192588D01*
X-254963Y-192687D01*
X-254963Y-192707D01*
X-254968Y-192726D01*
X-254960Y-192829D01*
X-254957Y-192933D01*
X-254950Y-192952D01*
X-254949Y-192972D01*
X-254908Y-193067D01*
X-254873Y-193164D01*
X-254860Y-193180D01*
X-254852Y-193198D01*
X-254748Y-193329D01*
X-202538Y-245538D01*
X-202464Y-245591D01*
X-202395Y-245651D01*
X-202365Y-245663D01*
X-202339Y-245682D01*
X-202252Y-245709D01*
X-202167Y-245743D01*
X-202126Y-245747D01*
X-202103Y-245754D01*
X-202071Y-245753D01*
X-202000Y-245761D01*
X-186000Y-245761D01*
X-185910Y-245747D01*
G37*
%LPC*%
G36*
X264802Y48693D02*
X264802Y48693D01*
X261693Y51802D01*
X261693Y56198D01*
X264802Y59307D01*
X268039Y59307D01*
X268129Y59321D01*
X268220Y59329D01*
X268250Y59341D01*
X268282Y59346D01*
X268362Y59389D01*
X268446Y59425D01*
X268478Y59451D01*
X268499Y59462D01*
X268521Y59485D01*
X268577Y59530D01*
X280982Y71935D01*
X281035Y72009D01*
X281095Y72078D01*
X281107Y72108D01*
X281126Y72134D01*
X281153Y72221D01*
X281187Y72306D01*
X281191Y72347D01*
X281198Y72369D01*
X281197Y72402D01*
X281205Y72473D01*
X281205Y93527D01*
X281191Y93617D01*
X281183Y93708D01*
X281171Y93738D01*
X281166Y93770D01*
X281123Y93850D01*
X281087Y93934D01*
X281061Y93966D01*
X281050Y93987D01*
X281027Y94009D01*
X280982Y94065D01*
X219065Y155982D01*
X218991Y156035D01*
X218922Y156095D01*
X218892Y156107D01*
X218866Y156126D01*
X218779Y156153D01*
X218694Y156187D01*
X218653Y156191D01*
X218631Y156198D01*
X218598Y156197D01*
X218527Y156205D01*
X210842Y156205D01*
X197205Y169842D01*
X197205Y178527D01*
X197191Y178617D01*
X197183Y178708D01*
X197171Y178738D01*
X197166Y178770D01*
X197123Y178850D01*
X197087Y178934D01*
X197061Y178966D01*
X197050Y178987D01*
X197027Y179009D01*
X196982Y179065D01*
X177094Y198953D01*
X177036Y198995D01*
X176984Y199045D01*
X176937Y199067D01*
X176895Y199097D01*
X176826Y199118D01*
X176761Y199148D01*
X176709Y199154D01*
X176659Y199169D01*
X176588Y199167D01*
X176517Y199175D01*
X176466Y199164D01*
X176414Y199163D01*
X176346Y199138D01*
X176276Y199123D01*
X176231Y199096D01*
X176183Y199078D01*
X176127Y199034D01*
X176065Y198997D01*
X176031Y198957D01*
X175991Y198925D01*
X175952Y198864D01*
X175905Y198810D01*
X175886Y198762D01*
X175858Y198718D01*
X175840Y198648D01*
X175813Y198582D01*
X175805Y198510D01*
X175797Y198479D01*
X175799Y198456D01*
X175795Y198415D01*
X175795Y171473D01*
X175809Y171383D01*
X175817Y171292D01*
X175829Y171262D01*
X175834Y171230D01*
X175877Y171150D01*
X175913Y171066D01*
X175939Y171033D01*
X175950Y171013D01*
X175973Y170991D01*
X176018Y170935D01*
X179423Y167530D01*
X179497Y167477D01*
X179566Y167417D01*
X179596Y167405D01*
X179622Y167386D01*
X179710Y167359D01*
X179794Y167325D01*
X179835Y167321D01*
X179857Y167314D01*
X179890Y167315D01*
X179961Y167307D01*
X183198Y167307D01*
X186307Y164198D01*
X186307Y159802D01*
X183198Y156693D01*
X178802Y156693D01*
X175693Y159802D01*
X175693Y163039D01*
X175679Y163129D01*
X175671Y163220D01*
X175659Y163250D01*
X175654Y163282D01*
X175611Y163362D01*
X175575Y163446D01*
X175549Y163479D01*
X175538Y163499D01*
X175515Y163521D01*
X175470Y163577D01*
X172065Y166982D01*
X170205Y168842D01*
X170205Y205527D01*
X170191Y205617D01*
X170183Y205708D01*
X170171Y205738D01*
X170166Y205770D01*
X170123Y205851D01*
X170087Y205934D01*
X170061Y205967D01*
X170050Y205987D01*
X170027Y206009D01*
X169982Y206065D01*
X160065Y215982D01*
X159991Y216035D01*
X159922Y216095D01*
X159892Y216107D01*
X159866Y216126D01*
X159779Y216153D01*
X159694Y216187D01*
X159653Y216191D01*
X159631Y216198D01*
X159598Y216197D01*
X159527Y216205D01*
X139842Y216205D01*
X129205Y226842D01*
X129205Y252863D01*
X129194Y252933D01*
X129192Y253005D01*
X129174Y253054D01*
X129166Y253105D01*
X129132Y253169D01*
X129107Y253236D01*
X129075Y253277D01*
X129050Y253323D01*
X128998Y253372D01*
X128954Y253428D01*
X128910Y253456D01*
X128872Y253492D01*
X128807Y253522D01*
X128747Y253561D01*
X128696Y253574D01*
X128649Y253596D01*
X128578Y253604D01*
X128508Y253621D01*
X128456Y253617D01*
X128405Y253623D01*
X128334Y253608D01*
X128263Y253602D01*
X128215Y253582D01*
X128164Y253571D01*
X128103Y253534D01*
X128037Y253506D01*
X127981Y253461D01*
X127953Y253444D01*
X127938Y253427D01*
X127906Y253401D01*
X126198Y251693D01*
X121802Y251693D01*
X118693Y254802D01*
X118693Y259198D01*
X121802Y262307D01*
X126198Y262307D01*
X127906Y260599D01*
X127964Y260557D01*
X128016Y260508D01*
X128063Y260486D01*
X128105Y260456D01*
X128174Y260434D01*
X128239Y260404D01*
X128291Y260399D01*
X128341Y260383D01*
X128412Y260385D01*
X128483Y260377D01*
X128534Y260388D01*
X128586Y260390D01*
X128654Y260414D01*
X128724Y260429D01*
X128769Y260456D01*
X128817Y260474D01*
X128873Y260519D01*
X128935Y260556D01*
X128969Y260595D01*
X129009Y260628D01*
X129048Y260688D01*
X129095Y260743D01*
X129114Y260791D01*
X129142Y260835D01*
X129160Y260904D01*
X129187Y260971D01*
X129195Y261042D01*
X129203Y261073D01*
X129201Y261096D01*
X129205Y261137D01*
X129205Y262527D01*
X129191Y262617D01*
X129183Y262708D01*
X129171Y262738D01*
X129166Y262770D01*
X129123Y262850D01*
X129087Y262934D01*
X129061Y262966D01*
X129050Y262987D01*
X129027Y263009D01*
X128982Y263065D01*
X125065Y266982D01*
X124991Y267035D01*
X124922Y267095D01*
X124892Y267107D01*
X124866Y267126D01*
X124779Y267153D01*
X124694Y267187D01*
X124653Y267191D01*
X124631Y267198D01*
X124598Y267197D01*
X124527Y267205D01*
X123068Y267205D01*
X123048Y267202D01*
X123029Y267204D01*
X122927Y267182D01*
X122825Y267166D01*
X122808Y267156D01*
X122788Y267152D01*
X122699Y267099D01*
X122608Y267050D01*
X122594Y267036D01*
X122577Y267026D01*
X122510Y266947D01*
X122438Y266872D01*
X122430Y266854D01*
X122417Y266839D01*
X122378Y266743D01*
X122335Y266649D01*
X122333Y266629D01*
X122325Y266611D01*
X122307Y266444D01*
X122307Y265802D01*
X119198Y262693D01*
X114802Y262693D01*
X111693Y265802D01*
X111693Y270198D01*
X114802Y273307D01*
X119198Y273307D01*
X119487Y273018D01*
X119561Y272965D01*
X119631Y272905D01*
X119661Y272893D01*
X119687Y272874D01*
X119774Y272847D01*
X119859Y272813D01*
X119900Y272809D01*
X119922Y272802D01*
X119954Y272803D01*
X120025Y272795D01*
X127158Y272795D01*
X134795Y265158D01*
X134795Y229473D01*
X134797Y229460D01*
X134796Y229451D01*
X134806Y229402D01*
X134809Y229383D01*
X134817Y229292D01*
X134829Y229262D01*
X134834Y229230D01*
X134877Y229150D01*
X134913Y229066D01*
X134939Y229034D01*
X134950Y229013D01*
X134973Y228991D01*
X135018Y228935D01*
X141935Y222018D01*
X142009Y221965D01*
X142078Y221905D01*
X142108Y221893D01*
X142134Y221874D01*
X142221Y221847D01*
X142306Y221813D01*
X142347Y221809D01*
X142369Y221802D01*
X142402Y221803D01*
X142473Y221795D01*
X162158Y221795D01*
X172462Y211491D01*
X172478Y211479D01*
X172490Y211463D01*
X172578Y211407D01*
X172661Y211347D01*
X172680Y211341D01*
X172697Y211330D01*
X172798Y211305D01*
X172897Y211275D01*
X172916Y211275D01*
X172936Y211270D01*
X173039Y211278D01*
X173142Y211281D01*
X173161Y211288D01*
X173181Y211290D01*
X173276Y211330D01*
X173373Y211366D01*
X173389Y211378D01*
X173407Y211386D01*
X173538Y211491D01*
X188470Y226423D01*
X188523Y226497D01*
X188583Y226566D01*
X188595Y226596D01*
X188614Y226622D01*
X188641Y226709D01*
X188675Y226794D01*
X188679Y226835D01*
X188686Y226857D01*
X188685Y226890D01*
X188693Y226961D01*
X188693Y230198D01*
X191802Y233307D01*
X196198Y233307D01*
X199307Y230198D01*
X199307Y225802D01*
X196198Y222693D01*
X192961Y222693D01*
X192871Y222679D01*
X192780Y222671D01*
X192750Y222659D01*
X192718Y222654D01*
X192638Y222611D01*
X192554Y222575D01*
X192522Y222549D01*
X192501Y222538D01*
X192479Y222515D01*
X192423Y222470D01*
X177491Y207538D01*
X177479Y207522D01*
X177463Y207510D01*
X177407Y207422D01*
X177347Y207339D01*
X177341Y207320D01*
X177330Y207303D01*
X177305Y207202D01*
X177275Y207103D01*
X177275Y207084D01*
X177270Y207064D01*
X177278Y206961D01*
X177281Y206858D01*
X177288Y206839D01*
X177290Y206819D01*
X177330Y206724D01*
X177366Y206627D01*
X177378Y206611D01*
X177386Y206593D01*
X177491Y206462D01*
X202795Y181158D01*
X202795Y172473D01*
X202809Y172383D01*
X202817Y172292D01*
X202829Y172262D01*
X202834Y172230D01*
X202877Y172150D01*
X202913Y172066D01*
X202939Y172034D01*
X202950Y172013D01*
X202973Y171991D01*
X203018Y171935D01*
X212935Y162018D01*
X213009Y161965D01*
X213078Y161905D01*
X213108Y161893D01*
X213134Y161874D01*
X213221Y161847D01*
X213306Y161813D01*
X213347Y161809D01*
X213369Y161802D01*
X213402Y161803D01*
X213473Y161795D01*
X221158Y161795D01*
X286795Y96158D01*
X286795Y69842D01*
X272530Y55577D01*
X272477Y55503D01*
X272417Y55434D01*
X272405Y55404D01*
X272386Y55378D01*
X272359Y55291D01*
X272325Y55206D01*
X272321Y55165D01*
X272314Y55143D01*
X272315Y55110D01*
X272307Y55039D01*
X272307Y51802D01*
X269198Y48693D01*
X264802Y48693D01*
G37*
%LPD*%
%LPC*%
G36*
X25802Y-276307D02*
X25802Y-276307D01*
X22693Y-273198D01*
X22693Y-268802D01*
X23889Y-267606D01*
X23931Y-267548D01*
X23980Y-267496D01*
X24002Y-267449D01*
X24032Y-267407D01*
X24054Y-267338D01*
X24084Y-267273D01*
X24089Y-267221D01*
X24105Y-267171D01*
X24103Y-267100D01*
X24111Y-267029D01*
X24100Y-266978D01*
X24098Y-266926D01*
X24074Y-266858D01*
X24059Y-266788D01*
X24032Y-266743D01*
X24014Y-266695D01*
X23969Y-266639D01*
X23932Y-266577D01*
X23893Y-266543D01*
X23860Y-266503D01*
X23800Y-266464D01*
X23745Y-266417D01*
X23697Y-266398D01*
X23653Y-266370D01*
X23584Y-266352D01*
X23517Y-266325D01*
X23446Y-266317D01*
X23415Y-266309D01*
X23392Y-266311D01*
X23351Y-266307D01*
X22802Y-266307D01*
X19693Y-263198D01*
X19693Y-258802D01*
X20889Y-257606D01*
X20931Y-257548D01*
X20980Y-257496D01*
X21002Y-257449D01*
X21032Y-257407D01*
X21054Y-257338D01*
X21084Y-257273D01*
X21089Y-257221D01*
X21105Y-257171D01*
X21103Y-257100D01*
X21111Y-257029D01*
X21100Y-256978D01*
X21098Y-256926D01*
X21074Y-256858D01*
X21059Y-256788D01*
X21032Y-256744D01*
X21014Y-256695D01*
X20969Y-256639D01*
X20932Y-256577D01*
X20893Y-256543D01*
X20860Y-256503D01*
X20800Y-256464D01*
X20745Y-256417D01*
X20697Y-256398D01*
X20653Y-256370D01*
X20584Y-256352D01*
X20517Y-256325D01*
X20446Y-256317D01*
X20415Y-256309D01*
X20392Y-256311D01*
X20351Y-256307D01*
X15802Y-256307D01*
X13038Y-253543D01*
X13022Y-253532D01*
X13010Y-253516D01*
X12922Y-253460D01*
X12839Y-253400D01*
X12820Y-253394D01*
X12803Y-253383D01*
X12702Y-253358D01*
X12603Y-253327D01*
X12584Y-253328D01*
X12564Y-253323D01*
X12461Y-253331D01*
X12358Y-253334D01*
X12339Y-253340D01*
X12319Y-253342D01*
X12224Y-253382D01*
X12127Y-253418D01*
X12111Y-253431D01*
X12093Y-253438D01*
X11962Y-253543D01*
X9198Y-256307D01*
X4802Y-256307D01*
X1538Y-253043D01*
X1522Y-253032D01*
X1510Y-253016D01*
X1422Y-252960D01*
X1339Y-252900D01*
X1320Y-252894D01*
X1303Y-252883D01*
X1202Y-252858D01*
X1103Y-252827D01*
X1084Y-252828D01*
X1064Y-252823D01*
X961Y-252831D01*
X858Y-252834D01*
X839Y-252840D01*
X819Y-252842D01*
X724Y-252882D01*
X627Y-252918D01*
X611Y-252931D01*
X593Y-252938D01*
X462Y-253043D01*
X-2802Y-256307D01*
X-7198Y-256307D01*
X-10462Y-253043D01*
X-10478Y-253032D01*
X-10490Y-253016D01*
X-10578Y-252960D01*
X-10661Y-252900D01*
X-10680Y-252894D01*
X-10697Y-252883D01*
X-10798Y-252858D01*
X-10897Y-252827D01*
X-10916Y-252828D01*
X-10936Y-252823D01*
X-11039Y-252831D01*
X-11142Y-252834D01*
X-11161Y-252840D01*
X-11181Y-252842D01*
X-11276Y-252882D01*
X-11373Y-252918D01*
X-11389Y-252931D01*
X-11407Y-252938D01*
X-11538Y-253043D01*
X-14802Y-256307D01*
X-19198Y-256307D01*
X-22462Y-253043D01*
X-22478Y-253032D01*
X-22490Y-253016D01*
X-22578Y-252960D01*
X-22661Y-252900D01*
X-22680Y-252894D01*
X-22697Y-252883D01*
X-22798Y-252858D01*
X-22897Y-252827D01*
X-22916Y-252828D01*
X-22936Y-252823D01*
X-23039Y-252831D01*
X-23142Y-252834D01*
X-23161Y-252840D01*
X-23181Y-252842D01*
X-23276Y-252882D01*
X-23373Y-252918D01*
X-23389Y-252931D01*
X-23407Y-252938D01*
X-23538Y-253043D01*
X-25802Y-255307D01*
X-30198Y-255307D01*
X-33307Y-252198D01*
X-33307Y-247802D01*
X-30198Y-244693D01*
X-26068Y-244693D01*
X-26048Y-244690D01*
X-26029Y-244692D01*
X-25927Y-244670D01*
X-25825Y-244654D01*
X-25808Y-244644D01*
X-25788Y-244640D01*
X-25699Y-244587D01*
X-25608Y-244538D01*
X-25594Y-244524D01*
X-25577Y-244514D01*
X-25510Y-244435D01*
X-25438Y-244360D01*
X-25430Y-244342D01*
X-25417Y-244327D01*
X-25378Y-244231D01*
X-25335Y-244137D01*
X-25333Y-244117D01*
X-25325Y-244099D01*
X-25307Y-243932D01*
X-25307Y-239802D01*
X-22198Y-236693D01*
X-17802Y-236693D01*
X-15038Y-239457D01*
X-15022Y-239468D01*
X-15010Y-239484D01*
X-14922Y-239540D01*
X-14839Y-239600D01*
X-14820Y-239606D01*
X-14803Y-239617D01*
X-14702Y-239642D01*
X-14603Y-239673D01*
X-14584Y-239672D01*
X-14564Y-239677D01*
X-14461Y-239669D01*
X-14358Y-239666D01*
X-14339Y-239660D01*
X-14319Y-239658D01*
X-14224Y-239618D01*
X-14127Y-239582D01*
X-14111Y-239569D01*
X-14093Y-239562D01*
X-13962Y-239457D01*
X-11198Y-236693D01*
X-6802Y-236693D01*
X-4038Y-239457D01*
X-4022Y-239468D01*
X-4010Y-239484D01*
X-3922Y-239540D01*
X-3839Y-239600D01*
X-3820Y-239606D01*
X-3803Y-239617D01*
X-3702Y-239642D01*
X-3603Y-239673D01*
X-3584Y-239672D01*
X-3564Y-239677D01*
X-3461Y-239669D01*
X-3358Y-239666D01*
X-3339Y-239660D01*
X-3319Y-239658D01*
X-3224Y-239618D01*
X-3127Y-239582D01*
X-3111Y-239569D01*
X-3093Y-239562D01*
X-2962Y-239457D01*
X-198Y-236693D01*
X4198Y-236693D01*
X6962Y-239457D01*
X6978Y-239468D01*
X6990Y-239484D01*
X7078Y-239540D01*
X7161Y-239600D01*
X7180Y-239606D01*
X7197Y-239617D01*
X7298Y-239642D01*
X7397Y-239673D01*
X7416Y-239672D01*
X7436Y-239677D01*
X7539Y-239669D01*
X7642Y-239666D01*
X7661Y-239660D01*
X7681Y-239658D01*
X7776Y-239618D01*
X7873Y-239582D01*
X7889Y-239569D01*
X7907Y-239562D01*
X8038Y-239457D01*
X10802Y-236693D01*
X15198Y-236693D01*
X17962Y-239457D01*
X17978Y-239468D01*
X17990Y-239484D01*
X18078Y-239540D01*
X18161Y-239600D01*
X18180Y-239606D01*
X18197Y-239617D01*
X18298Y-239642D01*
X18397Y-239673D01*
X18416Y-239672D01*
X18436Y-239677D01*
X18539Y-239669D01*
X18642Y-239666D01*
X18661Y-239660D01*
X18681Y-239658D01*
X18776Y-239618D01*
X18873Y-239582D01*
X18889Y-239569D01*
X18907Y-239562D01*
X19038Y-239457D01*
X21802Y-236693D01*
X26198Y-236693D01*
X29462Y-239957D01*
X29478Y-239968D01*
X29490Y-239984D01*
X29578Y-240040D01*
X29661Y-240100D01*
X29680Y-240106D01*
X29697Y-240117D01*
X29798Y-240142D01*
X29897Y-240173D01*
X29916Y-240172D01*
X29936Y-240177D01*
X30039Y-240169D01*
X30142Y-240166D01*
X30161Y-240160D01*
X30181Y-240158D01*
X30276Y-240118D01*
X30373Y-240082D01*
X30389Y-240069D01*
X30407Y-240062D01*
X30538Y-239957D01*
X33802Y-236693D01*
X38198Y-236693D01*
X41307Y-239802D01*
X41307Y-244198D01*
X41111Y-244394D01*
X41069Y-244452D01*
X41020Y-244504D01*
X40998Y-244551D01*
X40968Y-244593D01*
X40946Y-244662D01*
X40916Y-244727D01*
X40911Y-244779D01*
X40895Y-244829D01*
X40897Y-244900D01*
X40889Y-244971D01*
X40900Y-245022D01*
X40902Y-245074D01*
X40926Y-245142D01*
X40941Y-245212D01*
X40968Y-245257D01*
X40986Y-245305D01*
X41031Y-245361D01*
X41068Y-245423D01*
X41107Y-245457D01*
X41140Y-245497D01*
X41200Y-245536D01*
X41255Y-245583D01*
X41303Y-245602D01*
X41347Y-245630D01*
X41416Y-245648D01*
X41483Y-245675D01*
X41554Y-245683D01*
X41585Y-245691D01*
X41608Y-245689D01*
X41649Y-245693D01*
X43198Y-245693D01*
X46307Y-248802D01*
X46307Y-253198D01*
X43198Y-256307D01*
X38802Y-256307D01*
X36038Y-253543D01*
X36022Y-253532D01*
X36010Y-253516D01*
X35922Y-253460D01*
X35839Y-253400D01*
X35820Y-253394D01*
X35803Y-253383D01*
X35702Y-253358D01*
X35603Y-253327D01*
X35584Y-253328D01*
X35564Y-253323D01*
X35461Y-253331D01*
X35358Y-253334D01*
X35339Y-253340D01*
X35319Y-253342D01*
X35224Y-253382D01*
X35127Y-253418D01*
X35111Y-253431D01*
X35093Y-253438D01*
X34962Y-253543D01*
X32198Y-256307D01*
X29649Y-256307D01*
X29579Y-256318D01*
X29507Y-256320D01*
X29458Y-256338D01*
X29407Y-256346D01*
X29343Y-256380D01*
X29276Y-256405D01*
X29235Y-256437D01*
X29189Y-256462D01*
X29140Y-256514D01*
X29084Y-256558D01*
X29056Y-256602D01*
X29020Y-256640D01*
X28990Y-256705D01*
X28951Y-256765D01*
X28938Y-256816D01*
X28916Y-256863D01*
X28908Y-256934D01*
X28891Y-257004D01*
X28895Y-257056D01*
X28889Y-257107D01*
X28904Y-257178D01*
X28910Y-257249D01*
X28930Y-257297D01*
X28941Y-257348D01*
X28978Y-257409D01*
X29006Y-257475D01*
X29051Y-257531D01*
X29068Y-257559D01*
X29085Y-257574D01*
X29111Y-257606D01*
X30307Y-258802D01*
X30307Y-263198D01*
X29111Y-264394D01*
X29069Y-264452D01*
X29020Y-264504D01*
X28998Y-264551D01*
X28968Y-264593D01*
X28946Y-264662D01*
X28916Y-264727D01*
X28911Y-264779D01*
X28895Y-264829D01*
X28897Y-264900D01*
X28889Y-264971D01*
X28900Y-265022D01*
X28902Y-265074D01*
X28926Y-265142D01*
X28941Y-265212D01*
X28968Y-265257D01*
X28986Y-265305D01*
X29031Y-265361D01*
X29068Y-265423D01*
X29107Y-265457D01*
X29140Y-265497D01*
X29200Y-265536D01*
X29255Y-265583D01*
X29303Y-265602D01*
X29347Y-265630D01*
X29416Y-265648D01*
X29483Y-265675D01*
X29554Y-265683D01*
X29585Y-265691D01*
X29608Y-265689D01*
X29649Y-265693D01*
X30198Y-265693D01*
X33307Y-268802D01*
X33307Y-273198D01*
X30198Y-276307D01*
X25802Y-276307D01*
G37*
%LPD*%
%LPC*%
G36*
X-219198Y-190307D02*
X-219198Y-190307D01*
X-222307Y-187198D01*
X-222307Y-183068D01*
X-222310Y-183048D01*
X-222308Y-183029D01*
X-222330Y-182927D01*
X-222346Y-182825D01*
X-222356Y-182808D01*
X-222360Y-182788D01*
X-222413Y-182699D01*
X-222462Y-182608D01*
X-222476Y-182594D01*
X-222486Y-182577D01*
X-222565Y-182510D01*
X-222640Y-182438D01*
X-222658Y-182430D01*
X-222673Y-182417D01*
X-222769Y-182378D01*
X-222863Y-182335D01*
X-222883Y-182333D01*
X-222901Y-182325D01*
X-223068Y-182307D01*
X-226198Y-182307D01*
X-229307Y-179198D01*
X-229307Y-174802D01*
X-226043Y-171538D01*
X-226032Y-171522D01*
X-226016Y-171510D01*
X-225960Y-171422D01*
X-225900Y-171339D01*
X-225894Y-171320D01*
X-225883Y-171303D01*
X-225858Y-171202D01*
X-225827Y-171103D01*
X-225828Y-171084D01*
X-225823Y-171064D01*
X-225831Y-170961D01*
X-225834Y-170858D01*
X-225840Y-170839D01*
X-225842Y-170819D01*
X-225882Y-170724D01*
X-225918Y-170627D01*
X-225931Y-170611D01*
X-225938Y-170593D01*
X-226043Y-170462D01*
X-228307Y-168198D01*
X-228307Y-163802D01*
X-226111Y-161606D01*
X-226069Y-161548D01*
X-226020Y-161496D01*
X-225998Y-161449D01*
X-225968Y-161407D01*
X-225946Y-161338D01*
X-225916Y-161273D01*
X-225911Y-161221D01*
X-225895Y-161171D01*
X-225897Y-161100D01*
X-225889Y-161029D01*
X-225900Y-160978D01*
X-225902Y-160926D01*
X-225926Y-160858D01*
X-225941Y-160788D01*
X-225968Y-160743D01*
X-225986Y-160695D01*
X-226031Y-160639D01*
X-226068Y-160577D01*
X-226107Y-160543D01*
X-226140Y-160503D01*
X-226200Y-160464D01*
X-226255Y-160417D01*
X-226303Y-160398D01*
X-226347Y-160370D01*
X-226416Y-160352D01*
X-226483Y-160325D01*
X-226554Y-160317D01*
X-226585Y-160309D01*
X-226608Y-160311D01*
X-226649Y-160307D01*
X-227198Y-160307D01*
X-230307Y-157198D01*
X-230307Y-152802D01*
X-227198Y-149693D01*
X-222802Y-149693D01*
X-219693Y-152802D01*
X-219693Y-153351D01*
X-219682Y-153421D01*
X-219680Y-153493D01*
X-219662Y-153542D01*
X-219654Y-153593D01*
X-219620Y-153657D01*
X-219595Y-153724D01*
X-219563Y-153765D01*
X-219538Y-153811D01*
X-219487Y-153860D01*
X-219442Y-153916D01*
X-219398Y-153944D01*
X-219360Y-153980D01*
X-219295Y-154010D01*
X-219235Y-154049D01*
X-219184Y-154062D01*
X-219137Y-154084D01*
X-219066Y-154092D01*
X-218996Y-154109D01*
X-218944Y-154105D01*
X-218893Y-154111D01*
X-218822Y-154096D01*
X-218751Y-154090D01*
X-218703Y-154070D01*
X-218652Y-154059D01*
X-218591Y-154022D01*
X-218525Y-153994D01*
X-218469Y-153949D01*
X-218441Y-153932D01*
X-218426Y-153915D01*
X-218394Y-153889D01*
X-218198Y-153693D01*
X-213802Y-153693D01*
X-210693Y-156802D01*
X-210693Y-158932D01*
X-210690Y-158952D01*
X-210692Y-158971D01*
X-210670Y-159073D01*
X-210654Y-159175D01*
X-210644Y-159192D01*
X-210640Y-159212D01*
X-210587Y-159301D01*
X-210538Y-159392D01*
X-210524Y-159406D01*
X-210514Y-159423D01*
X-210435Y-159490D01*
X-210360Y-159562D01*
X-210342Y-159570D01*
X-210327Y-159583D01*
X-210231Y-159622D01*
X-210137Y-159665D01*
X-210117Y-159667D01*
X-210099Y-159675D01*
X-209932Y-159693D01*
X-205802Y-159693D01*
X-202693Y-162802D01*
X-202693Y-166932D01*
X-202690Y-166952D01*
X-202692Y-166971D01*
X-202670Y-167073D01*
X-202654Y-167175D01*
X-202644Y-167192D01*
X-202640Y-167212D01*
X-202587Y-167301D01*
X-202538Y-167392D01*
X-202524Y-167406D01*
X-202514Y-167423D01*
X-202435Y-167490D01*
X-202360Y-167562D01*
X-202342Y-167570D01*
X-202327Y-167583D01*
X-202231Y-167622D01*
X-202137Y-167665D01*
X-202117Y-167667D01*
X-202099Y-167675D01*
X-201932Y-167693D01*
X-199802Y-167693D01*
X-196693Y-170802D01*
X-196693Y-175198D01*
X-199802Y-178307D01*
X-204198Y-178307D01*
X-206462Y-176043D01*
X-206478Y-176032D01*
X-206490Y-176016D01*
X-206578Y-175960D01*
X-206661Y-175900D01*
X-206680Y-175894D01*
X-206697Y-175883D01*
X-206798Y-175858D01*
X-206897Y-175827D01*
X-206916Y-175828D01*
X-206936Y-175823D01*
X-207039Y-175831D01*
X-207142Y-175834D01*
X-207161Y-175840D01*
X-207181Y-175842D01*
X-207276Y-175882D01*
X-207373Y-175918D01*
X-207389Y-175931D01*
X-207407Y-175938D01*
X-207538Y-176043D01*
X-210802Y-179307D01*
X-213351Y-179307D01*
X-213421Y-179318D01*
X-213493Y-179320D01*
X-213542Y-179338D01*
X-213593Y-179346D01*
X-213657Y-179380D01*
X-213724Y-179405D01*
X-213765Y-179437D01*
X-213811Y-179462D01*
X-213860Y-179514D01*
X-213916Y-179558D01*
X-213944Y-179602D01*
X-213980Y-179640D01*
X-214010Y-179705D01*
X-214049Y-179765D01*
X-214062Y-179816D01*
X-214084Y-179863D01*
X-214092Y-179934D01*
X-214109Y-180004D01*
X-214105Y-180056D01*
X-214111Y-180107D01*
X-214096Y-180178D01*
X-214090Y-180249D01*
X-214070Y-180297D01*
X-214059Y-180348D01*
X-214022Y-180409D01*
X-213994Y-180475D01*
X-213949Y-180531D01*
X-213932Y-180559D01*
X-213915Y-180574D01*
X-213889Y-180606D01*
X-211693Y-182802D01*
X-211693Y-187198D01*
X-214802Y-190307D01*
X-219198Y-190307D01*
G37*
%LPD*%
%LPC*%
G36*
X197802Y76693D02*
X197802Y76693D01*
X194693Y79802D01*
X194693Y82932D01*
X194690Y82952D01*
X194692Y82971D01*
X194670Y83073D01*
X194654Y83175D01*
X194644Y83192D01*
X194640Y83212D01*
X194587Y83301D01*
X194538Y83392D01*
X194524Y83406D01*
X194514Y83423D01*
X194435Y83490D01*
X194360Y83562D01*
X194342Y83570D01*
X194327Y83583D01*
X194231Y83622D01*
X194137Y83665D01*
X194117Y83667D01*
X194099Y83675D01*
X193932Y83693D01*
X189802Y83693D01*
X186693Y86802D01*
X186693Y88351D01*
X186682Y88421D01*
X186680Y88493D01*
X186662Y88542D01*
X186654Y88593D01*
X186620Y88657D01*
X186595Y88724D01*
X186563Y88765D01*
X186538Y88811D01*
X186487Y88860D01*
X186442Y88916D01*
X186398Y88944D01*
X186360Y88980D01*
X186295Y89010D01*
X186235Y89049D01*
X186184Y89062D01*
X186137Y89084D01*
X186066Y89092D01*
X185996Y89109D01*
X185944Y89105D01*
X185893Y89111D01*
X185822Y89096D01*
X185751Y89090D01*
X185703Y89070D01*
X185652Y89059D01*
X185591Y89022D01*
X185525Y88994D01*
X185469Y88949D01*
X185441Y88932D01*
X185426Y88915D01*
X185394Y88889D01*
X185198Y88693D01*
X180802Y88693D01*
X177693Y91802D01*
X177693Y96198D01*
X177889Y96394D01*
X177931Y96452D01*
X177980Y96504D01*
X178002Y96551D01*
X178032Y96593D01*
X178054Y96662D01*
X178084Y96727D01*
X178089Y96779D01*
X178105Y96829D01*
X178103Y96900D01*
X178111Y96971D01*
X178100Y97022D01*
X178098Y97074D01*
X178074Y97142D01*
X178059Y97212D01*
X178032Y97257D01*
X178014Y97305D01*
X177969Y97361D01*
X177932Y97423D01*
X177893Y97457D01*
X177860Y97497D01*
X177800Y97536D01*
X177745Y97583D01*
X177697Y97602D01*
X177653Y97630D01*
X177584Y97648D01*
X177517Y97675D01*
X177446Y97683D01*
X177415Y97691D01*
X177392Y97689D01*
X177351Y97693D01*
X174802Y97693D01*
X171693Y100802D01*
X171693Y105198D01*
X174802Y108307D01*
X179198Y108307D01*
X180394Y107111D01*
X180452Y107069D01*
X180504Y107020D01*
X180551Y106998D01*
X180593Y106968D01*
X180662Y106946D01*
X180727Y106916D01*
X180779Y106911D01*
X180829Y106895D01*
X180900Y106897D01*
X180971Y106889D01*
X181022Y106900D01*
X181074Y106902D01*
X181142Y106926D01*
X181212Y106941D01*
X181257Y106968D01*
X181305Y106986D01*
X181361Y107031D01*
X181423Y107068D01*
X181457Y107107D01*
X181497Y107140D01*
X181536Y107200D01*
X181583Y107255D01*
X181602Y107303D01*
X181630Y107347D01*
X181648Y107416D01*
X181675Y107483D01*
X181683Y107554D01*
X181691Y107585D01*
X181689Y107608D01*
X181693Y107649D01*
X181693Y111198D01*
X181889Y111394D01*
X181931Y111452D01*
X181980Y111504D01*
X182002Y111551D01*
X182032Y111593D01*
X182054Y111662D01*
X182084Y111727D01*
X182089Y111779D01*
X182105Y111829D01*
X182103Y111900D01*
X182111Y111971D01*
X182100Y112022D01*
X182098Y112074D01*
X182074Y112142D01*
X182059Y112212D01*
X182032Y112257D01*
X182014Y112305D01*
X181969Y112361D01*
X181932Y112423D01*
X181893Y112457D01*
X181860Y112497D01*
X181800Y112536D01*
X181745Y112583D01*
X181697Y112602D01*
X181653Y112630D01*
X181584Y112648D01*
X181517Y112675D01*
X181446Y112683D01*
X181415Y112691D01*
X181392Y112689D01*
X181351Y112693D01*
X180802Y112693D01*
X177693Y115802D01*
X177693Y120198D01*
X180889Y123394D01*
X180931Y123452D01*
X180980Y123504D01*
X181002Y123551D01*
X181032Y123593D01*
X181054Y123662D01*
X181084Y123727D01*
X181089Y123779D01*
X181105Y123829D01*
X181103Y123900D01*
X181111Y123971D01*
X181100Y124022D01*
X181098Y124074D01*
X181074Y124142D01*
X181059Y124212D01*
X181032Y124257D01*
X181014Y124305D01*
X180969Y124361D01*
X180932Y124423D01*
X180893Y124457D01*
X180860Y124497D01*
X180800Y124536D01*
X180745Y124583D01*
X180697Y124602D01*
X180653Y124630D01*
X180584Y124648D01*
X180517Y124675D01*
X180446Y124683D01*
X180415Y124691D01*
X180392Y124689D01*
X180351Y124693D01*
X178802Y124693D01*
X175693Y127802D01*
X175693Y132198D01*
X178802Y135307D01*
X183198Y135307D01*
X186307Y132198D01*
X186307Y127802D01*
X183111Y124606D01*
X183069Y124548D01*
X183020Y124496D01*
X182998Y124449D01*
X182968Y124407D01*
X182946Y124338D01*
X182916Y124273D01*
X182911Y124221D01*
X182895Y124171D01*
X182897Y124100D01*
X182889Y124029D01*
X182900Y123978D01*
X182902Y123926D01*
X182926Y123858D01*
X182941Y123788D01*
X182968Y123743D01*
X182986Y123695D01*
X183031Y123639D01*
X183068Y123577D01*
X183107Y123543D01*
X183140Y123503D01*
X183200Y123464D01*
X183255Y123417D01*
X183303Y123398D01*
X183347Y123370D01*
X183416Y123352D01*
X183483Y123325D01*
X183554Y123317D01*
X183585Y123309D01*
X183608Y123311D01*
X183649Y123307D01*
X185198Y123307D01*
X188307Y120198D01*
X188307Y115802D01*
X188111Y115606D01*
X188069Y115548D01*
X188020Y115496D01*
X187998Y115449D01*
X187968Y115407D01*
X187946Y115338D01*
X187916Y115273D01*
X187911Y115221D01*
X187895Y115171D01*
X187897Y115100D01*
X187889Y115029D01*
X187900Y114978D01*
X187902Y114926D01*
X187926Y114858D01*
X187941Y114788D01*
X187968Y114743D01*
X187986Y114695D01*
X188031Y114639D01*
X188068Y114577D01*
X188107Y114543D01*
X188140Y114503D01*
X188200Y114464D01*
X188255Y114417D01*
X188303Y114398D01*
X188347Y114370D01*
X188416Y114352D01*
X188483Y114325D01*
X188554Y114317D01*
X188585Y114309D01*
X188608Y114311D01*
X188649Y114307D01*
X189198Y114307D01*
X192307Y111198D01*
X192307Y106802D01*
X189198Y103693D01*
X184802Y103693D01*
X183606Y104889D01*
X183548Y104931D01*
X183496Y104980D01*
X183449Y105002D01*
X183407Y105032D01*
X183338Y105054D01*
X183273Y105084D01*
X183221Y105089D01*
X183171Y105105D01*
X183100Y105103D01*
X183029Y105111D01*
X182978Y105100D01*
X182926Y105098D01*
X182858Y105074D01*
X182788Y105059D01*
X182743Y105032D01*
X182695Y105014D01*
X182639Y104969D01*
X182577Y104932D01*
X182543Y104893D01*
X182503Y104860D01*
X182464Y104800D01*
X182417Y104745D01*
X182398Y104697D01*
X182370Y104653D01*
X182352Y104584D01*
X182325Y104517D01*
X182317Y104446D01*
X182309Y104415D01*
X182311Y104392D01*
X182307Y104351D01*
X182307Y100802D01*
X182111Y100606D01*
X182069Y100548D01*
X182020Y100496D01*
X181998Y100449D01*
X181968Y100407D01*
X181946Y100338D01*
X181916Y100273D01*
X181911Y100221D01*
X181895Y100171D01*
X181897Y100100D01*
X181889Y100029D01*
X181900Y99978D01*
X181902Y99926D01*
X181926Y99858D01*
X181941Y99788D01*
X181968Y99743D01*
X181986Y99695D01*
X182031Y99639D01*
X182068Y99577D01*
X182107Y99543D01*
X182140Y99503D01*
X182200Y99464D01*
X182255Y99417D01*
X182303Y99398D01*
X182347Y99370D01*
X182416Y99352D01*
X182483Y99325D01*
X182554Y99317D01*
X182585Y99309D01*
X182608Y99311D01*
X182649Y99307D01*
X185198Y99307D01*
X188307Y96198D01*
X188307Y94649D01*
X188318Y94579D01*
X188320Y94507D01*
X188338Y94458D01*
X188346Y94407D01*
X188380Y94343D01*
X188405Y94276D01*
X188437Y94235D01*
X188462Y94189D01*
X188513Y94140D01*
X188558Y94084D01*
X188602Y94056D01*
X188640Y94020D01*
X188705Y93990D01*
X188765Y93951D01*
X188816Y93938D01*
X188863Y93916D01*
X188934Y93908D01*
X189004Y93891D01*
X189056Y93895D01*
X189107Y93889D01*
X189178Y93904D01*
X189249Y93910D01*
X189297Y93930D01*
X189348Y93941D01*
X189409Y93978D01*
X189475Y94006D01*
X189531Y94051D01*
X189559Y94068D01*
X189574Y94085D01*
X189606Y94111D01*
X189802Y94307D01*
X194198Y94307D01*
X197307Y91198D01*
X197307Y88068D01*
X197310Y88048D01*
X197308Y88029D01*
X197330Y87927D01*
X197346Y87825D01*
X197356Y87808D01*
X197360Y87788D01*
X197413Y87699D01*
X197462Y87608D01*
X197476Y87594D01*
X197486Y87577D01*
X197565Y87510D01*
X197640Y87438D01*
X197658Y87430D01*
X197673Y87417D01*
X197769Y87378D01*
X197863Y87335D01*
X197883Y87333D01*
X197901Y87325D01*
X198068Y87307D01*
X202198Y87307D01*
X205307Y84198D01*
X205307Y79802D01*
X202198Y76693D01*
X197802Y76693D01*
G37*
%LPD*%
%LPC*%
G36*
X-82198Y-198307D02*
X-82198Y-198307D01*
X-85307Y-195198D01*
X-85307Y-192068D01*
X-85310Y-192048D01*
X-85308Y-192029D01*
X-85330Y-191927D01*
X-85346Y-191825D01*
X-85356Y-191808D01*
X-85360Y-191788D01*
X-85413Y-191699D01*
X-85462Y-191608D01*
X-85476Y-191594D01*
X-85486Y-191577D01*
X-85565Y-191510D01*
X-85640Y-191438D01*
X-85658Y-191430D01*
X-85673Y-191417D01*
X-85769Y-191378D01*
X-85863Y-191335D01*
X-85883Y-191333D01*
X-85901Y-191325D01*
X-86068Y-191307D01*
X-89198Y-191307D01*
X-92307Y-188198D01*
X-92307Y-185068D01*
X-92310Y-185048D01*
X-92308Y-185029D01*
X-92330Y-184927D01*
X-92346Y-184825D01*
X-92356Y-184808D01*
X-92360Y-184788D01*
X-92413Y-184699D01*
X-92462Y-184608D01*
X-92476Y-184594D01*
X-92486Y-184577D01*
X-92565Y-184510D01*
X-92640Y-184438D01*
X-92658Y-184430D01*
X-92673Y-184417D01*
X-92769Y-184378D01*
X-92863Y-184335D01*
X-92883Y-184333D01*
X-92901Y-184325D01*
X-93068Y-184307D01*
X-97198Y-184307D01*
X-100307Y-181198D01*
X-100307Y-180649D01*
X-100318Y-180579D01*
X-100320Y-180507D01*
X-100338Y-180458D01*
X-100346Y-180407D01*
X-100380Y-180343D01*
X-100405Y-180276D01*
X-100437Y-180235D01*
X-100462Y-180189D01*
X-100514Y-180140D01*
X-100558Y-180084D01*
X-100602Y-180056D01*
X-100640Y-180020D01*
X-100705Y-179990D01*
X-100765Y-179951D01*
X-100816Y-179938D01*
X-100863Y-179916D01*
X-100934Y-179908D01*
X-101004Y-179891D01*
X-101056Y-179895D01*
X-101107Y-179889D01*
X-101178Y-179904D01*
X-101249Y-179910D01*
X-101297Y-179930D01*
X-101348Y-179941D01*
X-101409Y-179978D01*
X-101475Y-180006D01*
X-101531Y-180051D01*
X-101559Y-180068D01*
X-101574Y-180085D01*
X-101606Y-180111D01*
X-102802Y-181307D01*
X-107198Y-181307D01*
X-109462Y-179043D01*
X-109478Y-179032D01*
X-109490Y-179016D01*
X-109578Y-178960D01*
X-109661Y-178900D01*
X-109680Y-178894D01*
X-109697Y-178883D01*
X-109798Y-178858D01*
X-109897Y-178827D01*
X-109916Y-178828D01*
X-109936Y-178823D01*
X-110039Y-178831D01*
X-110142Y-178834D01*
X-110161Y-178840D01*
X-110181Y-178842D01*
X-110276Y-178882D01*
X-110373Y-178918D01*
X-110389Y-178931D01*
X-110407Y-178938D01*
X-110538Y-179043D01*
X-112802Y-181307D01*
X-117198Y-181307D01*
X-119462Y-179043D01*
X-119478Y-179032D01*
X-119490Y-179016D01*
X-119578Y-178960D01*
X-119661Y-178900D01*
X-119680Y-178894D01*
X-119697Y-178883D01*
X-119798Y-178858D01*
X-119897Y-178827D01*
X-119916Y-178828D01*
X-119936Y-178823D01*
X-120039Y-178831D01*
X-120142Y-178834D01*
X-120161Y-178840D01*
X-120181Y-178842D01*
X-120276Y-178882D01*
X-120373Y-178918D01*
X-120389Y-178931D01*
X-120407Y-178938D01*
X-120538Y-179043D01*
X-122802Y-181307D01*
X-127198Y-181307D01*
X-130307Y-178198D01*
X-130307Y-173802D01*
X-127198Y-170693D01*
X-122802Y-170693D01*
X-120538Y-172957D01*
X-120522Y-172968D01*
X-120510Y-172984D01*
X-120422Y-173040D01*
X-120339Y-173100D01*
X-120320Y-173106D01*
X-120303Y-173117D01*
X-120202Y-173142D01*
X-120103Y-173173D01*
X-120084Y-173172D01*
X-120064Y-173177D01*
X-119961Y-173169D01*
X-119858Y-173166D01*
X-119839Y-173160D01*
X-119819Y-173158D01*
X-119724Y-173118D01*
X-119627Y-173082D01*
X-119611Y-173069D01*
X-119593Y-173062D01*
X-119462Y-172957D01*
X-117198Y-170693D01*
X-112802Y-170693D01*
X-110538Y-172957D01*
X-110522Y-172968D01*
X-110510Y-172984D01*
X-110422Y-173040D01*
X-110339Y-173100D01*
X-110320Y-173106D01*
X-110303Y-173117D01*
X-110202Y-173142D01*
X-110103Y-173173D01*
X-110084Y-173172D01*
X-110064Y-173177D01*
X-109961Y-173169D01*
X-109858Y-173166D01*
X-109839Y-173160D01*
X-109819Y-173158D01*
X-109724Y-173118D01*
X-109627Y-173082D01*
X-109611Y-173069D01*
X-109593Y-173062D01*
X-109462Y-172957D01*
X-107198Y-170693D01*
X-102802Y-170693D01*
X-99693Y-173802D01*
X-99693Y-174351D01*
X-99682Y-174421D01*
X-99680Y-174493D01*
X-99662Y-174542D01*
X-99654Y-174593D01*
X-99620Y-174657D01*
X-99595Y-174724D01*
X-99563Y-174765D01*
X-99538Y-174811D01*
X-99486Y-174860D01*
X-99442Y-174916D01*
X-99398Y-174944D01*
X-99360Y-174980D01*
X-99295Y-175010D01*
X-99235Y-175049D01*
X-99184Y-175062D01*
X-99137Y-175084D01*
X-99066Y-175092D01*
X-98996Y-175109D01*
X-98944Y-175105D01*
X-98893Y-175111D01*
X-98822Y-175096D01*
X-98751Y-175090D01*
X-98703Y-175070D01*
X-98652Y-175059D01*
X-98591Y-175022D01*
X-98525Y-174994D01*
X-98469Y-174949D01*
X-98441Y-174932D01*
X-98426Y-174915D01*
X-98394Y-174889D01*
X-97198Y-173693D01*
X-92802Y-173693D01*
X-89693Y-176802D01*
X-89693Y-179932D01*
X-89690Y-179952D01*
X-89692Y-179971D01*
X-89670Y-180073D01*
X-89654Y-180175D01*
X-89644Y-180192D01*
X-89640Y-180212D01*
X-89587Y-180301D01*
X-89538Y-180392D01*
X-89524Y-180406D01*
X-89514Y-180423D01*
X-89435Y-180490D01*
X-89360Y-180562D01*
X-89342Y-180570D01*
X-89327Y-180583D01*
X-89231Y-180622D01*
X-89137Y-180665D01*
X-89117Y-180667D01*
X-89099Y-180675D01*
X-88932Y-180693D01*
X-84802Y-180693D01*
X-81693Y-183802D01*
X-81693Y-186932D01*
X-81691Y-186944D01*
X-81692Y-186953D01*
X-81691Y-186959D01*
X-81692Y-186971D01*
X-81670Y-187073D01*
X-81654Y-187175D01*
X-81644Y-187192D01*
X-81640Y-187212D01*
X-81587Y-187301D01*
X-81538Y-187392D01*
X-81524Y-187406D01*
X-81514Y-187423D01*
X-81435Y-187490D01*
X-81360Y-187562D01*
X-81342Y-187570D01*
X-81327Y-187583D01*
X-81231Y-187622D01*
X-81137Y-187665D01*
X-81117Y-187667D01*
X-81099Y-187675D01*
X-80932Y-187693D01*
X-77802Y-187693D01*
X-74693Y-190802D01*
X-74693Y-195198D01*
X-77802Y-198307D01*
X-82198Y-198307D01*
G37*
%LPD*%
%LPC*%
G36*
X-325198Y-141307D02*
X-325198Y-141307D01*
X-328462Y-138043D01*
X-328478Y-138032D01*
X-328490Y-138016D01*
X-328578Y-137960D01*
X-328661Y-137900D01*
X-328680Y-137894D01*
X-328697Y-137883D01*
X-328798Y-137858D01*
X-328897Y-137827D01*
X-328916Y-137828D01*
X-328936Y-137823D01*
X-329039Y-137831D01*
X-329142Y-137834D01*
X-329161Y-137840D01*
X-329181Y-137842D01*
X-329276Y-137882D01*
X-329373Y-137918D01*
X-329389Y-137931D01*
X-329407Y-137938D01*
X-329538Y-138043D01*
X-331802Y-140307D01*
X-336198Y-140307D01*
X-339307Y-137198D01*
X-339307Y-132802D01*
X-336198Y-129693D01*
X-331802Y-129693D01*
X-328538Y-132957D01*
X-328522Y-132968D01*
X-328510Y-132984D01*
X-328422Y-133040D01*
X-328339Y-133100D01*
X-328320Y-133106D01*
X-328303Y-133117D01*
X-328202Y-133142D01*
X-328103Y-133173D01*
X-328084Y-133172D01*
X-328064Y-133177D01*
X-327961Y-133169D01*
X-327858Y-133166D01*
X-327839Y-133160D01*
X-327819Y-133158D01*
X-327724Y-133118D01*
X-327627Y-133082D01*
X-327611Y-133069D01*
X-327593Y-133062D01*
X-327462Y-132957D01*
X-325198Y-130693D01*
X-320802Y-130693D01*
X-320606Y-130889D01*
X-320548Y-130931D01*
X-320496Y-130980D01*
X-320449Y-131002D01*
X-320407Y-131032D01*
X-320338Y-131054D01*
X-320273Y-131084D01*
X-320221Y-131089D01*
X-320171Y-131105D01*
X-320100Y-131103D01*
X-320029Y-131111D01*
X-319978Y-131100D01*
X-319926Y-131098D01*
X-319858Y-131074D01*
X-319788Y-131059D01*
X-319743Y-131032D01*
X-319695Y-131014D01*
X-319639Y-130969D01*
X-319577Y-130932D01*
X-319543Y-130893D01*
X-319503Y-130860D01*
X-319464Y-130800D01*
X-319417Y-130745D01*
X-319398Y-130697D01*
X-319370Y-130653D01*
X-319352Y-130584D01*
X-319325Y-130517D01*
X-319317Y-130446D01*
X-319309Y-130415D01*
X-319311Y-130392D01*
X-319307Y-130351D01*
X-319307Y-127802D01*
X-317043Y-125538D01*
X-317032Y-125522D01*
X-317016Y-125510D01*
X-316960Y-125422D01*
X-316900Y-125339D01*
X-316894Y-125320D01*
X-316883Y-125303D01*
X-316858Y-125202D01*
X-316827Y-125103D01*
X-316828Y-125084D01*
X-316823Y-125064D01*
X-316831Y-124961D01*
X-316834Y-124858D01*
X-316840Y-124839D01*
X-316842Y-124819D01*
X-316882Y-124724D01*
X-316918Y-124627D01*
X-316931Y-124611D01*
X-316938Y-124593D01*
X-317043Y-124462D01*
X-319307Y-122198D01*
X-319307Y-117802D01*
X-318111Y-116606D01*
X-318069Y-116548D01*
X-318020Y-116496D01*
X-317998Y-116449D01*
X-317968Y-116407D01*
X-317946Y-116338D01*
X-317916Y-116273D01*
X-317911Y-116221D01*
X-317895Y-116171D01*
X-317897Y-116100D01*
X-317889Y-116029D01*
X-317900Y-115978D01*
X-317902Y-115926D01*
X-317926Y-115858D01*
X-317941Y-115788D01*
X-317968Y-115743D01*
X-317986Y-115695D01*
X-318031Y-115639D01*
X-318068Y-115577D01*
X-318107Y-115543D01*
X-318140Y-115503D01*
X-318200Y-115464D01*
X-318255Y-115417D01*
X-318303Y-115398D01*
X-318347Y-115370D01*
X-318416Y-115352D01*
X-318483Y-115325D01*
X-318554Y-115317D01*
X-318585Y-115309D01*
X-318608Y-115311D01*
X-318649Y-115307D01*
X-319198Y-115307D01*
X-322307Y-112198D01*
X-322307Y-107802D01*
X-319198Y-104693D01*
X-314802Y-104693D01*
X-311693Y-107802D01*
X-311693Y-112198D01*
X-312889Y-113394D01*
X-312931Y-113452D01*
X-312980Y-113504D01*
X-313002Y-113551D01*
X-313032Y-113593D01*
X-313054Y-113662D01*
X-313084Y-113727D01*
X-313089Y-113779D01*
X-313105Y-113829D01*
X-313103Y-113900D01*
X-313111Y-113971D01*
X-313100Y-114022D01*
X-313098Y-114074D01*
X-313074Y-114142D01*
X-313059Y-114212D01*
X-313032Y-114257D01*
X-313014Y-114305D01*
X-312969Y-114361D01*
X-312932Y-114423D01*
X-312893Y-114457D01*
X-312860Y-114497D01*
X-312800Y-114536D01*
X-312745Y-114583D01*
X-312697Y-114602D01*
X-312653Y-114630D01*
X-312584Y-114648D01*
X-312517Y-114675D01*
X-312446Y-114683D01*
X-312415Y-114691D01*
X-312392Y-114689D01*
X-312351Y-114693D01*
X-311802Y-114693D01*
X-308693Y-117802D01*
X-308693Y-122198D01*
X-310957Y-124462D01*
X-310968Y-124478D01*
X-310984Y-124490D01*
X-311040Y-124578D01*
X-311100Y-124661D01*
X-311106Y-124680D01*
X-311117Y-124697D01*
X-311142Y-124798D01*
X-311173Y-124897D01*
X-311172Y-124916D01*
X-311177Y-124936D01*
X-311169Y-125039D01*
X-311166Y-125142D01*
X-311160Y-125161D01*
X-311158Y-125181D01*
X-311118Y-125276D01*
X-311082Y-125373D01*
X-311069Y-125389D01*
X-311062Y-125407D01*
X-310957Y-125538D01*
X-308693Y-127802D01*
X-308693Y-132198D01*
X-311802Y-135307D01*
X-316198Y-135307D01*
X-316394Y-135111D01*
X-316452Y-135069D01*
X-316504Y-135020D01*
X-316551Y-134998D01*
X-316593Y-134968D01*
X-316662Y-134946D01*
X-316727Y-134916D01*
X-316779Y-134911D01*
X-316829Y-134895D01*
X-316900Y-134897D01*
X-316971Y-134889D01*
X-317022Y-134900D01*
X-317074Y-134902D01*
X-317142Y-134926D01*
X-317212Y-134941D01*
X-317257Y-134968D01*
X-317305Y-134986D01*
X-317361Y-135031D01*
X-317423Y-135068D01*
X-317457Y-135107D01*
X-317497Y-135140D01*
X-317536Y-135200D01*
X-317583Y-135255D01*
X-317602Y-135303D01*
X-317630Y-135347D01*
X-317648Y-135416D01*
X-317675Y-135483D01*
X-317683Y-135554D01*
X-317691Y-135585D01*
X-317689Y-135608D01*
X-317693Y-135649D01*
X-317693Y-138198D01*
X-320802Y-141307D01*
X-325198Y-141307D01*
G37*
%LPD*%
%LPC*%
G36*
X41802Y191693D02*
X41802Y191693D01*
X38693Y194802D01*
X38693Y199198D01*
X41802Y202307D01*
X44351Y202307D01*
X44421Y202318D01*
X44493Y202320D01*
X44542Y202338D01*
X44593Y202346D01*
X44657Y202380D01*
X44724Y202405D01*
X44765Y202437D01*
X44811Y202462D01*
X44860Y202513D01*
X44916Y202558D01*
X44944Y202602D01*
X44980Y202640D01*
X45010Y202705D01*
X45049Y202765D01*
X45062Y202816D01*
X45084Y202863D01*
X45092Y202934D01*
X45109Y203004D01*
X45105Y203056D01*
X45111Y203107D01*
X45096Y203178D01*
X45090Y203249D01*
X45070Y203297D01*
X45059Y203348D01*
X45022Y203409D01*
X44994Y203475D01*
X44949Y203531D01*
X44932Y203559D01*
X44915Y203574D01*
X44889Y203606D01*
X44693Y203802D01*
X44693Y208198D01*
X47802Y211307D01*
X52198Y211307D01*
X53394Y210111D01*
X53452Y210069D01*
X53504Y210020D01*
X53551Y209998D01*
X53593Y209968D01*
X53662Y209946D01*
X53727Y209916D01*
X53779Y209911D01*
X53829Y209895D01*
X53900Y209897D01*
X53971Y209889D01*
X54022Y209900D01*
X54074Y209902D01*
X54142Y209926D01*
X54212Y209941D01*
X54257Y209968D01*
X54305Y209986D01*
X54361Y210031D01*
X54423Y210068D01*
X54457Y210107D01*
X54497Y210140D01*
X54536Y210200D01*
X54583Y210255D01*
X54602Y210303D01*
X54630Y210347D01*
X54648Y210416D01*
X54675Y210483D01*
X54683Y210554D01*
X54691Y210585D01*
X54689Y210608D01*
X54693Y210649D01*
X54693Y212198D01*
X57802Y215307D01*
X62198Y215307D01*
X65307Y212198D01*
X65307Y207802D01*
X62198Y204693D01*
X57802Y204693D01*
X56606Y205889D01*
X56548Y205931D01*
X56496Y205980D01*
X56449Y206002D01*
X56407Y206032D01*
X56338Y206054D01*
X56273Y206084D01*
X56221Y206089D01*
X56171Y206105D01*
X56100Y206103D01*
X56029Y206111D01*
X55978Y206100D01*
X55926Y206098D01*
X55858Y206074D01*
X55788Y206059D01*
X55743Y206032D01*
X55695Y206014D01*
X55639Y205969D01*
X55577Y205932D01*
X55543Y205893D01*
X55503Y205860D01*
X55464Y205800D01*
X55417Y205745D01*
X55398Y205697D01*
X55370Y205653D01*
X55352Y205584D01*
X55325Y205517D01*
X55317Y205446D01*
X55309Y205415D01*
X55311Y205392D01*
X55307Y205351D01*
X55307Y203802D01*
X52198Y200693D01*
X49649Y200693D01*
X49579Y200682D01*
X49507Y200680D01*
X49458Y200662D01*
X49407Y200654D01*
X49343Y200620D01*
X49276Y200595D01*
X49235Y200563D01*
X49189Y200538D01*
X49140Y200487D01*
X49084Y200442D01*
X49056Y200398D01*
X49020Y200360D01*
X48990Y200295D01*
X48951Y200235D01*
X48938Y200184D01*
X48916Y200137D01*
X48908Y200066D01*
X48891Y199996D01*
X48895Y199944D01*
X48889Y199893D01*
X48904Y199822D01*
X48910Y199751D01*
X48930Y199703D01*
X48941Y199652D01*
X48978Y199591D01*
X49006Y199525D01*
X49051Y199469D01*
X49068Y199441D01*
X49085Y199426D01*
X49111Y199394D01*
X49307Y199198D01*
X49307Y194802D01*
X46198Y191693D01*
X41802Y191693D01*
G37*
%LPD*%
%LPC*%
G36*
X28802Y194693D02*
X28802Y194693D01*
X25693Y197802D01*
X25693Y198351D01*
X25682Y198421D01*
X25680Y198493D01*
X25662Y198542D01*
X25654Y198593D01*
X25620Y198657D01*
X25595Y198724D01*
X25563Y198765D01*
X25538Y198811D01*
X25486Y198860D01*
X25442Y198916D01*
X25398Y198944D01*
X25360Y198980D01*
X25295Y199010D01*
X25235Y199049D01*
X25184Y199062D01*
X25137Y199084D01*
X25066Y199092D01*
X24996Y199109D01*
X24944Y199105D01*
X24893Y199111D01*
X24822Y199096D01*
X24751Y199090D01*
X24703Y199070D01*
X24652Y199059D01*
X24591Y199022D01*
X24525Y198994D01*
X24469Y198949D01*
X24441Y198932D01*
X24426Y198915D01*
X24394Y198889D01*
X23198Y197693D01*
X18802Y197693D01*
X17538Y198957D01*
X17522Y198968D01*
X17510Y198984D01*
X17422Y199040D01*
X17339Y199100D01*
X17320Y199106D01*
X17303Y199117D01*
X17202Y199142D01*
X17103Y199173D01*
X17084Y199172D01*
X17064Y199177D01*
X16961Y199169D01*
X16858Y199166D01*
X16839Y199160D01*
X16819Y199158D01*
X16724Y199118D01*
X16627Y199082D01*
X16611Y199069D01*
X16593Y199062D01*
X16462Y198957D01*
X13198Y195693D01*
X8802Y195693D01*
X5693Y198802D01*
X5693Y203198D01*
X8802Y206307D01*
X13198Y206307D01*
X14462Y205043D01*
X14478Y205032D01*
X14490Y205016D01*
X14578Y204960D01*
X14661Y204900D01*
X14680Y204894D01*
X14697Y204883D01*
X14798Y204858D01*
X14897Y204827D01*
X14916Y204828D01*
X14936Y204823D01*
X15039Y204831D01*
X15142Y204834D01*
X15161Y204840D01*
X15181Y204842D01*
X15276Y204882D01*
X15373Y204918D01*
X15389Y204931D01*
X15407Y204938D01*
X15538Y205043D01*
X18802Y208307D01*
X23198Y208307D01*
X26307Y205198D01*
X26307Y204649D01*
X26318Y204579D01*
X26320Y204507D01*
X26338Y204458D01*
X26346Y204407D01*
X26380Y204343D01*
X26405Y204276D01*
X26437Y204235D01*
X26462Y204189D01*
X26514Y204140D01*
X26558Y204084D01*
X26602Y204056D01*
X26640Y204020D01*
X26705Y203990D01*
X26765Y203951D01*
X26816Y203938D01*
X26863Y203916D01*
X26934Y203908D01*
X27004Y203891D01*
X27056Y203895D01*
X27107Y203889D01*
X27178Y203904D01*
X27249Y203910D01*
X27297Y203930D01*
X27348Y203941D01*
X27409Y203978D01*
X27475Y204006D01*
X27531Y204051D01*
X27559Y204068D01*
X27574Y204085D01*
X27606Y204111D01*
X28802Y205307D01*
X33198Y205307D01*
X36307Y202198D01*
X36307Y197802D01*
X33198Y194693D01*
X28802Y194693D01*
G37*
%LPD*%
%LPC*%
G36*
X-61198Y204693D02*
X-61198Y204693D01*
X-64307Y207802D01*
X-64307Y212198D01*
X-61198Y215307D01*
X-56802Y215307D01*
X-55606Y214111D01*
X-55548Y214069D01*
X-55496Y214020D01*
X-55449Y213998D01*
X-55407Y213968D01*
X-55338Y213946D01*
X-55273Y213916D01*
X-55221Y213911D01*
X-55171Y213895D01*
X-55100Y213897D01*
X-55029Y213889D01*
X-54978Y213900D01*
X-54926Y213902D01*
X-54858Y213926D01*
X-54788Y213941D01*
X-54743Y213968D01*
X-54695Y213986D01*
X-54639Y214031D01*
X-54577Y214068D01*
X-54543Y214107D01*
X-54503Y214140D01*
X-54464Y214200D01*
X-54417Y214255D01*
X-54398Y214303D01*
X-54370Y214347D01*
X-54352Y214416D01*
X-54325Y214483D01*
X-54317Y214554D01*
X-54309Y214585D01*
X-54311Y214608D01*
X-54307Y214649D01*
X-54307Y217198D01*
X-51198Y220307D01*
X-46802Y220307D01*
X-44038Y217543D01*
X-44022Y217532D01*
X-44010Y217516D01*
X-43922Y217460D01*
X-43839Y217400D01*
X-43820Y217394D01*
X-43803Y217383D01*
X-43702Y217358D01*
X-43603Y217327D01*
X-43584Y217328D01*
X-43564Y217323D01*
X-43461Y217331D01*
X-43358Y217334D01*
X-43339Y217340D01*
X-43319Y217342D01*
X-43224Y217382D01*
X-43127Y217418D01*
X-43111Y217431D01*
X-43093Y217438D01*
X-42962Y217543D01*
X-41198Y219307D01*
X-36802Y219307D01*
X-33693Y216198D01*
X-33693Y211802D01*
X-36802Y208693D01*
X-41198Y208693D01*
X-43962Y211457D01*
X-43978Y211468D01*
X-43990Y211484D01*
X-44078Y211540D01*
X-44161Y211600D01*
X-44180Y211606D01*
X-44197Y211617D01*
X-44298Y211642D01*
X-44397Y211673D01*
X-44416Y211672D01*
X-44436Y211677D01*
X-44539Y211669D01*
X-44642Y211666D01*
X-44661Y211660D01*
X-44681Y211658D01*
X-44776Y211618D01*
X-44873Y211582D01*
X-44889Y211569D01*
X-44907Y211562D01*
X-45038Y211457D01*
X-46802Y209693D01*
X-51198Y209693D01*
X-52394Y210889D01*
X-52452Y210931D01*
X-52504Y210980D01*
X-52551Y211002D01*
X-52593Y211032D01*
X-52662Y211054D01*
X-52727Y211084D01*
X-52779Y211089D01*
X-52829Y211105D01*
X-52900Y211103D01*
X-52971Y211111D01*
X-53022Y211100D01*
X-53074Y211098D01*
X-53142Y211074D01*
X-53212Y211059D01*
X-53257Y211032D01*
X-53305Y211014D01*
X-53361Y210969D01*
X-53423Y210932D01*
X-53457Y210893D01*
X-53497Y210860D01*
X-53536Y210800D01*
X-53583Y210745D01*
X-53602Y210697D01*
X-53630Y210653D01*
X-53648Y210584D01*
X-53675Y210517D01*
X-53683Y210446D01*
X-53691Y210415D01*
X-53689Y210392D01*
X-53693Y210351D01*
X-53693Y207802D01*
X-56802Y204693D01*
X-61198Y204693D01*
G37*
%LPD*%
%LPC*%
G36*
X169881Y275555D02*
X169881Y275555D01*
X166520Y276947D01*
X163947Y279520D01*
X162555Y282881D01*
X162555Y286519D01*
X163947Y289880D01*
X166520Y292453D01*
X169881Y293845D01*
X173519Y293845D01*
X176880Y292453D01*
X179453Y289880D01*
X180845Y286519D01*
X180845Y282881D01*
X179453Y279520D01*
X176880Y276947D01*
X173519Y275555D01*
X169881Y275555D01*
G37*
%LPD*%
%LPC*%
G36*
X144481Y275555D02*
X144481Y275555D01*
X141120Y276947D01*
X138547Y279520D01*
X137155Y282881D01*
X137155Y286519D01*
X138547Y289880D01*
X141120Y292453D01*
X144481Y293845D01*
X148119Y293845D01*
X151480Y292453D01*
X154053Y289880D01*
X155445Y286519D01*
X155445Y282881D01*
X154053Y279520D01*
X151480Y276947D01*
X148119Y275555D01*
X144481Y275555D01*
G37*
%LPD*%
%LPC*%
G36*
X144481Y300955D02*
X144481Y300955D01*
X141120Y302347D01*
X138547Y304920D01*
X137155Y308281D01*
X137155Y311919D01*
X138547Y315280D01*
X141120Y317853D01*
X144481Y319245D01*
X148119Y319245D01*
X151480Y317853D01*
X154053Y315280D01*
X155445Y311919D01*
X155445Y308281D01*
X154053Y304920D01*
X151480Y302347D01*
X148119Y300955D01*
X144481Y300955D01*
G37*
%LPD*%
%LPC*%
G36*
X315451Y-65025D02*
X315451Y-65025D01*
X312090Y-63633D01*
X309517Y-61060D01*
X308125Y-57699D01*
X308125Y-54061D01*
X309517Y-50700D01*
X312090Y-48127D01*
X315451Y-46735D01*
X319089Y-46735D01*
X322450Y-48127D01*
X325023Y-50700D01*
X326415Y-54061D01*
X326415Y-57699D01*
X325023Y-61060D01*
X322450Y-63633D01*
X319089Y-65025D01*
X315451Y-65025D01*
G37*
%LPD*%
%LPC*%
G36*
X144481Y224755D02*
X144481Y224755D01*
X141120Y226147D01*
X138547Y228720D01*
X137155Y232081D01*
X137155Y235719D01*
X138547Y239080D01*
X141120Y241653D01*
X144481Y243045D01*
X148119Y243045D01*
X151480Y241653D01*
X154053Y239080D01*
X155445Y235719D01*
X155445Y232081D01*
X154053Y228720D01*
X151480Y226147D01*
X148119Y224755D01*
X144481Y224755D01*
G37*
%LPD*%
%LPC*%
G36*
X315451Y-90425D02*
X315451Y-90425D01*
X312090Y-89033D01*
X309517Y-86460D01*
X308125Y-83099D01*
X308125Y-79461D01*
X309517Y-76100D01*
X312090Y-73527D01*
X315451Y-72135D01*
X319089Y-72135D01*
X322450Y-73527D01*
X325023Y-76100D01*
X326415Y-79461D01*
X326415Y-83099D01*
X325023Y-86460D01*
X322450Y-89033D01*
X319089Y-90425D01*
X315451Y-90425D01*
G37*
%LPD*%
%LPC*%
G36*
X169881Y224755D02*
X169881Y224755D01*
X166520Y226147D01*
X163947Y228720D01*
X162555Y232081D01*
X162555Y235719D01*
X163947Y239080D01*
X166520Y241653D01*
X169881Y243045D01*
X173519Y243045D01*
X176880Y241653D01*
X179453Y239080D01*
X180845Y235719D01*
X180845Y232081D01*
X179453Y228720D01*
X176880Y226147D01*
X173519Y224755D01*
X169881Y224755D01*
G37*
%LPD*%
%LPC*%
G36*
X169881Y300955D02*
X169881Y300955D01*
X166520Y302347D01*
X163947Y304920D01*
X162555Y308281D01*
X162555Y311919D01*
X163947Y315280D01*
X166520Y317853D01*
X169881Y319245D01*
X173519Y319245D01*
X176880Y317853D01*
X179453Y315280D01*
X180845Y311919D01*
X180845Y308281D01*
X179453Y304920D01*
X176880Y302347D01*
X173519Y300955D01*
X169881Y300955D01*
G37*
%LPD*%
%LPC*%
G36*
X169881Y250155D02*
X169881Y250155D01*
X166520Y251547D01*
X163947Y254120D01*
X162555Y257481D01*
X162555Y261119D01*
X163947Y264480D01*
X166520Y267053D01*
X169881Y268445D01*
X173519Y268445D01*
X176880Y267053D01*
X179453Y264480D01*
X180845Y261119D01*
X180845Y257481D01*
X179453Y254120D01*
X176880Y251547D01*
X173519Y250155D01*
X169881Y250155D01*
G37*
%LPD*%
%LPC*%
G36*
X144481Y250155D02*
X144481Y250155D01*
X141120Y251547D01*
X138547Y254120D01*
X137155Y257481D01*
X137155Y261119D01*
X138547Y264480D01*
X141120Y267053D01*
X144481Y268445D01*
X148119Y268445D01*
X151480Y267053D01*
X154053Y264480D01*
X155445Y261119D01*
X155445Y257481D01*
X154053Y254120D01*
X151480Y251547D01*
X148119Y250155D01*
X144481Y250155D01*
G37*
%LPD*%
%LPC*%
G36*
X202897Y-176965D02*
X202897Y-176965D01*
X199565Y-175585D01*
X197015Y-173035D01*
X195635Y-169703D01*
X195635Y-166097D01*
X197015Y-162765D01*
X199565Y-160215D01*
X202897Y-158835D01*
X206503Y-158835D01*
X209835Y-160215D01*
X212385Y-162765D01*
X213765Y-166097D01*
X213765Y-169703D01*
X212385Y-173035D01*
X209835Y-175585D01*
X206503Y-176965D01*
X202897Y-176965D01*
G37*
%LPD*%
%LPC*%
G36*
X58897Y-298465D02*
X58897Y-298465D01*
X55565Y-297085D01*
X53015Y-294535D01*
X51635Y-291203D01*
X51635Y-287597D01*
X53015Y-284265D01*
X55565Y-281715D01*
X58897Y-280335D01*
X62503Y-280335D01*
X65835Y-281715D01*
X68385Y-284265D01*
X69765Y-287597D01*
X69765Y-291203D01*
X68385Y-294535D01*
X65835Y-297085D01*
X62503Y-298465D01*
X58897Y-298465D01*
G37*
%LPD*%
%LPC*%
G36*
X209895Y44443D02*
X209895Y44443D01*
X207852Y45289D01*
X206289Y46852D01*
X205443Y48895D01*
X205443Y51105D01*
X206289Y53148D01*
X207780Y54639D01*
X207792Y54655D01*
X207807Y54667D01*
X207837Y54713D01*
X207859Y54736D01*
X207874Y54769D01*
X207924Y54838D01*
X207929Y54857D01*
X207940Y54874D01*
X207961Y54957D01*
X207962Y54959D01*
X207963Y54962D01*
X207966Y54975D01*
X207996Y55073D01*
X207995Y55093D01*
X208000Y55113D01*
X207992Y55216D01*
X207990Y55319D01*
X207983Y55338D01*
X207981Y55358D01*
X207941Y55453D01*
X207905Y55550D01*
X207893Y55566D01*
X207885Y55584D01*
X207780Y55715D01*
X204693Y58802D01*
X204693Y63198D01*
X207802Y66307D01*
X212198Y66307D01*
X215307Y63198D01*
X215307Y58802D01*
X212880Y56375D01*
X212853Y56338D01*
X212819Y56307D01*
X212782Y56239D01*
X212736Y56175D01*
X212723Y56132D01*
X212701Y56091D01*
X212687Y56015D01*
X212664Y55940D01*
X212665Y55894D01*
X212657Y55849D01*
X212668Y55772D01*
X212670Y55694D01*
X212686Y55651D01*
X212693Y55606D01*
X212728Y55537D01*
X212755Y55463D01*
X212784Y55428D01*
X212804Y55387D01*
X212860Y55332D01*
X212909Y55271D01*
X212947Y55247D01*
X212980Y55214D01*
X213100Y55148D01*
X213116Y55138D01*
X213120Y55137D01*
X213127Y55134D01*
X214148Y54711D01*
X215711Y53148D01*
X216557Y51105D01*
X216557Y48895D01*
X215711Y46852D01*
X214148Y45289D01*
X212105Y44443D01*
X209895Y44443D01*
G37*
%LPD*%
%LPC*%
G36*
X-348198Y-115307D02*
X-348198Y-115307D01*
X-351307Y-112198D01*
X-351307Y-107802D01*
X-349111Y-105606D01*
X-349069Y-105548D01*
X-349020Y-105496D01*
X-348998Y-105449D01*
X-348968Y-105407D01*
X-348946Y-105338D01*
X-348916Y-105273D01*
X-348911Y-105221D01*
X-348895Y-105171D01*
X-348897Y-105100D01*
X-348889Y-105029D01*
X-348900Y-104978D01*
X-348902Y-104926D01*
X-348926Y-104858D01*
X-348941Y-104788D01*
X-348968Y-104743D01*
X-348986Y-104695D01*
X-349031Y-104639D01*
X-349068Y-104577D01*
X-349107Y-104543D01*
X-349140Y-104503D01*
X-349200Y-104464D01*
X-349255Y-104417D01*
X-349303Y-104398D01*
X-349347Y-104370D01*
X-349416Y-104352D01*
X-349483Y-104325D01*
X-349554Y-104317D01*
X-349585Y-104309D01*
X-349608Y-104311D01*
X-349649Y-104307D01*
X-350198Y-104307D01*
X-353307Y-101198D01*
X-353307Y-96802D01*
X-350198Y-93693D01*
X-345802Y-93693D01*
X-342693Y-96802D01*
X-342693Y-101198D01*
X-344889Y-103394D01*
X-344931Y-103452D01*
X-344980Y-103504D01*
X-345002Y-103551D01*
X-345032Y-103593D01*
X-345054Y-103662D01*
X-345084Y-103727D01*
X-345089Y-103779D01*
X-345105Y-103829D01*
X-345103Y-103900D01*
X-345111Y-103971D01*
X-345100Y-104022D01*
X-345098Y-104074D01*
X-345074Y-104142D01*
X-345059Y-104212D01*
X-345032Y-104257D01*
X-345014Y-104305D01*
X-344969Y-104361D01*
X-344932Y-104423D01*
X-344893Y-104457D01*
X-344860Y-104497D01*
X-344800Y-104536D01*
X-344745Y-104583D01*
X-344697Y-104602D01*
X-344653Y-104630D01*
X-344584Y-104648D01*
X-344517Y-104675D01*
X-344446Y-104683D01*
X-344415Y-104691D01*
X-344392Y-104689D01*
X-344351Y-104693D01*
X-343802Y-104693D01*
X-340693Y-107802D01*
X-340693Y-112198D01*
X-343802Y-115307D01*
X-348198Y-115307D01*
G37*
%LPD*%
%LPC*%
G36*
X-204198Y-194307D02*
X-204198Y-194307D01*
X-207307Y-191198D01*
X-207307Y-186802D01*
X-204198Y-183693D01*
X-199802Y-183693D01*
X-198606Y-184889D01*
X-198548Y-184931D01*
X-198496Y-184980D01*
X-198449Y-185002D01*
X-198407Y-185032D01*
X-198338Y-185054D01*
X-198273Y-185084D01*
X-198221Y-185089D01*
X-198171Y-185105D01*
X-198100Y-185103D01*
X-198029Y-185111D01*
X-197978Y-185100D01*
X-197926Y-185098D01*
X-197858Y-185074D01*
X-197788Y-185059D01*
X-197743Y-185032D01*
X-197695Y-185014D01*
X-197639Y-184969D01*
X-197577Y-184932D01*
X-197543Y-184893D01*
X-197503Y-184860D01*
X-197464Y-184800D01*
X-197417Y-184745D01*
X-197398Y-184697D01*
X-197370Y-184653D01*
X-197352Y-184584D01*
X-197325Y-184517D01*
X-197317Y-184446D01*
X-197309Y-184415D01*
X-197311Y-184392D01*
X-197307Y-184351D01*
X-197307Y-180802D01*
X-194198Y-177693D01*
X-189802Y-177693D01*
X-186693Y-180802D01*
X-186693Y-185198D01*
X-189802Y-188307D01*
X-194198Y-188307D01*
X-195394Y-187111D01*
X-195452Y-187069D01*
X-195504Y-187020D01*
X-195551Y-186998D01*
X-195593Y-186968D01*
X-195662Y-186946D01*
X-195727Y-186916D01*
X-195779Y-186911D01*
X-195829Y-186895D01*
X-195900Y-186897D01*
X-195971Y-186889D01*
X-196022Y-186900D01*
X-196074Y-186902D01*
X-196142Y-186926D01*
X-196212Y-186941D01*
X-196257Y-186968D01*
X-196305Y-186986D01*
X-196361Y-187031D01*
X-196423Y-187068D01*
X-196457Y-187107D01*
X-196497Y-187140D01*
X-196536Y-187200D01*
X-196583Y-187255D01*
X-196602Y-187303D01*
X-196630Y-187347D01*
X-196648Y-187416D01*
X-196675Y-187483D01*
X-196683Y-187554D01*
X-196691Y-187585D01*
X-196689Y-187608D01*
X-196693Y-187649D01*
X-196693Y-191198D01*
X-199802Y-194307D01*
X-204198Y-194307D01*
G37*
%LPD*%
%LPC*%
G36*
X54802Y219693D02*
X54802Y219693D01*
X51693Y222802D01*
X51693Y227198D01*
X54457Y229962D01*
X54468Y229978D01*
X54484Y229990D01*
X54540Y230078D01*
X54600Y230161D01*
X54606Y230180D01*
X54617Y230197D01*
X54642Y230298D01*
X54673Y230397D01*
X54672Y230416D01*
X54677Y230436D01*
X54669Y230539D01*
X54666Y230642D01*
X54660Y230661D01*
X54658Y230681D01*
X54618Y230776D01*
X54582Y230873D01*
X54569Y230889D01*
X54562Y230907D01*
X54457Y231038D01*
X51693Y233802D01*
X51693Y238198D01*
X54802Y241307D01*
X59198Y241307D01*
X62307Y238198D01*
X62307Y233802D01*
X59543Y231038D01*
X59532Y231022D01*
X59516Y231010D01*
X59460Y230922D01*
X59400Y230839D01*
X59394Y230820D01*
X59383Y230803D01*
X59358Y230702D01*
X59327Y230603D01*
X59328Y230584D01*
X59323Y230564D01*
X59331Y230461D01*
X59334Y230358D01*
X59340Y230339D01*
X59342Y230319D01*
X59382Y230224D01*
X59418Y230127D01*
X59431Y230111D01*
X59438Y230093D01*
X59543Y229962D01*
X62307Y227198D01*
X62307Y222802D01*
X59198Y219693D01*
X54802Y219693D01*
G37*
%LPD*%
%LPC*%
G36*
X98802Y173693D02*
X98802Y173693D01*
X95693Y176802D01*
X95693Y181198D01*
X98802Y184307D01*
X103198Y184307D01*
X105962Y181543D01*
X105978Y181532D01*
X105990Y181516D01*
X106078Y181460D01*
X106161Y181400D01*
X106180Y181394D01*
X106197Y181383D01*
X106298Y181358D01*
X106397Y181327D01*
X106416Y181328D01*
X106436Y181323D01*
X106539Y181331D01*
X106642Y181334D01*
X106661Y181340D01*
X106681Y181342D01*
X106776Y181382D01*
X106873Y181418D01*
X106889Y181431D01*
X106907Y181438D01*
X107038Y181543D01*
X109802Y184307D01*
X114198Y184307D01*
X117307Y181198D01*
X117307Y176802D01*
X114198Y173693D01*
X109802Y173693D01*
X107038Y176457D01*
X107022Y176468D01*
X107010Y176484D01*
X106922Y176540D01*
X106839Y176600D01*
X106820Y176606D01*
X106803Y176617D01*
X106702Y176642D01*
X106603Y176673D01*
X106584Y176672D01*
X106564Y176677D01*
X106461Y176669D01*
X106358Y176666D01*
X106339Y176660D01*
X106319Y176658D01*
X106224Y176618D01*
X106127Y176582D01*
X106111Y176569D01*
X106093Y176562D01*
X105962Y176457D01*
X103198Y173693D01*
X98802Y173693D01*
G37*
%LPD*%
%LPC*%
G36*
X112802Y135693D02*
X112802Y135693D01*
X109693Y138802D01*
X109693Y143198D01*
X112802Y146307D01*
X113351Y146307D01*
X113421Y146318D01*
X113493Y146320D01*
X113542Y146338D01*
X113593Y146346D01*
X113657Y146380D01*
X113724Y146405D01*
X113765Y146437D01*
X113811Y146462D01*
X113860Y146514D01*
X113916Y146558D01*
X113944Y146602D01*
X113980Y146640D01*
X114010Y146705D01*
X114049Y146765D01*
X114062Y146816D01*
X114084Y146863D01*
X114092Y146934D01*
X114109Y147004D01*
X114105Y147056D01*
X114111Y147107D01*
X114096Y147178D01*
X114090Y147249D01*
X114070Y147297D01*
X114059Y147348D01*
X114022Y147409D01*
X113994Y147475D01*
X113949Y147531D01*
X113932Y147559D01*
X113915Y147574D01*
X113889Y147606D01*
X112693Y148802D01*
X112693Y153198D01*
X115802Y156307D01*
X120198Y156307D01*
X123307Y153198D01*
X123307Y148802D01*
X120198Y145693D01*
X119649Y145693D01*
X119579Y145682D01*
X119507Y145680D01*
X119458Y145662D01*
X119407Y145654D01*
X119343Y145620D01*
X119276Y145595D01*
X119235Y145563D01*
X119189Y145538D01*
X119140Y145486D01*
X119084Y145442D01*
X119056Y145398D01*
X119020Y145360D01*
X118990Y145295D01*
X118951Y145235D01*
X118938Y145184D01*
X118916Y145137D01*
X118908Y145066D01*
X118891Y144996D01*
X118895Y144944D01*
X118889Y144893D01*
X118904Y144822D01*
X118910Y144751D01*
X118930Y144703D01*
X118941Y144652D01*
X118978Y144591D01*
X119006Y144525D01*
X119051Y144469D01*
X119068Y144441D01*
X119085Y144426D01*
X119111Y144394D01*
X120307Y143198D01*
X120307Y138802D01*
X117198Y135693D01*
X112802Y135693D01*
G37*
%LPD*%
%LPC*%
G36*
X151802Y144693D02*
X151802Y144693D01*
X148693Y147802D01*
X148693Y152198D01*
X150457Y153962D01*
X150468Y153978D01*
X150484Y153990D01*
X150540Y154078D01*
X150600Y154161D01*
X150606Y154180D01*
X150617Y154197D01*
X150642Y154298D01*
X150673Y154397D01*
X150672Y154416D01*
X150677Y154436D01*
X150669Y154539D01*
X150666Y154642D01*
X150660Y154661D01*
X150658Y154681D01*
X150618Y154776D01*
X150582Y154873D01*
X150569Y154889D01*
X150562Y154907D01*
X150457Y155038D01*
X147693Y157802D01*
X147693Y162198D01*
X150802Y165307D01*
X155198Y165307D01*
X158307Y162198D01*
X158307Y157802D01*
X156543Y156038D01*
X156532Y156022D01*
X156516Y156010D01*
X156460Y155922D01*
X156400Y155839D01*
X156394Y155820D01*
X156383Y155803D01*
X156358Y155702D01*
X156327Y155603D01*
X156328Y155584D01*
X156323Y155564D01*
X156331Y155461D01*
X156334Y155358D01*
X156340Y155339D01*
X156342Y155319D01*
X156382Y155224D01*
X156418Y155127D01*
X156431Y155111D01*
X156438Y155093D01*
X156543Y154962D01*
X159307Y152198D01*
X159307Y147802D01*
X156198Y144693D01*
X151802Y144693D01*
G37*
%LPD*%
%LPC*%
G36*
X-264198Y-252307D02*
X-264198Y-252307D01*
X-267307Y-249198D01*
X-267307Y-244802D01*
X-265043Y-242538D01*
X-265032Y-242522D01*
X-265016Y-242510D01*
X-264960Y-242422D01*
X-264900Y-242339D01*
X-264894Y-242320D01*
X-264883Y-242303D01*
X-264858Y-242202D01*
X-264827Y-242103D01*
X-264828Y-242084D01*
X-264823Y-242064D01*
X-264831Y-241961D01*
X-264834Y-241858D01*
X-264840Y-241839D01*
X-264842Y-241819D01*
X-264882Y-241724D01*
X-264918Y-241627D01*
X-264931Y-241611D01*
X-264938Y-241593D01*
X-265043Y-241462D01*
X-267307Y-239198D01*
X-267307Y-234802D01*
X-264198Y-231693D01*
X-259802Y-231693D01*
X-256693Y-234802D01*
X-256693Y-239198D01*
X-258957Y-241462D01*
X-258968Y-241478D01*
X-258984Y-241490D01*
X-259040Y-241578D01*
X-259100Y-241661D01*
X-259106Y-241680D01*
X-259117Y-241697D01*
X-259142Y-241798D01*
X-259173Y-241897D01*
X-259172Y-241916D01*
X-259177Y-241936D01*
X-259169Y-242039D01*
X-259166Y-242142D01*
X-259160Y-242161D01*
X-259158Y-242181D01*
X-259118Y-242276D01*
X-259082Y-242373D01*
X-259069Y-242389D01*
X-259062Y-242407D01*
X-258957Y-242538D01*
X-256693Y-244802D01*
X-256693Y-249198D01*
X-259802Y-252307D01*
X-264198Y-252307D01*
G37*
%LPD*%
%LPC*%
G36*
X-248198Y-96307D02*
X-248198Y-96307D01*
X-251307Y-93198D01*
X-251307Y-88802D01*
X-249043Y-86538D01*
X-249032Y-86522D01*
X-249016Y-86510D01*
X-248960Y-86422D01*
X-248900Y-86339D01*
X-248894Y-86320D01*
X-248883Y-86303D01*
X-248858Y-86202D01*
X-248827Y-86103D01*
X-248828Y-86084D01*
X-248823Y-86064D01*
X-248831Y-85961D01*
X-248834Y-85858D01*
X-248840Y-85839D01*
X-248842Y-85819D01*
X-248882Y-85724D01*
X-248918Y-85627D01*
X-248931Y-85611D01*
X-248938Y-85593D01*
X-249043Y-85462D01*
X-251307Y-83198D01*
X-251307Y-78802D01*
X-248198Y-75693D01*
X-243802Y-75693D01*
X-240693Y-78802D01*
X-240693Y-83198D01*
X-242957Y-85462D01*
X-242968Y-85478D01*
X-242984Y-85490D01*
X-243040Y-85578D01*
X-243100Y-85661D01*
X-243106Y-85680D01*
X-243117Y-85697D01*
X-243142Y-85798D01*
X-243173Y-85897D01*
X-243172Y-85916D01*
X-243177Y-85936D01*
X-243169Y-86039D01*
X-243166Y-86142D01*
X-243160Y-86161D01*
X-243158Y-86181D01*
X-243118Y-86276D01*
X-243082Y-86373D01*
X-243069Y-86389D01*
X-243062Y-86407D01*
X-242957Y-86538D01*
X-240693Y-88802D01*
X-240693Y-93198D01*
X-243802Y-96307D01*
X-248198Y-96307D01*
G37*
%LPD*%
%LPC*%
G36*
X132802Y173693D02*
X132802Y173693D01*
X129693Y176802D01*
X129693Y181198D01*
X132802Y184307D01*
X137198Y184307D01*
X139462Y182043D01*
X139478Y182032D01*
X139490Y182016D01*
X139578Y181960D01*
X139661Y181900D01*
X139680Y181894D01*
X139697Y181883D01*
X139798Y181858D01*
X139897Y181827D01*
X139916Y181828D01*
X139936Y181823D01*
X140039Y181831D01*
X140142Y181834D01*
X140161Y181840D01*
X140181Y181842D01*
X140276Y181882D01*
X140373Y181918D01*
X140389Y181931D01*
X140407Y181938D01*
X140538Y182043D01*
X142802Y184307D01*
X147198Y184307D01*
X150307Y181198D01*
X150307Y176802D01*
X147198Y173693D01*
X142802Y173693D01*
X140538Y175957D01*
X140522Y175968D01*
X140510Y175984D01*
X140422Y176040D01*
X140339Y176100D01*
X140320Y176106D01*
X140303Y176117D01*
X140202Y176142D01*
X140103Y176173D01*
X140084Y176172D01*
X140064Y176177D01*
X139961Y176169D01*
X139858Y176166D01*
X139839Y176160D01*
X139819Y176158D01*
X139724Y176118D01*
X139627Y176082D01*
X139611Y176069D01*
X139593Y176062D01*
X139462Y175957D01*
X137198Y173693D01*
X132802Y173693D01*
G37*
%LPD*%
%LPC*%
G36*
X-60698Y366693D02*
X-60698Y366693D01*
X-63807Y369802D01*
X-63807Y374198D01*
X-60678Y377327D01*
X-60675Y377325D01*
X-60596Y377316D01*
X-60564Y377309D01*
X-60536Y377310D01*
X-60508Y377307D01*
X-56302Y377307D01*
X-53193Y374198D01*
X-53193Y369802D01*
X-56302Y366693D01*
X-60698Y366693D01*
G37*
%LPD*%
%LPC*%
G36*
X11802Y220693D02*
X11802Y220693D01*
X8693Y223802D01*
X8693Y228198D01*
X11802Y231307D01*
X16198Y231307D01*
X19307Y228198D01*
X19307Y223802D01*
X16198Y220693D01*
X11802Y220693D01*
G37*
%LPD*%
%LPC*%
G36*
X-103198Y219693D02*
X-103198Y219693D01*
X-106307Y222802D01*
X-106307Y227198D01*
X-103198Y230307D01*
X-98802Y230307D01*
X-95693Y227198D01*
X-95693Y222802D01*
X-98802Y219693D01*
X-103198Y219693D01*
G37*
%LPD*%
%LPC*%
G36*
X289402Y218393D02*
X289402Y218393D01*
X286293Y221502D01*
X286293Y225898D01*
X289402Y229007D01*
X293798Y229007D01*
X296907Y225898D01*
X296907Y221502D01*
X293798Y218393D01*
X289402Y218393D01*
G37*
%LPD*%
%LPC*%
G36*
X-39198Y248693D02*
X-39198Y248693D01*
X-42307Y251802D01*
X-42307Y256198D01*
X-39198Y259307D01*
X-34802Y259307D01*
X-31693Y256198D01*
X-31693Y251802D01*
X-34802Y248693D01*
X-39198Y248693D01*
G37*
%LPD*%
%LPC*%
G36*
X265802Y205693D02*
X265802Y205693D01*
X262693Y208802D01*
X262693Y213198D01*
X265802Y216307D01*
X270198Y216307D01*
X273307Y213198D01*
X273307Y208802D01*
X270198Y205693D01*
X265802Y205693D01*
G37*
%LPD*%
%LPC*%
G36*
X269802Y249093D02*
X269802Y249093D01*
X266693Y252202D01*
X266693Y256598D01*
X269802Y259707D01*
X274198Y259707D01*
X277307Y256598D01*
X277307Y252202D01*
X274198Y249093D01*
X269802Y249093D01*
G37*
%LPD*%
%LPC*%
G36*
X89802Y204693D02*
X89802Y204693D01*
X86693Y207802D01*
X86693Y212198D01*
X89802Y215307D01*
X94198Y215307D01*
X97307Y212198D01*
X97307Y207802D01*
X94198Y204693D01*
X89802Y204693D01*
G37*
%LPD*%
%LPC*%
G36*
X235802Y204693D02*
X235802Y204693D01*
X232693Y207802D01*
X232693Y212198D01*
X235802Y215307D01*
X240198Y215307D01*
X243307Y212198D01*
X243307Y207802D01*
X240198Y204693D01*
X235802Y204693D01*
G37*
%LPD*%
%LPC*%
G36*
X240802Y254693D02*
X240802Y254693D01*
X237693Y257802D01*
X237693Y262198D01*
X240802Y265307D01*
X245198Y265307D01*
X248307Y262198D01*
X248307Y257802D01*
X245198Y254693D01*
X240802Y254693D01*
G37*
%LPD*%
%LPC*%
G36*
X-271198Y197693D02*
X-271198Y197693D01*
X-274307Y200802D01*
X-274307Y205198D01*
X-271198Y208307D01*
X-266802Y208307D01*
X-263693Y205198D01*
X-263693Y200802D01*
X-266802Y197693D01*
X-271198Y197693D01*
G37*
%LPD*%
%LPC*%
G36*
X244802Y193693D02*
X244802Y193693D01*
X241693Y196802D01*
X241693Y201198D01*
X244802Y204307D01*
X249198Y204307D01*
X252307Y201198D01*
X252307Y196802D01*
X249198Y193693D01*
X244802Y193693D01*
G37*
%LPD*%
%LPC*%
G36*
X-304898Y192993D02*
X-304898Y192993D01*
X-308007Y196102D01*
X-308007Y200498D01*
X-304898Y203607D01*
X-300502Y203607D01*
X-297393Y200498D01*
X-297393Y196102D01*
X-300502Y192993D01*
X-304898Y192993D01*
G37*
%LPD*%
%LPC*%
G36*
X-28106Y192813D02*
X-28106Y192813D01*
X-31215Y195922D01*
X-31215Y200318D01*
X-28106Y203427D01*
X-23710Y203427D01*
X-20601Y200318D01*
X-20601Y195922D01*
X-23710Y192813D01*
X-28106Y192813D01*
G37*
%LPD*%
%LPC*%
G36*
X-16398Y300493D02*
X-16398Y300493D01*
X-19507Y303602D01*
X-19507Y307998D01*
X-16398Y311107D01*
X-12002Y311107D01*
X-8893Y307998D01*
X-8893Y303602D01*
X-12002Y300493D01*
X-16398Y300493D01*
G37*
%LPD*%
%LPC*%
G36*
X-167598Y295093D02*
X-167598Y295093D01*
X-170707Y298202D01*
X-170707Y302598D01*
X-167598Y305707D01*
X-163202Y305707D01*
X-160093Y302598D01*
X-160093Y298202D01*
X-163202Y295093D01*
X-167598Y295093D01*
G37*
%LPD*%
%LPC*%
G36*
X219802Y185693D02*
X219802Y185693D01*
X216693Y188802D01*
X216693Y193198D01*
X219802Y196307D01*
X224198Y196307D01*
X227307Y193198D01*
X227307Y188802D01*
X224198Y185693D01*
X219802Y185693D01*
G37*
%LPD*%
%LPC*%
G36*
X270802Y177693D02*
X270802Y177693D01*
X267693Y180802D01*
X267693Y185198D01*
X270802Y188307D01*
X275198Y188307D01*
X278307Y185198D01*
X278307Y180802D01*
X275198Y177693D01*
X270802Y177693D01*
G37*
%LPD*%
%LPC*%
G36*
X156802Y174693D02*
X156802Y174693D01*
X153693Y177802D01*
X153693Y182198D01*
X156802Y185307D01*
X161198Y185307D01*
X164307Y182198D01*
X164307Y177802D01*
X161198Y174693D01*
X156802Y174693D01*
G37*
%LPD*%
%LPC*%
G36*
X207802Y174693D02*
X207802Y174693D01*
X204693Y177802D01*
X204693Y182198D01*
X207802Y185307D01*
X212198Y185307D01*
X215307Y182198D01*
X215307Y177802D01*
X212198Y174693D01*
X207802Y174693D01*
G37*
%LPD*%
%LPC*%
G36*
X181902Y174193D02*
X181902Y174193D01*
X178793Y177302D01*
X178793Y181698D01*
X181902Y184807D01*
X186298Y184807D01*
X189407Y181698D01*
X189407Y177302D01*
X186298Y174193D01*
X181902Y174193D01*
G37*
%LPD*%
%LPC*%
G36*
X44802Y260693D02*
X44802Y260693D01*
X41693Y263802D01*
X41693Y268198D01*
X44802Y271307D01*
X49198Y271307D01*
X52307Y268198D01*
X52307Y263802D01*
X49198Y260693D01*
X44802Y260693D01*
G37*
%LPD*%
%LPC*%
G36*
X-261198Y222693D02*
X-261198Y222693D01*
X-264307Y225802D01*
X-264307Y230198D01*
X-261198Y233307D01*
X-256802Y233307D01*
X-253693Y230198D01*
X-253693Y225802D01*
X-256802Y222693D01*
X-261198Y222693D01*
G37*
%LPD*%
%LPC*%
G36*
X254802Y169693D02*
X254802Y169693D01*
X251693Y172802D01*
X251693Y177198D01*
X254802Y180307D01*
X259198Y180307D01*
X262307Y177198D01*
X262307Y172802D01*
X259198Y169693D01*
X254802Y169693D01*
G37*
%LPD*%
%LPC*%
G36*
X224802Y247693D02*
X224802Y247693D01*
X221693Y250802D01*
X221693Y255198D01*
X224802Y258307D01*
X229198Y258307D01*
X232307Y255198D01*
X232307Y250802D01*
X229198Y247693D01*
X224802Y247693D01*
G37*
%LPD*%
%LPC*%
G36*
X-19198Y271093D02*
X-19198Y271093D01*
X-22307Y274202D01*
X-22307Y278598D01*
X-19198Y281707D01*
X-14802Y281707D01*
X-11693Y278598D01*
X-11693Y274202D01*
X-14802Y271093D01*
X-19198Y271093D01*
G37*
%LPD*%
%LPC*%
G36*
X-200898Y146993D02*
X-200898Y146993D01*
X-204007Y150102D01*
X-204007Y154498D01*
X-200898Y157607D01*
X-196502Y157607D01*
X-193393Y154498D01*
X-193393Y150102D01*
X-196502Y146993D01*
X-200898Y146993D01*
G37*
%LPD*%
%LPC*%
G36*
X-207198Y239693D02*
X-207198Y239693D01*
X-210307Y242802D01*
X-210307Y247198D01*
X-207198Y250307D01*
X-202802Y250307D01*
X-199693Y247198D01*
X-199693Y242802D01*
X-202802Y239693D01*
X-207198Y239693D01*
G37*
%LPD*%
%LPC*%
G36*
X138802Y143693D02*
X138802Y143693D01*
X135693Y146802D01*
X135693Y151198D01*
X138802Y154307D01*
X143198Y154307D01*
X146307Y151198D01*
X146307Y146802D01*
X143198Y143693D01*
X138802Y143693D01*
G37*
%LPD*%
%LPC*%
G36*
X151802Y130693D02*
X151802Y130693D01*
X148693Y133802D01*
X148693Y138198D01*
X151802Y141307D01*
X156198Y141307D01*
X159307Y138198D01*
X159307Y133802D01*
X156198Y130693D01*
X151802Y130693D01*
G37*
%LPD*%
%LPC*%
G36*
X26902Y272393D02*
X26902Y272393D01*
X23793Y275502D01*
X23793Y279898D01*
X26902Y283007D01*
X31298Y283007D01*
X34407Y279898D01*
X34407Y275502D01*
X31298Y272393D01*
X26902Y272393D01*
G37*
%LPD*%
%LPC*%
G36*
X267802Y75693D02*
X267802Y75693D01*
X264693Y78802D01*
X264693Y83198D01*
X267802Y86307D01*
X272198Y86307D01*
X275307Y83198D01*
X275307Y78802D01*
X272198Y75693D01*
X267802Y75693D01*
G37*
%LPD*%
%LPC*%
G36*
X-219198Y63693D02*
X-219198Y63693D01*
X-222307Y66802D01*
X-222307Y71198D01*
X-219198Y74307D01*
X-214802Y74307D01*
X-211693Y71198D01*
X-211693Y66802D01*
X-214802Y63693D01*
X-219198Y63693D01*
G37*
%LPD*%
%LPC*%
G36*
X-245198Y60693D02*
X-245198Y60693D01*
X-248307Y63802D01*
X-248307Y68198D01*
X-245198Y71307D01*
X-240802Y71307D01*
X-237693Y68198D01*
X-237693Y63802D01*
X-240802Y60693D01*
X-245198Y60693D01*
G37*
%LPD*%
%LPC*%
G36*
X-169198Y-303307D02*
X-169198Y-303307D01*
X-172307Y-300198D01*
X-172307Y-295802D01*
X-169198Y-292693D01*
X-164802Y-292693D01*
X-161693Y-295802D01*
X-161693Y-300198D01*
X-164802Y-303307D01*
X-169198Y-303307D01*
G37*
%LPD*%
%LPC*%
G36*
X170802Y50693D02*
X170802Y50693D01*
X167693Y53802D01*
X167693Y58198D01*
X170802Y61307D01*
X175198Y61307D01*
X178307Y58198D01*
X178307Y53802D01*
X175198Y50693D01*
X170802Y50693D01*
G37*
%LPD*%
%LPC*%
G36*
X97302Y276793D02*
X97302Y276793D01*
X94193Y279902D01*
X94193Y284298D01*
X97302Y287407D01*
X101698Y287407D01*
X104807Y284298D01*
X104807Y279902D01*
X101698Y276793D01*
X97302Y276793D01*
G37*
%LPD*%
%LPC*%
G36*
X205802Y24693D02*
X205802Y24693D01*
X202693Y27802D01*
X202693Y32198D01*
X205802Y35307D01*
X210198Y35307D01*
X213307Y32198D01*
X213307Y27802D01*
X210198Y24693D01*
X205802Y24693D01*
G37*
%LPD*%
%LPC*%
G36*
X-194198Y18693D02*
X-194198Y18693D01*
X-197307Y21802D01*
X-197307Y26198D01*
X-194198Y29307D01*
X-189802Y29307D01*
X-186693Y26198D01*
X-186693Y21802D01*
X-189802Y18693D01*
X-194198Y18693D01*
G37*
%LPD*%
%LPC*%
G36*
X-304198Y11693D02*
X-304198Y11693D01*
X-307307Y14802D01*
X-307307Y19198D01*
X-304198Y22307D01*
X-299802Y22307D01*
X-296693Y19198D01*
X-296693Y14802D01*
X-299802Y11693D01*
X-304198Y11693D01*
G37*
%LPD*%
%LPC*%
G36*
X187802Y240693D02*
X187802Y240693D01*
X184693Y243802D01*
X184693Y248198D01*
X187802Y251307D01*
X192198Y251307D01*
X195307Y248198D01*
X195307Y243802D01*
X192198Y240693D01*
X187802Y240693D01*
G37*
%LPD*%
%LPC*%
G36*
X-18198Y-289307D02*
X-18198Y-289307D01*
X-21307Y-286198D01*
X-21307Y-281802D01*
X-18198Y-278693D01*
X-13802Y-278693D01*
X-10693Y-281802D01*
X-10693Y-286198D01*
X-13802Y-289307D01*
X-18198Y-289307D01*
G37*
%LPD*%
%LPC*%
G36*
X-21198Y-312307D02*
X-21198Y-312307D01*
X-24307Y-309198D01*
X-24307Y-304802D01*
X-21198Y-301693D01*
X-16802Y-301693D01*
X-13693Y-304802D01*
X-13693Y-309198D01*
X-16802Y-312307D01*
X-21198Y-312307D01*
G37*
%LPD*%
%LPC*%
G36*
X39802Y-275307D02*
X39802Y-275307D01*
X36693Y-272198D01*
X36693Y-267802D01*
X39802Y-264693D01*
X44198Y-264693D01*
X47307Y-267802D01*
X47307Y-272198D01*
X44198Y-275307D01*
X39802Y-275307D01*
G37*
%LPD*%
%LPC*%
G36*
X-223198Y-274307D02*
X-223198Y-274307D01*
X-226307Y-271198D01*
X-226307Y-266802D01*
X-223198Y-263693D01*
X-218802Y-263693D01*
X-215693Y-266802D01*
X-215693Y-271198D01*
X-218802Y-274307D01*
X-223198Y-274307D01*
G37*
%LPD*%
%LPC*%
G36*
X-142198Y-265307D02*
X-142198Y-265307D01*
X-145307Y-262198D01*
X-145307Y-257802D01*
X-142198Y-254693D01*
X-137802Y-254693D01*
X-134693Y-257802D01*
X-134693Y-262198D01*
X-137802Y-265307D01*
X-142198Y-265307D01*
G37*
%LPD*%
%LPC*%
G36*
X40202Y281093D02*
X40202Y281093D01*
X37093Y284202D01*
X37093Y288598D01*
X40202Y291707D01*
X44598Y291707D01*
X47707Y288598D01*
X47707Y284202D01*
X44598Y281093D01*
X40202Y281093D01*
G37*
%LPD*%
%LPC*%
G36*
X-194198Y-28307D02*
X-194198Y-28307D01*
X-197307Y-25198D01*
X-197307Y-20802D01*
X-194198Y-17693D01*
X-189802Y-17693D01*
X-186693Y-20802D01*
X-186693Y-25198D01*
X-189802Y-28307D01*
X-194198Y-28307D01*
G37*
%LPD*%
%LPC*%
G36*
X-220198Y-42307D02*
X-220198Y-42307D01*
X-223307Y-39198D01*
X-223307Y-34802D01*
X-220198Y-31693D01*
X-215802Y-31693D01*
X-212693Y-34802D01*
X-212693Y-39198D01*
X-215802Y-42307D01*
X-220198Y-42307D01*
G37*
%LPD*%
%LPC*%
G36*
X17502Y286693D02*
X17502Y286693D01*
X14393Y289802D01*
X14393Y294198D01*
X17502Y297307D01*
X21898Y297307D01*
X25007Y294198D01*
X25007Y289802D01*
X21898Y286693D01*
X17502Y286693D01*
G37*
%LPD*%
%LPC*%
G36*
X-40198Y291693D02*
X-40198Y291693D01*
X-43307Y294802D01*
X-43307Y299198D01*
X-40198Y302307D01*
X-35802Y302307D01*
X-32693Y299198D01*
X-32693Y294802D01*
X-35802Y291693D01*
X-40198Y291693D01*
G37*
%LPD*%
%LPC*%
G36*
X-193198Y230693D02*
X-193198Y230693D01*
X-196307Y233802D01*
X-196307Y238198D01*
X-193198Y241307D01*
X-188802Y241307D01*
X-185693Y238198D01*
X-185693Y233802D01*
X-188802Y230693D01*
X-193198Y230693D01*
G37*
%LPD*%
%LPC*%
G36*
X29802Y311693D02*
X29802Y311693D01*
X26693Y314802D01*
X26693Y319198D01*
X29802Y322307D01*
X34198Y322307D01*
X37307Y319198D01*
X37307Y314802D01*
X34198Y311693D01*
X29802Y311693D01*
G37*
%LPD*%
%LPC*%
G36*
X-127498Y230993D02*
X-127498Y230993D01*
X-130607Y234102D01*
X-130607Y238498D01*
X-127498Y241607D01*
X-123102Y241607D01*
X-119993Y238498D01*
X-119993Y234102D01*
X-123102Y230993D01*
X-127498Y230993D01*
G37*
%LPD*%
%LPC*%
G36*
X-127198Y-239307D02*
X-127198Y-239307D01*
X-130307Y-236198D01*
X-130307Y-231802D01*
X-127198Y-228693D01*
X-122802Y-228693D01*
X-119693Y-231802D01*
X-119693Y-236198D01*
X-122802Y-239307D01*
X-127198Y-239307D01*
G37*
%LPD*%
%LPC*%
G36*
X48802Y292693D02*
X48802Y292693D01*
X45693Y295802D01*
X45693Y300198D01*
X48802Y303307D01*
X53198Y303307D01*
X56307Y300198D01*
X56307Y295802D01*
X53198Y292693D01*
X48802Y292693D01*
G37*
%LPD*%
%LPC*%
G36*
X-122198Y-217307D02*
X-122198Y-217307D01*
X-125307Y-214198D01*
X-125307Y-209802D01*
X-122198Y-206693D01*
X-117802Y-206693D01*
X-114693Y-209802D01*
X-114693Y-214198D01*
X-117802Y-217307D01*
X-122198Y-217307D01*
G37*
%LPD*%
%LPC*%
G36*
X-44198Y304693D02*
X-44198Y304693D01*
X-47307Y307802D01*
X-47307Y312198D01*
X-44198Y315307D01*
X-39802Y315307D01*
X-36693Y312198D01*
X-36693Y307802D01*
X-39802Y304693D01*
X-44198Y304693D01*
G37*
%LPD*%
%LPC*%
G36*
X-98798Y304393D02*
X-98798Y304393D01*
X-101907Y307502D01*
X-101907Y311898D01*
X-98798Y315007D01*
X-94402Y315007D01*
X-91293Y311898D01*
X-91293Y307502D01*
X-94402Y304393D01*
X-98798Y304393D01*
G37*
%LPD*%
%LPC*%
G36*
X188802Y302693D02*
X188802Y302693D01*
X185693Y305802D01*
X185693Y310198D01*
X188802Y313307D01*
X193198Y313307D01*
X196307Y310198D01*
X196307Y305802D01*
X193198Y302693D01*
X188802Y302693D01*
G37*
%LPD*%
%LPC*%
G36*
X-114198Y187693D02*
X-114198Y187693D01*
X-117307Y190802D01*
X-117307Y195198D01*
X-114198Y198307D01*
X-109802Y198307D01*
X-106693Y195198D01*
X-106693Y190802D01*
X-109802Y187693D01*
X-114198Y187693D01*
G37*
%LPD*%
%LPC*%
G36*
X-126198Y192693D02*
X-126198Y192693D01*
X-129307Y195802D01*
X-129307Y200198D01*
X-126198Y203307D01*
X-121802Y203307D01*
X-118693Y200198D01*
X-118693Y195802D01*
X-121802Y192693D01*
X-126198Y192693D01*
G37*
%LPD*%
%LPC*%
G36*
X265802Y-5307D02*
X265802Y-5307D01*
X262693Y-2198D01*
X262693Y2198D01*
X265802Y5307D01*
X270198Y5307D01*
X273307Y2198D01*
X273307Y-2198D01*
X270198Y-5307D01*
X265802Y-5307D01*
G37*
%LPD*%
%LPC*%
G36*
X168802Y-5307D02*
X168802Y-5307D01*
X165693Y-2198D01*
X165693Y2198D01*
X168802Y5307D01*
X173198Y5307D01*
X176307Y2198D01*
X176307Y-2198D01*
X173198Y-5307D01*
X168802Y-5307D01*
G37*
%LPD*%
%LPC*%
G36*
X-3198Y275893D02*
X-3198Y275893D01*
X-6307Y279002D01*
X-6307Y283398D01*
X-3198Y286507D01*
X1198Y286507D01*
X4307Y283398D01*
X4307Y279002D01*
X1198Y275893D01*
X-3198Y275893D01*
G37*
%LPD*%
%LPC*%
G36*
X336802Y-5307D02*
X336802Y-5307D01*
X333693Y-2198D01*
X333693Y2198D01*
X336802Y5307D01*
X341198Y5307D01*
X344307Y2198D01*
X344307Y-2198D01*
X341198Y-5307D01*
X336802Y-5307D01*
G37*
%LPD*%
%LPC*%
G36*
X314802Y-5307D02*
X314802Y-5307D01*
X311693Y-2198D01*
X311693Y2198D01*
X314802Y5307D01*
X319198Y5307D01*
X322307Y2198D01*
X322307Y-2198D01*
X319198Y-5307D01*
X314802Y-5307D01*
G37*
%LPD*%
%LPC*%
G36*
X186802Y-5307D02*
X186802Y-5307D01*
X183693Y-2198D01*
X183693Y2198D01*
X186802Y5307D01*
X191198Y5307D01*
X194307Y2198D01*
X194307Y-2198D01*
X191198Y-5307D01*
X186802Y-5307D01*
G37*
%LPD*%
%LPC*%
G36*
X212802Y-5307D02*
X212802Y-5307D01*
X209693Y-2198D01*
X209693Y2198D01*
X212802Y5307D01*
X217198Y5307D01*
X220307Y2198D01*
X220307Y-2198D01*
X217198Y-5307D01*
X212802Y-5307D01*
G37*
%LPD*%
%LPC*%
G36*
X318793Y-133603D02*
X318793Y-133603D01*
X327316Y-133603D01*
X327181Y-134459D01*
X326686Y-135980D01*
X325960Y-137405D01*
X325020Y-138699D01*
X323889Y-139830D01*
X322595Y-140770D01*
X321170Y-141496D01*
X319649Y-141991D01*
X318793Y-142126D01*
X318793Y-133603D01*
G37*
%LPD*%
%LPC*%
G36*
X318793Y-108203D02*
X318793Y-108203D01*
X327316Y-108203D01*
X327181Y-109059D01*
X326686Y-110580D01*
X325960Y-112005D01*
X325020Y-113299D01*
X323889Y-114430D01*
X322595Y-115370D01*
X321170Y-116096D01*
X319649Y-116591D01*
X318793Y-116726D01*
X318793Y-108203D01*
G37*
%LPD*%
%LPC*%
G36*
X318793Y-105157D02*
X318793Y-105157D01*
X318793Y-96634D01*
X319649Y-96769D01*
X321170Y-97264D01*
X322595Y-97990D01*
X323889Y-98930D01*
X325020Y-100061D01*
X325960Y-101355D01*
X326686Y-102780D01*
X327181Y-104301D01*
X327316Y-105157D01*
X318793Y-105157D01*
G37*
%LPD*%
%LPC*%
G36*
X314891Y-116591D02*
X314891Y-116591D01*
X313370Y-116096D01*
X311945Y-115370D01*
X310651Y-114430D01*
X309520Y-113299D01*
X308580Y-112005D01*
X307854Y-110580D01*
X307359Y-109059D01*
X307224Y-108203D01*
X315747Y-108203D01*
X315747Y-116726D01*
X314891Y-116591D01*
G37*
%LPD*%
%LPC*%
G36*
X318793Y-130557D02*
X318793Y-130557D01*
X318793Y-122034D01*
X319649Y-122169D01*
X321170Y-122664D01*
X322595Y-123390D01*
X323889Y-124330D01*
X325020Y-125461D01*
X325960Y-126755D01*
X326686Y-128180D01*
X327181Y-129701D01*
X327316Y-130557D01*
X318793Y-130557D01*
G37*
%LPD*%
%LPC*%
G36*
X314891Y-141991D02*
X314891Y-141991D01*
X313370Y-141496D01*
X311945Y-140770D01*
X310651Y-139830D01*
X309520Y-138699D01*
X308580Y-137405D01*
X307854Y-135980D01*
X307359Y-134459D01*
X307224Y-133603D01*
X315747Y-133603D01*
X315747Y-142126D01*
X314891Y-141991D01*
G37*
%LPD*%
%LPC*%
G36*
X307224Y-105157D02*
X307224Y-105157D01*
X307359Y-104301D01*
X307854Y-102780D01*
X308580Y-101355D01*
X309520Y-100061D01*
X310651Y-98930D01*
X311945Y-97990D01*
X313370Y-97264D01*
X314891Y-96769D01*
X315747Y-96634D01*
X315747Y-105157D01*
X307224Y-105157D01*
G37*
%LPD*%
%LPC*%
G36*
X307224Y-130557D02*
X307224Y-130557D01*
X307359Y-129701D01*
X307854Y-128180D01*
X308580Y-126755D01*
X309520Y-125461D01*
X310651Y-124330D01*
X311945Y-123390D01*
X313370Y-122664D01*
X314891Y-122169D01*
X315747Y-122034D01*
X315747Y-130557D01*
X307224Y-130557D01*
G37*
%LPD*%
%LPC*%
G36*
X206223Y-94423D02*
X206223Y-94423D01*
X214665Y-94423D01*
X214533Y-95261D01*
X214042Y-96770D01*
X213322Y-98183D01*
X212389Y-99467D01*
X211267Y-100589D01*
X209983Y-101522D01*
X208570Y-102242D01*
X207061Y-102733D01*
X206223Y-102865D01*
X206223Y-94423D01*
G37*
%LPD*%
%LPC*%
G36*
X62223Y-215923D02*
X62223Y-215923D01*
X70665Y-215923D01*
X70533Y-216761D01*
X70042Y-218270D01*
X69322Y-219683D01*
X68389Y-220967D01*
X67267Y-222089D01*
X65983Y-223022D01*
X64570Y-223742D01*
X63061Y-224233D01*
X62223Y-224365D01*
X62223Y-215923D01*
G37*
%LPD*%
%LPC*%
G36*
X206223Y-91377D02*
X206223Y-91377D01*
X206223Y-82935D01*
X207061Y-83067D01*
X208570Y-83558D01*
X209983Y-84278D01*
X211267Y-85211D01*
X212389Y-86333D01*
X213322Y-87617D01*
X214042Y-89030D01*
X214533Y-90539D01*
X214665Y-91377D01*
X206223Y-91377D01*
G37*
%LPD*%
%LPC*%
G36*
X202339Y-102733D02*
X202339Y-102733D01*
X200830Y-102242D01*
X199417Y-101522D01*
X198133Y-100589D01*
X197011Y-99467D01*
X196078Y-98183D01*
X195358Y-96770D01*
X194867Y-95261D01*
X194735Y-94423D01*
X203177Y-94423D01*
X203177Y-102865D01*
X202339Y-102733D01*
G37*
%LPD*%
%LPC*%
G36*
X62223Y-212877D02*
X62223Y-212877D01*
X62223Y-204435D01*
X63061Y-204567D01*
X64570Y-205058D01*
X65983Y-205778D01*
X67267Y-206711D01*
X68389Y-207833D01*
X69322Y-209117D01*
X70042Y-210530D01*
X70533Y-212039D01*
X70665Y-212877D01*
X62223Y-212877D01*
G37*
%LPD*%
%LPC*%
G36*
X58339Y-224233D02*
X58339Y-224233D01*
X56830Y-223742D01*
X55417Y-223022D01*
X54133Y-222089D01*
X53011Y-220967D01*
X52078Y-219683D01*
X51358Y-218270D01*
X50867Y-216761D01*
X50735Y-215923D01*
X59177Y-215923D01*
X59177Y-224365D01*
X58339Y-224233D01*
G37*
%LPD*%
%LPC*%
G36*
X194735Y-91377D02*
X194735Y-91377D01*
X194867Y-90539D01*
X195358Y-89030D01*
X196078Y-87617D01*
X197011Y-86333D01*
X198133Y-85211D01*
X199417Y-84278D01*
X200830Y-83558D01*
X202339Y-83067D01*
X203177Y-82935D01*
X203177Y-91377D01*
X194735Y-91377D01*
G37*
%LPD*%
%LPC*%
G36*
X50735Y-212877D02*
X50735Y-212877D01*
X50867Y-212039D01*
X51358Y-210530D01*
X52078Y-209117D01*
X53011Y-207833D01*
X54133Y-206711D01*
X55417Y-205778D01*
X56830Y-205058D01*
X58339Y-204567D01*
X59177Y-204435D01*
X59177Y-212877D01*
X50735Y-212877D01*
G37*
%LPD*%
%LPC*%
G36*
X317269Y-106681D02*
X317269Y-106681D01*
X317269Y-106679D01*
X317271Y-106679D01*
X317271Y-106681D01*
X317269Y-106681D01*
G37*
%LPD*%
%LPC*%
G36*
X317269Y-132081D02*
X317269Y-132081D01*
X317269Y-132079D01*
X317271Y-132079D01*
X317271Y-132081D01*
X317269Y-132081D01*
G37*
%LPD*%
%LPC*%
G36*
X204699Y-92901D02*
X204699Y-92901D01*
X204699Y-92899D01*
X204701Y-92899D01*
X204701Y-92901D01*
X204699Y-92901D01*
G37*
%LPD*%
%LPC*%
G36*
X60699Y-214401D02*
X60699Y-214401D01*
X60699Y-214399D01*
X60701Y-214399D01*
X60701Y-214401D01*
X60699Y-214401D01*
G37*
%LPD*%
D10*
X60700Y-214400D03*
X60700Y-289400D03*
X204700Y-92900D03*
X204700Y-167900D03*
D11*
X317270Y-132080D03*
X317270Y-106680D03*
X317270Y-81280D03*
X317270Y-55880D03*
X171700Y233900D03*
X146300Y233900D03*
X171700Y259300D03*
X146300Y259300D03*
X171700Y284700D03*
X146300Y284700D03*
X171700Y310100D03*
X146300Y310100D03*
D12*
X-215000Y-78000D03*
X-204000Y-78000D03*
X-193000Y-78000D03*
X-182000Y-78000D03*
X-171000Y-78000D03*
X-160000Y-78000D03*
X-149000Y-113000D03*
X-215000Y-90000D03*
X-204000Y-90000D03*
X-193000Y-90000D03*
X-182000Y-90000D03*
X-171000Y-90000D03*
X-160000Y-90000D03*
X-215000Y-101000D03*
X-204000Y-101000D03*
X-193000Y-101000D03*
X-182000Y-101000D03*
X-171000Y-101000D03*
X-160000Y-101000D03*
X-215000Y-113000D03*
X-204000Y-113000D03*
X-193000Y-113000D03*
X-182000Y-113000D03*
X-171000Y-113000D03*
X-160000Y-113000D03*
X-182000Y-124000D03*
X-171000Y-124000D03*
X-160000Y-124000D03*
X-149000Y-124000D03*
X-138000Y-124000D03*
X-127000Y-124000D03*
X-182000Y-136000D03*
X-171000Y-136000D03*
X-160000Y-136000D03*
X-149000Y-136000D03*
X-138000Y-136000D03*
X-127000Y-136000D03*
X-171000Y-147000D03*
X-160000Y-147000D03*
X-149000Y-147000D03*
X-138000Y-147000D03*
X-127000Y-147000D03*
X-116000Y-147000D03*
X-171000Y-159000D03*
X-160000Y-159000D03*
X-149000Y-159000D03*
X-138000Y-159000D03*
X-127000Y-159000D03*
X-116000Y-159000D03*
X-154000Y-239000D03*
X-154000Y-228000D03*
X-154000Y-217000D03*
X-154000Y-206000D03*
X-154000Y-195000D03*
X-166000Y-239000D03*
X-166000Y-228000D03*
X-166000Y-217000D03*
X-166000Y-206000D03*
X-166000Y-195000D03*
X-62000Y-326000D03*
X-62000Y-315000D03*
X-62000Y-304000D03*
X-62000Y-293000D03*
X-62000Y-282000D03*
X-50000Y-326000D03*
X-50000Y-315000D03*
X-50000Y-304000D03*
X-50000Y-293000D03*
X-50000Y-282000D03*
X322000Y95000D03*
X-218000Y-37000D03*
X270000Y81000D03*
X171000Y0D03*
X189000Y0D03*
X215000Y0D03*
X268000Y0D03*
X317000Y0D03*
X339000Y0D03*
X-191000Y236000D03*
X124000Y257000D03*
X200000Y82000D03*
X-302000Y17000D03*
X-262000Y-237000D03*
X-140000Y-260000D03*
X25000Y-261000D03*
X-348000Y-99000D03*
X-346000Y-110000D03*
X-334000Y-135000D03*
X-323000Y-136000D03*
X-314000Y-130000D03*
X-314000Y-120000D03*
X-317000Y-110000D03*
X-125000Y-176000D03*
X-115000Y-176000D03*
X-105000Y-176000D03*
X-95000Y-179000D03*
X-87000Y-186000D03*
X-80000Y-193000D03*
X-225000Y-155000D03*
X-216000Y-159000D03*
X-208000Y-165000D03*
X-202000Y-173000D03*
X-213000Y-174000D03*
X-223000Y-166000D03*
X-224000Y-177000D03*
X-217000Y-185000D03*
X-28000Y-250000D03*
X-20000Y-242000D03*
X-17000Y-251000D03*
X-9000Y-242000D03*
X-5000Y-251000D03*
X2000Y-242000D03*
X7000Y-251000D03*
X13000Y-242000D03*
X18000Y-251000D03*
X24000Y-242000D03*
X30000Y-251000D03*
X36000Y-242000D03*
X-221000Y-269000D03*
X41000Y-251000D03*
X42000Y-270000D03*
X28000Y-271000D03*
X-167000Y-298000D03*
X-1000Y281200D03*
X19700Y292000D03*
X29100Y277700D03*
X42400Y286400D03*
X-14200Y305800D03*
X-58500Y372000D03*
X-165400Y300400D03*
X-96600Y309700D03*
X-125300Y236300D03*
X-198700Y152300D03*
X-302700Y198300D03*
X99500Y282100D03*
X291600Y223700D03*
X272000Y254400D03*
X184100Y179500D03*
X-25908Y198120D03*
X-291000Y38000D03*
X-243000Y66000D03*
X-217000Y69000D03*
X-37000Y254000D03*
X-39000Y214000D03*
X-17000Y276400D03*
X181000Y162000D03*
D13*
X173000Y170000D01*
D12*
X194000Y228000D03*
D13*
X173000Y207000D01*
X173000Y170000D01*
X173000Y207000D02*
X161000Y219000D01*
X141000Y219000D01*
X132000Y228000D01*
X132000Y264000D01*
X126000Y270000D01*
X119000Y270000D01*
D14*
X117000Y268000D01*
D12*
X117000Y268000D03*
D13*
X284000Y95000D02*
X284000Y71000D01*
X267000Y54000D01*
D12*
X267000Y54000D03*
X14000Y226000D03*
X-38000Y297000D03*
X-205000Y245000D03*
D13*
X173000Y207000D02*
X200000Y180000D01*
X200000Y171000D01*
X212000Y159000D01*
X220000Y159000D01*
X284000Y95000D01*
D12*
X101000Y179000D03*
X154000Y136000D03*
X181000Y130000D03*
X112000Y179000D03*
X141000Y149000D03*
X153000Y160000D03*
X50000Y206000D03*
X154000Y150000D03*
X44000Y197000D03*
X31000Y200000D03*
X210000Y61000D03*
D15*
X211000Y50000D03*
D12*
X21000Y203000D03*
X118000Y151000D03*
X208000Y30000D03*
X11000Y201000D03*
X115000Y141000D03*
X173000Y56000D03*
X-49000Y215000D03*
X-59000Y210000D03*
X47000Y266000D03*
X190000Y246000D03*
X-42000Y310000D03*
X32000Y317000D03*
X51000Y298000D03*
X135000Y179000D03*
X192000Y89000D03*
X145000Y179000D03*
X183000Y94000D03*
X159000Y180000D03*
X177000Y103000D03*
X92000Y210000D03*
X-112000Y193000D03*
X60000Y210000D03*
X-124000Y198000D03*
X57000Y225000D03*
X-101000Y225000D03*
X57000Y236000D03*
X210000Y180000D03*
X257000Y175000D03*
X222000Y191000D03*
X273000Y183000D03*
X-269000Y203000D03*
X-259000Y228000D03*
X-192000Y-23000D03*
X-192000Y24000D03*
X187000Y109000D03*
X-125000Y-234000D03*
X-246000Y-91000D03*
X-246000Y-81000D03*
X-192000Y-183000D03*
X-202000Y-189000D03*
X-120000Y-212000D03*
X-88000Y-276000D03*
X-98000Y-282000D03*
X-16000Y-284000D03*
X183000Y118000D03*
X-301000Y-21000D03*
X-297000Y-30000D03*
X-289000Y-21000D03*
X-281000Y-27000D03*
X-280000Y-37000D03*
X-291000Y-38000D03*
X-283000Y-47000D03*
X-272000Y-21000D03*
X-270000Y-31000D03*
X-270000Y-41000D03*
X-273000Y-51000D03*
X-262000Y-49000D03*
X-232000Y-206000D03*
X-226000Y-216000D03*
X-222000Y-207000D03*
X-215000Y-215000D03*
X-211000Y-206000D03*
X-205000Y-214000D03*
X-197000Y-203000D03*
X-195000Y-213000D03*
X-195000Y-223000D03*
X-200000Y-232000D03*
X-205000Y-224000D03*
X-215000Y-225000D03*
X-287000Y17000D03*
X-276000Y14000D03*
X-286000Y7000D03*
X-275000Y4000D03*
X-281000Y-5000D03*
X-293000Y0D03*
X-300000Y7000D03*
X-302000Y-5000D03*
X-269000Y-4000D03*
X-265000Y7000D03*
X-266000Y17000D03*
X-108000Y-282000D03*
X-118000Y-282000D03*
X-128000Y-282000D03*
X-138000Y-282000D03*
X-144000Y-291000D03*
X-133000Y-291000D03*
X-123000Y-291000D03*
X-113000Y-291000D03*
X-103000Y-293000D03*
X-90000Y-292000D03*
X-97000Y-301000D03*
X-110000Y-301000D03*
X-121000Y-301000D03*
X-121000Y-311000D03*
X-111000Y-311000D03*
X-99000Y-311000D03*
X-92000Y-320000D03*
X-105000Y-320000D03*
X-91000Y-330000D03*
X238000Y210000D03*
X247000Y199000D03*
X268000Y211000D03*
X-19000Y-307000D03*
X-262000Y-247000D03*
X-260000Y-190000D03*
X243000Y260000D03*
X227000Y253000D03*
X191000Y308000D03*
M02*
