G04 EAGLE Gerber X2 export*
%TF.Part,Single*%
%TF.FileFunction,Copper,L3,Inr,Mixed*%
%TF.FilePolarity,Positive*%
%TF.GenerationSoftware,Autodesk,EAGLE,8.6.0*%
%TF.CreationDate,2018-04-19T17:15:12Z*%
G75*
%MOMM*%
%FSLAX34Y34*%
%LPD*%
%AMOC8*
5,1,8,0,0,1.08239X$1,22.5*%
G01*
%ADD10C,1.508000*%
%ADD11C,1.524000*%
%ADD12C,0.756400*%
%ADD13C,0.806400*%

G36*
X37609Y-382231D02*
X37609Y-382231D01*
X37635Y-382225D01*
X37683Y-382223D01*
X74893Y-376704D01*
X74918Y-376696D01*
X74966Y-376689D01*
X111456Y-367549D01*
X111480Y-367539D01*
X111527Y-367527D01*
X146945Y-354855D01*
X146968Y-354842D01*
X147014Y-354826D01*
X181019Y-338743D01*
X181041Y-338728D01*
X181085Y-338707D01*
X213350Y-319369D01*
X213371Y-319351D01*
X213412Y-319327D01*
X243627Y-296919D01*
X243645Y-296900D01*
X243684Y-296871D01*
X271557Y-271609D01*
X271573Y-271589D01*
X271609Y-271557D01*
X296871Y-243684D01*
X296886Y-243662D01*
X296919Y-243627D01*
X319327Y-213412D01*
X319339Y-213389D01*
X319369Y-213350D01*
X338707Y-181085D01*
X338717Y-181061D01*
X338743Y-181019D01*
X354826Y-147014D01*
X354833Y-146989D01*
X354855Y-146945D01*
X367527Y-111527D01*
X367532Y-111501D01*
X367549Y-111456D01*
X376689Y-74966D01*
X376691Y-74940D01*
X376704Y-74893D01*
X382223Y-37683D01*
X382223Y-37657D01*
X382231Y-37609D01*
X384076Y-37D01*
X384073Y-11D01*
X384076Y37D01*
X382231Y37609D01*
X382225Y37635D01*
X382223Y37683D01*
X376704Y74893D01*
X376696Y74918D01*
X376689Y74966D01*
X369576Y103364D01*
X369560Y103402D01*
X369559Y103403D01*
X369559Y103404D01*
X369546Y103434D01*
X369525Y103507D01*
X369497Y103546D01*
X369478Y103590D01*
X369428Y103647D01*
X369384Y103709D01*
X369346Y103738D01*
X369314Y103773D01*
X369248Y103810D01*
X369187Y103856D01*
X369141Y103871D01*
X369100Y103894D01*
X369025Y103908D01*
X368953Y103932D01*
X368905Y103931D01*
X368858Y103940D01*
X368783Y103930D01*
X368707Y103930D01*
X368645Y103912D01*
X368614Y103907D01*
X368591Y103896D01*
X368546Y103883D01*
X363612Y101839D01*
X356388Y101839D01*
X349713Y104604D01*
X344604Y109713D01*
X341839Y116388D01*
X341839Y123612D01*
X344604Y130287D01*
X349713Y135396D01*
X356388Y138161D01*
X356917Y138161D01*
X356944Y138165D01*
X356971Y138163D01*
X357065Y138185D01*
X357160Y138200D01*
X357184Y138213D01*
X357210Y138219D01*
X357292Y138271D01*
X357377Y138316D01*
X357396Y138335D01*
X357419Y138350D01*
X357480Y138424D01*
X357546Y138494D01*
X357558Y138519D01*
X357575Y138540D01*
X357609Y138630D01*
X357650Y138717D01*
X357653Y138744D01*
X357663Y138769D01*
X357666Y138866D01*
X357677Y138961D01*
X357671Y138988D01*
X357672Y139015D01*
X357634Y139178D01*
X354855Y146945D01*
X354842Y146968D01*
X354826Y147014D01*
X338743Y181019D01*
X338728Y181041D01*
X338707Y181085D01*
X334735Y187713D01*
X334662Y187800D01*
X334591Y187888D01*
X334583Y187893D01*
X334576Y187901D01*
X334480Y187959D01*
X334385Y188021D01*
X334374Y188023D01*
X334365Y188029D01*
X334255Y188053D01*
X334146Y188081D01*
X334136Y188080D01*
X334125Y188082D01*
X334013Y188070D01*
X333901Y188061D01*
X333891Y188057D01*
X333881Y188056D01*
X333778Y188009D01*
X333674Y187965D01*
X333665Y187957D01*
X333657Y187954D01*
X333639Y187936D01*
X333544Y187860D01*
X330287Y184604D01*
X323612Y181839D01*
X316388Y181839D01*
X309713Y184604D01*
X304604Y189713D01*
X301839Y196388D01*
X301839Y203612D01*
X304604Y210287D01*
X309713Y215396D01*
X315041Y217603D01*
X315137Y217662D01*
X315234Y217719D01*
X315241Y217727D01*
X315250Y217733D01*
X315322Y217819D01*
X315396Y217904D01*
X315400Y217914D01*
X315407Y217922D01*
X315447Y218027D01*
X315491Y218131D01*
X315491Y218142D01*
X315495Y218152D01*
X315500Y218264D01*
X315508Y218377D01*
X315505Y218387D01*
X315506Y218397D01*
X315474Y218506D01*
X315446Y218615D01*
X315439Y218626D01*
X315437Y218634D01*
X315423Y218654D01*
X315361Y218760D01*
X296919Y243627D01*
X296900Y243645D01*
X296871Y243684D01*
X271609Y271557D01*
X271589Y271573D01*
X271557Y271609D01*
X243684Y296871D01*
X243662Y296886D01*
X243627Y296919D01*
X213412Y319327D01*
X213389Y319339D01*
X213350Y319369D01*
X181085Y338707D01*
X181061Y338717D01*
X181019Y338743D01*
X170247Y343837D01*
X170185Y343855D01*
X170127Y343882D01*
X170068Y343889D01*
X170011Y343905D01*
X169947Y343902D01*
X169883Y343910D01*
X169825Y343897D01*
X169765Y343894D01*
X169705Y343871D01*
X169642Y343857D01*
X169591Y343827D01*
X169536Y343805D01*
X169486Y343764D01*
X169431Y343731D01*
X169393Y343686D01*
X169347Y343648D01*
X169313Y343593D01*
X169271Y343544D01*
X169249Y343489D01*
X169218Y343439D01*
X169203Y343376D01*
X169179Y343316D01*
X169170Y343231D01*
X169162Y343199D01*
X169164Y343180D01*
X169161Y343149D01*
X169161Y341388D01*
X166396Y334713D01*
X161287Y329604D01*
X154612Y326839D01*
X147388Y326839D01*
X140713Y329604D01*
X135604Y334713D01*
X132839Y341388D01*
X132839Y348612D01*
X135604Y355287D01*
X137424Y357107D01*
X137462Y357159D01*
X137507Y357205D01*
X137533Y357259D01*
X137567Y357307D01*
X137586Y357368D01*
X137615Y357426D01*
X137622Y357485D01*
X137640Y357542D01*
X137638Y357606D01*
X137647Y357670D01*
X137635Y357729D01*
X137633Y357788D01*
X137611Y357849D01*
X137599Y357912D01*
X137569Y357963D01*
X137549Y358019D01*
X137509Y358069D01*
X137477Y358125D01*
X137432Y358165D01*
X137395Y358211D01*
X137341Y358246D01*
X137293Y358289D01*
X137216Y358326D01*
X137188Y358344D01*
X137170Y358348D01*
X137142Y358362D01*
X111527Y367527D01*
X111501Y367532D01*
X111456Y367549D01*
X74966Y376689D01*
X74940Y376691D01*
X74893Y376704D01*
X37683Y382223D01*
X37657Y382223D01*
X37609Y382231D01*
X37Y384076D01*
X11Y384073D01*
X-37Y384076D01*
X-6862Y383741D01*
X-6889Y383735D01*
X-6916Y383737D01*
X-7009Y383710D01*
X-7103Y383689D01*
X-7126Y383676D01*
X-7152Y383668D01*
X-7231Y383613D01*
X-7314Y383564D01*
X-7332Y383543D01*
X-7354Y383528D01*
X-7412Y383450D01*
X-7474Y383377D01*
X-7485Y383352D01*
X-7501Y383330D01*
X-7531Y383239D01*
X-7567Y383150D01*
X-7569Y383122D01*
X-7577Y383096D01*
X-7576Y383000D01*
X-7582Y382904D01*
X-7575Y382878D01*
X-7575Y382851D01*
X-7528Y382689D01*
X-5839Y378612D01*
X-5839Y371388D01*
X-8604Y364713D01*
X-13713Y359604D01*
X-20388Y356839D01*
X-27612Y356839D01*
X-34287Y359604D01*
X-39396Y364713D01*
X-42161Y371388D01*
X-42161Y378612D01*
X-41375Y380510D01*
X-41351Y380609D01*
X-41323Y380707D01*
X-41323Y380729D01*
X-41318Y380750D01*
X-41328Y380851D01*
X-41332Y380952D01*
X-41339Y380973D01*
X-41341Y380995D01*
X-41383Y381087D01*
X-41419Y381182D01*
X-41433Y381199D01*
X-41441Y381220D01*
X-41510Y381294D01*
X-41574Y381373D01*
X-41593Y381384D01*
X-41608Y381401D01*
X-41697Y381450D01*
X-41783Y381504D01*
X-41804Y381509D01*
X-41823Y381519D01*
X-41923Y381537D01*
X-42022Y381561D01*
X-42049Y381560D01*
X-42065Y381563D01*
X-42098Y381558D01*
X-42190Y381555D01*
X-74893Y376704D01*
X-74918Y376696D01*
X-74966Y376689D01*
X-108881Y368194D01*
X-108974Y368154D01*
X-109069Y368119D01*
X-109086Y368105D01*
X-109107Y368096D01*
X-109182Y368029D01*
X-109261Y367965D01*
X-109273Y367947D01*
X-109290Y367932D01*
X-109339Y367844D01*
X-109394Y367758D01*
X-109400Y367737D01*
X-109410Y367718D01*
X-109430Y367618D01*
X-109454Y367520D01*
X-109453Y367498D01*
X-109457Y367476D01*
X-109443Y367376D01*
X-109435Y367275D01*
X-109427Y367254D01*
X-109424Y367233D01*
X-109379Y367142D01*
X-109339Y367048D01*
X-109322Y367027D01*
X-109315Y367012D01*
X-109292Y366989D01*
X-109234Y366917D01*
X-107604Y365287D01*
X-104839Y358612D01*
X-104839Y351388D01*
X-107604Y344713D01*
X-112713Y339604D01*
X-119388Y336839D01*
X-126612Y336839D01*
X-133287Y339604D01*
X-138396Y344713D01*
X-141161Y351388D01*
X-141161Y355843D01*
X-141165Y355870D01*
X-141163Y355897D01*
X-141185Y355991D01*
X-141200Y356086D01*
X-141213Y356110D01*
X-141219Y356137D01*
X-141271Y356219D01*
X-141316Y356304D01*
X-141335Y356322D01*
X-141350Y356345D01*
X-141424Y356407D01*
X-141494Y356473D01*
X-141519Y356484D01*
X-141540Y356502D01*
X-141630Y356536D01*
X-141717Y356577D01*
X-141744Y356580D01*
X-141769Y356589D01*
X-141866Y356593D01*
X-141961Y356604D01*
X-141988Y356598D01*
X-142015Y356599D01*
X-142178Y356560D01*
X-146945Y354855D01*
X-146968Y354842D01*
X-147014Y354826D01*
X-181019Y338743D01*
X-181041Y338728D01*
X-181085Y338707D01*
X-213350Y319369D01*
X-213371Y319351D01*
X-213412Y319327D01*
X-243627Y296919D01*
X-243645Y296900D01*
X-243684Y296871D01*
X-267610Y275186D01*
X-267650Y275136D01*
X-267698Y275092D01*
X-267726Y275040D01*
X-267763Y274994D01*
X-267785Y274933D01*
X-267816Y274877D01*
X-267827Y274818D01*
X-267847Y274763D01*
X-267848Y274698D01*
X-267860Y274635D01*
X-267851Y274576D01*
X-267853Y274517D01*
X-267833Y274455D01*
X-267824Y274391D01*
X-267797Y274339D01*
X-267780Y274282D01*
X-267742Y274230D01*
X-267713Y274172D01*
X-267670Y274131D01*
X-267636Y274083D01*
X-267583Y274045D01*
X-267537Y274000D01*
X-267462Y273959D01*
X-267435Y273940D01*
X-267418Y273934D01*
X-267390Y273919D01*
X-263713Y272396D01*
X-258604Y267287D01*
X-255839Y260612D01*
X-255839Y253388D01*
X-258604Y246713D01*
X-263713Y241604D01*
X-270388Y238839D01*
X-277612Y238839D01*
X-284287Y241604D01*
X-289396Y246713D01*
X-290420Y249184D01*
X-290454Y249239D01*
X-290479Y249299D01*
X-290518Y249343D01*
X-290549Y249393D01*
X-290599Y249435D01*
X-290642Y249483D01*
X-290693Y249512D01*
X-290739Y249550D01*
X-290799Y249573D01*
X-290855Y249606D01*
X-290913Y249617D01*
X-290968Y249638D01*
X-291033Y249641D01*
X-291096Y249654D01*
X-291155Y249646D01*
X-291214Y249649D01*
X-291276Y249631D01*
X-291340Y249623D01*
X-291394Y249597D01*
X-291450Y249580D01*
X-291503Y249544D01*
X-291561Y249515D01*
X-291625Y249459D01*
X-291652Y249440D01*
X-291664Y249425D01*
X-291687Y249404D01*
X-296871Y243684D01*
X-296886Y243662D01*
X-296919Y243627D01*
X-319327Y213412D01*
X-319334Y213399D01*
X-319345Y213387D01*
X-319352Y213372D01*
X-319369Y213350D01*
X-338707Y181085D01*
X-338717Y181061D01*
X-338743Y181019D01*
X-354826Y147014D01*
X-354833Y146989D01*
X-354855Y146945D01*
X-367527Y111527D01*
X-367532Y111501D01*
X-367549Y111456D01*
X-376689Y74966D01*
X-376691Y74940D01*
X-376704Y74893D01*
X-382223Y37683D01*
X-382223Y37657D01*
X-382231Y37609D01*
X-384076Y37D01*
X-384073Y11D01*
X-384076Y-37D01*
X-382231Y-37609D01*
X-382225Y-37635D01*
X-382223Y-37683D01*
X-376704Y-74893D01*
X-376696Y-74918D01*
X-376689Y-74966D01*
X-367549Y-111456D01*
X-367539Y-111480D01*
X-367527Y-111527D01*
X-354855Y-146945D01*
X-354842Y-146968D01*
X-354826Y-147014D01*
X-338743Y-181019D01*
X-338728Y-181041D01*
X-338707Y-181085D01*
X-319369Y-213350D01*
X-319351Y-213370D01*
X-319327Y-213412D01*
X-296919Y-243627D01*
X-296900Y-243645D01*
X-296871Y-243684D01*
X-271609Y-271557D01*
X-271589Y-271573D01*
X-271557Y-271609D01*
X-243684Y-296871D01*
X-243662Y-296886D01*
X-243627Y-296919D01*
X-213412Y-319327D01*
X-213389Y-319339D01*
X-213350Y-319369D01*
X-181085Y-338707D01*
X-181061Y-338717D01*
X-181019Y-338743D01*
X-147014Y-354826D01*
X-146989Y-354833D01*
X-146945Y-354855D01*
X-111527Y-367527D01*
X-111501Y-367532D01*
X-111456Y-367549D01*
X-74966Y-376689D01*
X-74940Y-376691D01*
X-74893Y-376704D01*
X-37683Y-382223D01*
X-37657Y-382223D01*
X-37609Y-382231D01*
X-37Y-384076D01*
X-11Y-384073D01*
X37Y-384076D01*
X37609Y-382231D01*
G37*
%LPC*%
G36*
X-25173Y-158939D02*
X-25173Y-158939D01*
X-49727Y-153044D01*
X-73056Y-143381D01*
X-73888Y-142871D01*
X-75130Y-142110D01*
X-82584Y-137543D01*
X-83826Y-136781D01*
X-85068Y-136020D01*
X-86310Y-135259D01*
X-86311Y-135259D01*
X-87553Y-134498D01*
X-94587Y-130187D01*
X-113788Y-113788D01*
X-130187Y-94587D01*
X-143381Y-73057D01*
X-153044Y-49727D01*
X-158939Y-25174D01*
X-160920Y0D01*
X-158939Y25174D01*
X-153044Y49727D01*
X-143381Y73057D01*
X-130187Y94587D01*
X-113788Y113788D01*
X-94587Y130187D01*
X-73057Y143381D01*
X-49727Y153044D01*
X-25174Y158939D01*
X0Y160920D01*
X25174Y158939D01*
X49727Y153044D01*
X73057Y143381D01*
X76459Y141296D01*
X76460Y141296D01*
X77702Y140534D01*
X78944Y139773D01*
X85155Y135967D01*
X86397Y135206D01*
X87640Y134444D01*
X92609Y131399D01*
X93851Y130638D01*
X94587Y130187D01*
X113788Y113788D01*
X130187Y94587D01*
X143381Y73057D01*
X153044Y49727D01*
X158939Y25174D01*
X160920Y0D01*
X158939Y-25174D01*
X153044Y-49727D01*
X143381Y-73057D01*
X130187Y-94587D01*
X113788Y-113788D01*
X94587Y-130187D01*
X73057Y-143381D01*
X49727Y-153044D01*
X25173Y-158939D01*
X0Y-160920D01*
X-25173Y-158939D01*
G37*
%LPD*%
%LPC*%
G36*
X189802Y83693D02*
X189802Y83693D01*
X186693Y86802D01*
X186693Y88351D01*
X186682Y88421D01*
X186680Y88493D01*
X186662Y88542D01*
X186654Y88593D01*
X186620Y88657D01*
X186595Y88724D01*
X186563Y88765D01*
X186538Y88811D01*
X186487Y88860D01*
X186442Y88916D01*
X186398Y88944D01*
X186360Y88980D01*
X186295Y89010D01*
X186235Y89049D01*
X186184Y89062D01*
X186137Y89084D01*
X186066Y89092D01*
X185996Y89109D01*
X185944Y89105D01*
X185893Y89111D01*
X185822Y89096D01*
X185751Y89090D01*
X185703Y89070D01*
X185652Y89059D01*
X185591Y89022D01*
X185525Y88994D01*
X185469Y88949D01*
X185441Y88932D01*
X185426Y88915D01*
X185394Y88889D01*
X185198Y88693D01*
X180802Y88693D01*
X177693Y91802D01*
X177693Y96198D01*
X177889Y96394D01*
X177931Y96452D01*
X177980Y96504D01*
X178002Y96551D01*
X178032Y96593D01*
X178054Y96662D01*
X178084Y96727D01*
X178089Y96779D01*
X178105Y96829D01*
X178103Y96900D01*
X178111Y96971D01*
X178100Y97022D01*
X178098Y97074D01*
X178074Y97142D01*
X178059Y97212D01*
X178032Y97257D01*
X178014Y97305D01*
X177969Y97361D01*
X177932Y97423D01*
X177893Y97457D01*
X177860Y97497D01*
X177800Y97536D01*
X177745Y97583D01*
X177697Y97602D01*
X177653Y97630D01*
X177584Y97648D01*
X177517Y97675D01*
X177446Y97683D01*
X177415Y97691D01*
X177392Y97689D01*
X177351Y97693D01*
X174802Y97693D01*
X171693Y100802D01*
X171693Y105198D01*
X174802Y108307D01*
X179198Y108307D01*
X180394Y107111D01*
X180452Y107069D01*
X180504Y107020D01*
X180551Y106998D01*
X180593Y106968D01*
X180662Y106946D01*
X180727Y106916D01*
X180779Y106911D01*
X180829Y106895D01*
X180900Y106897D01*
X180971Y106889D01*
X181022Y106900D01*
X181074Y106902D01*
X181142Y106926D01*
X181212Y106941D01*
X181257Y106968D01*
X181305Y106986D01*
X181361Y107031D01*
X181423Y107068D01*
X181457Y107107D01*
X181497Y107140D01*
X181536Y107200D01*
X181583Y107255D01*
X181602Y107303D01*
X181630Y107347D01*
X181648Y107416D01*
X181675Y107483D01*
X181683Y107554D01*
X181691Y107585D01*
X181689Y107608D01*
X181693Y107649D01*
X181693Y111198D01*
X181889Y111394D01*
X181931Y111452D01*
X181980Y111504D01*
X182002Y111551D01*
X182032Y111593D01*
X182054Y111662D01*
X182084Y111727D01*
X182089Y111779D01*
X182105Y111829D01*
X182103Y111900D01*
X182111Y111971D01*
X182100Y112022D01*
X182098Y112074D01*
X182074Y112142D01*
X182059Y112212D01*
X182032Y112257D01*
X182014Y112305D01*
X181969Y112361D01*
X181932Y112423D01*
X181893Y112457D01*
X181860Y112497D01*
X181800Y112536D01*
X181745Y112583D01*
X181697Y112602D01*
X181653Y112630D01*
X181584Y112648D01*
X181517Y112675D01*
X181446Y112683D01*
X181415Y112691D01*
X181392Y112689D01*
X181351Y112693D01*
X180802Y112693D01*
X177693Y115802D01*
X177693Y120198D01*
X180889Y123394D01*
X180931Y123452D01*
X180980Y123504D01*
X181002Y123551D01*
X181032Y123593D01*
X181054Y123662D01*
X181084Y123727D01*
X181089Y123779D01*
X181105Y123829D01*
X181103Y123900D01*
X181111Y123971D01*
X181100Y124022D01*
X181098Y124074D01*
X181074Y124142D01*
X181059Y124212D01*
X181032Y124257D01*
X181014Y124305D01*
X180969Y124361D01*
X180932Y124423D01*
X180893Y124457D01*
X180860Y124497D01*
X180800Y124536D01*
X180745Y124583D01*
X180697Y124602D01*
X180653Y124630D01*
X180584Y124648D01*
X180517Y124675D01*
X180446Y124683D01*
X180415Y124691D01*
X180392Y124689D01*
X180351Y124693D01*
X178802Y124693D01*
X175693Y127802D01*
X175693Y132198D01*
X178802Y135307D01*
X183198Y135307D01*
X186307Y132198D01*
X186307Y127802D01*
X183111Y124606D01*
X183069Y124548D01*
X183020Y124496D01*
X182998Y124449D01*
X182968Y124407D01*
X182946Y124338D01*
X182916Y124273D01*
X182911Y124221D01*
X182895Y124171D01*
X182897Y124100D01*
X182889Y124029D01*
X182900Y123978D01*
X182902Y123926D01*
X182926Y123858D01*
X182941Y123788D01*
X182968Y123743D01*
X182986Y123695D01*
X183031Y123639D01*
X183068Y123577D01*
X183107Y123543D01*
X183140Y123503D01*
X183200Y123464D01*
X183255Y123417D01*
X183303Y123398D01*
X183347Y123370D01*
X183416Y123352D01*
X183483Y123325D01*
X183554Y123317D01*
X183585Y123309D01*
X183608Y123311D01*
X183649Y123307D01*
X185198Y123307D01*
X188307Y120198D01*
X188307Y115802D01*
X188111Y115606D01*
X188069Y115548D01*
X188020Y115496D01*
X187998Y115449D01*
X187968Y115407D01*
X187946Y115338D01*
X187916Y115273D01*
X187911Y115221D01*
X187895Y115171D01*
X187897Y115100D01*
X187889Y115029D01*
X187900Y114978D01*
X187902Y114926D01*
X187926Y114858D01*
X187941Y114788D01*
X187968Y114743D01*
X187986Y114695D01*
X188031Y114639D01*
X188068Y114577D01*
X188107Y114543D01*
X188140Y114503D01*
X188200Y114464D01*
X188255Y114417D01*
X188303Y114398D01*
X188347Y114370D01*
X188416Y114352D01*
X188483Y114325D01*
X188554Y114317D01*
X188585Y114309D01*
X188608Y114311D01*
X188649Y114307D01*
X189198Y114307D01*
X192307Y111198D01*
X192307Y106802D01*
X189198Y103693D01*
X184802Y103693D01*
X183606Y104889D01*
X183548Y104931D01*
X183496Y104980D01*
X183449Y105002D01*
X183407Y105032D01*
X183338Y105054D01*
X183273Y105084D01*
X183221Y105089D01*
X183171Y105105D01*
X183100Y105103D01*
X183029Y105111D01*
X182978Y105100D01*
X182926Y105098D01*
X182858Y105074D01*
X182788Y105059D01*
X182743Y105032D01*
X182695Y105014D01*
X182639Y104969D01*
X182577Y104932D01*
X182543Y104893D01*
X182503Y104860D01*
X182464Y104800D01*
X182417Y104745D01*
X182398Y104697D01*
X182370Y104653D01*
X182352Y104584D01*
X182325Y104517D01*
X182317Y104446D01*
X182309Y104415D01*
X182311Y104392D01*
X182307Y104351D01*
X182307Y100802D01*
X182111Y100606D01*
X182069Y100548D01*
X182020Y100496D01*
X181998Y100449D01*
X181968Y100407D01*
X181946Y100338D01*
X181916Y100273D01*
X181911Y100221D01*
X181895Y100171D01*
X181897Y100100D01*
X181889Y100029D01*
X181900Y99978D01*
X181902Y99926D01*
X181926Y99858D01*
X181941Y99788D01*
X181968Y99743D01*
X181986Y99695D01*
X182031Y99639D01*
X182068Y99577D01*
X182107Y99543D01*
X182140Y99503D01*
X182200Y99464D01*
X182255Y99417D01*
X182303Y99398D01*
X182347Y99370D01*
X182416Y99352D01*
X182483Y99325D01*
X182554Y99317D01*
X182585Y99309D01*
X182608Y99311D01*
X182649Y99307D01*
X185198Y99307D01*
X188307Y96198D01*
X188307Y94649D01*
X188318Y94579D01*
X188320Y94507D01*
X188338Y94458D01*
X188346Y94407D01*
X188380Y94343D01*
X188405Y94276D01*
X188437Y94235D01*
X188462Y94189D01*
X188513Y94140D01*
X188558Y94084D01*
X188602Y94056D01*
X188640Y94020D01*
X188705Y93990D01*
X188765Y93951D01*
X188816Y93938D01*
X188863Y93916D01*
X188934Y93908D01*
X189004Y93891D01*
X189056Y93895D01*
X189107Y93889D01*
X189178Y93904D01*
X189249Y93910D01*
X189297Y93930D01*
X189348Y93941D01*
X189409Y93978D01*
X189475Y94006D01*
X189531Y94051D01*
X189559Y94068D01*
X189574Y94085D01*
X189606Y94111D01*
X189802Y94307D01*
X194198Y94307D01*
X197307Y91198D01*
X197307Y86802D01*
X194198Y83693D01*
X189802Y83693D01*
G37*
%LPD*%
%LPC*%
G36*
X319802Y89693D02*
X319802Y89693D01*
X316693Y92802D01*
X316693Y97198D01*
X316889Y97394D01*
X316931Y97452D01*
X316980Y97504D01*
X317002Y97551D01*
X317032Y97593D01*
X317054Y97662D01*
X317084Y97727D01*
X317089Y97779D01*
X317105Y97829D01*
X317103Y97900D01*
X317111Y97971D01*
X317100Y98022D01*
X317098Y98074D01*
X317074Y98142D01*
X317059Y98212D01*
X317032Y98257D01*
X317014Y98305D01*
X316969Y98361D01*
X316932Y98423D01*
X316893Y98457D01*
X316860Y98497D01*
X316800Y98536D01*
X316745Y98583D01*
X316697Y98602D01*
X316653Y98630D01*
X316584Y98648D01*
X316517Y98675D01*
X316446Y98683D01*
X316415Y98691D01*
X316392Y98689D01*
X316351Y98693D01*
X313802Y98693D01*
X310693Y101802D01*
X310693Y105932D01*
X310690Y105952D01*
X310692Y105971D01*
X310670Y106073D01*
X310654Y106175D01*
X310644Y106192D01*
X310640Y106212D01*
X310587Y106301D01*
X310538Y106392D01*
X310524Y106406D01*
X310514Y106423D01*
X310435Y106490D01*
X310360Y106562D01*
X310342Y106570D01*
X310327Y106583D01*
X310231Y106622D01*
X310137Y106665D01*
X310117Y106667D01*
X310099Y106675D01*
X309932Y106693D01*
X307802Y106693D01*
X304693Y109802D01*
X304693Y112932D01*
X304690Y112952D01*
X304692Y112971D01*
X304670Y113073D01*
X304654Y113175D01*
X304644Y113192D01*
X304640Y113212D01*
X304587Y113301D01*
X304538Y113392D01*
X304524Y113406D01*
X304514Y113423D01*
X304435Y113490D01*
X304360Y113562D01*
X304342Y113570D01*
X304327Y113583D01*
X304231Y113622D01*
X304137Y113665D01*
X304117Y113667D01*
X304099Y113675D01*
X303932Y113693D01*
X300802Y113693D01*
X298038Y116457D01*
X298022Y116468D01*
X298010Y116484D01*
X297922Y116540D01*
X297839Y116600D01*
X297820Y116606D01*
X297803Y116617D01*
X297702Y116642D01*
X297603Y116673D01*
X297584Y116672D01*
X297564Y116677D01*
X297461Y116669D01*
X297358Y116666D01*
X297339Y116660D01*
X297319Y116658D01*
X297224Y116618D01*
X297127Y116582D01*
X297111Y116569D01*
X297093Y116562D01*
X296962Y116457D01*
X295198Y114693D01*
X290802Y114693D01*
X288038Y117457D01*
X288022Y117468D01*
X288010Y117484D01*
X287922Y117540D01*
X287839Y117600D01*
X287820Y117606D01*
X287803Y117617D01*
X287702Y117642D01*
X287603Y117673D01*
X287584Y117672D01*
X287564Y117677D01*
X287461Y117669D01*
X287358Y117666D01*
X287339Y117660D01*
X287319Y117658D01*
X287224Y117618D01*
X287127Y117582D01*
X287111Y117569D01*
X287093Y117562D01*
X286962Y117457D01*
X284198Y114693D01*
X279802Y114693D01*
X276693Y117802D01*
X276693Y122198D01*
X279802Y125307D01*
X284198Y125307D01*
X286962Y122543D01*
X286978Y122532D01*
X286990Y122516D01*
X287078Y122460D01*
X287161Y122400D01*
X287180Y122394D01*
X287197Y122383D01*
X287298Y122358D01*
X287397Y122327D01*
X287416Y122328D01*
X287436Y122323D01*
X287539Y122331D01*
X287642Y122334D01*
X287661Y122340D01*
X287681Y122342D01*
X287776Y122382D01*
X287873Y122418D01*
X287889Y122431D01*
X287907Y122438D01*
X288038Y122543D01*
X290802Y125307D01*
X295198Y125307D01*
X297962Y122543D01*
X297978Y122532D01*
X297990Y122516D01*
X298078Y122460D01*
X298161Y122400D01*
X298180Y122394D01*
X298197Y122383D01*
X298298Y122358D01*
X298397Y122327D01*
X298416Y122328D01*
X298436Y122323D01*
X298539Y122331D01*
X298642Y122334D01*
X298661Y122340D01*
X298681Y122342D01*
X298776Y122382D01*
X298873Y122418D01*
X298889Y122431D01*
X298907Y122438D01*
X299038Y122543D01*
X300802Y124307D01*
X305198Y124307D01*
X308307Y121198D01*
X308307Y118068D01*
X308310Y118048D01*
X308308Y118029D01*
X308330Y117927D01*
X308346Y117825D01*
X308356Y117808D01*
X308360Y117788D01*
X308413Y117699D01*
X308462Y117608D01*
X308476Y117594D01*
X308486Y117577D01*
X308565Y117510D01*
X308640Y117438D01*
X308658Y117430D01*
X308673Y117417D01*
X308769Y117378D01*
X308863Y117335D01*
X308883Y117333D01*
X308901Y117325D01*
X309068Y117307D01*
X312198Y117307D01*
X315307Y114198D01*
X315307Y110068D01*
X315310Y110048D01*
X315308Y110029D01*
X315330Y109927D01*
X315346Y109825D01*
X315356Y109808D01*
X315360Y109788D01*
X315413Y109699D01*
X315462Y109608D01*
X315476Y109594D01*
X315486Y109577D01*
X315565Y109510D01*
X315640Y109438D01*
X315658Y109430D01*
X315673Y109417D01*
X315769Y109378D01*
X315863Y109335D01*
X315883Y109333D01*
X315901Y109325D01*
X316068Y109307D01*
X318198Y109307D01*
X321307Y106198D01*
X321307Y101802D01*
X321111Y101606D01*
X321069Y101548D01*
X321020Y101496D01*
X320998Y101449D01*
X320968Y101407D01*
X320946Y101338D01*
X320916Y101273D01*
X320911Y101221D01*
X320895Y101171D01*
X320897Y101100D01*
X320889Y101029D01*
X320900Y100978D01*
X320902Y100926D01*
X320926Y100858D01*
X320941Y100788D01*
X320968Y100743D01*
X320986Y100695D01*
X321031Y100639D01*
X321068Y100577D01*
X321107Y100543D01*
X321140Y100503D01*
X321200Y100464D01*
X321255Y100417D01*
X321303Y100398D01*
X321347Y100370D01*
X321416Y100352D01*
X321483Y100325D01*
X321554Y100317D01*
X321585Y100309D01*
X321608Y100311D01*
X321649Y100307D01*
X324198Y100307D01*
X327307Y97198D01*
X327307Y92802D01*
X324198Y89693D01*
X319802Y89693D01*
G37*
%LPD*%
%LPC*%
G36*
X41802Y191693D02*
X41802Y191693D01*
X38693Y194802D01*
X38693Y199198D01*
X41802Y202307D01*
X44351Y202307D01*
X44421Y202318D01*
X44493Y202320D01*
X44542Y202338D01*
X44593Y202346D01*
X44657Y202380D01*
X44724Y202405D01*
X44765Y202437D01*
X44811Y202462D01*
X44860Y202513D01*
X44916Y202558D01*
X44944Y202602D01*
X44980Y202640D01*
X45010Y202705D01*
X45049Y202765D01*
X45062Y202816D01*
X45084Y202863D01*
X45092Y202934D01*
X45109Y203004D01*
X45105Y203056D01*
X45111Y203107D01*
X45096Y203178D01*
X45090Y203249D01*
X45070Y203297D01*
X45059Y203348D01*
X45022Y203409D01*
X44994Y203475D01*
X44949Y203531D01*
X44932Y203559D01*
X44915Y203574D01*
X44889Y203606D01*
X44693Y203802D01*
X44693Y208198D01*
X47802Y211307D01*
X52198Y211307D01*
X53394Y210111D01*
X53452Y210069D01*
X53504Y210020D01*
X53551Y209998D01*
X53593Y209968D01*
X53662Y209946D01*
X53727Y209916D01*
X53779Y209911D01*
X53829Y209895D01*
X53900Y209897D01*
X53971Y209889D01*
X54022Y209900D01*
X54074Y209902D01*
X54142Y209926D01*
X54212Y209941D01*
X54257Y209968D01*
X54305Y209986D01*
X54361Y210031D01*
X54423Y210068D01*
X54457Y210107D01*
X54497Y210140D01*
X54536Y210200D01*
X54583Y210255D01*
X54602Y210303D01*
X54630Y210347D01*
X54648Y210416D01*
X54675Y210483D01*
X54683Y210554D01*
X54691Y210585D01*
X54689Y210608D01*
X54693Y210649D01*
X54693Y212198D01*
X57802Y215307D01*
X62198Y215307D01*
X65307Y212198D01*
X65307Y207802D01*
X62198Y204693D01*
X57802Y204693D01*
X56606Y205889D01*
X56548Y205931D01*
X56496Y205980D01*
X56449Y206002D01*
X56407Y206032D01*
X56338Y206054D01*
X56273Y206084D01*
X56221Y206089D01*
X56171Y206105D01*
X56100Y206103D01*
X56029Y206111D01*
X55978Y206100D01*
X55926Y206098D01*
X55858Y206074D01*
X55788Y206059D01*
X55743Y206032D01*
X55695Y206014D01*
X55639Y205969D01*
X55577Y205932D01*
X55543Y205893D01*
X55503Y205860D01*
X55464Y205800D01*
X55417Y205745D01*
X55398Y205697D01*
X55370Y205653D01*
X55352Y205584D01*
X55325Y205517D01*
X55317Y205446D01*
X55309Y205415D01*
X55311Y205392D01*
X55307Y205351D01*
X55307Y203802D01*
X52198Y200693D01*
X49649Y200693D01*
X49579Y200682D01*
X49507Y200680D01*
X49458Y200662D01*
X49407Y200654D01*
X49343Y200620D01*
X49276Y200595D01*
X49235Y200563D01*
X49189Y200538D01*
X49140Y200487D01*
X49084Y200442D01*
X49056Y200398D01*
X49020Y200360D01*
X48990Y200295D01*
X48951Y200235D01*
X48938Y200184D01*
X48916Y200137D01*
X48908Y200066D01*
X48891Y199996D01*
X48895Y199944D01*
X48889Y199893D01*
X48904Y199822D01*
X48910Y199751D01*
X48930Y199703D01*
X48941Y199652D01*
X48978Y199591D01*
X49006Y199525D01*
X49051Y199469D01*
X49068Y199441D01*
X49085Y199426D01*
X49111Y199394D01*
X49307Y199198D01*
X49307Y194802D01*
X46198Y191693D01*
X41802Y191693D01*
G37*
%LPD*%
%LPC*%
G36*
X28802Y194693D02*
X28802Y194693D01*
X25693Y197802D01*
X25693Y198351D01*
X25682Y198421D01*
X25680Y198493D01*
X25662Y198542D01*
X25654Y198593D01*
X25620Y198657D01*
X25595Y198724D01*
X25563Y198765D01*
X25538Y198811D01*
X25486Y198860D01*
X25442Y198916D01*
X25398Y198944D01*
X25360Y198980D01*
X25295Y199010D01*
X25235Y199049D01*
X25184Y199062D01*
X25137Y199084D01*
X25066Y199092D01*
X24996Y199109D01*
X24944Y199105D01*
X24893Y199111D01*
X24822Y199096D01*
X24751Y199090D01*
X24703Y199070D01*
X24652Y199059D01*
X24591Y199022D01*
X24525Y198994D01*
X24469Y198949D01*
X24441Y198932D01*
X24426Y198915D01*
X24394Y198889D01*
X23198Y197693D01*
X18802Y197693D01*
X17538Y198957D01*
X17522Y198968D01*
X17510Y198984D01*
X17422Y199040D01*
X17339Y199100D01*
X17320Y199106D01*
X17303Y199117D01*
X17202Y199142D01*
X17103Y199173D01*
X17084Y199172D01*
X17064Y199177D01*
X16961Y199169D01*
X16858Y199166D01*
X16839Y199160D01*
X16819Y199158D01*
X16724Y199118D01*
X16627Y199082D01*
X16611Y199069D01*
X16593Y199062D01*
X16462Y198957D01*
X13198Y195693D01*
X8802Y195693D01*
X5693Y198802D01*
X5693Y203198D01*
X8802Y206307D01*
X13198Y206307D01*
X14462Y205043D01*
X14478Y205032D01*
X14490Y205016D01*
X14578Y204960D01*
X14661Y204900D01*
X14680Y204894D01*
X14697Y204883D01*
X14798Y204858D01*
X14897Y204827D01*
X14916Y204828D01*
X14936Y204823D01*
X15039Y204831D01*
X15142Y204834D01*
X15161Y204840D01*
X15181Y204842D01*
X15276Y204882D01*
X15373Y204918D01*
X15389Y204931D01*
X15407Y204938D01*
X15538Y205043D01*
X18802Y208307D01*
X23198Y208307D01*
X26307Y205198D01*
X26307Y204649D01*
X26318Y204579D01*
X26320Y204507D01*
X26338Y204458D01*
X26346Y204407D01*
X26380Y204343D01*
X26405Y204276D01*
X26437Y204235D01*
X26462Y204189D01*
X26514Y204140D01*
X26558Y204084D01*
X26602Y204056D01*
X26640Y204020D01*
X26705Y203990D01*
X26765Y203951D01*
X26816Y203938D01*
X26863Y203916D01*
X26934Y203908D01*
X27004Y203891D01*
X27056Y203895D01*
X27107Y203889D01*
X27178Y203904D01*
X27249Y203910D01*
X27297Y203930D01*
X27348Y203941D01*
X27409Y203978D01*
X27475Y204006D01*
X27531Y204051D01*
X27559Y204068D01*
X27574Y204085D01*
X27606Y204111D01*
X28802Y205307D01*
X33198Y205307D01*
X36307Y202198D01*
X36307Y197802D01*
X33198Y194693D01*
X28802Y194693D01*
G37*
%LPD*%
%LPC*%
G36*
X-61198Y204693D02*
X-61198Y204693D01*
X-64307Y207802D01*
X-64307Y212198D01*
X-61198Y215307D01*
X-56802Y215307D01*
X-55606Y214111D01*
X-55548Y214069D01*
X-55496Y214020D01*
X-55449Y213998D01*
X-55407Y213968D01*
X-55338Y213946D01*
X-55273Y213916D01*
X-55221Y213911D01*
X-55171Y213895D01*
X-55100Y213897D01*
X-55029Y213889D01*
X-54978Y213900D01*
X-54926Y213902D01*
X-54858Y213926D01*
X-54788Y213941D01*
X-54743Y213968D01*
X-54695Y213986D01*
X-54639Y214031D01*
X-54577Y214068D01*
X-54543Y214107D01*
X-54503Y214140D01*
X-54464Y214200D01*
X-54417Y214255D01*
X-54398Y214303D01*
X-54370Y214347D01*
X-54352Y214416D01*
X-54325Y214483D01*
X-54317Y214554D01*
X-54309Y214585D01*
X-54311Y214608D01*
X-54307Y214649D01*
X-54307Y217198D01*
X-51198Y220307D01*
X-46802Y220307D01*
X-44038Y217543D01*
X-44022Y217532D01*
X-44010Y217516D01*
X-43922Y217460D01*
X-43839Y217400D01*
X-43820Y217394D01*
X-43803Y217383D01*
X-43702Y217358D01*
X-43603Y217327D01*
X-43584Y217328D01*
X-43564Y217323D01*
X-43461Y217331D01*
X-43358Y217334D01*
X-43339Y217340D01*
X-43319Y217342D01*
X-43224Y217382D01*
X-43127Y217418D01*
X-43111Y217431D01*
X-43093Y217438D01*
X-42962Y217543D01*
X-41198Y219307D01*
X-36802Y219307D01*
X-33693Y216198D01*
X-33693Y211802D01*
X-36802Y208693D01*
X-41198Y208693D01*
X-43962Y211457D01*
X-43978Y211468D01*
X-43990Y211484D01*
X-44078Y211540D01*
X-44161Y211600D01*
X-44180Y211606D01*
X-44197Y211617D01*
X-44298Y211642D01*
X-44397Y211673D01*
X-44416Y211672D01*
X-44436Y211677D01*
X-44539Y211669D01*
X-44642Y211666D01*
X-44661Y211660D01*
X-44681Y211658D01*
X-44776Y211618D01*
X-44873Y211582D01*
X-44889Y211569D01*
X-44907Y211562D01*
X-45038Y211457D01*
X-46802Y209693D01*
X-51198Y209693D01*
X-52394Y210889D01*
X-52452Y210931D01*
X-52504Y210980D01*
X-52551Y211002D01*
X-52593Y211032D01*
X-52662Y211054D01*
X-52727Y211084D01*
X-52779Y211089D01*
X-52829Y211105D01*
X-52900Y211103D01*
X-52971Y211111D01*
X-53022Y211100D01*
X-53074Y211098D01*
X-53142Y211074D01*
X-53212Y211059D01*
X-53257Y211032D01*
X-53305Y211014D01*
X-53361Y210969D01*
X-53423Y210932D01*
X-53457Y210893D01*
X-53497Y210860D01*
X-53536Y210800D01*
X-53583Y210745D01*
X-53602Y210697D01*
X-53630Y210653D01*
X-53648Y210584D01*
X-53675Y210517D01*
X-53683Y210446D01*
X-53691Y210415D01*
X-53689Y210392D01*
X-53693Y210351D01*
X-53693Y207802D01*
X-56802Y204693D01*
X-61198Y204693D01*
G37*
%LPD*%
%LPC*%
G36*
X315451Y-115825D02*
X315451Y-115825D01*
X312090Y-114433D01*
X309517Y-111860D01*
X308125Y-108499D01*
X308125Y-104861D01*
X309517Y-101500D01*
X312090Y-98927D01*
X315451Y-97535D01*
X319089Y-97535D01*
X322450Y-98927D01*
X325023Y-101500D01*
X326415Y-104861D01*
X326415Y-108499D01*
X325023Y-111860D01*
X322450Y-114433D01*
X319089Y-115825D01*
X315451Y-115825D01*
G37*
%LPD*%
%LPC*%
G36*
X169881Y275555D02*
X169881Y275555D01*
X166520Y276947D01*
X163947Y279520D01*
X162555Y282881D01*
X162555Y286519D01*
X163947Y289880D01*
X166520Y292453D01*
X169881Y293845D01*
X173519Y293845D01*
X176880Y292453D01*
X179453Y289880D01*
X180845Y286519D01*
X180845Y282881D01*
X179453Y279520D01*
X176880Y276947D01*
X173519Y275555D01*
X169881Y275555D01*
G37*
%LPD*%
%LPC*%
G36*
X144481Y275555D02*
X144481Y275555D01*
X141120Y276947D01*
X138547Y279520D01*
X137155Y282881D01*
X137155Y286519D01*
X138547Y289880D01*
X141120Y292453D01*
X144481Y293845D01*
X148119Y293845D01*
X151480Y292453D01*
X154053Y289880D01*
X155445Y286519D01*
X155445Y282881D01*
X154053Y279520D01*
X151480Y276947D01*
X148119Y275555D01*
X144481Y275555D01*
G37*
%LPD*%
%LPC*%
G36*
X169881Y224755D02*
X169881Y224755D01*
X166520Y226147D01*
X163947Y228720D01*
X162555Y232081D01*
X162555Y235719D01*
X163947Y239080D01*
X166520Y241653D01*
X169881Y243045D01*
X173519Y243045D01*
X176880Y241653D01*
X179453Y239080D01*
X180845Y235719D01*
X180845Y232081D01*
X179453Y228720D01*
X176880Y226147D01*
X173519Y224755D01*
X169881Y224755D01*
G37*
%LPD*%
%LPC*%
G36*
X315451Y-141225D02*
X315451Y-141225D01*
X312090Y-139833D01*
X309517Y-137260D01*
X308125Y-133899D01*
X308125Y-130261D01*
X309517Y-126900D01*
X312090Y-124327D01*
X315451Y-122935D01*
X319089Y-122935D01*
X322450Y-124327D01*
X325023Y-126900D01*
X326415Y-130261D01*
X326415Y-133899D01*
X325023Y-137260D01*
X322450Y-139833D01*
X319089Y-141225D01*
X315451Y-141225D01*
G37*
%LPD*%
%LPC*%
G36*
X169881Y250155D02*
X169881Y250155D01*
X166520Y251547D01*
X163947Y254120D01*
X162555Y257481D01*
X162555Y261119D01*
X163947Y264480D01*
X166520Y267053D01*
X169881Y268445D01*
X173519Y268445D01*
X176880Y267053D01*
X179453Y264480D01*
X180845Y261119D01*
X180845Y257481D01*
X179453Y254120D01*
X176880Y251547D01*
X173519Y250155D01*
X169881Y250155D01*
G37*
%LPD*%
%LPC*%
G36*
X144481Y224755D02*
X144481Y224755D01*
X141120Y226147D01*
X138547Y228720D01*
X137155Y232081D01*
X137155Y235719D01*
X138547Y239080D01*
X141120Y241653D01*
X144481Y243045D01*
X148119Y243045D01*
X151480Y241653D01*
X154053Y239080D01*
X155445Y235719D01*
X155445Y232081D01*
X154053Y228720D01*
X151480Y226147D01*
X148119Y224755D01*
X144481Y224755D01*
G37*
%LPD*%
%LPC*%
G36*
X144481Y250155D02*
X144481Y250155D01*
X141120Y251547D01*
X138547Y254120D01*
X137155Y257481D01*
X137155Y261119D01*
X138547Y264480D01*
X141120Y267053D01*
X144481Y268445D01*
X148119Y268445D01*
X151480Y267053D01*
X154053Y264480D01*
X155445Y261119D01*
X155445Y257481D01*
X154053Y254120D01*
X151480Y251547D01*
X148119Y250155D01*
X144481Y250155D01*
G37*
%LPD*%
%LPC*%
G36*
X144481Y300955D02*
X144481Y300955D01*
X141120Y302347D01*
X138547Y304920D01*
X137155Y308281D01*
X137155Y311919D01*
X138547Y315280D01*
X141120Y317853D01*
X144481Y319245D01*
X148119Y319245D01*
X151480Y317853D01*
X154053Y315280D01*
X155445Y311919D01*
X155445Y308281D01*
X154053Y304920D01*
X151480Y302347D01*
X148119Y300955D01*
X144481Y300955D01*
G37*
%LPD*%
%LPC*%
G36*
X169881Y300955D02*
X169881Y300955D01*
X166520Y302347D01*
X163947Y304920D01*
X162555Y308281D01*
X162555Y311919D01*
X163947Y315280D01*
X166520Y317853D01*
X169881Y319245D01*
X173519Y319245D01*
X176880Y317853D01*
X179453Y315280D01*
X180845Y311919D01*
X180845Y308281D01*
X179453Y304920D01*
X176880Y302347D01*
X173519Y300955D01*
X169881Y300955D01*
G37*
%LPD*%
%LPC*%
G36*
X58897Y-223465D02*
X58897Y-223465D01*
X55565Y-222085D01*
X53015Y-219535D01*
X51635Y-216203D01*
X51635Y-212597D01*
X53015Y-209265D01*
X55565Y-206715D01*
X58897Y-205335D01*
X62503Y-205335D01*
X65835Y-206715D01*
X68385Y-209265D01*
X69765Y-212597D01*
X69765Y-216203D01*
X68385Y-219535D01*
X65835Y-222085D01*
X62503Y-223465D01*
X58897Y-223465D01*
G37*
%LPD*%
%LPC*%
G36*
X202897Y-101965D02*
X202897Y-101965D01*
X199565Y-100585D01*
X197015Y-98035D01*
X195635Y-94703D01*
X195635Y-91097D01*
X197015Y-87765D01*
X199565Y-85215D01*
X202897Y-83835D01*
X206503Y-83835D01*
X209835Y-85215D01*
X212385Y-87765D01*
X213765Y-91097D01*
X213765Y-94703D01*
X212385Y-98035D01*
X209835Y-100585D01*
X206503Y-101965D01*
X202897Y-101965D01*
G37*
%LPD*%
%LPC*%
G36*
X209895Y44443D02*
X209895Y44443D01*
X207852Y45289D01*
X206289Y46852D01*
X205443Y48895D01*
X205443Y51105D01*
X206289Y53148D01*
X207780Y54639D01*
X207792Y54655D01*
X207807Y54667D01*
X207837Y54713D01*
X207859Y54736D01*
X207874Y54769D01*
X207924Y54838D01*
X207929Y54857D01*
X207940Y54874D01*
X207961Y54957D01*
X207962Y54959D01*
X207963Y54962D01*
X207966Y54975D01*
X207996Y55073D01*
X207995Y55093D01*
X208000Y55113D01*
X207992Y55216D01*
X207990Y55319D01*
X207983Y55338D01*
X207981Y55358D01*
X207941Y55453D01*
X207905Y55550D01*
X207893Y55566D01*
X207885Y55584D01*
X207780Y55715D01*
X204693Y58802D01*
X204693Y63198D01*
X207802Y66307D01*
X212198Y66307D01*
X215307Y63198D01*
X215307Y58802D01*
X212880Y56375D01*
X212853Y56338D01*
X212819Y56307D01*
X212782Y56239D01*
X212736Y56175D01*
X212723Y56132D01*
X212701Y56091D01*
X212687Y56015D01*
X212664Y55940D01*
X212665Y55894D01*
X212657Y55849D01*
X212668Y55772D01*
X212670Y55694D01*
X212686Y55651D01*
X212693Y55606D01*
X212728Y55537D01*
X212755Y55463D01*
X212784Y55428D01*
X212804Y55387D01*
X212860Y55332D01*
X212909Y55271D01*
X212947Y55247D01*
X212980Y55214D01*
X213100Y55148D01*
X213116Y55138D01*
X213120Y55137D01*
X213127Y55134D01*
X214148Y54711D01*
X215711Y53148D01*
X216557Y51105D01*
X216557Y48895D01*
X215711Y46852D01*
X214148Y45289D01*
X212105Y44443D01*
X209895Y44443D01*
G37*
%LPD*%
%LPC*%
G36*
X278802Y169693D02*
X278802Y169693D01*
X275693Y172802D01*
X275693Y176932D01*
X275690Y176952D01*
X275692Y176971D01*
X275670Y177073D01*
X275654Y177175D01*
X275644Y177192D01*
X275640Y177212D01*
X275587Y177301D01*
X275538Y177392D01*
X275524Y177406D01*
X275514Y177423D01*
X275435Y177490D01*
X275360Y177562D01*
X275342Y177570D01*
X275327Y177583D01*
X275231Y177622D01*
X275137Y177665D01*
X275117Y177667D01*
X275099Y177675D01*
X274932Y177693D01*
X270802Y177693D01*
X267693Y180802D01*
X267693Y185198D01*
X270802Y188307D01*
X275198Y188307D01*
X278307Y185198D01*
X278307Y181068D01*
X278310Y181048D01*
X278308Y181029D01*
X278330Y180927D01*
X278346Y180825D01*
X278356Y180808D01*
X278360Y180788D01*
X278413Y180699D01*
X278462Y180608D01*
X278476Y180594D01*
X278486Y180577D01*
X278565Y180510D01*
X278640Y180438D01*
X278658Y180430D01*
X278673Y180417D01*
X278769Y180378D01*
X278863Y180335D01*
X278883Y180333D01*
X278901Y180325D01*
X279068Y180307D01*
X283198Y180307D01*
X286307Y177198D01*
X286307Y172802D01*
X283198Y169693D01*
X278802Y169693D01*
G37*
%LPD*%
%LPC*%
G36*
X-204198Y-194307D02*
X-204198Y-194307D01*
X-207307Y-191198D01*
X-207307Y-186802D01*
X-204198Y-183693D01*
X-199802Y-183693D01*
X-198606Y-184889D01*
X-198548Y-184931D01*
X-198496Y-184980D01*
X-198449Y-185002D01*
X-198407Y-185032D01*
X-198338Y-185054D01*
X-198273Y-185084D01*
X-198221Y-185089D01*
X-198171Y-185105D01*
X-198100Y-185103D01*
X-198029Y-185111D01*
X-197978Y-185100D01*
X-197926Y-185098D01*
X-197858Y-185074D01*
X-197788Y-185059D01*
X-197743Y-185032D01*
X-197695Y-185014D01*
X-197639Y-184969D01*
X-197577Y-184932D01*
X-197543Y-184893D01*
X-197503Y-184860D01*
X-197464Y-184800D01*
X-197417Y-184745D01*
X-197398Y-184697D01*
X-197370Y-184653D01*
X-197352Y-184584D01*
X-197325Y-184517D01*
X-197317Y-184446D01*
X-197309Y-184415D01*
X-197311Y-184392D01*
X-197307Y-184351D01*
X-197307Y-180802D01*
X-194198Y-177693D01*
X-189802Y-177693D01*
X-186693Y-180802D01*
X-186693Y-185198D01*
X-189802Y-188307D01*
X-194198Y-188307D01*
X-195394Y-187111D01*
X-195452Y-187069D01*
X-195504Y-187020D01*
X-195551Y-186998D01*
X-195593Y-186968D01*
X-195662Y-186946D01*
X-195727Y-186916D01*
X-195779Y-186911D01*
X-195829Y-186895D01*
X-195900Y-186897D01*
X-195971Y-186889D01*
X-196022Y-186900D01*
X-196074Y-186902D01*
X-196142Y-186926D01*
X-196212Y-186941D01*
X-196257Y-186968D01*
X-196305Y-186986D01*
X-196361Y-187031D01*
X-196423Y-187068D01*
X-196457Y-187107D01*
X-196497Y-187140D01*
X-196536Y-187200D01*
X-196583Y-187255D01*
X-196602Y-187303D01*
X-196630Y-187347D01*
X-196648Y-187416D01*
X-196675Y-187483D01*
X-196683Y-187554D01*
X-196691Y-187585D01*
X-196689Y-187608D01*
X-196693Y-187649D01*
X-196693Y-191198D01*
X-199802Y-194307D01*
X-204198Y-194307D01*
G37*
%LPD*%
%LPC*%
G36*
X-100198Y-287307D02*
X-100198Y-287307D01*
X-103307Y-284198D01*
X-103307Y-279802D01*
X-100198Y-276693D01*
X-95802Y-276693D01*
X-94606Y-277889D01*
X-94548Y-277931D01*
X-94496Y-277980D01*
X-94449Y-278002D01*
X-94407Y-278032D01*
X-94338Y-278054D01*
X-94273Y-278084D01*
X-94221Y-278089D01*
X-94171Y-278105D01*
X-94100Y-278103D01*
X-94029Y-278111D01*
X-93978Y-278100D01*
X-93926Y-278098D01*
X-93858Y-278074D01*
X-93788Y-278059D01*
X-93743Y-278032D01*
X-93695Y-278014D01*
X-93639Y-277969D01*
X-93577Y-277932D01*
X-93543Y-277893D01*
X-93503Y-277860D01*
X-93464Y-277800D01*
X-93417Y-277745D01*
X-93398Y-277697D01*
X-93370Y-277653D01*
X-93352Y-277584D01*
X-93325Y-277517D01*
X-93317Y-277446D01*
X-93309Y-277415D01*
X-93311Y-277392D01*
X-93307Y-277351D01*
X-93307Y-273802D01*
X-90198Y-270693D01*
X-85802Y-270693D01*
X-82693Y-273802D01*
X-82693Y-278198D01*
X-85802Y-281307D01*
X-90198Y-281307D01*
X-91394Y-280111D01*
X-91452Y-280069D01*
X-91504Y-280020D01*
X-91551Y-279998D01*
X-91593Y-279968D01*
X-91662Y-279946D01*
X-91727Y-279916D01*
X-91779Y-279911D01*
X-91829Y-279895D01*
X-91900Y-279897D01*
X-91971Y-279889D01*
X-92022Y-279900D01*
X-92074Y-279902D01*
X-92142Y-279926D01*
X-92212Y-279941D01*
X-92257Y-279968D01*
X-92305Y-279986D01*
X-92361Y-280031D01*
X-92423Y-280068D01*
X-92457Y-280107D01*
X-92497Y-280140D01*
X-92536Y-280200D01*
X-92583Y-280255D01*
X-92602Y-280303D01*
X-92630Y-280347D01*
X-92648Y-280416D01*
X-92675Y-280483D01*
X-92683Y-280554D01*
X-92691Y-280585D01*
X-92689Y-280608D01*
X-92693Y-280649D01*
X-92693Y-284198D01*
X-95802Y-287307D01*
X-100198Y-287307D01*
G37*
%LPD*%
%LPC*%
G36*
X98802Y173693D02*
X98802Y173693D01*
X95693Y176802D01*
X95693Y181198D01*
X98802Y184307D01*
X103198Y184307D01*
X105962Y181543D01*
X105978Y181532D01*
X105990Y181516D01*
X106078Y181460D01*
X106161Y181400D01*
X106180Y181394D01*
X106197Y181383D01*
X106298Y181358D01*
X106397Y181327D01*
X106416Y181328D01*
X106436Y181323D01*
X106539Y181331D01*
X106642Y181334D01*
X106661Y181340D01*
X106681Y181342D01*
X106776Y181382D01*
X106873Y181418D01*
X106889Y181431D01*
X106907Y181438D01*
X107038Y181543D01*
X109802Y184307D01*
X114198Y184307D01*
X117307Y181198D01*
X117307Y176802D01*
X114198Y173693D01*
X109802Y173693D01*
X107038Y176457D01*
X107022Y176468D01*
X107010Y176484D01*
X106922Y176540D01*
X106839Y176600D01*
X106820Y176606D01*
X106803Y176617D01*
X106702Y176642D01*
X106603Y176673D01*
X106584Y176672D01*
X106564Y176677D01*
X106461Y176669D01*
X106358Y176666D01*
X106339Y176660D01*
X106319Y176658D01*
X106224Y176618D01*
X106127Y176582D01*
X106111Y176569D01*
X106093Y176562D01*
X105962Y176457D01*
X103198Y173693D01*
X98802Y173693D01*
G37*
%LPD*%
%LPC*%
G36*
X54802Y219693D02*
X54802Y219693D01*
X51693Y222802D01*
X51693Y227198D01*
X54457Y229962D01*
X54468Y229978D01*
X54484Y229990D01*
X54540Y230078D01*
X54600Y230161D01*
X54606Y230180D01*
X54617Y230197D01*
X54642Y230298D01*
X54673Y230397D01*
X54672Y230416D01*
X54677Y230436D01*
X54669Y230539D01*
X54666Y230642D01*
X54660Y230661D01*
X54658Y230681D01*
X54618Y230776D01*
X54582Y230873D01*
X54569Y230889D01*
X54562Y230907D01*
X54457Y231038D01*
X51693Y233802D01*
X51693Y238198D01*
X54802Y241307D01*
X59198Y241307D01*
X62307Y238198D01*
X62307Y233802D01*
X59543Y231038D01*
X59532Y231022D01*
X59516Y231010D01*
X59460Y230922D01*
X59400Y230839D01*
X59394Y230820D01*
X59383Y230803D01*
X59358Y230702D01*
X59327Y230603D01*
X59328Y230584D01*
X59323Y230564D01*
X59331Y230461D01*
X59334Y230358D01*
X59340Y230339D01*
X59342Y230319D01*
X59382Y230224D01*
X59418Y230127D01*
X59431Y230111D01*
X59438Y230093D01*
X59543Y229962D01*
X62307Y227198D01*
X62307Y222802D01*
X59198Y219693D01*
X54802Y219693D01*
G37*
%LPD*%
%LPC*%
G36*
X112802Y135693D02*
X112802Y135693D01*
X109693Y138802D01*
X109693Y143198D01*
X112802Y146307D01*
X113351Y146307D01*
X113421Y146318D01*
X113493Y146320D01*
X113542Y146338D01*
X113593Y146346D01*
X113657Y146380D01*
X113724Y146405D01*
X113765Y146437D01*
X113811Y146462D01*
X113860Y146514D01*
X113916Y146558D01*
X113944Y146602D01*
X113980Y146640D01*
X114010Y146705D01*
X114049Y146765D01*
X114062Y146816D01*
X114084Y146863D01*
X114092Y146934D01*
X114109Y147004D01*
X114105Y147056D01*
X114111Y147107D01*
X114096Y147178D01*
X114090Y147249D01*
X114070Y147297D01*
X114059Y147348D01*
X114022Y147409D01*
X113994Y147475D01*
X113949Y147531D01*
X113932Y147559D01*
X113915Y147574D01*
X113889Y147606D01*
X112693Y148802D01*
X112693Y153198D01*
X115802Y156307D01*
X120198Y156307D01*
X123307Y153198D01*
X123307Y148802D01*
X120198Y145693D01*
X119649Y145693D01*
X119579Y145682D01*
X119507Y145680D01*
X119458Y145662D01*
X119407Y145654D01*
X119343Y145620D01*
X119276Y145595D01*
X119235Y145563D01*
X119189Y145538D01*
X119140Y145486D01*
X119084Y145442D01*
X119056Y145398D01*
X119020Y145360D01*
X118990Y145295D01*
X118951Y145235D01*
X118938Y145184D01*
X118916Y145137D01*
X118908Y145066D01*
X118891Y144996D01*
X118895Y144944D01*
X118889Y144893D01*
X118904Y144822D01*
X118910Y144751D01*
X118930Y144703D01*
X118941Y144652D01*
X118978Y144591D01*
X119006Y144525D01*
X119051Y144469D01*
X119068Y144441D01*
X119085Y144426D01*
X119111Y144394D01*
X120307Y143198D01*
X120307Y138802D01*
X117198Y135693D01*
X112802Y135693D01*
G37*
%LPD*%
%LPC*%
G36*
X151802Y144693D02*
X151802Y144693D01*
X148693Y147802D01*
X148693Y152198D01*
X150457Y153962D01*
X150468Y153978D01*
X150484Y153990D01*
X150540Y154078D01*
X150600Y154161D01*
X150606Y154180D01*
X150617Y154197D01*
X150642Y154298D01*
X150673Y154397D01*
X150672Y154416D01*
X150677Y154436D01*
X150669Y154539D01*
X150666Y154642D01*
X150660Y154661D01*
X150658Y154681D01*
X150618Y154776D01*
X150582Y154873D01*
X150569Y154889D01*
X150562Y154907D01*
X150457Y155038D01*
X147693Y157802D01*
X147693Y162198D01*
X150802Y165307D01*
X155198Y165307D01*
X158307Y162198D01*
X158307Y157802D01*
X156543Y156038D01*
X156532Y156022D01*
X156516Y156010D01*
X156460Y155922D01*
X156400Y155839D01*
X156394Y155820D01*
X156383Y155803D01*
X156358Y155702D01*
X156327Y155603D01*
X156328Y155584D01*
X156323Y155564D01*
X156331Y155461D01*
X156334Y155358D01*
X156340Y155339D01*
X156342Y155319D01*
X156382Y155224D01*
X156418Y155127D01*
X156431Y155111D01*
X156438Y155093D01*
X156543Y154962D01*
X159307Y152198D01*
X159307Y147802D01*
X156198Y144693D01*
X151802Y144693D01*
G37*
%LPD*%
%LPC*%
G36*
X132802Y173693D02*
X132802Y173693D01*
X129693Y176802D01*
X129693Y181198D01*
X132802Y184307D01*
X137198Y184307D01*
X139462Y182043D01*
X139478Y182032D01*
X139490Y182016D01*
X139578Y181960D01*
X139661Y181900D01*
X139680Y181894D01*
X139697Y181883D01*
X139798Y181858D01*
X139897Y181827D01*
X139916Y181828D01*
X139936Y181823D01*
X140039Y181831D01*
X140142Y181834D01*
X140161Y181840D01*
X140181Y181842D01*
X140276Y181882D01*
X140373Y181918D01*
X140389Y181931D01*
X140407Y181938D01*
X140538Y182043D01*
X142802Y184307D01*
X147198Y184307D01*
X150307Y181198D01*
X150307Y176802D01*
X147198Y173693D01*
X142802Y173693D01*
X140538Y175957D01*
X140522Y175968D01*
X140510Y175984D01*
X140422Y176040D01*
X140339Y176100D01*
X140320Y176106D01*
X140303Y176117D01*
X140202Y176142D01*
X140103Y176173D01*
X140084Y176172D01*
X140064Y176177D01*
X139961Y176169D01*
X139858Y176166D01*
X139839Y176160D01*
X139819Y176158D01*
X139724Y176118D01*
X139627Y176082D01*
X139611Y176069D01*
X139593Y176062D01*
X139462Y175957D01*
X137198Y173693D01*
X132802Y173693D01*
G37*
%LPD*%
%LPC*%
G36*
X-248198Y-96307D02*
X-248198Y-96307D01*
X-251307Y-93198D01*
X-251307Y-88802D01*
X-249043Y-86538D01*
X-249032Y-86522D01*
X-249016Y-86510D01*
X-248960Y-86422D01*
X-248900Y-86339D01*
X-248894Y-86320D01*
X-248883Y-86303D01*
X-248858Y-86202D01*
X-248827Y-86103D01*
X-248828Y-86084D01*
X-248823Y-86064D01*
X-248831Y-85961D01*
X-248834Y-85858D01*
X-248840Y-85839D01*
X-248842Y-85819D01*
X-248882Y-85724D01*
X-248918Y-85627D01*
X-248931Y-85611D01*
X-248938Y-85593D01*
X-249043Y-85462D01*
X-251307Y-83198D01*
X-251307Y-78802D01*
X-248198Y-75693D01*
X-243802Y-75693D01*
X-240693Y-78802D01*
X-240693Y-83198D01*
X-242957Y-85462D01*
X-242968Y-85478D01*
X-242984Y-85490D01*
X-243040Y-85578D01*
X-243100Y-85661D01*
X-243106Y-85680D01*
X-243117Y-85697D01*
X-243142Y-85798D01*
X-243173Y-85897D01*
X-243172Y-85916D01*
X-243177Y-85936D01*
X-243169Y-86039D01*
X-243166Y-86142D01*
X-243160Y-86161D01*
X-243158Y-86181D01*
X-243118Y-86276D01*
X-243082Y-86373D01*
X-243069Y-86389D01*
X-243062Y-86407D01*
X-242957Y-86538D01*
X-240693Y-88802D01*
X-240693Y-93198D01*
X-243802Y-96307D01*
X-248198Y-96307D01*
G37*
%LPD*%
%LPC*%
G36*
X235802Y204693D02*
X235802Y204693D01*
X232693Y207802D01*
X232693Y212198D01*
X235802Y215307D01*
X240198Y215307D01*
X243307Y212198D01*
X243307Y207802D01*
X240198Y204693D01*
X235802Y204693D01*
G37*
%LPD*%
%LPC*%
G36*
X-271198Y197693D02*
X-271198Y197693D01*
X-274307Y200802D01*
X-274307Y205198D01*
X-271198Y208307D01*
X-266802Y208307D01*
X-263693Y205198D01*
X-263693Y200802D01*
X-266802Y197693D01*
X-271198Y197693D01*
G37*
%LPD*%
%LPC*%
G36*
X89802Y204693D02*
X89802Y204693D01*
X86693Y207802D01*
X86693Y212198D01*
X89802Y215307D01*
X94198Y215307D01*
X97307Y212198D01*
X97307Y207802D01*
X94198Y204693D01*
X89802Y204693D01*
G37*
%LPD*%
%LPC*%
G36*
X244802Y193693D02*
X244802Y193693D01*
X241693Y196802D01*
X241693Y201198D01*
X244802Y204307D01*
X249198Y204307D01*
X252307Y201198D01*
X252307Y196802D01*
X249198Y193693D01*
X244802Y193693D01*
G37*
%LPD*%
%LPC*%
G36*
X-28106Y192813D02*
X-28106Y192813D01*
X-31215Y195922D01*
X-31215Y200318D01*
X-28106Y203427D01*
X-23710Y203427D01*
X-20601Y200318D01*
X-20601Y195922D01*
X-23710Y192813D01*
X-28106Y192813D01*
G37*
%LPD*%
%LPC*%
G36*
X-18198Y-289307D02*
X-18198Y-289307D01*
X-21307Y-286198D01*
X-21307Y-281802D01*
X-18198Y-278693D01*
X-13802Y-278693D01*
X-10693Y-281802D01*
X-10693Y-286198D01*
X-13802Y-289307D01*
X-18198Y-289307D01*
G37*
%LPD*%
%LPC*%
G36*
X29802Y311693D02*
X29802Y311693D01*
X26693Y314802D01*
X26693Y319198D01*
X29802Y322307D01*
X34198Y322307D01*
X37307Y319198D01*
X37307Y314802D01*
X34198Y311693D01*
X29802Y311693D01*
G37*
%LPD*%
%LPC*%
G36*
X219802Y185693D02*
X219802Y185693D01*
X216693Y188802D01*
X216693Y193198D01*
X219802Y196307D01*
X224198Y196307D01*
X227307Y193198D01*
X227307Y188802D01*
X224198Y185693D01*
X219802Y185693D01*
G37*
%LPD*%
%LPC*%
G36*
X265802Y205693D02*
X265802Y205693D01*
X262693Y208802D01*
X262693Y213198D01*
X265802Y216307D01*
X270198Y216307D01*
X273307Y213198D01*
X273307Y208802D01*
X270198Y205693D01*
X265802Y205693D01*
G37*
%LPD*%
%LPC*%
G36*
X156802Y174693D02*
X156802Y174693D01*
X153693Y177802D01*
X153693Y182198D01*
X156802Y185307D01*
X161198Y185307D01*
X164307Y182198D01*
X164307Y177802D01*
X161198Y174693D01*
X156802Y174693D01*
G37*
%LPD*%
%LPC*%
G36*
X207802Y174693D02*
X207802Y174693D01*
X204693Y177802D01*
X204693Y182198D01*
X207802Y185307D01*
X212198Y185307D01*
X215307Y182198D01*
X215307Y177802D01*
X212198Y174693D01*
X207802Y174693D01*
G37*
%LPD*%
%LPC*%
G36*
X-103198Y219693D02*
X-103198Y219693D01*
X-106307Y222802D01*
X-106307Y227198D01*
X-103198Y230307D01*
X-98802Y230307D01*
X-95693Y227198D01*
X-95693Y222802D01*
X-98802Y219693D01*
X-103198Y219693D01*
G37*
%LPD*%
%LPC*%
G36*
X11802Y220693D02*
X11802Y220693D01*
X8693Y223802D01*
X8693Y228198D01*
X11802Y231307D01*
X16198Y231307D01*
X19307Y228198D01*
X19307Y223802D01*
X16198Y220693D01*
X11802Y220693D01*
G37*
%LPD*%
%LPC*%
G36*
X254802Y169693D02*
X254802Y169693D01*
X251693Y172802D01*
X251693Y177198D01*
X254802Y180307D01*
X259198Y180307D01*
X262307Y177198D01*
X262307Y172802D01*
X259198Y169693D01*
X254802Y169693D01*
G37*
%LPD*%
%LPC*%
G36*
X-261198Y222693D02*
X-261198Y222693D01*
X-264307Y225802D01*
X-264307Y230198D01*
X-261198Y233307D01*
X-256802Y233307D01*
X-253693Y230198D01*
X-253693Y225802D01*
X-256802Y222693D01*
X-261198Y222693D01*
G37*
%LPD*%
%LPC*%
G36*
X-207198Y239693D02*
X-207198Y239693D01*
X-210307Y242802D01*
X-210307Y247198D01*
X-207198Y250307D01*
X-202802Y250307D01*
X-199693Y247198D01*
X-199693Y242802D01*
X-202802Y239693D01*
X-207198Y239693D01*
G37*
%LPD*%
%LPC*%
G36*
X187802Y240693D02*
X187802Y240693D01*
X184693Y243802D01*
X184693Y248198D01*
X187802Y251307D01*
X192198Y251307D01*
X195307Y248198D01*
X195307Y243802D01*
X192198Y240693D01*
X187802Y240693D01*
G37*
%LPD*%
%LPC*%
G36*
X138802Y143693D02*
X138802Y143693D01*
X135693Y146802D01*
X135693Y151198D01*
X138802Y154307D01*
X143198Y154307D01*
X146307Y151198D01*
X146307Y146802D01*
X143198Y143693D01*
X138802Y143693D01*
G37*
%LPD*%
%LPC*%
G36*
X151802Y130693D02*
X151802Y130693D01*
X148693Y133802D01*
X148693Y138198D01*
X151802Y141307D01*
X156198Y141307D01*
X159307Y138198D01*
X159307Y133802D01*
X156198Y130693D01*
X151802Y130693D01*
G37*
%LPD*%
%LPC*%
G36*
X224802Y247693D02*
X224802Y247693D01*
X221693Y250802D01*
X221693Y255198D01*
X224802Y258307D01*
X229198Y258307D01*
X232307Y255198D01*
X232307Y250802D01*
X229198Y247693D01*
X224802Y247693D01*
G37*
%LPD*%
%LPC*%
G36*
X-39198Y248693D02*
X-39198Y248693D01*
X-42307Y251802D01*
X-42307Y256198D01*
X-39198Y259307D01*
X-34802Y259307D01*
X-31693Y256198D01*
X-31693Y251802D01*
X-34802Y248693D01*
X-39198Y248693D01*
G37*
%LPD*%
%LPC*%
G36*
X-219198Y63693D02*
X-219198Y63693D01*
X-222307Y66802D01*
X-222307Y71198D01*
X-219198Y74307D01*
X-214802Y74307D01*
X-211693Y71198D01*
X-211693Y66802D01*
X-214802Y63693D01*
X-219198Y63693D01*
G37*
%LPD*%
%LPC*%
G36*
X-245198Y60693D02*
X-245198Y60693D01*
X-248307Y63802D01*
X-248307Y68198D01*
X-245198Y71307D01*
X-240802Y71307D01*
X-237693Y68198D01*
X-237693Y63802D01*
X-240802Y60693D01*
X-245198Y60693D01*
G37*
%LPD*%
%LPC*%
G36*
X240802Y254693D02*
X240802Y254693D01*
X237693Y257802D01*
X237693Y262198D01*
X240802Y265307D01*
X245198Y265307D01*
X248307Y262198D01*
X248307Y257802D01*
X245198Y254693D01*
X240802Y254693D01*
G37*
%LPD*%
%LPC*%
G36*
X170802Y50693D02*
X170802Y50693D01*
X167693Y53802D01*
X167693Y58198D01*
X170802Y61307D01*
X175198Y61307D01*
X178307Y58198D01*
X178307Y53802D01*
X175198Y50693D01*
X170802Y50693D01*
G37*
%LPD*%
%LPC*%
G36*
X-293198Y32693D02*
X-293198Y32693D01*
X-296307Y35802D01*
X-296307Y40198D01*
X-293198Y43307D01*
X-288802Y43307D01*
X-285693Y40198D01*
X-285693Y35802D01*
X-288802Y32693D01*
X-293198Y32693D01*
G37*
%LPD*%
%LPC*%
G36*
X205802Y24693D02*
X205802Y24693D01*
X202693Y27802D01*
X202693Y32198D01*
X205802Y35307D01*
X210198Y35307D01*
X213307Y32198D01*
X213307Y27802D01*
X210198Y24693D01*
X205802Y24693D01*
G37*
%LPD*%
%LPC*%
G36*
X-194198Y18693D02*
X-194198Y18693D01*
X-197307Y21802D01*
X-197307Y26198D01*
X-194198Y29307D01*
X-189802Y29307D01*
X-186693Y26198D01*
X-186693Y21802D01*
X-189802Y18693D01*
X-194198Y18693D01*
G37*
%LPD*%
%LPC*%
G36*
X-194198Y-28307D02*
X-194198Y-28307D01*
X-197307Y-25198D01*
X-197307Y-20802D01*
X-194198Y-17693D01*
X-189802Y-17693D01*
X-186693Y-20802D01*
X-186693Y-25198D01*
X-189802Y-28307D01*
X-194198Y-28307D01*
G37*
%LPD*%
%LPC*%
G36*
X-220198Y-42307D02*
X-220198Y-42307D01*
X-223307Y-39198D01*
X-223307Y-34802D01*
X-220198Y-31693D01*
X-215802Y-31693D01*
X-212693Y-34802D01*
X-212693Y-39198D01*
X-215802Y-42307D01*
X-220198Y-42307D01*
G37*
%LPD*%
%LPC*%
G36*
X-264198Y-252307D02*
X-264198Y-252307D01*
X-267307Y-249198D01*
X-267307Y-244802D01*
X-264198Y-241693D01*
X-259802Y-241693D01*
X-256693Y-244802D01*
X-256693Y-249198D01*
X-259802Y-252307D01*
X-264198Y-252307D01*
G37*
%LPD*%
%LPC*%
G36*
X-127198Y-239307D02*
X-127198Y-239307D01*
X-130307Y-236198D01*
X-130307Y-231802D01*
X-127198Y-228693D01*
X-122802Y-228693D01*
X-119693Y-231802D01*
X-119693Y-236198D01*
X-122802Y-239307D01*
X-127198Y-239307D01*
G37*
%LPD*%
%LPC*%
G36*
X-21198Y-312307D02*
X-21198Y-312307D01*
X-24307Y-309198D01*
X-24307Y-304802D01*
X-21198Y-301693D01*
X-16802Y-301693D01*
X-13693Y-304802D01*
X-13693Y-309198D01*
X-16802Y-312307D01*
X-21198Y-312307D01*
G37*
%LPD*%
%LPC*%
G36*
X-122198Y-217307D02*
X-122198Y-217307D01*
X-125307Y-214198D01*
X-125307Y-209802D01*
X-122198Y-206693D01*
X-117802Y-206693D01*
X-114693Y-209802D01*
X-114693Y-214198D01*
X-117802Y-217307D01*
X-122198Y-217307D01*
G37*
%LPD*%
%LPC*%
G36*
X-44198Y304693D02*
X-44198Y304693D01*
X-47307Y307802D01*
X-47307Y312198D01*
X-44198Y315307D01*
X-39802Y315307D01*
X-36693Y312198D01*
X-36693Y307802D01*
X-39802Y304693D01*
X-44198Y304693D01*
G37*
%LPD*%
%LPC*%
G36*
X-262198Y-195307D02*
X-262198Y-195307D01*
X-265307Y-192198D01*
X-265307Y-187802D01*
X-262198Y-184693D01*
X-257802Y-184693D01*
X-254693Y-187802D01*
X-254693Y-192198D01*
X-257802Y-195307D01*
X-262198Y-195307D01*
G37*
%LPD*%
%LPC*%
G36*
X188802Y302693D02*
X188802Y302693D01*
X185693Y305802D01*
X185693Y310198D01*
X188802Y313307D01*
X193198Y313307D01*
X196307Y310198D01*
X196307Y305802D01*
X193198Y302693D01*
X188802Y302693D01*
G37*
%LPD*%
%LPC*%
G36*
X44802Y260693D02*
X44802Y260693D01*
X41693Y263802D01*
X41693Y268198D01*
X44802Y271307D01*
X49198Y271307D01*
X52307Y268198D01*
X52307Y263802D01*
X49198Y260693D01*
X44802Y260693D01*
G37*
%LPD*%
%LPC*%
G36*
X48802Y292693D02*
X48802Y292693D01*
X45693Y295802D01*
X45693Y300198D01*
X48802Y303307D01*
X53198Y303307D01*
X56307Y300198D01*
X56307Y295802D01*
X53198Y292693D01*
X48802Y292693D01*
G37*
%LPD*%
%LPC*%
G36*
X-40198Y291693D02*
X-40198Y291693D01*
X-43307Y294802D01*
X-43307Y299198D01*
X-40198Y302307D01*
X-35802Y302307D01*
X-32693Y299198D01*
X-32693Y294802D01*
X-35802Y291693D01*
X-40198Y291693D01*
G37*
%LPD*%
%LPC*%
G36*
X-19198Y271093D02*
X-19198Y271093D01*
X-22307Y274202D01*
X-22307Y278598D01*
X-19198Y281707D01*
X-14802Y281707D01*
X-11693Y278598D01*
X-11693Y274202D01*
X-14802Y271093D01*
X-19198Y271093D01*
G37*
%LPD*%
%LPC*%
G36*
X-126198Y192693D02*
X-126198Y192693D01*
X-129307Y195802D01*
X-129307Y200198D01*
X-126198Y203307D01*
X-121802Y203307D01*
X-118693Y200198D01*
X-118693Y195802D01*
X-121802Y192693D01*
X-126198Y192693D01*
G37*
%LPD*%
%LPC*%
G36*
X-114198Y187693D02*
X-114198Y187693D01*
X-117307Y190802D01*
X-117307Y195198D01*
X-114198Y198307D01*
X-109802Y198307D01*
X-106693Y195198D01*
X-106693Y190802D01*
X-109802Y187693D01*
X-114198Y187693D01*
G37*
%LPD*%
%LPC*%
G36*
X318793Y-57403D02*
X318793Y-57403D01*
X327316Y-57403D01*
X327181Y-58259D01*
X326686Y-59780D01*
X325960Y-61205D01*
X325020Y-62499D01*
X323889Y-63630D01*
X322595Y-64570D01*
X321170Y-65296D01*
X319649Y-65791D01*
X318793Y-65926D01*
X318793Y-57403D01*
G37*
%LPD*%
%LPC*%
G36*
X318793Y-82803D02*
X318793Y-82803D01*
X327316Y-82803D01*
X327181Y-83659D01*
X326686Y-85180D01*
X325960Y-86605D01*
X325020Y-87899D01*
X323889Y-89030D01*
X322595Y-89970D01*
X321170Y-90696D01*
X319649Y-91191D01*
X318793Y-91326D01*
X318793Y-82803D01*
G37*
%LPD*%
%LPC*%
G36*
X314891Y-91191D02*
X314891Y-91191D01*
X313370Y-90696D01*
X311945Y-89970D01*
X310651Y-89030D01*
X309520Y-87899D01*
X308580Y-86605D01*
X307854Y-85180D01*
X307359Y-83659D01*
X307224Y-82803D01*
X315747Y-82803D01*
X315747Y-91326D01*
X314891Y-91191D01*
G37*
%LPD*%
%LPC*%
G36*
X318793Y-54357D02*
X318793Y-54357D01*
X318793Y-45834D01*
X319649Y-45969D01*
X321170Y-46464D01*
X322595Y-47190D01*
X323889Y-48130D01*
X325020Y-49261D01*
X325960Y-50555D01*
X326686Y-51980D01*
X327181Y-53501D01*
X327316Y-54357D01*
X318793Y-54357D01*
G37*
%LPD*%
%LPC*%
G36*
X314891Y-65791D02*
X314891Y-65791D01*
X313370Y-65296D01*
X311945Y-64570D01*
X310651Y-63630D01*
X309520Y-62499D01*
X308580Y-61205D01*
X307854Y-59780D01*
X307359Y-58259D01*
X307224Y-57403D01*
X315747Y-57403D01*
X315747Y-65926D01*
X314891Y-65791D01*
G37*
%LPD*%
%LPC*%
G36*
X318793Y-79757D02*
X318793Y-79757D01*
X318793Y-71234D01*
X319649Y-71369D01*
X321170Y-71864D01*
X322595Y-72590D01*
X323889Y-73530D01*
X325020Y-74661D01*
X325960Y-75955D01*
X326686Y-77380D01*
X327181Y-78901D01*
X327316Y-79757D01*
X318793Y-79757D01*
G37*
%LPD*%
%LPC*%
G36*
X307224Y-79757D02*
X307224Y-79757D01*
X307359Y-78901D01*
X307854Y-77380D01*
X308580Y-75955D01*
X309520Y-74661D01*
X310651Y-73530D01*
X311945Y-72590D01*
X313370Y-71864D01*
X314891Y-71369D01*
X315747Y-71234D01*
X315747Y-79757D01*
X307224Y-79757D01*
G37*
%LPD*%
%LPC*%
G36*
X307224Y-54357D02*
X307224Y-54357D01*
X307359Y-53501D01*
X307854Y-51980D01*
X308580Y-50555D01*
X309520Y-49261D01*
X310651Y-48130D01*
X311945Y-47190D01*
X313370Y-46464D01*
X314891Y-45969D01*
X315747Y-45834D01*
X315747Y-54357D01*
X307224Y-54357D01*
G37*
%LPD*%
%LPC*%
G36*
X62223Y-290923D02*
X62223Y-290923D01*
X70665Y-290923D01*
X70533Y-291761D01*
X70042Y-293270D01*
X69322Y-294683D01*
X68389Y-295967D01*
X67267Y-297089D01*
X65983Y-298022D01*
X64570Y-298742D01*
X63061Y-299233D01*
X62223Y-299365D01*
X62223Y-290923D01*
G37*
%LPD*%
%LPC*%
G36*
X206223Y-169423D02*
X206223Y-169423D01*
X214665Y-169423D01*
X214533Y-170261D01*
X214042Y-171770D01*
X213322Y-173183D01*
X212389Y-174467D01*
X211267Y-175589D01*
X209983Y-176522D01*
X208570Y-177242D01*
X207061Y-177733D01*
X206223Y-177865D01*
X206223Y-169423D01*
G37*
%LPD*%
%LPC*%
G36*
X62223Y-287877D02*
X62223Y-287877D01*
X62223Y-279435D01*
X63061Y-279567D01*
X64570Y-280058D01*
X65983Y-280778D01*
X67267Y-281711D01*
X68389Y-282833D01*
X69322Y-284117D01*
X70042Y-285530D01*
X70533Y-287039D01*
X70665Y-287877D01*
X62223Y-287877D01*
G37*
%LPD*%
%LPC*%
G36*
X58339Y-299233D02*
X58339Y-299233D01*
X56830Y-298742D01*
X55417Y-298022D01*
X54133Y-297089D01*
X53011Y-295967D01*
X52078Y-294683D01*
X51358Y-293270D01*
X50867Y-291761D01*
X50735Y-290923D01*
X59177Y-290923D01*
X59177Y-299365D01*
X58339Y-299233D01*
G37*
%LPD*%
%LPC*%
G36*
X206223Y-166377D02*
X206223Y-166377D01*
X206223Y-157935D01*
X207061Y-158067D01*
X208570Y-158558D01*
X209983Y-159278D01*
X211267Y-160211D01*
X212389Y-161333D01*
X213322Y-162617D01*
X214042Y-164030D01*
X214533Y-165539D01*
X214665Y-166377D01*
X206223Y-166377D01*
G37*
%LPD*%
%LPC*%
G36*
X202339Y-177733D02*
X202339Y-177733D01*
X200830Y-177242D01*
X199417Y-176522D01*
X198133Y-175589D01*
X197011Y-174467D01*
X196078Y-173183D01*
X195358Y-171770D01*
X194867Y-170261D01*
X194735Y-169423D01*
X203177Y-169423D01*
X203177Y-177865D01*
X202339Y-177733D01*
G37*
%LPD*%
%LPC*%
G36*
X50735Y-287877D02*
X50735Y-287877D01*
X50867Y-287039D01*
X51358Y-285530D01*
X52078Y-284117D01*
X53011Y-282833D01*
X54133Y-281711D01*
X55417Y-280778D01*
X56830Y-280058D01*
X58339Y-279567D01*
X59177Y-279435D01*
X59177Y-287877D01*
X50735Y-287877D01*
G37*
%LPD*%
%LPC*%
G36*
X194735Y-166377D02*
X194735Y-166377D01*
X194867Y-165539D01*
X195358Y-164030D01*
X196078Y-162617D01*
X197011Y-161333D01*
X198133Y-160211D01*
X199417Y-159278D01*
X200830Y-158558D01*
X202339Y-158067D01*
X203177Y-157935D01*
X203177Y-166377D01*
X194735Y-166377D01*
G37*
%LPD*%
%LPC*%
G36*
X60699Y-289401D02*
X60699Y-289401D01*
X60699Y-289399D01*
X60701Y-289399D01*
X60701Y-289401D01*
X60699Y-289401D01*
G37*
%LPD*%
%LPC*%
G36*
X317269Y-81281D02*
X317269Y-81281D01*
X317269Y-81279D01*
X317271Y-81279D01*
X317271Y-81281D01*
X317269Y-81281D01*
G37*
%LPD*%
%LPC*%
G36*
X204699Y-167901D02*
X204699Y-167901D01*
X204699Y-167899D01*
X204701Y-167899D01*
X204701Y-167901D01*
X204699Y-167901D01*
G37*
%LPD*%
%LPC*%
G36*
X317269Y-55881D02*
X317269Y-55881D01*
X317269Y-55879D01*
X317271Y-55879D01*
X317271Y-55881D01*
X317269Y-55881D01*
G37*
%LPD*%
D10*
X60700Y-214400D03*
X60700Y-289400D03*
X204700Y-92900D03*
X204700Y-167900D03*
D11*
X317270Y-132080D03*
X317270Y-106680D03*
X317270Y-81280D03*
X317270Y-55880D03*
X171700Y233900D03*
X146300Y233900D03*
X171700Y259300D03*
X146300Y259300D03*
X171700Y284700D03*
X146300Y284700D03*
X171700Y310100D03*
X146300Y310100D03*
D12*
X282000Y120000D03*
X293000Y120000D03*
X303000Y119000D03*
X310000Y112000D03*
X316000Y104000D03*
X322000Y95000D03*
X281000Y175000D03*
X-218000Y-37000D03*
X270000Y81000D03*
X171000Y0D03*
X189000Y0D03*
X215000Y0D03*
X268000Y0D03*
X317000Y0D03*
X339000Y0D03*
X-233000Y189000D03*
X-191000Y236000D03*
X-13000Y347000D03*
X37000Y363000D03*
X124000Y257000D03*
X24000Y194000D03*
X5000Y165000D03*
X200000Y82000D03*
X-240000Y52000D03*
X-258000Y58000D03*
X-302000Y17000D03*
X-262000Y-237000D03*
X-140000Y-260000D03*
X25000Y-261000D03*
X-348000Y-99000D03*
X-346000Y-110000D03*
X-334000Y-135000D03*
X-323000Y-136000D03*
X-314000Y-130000D03*
X-314000Y-120000D03*
X-317000Y-110000D03*
X-125000Y-176000D03*
X-115000Y-176000D03*
X-105000Y-176000D03*
X-95000Y-179000D03*
X-87000Y-186000D03*
X-80000Y-193000D03*
X-225000Y-155000D03*
X-216000Y-159000D03*
X-208000Y-165000D03*
X-202000Y-173000D03*
X-213000Y-174000D03*
X-223000Y-166000D03*
X-224000Y-177000D03*
X-217000Y-185000D03*
X-28000Y-250000D03*
X-20000Y-242000D03*
X-17000Y-251000D03*
X-9000Y-242000D03*
X-5000Y-251000D03*
X2000Y-242000D03*
X7000Y-251000D03*
X13000Y-242000D03*
X18000Y-251000D03*
X24000Y-242000D03*
X30000Y-251000D03*
X36000Y-242000D03*
X-221000Y-269000D03*
X266000Y165000D03*
X41000Y-251000D03*
X42000Y-270000D03*
X28000Y-271000D03*
X-167000Y-298000D03*
X-100000Y283000D03*
X-58000Y248000D03*
X-283000Y-137000D03*
X-1000Y281200D03*
X19700Y292000D03*
X29100Y277700D03*
X42400Y286400D03*
X-14200Y305800D03*
X-58500Y372000D03*
X-165400Y300400D03*
X-96600Y309700D03*
X-125300Y236300D03*
X-198700Y152300D03*
X-302700Y198300D03*
X99500Y282100D03*
X291600Y223700D03*
X272000Y254400D03*
X184100Y179500D03*
X173000Y330000D03*
X-25908Y198120D03*
X-291000Y38000D03*
X-243000Y66000D03*
X-217000Y69000D03*
X-37000Y254000D03*
X-39000Y214000D03*
X-17000Y276400D03*
X14000Y226000D03*
X-38000Y297000D03*
X-205000Y245000D03*
X101000Y179000D03*
X154000Y136000D03*
X181000Y130000D03*
X112000Y179000D03*
X141000Y149000D03*
X153000Y160000D03*
X50000Y206000D03*
X154000Y150000D03*
X44000Y197000D03*
X31000Y200000D03*
X210000Y61000D03*
D13*
X211000Y50000D03*
D12*
X21000Y203000D03*
X118000Y151000D03*
X208000Y30000D03*
X11000Y201000D03*
X115000Y141000D03*
X173000Y56000D03*
X-49000Y215000D03*
X-59000Y210000D03*
X47000Y266000D03*
X190000Y246000D03*
X-42000Y310000D03*
X32000Y317000D03*
X51000Y298000D03*
X135000Y179000D03*
X192000Y89000D03*
X145000Y179000D03*
X183000Y94000D03*
X159000Y180000D03*
X177000Y103000D03*
X92000Y210000D03*
X-112000Y193000D03*
X60000Y210000D03*
X-124000Y198000D03*
X57000Y225000D03*
X-101000Y225000D03*
X57000Y236000D03*
X210000Y180000D03*
X257000Y175000D03*
X222000Y191000D03*
X273000Y183000D03*
X-269000Y203000D03*
X-259000Y228000D03*
X-192000Y-23000D03*
X-192000Y24000D03*
X187000Y109000D03*
X-125000Y-234000D03*
X-246000Y-91000D03*
X-246000Y-81000D03*
X-192000Y-183000D03*
X-202000Y-189000D03*
X-120000Y-212000D03*
X-88000Y-276000D03*
X-98000Y-282000D03*
X-16000Y-284000D03*
X183000Y118000D03*
X238000Y210000D03*
X247000Y199000D03*
X268000Y211000D03*
X-19000Y-307000D03*
X-262000Y-247000D03*
X-260000Y-190000D03*
X243000Y260000D03*
X227000Y253000D03*
X191000Y308000D03*
M02*
