G04 EAGLE Gerber X2 export*
%TF.Part,Single*%
%TF.FileFunction,Paste,Top*%
%TF.FilePolarity,Positive*%
%TF.GenerationSoftware,Autodesk,EAGLE,8.6.0*%
%TF.CreationDate,2018-04-19T17:15:12Z*%
G75*
%MOMM*%
%FSLAX34Y34*%
%LPD*%
%AMOC8*
5,1,8,0,0,1.08239X$1,22.5*%
G01*
%ADD10R,0.558800X1.981200*%
%ADD11R,3.000000X2.000000*%
%ADD12R,0.700000X0.900000*%
%ADD13R,0.900000X0.700000*%
%ADD14R,2.400000X2.400000*%
%ADD15C,0.300000*%
%ADD16R,0.600000X1.200000*%
%ADD17R,0.700000X0.600000*%
%ADD18R,3.200000X1.800000*%
%ADD19R,0.600000X0.700000*%
%ADD20R,1.300000X1.500000*%
%ADD21R,1.500000X1.300000*%
%ADD22R,1.800000X3.200000*%
%ADD23R,3.600000X1.800000*%
%ADD24R,1.800000X3.600000*%
%ADD25R,1.408969X1.132000*%
%ADD26R,1.408416X1.158291*%
%ADD27R,1.408744X1.118800*%
%ADD28R,1.407994X1.092841*%
%ADD29R,1.437131X1.094559*%
%ADD30R,1.434150X1.118406*%
%ADD31R,1.435381X1.140469*%
%ADD32R,1.434009X1.160269*%
%ADD33R,0.385381X3.910769*%
%ADD34R,0.316159X3.915181*%
%ADD35C,0.037500*%
%ADD36C,0.056250*%
%ADD37R,1.132000X1.408969*%
%ADD38R,1.158291X1.408416*%
%ADD39R,1.118800X1.408744*%
%ADD40R,1.092841X1.407994*%
%ADD41R,1.094559X1.437131*%
%ADD42R,1.118406X1.434150*%
%ADD43R,1.140469X1.435381*%
%ADD44R,1.160269X1.434009*%
%ADD45R,3.910769X0.385381*%
%ADD46R,3.915181X0.316159*%
%ADD47R,2.800000X2.100000*%
%ADD48C,0.100000*%


D10*
X-160262Y95668D03*
X-172962Y95668D03*
X-185662Y95668D03*
X-198362Y95668D03*
X-198362Y46392D03*
X-185662Y46392D03*
X-172962Y46392D03*
X-160262Y46392D03*
X-226644Y96844D03*
X-239344Y96844D03*
X-252044Y96844D03*
X-264744Y96844D03*
X-264744Y47568D03*
X-252044Y47568D03*
X-239344Y47568D03*
X-226644Y47568D03*
D11*
X-296322Y148802D03*
X-296322Y88802D03*
D12*
X222200Y122700D03*
X209200Y122700D03*
X-106100Y-329800D03*
X-119100Y-329800D03*
D13*
X-198200Y-244600D03*
X-198200Y-257600D03*
D12*
X-46800Y299700D03*
X-59800Y299700D03*
D11*
X-235036Y6610D03*
X-235036Y-53390D03*
D12*
X-41200Y198200D03*
X-54200Y198200D03*
D11*
X-188920Y181808D03*
X-188920Y121808D03*
D12*
X209800Y295200D03*
X196800Y295200D03*
D13*
X-315700Y-86700D03*
X-315700Y-99700D03*
X224700Y265800D03*
X224700Y278800D03*
D12*
X209676Y110902D03*
X222676Y110902D03*
X209422Y99518D03*
X222422Y99518D03*
D11*
X-177304Y7452D03*
X-177304Y-52548D03*
D12*
X209676Y88150D03*
X222676Y88150D03*
D13*
X246966Y223952D03*
X246966Y236952D03*
X229550Y223870D03*
X229550Y236870D03*
X264036Y224766D03*
X264036Y237766D03*
D12*
X-150772Y-176096D03*
X-137772Y-176096D03*
D13*
X-231884Y-131960D03*
X-231884Y-144960D03*
D12*
X-48528Y-260064D03*
X-35528Y-260064D03*
D14*
X-246730Y125258D03*
X-246730Y169258D03*
X-136792Y115718D03*
X-136792Y159718D03*
D15*
X198430Y148400D02*
X198430Y141400D01*
X191430Y141400D01*
X191430Y148400D01*
X198430Y148400D01*
X198430Y144399D02*
X191430Y144399D01*
X191430Y147398D02*
X198430Y147398D01*
X215970Y148400D02*
X215970Y141400D01*
X208970Y141400D01*
X208970Y148400D01*
X215970Y148400D01*
X215970Y144399D02*
X208970Y144399D01*
X208970Y147398D02*
X215970Y147398D01*
D16*
X189000Y-18000D03*
X189000Y18000D03*
X171000Y18000D03*
X171000Y-18000D03*
X239000Y-18000D03*
X239000Y18000D03*
X221000Y18000D03*
X221000Y-18000D03*
X289000Y-18000D03*
X289000Y18000D03*
X271000Y18000D03*
X271000Y-18000D03*
X339000Y-18000D03*
X339000Y18000D03*
X321000Y18000D03*
X321000Y-18000D03*
D17*
X193800Y132200D03*
X193800Y122200D03*
D18*
X-109372Y-196760D03*
X-109372Y-252760D03*
X-1356Y-267984D03*
X-1356Y-323984D03*
D19*
X-57600Y278300D03*
X-47600Y278300D03*
D17*
X338650Y-29830D03*
X338650Y-39830D03*
X321050Y29470D03*
X321050Y39470D03*
D19*
X29700Y212400D03*
X19700Y212400D03*
D17*
X290150Y-29830D03*
X290150Y-39830D03*
X271850Y30670D03*
X271850Y40670D03*
X238654Y-29090D03*
X238654Y-39090D03*
X221350Y29870D03*
X221350Y39870D03*
X189546Y-29814D03*
X189546Y-39814D03*
X171550Y31470D03*
X171550Y41470D03*
D20*
X-155992Y-310378D03*
X-136992Y-310378D03*
X-237310Y-252046D03*
X-218310Y-252046D03*
D21*
X-331582Y-122616D03*
X-331582Y-103616D03*
D19*
X205000Y133500D03*
X215000Y133500D03*
D17*
X180200Y138700D03*
X180200Y148700D03*
D22*
X-240312Y-174850D03*
X-296312Y-174850D03*
D23*
X-84418Y162612D03*
X-84418Y255612D03*
D24*
X-136186Y263508D03*
X-229186Y263508D03*
D25*
X-46823Y-310428D03*
D26*
X-46820Y-323759D03*
D27*
X-46822Y-297162D03*
D28*
X-46818Y-283832D03*
D29*
X-63164Y-283841D03*
D30*
X-63149Y-297160D03*
D31*
X-63155Y-310470D03*
D32*
X-63148Y-323769D03*
D33*
X-76855Y-308322D03*
D34*
X-33009Y-308344D03*
D35*
X-75115Y-279831D02*
X-75115Y-277705D01*
X-75115Y-279831D02*
X-81741Y-279831D01*
X-81741Y-277705D01*
X-75115Y-277705D01*
X-75115Y-279457D02*
X-81741Y-279457D01*
X-81741Y-279083D02*
X-75115Y-279083D01*
X-75115Y-278709D02*
X-81741Y-278709D01*
X-81741Y-278335D02*
X-75115Y-278335D01*
X-75115Y-277961D02*
X-81741Y-277961D01*
X-28115Y-277705D02*
X-28115Y-279831D01*
X-34741Y-279831D01*
X-34741Y-277705D01*
X-28115Y-277705D01*
X-28115Y-279457D02*
X-34741Y-279457D01*
X-34741Y-279083D02*
X-28115Y-279083D01*
X-28115Y-278709D02*
X-34741Y-278709D01*
X-34741Y-278335D02*
X-28115Y-278335D01*
X-28115Y-277961D02*
X-34741Y-277961D01*
X-75115Y-282705D02*
X-75115Y-284831D01*
X-81741Y-284831D01*
X-81741Y-282705D01*
X-75115Y-282705D01*
X-75115Y-284457D02*
X-81741Y-284457D01*
X-81741Y-284083D02*
X-75115Y-284083D01*
X-75115Y-283709D02*
X-81741Y-283709D01*
X-81741Y-283335D02*
X-75115Y-283335D01*
X-75115Y-282961D02*
X-81741Y-282961D01*
X-75115Y-287705D02*
X-75115Y-289831D01*
X-81741Y-289831D01*
X-81741Y-287705D01*
X-75115Y-287705D01*
X-75115Y-289457D02*
X-81741Y-289457D01*
X-81741Y-289083D02*
X-75115Y-289083D01*
X-75115Y-288709D02*
X-81741Y-288709D01*
X-81741Y-288335D02*
X-75115Y-288335D01*
X-75115Y-287961D02*
X-81741Y-287961D01*
X-75115Y-292705D02*
X-75115Y-294831D01*
X-81741Y-294831D01*
X-81741Y-292705D01*
X-75115Y-292705D01*
X-75115Y-294457D02*
X-81741Y-294457D01*
X-81741Y-294083D02*
X-75115Y-294083D01*
X-75115Y-293709D02*
X-81741Y-293709D01*
X-81741Y-293335D02*
X-75115Y-293335D01*
X-75115Y-292961D02*
X-81741Y-292961D01*
X-75115Y-297705D02*
X-75115Y-299831D01*
X-81741Y-299831D01*
X-81741Y-297705D01*
X-75115Y-297705D01*
X-75115Y-299457D02*
X-81741Y-299457D01*
X-81741Y-299083D02*
X-75115Y-299083D01*
X-75115Y-298709D02*
X-81741Y-298709D01*
X-81741Y-298335D02*
X-75115Y-298335D01*
X-75115Y-297961D02*
X-81741Y-297961D01*
X-75115Y-302705D02*
X-75115Y-304831D01*
X-81741Y-304831D01*
X-81741Y-302705D01*
X-75115Y-302705D01*
X-75115Y-304457D02*
X-81741Y-304457D01*
X-81741Y-304083D02*
X-75115Y-304083D01*
X-75115Y-303709D02*
X-81741Y-303709D01*
X-81741Y-303335D02*
X-75115Y-303335D01*
X-75115Y-302961D02*
X-81741Y-302961D01*
X-75115Y-307705D02*
X-75115Y-309831D01*
X-81741Y-309831D01*
X-81741Y-307705D01*
X-75115Y-307705D01*
X-75115Y-309457D02*
X-81741Y-309457D01*
X-81741Y-309083D02*
X-75115Y-309083D01*
X-75115Y-308709D02*
X-81741Y-308709D01*
X-81741Y-308335D02*
X-75115Y-308335D01*
X-75115Y-307961D02*
X-81741Y-307961D01*
X-75115Y-312705D02*
X-75115Y-314831D01*
X-81741Y-314831D01*
X-81741Y-312705D01*
X-75115Y-312705D01*
X-75115Y-314457D02*
X-81741Y-314457D01*
X-81741Y-314083D02*
X-75115Y-314083D01*
X-75115Y-313709D02*
X-81741Y-313709D01*
X-81741Y-313335D02*
X-75115Y-313335D01*
X-75115Y-312961D02*
X-81741Y-312961D01*
X-75115Y-317705D02*
X-75115Y-319831D01*
X-81741Y-319831D01*
X-81741Y-317705D01*
X-75115Y-317705D01*
X-75115Y-319457D02*
X-81741Y-319457D01*
X-81741Y-319083D02*
X-75115Y-319083D01*
X-75115Y-318709D02*
X-81741Y-318709D01*
X-81741Y-318335D02*
X-75115Y-318335D01*
X-75115Y-317961D02*
X-81741Y-317961D01*
X-75115Y-322705D02*
X-75115Y-324831D01*
X-81741Y-324831D01*
X-81741Y-322705D01*
X-75115Y-322705D01*
X-75115Y-324457D02*
X-81741Y-324457D01*
X-81741Y-324083D02*
X-75115Y-324083D01*
X-75115Y-323709D02*
X-81741Y-323709D01*
X-81741Y-323335D02*
X-75115Y-323335D01*
X-75115Y-322961D02*
X-81741Y-322961D01*
X-75115Y-327705D02*
X-75115Y-329831D01*
X-81741Y-329831D01*
X-81741Y-327705D01*
X-75115Y-327705D01*
X-75115Y-329457D02*
X-81741Y-329457D01*
X-81741Y-329083D02*
X-75115Y-329083D01*
X-75115Y-328709D02*
X-81741Y-328709D01*
X-81741Y-328335D02*
X-75115Y-328335D01*
X-75115Y-327961D02*
X-81741Y-327961D01*
X-28115Y-327705D02*
X-28115Y-329831D01*
X-34741Y-329831D01*
X-34741Y-327705D01*
X-28115Y-327705D01*
X-28115Y-329457D02*
X-34741Y-329457D01*
X-34741Y-329083D02*
X-28115Y-329083D01*
X-28115Y-328709D02*
X-34741Y-328709D01*
X-34741Y-328335D02*
X-28115Y-328335D01*
X-28115Y-327961D02*
X-34741Y-327961D01*
X-28115Y-324831D02*
X-28115Y-322705D01*
X-28115Y-324831D02*
X-34741Y-324831D01*
X-34741Y-322705D01*
X-28115Y-322705D01*
X-28115Y-324457D02*
X-34741Y-324457D01*
X-34741Y-324083D02*
X-28115Y-324083D01*
X-28115Y-323709D02*
X-34741Y-323709D01*
X-34741Y-323335D02*
X-28115Y-323335D01*
X-28115Y-322961D02*
X-34741Y-322961D01*
X-28115Y-319831D02*
X-28115Y-317705D01*
X-28115Y-319831D02*
X-34741Y-319831D01*
X-34741Y-317705D01*
X-28115Y-317705D01*
X-28115Y-319457D02*
X-34741Y-319457D01*
X-34741Y-319083D02*
X-28115Y-319083D01*
X-28115Y-318709D02*
X-34741Y-318709D01*
X-34741Y-318335D02*
X-28115Y-318335D01*
X-28115Y-317961D02*
X-34741Y-317961D01*
X-28115Y-314831D02*
X-28115Y-312705D01*
X-28115Y-314831D02*
X-34741Y-314831D01*
X-34741Y-312705D01*
X-28115Y-312705D01*
X-28115Y-314457D02*
X-34741Y-314457D01*
X-34741Y-314083D02*
X-28115Y-314083D01*
X-28115Y-313709D02*
X-34741Y-313709D01*
X-34741Y-313335D02*
X-28115Y-313335D01*
X-28115Y-312961D02*
X-34741Y-312961D01*
X-28115Y-309831D02*
X-28115Y-307705D01*
X-28115Y-309831D02*
X-34741Y-309831D01*
X-34741Y-307705D01*
X-28115Y-307705D01*
X-28115Y-309457D02*
X-34741Y-309457D01*
X-34741Y-309083D02*
X-28115Y-309083D01*
X-28115Y-308709D02*
X-34741Y-308709D01*
X-34741Y-308335D02*
X-28115Y-308335D01*
X-28115Y-307961D02*
X-34741Y-307961D01*
X-28115Y-304831D02*
X-28115Y-302705D01*
X-28115Y-304831D02*
X-34741Y-304831D01*
X-34741Y-302705D01*
X-28115Y-302705D01*
X-28115Y-304457D02*
X-34741Y-304457D01*
X-34741Y-304083D02*
X-28115Y-304083D01*
X-28115Y-303709D02*
X-34741Y-303709D01*
X-34741Y-303335D02*
X-28115Y-303335D01*
X-28115Y-302961D02*
X-34741Y-302961D01*
X-28115Y-299831D02*
X-28115Y-297705D01*
X-28115Y-299831D02*
X-34741Y-299831D01*
X-34741Y-297705D01*
X-28115Y-297705D01*
X-28115Y-299457D02*
X-34741Y-299457D01*
X-34741Y-299083D02*
X-28115Y-299083D01*
X-28115Y-298709D02*
X-34741Y-298709D01*
X-34741Y-298335D02*
X-28115Y-298335D01*
X-28115Y-297961D02*
X-34741Y-297961D01*
X-28115Y-294831D02*
X-28115Y-292705D01*
X-28115Y-294831D02*
X-34741Y-294831D01*
X-34741Y-292705D01*
X-28115Y-292705D01*
X-28115Y-294457D02*
X-34741Y-294457D01*
X-34741Y-294083D02*
X-28115Y-294083D01*
X-28115Y-293709D02*
X-34741Y-293709D01*
X-34741Y-293335D02*
X-28115Y-293335D01*
X-28115Y-292961D02*
X-34741Y-292961D01*
X-28115Y-289831D02*
X-28115Y-287705D01*
X-28115Y-289831D02*
X-34741Y-289831D01*
X-34741Y-287705D01*
X-28115Y-287705D01*
X-28115Y-289457D02*
X-34741Y-289457D01*
X-34741Y-289083D02*
X-28115Y-289083D01*
X-28115Y-288709D02*
X-34741Y-288709D01*
X-34741Y-288335D02*
X-28115Y-288335D01*
X-28115Y-287961D02*
X-34741Y-287961D01*
X-28115Y-284831D02*
X-28115Y-282705D01*
X-28115Y-284831D02*
X-34741Y-284831D01*
X-34741Y-282705D01*
X-28115Y-282705D01*
X-28115Y-284457D02*
X-34741Y-284457D01*
X-34741Y-284083D02*
X-28115Y-284083D01*
X-28115Y-283709D02*
X-34741Y-283709D01*
X-34741Y-283335D02*
X-28115Y-283335D01*
X-28115Y-282961D02*
X-34741Y-282961D01*
D36*
X-35647Y-275232D02*
X-31909Y-275232D01*
X-35647Y-275232D02*
X-35647Y-272044D01*
X-31909Y-272044D01*
X-31909Y-275232D01*
X-31909Y-274670D02*
X-35647Y-274670D01*
X-35647Y-274108D02*
X-31909Y-274108D01*
X-31909Y-273546D02*
X-35647Y-273546D01*
X-35647Y-272984D02*
X-31909Y-272984D01*
X-31909Y-272422D02*
X-35647Y-272422D01*
X-74209Y-275232D02*
X-77947Y-275232D01*
X-77947Y-272044D01*
X-74209Y-272044D01*
X-74209Y-275232D01*
X-74209Y-274670D02*
X-77947Y-274670D01*
X-77947Y-274108D02*
X-74209Y-274108D01*
X-74209Y-273546D02*
X-77947Y-273546D01*
X-77947Y-272984D02*
X-74209Y-272984D01*
X-74209Y-272422D02*
X-77947Y-272422D01*
X-77947Y-335492D02*
X-74209Y-335492D01*
X-77947Y-335492D02*
X-77947Y-332304D01*
X-74209Y-332304D01*
X-74209Y-335492D01*
X-74209Y-334930D02*
X-77947Y-334930D01*
X-77947Y-334368D02*
X-74209Y-334368D01*
X-74209Y-333806D02*
X-77947Y-333806D01*
X-77947Y-333244D02*
X-74209Y-333244D01*
X-74209Y-332682D02*
X-77947Y-332682D01*
X-35647Y-335492D02*
X-31909Y-335492D01*
X-35647Y-335492D02*
X-35647Y-332304D01*
X-31909Y-332304D01*
X-31909Y-335492D01*
X-31909Y-334930D02*
X-35647Y-334930D01*
X-35647Y-334368D02*
X-31909Y-334368D01*
X-31909Y-333806D02*
X-35647Y-333806D01*
X-35647Y-333244D02*
X-31909Y-333244D01*
X-31909Y-332682D02*
X-35647Y-332682D01*
D25*
X-152265Y-223584D03*
D26*
X-152262Y-236915D03*
D27*
X-152264Y-210318D03*
D28*
X-152260Y-196988D03*
D29*
X-168606Y-196997D03*
D30*
X-168591Y-210316D03*
D31*
X-168597Y-223626D03*
D32*
X-168590Y-236925D03*
D33*
X-182297Y-221478D03*
D34*
X-138451Y-221500D03*
D35*
X-180557Y-192987D02*
X-180557Y-190861D01*
X-180557Y-192987D02*
X-187183Y-192987D01*
X-187183Y-190861D01*
X-180557Y-190861D01*
X-180557Y-192613D02*
X-187183Y-192613D01*
X-187183Y-192239D02*
X-180557Y-192239D01*
X-180557Y-191865D02*
X-187183Y-191865D01*
X-187183Y-191491D02*
X-180557Y-191491D01*
X-180557Y-191117D02*
X-187183Y-191117D01*
X-133557Y-190861D02*
X-133557Y-192987D01*
X-140183Y-192987D01*
X-140183Y-190861D01*
X-133557Y-190861D01*
X-133557Y-192613D02*
X-140183Y-192613D01*
X-140183Y-192239D02*
X-133557Y-192239D01*
X-133557Y-191865D02*
X-140183Y-191865D01*
X-140183Y-191491D02*
X-133557Y-191491D01*
X-133557Y-191117D02*
X-140183Y-191117D01*
X-180557Y-195861D02*
X-180557Y-197987D01*
X-187183Y-197987D01*
X-187183Y-195861D01*
X-180557Y-195861D01*
X-180557Y-197613D02*
X-187183Y-197613D01*
X-187183Y-197239D02*
X-180557Y-197239D01*
X-180557Y-196865D02*
X-187183Y-196865D01*
X-187183Y-196491D02*
X-180557Y-196491D01*
X-180557Y-196117D02*
X-187183Y-196117D01*
X-180557Y-200861D02*
X-180557Y-202987D01*
X-187183Y-202987D01*
X-187183Y-200861D01*
X-180557Y-200861D01*
X-180557Y-202613D02*
X-187183Y-202613D01*
X-187183Y-202239D02*
X-180557Y-202239D01*
X-180557Y-201865D02*
X-187183Y-201865D01*
X-187183Y-201491D02*
X-180557Y-201491D01*
X-180557Y-201117D02*
X-187183Y-201117D01*
X-180557Y-205861D02*
X-180557Y-207987D01*
X-187183Y-207987D01*
X-187183Y-205861D01*
X-180557Y-205861D01*
X-180557Y-207613D02*
X-187183Y-207613D01*
X-187183Y-207239D02*
X-180557Y-207239D01*
X-180557Y-206865D02*
X-187183Y-206865D01*
X-187183Y-206491D02*
X-180557Y-206491D01*
X-180557Y-206117D02*
X-187183Y-206117D01*
X-180557Y-210861D02*
X-180557Y-212987D01*
X-187183Y-212987D01*
X-187183Y-210861D01*
X-180557Y-210861D01*
X-180557Y-212613D02*
X-187183Y-212613D01*
X-187183Y-212239D02*
X-180557Y-212239D01*
X-180557Y-211865D02*
X-187183Y-211865D01*
X-187183Y-211491D02*
X-180557Y-211491D01*
X-180557Y-211117D02*
X-187183Y-211117D01*
X-180557Y-215861D02*
X-180557Y-217987D01*
X-187183Y-217987D01*
X-187183Y-215861D01*
X-180557Y-215861D01*
X-180557Y-217613D02*
X-187183Y-217613D01*
X-187183Y-217239D02*
X-180557Y-217239D01*
X-180557Y-216865D02*
X-187183Y-216865D01*
X-187183Y-216491D02*
X-180557Y-216491D01*
X-180557Y-216117D02*
X-187183Y-216117D01*
X-180557Y-220861D02*
X-180557Y-222987D01*
X-187183Y-222987D01*
X-187183Y-220861D01*
X-180557Y-220861D01*
X-180557Y-222613D02*
X-187183Y-222613D01*
X-187183Y-222239D02*
X-180557Y-222239D01*
X-180557Y-221865D02*
X-187183Y-221865D01*
X-187183Y-221491D02*
X-180557Y-221491D01*
X-180557Y-221117D02*
X-187183Y-221117D01*
X-180557Y-225861D02*
X-180557Y-227987D01*
X-187183Y-227987D01*
X-187183Y-225861D01*
X-180557Y-225861D01*
X-180557Y-227613D02*
X-187183Y-227613D01*
X-187183Y-227239D02*
X-180557Y-227239D01*
X-180557Y-226865D02*
X-187183Y-226865D01*
X-187183Y-226491D02*
X-180557Y-226491D01*
X-180557Y-226117D02*
X-187183Y-226117D01*
X-180557Y-230861D02*
X-180557Y-232987D01*
X-187183Y-232987D01*
X-187183Y-230861D01*
X-180557Y-230861D01*
X-180557Y-232613D02*
X-187183Y-232613D01*
X-187183Y-232239D02*
X-180557Y-232239D01*
X-180557Y-231865D02*
X-187183Y-231865D01*
X-187183Y-231491D02*
X-180557Y-231491D01*
X-180557Y-231117D02*
X-187183Y-231117D01*
X-180557Y-235861D02*
X-180557Y-237987D01*
X-187183Y-237987D01*
X-187183Y-235861D01*
X-180557Y-235861D01*
X-180557Y-237613D02*
X-187183Y-237613D01*
X-187183Y-237239D02*
X-180557Y-237239D01*
X-180557Y-236865D02*
X-187183Y-236865D01*
X-187183Y-236491D02*
X-180557Y-236491D01*
X-180557Y-236117D02*
X-187183Y-236117D01*
X-180557Y-240861D02*
X-180557Y-242987D01*
X-187183Y-242987D01*
X-187183Y-240861D01*
X-180557Y-240861D01*
X-180557Y-242613D02*
X-187183Y-242613D01*
X-187183Y-242239D02*
X-180557Y-242239D01*
X-180557Y-241865D02*
X-187183Y-241865D01*
X-187183Y-241491D02*
X-180557Y-241491D01*
X-180557Y-241117D02*
X-187183Y-241117D01*
X-133557Y-240861D02*
X-133557Y-242987D01*
X-140183Y-242987D01*
X-140183Y-240861D01*
X-133557Y-240861D01*
X-133557Y-242613D02*
X-140183Y-242613D01*
X-140183Y-242239D02*
X-133557Y-242239D01*
X-133557Y-241865D02*
X-140183Y-241865D01*
X-140183Y-241491D02*
X-133557Y-241491D01*
X-133557Y-241117D02*
X-140183Y-241117D01*
X-133557Y-237987D02*
X-133557Y-235861D01*
X-133557Y-237987D02*
X-140183Y-237987D01*
X-140183Y-235861D01*
X-133557Y-235861D01*
X-133557Y-237613D02*
X-140183Y-237613D01*
X-140183Y-237239D02*
X-133557Y-237239D01*
X-133557Y-236865D02*
X-140183Y-236865D01*
X-140183Y-236491D02*
X-133557Y-236491D01*
X-133557Y-236117D02*
X-140183Y-236117D01*
X-133557Y-232987D02*
X-133557Y-230861D01*
X-133557Y-232987D02*
X-140183Y-232987D01*
X-140183Y-230861D01*
X-133557Y-230861D01*
X-133557Y-232613D02*
X-140183Y-232613D01*
X-140183Y-232239D02*
X-133557Y-232239D01*
X-133557Y-231865D02*
X-140183Y-231865D01*
X-140183Y-231491D02*
X-133557Y-231491D01*
X-133557Y-231117D02*
X-140183Y-231117D01*
X-133557Y-227987D02*
X-133557Y-225861D01*
X-133557Y-227987D02*
X-140183Y-227987D01*
X-140183Y-225861D01*
X-133557Y-225861D01*
X-133557Y-227613D02*
X-140183Y-227613D01*
X-140183Y-227239D02*
X-133557Y-227239D01*
X-133557Y-226865D02*
X-140183Y-226865D01*
X-140183Y-226491D02*
X-133557Y-226491D01*
X-133557Y-226117D02*
X-140183Y-226117D01*
X-133557Y-222987D02*
X-133557Y-220861D01*
X-133557Y-222987D02*
X-140183Y-222987D01*
X-140183Y-220861D01*
X-133557Y-220861D01*
X-133557Y-222613D02*
X-140183Y-222613D01*
X-140183Y-222239D02*
X-133557Y-222239D01*
X-133557Y-221865D02*
X-140183Y-221865D01*
X-140183Y-221491D02*
X-133557Y-221491D01*
X-133557Y-221117D02*
X-140183Y-221117D01*
X-133557Y-217987D02*
X-133557Y-215861D01*
X-133557Y-217987D02*
X-140183Y-217987D01*
X-140183Y-215861D01*
X-133557Y-215861D01*
X-133557Y-217613D02*
X-140183Y-217613D01*
X-140183Y-217239D02*
X-133557Y-217239D01*
X-133557Y-216865D02*
X-140183Y-216865D01*
X-140183Y-216491D02*
X-133557Y-216491D01*
X-133557Y-216117D02*
X-140183Y-216117D01*
X-133557Y-212987D02*
X-133557Y-210861D01*
X-133557Y-212987D02*
X-140183Y-212987D01*
X-140183Y-210861D01*
X-133557Y-210861D01*
X-133557Y-212613D02*
X-140183Y-212613D01*
X-140183Y-212239D02*
X-133557Y-212239D01*
X-133557Y-211865D02*
X-140183Y-211865D01*
X-140183Y-211491D02*
X-133557Y-211491D01*
X-133557Y-211117D02*
X-140183Y-211117D01*
X-133557Y-207987D02*
X-133557Y-205861D01*
X-133557Y-207987D02*
X-140183Y-207987D01*
X-140183Y-205861D01*
X-133557Y-205861D01*
X-133557Y-207613D02*
X-140183Y-207613D01*
X-140183Y-207239D02*
X-133557Y-207239D01*
X-133557Y-206865D02*
X-140183Y-206865D01*
X-140183Y-206491D02*
X-133557Y-206491D01*
X-133557Y-206117D02*
X-140183Y-206117D01*
X-133557Y-202987D02*
X-133557Y-200861D01*
X-133557Y-202987D02*
X-140183Y-202987D01*
X-140183Y-200861D01*
X-133557Y-200861D01*
X-133557Y-202613D02*
X-140183Y-202613D01*
X-140183Y-202239D02*
X-133557Y-202239D01*
X-133557Y-201865D02*
X-140183Y-201865D01*
X-140183Y-201491D02*
X-133557Y-201491D01*
X-133557Y-201117D02*
X-140183Y-201117D01*
X-133557Y-197987D02*
X-133557Y-195861D01*
X-133557Y-197987D02*
X-140183Y-197987D01*
X-140183Y-195861D01*
X-133557Y-195861D01*
X-133557Y-197613D02*
X-140183Y-197613D01*
X-140183Y-197239D02*
X-133557Y-197239D01*
X-133557Y-196865D02*
X-140183Y-196865D01*
X-140183Y-196491D02*
X-133557Y-196491D01*
X-133557Y-196117D02*
X-140183Y-196117D01*
D36*
X-141089Y-188388D02*
X-137351Y-188388D01*
X-141089Y-188388D02*
X-141089Y-185200D01*
X-137351Y-185200D01*
X-137351Y-188388D01*
X-137351Y-187826D02*
X-141089Y-187826D01*
X-141089Y-187264D02*
X-137351Y-187264D01*
X-137351Y-186702D02*
X-141089Y-186702D01*
X-141089Y-186140D02*
X-137351Y-186140D01*
X-137351Y-185578D02*
X-141089Y-185578D01*
X-179651Y-188388D02*
X-183389Y-188388D01*
X-183389Y-185200D01*
X-179651Y-185200D01*
X-179651Y-188388D01*
X-179651Y-187826D02*
X-183389Y-187826D01*
X-183389Y-187264D02*
X-179651Y-187264D01*
X-179651Y-186702D02*
X-183389Y-186702D01*
X-183389Y-186140D02*
X-179651Y-186140D01*
X-179651Y-185578D02*
X-183389Y-185578D01*
X-183389Y-248648D02*
X-179651Y-248648D01*
X-183389Y-248648D02*
X-183389Y-245460D01*
X-179651Y-245460D01*
X-179651Y-248648D01*
X-179651Y-248086D02*
X-183389Y-248086D01*
X-183389Y-247524D02*
X-179651Y-247524D01*
X-179651Y-246962D02*
X-183389Y-246962D01*
X-183389Y-246400D02*
X-179651Y-246400D01*
X-179651Y-245838D02*
X-183389Y-245838D01*
X-141089Y-248648D02*
X-137351Y-248648D01*
X-141089Y-248648D02*
X-141089Y-245460D01*
X-137351Y-245460D01*
X-137351Y-248648D01*
X-137351Y-248086D02*
X-141089Y-248086D01*
X-141089Y-247524D02*
X-137351Y-247524D01*
X-137351Y-246962D02*
X-141089Y-246962D01*
X-141089Y-246400D02*
X-137351Y-246400D01*
X-137351Y-245838D02*
X-141089Y-245838D01*
D37*
X-280808Y-132497D03*
D38*
X-294139Y-132500D03*
D39*
X-267542Y-132498D03*
D40*
X-254212Y-132502D03*
D41*
X-254221Y-116156D03*
D42*
X-267540Y-116171D03*
D43*
X-280850Y-116165D03*
D44*
X-294149Y-116172D03*
D45*
X-278702Y-102465D03*
D46*
X-278724Y-146311D03*
D35*
X-250211Y-104205D02*
X-248085Y-104205D01*
X-250211Y-104205D02*
X-250211Y-97579D01*
X-248085Y-97579D01*
X-248085Y-104205D01*
X-248085Y-103831D02*
X-250211Y-103831D01*
X-250211Y-103457D02*
X-248085Y-103457D01*
X-248085Y-103083D02*
X-250211Y-103083D01*
X-250211Y-102709D02*
X-248085Y-102709D01*
X-248085Y-102335D02*
X-250211Y-102335D01*
X-250211Y-101961D02*
X-248085Y-101961D01*
X-248085Y-101587D02*
X-250211Y-101587D01*
X-250211Y-101213D02*
X-248085Y-101213D01*
X-248085Y-100839D02*
X-250211Y-100839D01*
X-250211Y-100465D02*
X-248085Y-100465D01*
X-248085Y-100091D02*
X-250211Y-100091D01*
X-250211Y-99717D02*
X-248085Y-99717D01*
X-248085Y-99343D02*
X-250211Y-99343D01*
X-250211Y-98969D02*
X-248085Y-98969D01*
X-248085Y-98595D02*
X-250211Y-98595D01*
X-250211Y-98221D02*
X-248085Y-98221D01*
X-248085Y-97847D02*
X-250211Y-97847D01*
X-250211Y-151205D02*
X-248085Y-151205D01*
X-250211Y-151205D02*
X-250211Y-144579D01*
X-248085Y-144579D01*
X-248085Y-151205D01*
X-248085Y-150831D02*
X-250211Y-150831D01*
X-250211Y-150457D02*
X-248085Y-150457D01*
X-248085Y-150083D02*
X-250211Y-150083D01*
X-250211Y-149709D02*
X-248085Y-149709D01*
X-248085Y-149335D02*
X-250211Y-149335D01*
X-250211Y-148961D02*
X-248085Y-148961D01*
X-248085Y-148587D02*
X-250211Y-148587D01*
X-250211Y-148213D02*
X-248085Y-148213D01*
X-248085Y-147839D02*
X-250211Y-147839D01*
X-250211Y-147465D02*
X-248085Y-147465D01*
X-248085Y-147091D02*
X-250211Y-147091D01*
X-250211Y-146717D02*
X-248085Y-146717D01*
X-248085Y-146343D02*
X-250211Y-146343D01*
X-250211Y-145969D02*
X-248085Y-145969D01*
X-248085Y-145595D02*
X-250211Y-145595D01*
X-250211Y-145221D02*
X-248085Y-145221D01*
X-248085Y-144847D02*
X-250211Y-144847D01*
X-253085Y-104205D02*
X-255211Y-104205D01*
X-255211Y-97579D01*
X-253085Y-97579D01*
X-253085Y-104205D01*
X-253085Y-103831D02*
X-255211Y-103831D01*
X-255211Y-103457D02*
X-253085Y-103457D01*
X-253085Y-103083D02*
X-255211Y-103083D01*
X-255211Y-102709D02*
X-253085Y-102709D01*
X-253085Y-102335D02*
X-255211Y-102335D01*
X-255211Y-101961D02*
X-253085Y-101961D01*
X-253085Y-101587D02*
X-255211Y-101587D01*
X-255211Y-101213D02*
X-253085Y-101213D01*
X-253085Y-100839D02*
X-255211Y-100839D01*
X-255211Y-100465D02*
X-253085Y-100465D01*
X-253085Y-100091D02*
X-255211Y-100091D01*
X-255211Y-99717D02*
X-253085Y-99717D01*
X-253085Y-99343D02*
X-255211Y-99343D01*
X-255211Y-98969D02*
X-253085Y-98969D01*
X-253085Y-98595D02*
X-255211Y-98595D01*
X-255211Y-98221D02*
X-253085Y-98221D01*
X-253085Y-97847D02*
X-255211Y-97847D01*
X-258085Y-104205D02*
X-260211Y-104205D01*
X-260211Y-97579D01*
X-258085Y-97579D01*
X-258085Y-104205D01*
X-258085Y-103831D02*
X-260211Y-103831D01*
X-260211Y-103457D02*
X-258085Y-103457D01*
X-258085Y-103083D02*
X-260211Y-103083D01*
X-260211Y-102709D02*
X-258085Y-102709D01*
X-258085Y-102335D02*
X-260211Y-102335D01*
X-260211Y-101961D02*
X-258085Y-101961D01*
X-258085Y-101587D02*
X-260211Y-101587D01*
X-260211Y-101213D02*
X-258085Y-101213D01*
X-258085Y-100839D02*
X-260211Y-100839D01*
X-260211Y-100465D02*
X-258085Y-100465D01*
X-258085Y-100091D02*
X-260211Y-100091D01*
X-260211Y-99717D02*
X-258085Y-99717D01*
X-258085Y-99343D02*
X-260211Y-99343D01*
X-260211Y-98969D02*
X-258085Y-98969D01*
X-258085Y-98595D02*
X-260211Y-98595D01*
X-260211Y-98221D02*
X-258085Y-98221D01*
X-258085Y-97847D02*
X-260211Y-97847D01*
X-263085Y-104205D02*
X-265211Y-104205D01*
X-265211Y-97579D01*
X-263085Y-97579D01*
X-263085Y-104205D01*
X-263085Y-103831D02*
X-265211Y-103831D01*
X-265211Y-103457D02*
X-263085Y-103457D01*
X-263085Y-103083D02*
X-265211Y-103083D01*
X-265211Y-102709D02*
X-263085Y-102709D01*
X-263085Y-102335D02*
X-265211Y-102335D01*
X-265211Y-101961D02*
X-263085Y-101961D01*
X-263085Y-101587D02*
X-265211Y-101587D01*
X-265211Y-101213D02*
X-263085Y-101213D01*
X-263085Y-100839D02*
X-265211Y-100839D01*
X-265211Y-100465D02*
X-263085Y-100465D01*
X-263085Y-100091D02*
X-265211Y-100091D01*
X-265211Y-99717D02*
X-263085Y-99717D01*
X-263085Y-99343D02*
X-265211Y-99343D01*
X-265211Y-98969D02*
X-263085Y-98969D01*
X-263085Y-98595D02*
X-265211Y-98595D01*
X-265211Y-98221D02*
X-263085Y-98221D01*
X-263085Y-97847D02*
X-265211Y-97847D01*
X-268085Y-104205D02*
X-270211Y-104205D01*
X-270211Y-97579D01*
X-268085Y-97579D01*
X-268085Y-104205D01*
X-268085Y-103831D02*
X-270211Y-103831D01*
X-270211Y-103457D02*
X-268085Y-103457D01*
X-268085Y-103083D02*
X-270211Y-103083D01*
X-270211Y-102709D02*
X-268085Y-102709D01*
X-268085Y-102335D02*
X-270211Y-102335D01*
X-270211Y-101961D02*
X-268085Y-101961D01*
X-268085Y-101587D02*
X-270211Y-101587D01*
X-270211Y-101213D02*
X-268085Y-101213D01*
X-268085Y-100839D02*
X-270211Y-100839D01*
X-270211Y-100465D02*
X-268085Y-100465D01*
X-268085Y-100091D02*
X-270211Y-100091D01*
X-270211Y-99717D02*
X-268085Y-99717D01*
X-268085Y-99343D02*
X-270211Y-99343D01*
X-270211Y-98969D02*
X-268085Y-98969D01*
X-268085Y-98595D02*
X-270211Y-98595D01*
X-270211Y-98221D02*
X-268085Y-98221D01*
X-268085Y-97847D02*
X-270211Y-97847D01*
X-273085Y-104205D02*
X-275211Y-104205D01*
X-275211Y-97579D01*
X-273085Y-97579D01*
X-273085Y-104205D01*
X-273085Y-103831D02*
X-275211Y-103831D01*
X-275211Y-103457D02*
X-273085Y-103457D01*
X-273085Y-103083D02*
X-275211Y-103083D01*
X-275211Y-102709D02*
X-273085Y-102709D01*
X-273085Y-102335D02*
X-275211Y-102335D01*
X-275211Y-101961D02*
X-273085Y-101961D01*
X-273085Y-101587D02*
X-275211Y-101587D01*
X-275211Y-101213D02*
X-273085Y-101213D01*
X-273085Y-100839D02*
X-275211Y-100839D01*
X-275211Y-100465D02*
X-273085Y-100465D01*
X-273085Y-100091D02*
X-275211Y-100091D01*
X-275211Y-99717D02*
X-273085Y-99717D01*
X-273085Y-99343D02*
X-275211Y-99343D01*
X-275211Y-98969D02*
X-273085Y-98969D01*
X-273085Y-98595D02*
X-275211Y-98595D01*
X-275211Y-98221D02*
X-273085Y-98221D01*
X-273085Y-97847D02*
X-275211Y-97847D01*
X-278085Y-104205D02*
X-280211Y-104205D01*
X-280211Y-97579D01*
X-278085Y-97579D01*
X-278085Y-104205D01*
X-278085Y-103831D02*
X-280211Y-103831D01*
X-280211Y-103457D02*
X-278085Y-103457D01*
X-278085Y-103083D02*
X-280211Y-103083D01*
X-280211Y-102709D02*
X-278085Y-102709D01*
X-278085Y-102335D02*
X-280211Y-102335D01*
X-280211Y-101961D02*
X-278085Y-101961D01*
X-278085Y-101587D02*
X-280211Y-101587D01*
X-280211Y-101213D02*
X-278085Y-101213D01*
X-278085Y-100839D02*
X-280211Y-100839D01*
X-280211Y-100465D02*
X-278085Y-100465D01*
X-278085Y-100091D02*
X-280211Y-100091D01*
X-280211Y-99717D02*
X-278085Y-99717D01*
X-278085Y-99343D02*
X-280211Y-99343D01*
X-280211Y-98969D02*
X-278085Y-98969D01*
X-278085Y-98595D02*
X-280211Y-98595D01*
X-280211Y-98221D02*
X-278085Y-98221D01*
X-278085Y-97847D02*
X-280211Y-97847D01*
X-283085Y-104205D02*
X-285211Y-104205D01*
X-285211Y-97579D01*
X-283085Y-97579D01*
X-283085Y-104205D01*
X-283085Y-103831D02*
X-285211Y-103831D01*
X-285211Y-103457D02*
X-283085Y-103457D01*
X-283085Y-103083D02*
X-285211Y-103083D01*
X-285211Y-102709D02*
X-283085Y-102709D01*
X-283085Y-102335D02*
X-285211Y-102335D01*
X-285211Y-101961D02*
X-283085Y-101961D01*
X-283085Y-101587D02*
X-285211Y-101587D01*
X-285211Y-101213D02*
X-283085Y-101213D01*
X-283085Y-100839D02*
X-285211Y-100839D01*
X-285211Y-100465D02*
X-283085Y-100465D01*
X-283085Y-100091D02*
X-285211Y-100091D01*
X-285211Y-99717D02*
X-283085Y-99717D01*
X-283085Y-99343D02*
X-285211Y-99343D01*
X-285211Y-98969D02*
X-283085Y-98969D01*
X-283085Y-98595D02*
X-285211Y-98595D01*
X-285211Y-98221D02*
X-283085Y-98221D01*
X-283085Y-97847D02*
X-285211Y-97847D01*
X-288085Y-104205D02*
X-290211Y-104205D01*
X-290211Y-97579D01*
X-288085Y-97579D01*
X-288085Y-104205D01*
X-288085Y-103831D02*
X-290211Y-103831D01*
X-290211Y-103457D02*
X-288085Y-103457D01*
X-288085Y-103083D02*
X-290211Y-103083D01*
X-290211Y-102709D02*
X-288085Y-102709D01*
X-288085Y-102335D02*
X-290211Y-102335D01*
X-290211Y-101961D02*
X-288085Y-101961D01*
X-288085Y-101587D02*
X-290211Y-101587D01*
X-290211Y-101213D02*
X-288085Y-101213D01*
X-288085Y-100839D02*
X-290211Y-100839D01*
X-290211Y-100465D02*
X-288085Y-100465D01*
X-288085Y-100091D02*
X-290211Y-100091D01*
X-290211Y-99717D02*
X-288085Y-99717D01*
X-288085Y-99343D02*
X-290211Y-99343D01*
X-290211Y-98969D02*
X-288085Y-98969D01*
X-288085Y-98595D02*
X-290211Y-98595D01*
X-290211Y-98221D02*
X-288085Y-98221D01*
X-288085Y-97847D02*
X-290211Y-97847D01*
X-293085Y-104205D02*
X-295211Y-104205D01*
X-295211Y-97579D01*
X-293085Y-97579D01*
X-293085Y-104205D01*
X-293085Y-103831D02*
X-295211Y-103831D01*
X-295211Y-103457D02*
X-293085Y-103457D01*
X-293085Y-103083D02*
X-295211Y-103083D01*
X-295211Y-102709D02*
X-293085Y-102709D01*
X-293085Y-102335D02*
X-295211Y-102335D01*
X-295211Y-101961D02*
X-293085Y-101961D01*
X-293085Y-101587D02*
X-295211Y-101587D01*
X-295211Y-101213D02*
X-293085Y-101213D01*
X-293085Y-100839D02*
X-295211Y-100839D01*
X-295211Y-100465D02*
X-293085Y-100465D01*
X-293085Y-100091D02*
X-295211Y-100091D01*
X-295211Y-99717D02*
X-293085Y-99717D01*
X-293085Y-99343D02*
X-295211Y-99343D01*
X-295211Y-98969D02*
X-293085Y-98969D01*
X-293085Y-98595D02*
X-295211Y-98595D01*
X-295211Y-98221D02*
X-293085Y-98221D01*
X-293085Y-97847D02*
X-295211Y-97847D01*
X-298085Y-104205D02*
X-300211Y-104205D01*
X-300211Y-97579D01*
X-298085Y-97579D01*
X-298085Y-104205D01*
X-298085Y-103831D02*
X-300211Y-103831D01*
X-300211Y-103457D02*
X-298085Y-103457D01*
X-298085Y-103083D02*
X-300211Y-103083D01*
X-300211Y-102709D02*
X-298085Y-102709D01*
X-298085Y-102335D02*
X-300211Y-102335D01*
X-300211Y-101961D02*
X-298085Y-101961D01*
X-298085Y-101587D02*
X-300211Y-101587D01*
X-300211Y-101213D02*
X-298085Y-101213D01*
X-298085Y-100839D02*
X-300211Y-100839D01*
X-300211Y-100465D02*
X-298085Y-100465D01*
X-298085Y-100091D02*
X-300211Y-100091D01*
X-300211Y-99717D02*
X-298085Y-99717D01*
X-298085Y-99343D02*
X-300211Y-99343D01*
X-300211Y-98969D02*
X-298085Y-98969D01*
X-298085Y-98595D02*
X-300211Y-98595D01*
X-300211Y-98221D02*
X-298085Y-98221D01*
X-298085Y-97847D02*
X-300211Y-97847D01*
X-300211Y-151205D02*
X-298085Y-151205D01*
X-300211Y-151205D02*
X-300211Y-144579D01*
X-298085Y-144579D01*
X-298085Y-151205D01*
X-298085Y-150831D02*
X-300211Y-150831D01*
X-300211Y-150457D02*
X-298085Y-150457D01*
X-298085Y-150083D02*
X-300211Y-150083D01*
X-300211Y-149709D02*
X-298085Y-149709D01*
X-298085Y-149335D02*
X-300211Y-149335D01*
X-300211Y-148961D02*
X-298085Y-148961D01*
X-298085Y-148587D02*
X-300211Y-148587D01*
X-300211Y-148213D02*
X-298085Y-148213D01*
X-298085Y-147839D02*
X-300211Y-147839D01*
X-300211Y-147465D02*
X-298085Y-147465D01*
X-298085Y-147091D02*
X-300211Y-147091D01*
X-300211Y-146717D02*
X-298085Y-146717D01*
X-298085Y-146343D02*
X-300211Y-146343D01*
X-300211Y-145969D02*
X-298085Y-145969D01*
X-298085Y-145595D02*
X-300211Y-145595D01*
X-300211Y-145221D02*
X-298085Y-145221D01*
X-298085Y-144847D02*
X-300211Y-144847D01*
X-295211Y-151205D02*
X-293085Y-151205D01*
X-295211Y-151205D02*
X-295211Y-144579D01*
X-293085Y-144579D01*
X-293085Y-151205D01*
X-293085Y-150831D02*
X-295211Y-150831D01*
X-295211Y-150457D02*
X-293085Y-150457D01*
X-293085Y-150083D02*
X-295211Y-150083D01*
X-295211Y-149709D02*
X-293085Y-149709D01*
X-293085Y-149335D02*
X-295211Y-149335D01*
X-295211Y-148961D02*
X-293085Y-148961D01*
X-293085Y-148587D02*
X-295211Y-148587D01*
X-295211Y-148213D02*
X-293085Y-148213D01*
X-293085Y-147839D02*
X-295211Y-147839D01*
X-295211Y-147465D02*
X-293085Y-147465D01*
X-293085Y-147091D02*
X-295211Y-147091D01*
X-295211Y-146717D02*
X-293085Y-146717D01*
X-293085Y-146343D02*
X-295211Y-146343D01*
X-295211Y-145969D02*
X-293085Y-145969D01*
X-293085Y-145595D02*
X-295211Y-145595D01*
X-295211Y-145221D02*
X-293085Y-145221D01*
X-293085Y-144847D02*
X-295211Y-144847D01*
X-290211Y-151205D02*
X-288085Y-151205D01*
X-290211Y-151205D02*
X-290211Y-144579D01*
X-288085Y-144579D01*
X-288085Y-151205D01*
X-288085Y-150831D02*
X-290211Y-150831D01*
X-290211Y-150457D02*
X-288085Y-150457D01*
X-288085Y-150083D02*
X-290211Y-150083D01*
X-290211Y-149709D02*
X-288085Y-149709D01*
X-288085Y-149335D02*
X-290211Y-149335D01*
X-290211Y-148961D02*
X-288085Y-148961D01*
X-288085Y-148587D02*
X-290211Y-148587D01*
X-290211Y-148213D02*
X-288085Y-148213D01*
X-288085Y-147839D02*
X-290211Y-147839D01*
X-290211Y-147465D02*
X-288085Y-147465D01*
X-288085Y-147091D02*
X-290211Y-147091D01*
X-290211Y-146717D02*
X-288085Y-146717D01*
X-288085Y-146343D02*
X-290211Y-146343D01*
X-290211Y-145969D02*
X-288085Y-145969D01*
X-288085Y-145595D02*
X-290211Y-145595D01*
X-290211Y-145221D02*
X-288085Y-145221D01*
X-288085Y-144847D02*
X-290211Y-144847D01*
X-285211Y-151205D02*
X-283085Y-151205D01*
X-285211Y-151205D02*
X-285211Y-144579D01*
X-283085Y-144579D01*
X-283085Y-151205D01*
X-283085Y-150831D02*
X-285211Y-150831D01*
X-285211Y-150457D02*
X-283085Y-150457D01*
X-283085Y-150083D02*
X-285211Y-150083D01*
X-285211Y-149709D02*
X-283085Y-149709D01*
X-283085Y-149335D02*
X-285211Y-149335D01*
X-285211Y-148961D02*
X-283085Y-148961D01*
X-283085Y-148587D02*
X-285211Y-148587D01*
X-285211Y-148213D02*
X-283085Y-148213D01*
X-283085Y-147839D02*
X-285211Y-147839D01*
X-285211Y-147465D02*
X-283085Y-147465D01*
X-283085Y-147091D02*
X-285211Y-147091D01*
X-285211Y-146717D02*
X-283085Y-146717D01*
X-283085Y-146343D02*
X-285211Y-146343D01*
X-285211Y-145969D02*
X-283085Y-145969D01*
X-283085Y-145595D02*
X-285211Y-145595D01*
X-285211Y-145221D02*
X-283085Y-145221D01*
X-283085Y-144847D02*
X-285211Y-144847D01*
X-280211Y-151205D02*
X-278085Y-151205D01*
X-280211Y-151205D02*
X-280211Y-144579D01*
X-278085Y-144579D01*
X-278085Y-151205D01*
X-278085Y-150831D02*
X-280211Y-150831D01*
X-280211Y-150457D02*
X-278085Y-150457D01*
X-278085Y-150083D02*
X-280211Y-150083D01*
X-280211Y-149709D02*
X-278085Y-149709D01*
X-278085Y-149335D02*
X-280211Y-149335D01*
X-280211Y-148961D02*
X-278085Y-148961D01*
X-278085Y-148587D02*
X-280211Y-148587D01*
X-280211Y-148213D02*
X-278085Y-148213D01*
X-278085Y-147839D02*
X-280211Y-147839D01*
X-280211Y-147465D02*
X-278085Y-147465D01*
X-278085Y-147091D02*
X-280211Y-147091D01*
X-280211Y-146717D02*
X-278085Y-146717D01*
X-278085Y-146343D02*
X-280211Y-146343D01*
X-280211Y-145969D02*
X-278085Y-145969D01*
X-278085Y-145595D02*
X-280211Y-145595D01*
X-280211Y-145221D02*
X-278085Y-145221D01*
X-278085Y-144847D02*
X-280211Y-144847D01*
X-275211Y-151205D02*
X-273085Y-151205D01*
X-275211Y-151205D02*
X-275211Y-144579D01*
X-273085Y-144579D01*
X-273085Y-151205D01*
X-273085Y-150831D02*
X-275211Y-150831D01*
X-275211Y-150457D02*
X-273085Y-150457D01*
X-273085Y-150083D02*
X-275211Y-150083D01*
X-275211Y-149709D02*
X-273085Y-149709D01*
X-273085Y-149335D02*
X-275211Y-149335D01*
X-275211Y-148961D02*
X-273085Y-148961D01*
X-273085Y-148587D02*
X-275211Y-148587D01*
X-275211Y-148213D02*
X-273085Y-148213D01*
X-273085Y-147839D02*
X-275211Y-147839D01*
X-275211Y-147465D02*
X-273085Y-147465D01*
X-273085Y-147091D02*
X-275211Y-147091D01*
X-275211Y-146717D02*
X-273085Y-146717D01*
X-273085Y-146343D02*
X-275211Y-146343D01*
X-275211Y-145969D02*
X-273085Y-145969D01*
X-273085Y-145595D02*
X-275211Y-145595D01*
X-275211Y-145221D02*
X-273085Y-145221D01*
X-273085Y-144847D02*
X-275211Y-144847D01*
X-270211Y-151205D02*
X-268085Y-151205D01*
X-270211Y-151205D02*
X-270211Y-144579D01*
X-268085Y-144579D01*
X-268085Y-151205D01*
X-268085Y-150831D02*
X-270211Y-150831D01*
X-270211Y-150457D02*
X-268085Y-150457D01*
X-268085Y-150083D02*
X-270211Y-150083D01*
X-270211Y-149709D02*
X-268085Y-149709D01*
X-268085Y-149335D02*
X-270211Y-149335D01*
X-270211Y-148961D02*
X-268085Y-148961D01*
X-268085Y-148587D02*
X-270211Y-148587D01*
X-270211Y-148213D02*
X-268085Y-148213D01*
X-268085Y-147839D02*
X-270211Y-147839D01*
X-270211Y-147465D02*
X-268085Y-147465D01*
X-268085Y-147091D02*
X-270211Y-147091D01*
X-270211Y-146717D02*
X-268085Y-146717D01*
X-268085Y-146343D02*
X-270211Y-146343D01*
X-270211Y-145969D02*
X-268085Y-145969D01*
X-268085Y-145595D02*
X-270211Y-145595D01*
X-270211Y-145221D02*
X-268085Y-145221D01*
X-268085Y-144847D02*
X-270211Y-144847D01*
X-265211Y-151205D02*
X-263085Y-151205D01*
X-265211Y-151205D02*
X-265211Y-144579D01*
X-263085Y-144579D01*
X-263085Y-151205D01*
X-263085Y-150831D02*
X-265211Y-150831D01*
X-265211Y-150457D02*
X-263085Y-150457D01*
X-263085Y-150083D02*
X-265211Y-150083D01*
X-265211Y-149709D02*
X-263085Y-149709D01*
X-263085Y-149335D02*
X-265211Y-149335D01*
X-265211Y-148961D02*
X-263085Y-148961D01*
X-263085Y-148587D02*
X-265211Y-148587D01*
X-265211Y-148213D02*
X-263085Y-148213D01*
X-263085Y-147839D02*
X-265211Y-147839D01*
X-265211Y-147465D02*
X-263085Y-147465D01*
X-263085Y-147091D02*
X-265211Y-147091D01*
X-265211Y-146717D02*
X-263085Y-146717D01*
X-263085Y-146343D02*
X-265211Y-146343D01*
X-265211Y-145969D02*
X-263085Y-145969D01*
X-263085Y-145595D02*
X-265211Y-145595D01*
X-265211Y-145221D02*
X-263085Y-145221D01*
X-263085Y-144847D02*
X-265211Y-144847D01*
X-260211Y-151205D02*
X-258085Y-151205D01*
X-260211Y-151205D02*
X-260211Y-144579D01*
X-258085Y-144579D01*
X-258085Y-151205D01*
X-258085Y-150831D02*
X-260211Y-150831D01*
X-260211Y-150457D02*
X-258085Y-150457D01*
X-258085Y-150083D02*
X-260211Y-150083D01*
X-260211Y-149709D02*
X-258085Y-149709D01*
X-258085Y-149335D02*
X-260211Y-149335D01*
X-260211Y-148961D02*
X-258085Y-148961D01*
X-258085Y-148587D02*
X-260211Y-148587D01*
X-260211Y-148213D02*
X-258085Y-148213D01*
X-258085Y-147839D02*
X-260211Y-147839D01*
X-260211Y-147465D02*
X-258085Y-147465D01*
X-258085Y-147091D02*
X-260211Y-147091D01*
X-260211Y-146717D02*
X-258085Y-146717D01*
X-258085Y-146343D02*
X-260211Y-146343D01*
X-260211Y-145969D02*
X-258085Y-145969D01*
X-258085Y-145595D02*
X-260211Y-145595D01*
X-260211Y-145221D02*
X-258085Y-145221D01*
X-258085Y-144847D02*
X-260211Y-144847D01*
X-255211Y-151205D02*
X-253085Y-151205D01*
X-255211Y-151205D02*
X-255211Y-144579D01*
X-253085Y-144579D01*
X-253085Y-151205D01*
X-253085Y-150831D02*
X-255211Y-150831D01*
X-255211Y-150457D02*
X-253085Y-150457D01*
X-253085Y-150083D02*
X-255211Y-150083D01*
X-255211Y-149709D02*
X-253085Y-149709D01*
X-253085Y-149335D02*
X-255211Y-149335D01*
X-255211Y-148961D02*
X-253085Y-148961D01*
X-253085Y-148587D02*
X-255211Y-148587D01*
X-255211Y-148213D02*
X-253085Y-148213D01*
X-253085Y-147839D02*
X-255211Y-147839D01*
X-255211Y-147465D02*
X-253085Y-147465D01*
X-253085Y-147091D02*
X-255211Y-147091D01*
X-255211Y-146717D02*
X-253085Y-146717D01*
X-253085Y-146343D02*
X-255211Y-146343D01*
X-255211Y-145969D02*
X-253085Y-145969D01*
X-253085Y-145595D02*
X-255211Y-145595D01*
X-255211Y-145221D02*
X-253085Y-145221D01*
X-253085Y-144847D02*
X-255211Y-144847D01*
D36*
X-245612Y-143673D02*
X-245612Y-147411D01*
X-245612Y-143673D02*
X-242424Y-143673D01*
X-242424Y-147411D01*
X-245612Y-147411D01*
X-245612Y-146849D02*
X-242424Y-146849D01*
X-242424Y-146287D02*
X-245612Y-146287D01*
X-245612Y-145725D02*
X-242424Y-145725D01*
X-242424Y-145163D02*
X-245612Y-145163D01*
X-245612Y-144601D02*
X-242424Y-144601D01*
X-242424Y-144039D02*
X-245612Y-144039D01*
X-245612Y-105111D02*
X-245612Y-101373D01*
X-242424Y-101373D01*
X-242424Y-105111D01*
X-245612Y-105111D01*
X-245612Y-104549D02*
X-242424Y-104549D01*
X-242424Y-103987D02*
X-245612Y-103987D01*
X-245612Y-103425D02*
X-242424Y-103425D01*
X-242424Y-102863D02*
X-245612Y-102863D01*
X-245612Y-102301D02*
X-242424Y-102301D01*
X-242424Y-101739D02*
X-245612Y-101739D01*
X-305872Y-101373D02*
X-305872Y-105111D01*
X-305872Y-101373D02*
X-302684Y-101373D01*
X-302684Y-105111D01*
X-305872Y-105111D01*
X-305872Y-104549D02*
X-302684Y-104549D01*
X-302684Y-103987D02*
X-305872Y-103987D01*
X-305872Y-103425D02*
X-302684Y-103425D01*
X-302684Y-102863D02*
X-305872Y-102863D01*
X-305872Y-102301D02*
X-302684Y-102301D01*
X-302684Y-101739D02*
X-305872Y-101739D01*
X-305872Y-143673D02*
X-305872Y-147411D01*
X-305872Y-143673D02*
X-302684Y-143673D01*
X-302684Y-147411D01*
X-305872Y-147411D01*
X-305872Y-146849D02*
X-302684Y-146849D01*
X-302684Y-146287D02*
X-305872Y-146287D01*
X-305872Y-145725D02*
X-302684Y-145725D01*
X-302684Y-145163D02*
X-305872Y-145163D01*
X-305872Y-144601D02*
X-302684Y-144601D01*
X-302684Y-144039D02*
X-305872Y-144039D01*
D47*
X-341800Y-81500D03*
X-341800Y81500D03*
D48*
X195738Y255720D02*
X198738Y255720D01*
X195738Y255720D02*
X195738Y266620D01*
X198738Y266620D01*
X198738Y255720D01*
X198738Y256719D02*
X195738Y256719D01*
X195738Y257718D02*
X198738Y257718D01*
X198738Y258717D02*
X195738Y258717D01*
X195738Y259716D02*
X198738Y259716D01*
X198738Y260715D02*
X195738Y260715D01*
X195738Y261714D02*
X198738Y261714D01*
X198738Y262713D02*
X195738Y262713D01*
X195738Y263712D02*
X198738Y263712D01*
X198738Y264711D02*
X195738Y264711D01*
X195738Y265710D02*
X198738Y265710D01*
X202238Y255720D02*
X205238Y255720D01*
X202238Y255720D02*
X202238Y266620D01*
X205238Y266620D01*
X205238Y255720D01*
X205238Y256719D02*
X202238Y256719D01*
X202238Y257718D02*
X205238Y257718D01*
X205238Y258717D02*
X202238Y258717D01*
X202238Y259716D02*
X205238Y259716D01*
X205238Y260715D02*
X202238Y260715D01*
X202238Y261714D02*
X205238Y261714D01*
X205238Y262713D02*
X202238Y262713D01*
X202238Y263712D02*
X205238Y263712D01*
X205238Y264711D02*
X202238Y264711D01*
X202238Y265710D02*
X205238Y265710D01*
X208738Y255720D02*
X211738Y255720D01*
X208738Y255720D02*
X208738Y266620D01*
X211738Y266620D01*
X211738Y255720D01*
X211738Y256719D02*
X208738Y256719D01*
X208738Y257718D02*
X211738Y257718D01*
X211738Y258717D02*
X208738Y258717D01*
X208738Y259716D02*
X211738Y259716D01*
X211738Y260715D02*
X208738Y260715D01*
X208738Y261714D02*
X211738Y261714D01*
X211738Y262713D02*
X208738Y262713D01*
X208738Y263712D02*
X211738Y263712D01*
X211738Y264711D02*
X208738Y264711D01*
X208738Y265710D02*
X211738Y265710D01*
X211738Y285820D02*
X208738Y285820D01*
X211738Y285820D02*
X211738Y274920D01*
X208738Y274920D01*
X208738Y285820D01*
X208738Y275919D02*
X211738Y275919D01*
X211738Y276918D02*
X208738Y276918D01*
X208738Y277917D02*
X211738Y277917D01*
X211738Y278916D02*
X208738Y278916D01*
X208738Y279915D02*
X211738Y279915D01*
X211738Y280914D02*
X208738Y280914D01*
X208738Y281913D02*
X211738Y281913D01*
X211738Y282912D02*
X208738Y282912D01*
X208738Y283911D02*
X211738Y283911D01*
X211738Y284910D02*
X208738Y284910D01*
X198738Y285820D02*
X195738Y285820D01*
X198738Y285820D02*
X198738Y274920D01*
X195738Y274920D01*
X195738Y285820D01*
X195738Y275919D02*
X198738Y275919D01*
X198738Y276918D02*
X195738Y276918D01*
X195738Y277917D02*
X198738Y277917D01*
X198738Y278916D02*
X195738Y278916D01*
X195738Y279915D02*
X198738Y279915D01*
X198738Y280914D02*
X195738Y280914D01*
X195738Y281913D02*
X198738Y281913D01*
X198738Y282912D02*
X195738Y282912D01*
X195738Y283911D02*
X198738Y283911D01*
X198738Y284910D02*
X195738Y284910D01*
D17*
X-96900Y320932D03*
X-96900Y330932D03*
D15*
X-110494Y316448D02*
X-117494Y316448D01*
X-110494Y316448D02*
X-110494Y309448D01*
X-117494Y309448D01*
X-117494Y316448D01*
X-117494Y312447D02*
X-110494Y312447D01*
X-110494Y315446D02*
X-117494Y315446D01*
X-117494Y333988D02*
X-110494Y333988D01*
X-110494Y326988D01*
X-117494Y326988D01*
X-117494Y333988D01*
X-117494Y329987D02*
X-110494Y329987D01*
X-110494Y332986D02*
X-117494Y332986D01*
D17*
X-143604Y320932D03*
X-143604Y330932D03*
D15*
X-134790Y316448D02*
X-127790Y316448D01*
X-127790Y309448D01*
X-134790Y309448D01*
X-134790Y316448D01*
X-134790Y312447D02*
X-127790Y312447D01*
X-127790Y315446D02*
X-134790Y315446D01*
X-134790Y333988D02*
X-127790Y333988D01*
X-127790Y326988D01*
X-134790Y326988D01*
X-134790Y333988D01*
X-134790Y329987D02*
X-127790Y329987D01*
X-127790Y332986D02*
X-134790Y332986D01*
D19*
X-58000Y289000D03*
X-48000Y289000D03*
M02*
