G04 EAGLE Gerber X2 export*
%TF.Part,Single*%
%TF.FileFunction,Soldermask,Bot,1*%
%TF.FilePolarity,Negative*%
%TF.GenerationSoftware,Autodesk,EAGLE,8.6.0*%
%TF.CreationDate,2018-04-19T18:27:55Z*%
G75*
%MOMM*%
%FSLAX34Y34*%
%LPD*%
%AMOC8*
5,1,8,0,0,1.08239X$1,22.5*%
G01*
%ADD10C,1.803200*%
%ADD11R,1.503200X1.703200*%
%ADD12R,1.103200X0.903200*%
%ADD13R,0.903200X1.103200*%
%ADD14R,1.203200X1.003200*%
%ADD15R,1.003200X1.203200*%
%ADD16R,1.403200X1.503200*%
%ADD17R,1.503200X1.403200*%
%ADD18R,0.448200X1.803200*%
%ADD19R,1.803200X0.448200*%
%ADD20R,2.235200X0.863600*%
%ADD21R,2.403200X0.803200*%
%ADD22R,5.283200X2.743200*%
%ADD23R,0.803200X0.903200*%
%ADD24C,1.711200*%
%ADD25R,1.603200X1.403200*%
%ADD26R,1.053200X0.483200*%
%ADD27R,0.483200X1.053200*%
%ADD28R,4.353200X4.353200*%
%ADD29C,0.390959*%
%ADD30R,3.003200X2.303200*%
%ADD31C,2.082800*%
%ADD32R,1.203200X0.803200*%
%ADD33R,2.003200X1.453200*%
%ADD34C,0.959600*%
%ADD35C,1.009600*%


D10*
X360000Y120000D03*
X320000Y200000D03*
X151000Y345000D03*
X-24000Y375000D03*
X-274000Y257000D03*
X-123000Y355000D03*
D11*
X311500Y154800D03*
X292500Y154800D03*
D12*
X276100Y150800D03*
X276100Y163800D03*
D13*
X216300Y166800D03*
X203300Y166800D03*
X-94300Y269300D03*
X-107300Y269300D03*
X-223730Y260790D03*
X-236730Y260790D03*
D12*
X-1640Y349728D03*
X-1640Y362728D03*
X14232Y349576D03*
X14232Y362576D03*
D13*
X60266Y354632D03*
X47266Y354632D03*
D12*
X118218Y330582D03*
X118218Y343582D03*
D13*
X-81686Y349568D03*
X-94686Y349568D03*
X-63338Y354718D03*
X-50338Y354718D03*
X96700Y257200D03*
X109700Y257200D03*
X98200Y241200D03*
X111200Y241200D03*
D12*
X24800Y349700D03*
X24800Y362700D03*
X-254300Y170400D03*
X-254300Y157400D03*
D13*
X293300Y174700D03*
X306300Y174700D03*
D11*
X292400Y133700D03*
X311400Y133700D03*
D14*
X-203362Y277692D03*
X-183362Y277692D03*
D15*
X-138046Y224140D03*
X-138046Y204140D03*
D16*
X-302122Y174622D03*
X-281802Y174622D03*
D17*
X-256096Y110316D03*
X-256096Y130636D03*
D18*
X62000Y179500D03*
X58000Y179500D03*
X54000Y179500D03*
X50000Y179500D03*
X46000Y179500D03*
X42000Y179500D03*
X38000Y179500D03*
X34000Y179500D03*
X30000Y179500D03*
X26000Y179500D03*
X22000Y179500D03*
X18000Y179500D03*
X14000Y179500D03*
X10000Y179500D03*
X6000Y179500D03*
X2000Y179500D03*
X-2000Y179500D03*
X-6000Y179500D03*
X-10000Y179500D03*
X-14000Y179500D03*
X-18000Y179500D03*
X-22000Y179500D03*
X-26000Y179500D03*
X-30000Y179500D03*
X-34000Y179500D03*
X-38000Y179500D03*
X-42000Y179500D03*
X-46000Y179500D03*
X-50000Y179500D03*
X-54000Y179500D03*
X-58000Y179500D03*
X-62000Y179500D03*
D19*
X-76500Y194000D03*
X-76500Y198000D03*
X-76500Y202000D03*
X-76500Y206000D03*
X-76500Y210000D03*
X-76500Y214000D03*
X-76500Y218000D03*
X-76500Y222000D03*
X-76500Y226000D03*
X-76500Y230000D03*
X-76500Y234000D03*
X-76500Y238000D03*
X-76500Y242000D03*
X-76500Y246000D03*
X-76500Y250000D03*
X-76500Y254000D03*
X-76500Y258000D03*
X-76500Y262000D03*
X-76500Y266000D03*
X-76500Y270000D03*
X-76500Y274000D03*
X-76500Y278000D03*
X-76500Y282000D03*
X-76500Y286000D03*
X-76500Y290000D03*
X-76500Y294000D03*
X-76500Y298000D03*
X-76500Y302000D03*
X-76500Y306000D03*
X-76500Y310000D03*
X-76500Y314000D03*
X-76500Y318000D03*
D18*
X-62000Y332500D03*
X-58000Y332500D03*
X-54000Y332500D03*
X-50000Y332500D03*
X-46000Y332500D03*
X-42000Y332500D03*
X-38000Y332500D03*
X-34000Y332500D03*
X-30000Y332500D03*
X-26000Y332500D03*
X-22000Y332500D03*
X-18000Y332500D03*
X-14000Y332500D03*
X-10000Y332500D03*
X-6000Y332500D03*
X-2000Y332500D03*
X2000Y332500D03*
X6000Y332500D03*
X10000Y332500D03*
X14000Y332500D03*
X18000Y332500D03*
X22000Y332500D03*
X26000Y332500D03*
X30000Y332500D03*
X34000Y332500D03*
X38000Y332500D03*
X42000Y332500D03*
X46000Y332500D03*
X50000Y332500D03*
X54000Y332500D03*
X58000Y332500D03*
X62000Y332500D03*
D19*
X76500Y318000D03*
X76500Y314000D03*
X76500Y310000D03*
X76500Y306000D03*
X76500Y302000D03*
X76500Y298000D03*
X76500Y294000D03*
X76500Y290000D03*
X76500Y286000D03*
X76500Y282000D03*
X76500Y278000D03*
X76500Y274000D03*
X76500Y270000D03*
X76500Y266000D03*
X76500Y262000D03*
X76500Y258000D03*
X76500Y254000D03*
X76500Y250000D03*
X76500Y246000D03*
X76500Y242000D03*
X76500Y238000D03*
X76500Y234000D03*
X76500Y230000D03*
X76500Y226000D03*
X76500Y222000D03*
X76500Y218000D03*
X76500Y214000D03*
X76500Y210000D03*
X76500Y206000D03*
X76500Y202000D03*
X76500Y198000D03*
X76500Y194000D03*
D20*
X-228756Y202558D03*
X-167288Y202558D03*
X-228756Y215258D03*
X-228756Y227958D03*
X-167288Y215258D03*
X-167288Y227958D03*
X-228756Y240658D03*
X-167288Y240658D03*
D21*
X-265410Y-28314D03*
X-173410Y-2914D03*
X-265410Y-41014D03*
X-265410Y-15614D03*
X-265410Y-2914D03*
X-173410Y-15614D03*
X-173410Y9786D03*
X-173410Y22486D03*
X-265410Y22486D03*
X-173410Y47886D03*
X-265410Y9786D03*
X-265410Y35186D03*
X-173410Y35186D03*
X-265410Y47886D03*
X-173410Y-28314D03*
X-173410Y-41014D03*
D22*
X-307756Y104940D03*
X-307756Y144940D03*
D23*
X104900Y316700D03*
X114900Y316700D03*
X-106800Y295900D03*
X-96800Y295900D03*
D13*
X-201004Y261328D03*
X-188004Y261328D03*
D12*
X-122262Y208012D03*
X-122262Y221012D03*
D24*
X60700Y-214400D03*
X60700Y-289400D03*
D25*
X77136Y347210D03*
X99136Y347210D03*
X99136Y331210D03*
X77136Y331210D03*
D24*
X204700Y-92900D03*
X204700Y-167900D03*
D26*
X210250Y117282D03*
D27*
X237500Y85032D03*
D26*
X269750Y112282D03*
D27*
X237500Y144532D03*
X232500Y144532D03*
X227500Y144532D03*
X222500Y144532D03*
X217500Y144532D03*
X242500Y144532D03*
X247500Y144532D03*
X252500Y144532D03*
X257500Y144532D03*
X262500Y144532D03*
X232500Y85032D03*
X227500Y85032D03*
X222500Y85032D03*
X217500Y85032D03*
X242500Y85032D03*
X247500Y85032D03*
X252500Y85032D03*
X257500Y85032D03*
X262500Y85032D03*
D26*
X269750Y107282D03*
X269750Y102282D03*
X269750Y97282D03*
X269750Y92282D03*
X269750Y117282D03*
X269750Y122282D03*
X269750Y132282D03*
X269750Y127282D03*
X269750Y137282D03*
X210250Y112282D03*
X210250Y107282D03*
X210250Y102282D03*
X210250Y97282D03*
X210250Y92282D03*
X210250Y122282D03*
X210250Y127282D03*
X210250Y132282D03*
X210250Y137282D03*
D28*
X240000Y114782D03*
D29*
X-99325Y325279D02*
X-108447Y325279D01*
X-108447Y342401D01*
X-99325Y342401D01*
X-99325Y325279D01*
X-99325Y329188D02*
X-108447Y329188D01*
X-108447Y333097D02*
X-99325Y333097D01*
X-99325Y337006D02*
X-108447Y337006D01*
X-108447Y340915D02*
X-99325Y340915D01*
X-84447Y325279D02*
X-75325Y325279D01*
X-84447Y325279D02*
X-84447Y342401D01*
X-75325Y342401D01*
X-75325Y325279D01*
X-75325Y329188D02*
X-84447Y329188D01*
X-84447Y333097D02*
X-75325Y333097D01*
X-75325Y337006D02*
X-84447Y337006D01*
X-84447Y340915D02*
X-75325Y340915D01*
D30*
X-347000Y56500D03*
X-347000Y-56000D03*
D31*
X317270Y-132080D03*
X317270Y-106680D03*
X317270Y-81280D03*
X317270Y-55880D03*
X171700Y233900D03*
X146300Y233900D03*
X171700Y259300D03*
X146300Y259300D03*
X171700Y284700D03*
X146300Y284700D03*
X171700Y310100D03*
X146300Y310100D03*
D32*
X-269600Y-132000D03*
X-269600Y-147000D03*
X-269600Y-162000D03*
X-269600Y-117000D03*
X-269600Y-102000D03*
D33*
X-321500Y-188050D03*
X-321500Y-75950D03*
D34*
X-215000Y-78000D03*
X-204000Y-78000D03*
X-193000Y-78000D03*
X-182000Y-78000D03*
X-171000Y-78000D03*
X-160000Y-78000D03*
X-149000Y-113000D03*
X-215000Y-90000D03*
X-204000Y-90000D03*
X-193000Y-90000D03*
X-182000Y-90000D03*
X-171000Y-90000D03*
X-160000Y-90000D03*
X-215000Y-101000D03*
X-204000Y-101000D03*
X-193000Y-101000D03*
X-182000Y-101000D03*
X-171000Y-101000D03*
X-160000Y-101000D03*
X-215000Y-113000D03*
X-204000Y-113000D03*
X-193000Y-113000D03*
X-182000Y-113000D03*
X-171000Y-113000D03*
X-160000Y-113000D03*
X-182000Y-124000D03*
X-171000Y-124000D03*
X-160000Y-124000D03*
X-149000Y-124000D03*
X-138000Y-124000D03*
X-127000Y-124000D03*
X-182000Y-136000D03*
X-171000Y-136000D03*
X-160000Y-136000D03*
X-149000Y-136000D03*
X-138000Y-136000D03*
X-127000Y-136000D03*
X-171000Y-147000D03*
X-160000Y-147000D03*
X-149000Y-147000D03*
X-138000Y-147000D03*
X-127000Y-147000D03*
X-116000Y-147000D03*
X-171000Y-159000D03*
X-160000Y-159000D03*
X-149000Y-159000D03*
X-138000Y-159000D03*
X-127000Y-159000D03*
X-116000Y-159000D03*
X282000Y120000D03*
X293000Y120000D03*
X303000Y119000D03*
X310000Y112000D03*
X316000Y104000D03*
X322000Y95000D03*
X281000Y175000D03*
X-218000Y-37000D03*
X270000Y81000D03*
X171000Y0D03*
X189000Y0D03*
X215000Y0D03*
X268000Y0D03*
X317000Y0D03*
X339000Y0D03*
X-233000Y189000D03*
X-191000Y236000D03*
X-13000Y347000D03*
X37000Y363000D03*
X124000Y257000D03*
X24000Y194000D03*
X5000Y165000D03*
X200000Y82000D03*
X-240000Y52000D03*
X-258000Y58000D03*
X-302000Y17000D03*
X-262000Y-237000D03*
X-140000Y-260000D03*
X25000Y-261000D03*
X-348000Y-99000D03*
X-346000Y-110000D03*
X-334000Y-135000D03*
X-323000Y-136000D03*
X-314000Y-130000D03*
X-314000Y-120000D03*
X-317000Y-110000D03*
X-125000Y-176000D03*
X-115000Y-176000D03*
X-105000Y-176000D03*
X-95000Y-179000D03*
X-87000Y-186000D03*
X-80000Y-193000D03*
X-225000Y-155000D03*
X-216000Y-159000D03*
X-208000Y-165000D03*
X-202000Y-173000D03*
X-213000Y-174000D03*
X-223000Y-166000D03*
X-224000Y-177000D03*
X-217000Y-185000D03*
X-28000Y-250000D03*
X-20000Y-242000D03*
X-17000Y-251000D03*
X-9000Y-242000D03*
X-5000Y-251000D03*
X2000Y-242000D03*
X7000Y-251000D03*
X13000Y-242000D03*
X18000Y-251000D03*
X24000Y-242000D03*
X30000Y-251000D03*
X36000Y-242000D03*
X-221000Y-269000D03*
X266000Y165000D03*
X41000Y-251000D03*
X42000Y-270000D03*
X28000Y-271000D03*
X-167000Y-298000D03*
X-100000Y283000D03*
X-58000Y248000D03*
X-283000Y-137000D03*
X-1000Y281200D03*
X19700Y292000D03*
X29100Y277700D03*
X42400Y286400D03*
X-14200Y305800D03*
X-58500Y372000D03*
X-165400Y300400D03*
X-96600Y309700D03*
X-125300Y236300D03*
X-198700Y152300D03*
X-302700Y198300D03*
X99500Y282100D03*
X291600Y223700D03*
X272000Y254400D03*
X184100Y179500D03*
X173000Y330000D03*
X-25908Y198120D03*
X-291000Y38000D03*
X-243000Y66000D03*
X-217000Y69000D03*
X-37000Y254000D03*
X-39000Y214000D03*
X-17000Y276400D03*
X14000Y226000D03*
X-38000Y297000D03*
X-205000Y245000D03*
X101000Y179000D03*
X154000Y136000D03*
X181000Y130000D03*
X112000Y179000D03*
X141000Y149000D03*
X153000Y160000D03*
X50000Y206000D03*
X154000Y150000D03*
X44000Y197000D03*
X31000Y200000D03*
X210000Y61000D03*
D35*
X211000Y50000D03*
D34*
X21000Y203000D03*
X118000Y151000D03*
X208000Y30000D03*
X11000Y201000D03*
X115000Y141000D03*
X173000Y56000D03*
X-49000Y215000D03*
X-59000Y210000D03*
X47000Y266000D03*
X190000Y246000D03*
X-42000Y310000D03*
X32000Y317000D03*
X51000Y298000D03*
X135000Y179000D03*
X192000Y89000D03*
X145000Y179000D03*
X183000Y94000D03*
X159000Y180000D03*
X177000Y103000D03*
X92000Y210000D03*
X-112000Y193000D03*
X60000Y210000D03*
X-124000Y198000D03*
X57000Y225000D03*
X-101000Y225000D03*
X57000Y236000D03*
X210000Y180000D03*
X257000Y175000D03*
X222000Y191000D03*
X273000Y183000D03*
X-269000Y203000D03*
X-259000Y228000D03*
X-192000Y-23000D03*
X-192000Y24000D03*
X187000Y109000D03*
X-125000Y-234000D03*
X-246000Y-91000D03*
X-246000Y-81000D03*
X-192000Y-183000D03*
X-202000Y-189000D03*
X-120000Y-212000D03*
X-88000Y-276000D03*
X-98000Y-282000D03*
X-16000Y-284000D03*
X183000Y118000D03*
X238000Y210000D03*
X247000Y199000D03*
X268000Y211000D03*
X-19000Y-307000D03*
X-262000Y-247000D03*
X-260000Y-190000D03*
X243000Y260000D03*
X227000Y253000D03*
X191000Y308000D03*
M02*
