%
M48
M72
T01C0.01378
T02C0.05906
%
T01
X28465Y41064
X23741Y53269
X17442Y53269
X24528Y68229
X32009Y77284
X40670Y68229
X39883Y53269
X33190Y53662
X44607Y40670
X40670Y29646
X60355Y40670
X63898Y28072
X64686Y53662
X55631Y53662
X48938Y53662
X55631Y67835
X60749Y75316
X70591Y74135
T02
X16654Y24922
X16654Y80040
X79646Y80040
X79646Y24922
M30
