G75*
%MOIN*%
%OFA0B0*%
%FSLAX25Y25*%
%IPPOS*%
%LPD*%
%AMOC8*
5,1,8,0,0,1.08239X$1,22.5*
%
%ADD10R,0.02362X0.04724*%
%ADD11R,0.02756X0.02362*%
%ADD12C,0.00600*%
%ADD13C,0.02978*%
%ADD14C,0.01200*%
%ADD15C,0.01000*%
D10*
X0017442Y0045394D03*
X0024528Y0045394D03*
X0033190Y0045394D03*
X0040276Y0045394D03*
X0048938Y0045394D03*
X0056024Y0045394D03*
X0064686Y0045394D03*
X0071772Y0045394D03*
X0071772Y0059568D03*
X0064686Y0059568D03*
X0056024Y0059568D03*
X0048938Y0059568D03*
X0040276Y0059568D03*
X0033190Y0059568D03*
X0024528Y0059568D03*
X0017442Y0059568D03*
D11*
X0017442Y0067835D03*
X0017442Y0071772D03*
X0033190Y0071772D03*
X0033190Y0067835D03*
X0048938Y0067835D03*
X0048938Y0071772D03*
X0064686Y0071772D03*
X0064686Y0067835D03*
X0071772Y0037914D03*
X0071772Y0033977D03*
X0056024Y0033977D03*
X0056024Y0037914D03*
X0040276Y0037914D03*
X0040276Y0033977D03*
X0024528Y0033977D03*
X0024528Y0037914D03*
D12*
X0023907Y0026365D02*
X0023907Y0024498D01*
X0072394Y0024498D01*
X0072394Y0026365D01*
X0073498Y0029030D01*
X0075538Y0031071D01*
X0078204Y0032175D01*
X0080465Y0032175D01*
X0080465Y0072787D01*
X0078204Y0072787D01*
X0075538Y0073892D01*
X0073498Y0075932D01*
X0072394Y0078597D01*
X0072394Y0080858D01*
X0023907Y0080858D01*
X0023907Y0078597D01*
X0022803Y0075932D01*
X0020763Y0073892D01*
X0019625Y0073421D01*
X0019720Y0073326D01*
X0019720Y0073272D01*
X0030912Y0073272D01*
X0030912Y0073326D01*
X0031439Y0073854D01*
X0034941Y0073854D01*
X0035468Y0073326D01*
X0035468Y0073272D01*
X0046660Y0073272D01*
X0046660Y0073326D01*
X0047187Y0073854D01*
X0050689Y0073854D01*
X0051216Y0073326D01*
X0051216Y0073272D01*
X0059414Y0073272D01*
X0058360Y0074326D01*
X0058360Y0076305D01*
X0059759Y0077705D01*
X0061738Y0077705D01*
X0063138Y0076305D01*
X0063138Y0075772D01*
X0064843Y0073854D01*
X0066437Y0073854D01*
X0066964Y0073326D01*
X0066964Y0070219D01*
X0066549Y0069804D01*
X0066964Y0069389D01*
X0066964Y0066282D01*
X0066437Y0065754D01*
X0066086Y0065754D01*
X0066086Y0062830D01*
X0066240Y0062830D01*
X0066767Y0062303D01*
X0066767Y0056833D01*
X0066240Y0056306D01*
X0066086Y0056306D01*
X0066086Y0055641D01*
X0067075Y0054652D01*
X0067075Y0052673D01*
X0065675Y0051273D01*
X0063696Y0051273D01*
X0062297Y0052673D01*
X0062297Y0054652D01*
X0063286Y0055641D01*
X0063286Y0056306D01*
X0063132Y0056306D01*
X0062605Y0056833D01*
X0062605Y0062303D01*
X0063132Y0062830D01*
X0063286Y0062830D01*
X0063286Y0065754D01*
X0062935Y0065754D01*
X0062408Y0066282D01*
X0062408Y0069389D01*
X0062822Y0069804D01*
X0062408Y0070219D01*
X0062408Y0070272D01*
X0051216Y0070272D01*
X0051216Y0070219D01*
X0050801Y0069804D01*
X0051216Y0069389D01*
X0051216Y0066282D01*
X0050689Y0065754D01*
X0050338Y0065754D01*
X0050338Y0062830D01*
X0050492Y0062830D01*
X0051019Y0062303D01*
X0051019Y0056833D01*
X0050492Y0056306D01*
X0050338Y0056306D01*
X0050338Y0055641D01*
X0051327Y0054652D01*
X0051327Y0052673D01*
X0049927Y0051273D01*
X0047948Y0051273D01*
X0046549Y0052673D01*
X0046549Y0054652D01*
X0047538Y0055641D01*
X0047538Y0056306D01*
X0047384Y0056306D01*
X0046857Y0056833D01*
X0046857Y0062303D01*
X0047384Y0062830D01*
X0047538Y0062830D01*
X0047538Y0065754D01*
X0047187Y0065754D01*
X0046660Y0066282D01*
X0046660Y0069389D01*
X0047074Y0069804D01*
X0046660Y0070219D01*
X0046660Y0070272D01*
X0035468Y0070272D01*
X0035468Y0070219D01*
X0035053Y0069804D01*
X0035468Y0069389D01*
X0035468Y0066282D01*
X0034941Y0065754D01*
X0034590Y0065754D01*
X0034590Y0062830D01*
X0034744Y0062830D01*
X0035271Y0062303D01*
X0035271Y0056833D01*
X0034744Y0056306D01*
X0034590Y0056306D01*
X0034590Y0055641D01*
X0035579Y0054652D01*
X0035579Y0052673D01*
X0034179Y0051273D01*
X0032200Y0051273D01*
X0030801Y0052673D01*
X0030801Y0054652D01*
X0031790Y0055641D01*
X0031790Y0056306D01*
X0031636Y0056306D01*
X0031109Y0056833D01*
X0031109Y0062303D01*
X0031636Y0062830D01*
X0031790Y0062830D01*
X0031790Y0065754D01*
X0031439Y0065754D01*
X0030912Y0066282D01*
X0030912Y0069389D01*
X0031326Y0069804D01*
X0030912Y0070219D01*
X0030912Y0070272D01*
X0019720Y0070272D01*
X0019720Y0070219D01*
X0019305Y0069804D01*
X0019720Y0069389D01*
X0019720Y0066282D01*
X0019192Y0065754D01*
X0018842Y0065754D01*
X0018842Y0062830D01*
X0018996Y0062830D01*
X0019523Y0062303D01*
X0019523Y0056833D01*
X0018996Y0056306D01*
X0018842Y0056306D01*
X0018842Y0055247D01*
X0019831Y0054258D01*
X0019831Y0052279D01*
X0018431Y0050880D01*
X0016452Y0050880D01*
X0016230Y0051102D01*
X0016230Y0049057D01*
X0017151Y0049057D01*
X0017151Y0045685D01*
X0017732Y0045685D01*
X0017732Y0049057D01*
X0018794Y0049057D01*
X0019091Y0048977D01*
X0019091Y0050740D01*
X0021352Y0053001D01*
X0021352Y0054258D01*
X0022751Y0055657D01*
X0024730Y0055657D01*
X0026130Y0054258D01*
X0026130Y0052279D01*
X0024730Y0050880D01*
X0023473Y0050880D01*
X0022091Y0049498D01*
X0022091Y0036567D01*
X0022250Y0036408D01*
X0022250Y0039468D01*
X0022778Y0039995D01*
X0023128Y0039995D01*
X0023128Y0042132D01*
X0022974Y0042132D01*
X0022447Y0042659D01*
X0022447Y0048129D01*
X0022974Y0048657D01*
X0026082Y0048657D01*
X0026609Y0048129D01*
X0026609Y0042659D01*
X0026082Y0042132D01*
X0025928Y0042132D01*
X0025928Y0039995D01*
X0026279Y0039995D01*
X0026806Y0039468D01*
X0026806Y0036360D01*
X0026392Y0035946D01*
X0026806Y0035531D01*
X0026806Y0035477D01*
X0037998Y0035477D01*
X0037998Y0035531D01*
X0038413Y0035946D01*
X0037998Y0036360D01*
X0037998Y0039468D01*
X0038526Y0039995D01*
X0038876Y0039995D01*
X0038876Y0042132D01*
X0038722Y0042132D01*
X0038195Y0042659D01*
X0038195Y0048129D01*
X0038722Y0048657D01*
X0041830Y0048657D01*
X0042357Y0048129D01*
X0042357Y0042659D01*
X0041830Y0042132D01*
X0041676Y0042132D01*
X0041676Y0039995D01*
X0042027Y0039995D01*
X0042554Y0039468D01*
X0042554Y0036360D01*
X0042140Y0035946D01*
X0042554Y0035531D01*
X0042554Y0035477D01*
X0053746Y0035477D01*
X0053746Y0035531D01*
X0054161Y0035946D01*
X0053746Y0036360D01*
X0053746Y0039468D01*
X0054274Y0039995D01*
X0054624Y0039995D01*
X0054624Y0042132D01*
X0054471Y0042132D01*
X0053943Y0042659D01*
X0053943Y0048129D01*
X0054471Y0048657D01*
X0057578Y0048657D01*
X0058105Y0048129D01*
X0058105Y0042659D01*
X0057578Y0042132D01*
X0057424Y0042132D01*
X0057424Y0039995D01*
X0057775Y0039995D01*
X0058302Y0039468D01*
X0058302Y0036360D01*
X0057888Y0035946D01*
X0058302Y0035531D01*
X0058302Y0035477D01*
X0069494Y0035477D01*
X0069494Y0035531D01*
X0069909Y0035946D01*
X0069494Y0036360D01*
X0069494Y0039468D01*
X0070022Y0039995D01*
X0070372Y0039995D01*
X0070372Y0042132D01*
X0070219Y0042132D01*
X0069691Y0042659D01*
X0069691Y0048129D01*
X0070219Y0048657D01*
X0073326Y0048657D01*
X0073854Y0048129D01*
X0073854Y0042659D01*
X0073326Y0042132D01*
X0073172Y0042132D01*
X0073172Y0039995D01*
X0073523Y0039995D01*
X0074050Y0039468D01*
X0074050Y0036360D01*
X0073636Y0035946D01*
X0074050Y0035531D01*
X0074050Y0032423D01*
X0073523Y0031896D01*
X0070022Y0031896D01*
X0069494Y0032423D01*
X0069494Y0032477D01*
X0058302Y0032477D01*
X0058302Y0032423D01*
X0057775Y0031896D01*
X0054274Y0031896D01*
X0053746Y0032423D01*
X0053746Y0032477D01*
X0042554Y0032477D01*
X0042554Y0032423D01*
X0042027Y0031896D01*
X0038526Y0031896D01*
X0037998Y0032423D01*
X0037998Y0032477D01*
X0026806Y0032477D01*
X0026806Y0032423D01*
X0026279Y0031896D01*
X0022778Y0031896D01*
X0022250Y0032423D01*
X0022250Y0032477D01*
X0021939Y0032477D01*
X0019970Y0034446D01*
X0019091Y0035324D01*
X0019091Y0041812D01*
X0018794Y0041732D01*
X0017732Y0041732D01*
X0017732Y0045104D01*
X0017151Y0045104D01*
X0017151Y0041732D01*
X0016230Y0041732D01*
X0016230Y0032175D01*
X0018097Y0032175D01*
X0020763Y0031071D01*
X0022803Y0029030D01*
X0023907Y0026365D01*
X0023877Y0026437D02*
X0072424Y0026437D01*
X0072394Y0025839D02*
X0023907Y0025839D01*
X0023907Y0025240D02*
X0072394Y0025240D01*
X0072394Y0024642D02*
X0023907Y0024642D01*
X0023629Y0027036D02*
X0072672Y0027036D01*
X0072920Y0027634D02*
X0023381Y0027634D01*
X0023133Y0028233D02*
X0073168Y0028233D01*
X0073415Y0028832D02*
X0022885Y0028832D01*
X0022403Y0029430D02*
X0073897Y0029430D01*
X0074496Y0030029D02*
X0021805Y0030029D01*
X0021206Y0030627D02*
X0075095Y0030627D01*
X0075912Y0031226D02*
X0020389Y0031226D01*
X0018944Y0031824D02*
X0077357Y0031824D01*
X0080465Y0032423D02*
X0074050Y0032423D01*
X0074050Y0033021D02*
X0080465Y0033021D01*
X0080465Y0033620D02*
X0074050Y0033620D01*
X0074050Y0034218D02*
X0080465Y0034218D01*
X0080465Y0034817D02*
X0074050Y0034817D01*
X0074050Y0035415D02*
X0080465Y0035415D01*
X0080465Y0036014D02*
X0073704Y0036014D01*
X0074050Y0036612D02*
X0080465Y0036612D01*
X0080465Y0037211D02*
X0074050Y0037211D01*
X0074050Y0037809D02*
X0080465Y0037809D01*
X0080465Y0038408D02*
X0074050Y0038408D01*
X0074050Y0039006D02*
X0080465Y0039006D01*
X0080465Y0039605D02*
X0073914Y0039605D01*
X0073172Y0040203D02*
X0080465Y0040203D01*
X0080465Y0040802D02*
X0073172Y0040802D01*
X0073172Y0041400D02*
X0080465Y0041400D01*
X0080465Y0041999D02*
X0073172Y0041999D01*
X0073791Y0042597D02*
X0080465Y0042597D01*
X0080465Y0043196D02*
X0073854Y0043196D01*
X0073854Y0043794D02*
X0080465Y0043794D01*
X0080465Y0044393D02*
X0073854Y0044393D01*
X0073854Y0044991D02*
X0080465Y0044991D01*
X0080465Y0045590D02*
X0073854Y0045590D01*
X0073854Y0046188D02*
X0080465Y0046188D01*
X0080465Y0046787D02*
X0073854Y0046787D01*
X0073854Y0047385D02*
X0080465Y0047385D01*
X0080465Y0047984D02*
X0073854Y0047984D01*
X0073401Y0048582D02*
X0080465Y0048582D01*
X0080465Y0049181D02*
X0022091Y0049181D01*
X0022091Y0048582D02*
X0022900Y0048582D01*
X0022447Y0047984D02*
X0022091Y0047984D01*
X0022091Y0047385D02*
X0022447Y0047385D01*
X0022447Y0046787D02*
X0022091Y0046787D01*
X0022091Y0046188D02*
X0022447Y0046188D01*
X0022447Y0045590D02*
X0022091Y0045590D01*
X0022091Y0044991D02*
X0022447Y0044991D01*
X0022447Y0044393D02*
X0022091Y0044393D01*
X0022091Y0043794D02*
X0022447Y0043794D01*
X0022447Y0043196D02*
X0022091Y0043196D01*
X0022091Y0042597D02*
X0022509Y0042597D01*
X0022091Y0041999D02*
X0023128Y0041999D01*
X0023128Y0041400D02*
X0022091Y0041400D01*
X0022091Y0040802D02*
X0023128Y0040802D01*
X0023128Y0040203D02*
X0022091Y0040203D01*
X0022091Y0039605D02*
X0022387Y0039605D01*
X0022250Y0039006D02*
X0022091Y0039006D01*
X0022091Y0038408D02*
X0022250Y0038408D01*
X0022250Y0037809D02*
X0022091Y0037809D01*
X0022091Y0037211D02*
X0022250Y0037211D01*
X0022250Y0036612D02*
X0022091Y0036612D01*
X0020198Y0034218D02*
X0016230Y0034218D01*
X0016230Y0033620D02*
X0020796Y0033620D01*
X0021395Y0033021D02*
X0016230Y0033021D01*
X0016230Y0032423D02*
X0022251Y0032423D01*
X0019599Y0034817D02*
X0016230Y0034817D01*
X0016230Y0035415D02*
X0019091Y0035415D01*
X0019091Y0036014D02*
X0016230Y0036014D01*
X0016230Y0036612D02*
X0019091Y0036612D01*
X0019091Y0037211D02*
X0016230Y0037211D01*
X0016230Y0037809D02*
X0019091Y0037809D01*
X0019091Y0038408D02*
X0016230Y0038408D01*
X0016230Y0039006D02*
X0019091Y0039006D01*
X0019091Y0039605D02*
X0016230Y0039605D01*
X0016230Y0040203D02*
X0019091Y0040203D01*
X0019091Y0040802D02*
X0016230Y0040802D01*
X0016230Y0041400D02*
X0019091Y0041400D01*
X0017732Y0041999D02*
X0017151Y0041999D01*
X0017151Y0042597D02*
X0017732Y0042597D01*
X0017732Y0043196D02*
X0017151Y0043196D01*
X0017151Y0043794D02*
X0017732Y0043794D01*
X0017732Y0044393D02*
X0017151Y0044393D01*
X0017151Y0044991D02*
X0017732Y0044991D01*
X0017732Y0046188D02*
X0017151Y0046188D01*
X0017151Y0046787D02*
X0017732Y0046787D01*
X0017732Y0047385D02*
X0017151Y0047385D01*
X0017151Y0047984D02*
X0017732Y0047984D01*
X0017732Y0048582D02*
X0017151Y0048582D01*
X0016230Y0049181D02*
X0019091Y0049181D01*
X0019091Y0049779D02*
X0016230Y0049779D01*
X0016230Y0050378D02*
X0019091Y0050378D01*
X0019328Y0050976D02*
X0018528Y0050976D01*
X0019127Y0051575D02*
X0019926Y0051575D01*
X0019725Y0052173D02*
X0020525Y0052173D01*
X0021123Y0052772D02*
X0019831Y0052772D01*
X0019831Y0053370D02*
X0021352Y0053370D01*
X0021352Y0053969D02*
X0019831Y0053969D01*
X0019521Y0054568D02*
X0021661Y0054568D01*
X0022260Y0055166D02*
X0018923Y0055166D01*
X0018842Y0055765D02*
X0031790Y0055765D01*
X0031578Y0056363D02*
X0026705Y0056363D01*
X0026750Y0056407D02*
X0026921Y0056704D01*
X0027009Y0057034D01*
X0027009Y0059277D01*
X0024819Y0059277D01*
X0024819Y0055906D01*
X0025881Y0055906D01*
X0026211Y0055994D01*
X0026508Y0056165D01*
X0026750Y0056407D01*
X0026990Y0056962D02*
X0031109Y0056962D01*
X0031109Y0057560D02*
X0027009Y0057560D01*
X0027009Y0058159D02*
X0031109Y0058159D01*
X0031109Y0058757D02*
X0027009Y0058757D01*
X0027009Y0059858D02*
X0027009Y0062101D01*
X0026921Y0062432D01*
X0026750Y0062728D01*
X0026508Y0062970D01*
X0026211Y0063141D01*
X0025881Y0063230D01*
X0024819Y0063230D01*
X0024819Y0059858D01*
X0027009Y0059858D01*
X0027009Y0059954D02*
X0031109Y0059954D01*
X0031109Y0059356D02*
X0024819Y0059356D01*
X0024819Y0059277D02*
X0024819Y0059858D01*
X0024238Y0059858D01*
X0024238Y0059277D01*
X0024819Y0059277D01*
X0024819Y0058757D02*
X0024238Y0058757D01*
X0024238Y0059277D02*
X0024238Y0055906D01*
X0023176Y0055906D01*
X0022845Y0055994D01*
X0022549Y0056165D01*
X0022307Y0056407D01*
X0022136Y0056704D01*
X0022047Y0057034D01*
X0022047Y0059277D01*
X0024238Y0059277D01*
X0024238Y0059356D02*
X0019523Y0059356D01*
X0019523Y0059954D02*
X0022047Y0059954D01*
X0022047Y0059858D02*
X0022047Y0062101D01*
X0022136Y0062432D01*
X0022307Y0062728D01*
X0022549Y0062970D01*
X0022845Y0063141D01*
X0023176Y0063230D01*
X0024238Y0063230D01*
X0024238Y0059858D01*
X0022047Y0059858D01*
X0022047Y0060553D02*
X0019523Y0060553D01*
X0019523Y0061151D02*
X0022047Y0061151D01*
X0022047Y0061750D02*
X0019523Y0061750D01*
X0019477Y0062348D02*
X0022113Y0062348D01*
X0022526Y0062947D02*
X0018842Y0062947D01*
X0018842Y0063545D02*
X0031790Y0063545D01*
X0031790Y0062947D02*
X0026531Y0062947D01*
X0026943Y0062348D02*
X0031154Y0062348D01*
X0031109Y0061750D02*
X0027009Y0061750D01*
X0027009Y0061151D02*
X0031109Y0061151D01*
X0031109Y0060553D02*
X0027009Y0060553D01*
X0024819Y0060553D02*
X0024238Y0060553D01*
X0024238Y0061151D02*
X0024819Y0061151D01*
X0024819Y0061750D02*
X0024238Y0061750D01*
X0024238Y0062348D02*
X0024819Y0062348D01*
X0024819Y0062947D02*
X0024238Y0062947D01*
X0024238Y0059954D02*
X0024819Y0059954D01*
X0024819Y0058159D02*
X0024238Y0058159D01*
X0024238Y0057560D02*
X0024819Y0057560D01*
X0024819Y0056962D02*
X0024238Y0056962D01*
X0024238Y0056363D02*
X0024819Y0056363D01*
X0025222Y0055166D02*
X0031315Y0055166D01*
X0030801Y0054568D02*
X0025820Y0054568D01*
X0026130Y0053969D02*
X0030801Y0053969D01*
X0030801Y0053370D02*
X0026130Y0053370D01*
X0026130Y0052772D02*
X0030801Y0052772D01*
X0031300Y0052173D02*
X0026024Y0052173D01*
X0025426Y0051575D02*
X0031898Y0051575D01*
X0031837Y0049057D02*
X0031507Y0048968D01*
X0031210Y0048797D01*
X0030968Y0048555D01*
X0030797Y0048258D01*
X0030709Y0047928D01*
X0030709Y0045685D01*
X0032899Y0045685D01*
X0032899Y0045104D01*
X0030709Y0045104D01*
X0030709Y0042861D01*
X0030797Y0042530D01*
X0030968Y0042234D01*
X0031210Y0041992D01*
X0031507Y0041821D01*
X0031837Y0041732D01*
X0032899Y0041732D01*
X0032899Y0045104D01*
X0033480Y0045104D01*
X0033480Y0041732D01*
X0034542Y0041732D01*
X0034873Y0041821D01*
X0035169Y0041992D01*
X0035411Y0042234D01*
X0035582Y0042530D01*
X0035671Y0042861D01*
X0035671Y0045104D01*
X0033480Y0045104D01*
X0033480Y0045685D01*
X0032899Y0045685D01*
X0032899Y0049057D01*
X0031837Y0049057D01*
X0030996Y0048582D02*
X0026157Y0048582D01*
X0026609Y0047984D02*
X0030724Y0047984D01*
X0030709Y0047385D02*
X0026609Y0047385D01*
X0026609Y0046787D02*
X0030709Y0046787D01*
X0030709Y0046188D02*
X0026609Y0046188D01*
X0026609Y0045590D02*
X0032899Y0045590D01*
X0033480Y0045590D02*
X0038195Y0045590D01*
X0038195Y0046188D02*
X0035671Y0046188D01*
X0035671Y0045685D02*
X0035671Y0047928D01*
X0035582Y0048258D01*
X0035411Y0048555D01*
X0035169Y0048797D01*
X0034873Y0048968D01*
X0034542Y0049057D01*
X0033480Y0049057D01*
X0033480Y0045685D01*
X0035671Y0045685D01*
X0035671Y0044991D02*
X0038195Y0044991D01*
X0038195Y0044393D02*
X0035671Y0044393D01*
X0035671Y0043794D02*
X0038195Y0043794D01*
X0038195Y0043196D02*
X0035671Y0043196D01*
X0035600Y0042597D02*
X0038257Y0042597D01*
X0038876Y0041999D02*
X0035176Y0041999D01*
X0033480Y0041999D02*
X0032899Y0041999D01*
X0032899Y0042597D02*
X0033480Y0042597D01*
X0033480Y0043196D02*
X0032899Y0043196D01*
X0032899Y0043794D02*
X0033480Y0043794D01*
X0033480Y0044393D02*
X0032899Y0044393D01*
X0032899Y0044991D02*
X0033480Y0044991D01*
X0033480Y0046188D02*
X0032899Y0046188D01*
X0032899Y0046787D02*
X0033480Y0046787D01*
X0033480Y0047385D02*
X0032899Y0047385D01*
X0032899Y0047984D02*
X0033480Y0047984D01*
X0033480Y0048582D02*
X0032899Y0048582D01*
X0034481Y0051575D02*
X0047647Y0051575D01*
X0047048Y0052173D02*
X0035080Y0052173D01*
X0035579Y0052772D02*
X0046549Y0052772D01*
X0046549Y0053370D02*
X0035579Y0053370D01*
X0035579Y0053969D02*
X0046549Y0053969D01*
X0046549Y0054568D02*
X0035579Y0054568D01*
X0035064Y0055166D02*
X0047063Y0055166D01*
X0047538Y0055765D02*
X0034590Y0055765D01*
X0034801Y0056363D02*
X0038099Y0056363D01*
X0038055Y0056407D02*
X0038297Y0056165D01*
X0038593Y0055994D01*
X0038924Y0055906D01*
X0039986Y0055906D01*
X0039986Y0059277D01*
X0040567Y0059277D01*
X0040567Y0055906D01*
X0041629Y0055906D01*
X0041959Y0055994D01*
X0042256Y0056165D01*
X0042498Y0056407D01*
X0042669Y0056704D01*
X0042757Y0057034D01*
X0042757Y0059277D01*
X0040567Y0059277D01*
X0040567Y0059858D01*
X0042757Y0059858D01*
X0042757Y0062101D01*
X0042669Y0062432D01*
X0042498Y0062728D01*
X0042256Y0062970D01*
X0041959Y0063141D01*
X0041629Y0063230D01*
X0040567Y0063230D01*
X0040567Y0059858D01*
X0039986Y0059858D01*
X0039986Y0059277D01*
X0037795Y0059277D01*
X0037795Y0057034D01*
X0037884Y0056704D01*
X0038055Y0056407D01*
X0037815Y0056962D02*
X0035271Y0056962D01*
X0035271Y0057560D02*
X0037795Y0057560D01*
X0037795Y0058159D02*
X0035271Y0058159D01*
X0035271Y0058757D02*
X0037795Y0058757D01*
X0037795Y0059858D02*
X0037795Y0062101D01*
X0037884Y0062432D01*
X0038055Y0062728D01*
X0038297Y0062970D01*
X0038593Y0063141D01*
X0038924Y0063230D01*
X0039986Y0063230D01*
X0039986Y0059858D01*
X0037795Y0059858D01*
X0037795Y0059954D02*
X0035271Y0059954D01*
X0035271Y0059356D02*
X0039986Y0059356D01*
X0040567Y0059356D02*
X0046857Y0059356D01*
X0046857Y0059954D02*
X0042757Y0059954D01*
X0042757Y0060553D02*
X0046857Y0060553D01*
X0046857Y0061151D02*
X0042757Y0061151D01*
X0042757Y0061750D02*
X0046857Y0061750D01*
X0046902Y0062348D02*
X0042691Y0062348D01*
X0042279Y0062947D02*
X0047538Y0062947D01*
X0047538Y0063545D02*
X0034590Y0063545D01*
X0034590Y0062947D02*
X0038274Y0062947D01*
X0037861Y0062348D02*
X0035225Y0062348D01*
X0035271Y0061750D02*
X0037795Y0061750D01*
X0037795Y0061151D02*
X0035271Y0061151D01*
X0035271Y0060553D02*
X0037795Y0060553D01*
X0039986Y0060553D02*
X0040567Y0060553D01*
X0040567Y0061151D02*
X0039986Y0061151D01*
X0039986Y0061750D02*
X0040567Y0061750D01*
X0040567Y0062348D02*
X0039986Y0062348D01*
X0039986Y0062947D02*
X0040567Y0062947D01*
X0040567Y0059954D02*
X0039986Y0059954D01*
X0039986Y0058757D02*
X0040567Y0058757D01*
X0040567Y0058159D02*
X0039986Y0058159D01*
X0039986Y0057560D02*
X0040567Y0057560D01*
X0040567Y0056962D02*
X0039986Y0056962D01*
X0039986Y0056363D02*
X0040567Y0056363D01*
X0042453Y0056363D02*
X0047326Y0056363D01*
X0046857Y0056962D02*
X0042738Y0056962D01*
X0042757Y0057560D02*
X0046857Y0057560D01*
X0046857Y0058159D02*
X0042757Y0058159D01*
X0042757Y0058757D02*
X0046857Y0058757D01*
X0050338Y0055765D02*
X0063286Y0055765D01*
X0063074Y0056363D02*
X0058202Y0056363D01*
X0058246Y0056407D02*
X0058417Y0056704D01*
X0058505Y0057034D01*
X0058505Y0059277D01*
X0056315Y0059277D01*
X0056315Y0055906D01*
X0057377Y0055906D01*
X0057707Y0055994D01*
X0058004Y0056165D01*
X0058246Y0056407D01*
X0058486Y0056962D02*
X0062605Y0056962D01*
X0062605Y0057560D02*
X0058505Y0057560D01*
X0058505Y0058159D02*
X0062605Y0058159D01*
X0062605Y0058757D02*
X0058505Y0058757D01*
X0058505Y0059858D02*
X0058505Y0062101D01*
X0058417Y0062432D01*
X0058246Y0062728D01*
X0058004Y0062970D01*
X0057707Y0063141D01*
X0057377Y0063230D01*
X0056315Y0063230D01*
X0056315Y0059858D01*
X0058505Y0059858D01*
X0058505Y0059954D02*
X0062605Y0059954D01*
X0062605Y0059356D02*
X0056315Y0059356D01*
X0056315Y0059277D02*
X0056315Y0059858D01*
X0055734Y0059858D01*
X0055734Y0059277D01*
X0056315Y0059277D01*
X0056315Y0058757D02*
X0055734Y0058757D01*
X0055734Y0059277D02*
X0055734Y0055906D01*
X0054672Y0055906D01*
X0054342Y0055994D01*
X0054045Y0056165D01*
X0053803Y0056407D01*
X0053632Y0056704D01*
X0053543Y0057034D01*
X0053543Y0059277D01*
X0055734Y0059277D01*
X0055734Y0059356D02*
X0051019Y0059356D01*
X0051019Y0059954D02*
X0053543Y0059954D01*
X0053543Y0059858D02*
X0053543Y0062101D01*
X0053632Y0062432D01*
X0053803Y0062728D01*
X0054045Y0062970D01*
X0054342Y0063141D01*
X0054672Y0063230D01*
X0055734Y0063230D01*
X0055734Y0059858D01*
X0053543Y0059858D01*
X0053543Y0060553D02*
X0051019Y0060553D01*
X0051019Y0061151D02*
X0053543Y0061151D01*
X0053543Y0061750D02*
X0051019Y0061750D01*
X0050973Y0062348D02*
X0053610Y0062348D01*
X0054022Y0062947D02*
X0050338Y0062947D01*
X0050338Y0063545D02*
X0063286Y0063545D01*
X0063286Y0062947D02*
X0058027Y0062947D01*
X0058439Y0062348D02*
X0062650Y0062348D01*
X0062605Y0061750D02*
X0058505Y0061750D01*
X0058505Y0061151D02*
X0062605Y0061151D01*
X0062605Y0060553D02*
X0058505Y0060553D01*
X0056315Y0060553D02*
X0055734Y0060553D01*
X0055734Y0061151D02*
X0056315Y0061151D01*
X0056315Y0061750D02*
X0055734Y0061750D01*
X0055734Y0062348D02*
X0056315Y0062348D01*
X0056315Y0062947D02*
X0055734Y0062947D01*
X0055734Y0059954D02*
X0056315Y0059954D01*
X0056315Y0058159D02*
X0055734Y0058159D01*
X0055734Y0057560D02*
X0056315Y0057560D01*
X0056315Y0056962D02*
X0055734Y0056962D01*
X0055734Y0056363D02*
X0056315Y0056363D01*
X0053847Y0056363D02*
X0050549Y0056363D01*
X0051019Y0056962D02*
X0053563Y0056962D01*
X0053543Y0057560D02*
X0051019Y0057560D01*
X0051019Y0058159D02*
X0053543Y0058159D01*
X0053543Y0058757D02*
X0051019Y0058757D01*
X0050812Y0055166D02*
X0062811Y0055166D01*
X0062297Y0054568D02*
X0051327Y0054568D01*
X0051327Y0053969D02*
X0062297Y0053969D01*
X0062297Y0053370D02*
X0051327Y0053370D01*
X0051327Y0052772D02*
X0062297Y0052772D01*
X0062796Y0052173D02*
X0050828Y0052173D01*
X0050229Y0051575D02*
X0063395Y0051575D01*
X0063334Y0049057D02*
X0063003Y0048968D01*
X0062706Y0048797D01*
X0062464Y0048555D01*
X0062293Y0048258D01*
X0062205Y0047928D01*
X0062205Y0045685D01*
X0064395Y0045685D01*
X0064395Y0045104D01*
X0062205Y0045104D01*
X0062205Y0042861D01*
X0062293Y0042530D01*
X0062464Y0042234D01*
X0062706Y0041992D01*
X0063003Y0041821D01*
X0063334Y0041732D01*
X0064395Y0041732D01*
X0064395Y0045104D01*
X0064976Y0045104D01*
X0064976Y0041732D01*
X0066038Y0041732D01*
X0066369Y0041821D01*
X0066665Y0041992D01*
X0066907Y0042234D01*
X0067078Y0042530D01*
X0067167Y0042861D01*
X0067167Y0045104D01*
X0064976Y0045104D01*
X0064976Y0045685D01*
X0064395Y0045685D01*
X0064395Y0049057D01*
X0063334Y0049057D01*
X0062492Y0048582D02*
X0057653Y0048582D01*
X0058105Y0047984D02*
X0062220Y0047984D01*
X0062205Y0047385D02*
X0058105Y0047385D01*
X0058105Y0046787D02*
X0062205Y0046787D01*
X0062205Y0046188D02*
X0058105Y0046188D01*
X0058105Y0045590D02*
X0064395Y0045590D01*
X0064976Y0045590D02*
X0069691Y0045590D01*
X0069691Y0046188D02*
X0067167Y0046188D01*
X0067167Y0045685D02*
X0067167Y0047928D01*
X0067078Y0048258D01*
X0066907Y0048555D01*
X0066665Y0048797D01*
X0066369Y0048968D01*
X0066038Y0049057D01*
X0064976Y0049057D01*
X0064976Y0045685D01*
X0067167Y0045685D01*
X0067167Y0044991D02*
X0069691Y0044991D01*
X0069691Y0044393D02*
X0067167Y0044393D01*
X0067167Y0043794D02*
X0069691Y0043794D01*
X0069691Y0043196D02*
X0067167Y0043196D01*
X0067096Y0042597D02*
X0069754Y0042597D01*
X0070372Y0041999D02*
X0066672Y0041999D01*
X0064976Y0041999D02*
X0064395Y0041999D01*
X0064395Y0042597D02*
X0064976Y0042597D01*
X0064976Y0043196D02*
X0064395Y0043196D01*
X0064395Y0043794D02*
X0064976Y0043794D01*
X0064976Y0044393D02*
X0064395Y0044393D01*
X0064395Y0044991D02*
X0064976Y0044991D01*
X0064976Y0046188D02*
X0064395Y0046188D01*
X0064395Y0046787D02*
X0064976Y0046787D01*
X0064976Y0047385D02*
X0064395Y0047385D01*
X0064395Y0047984D02*
X0064976Y0047984D01*
X0064976Y0048582D02*
X0064395Y0048582D01*
X0066880Y0048582D02*
X0070144Y0048582D01*
X0069691Y0047984D02*
X0067152Y0047984D01*
X0067167Y0047385D02*
X0069691Y0047385D01*
X0069691Y0046787D02*
X0067167Y0046787D01*
X0065977Y0051575D02*
X0080465Y0051575D01*
X0080465Y0052173D02*
X0066576Y0052173D01*
X0067075Y0052772D02*
X0080465Y0052772D01*
X0080465Y0053370D02*
X0067075Y0053370D01*
X0067075Y0053969D02*
X0080465Y0053969D01*
X0080465Y0054568D02*
X0067075Y0054568D01*
X0066561Y0055166D02*
X0080465Y0055166D01*
X0080465Y0055765D02*
X0066086Y0055765D01*
X0066297Y0056363D02*
X0069595Y0056363D01*
X0069551Y0056407D02*
X0069793Y0056165D01*
X0070090Y0055994D01*
X0070420Y0055906D01*
X0071482Y0055906D01*
X0071482Y0059277D01*
X0072063Y0059277D01*
X0072063Y0055906D01*
X0073125Y0055906D01*
X0073455Y0055994D01*
X0073752Y0056165D01*
X0073994Y0056407D01*
X0074165Y0056704D01*
X0074254Y0057034D01*
X0074254Y0059277D01*
X0072063Y0059277D01*
X0072063Y0059858D01*
X0074254Y0059858D01*
X0074254Y0062101D01*
X0074165Y0062432D01*
X0073994Y0062728D01*
X0073752Y0062970D01*
X0073455Y0063141D01*
X0073125Y0063230D01*
X0072063Y0063230D01*
X0072063Y0059858D01*
X0071482Y0059858D01*
X0071482Y0059277D01*
X0069291Y0059277D01*
X0069291Y0057034D01*
X0069380Y0056704D01*
X0069551Y0056407D01*
X0069311Y0056962D02*
X0066767Y0056962D01*
X0066767Y0057560D02*
X0069291Y0057560D01*
X0069291Y0058159D02*
X0066767Y0058159D01*
X0066767Y0058757D02*
X0069291Y0058757D01*
X0069291Y0059858D02*
X0069291Y0062101D01*
X0069380Y0062432D01*
X0069551Y0062728D01*
X0069793Y0062970D01*
X0070090Y0063141D01*
X0070420Y0063230D01*
X0071482Y0063230D01*
X0071482Y0059858D01*
X0069291Y0059858D01*
X0069291Y0059954D02*
X0066767Y0059954D01*
X0066767Y0059356D02*
X0071482Y0059356D01*
X0072063Y0059356D02*
X0080465Y0059356D01*
X0080465Y0059954D02*
X0074254Y0059954D01*
X0074254Y0060553D02*
X0080465Y0060553D01*
X0080465Y0061151D02*
X0074254Y0061151D01*
X0074254Y0061750D02*
X0080465Y0061750D01*
X0080465Y0062348D02*
X0074187Y0062348D01*
X0073775Y0062947D02*
X0080465Y0062947D01*
X0080465Y0063545D02*
X0066086Y0063545D01*
X0066086Y0062947D02*
X0069770Y0062947D01*
X0069358Y0062348D02*
X0066721Y0062348D01*
X0066767Y0061750D02*
X0069291Y0061750D01*
X0069291Y0061151D02*
X0066767Y0061151D01*
X0066767Y0060553D02*
X0069291Y0060553D01*
X0071482Y0060553D02*
X0072063Y0060553D01*
X0072063Y0061151D02*
X0071482Y0061151D01*
X0071482Y0061750D02*
X0072063Y0061750D01*
X0072063Y0062348D02*
X0071482Y0062348D01*
X0071482Y0062947D02*
X0072063Y0062947D01*
X0072063Y0059954D02*
X0071482Y0059954D01*
X0071482Y0058757D02*
X0072063Y0058757D01*
X0072063Y0058159D02*
X0071482Y0058159D01*
X0071482Y0057560D02*
X0072063Y0057560D01*
X0072063Y0056962D02*
X0071482Y0056962D01*
X0071482Y0056363D02*
X0072063Y0056363D01*
X0073950Y0056363D02*
X0080465Y0056363D01*
X0080465Y0056962D02*
X0074234Y0056962D01*
X0074254Y0057560D02*
X0080465Y0057560D01*
X0080465Y0058159D02*
X0074254Y0058159D01*
X0074254Y0058757D02*
X0080465Y0058757D01*
X0080465Y0064144D02*
X0066086Y0064144D01*
X0066086Y0064742D02*
X0080465Y0064742D01*
X0080465Y0065341D02*
X0066086Y0065341D01*
X0066621Y0065939D02*
X0080465Y0065939D01*
X0080465Y0066538D02*
X0066964Y0066538D01*
X0066964Y0067136D02*
X0080465Y0067136D01*
X0080465Y0067735D02*
X0066964Y0067735D01*
X0066964Y0068333D02*
X0080465Y0068333D01*
X0080465Y0068932D02*
X0066964Y0068932D01*
X0066823Y0069530D02*
X0080465Y0069530D01*
X0080465Y0070129D02*
X0066874Y0070129D01*
X0066964Y0070727D02*
X0080465Y0070727D01*
X0080465Y0071326D02*
X0066964Y0071326D01*
X0066964Y0071924D02*
X0080465Y0071924D01*
X0080465Y0072523D02*
X0066964Y0072523D01*
X0066964Y0073121D02*
X0077398Y0073121D01*
X0075953Y0073720D02*
X0066570Y0073720D01*
X0064430Y0074318D02*
X0075111Y0074318D01*
X0074513Y0074917D02*
X0063898Y0074917D01*
X0063366Y0075515D02*
X0073914Y0075515D01*
X0073422Y0076114D02*
X0063138Y0076114D01*
X0062731Y0076712D02*
X0073175Y0076712D01*
X0072927Y0077311D02*
X0062132Y0077311D01*
X0059365Y0077311D02*
X0023374Y0077311D01*
X0023126Y0076712D02*
X0058767Y0076712D01*
X0058360Y0076114D02*
X0022878Y0076114D01*
X0022387Y0075515D02*
X0058360Y0075515D01*
X0058360Y0074917D02*
X0021788Y0074917D01*
X0021190Y0074318D02*
X0058368Y0074318D01*
X0058966Y0073720D02*
X0050822Y0073720D01*
X0051126Y0070129D02*
X0062498Y0070129D01*
X0062549Y0069530D02*
X0051075Y0069530D01*
X0051216Y0068932D02*
X0062408Y0068932D01*
X0062408Y0068333D02*
X0051216Y0068333D01*
X0051216Y0067735D02*
X0062408Y0067735D01*
X0062408Y0067136D02*
X0051216Y0067136D01*
X0051216Y0066538D02*
X0062408Y0066538D01*
X0062750Y0065939D02*
X0050873Y0065939D01*
X0050338Y0065341D02*
X0063286Y0065341D01*
X0063286Y0064742D02*
X0050338Y0064742D01*
X0050338Y0064144D02*
X0063286Y0064144D01*
X0072679Y0077909D02*
X0023622Y0077909D01*
X0023870Y0078508D02*
X0072431Y0078508D01*
X0072394Y0079106D02*
X0023907Y0079106D01*
X0023907Y0079705D02*
X0072394Y0079705D01*
X0072394Y0080303D02*
X0023907Y0080303D01*
X0020348Y0073720D02*
X0031305Y0073720D01*
X0031002Y0070129D02*
X0019630Y0070129D01*
X0019579Y0069530D02*
X0031053Y0069530D01*
X0030912Y0068932D02*
X0019720Y0068932D01*
X0019720Y0068333D02*
X0030912Y0068333D01*
X0030912Y0067735D02*
X0019720Y0067735D01*
X0019720Y0067136D02*
X0030912Y0067136D01*
X0030912Y0066538D02*
X0019720Y0066538D01*
X0019377Y0065939D02*
X0031254Y0065939D01*
X0031790Y0065341D02*
X0018842Y0065341D01*
X0018842Y0064742D02*
X0031790Y0064742D01*
X0031790Y0064144D02*
X0018842Y0064144D01*
X0019523Y0058757D02*
X0022047Y0058757D01*
X0022047Y0058159D02*
X0019523Y0058159D01*
X0019523Y0057560D02*
X0022047Y0057560D01*
X0022067Y0056962D02*
X0019523Y0056962D01*
X0019053Y0056363D02*
X0022351Y0056363D01*
X0024827Y0050976D02*
X0080465Y0050976D01*
X0080465Y0050378D02*
X0022972Y0050378D01*
X0022373Y0049779D02*
X0080465Y0049779D01*
X0070372Y0041400D02*
X0057424Y0041400D01*
X0057424Y0040802D02*
X0070372Y0040802D01*
X0070372Y0040203D02*
X0057424Y0040203D01*
X0058166Y0039605D02*
X0069631Y0039605D01*
X0069494Y0039006D02*
X0058302Y0039006D01*
X0058302Y0038408D02*
X0069494Y0038408D01*
X0069494Y0037809D02*
X0058302Y0037809D01*
X0058302Y0037211D02*
X0069494Y0037211D01*
X0069494Y0036612D02*
X0058302Y0036612D01*
X0057956Y0036014D02*
X0069841Y0036014D01*
X0069495Y0032423D02*
X0058302Y0032423D01*
X0053747Y0032423D02*
X0042554Y0032423D01*
X0042208Y0036014D02*
X0054093Y0036014D01*
X0053746Y0036612D02*
X0042554Y0036612D01*
X0042554Y0037211D02*
X0053746Y0037211D01*
X0053746Y0037809D02*
X0042554Y0037809D01*
X0042554Y0038408D02*
X0053746Y0038408D01*
X0053746Y0039006D02*
X0042554Y0039006D01*
X0042418Y0039605D02*
X0053883Y0039605D01*
X0054624Y0040203D02*
X0041676Y0040203D01*
X0041676Y0040802D02*
X0054624Y0040802D01*
X0054624Y0041400D02*
X0041676Y0041400D01*
X0041676Y0041999D02*
X0046952Y0041999D01*
X0046958Y0041992D02*
X0047255Y0041821D01*
X0047586Y0041732D01*
X0048647Y0041732D01*
X0048647Y0045104D01*
X0046457Y0045104D01*
X0046457Y0042861D01*
X0046545Y0042530D01*
X0046716Y0042234D01*
X0046958Y0041992D01*
X0046527Y0042597D02*
X0042295Y0042597D01*
X0042357Y0043196D02*
X0046457Y0043196D01*
X0046457Y0043794D02*
X0042357Y0043794D01*
X0042357Y0044393D02*
X0046457Y0044393D01*
X0046457Y0044991D02*
X0042357Y0044991D01*
X0042357Y0045590D02*
X0048647Y0045590D01*
X0048647Y0045685D02*
X0048647Y0045104D01*
X0049228Y0045104D01*
X0049228Y0041732D01*
X0050290Y0041732D01*
X0050621Y0041821D01*
X0050917Y0041992D01*
X0051159Y0042234D01*
X0051330Y0042530D01*
X0051419Y0042861D01*
X0051419Y0045104D01*
X0049228Y0045104D01*
X0049228Y0045685D01*
X0048647Y0045685D01*
X0046457Y0045685D01*
X0046457Y0047928D01*
X0046545Y0048258D01*
X0046716Y0048555D01*
X0046958Y0048797D01*
X0047255Y0048968D01*
X0047586Y0049057D01*
X0048647Y0049057D01*
X0048647Y0045685D01*
X0048647Y0046188D02*
X0049228Y0046188D01*
X0049228Y0045685D02*
X0049228Y0049057D01*
X0050290Y0049057D01*
X0050621Y0048968D01*
X0050917Y0048797D01*
X0051159Y0048555D01*
X0051330Y0048258D01*
X0051419Y0047928D01*
X0051419Y0045685D01*
X0049228Y0045685D01*
X0049228Y0045590D02*
X0053943Y0045590D01*
X0053943Y0046188D02*
X0051419Y0046188D01*
X0051419Y0046787D02*
X0053943Y0046787D01*
X0053943Y0047385D02*
X0051419Y0047385D01*
X0051404Y0047984D02*
X0053943Y0047984D01*
X0054396Y0048582D02*
X0051132Y0048582D01*
X0049228Y0048582D02*
X0048647Y0048582D01*
X0048647Y0047984D02*
X0049228Y0047984D01*
X0049228Y0047385D02*
X0048647Y0047385D01*
X0048647Y0046787D02*
X0049228Y0046787D01*
X0049228Y0044991D02*
X0048647Y0044991D01*
X0048647Y0044393D02*
X0049228Y0044393D01*
X0049228Y0043794D02*
X0048647Y0043794D01*
X0048647Y0043196D02*
X0049228Y0043196D01*
X0049228Y0042597D02*
X0048647Y0042597D01*
X0048647Y0041999D02*
X0049228Y0041999D01*
X0050924Y0041999D02*
X0054624Y0041999D01*
X0054006Y0042597D02*
X0051348Y0042597D01*
X0051419Y0043196D02*
X0053943Y0043196D01*
X0053943Y0043794D02*
X0051419Y0043794D01*
X0051419Y0044393D02*
X0053943Y0044393D01*
X0053943Y0044991D02*
X0051419Y0044991D01*
X0046457Y0046188D02*
X0042357Y0046188D01*
X0042357Y0046787D02*
X0046457Y0046787D01*
X0046457Y0047385D02*
X0042357Y0047385D01*
X0042357Y0047984D02*
X0046472Y0047984D01*
X0046744Y0048582D02*
X0041905Y0048582D01*
X0038648Y0048582D02*
X0035384Y0048582D01*
X0035656Y0047984D02*
X0038195Y0047984D01*
X0038195Y0047385D02*
X0035671Y0047385D01*
X0035671Y0046787D02*
X0038195Y0046787D01*
X0038876Y0041400D02*
X0025928Y0041400D01*
X0025928Y0040802D02*
X0038876Y0040802D01*
X0038876Y0040203D02*
X0025928Y0040203D01*
X0026670Y0039605D02*
X0038135Y0039605D01*
X0037998Y0039006D02*
X0026806Y0039006D01*
X0026806Y0038408D02*
X0037998Y0038408D01*
X0037998Y0037809D02*
X0026806Y0037809D01*
X0026806Y0037211D02*
X0037998Y0037211D01*
X0037998Y0036612D02*
X0026806Y0036612D01*
X0026460Y0036014D02*
X0038345Y0036014D01*
X0037999Y0032423D02*
X0026806Y0032423D01*
X0025928Y0041999D02*
X0031204Y0041999D01*
X0030779Y0042597D02*
X0026547Y0042597D01*
X0026609Y0043196D02*
X0030709Y0043196D01*
X0030709Y0043794D02*
X0026609Y0043794D01*
X0026609Y0044393D02*
X0030709Y0044393D01*
X0030709Y0044991D02*
X0026609Y0044991D01*
X0016355Y0050976D02*
X0016230Y0050976D01*
X0034590Y0064144D02*
X0047538Y0064144D01*
X0047538Y0064742D02*
X0034590Y0064742D01*
X0034590Y0065341D02*
X0047538Y0065341D01*
X0047002Y0065939D02*
X0035125Y0065939D01*
X0035468Y0066538D02*
X0046660Y0066538D01*
X0046660Y0067136D02*
X0035468Y0067136D01*
X0035468Y0067735D02*
X0046660Y0067735D01*
X0046660Y0068333D02*
X0035468Y0068333D01*
X0035468Y0068932D02*
X0046660Y0068932D01*
X0046801Y0069530D02*
X0035327Y0069530D01*
X0035378Y0070129D02*
X0046750Y0070129D01*
X0047053Y0073720D02*
X0035074Y0073720D01*
X0058105Y0044991D02*
X0062205Y0044991D01*
X0062205Y0044393D02*
X0058105Y0044393D01*
X0058105Y0043794D02*
X0062205Y0043794D01*
X0062205Y0043196D02*
X0058105Y0043196D01*
X0058043Y0042597D02*
X0062275Y0042597D01*
X0062700Y0041999D02*
X0057424Y0041999D01*
D13*
X0060355Y0040670D03*
X0063898Y0028072D03*
X0044607Y0040670D03*
X0040670Y0029646D03*
X0028465Y0041064D03*
X0023741Y0053269D03*
X0017442Y0053269D03*
X0024528Y0068229D03*
X0032009Y0077284D03*
X0040670Y0068229D03*
X0039883Y0053269D03*
X0033190Y0053662D03*
X0048938Y0053662D03*
X0055631Y0053662D03*
X0064686Y0053662D03*
X0055631Y0067835D03*
X0060749Y0075316D03*
X0070591Y0074135D03*
D14*
X0064686Y0071772D02*
X0061536Y0075316D01*
X0064686Y0071772D02*
X0048938Y0071772D01*
X0033190Y0071772D01*
X0017442Y0071772D01*
X0023741Y0053269D02*
X0020591Y0050119D01*
X0020591Y0035946D01*
X0022560Y0033977D01*
X0024528Y0033977D02*
X0040276Y0033977D01*
X0056024Y0033977D01*
X0071772Y0033977D01*
D15*
X0071772Y0037914D02*
X0071772Y0045394D01*
X0064686Y0053662D02*
X0064686Y0059568D01*
X0064686Y0067835D01*
X0061536Y0075316D02*
X0060749Y0075316D01*
X0048938Y0067835D02*
X0048938Y0059568D01*
X0048938Y0053662D01*
X0056024Y0045394D02*
X0056024Y0037914D01*
X0040276Y0037914D02*
X0040276Y0045394D01*
X0033190Y0053662D02*
X0033190Y0059568D01*
X0033190Y0067835D01*
X0017442Y0067835D02*
X0017442Y0059568D01*
X0017442Y0053269D01*
X0024528Y0045394D02*
X0024528Y0037914D01*
X0024528Y0033977D02*
X0022560Y0033977D01*
M02*
