G75*
%MOIN*%
%OFA0B0*%
%FSLAX25Y25*%
%IPPOS*%
%LPD*%
%AMOC8*
5,1,8,0,0,1.08239X$1,22.5*
%
%ADD10R,0.03937X0.02362*%
%ADD11R,0.07087X0.04921*%
%ADD12C,0.00600*%
%ADD13C,0.02978*%
%ADD14C,0.01200*%
%ADD15C,0.01000*%
D10*
X0071379Y0037717D03*
X0071379Y0043623D03*
X0071379Y0049528D03*
X0071379Y0055434D03*
X0071379Y0061339D03*
X0071379Y0067245D03*
D11*
X0050946Y0077501D03*
X0050946Y0027461D03*
D12*
X0023907Y0026365D02*
X0023907Y0024498D01*
X0046633Y0024498D01*
X0046502Y0024628D01*
X0046502Y0030295D01*
X0047030Y0030822D01*
X0054862Y0030822D01*
X0055389Y0030295D01*
X0055389Y0024628D01*
X0055259Y0024498D01*
X0072394Y0024498D01*
X0072394Y0026365D01*
X0073498Y0029030D01*
X0075538Y0031071D01*
X0078204Y0032175D01*
X0080465Y0032175D01*
X0080465Y0072787D01*
X0078204Y0072787D01*
X0075538Y0073892D01*
X0073498Y0075932D01*
X0072394Y0078597D01*
X0072394Y0080858D01*
X0054865Y0080858D01*
X0055389Y0080334D01*
X0055389Y0074667D01*
X0054862Y0074140D01*
X0047030Y0074140D01*
X0046502Y0074667D01*
X0046502Y0080334D01*
X0047026Y0080858D01*
X0023907Y0080858D01*
X0023907Y0078597D01*
X0022803Y0075932D01*
X0020763Y0073892D01*
X0018097Y0072787D01*
X0016230Y0072787D01*
X0016230Y0055435D01*
X0016452Y0055657D01*
X0018431Y0055657D01*
X0019831Y0054258D01*
X0019831Y0052279D01*
X0018842Y0051290D01*
X0018842Y0044400D01*
X0024321Y0038920D01*
X0068510Y0038920D01*
X0068510Y0039271D01*
X0069037Y0039798D01*
X0073720Y0039798D01*
X0074247Y0039271D01*
X0074247Y0036163D01*
X0073720Y0035636D01*
X0069037Y0035636D01*
X0068553Y0036120D01*
X0023161Y0036120D01*
X0022341Y0036941D01*
X0016230Y0043052D01*
X0016230Y0032175D01*
X0018097Y0032175D01*
X0020763Y0031071D01*
X0022803Y0029030D01*
X0023907Y0026365D01*
X0023877Y0026437D02*
X0046502Y0026437D01*
X0046502Y0025839D02*
X0023907Y0025839D01*
X0023907Y0025240D02*
X0046502Y0025240D01*
X0046502Y0024642D02*
X0023907Y0024642D01*
X0023629Y0027036D02*
X0046502Y0027036D01*
X0046502Y0027634D02*
X0023381Y0027634D01*
X0023133Y0028233D02*
X0046502Y0028233D01*
X0046502Y0028832D02*
X0022885Y0028832D01*
X0022403Y0029430D02*
X0046502Y0029430D01*
X0046502Y0030029D02*
X0021805Y0030029D01*
X0021206Y0030627D02*
X0046835Y0030627D01*
X0055057Y0030627D02*
X0075095Y0030627D01*
X0074496Y0030029D02*
X0055389Y0030029D01*
X0055389Y0029430D02*
X0073897Y0029430D01*
X0073415Y0028832D02*
X0055389Y0028832D01*
X0055389Y0028233D02*
X0073168Y0028233D01*
X0072920Y0027634D02*
X0055389Y0027634D01*
X0055389Y0027036D02*
X0072672Y0027036D01*
X0072424Y0026437D02*
X0055389Y0026437D01*
X0055389Y0025839D02*
X0072394Y0025839D01*
X0072394Y0025240D02*
X0055389Y0025240D01*
X0055389Y0024642D02*
X0072394Y0024642D01*
X0075912Y0031226D02*
X0020389Y0031226D01*
X0018944Y0031824D02*
X0077357Y0031824D01*
X0080465Y0032423D02*
X0016230Y0032423D01*
X0016230Y0033021D02*
X0080465Y0033021D01*
X0080465Y0033620D02*
X0016230Y0033620D01*
X0016230Y0034218D02*
X0080465Y0034218D01*
X0080465Y0034817D02*
X0016230Y0034817D01*
X0016230Y0035415D02*
X0080465Y0035415D01*
X0080465Y0036014D02*
X0074097Y0036014D01*
X0074247Y0036612D02*
X0080465Y0036612D01*
X0080465Y0037211D02*
X0074247Y0037211D01*
X0074247Y0037809D02*
X0080465Y0037809D01*
X0080465Y0038408D02*
X0074247Y0038408D01*
X0074247Y0039006D02*
X0080465Y0039006D01*
X0080465Y0039605D02*
X0073914Y0039605D01*
X0073720Y0041542D02*
X0074247Y0042069D01*
X0074247Y0045177D01*
X0073720Y0045704D01*
X0069037Y0045704D01*
X0068947Y0045613D01*
X0036132Y0045613D01*
X0034590Y0047155D01*
X0034590Y0051684D01*
X0035579Y0052673D01*
X0035579Y0054652D01*
X0034179Y0056051D01*
X0032200Y0056051D01*
X0030801Y0054652D01*
X0030801Y0052673D01*
X0031790Y0051684D01*
X0031790Y0045996D01*
X0034972Y0042813D01*
X0068510Y0042813D01*
X0068510Y0042069D01*
X0069037Y0041542D01*
X0073720Y0041542D01*
X0074177Y0041999D02*
X0080465Y0041999D01*
X0080465Y0042597D02*
X0074247Y0042597D01*
X0074247Y0043196D02*
X0080465Y0043196D01*
X0080465Y0043794D02*
X0074247Y0043794D01*
X0074247Y0044393D02*
X0080465Y0044393D01*
X0080465Y0044991D02*
X0074247Y0044991D01*
X0073834Y0045590D02*
X0080465Y0045590D01*
X0080465Y0046188D02*
X0035557Y0046188D01*
X0034958Y0046787D02*
X0080465Y0046787D01*
X0080465Y0047385D02*
X0034590Y0047385D01*
X0034590Y0047984D02*
X0068510Y0047984D01*
X0068510Y0047974D02*
X0069037Y0047447D01*
X0073720Y0047447D01*
X0074247Y0047974D01*
X0074247Y0051082D01*
X0073720Y0051609D01*
X0069037Y0051609D01*
X0068510Y0051082D01*
X0068510Y0050928D01*
X0053652Y0050928D01*
X0051327Y0053253D01*
X0051327Y0054652D01*
X0049927Y0056051D01*
X0047948Y0056051D01*
X0046549Y0054652D01*
X0046549Y0052673D01*
X0047948Y0051273D01*
X0049347Y0051273D01*
X0051672Y0048948D01*
X0052492Y0048128D01*
X0068510Y0048128D01*
X0068510Y0047974D01*
X0068510Y0050976D02*
X0053603Y0050976D01*
X0053005Y0051575D02*
X0063395Y0051575D01*
X0063696Y0051273D02*
X0065675Y0051273D01*
X0067075Y0052673D01*
X0067075Y0054034D01*
X0068510Y0054034D01*
X0068510Y0053880D01*
X0069037Y0053353D01*
X0073720Y0053353D01*
X0074247Y0053880D01*
X0074247Y0056988D01*
X0073720Y0057515D01*
X0069037Y0057515D01*
X0068510Y0056988D01*
X0068510Y0056834D01*
X0065878Y0056834D01*
X0065095Y0056051D01*
X0063696Y0056051D01*
X0062297Y0054652D01*
X0062297Y0052673D01*
X0063696Y0051273D01*
X0062796Y0052173D02*
X0052406Y0052173D01*
X0051808Y0052772D02*
X0062297Y0052772D01*
X0062297Y0053370D02*
X0051327Y0053370D01*
X0051327Y0053969D02*
X0062297Y0053969D01*
X0062297Y0054568D02*
X0051327Y0054568D01*
X0050812Y0055166D02*
X0062811Y0055166D01*
X0063410Y0055765D02*
X0050214Y0055765D01*
X0047662Y0055765D02*
X0034466Y0055765D01*
X0035064Y0055166D02*
X0047063Y0055166D01*
X0046549Y0054568D02*
X0035579Y0054568D01*
X0035579Y0053969D02*
X0046549Y0053969D01*
X0046549Y0053370D02*
X0035579Y0053370D01*
X0035579Y0052772D02*
X0046549Y0052772D01*
X0047048Y0052173D02*
X0035080Y0052173D01*
X0034590Y0051575D02*
X0047647Y0051575D01*
X0049644Y0050976D02*
X0034590Y0050976D01*
X0034590Y0050378D02*
X0050242Y0050378D01*
X0050841Y0049779D02*
X0034590Y0049779D01*
X0034590Y0049181D02*
X0051439Y0049181D01*
X0052038Y0048582D02*
X0034590Y0048582D01*
X0031790Y0048582D02*
X0018842Y0048582D01*
X0018842Y0047984D02*
X0031790Y0047984D01*
X0031790Y0047385D02*
X0018842Y0047385D01*
X0018842Y0046787D02*
X0031790Y0046787D01*
X0031790Y0046188D02*
X0018842Y0046188D01*
X0018842Y0045590D02*
X0032196Y0045590D01*
X0032794Y0044991D02*
X0018842Y0044991D01*
X0018848Y0044393D02*
X0033393Y0044393D01*
X0033991Y0043794D02*
X0019447Y0043794D01*
X0020046Y0043196D02*
X0034590Y0043196D01*
X0031790Y0049181D02*
X0018842Y0049181D01*
X0018842Y0049779D02*
X0031790Y0049779D01*
X0031790Y0050378D02*
X0018842Y0050378D01*
X0018842Y0050976D02*
X0022654Y0050976D01*
X0022751Y0050880D02*
X0021352Y0052279D01*
X0021352Y0054258D01*
X0022751Y0055657D01*
X0024009Y0055657D01*
X0030312Y0061961D01*
X0031190Y0062839D01*
X0060868Y0062839D01*
X0059249Y0064458D01*
X0059249Y0073437D01*
X0058360Y0074326D01*
X0058360Y0076305D01*
X0059759Y0077705D01*
X0061738Y0077705D01*
X0063138Y0076305D01*
X0063138Y0074326D01*
X0062249Y0073437D01*
X0062249Y0065701D01*
X0065110Y0062839D01*
X0068510Y0062839D01*
X0068510Y0062893D01*
X0069037Y0063420D01*
X0073720Y0063420D01*
X0074247Y0062893D01*
X0074247Y0059785D01*
X0073720Y0059258D01*
X0069037Y0059258D01*
X0068510Y0059785D01*
X0068510Y0059839D01*
X0032433Y0059839D01*
X0026130Y0053536D01*
X0026130Y0052279D01*
X0024730Y0050880D01*
X0022751Y0050880D01*
X0022056Y0051575D02*
X0019127Y0051575D01*
X0019725Y0052173D02*
X0021457Y0052173D01*
X0021352Y0052772D02*
X0019831Y0052772D01*
X0019831Y0053370D02*
X0021352Y0053370D01*
X0021352Y0053969D02*
X0019831Y0053969D01*
X0019521Y0054568D02*
X0021661Y0054568D01*
X0022260Y0055166D02*
X0018923Y0055166D01*
X0016230Y0055765D02*
X0024116Y0055765D01*
X0024714Y0056363D02*
X0016230Y0056363D01*
X0016230Y0056962D02*
X0025313Y0056962D01*
X0025911Y0057560D02*
X0016230Y0057560D01*
X0016230Y0058159D02*
X0026510Y0058159D01*
X0027108Y0058757D02*
X0016230Y0058757D01*
X0016230Y0059356D02*
X0027707Y0059356D01*
X0028305Y0059954D02*
X0016230Y0059954D01*
X0016230Y0060553D02*
X0028904Y0060553D01*
X0029502Y0061151D02*
X0016230Y0061151D01*
X0016230Y0061750D02*
X0030101Y0061750D01*
X0030699Y0062348D02*
X0016230Y0062348D01*
X0016230Y0062947D02*
X0060760Y0062947D01*
X0060162Y0063545D02*
X0016230Y0063545D01*
X0016230Y0064144D02*
X0059563Y0064144D01*
X0059249Y0064742D02*
X0016230Y0064742D01*
X0016230Y0065341D02*
X0059249Y0065341D01*
X0059249Y0065939D02*
X0016230Y0065939D01*
X0016230Y0066538D02*
X0059249Y0066538D01*
X0059249Y0067136D02*
X0016230Y0067136D01*
X0016230Y0067735D02*
X0059249Y0067735D01*
X0059249Y0068333D02*
X0016230Y0068333D01*
X0016230Y0068932D02*
X0059249Y0068932D01*
X0059249Y0069530D02*
X0016230Y0069530D01*
X0016230Y0070129D02*
X0059249Y0070129D01*
X0059249Y0070727D02*
X0016230Y0070727D01*
X0016230Y0071326D02*
X0059249Y0071326D01*
X0059249Y0071924D02*
X0016230Y0071924D01*
X0016230Y0072523D02*
X0059249Y0072523D01*
X0059249Y0073121D02*
X0018903Y0073121D01*
X0020348Y0073720D02*
X0058966Y0073720D01*
X0058368Y0074318D02*
X0055040Y0074318D01*
X0055389Y0074917D02*
X0058360Y0074917D01*
X0058360Y0075515D02*
X0055389Y0075515D01*
X0055389Y0076114D02*
X0058360Y0076114D01*
X0058767Y0076712D02*
X0055389Y0076712D01*
X0055389Y0077311D02*
X0059365Y0077311D01*
X0062132Y0077311D02*
X0072927Y0077311D01*
X0073175Y0076712D02*
X0062731Y0076712D01*
X0063138Y0076114D02*
X0073422Y0076114D01*
X0073914Y0075515D02*
X0063138Y0075515D01*
X0063138Y0074917D02*
X0074513Y0074917D01*
X0075111Y0074318D02*
X0063130Y0074318D01*
X0062531Y0073720D02*
X0075953Y0073720D01*
X0077398Y0073121D02*
X0062249Y0073121D01*
X0062249Y0072523D02*
X0080465Y0072523D01*
X0080465Y0071924D02*
X0062249Y0071924D01*
X0062249Y0071326D02*
X0080465Y0071326D01*
X0080465Y0070727D02*
X0062249Y0070727D01*
X0062249Y0070129D02*
X0080465Y0070129D01*
X0080465Y0069530D02*
X0074035Y0069530D01*
X0074145Y0069466D02*
X0073849Y0069637D01*
X0073518Y0069726D01*
X0071669Y0069726D01*
X0071669Y0067536D01*
X0071088Y0067536D01*
X0071088Y0069726D01*
X0069239Y0069726D01*
X0068908Y0069637D01*
X0068612Y0069466D01*
X0068370Y0069224D01*
X0068199Y0068928D01*
X0068110Y0068597D01*
X0068110Y0067535D01*
X0071088Y0067535D01*
X0071088Y0066954D01*
X0071669Y0066954D01*
X0071669Y0064764D01*
X0073518Y0064764D01*
X0073849Y0064852D01*
X0074145Y0065024D01*
X0074387Y0065266D01*
X0074559Y0065562D01*
X0074647Y0065893D01*
X0074647Y0066954D01*
X0071669Y0066954D01*
X0071669Y0067535D01*
X0074647Y0067535D01*
X0074647Y0068597D01*
X0074559Y0068928D01*
X0074387Y0069224D01*
X0074145Y0069466D01*
X0074556Y0068932D02*
X0080465Y0068932D01*
X0080465Y0068333D02*
X0074647Y0068333D01*
X0074647Y0067735D02*
X0080465Y0067735D01*
X0080465Y0067136D02*
X0071669Y0067136D01*
X0071088Y0067136D02*
X0062249Y0067136D01*
X0062249Y0066538D02*
X0068110Y0066538D01*
X0068110Y0066954D02*
X0068110Y0065893D01*
X0068199Y0065562D01*
X0068370Y0065266D01*
X0068612Y0065024D01*
X0068908Y0064852D01*
X0069239Y0064764D01*
X0071088Y0064764D01*
X0071088Y0066954D01*
X0068110Y0066954D01*
X0068110Y0067735D02*
X0062249Y0067735D01*
X0062249Y0068333D02*
X0068110Y0068333D01*
X0068201Y0068932D02*
X0062249Y0068932D01*
X0062249Y0069530D02*
X0068723Y0069530D01*
X0071088Y0069530D02*
X0071669Y0069530D01*
X0071669Y0068932D02*
X0071088Y0068932D01*
X0071088Y0068333D02*
X0071669Y0068333D01*
X0071669Y0067735D02*
X0071088Y0067735D01*
X0071088Y0066538D02*
X0071669Y0066538D01*
X0071669Y0065939D02*
X0071088Y0065939D01*
X0071088Y0065341D02*
X0071669Y0065341D01*
X0074431Y0065341D02*
X0080465Y0065341D01*
X0080465Y0065939D02*
X0074647Y0065939D01*
X0074647Y0066538D02*
X0080465Y0066538D01*
X0080465Y0064742D02*
X0063207Y0064742D01*
X0062609Y0065341D02*
X0068327Y0065341D01*
X0068110Y0065939D02*
X0062249Y0065939D01*
X0063806Y0064144D02*
X0080465Y0064144D01*
X0080465Y0063545D02*
X0064404Y0063545D01*
X0065003Y0062947D02*
X0068564Y0062947D01*
X0068940Y0059356D02*
X0031949Y0059356D01*
X0031351Y0058757D02*
X0080465Y0058757D01*
X0080465Y0058159D02*
X0030752Y0058159D01*
X0030154Y0057560D02*
X0080465Y0057560D01*
X0080465Y0056962D02*
X0074247Y0056962D01*
X0074247Y0056363D02*
X0080465Y0056363D01*
X0080465Y0055765D02*
X0074247Y0055765D01*
X0074247Y0055166D02*
X0080465Y0055166D01*
X0080465Y0054568D02*
X0074247Y0054568D01*
X0074247Y0053969D02*
X0080465Y0053969D01*
X0080465Y0053370D02*
X0073738Y0053370D01*
X0073755Y0051575D02*
X0080465Y0051575D01*
X0080465Y0052173D02*
X0066576Y0052173D01*
X0067075Y0052772D02*
X0080465Y0052772D01*
X0080465Y0050976D02*
X0074247Y0050976D01*
X0074247Y0050378D02*
X0080465Y0050378D01*
X0080465Y0049779D02*
X0074247Y0049779D01*
X0074247Y0049181D02*
X0080465Y0049181D01*
X0080465Y0048582D02*
X0074247Y0048582D01*
X0074247Y0047984D02*
X0080465Y0047984D01*
X0080465Y0041400D02*
X0021841Y0041400D01*
X0022440Y0040802D02*
X0080465Y0040802D01*
X0080465Y0040203D02*
X0023038Y0040203D01*
X0023637Y0039605D02*
X0068844Y0039605D01*
X0068510Y0039006D02*
X0024235Y0039006D01*
X0022071Y0037211D02*
X0016230Y0037211D01*
X0016230Y0037809D02*
X0021472Y0037809D01*
X0020874Y0038408D02*
X0016230Y0038408D01*
X0016230Y0039006D02*
X0020275Y0039006D01*
X0019677Y0039605D02*
X0016230Y0039605D01*
X0016230Y0040203D02*
X0019078Y0040203D01*
X0018480Y0040802D02*
X0016230Y0040802D01*
X0016230Y0041400D02*
X0017881Y0041400D01*
X0017283Y0041999D02*
X0016230Y0041999D01*
X0016230Y0042597D02*
X0016684Y0042597D01*
X0020644Y0042597D02*
X0068510Y0042597D01*
X0068580Y0041999D02*
X0021243Y0041999D01*
X0022669Y0036612D02*
X0016230Y0036612D01*
X0016230Y0036014D02*
X0068660Y0036014D01*
X0069003Y0051575D02*
X0065977Y0051575D01*
X0067075Y0053370D02*
X0069020Y0053370D01*
X0068510Y0053969D02*
X0067075Y0053969D01*
X0065407Y0056363D02*
X0028957Y0056363D01*
X0029555Y0056962D02*
X0068510Y0056962D01*
X0073817Y0059356D02*
X0080465Y0059356D01*
X0080465Y0059954D02*
X0074247Y0059954D01*
X0074247Y0060553D02*
X0080465Y0060553D01*
X0080465Y0061151D02*
X0074247Y0061151D01*
X0074247Y0061750D02*
X0080465Y0061750D01*
X0080465Y0062348D02*
X0074247Y0062348D01*
X0074194Y0062947D02*
X0080465Y0062947D01*
X0072679Y0077909D02*
X0055389Y0077909D01*
X0055389Y0078508D02*
X0072431Y0078508D01*
X0072394Y0079106D02*
X0055389Y0079106D01*
X0055389Y0079705D02*
X0072394Y0079705D01*
X0072394Y0080303D02*
X0055389Y0080303D01*
X0046502Y0080303D02*
X0023907Y0080303D01*
X0023907Y0079705D02*
X0046502Y0079705D01*
X0046502Y0079106D02*
X0023907Y0079106D01*
X0023870Y0078508D02*
X0046502Y0078508D01*
X0046502Y0077909D02*
X0023622Y0077909D01*
X0023374Y0077311D02*
X0046502Y0077311D01*
X0046502Y0076712D02*
X0023126Y0076712D01*
X0022878Y0076114D02*
X0046502Y0076114D01*
X0046502Y0075515D02*
X0022387Y0075515D01*
X0021788Y0074917D02*
X0046502Y0074917D01*
X0046851Y0074318D02*
X0021190Y0074318D01*
X0028358Y0055765D02*
X0031914Y0055765D01*
X0031315Y0055166D02*
X0027760Y0055166D01*
X0027161Y0054568D02*
X0030801Y0054568D01*
X0030801Y0053969D02*
X0026563Y0053969D01*
X0026130Y0053370D02*
X0030801Y0053370D01*
X0030801Y0052772D02*
X0026130Y0052772D01*
X0026024Y0052173D02*
X0031300Y0052173D01*
X0031790Y0051575D02*
X0025426Y0051575D01*
X0024827Y0050976D02*
X0031790Y0050976D01*
D13*
X0033190Y0053662D03*
X0039883Y0053269D03*
X0048938Y0053662D03*
X0055631Y0053662D03*
X0064686Y0053662D03*
X0060355Y0040670D03*
X0063898Y0028072D03*
X0044607Y0040670D03*
X0040670Y0029646D03*
X0028465Y0041064D03*
X0023741Y0053269D03*
X0017442Y0053269D03*
X0024528Y0068229D03*
X0032009Y0077284D03*
X0040670Y0068229D03*
X0055631Y0067835D03*
X0060749Y0075316D03*
X0070591Y0074135D03*
D14*
X0060749Y0075316D02*
X0060749Y0065080D01*
X0064489Y0061339D01*
X0031812Y0061339D01*
X0023741Y0053269D01*
X0065080Y0061339D02*
X0071379Y0061339D01*
D15*
X0071379Y0055434D02*
X0066457Y0055434D01*
X0064686Y0053662D01*
X0071379Y0049528D02*
X0053072Y0049528D01*
X0048938Y0053662D01*
X0035552Y0044213D02*
X0070788Y0044213D01*
X0071379Y0043623D01*
X0071379Y0037717D02*
X0071182Y0037520D01*
X0023741Y0037520D01*
X0017442Y0043820D01*
X0017442Y0053269D01*
X0033190Y0053662D02*
X0033190Y0046576D01*
X0035552Y0044213D01*
X0064489Y0061339D02*
X0065080Y0061339D01*
M02*
