G04 EAGLE Gerber X2 export*
%TF.Part,Single*%
%TF.FileFunction,Copper,L3,Inr,Mixed*%
%TF.FilePolarity,Positive*%
%TF.GenerationSoftware,Autodesk,EAGLE,8.6.0*%
%TF.CreationDate,2018-04-20T16:04:26Z*%
G75*
%MOMM*%
%FSLAX34Y34*%
%LPD*%
%AMOC8*
5,1,8,0,0,1.08239X$1,22.5*%
G01*
%ADD10C,1.508000*%
%ADD11C,1.524000*%
%ADD12C,0.756400*%
%ADD13C,0.806400*%

G36*
X574609Y139769D02*
X574609Y139769D01*
X574635Y139775D01*
X574683Y139777D01*
X611893Y145296D01*
X611918Y145304D01*
X611966Y145311D01*
X648456Y154451D01*
X648480Y154461D01*
X648527Y154473D01*
X683945Y167145D01*
X683968Y167158D01*
X684014Y167174D01*
X718019Y183257D01*
X718041Y183272D01*
X718085Y183293D01*
X750350Y202631D01*
X750371Y202649D01*
X750412Y202673D01*
X780627Y225081D01*
X780645Y225100D01*
X780684Y225129D01*
X808557Y250391D01*
X808573Y250411D01*
X808609Y250443D01*
X833871Y278316D01*
X833886Y278338D01*
X833919Y278373D01*
X856327Y308588D01*
X856339Y308611D01*
X856369Y308650D01*
X875707Y340915D01*
X875717Y340939D01*
X875743Y340981D01*
X891826Y374986D01*
X891833Y375011D01*
X891855Y375055D01*
X904527Y410473D01*
X904532Y410499D01*
X904549Y410544D01*
X913689Y447034D01*
X913691Y447060D01*
X913704Y447107D01*
X919223Y484317D01*
X919223Y484343D01*
X919231Y484391D01*
X921076Y521963D01*
X921073Y521989D01*
X921076Y522037D01*
X919231Y559609D01*
X919225Y559635D01*
X919223Y559683D01*
X913704Y596893D01*
X913696Y596918D01*
X913689Y596966D01*
X906576Y625364D01*
X906560Y625402D01*
X906559Y625403D01*
X906559Y625404D01*
X906546Y625434D01*
X906525Y625507D01*
X906497Y625546D01*
X906478Y625590D01*
X906428Y625647D01*
X906384Y625709D01*
X906346Y625738D01*
X906314Y625773D01*
X906248Y625810D01*
X906187Y625856D01*
X906141Y625871D01*
X906100Y625894D01*
X906025Y625908D01*
X905953Y625932D01*
X905905Y625931D01*
X905858Y625940D01*
X905783Y625930D01*
X905707Y625930D01*
X905645Y625912D01*
X905614Y625907D01*
X905591Y625896D01*
X905546Y625883D01*
X900612Y623839D01*
X893388Y623839D01*
X886713Y626604D01*
X881604Y631713D01*
X878839Y638388D01*
X878839Y645612D01*
X881604Y652287D01*
X886713Y657396D01*
X893388Y660161D01*
X893917Y660161D01*
X893944Y660165D01*
X893971Y660163D01*
X894065Y660185D01*
X894160Y660200D01*
X894184Y660213D01*
X894210Y660219D01*
X894292Y660271D01*
X894377Y660316D01*
X894396Y660335D01*
X894419Y660350D01*
X894480Y660424D01*
X894546Y660494D01*
X894558Y660519D01*
X894575Y660540D01*
X894609Y660630D01*
X894650Y660717D01*
X894653Y660744D01*
X894663Y660769D01*
X894666Y660866D01*
X894677Y660961D01*
X894671Y660988D01*
X894672Y661015D01*
X894634Y661178D01*
X891855Y668945D01*
X891842Y668968D01*
X891826Y669014D01*
X875743Y703019D01*
X875728Y703041D01*
X875707Y703085D01*
X871735Y709713D01*
X871662Y709800D01*
X871591Y709888D01*
X871583Y709893D01*
X871576Y709901D01*
X871480Y709959D01*
X871385Y710021D01*
X871374Y710023D01*
X871365Y710029D01*
X871255Y710053D01*
X871146Y710081D01*
X871136Y710080D01*
X871125Y710082D01*
X871013Y710070D01*
X870901Y710061D01*
X870891Y710057D01*
X870881Y710056D01*
X870778Y710009D01*
X870674Y709965D01*
X870665Y709957D01*
X870657Y709954D01*
X870639Y709936D01*
X870544Y709860D01*
X867287Y706604D01*
X860612Y703839D01*
X853388Y703839D01*
X846713Y706604D01*
X841604Y711713D01*
X838839Y718388D01*
X838839Y725612D01*
X841604Y732287D01*
X846713Y737396D01*
X852041Y739603D01*
X852137Y739662D01*
X852234Y739719D01*
X852241Y739727D01*
X852250Y739733D01*
X852322Y739819D01*
X852396Y739904D01*
X852400Y739914D01*
X852407Y739922D01*
X852447Y740027D01*
X852491Y740131D01*
X852491Y740142D01*
X852495Y740152D01*
X852500Y740264D01*
X852508Y740377D01*
X852505Y740387D01*
X852506Y740397D01*
X852474Y740506D01*
X852446Y740615D01*
X852439Y740626D01*
X852437Y740634D01*
X852423Y740654D01*
X852361Y740760D01*
X833919Y765627D01*
X833900Y765645D01*
X833871Y765684D01*
X808609Y793557D01*
X808589Y793573D01*
X808557Y793609D01*
X780684Y818871D01*
X780662Y818886D01*
X780627Y818919D01*
X750412Y841327D01*
X750389Y841339D01*
X750350Y841369D01*
X718085Y860707D01*
X718061Y860717D01*
X718019Y860743D01*
X707247Y865837D01*
X707185Y865855D01*
X707127Y865882D01*
X707068Y865889D01*
X707011Y865905D01*
X706947Y865902D01*
X706883Y865910D01*
X706825Y865897D01*
X706765Y865894D01*
X706705Y865871D01*
X706642Y865857D01*
X706591Y865827D01*
X706536Y865805D01*
X706486Y865764D01*
X706431Y865731D01*
X706393Y865686D01*
X706347Y865648D01*
X706313Y865593D01*
X706271Y865544D01*
X706249Y865489D01*
X706218Y865439D01*
X706203Y865376D01*
X706179Y865316D01*
X706170Y865231D01*
X706162Y865199D01*
X706164Y865180D01*
X706161Y865149D01*
X706161Y863388D01*
X703396Y856713D01*
X698287Y851604D01*
X691612Y848839D01*
X684388Y848839D01*
X677713Y851604D01*
X672604Y856713D01*
X669839Y863388D01*
X669839Y870612D01*
X672604Y877287D01*
X674424Y879107D01*
X674462Y879159D01*
X674507Y879205D01*
X674533Y879259D01*
X674567Y879307D01*
X674586Y879368D01*
X674615Y879426D01*
X674622Y879485D01*
X674640Y879542D01*
X674638Y879606D01*
X674647Y879670D01*
X674635Y879729D01*
X674633Y879788D01*
X674611Y879849D01*
X674599Y879912D01*
X674569Y879963D01*
X674549Y880019D01*
X674509Y880069D01*
X674477Y880125D01*
X674432Y880165D01*
X674395Y880211D01*
X674341Y880246D01*
X674293Y880289D01*
X674216Y880326D01*
X674188Y880344D01*
X674170Y880348D01*
X674142Y880362D01*
X648527Y889527D01*
X648501Y889532D01*
X648456Y889549D01*
X611966Y898689D01*
X611940Y898691D01*
X611893Y898704D01*
X574683Y904223D01*
X574657Y904223D01*
X574609Y904231D01*
X537037Y906076D01*
X537011Y906073D01*
X536963Y906076D01*
X530138Y905741D01*
X530111Y905735D01*
X530084Y905737D01*
X529991Y905710D01*
X529897Y905689D01*
X529874Y905676D01*
X529848Y905668D01*
X529769Y905613D01*
X529686Y905564D01*
X529668Y905543D01*
X529646Y905528D01*
X529588Y905450D01*
X529526Y905377D01*
X529515Y905352D01*
X529499Y905330D01*
X529469Y905239D01*
X529433Y905150D01*
X529431Y905122D01*
X529423Y905096D01*
X529424Y905000D01*
X529418Y904904D01*
X529425Y904878D01*
X529425Y904851D01*
X529472Y904689D01*
X531161Y900612D01*
X531161Y893388D01*
X528396Y886713D01*
X523287Y881604D01*
X516612Y878839D01*
X509388Y878839D01*
X502713Y881604D01*
X497604Y886713D01*
X494839Y893388D01*
X494839Y900612D01*
X495625Y902510D01*
X495649Y902609D01*
X495677Y902707D01*
X495677Y902729D01*
X495682Y902750D01*
X495672Y902851D01*
X495668Y902952D01*
X495661Y902973D01*
X495659Y902995D01*
X495617Y903087D01*
X495581Y903182D01*
X495567Y903199D01*
X495559Y903220D01*
X495490Y903294D01*
X495426Y903373D01*
X495407Y903384D01*
X495392Y903401D01*
X495303Y903450D01*
X495217Y903504D01*
X495196Y903509D01*
X495177Y903519D01*
X495077Y903537D01*
X494978Y903561D01*
X494951Y903560D01*
X494935Y903563D01*
X494902Y903558D01*
X494810Y903555D01*
X462107Y898704D01*
X462082Y898696D01*
X462034Y898689D01*
X428119Y890194D01*
X428026Y890154D01*
X427931Y890119D01*
X427914Y890105D01*
X427893Y890096D01*
X427818Y890029D01*
X427739Y889965D01*
X427727Y889947D01*
X427710Y889932D01*
X427661Y889844D01*
X427606Y889758D01*
X427600Y889737D01*
X427590Y889718D01*
X427570Y889618D01*
X427546Y889520D01*
X427547Y889498D01*
X427543Y889476D01*
X427557Y889376D01*
X427565Y889275D01*
X427573Y889254D01*
X427576Y889233D01*
X427621Y889142D01*
X427661Y889048D01*
X427678Y889027D01*
X427685Y889012D01*
X427708Y888989D01*
X427766Y888917D01*
X429396Y887287D01*
X432161Y880612D01*
X432161Y873388D01*
X429396Y866713D01*
X424287Y861604D01*
X417612Y858839D01*
X410388Y858839D01*
X403713Y861604D01*
X398604Y866713D01*
X395839Y873388D01*
X395839Y877843D01*
X395835Y877870D01*
X395837Y877897D01*
X395815Y877991D01*
X395800Y878086D01*
X395787Y878110D01*
X395781Y878137D01*
X395729Y878219D01*
X395684Y878304D01*
X395665Y878322D01*
X395650Y878345D01*
X395576Y878407D01*
X395506Y878473D01*
X395481Y878484D01*
X395460Y878502D01*
X395370Y878536D01*
X395283Y878577D01*
X395256Y878580D01*
X395231Y878589D01*
X395134Y878593D01*
X395039Y878604D01*
X395012Y878598D01*
X394985Y878599D01*
X394822Y878560D01*
X390055Y876855D01*
X390032Y876842D01*
X389986Y876826D01*
X355981Y860743D01*
X355959Y860728D01*
X355915Y860707D01*
X323650Y841369D01*
X323629Y841351D01*
X323588Y841327D01*
X293373Y818919D01*
X293355Y818900D01*
X293316Y818871D01*
X269390Y797186D01*
X269350Y797136D01*
X269302Y797092D01*
X269274Y797040D01*
X269237Y796994D01*
X269215Y796933D01*
X269184Y796877D01*
X269173Y796818D01*
X269153Y796763D01*
X269152Y796698D01*
X269140Y796635D01*
X269149Y796576D01*
X269147Y796517D01*
X269167Y796455D01*
X269176Y796391D01*
X269203Y796339D01*
X269220Y796282D01*
X269258Y796230D01*
X269287Y796172D01*
X269330Y796131D01*
X269364Y796083D01*
X269417Y796045D01*
X269463Y796000D01*
X269538Y795959D01*
X269565Y795940D01*
X269582Y795934D01*
X269610Y795919D01*
X273287Y794396D01*
X278396Y789287D01*
X281161Y782612D01*
X281161Y775388D01*
X278396Y768713D01*
X273287Y763604D01*
X266612Y760839D01*
X259388Y760839D01*
X252713Y763604D01*
X247604Y768713D01*
X246580Y771184D01*
X246546Y771239D01*
X246521Y771299D01*
X246482Y771343D01*
X246451Y771393D01*
X246401Y771435D01*
X246358Y771483D01*
X246307Y771512D01*
X246261Y771550D01*
X246201Y771573D01*
X246145Y771606D01*
X246087Y771617D01*
X246032Y771638D01*
X245967Y771641D01*
X245904Y771654D01*
X245845Y771646D01*
X245786Y771649D01*
X245724Y771631D01*
X245660Y771623D01*
X245606Y771597D01*
X245550Y771580D01*
X245497Y771544D01*
X245439Y771515D01*
X245375Y771459D01*
X245348Y771440D01*
X245336Y771425D01*
X245313Y771404D01*
X240129Y765684D01*
X240114Y765662D01*
X240081Y765627D01*
X217673Y735412D01*
X217666Y735399D01*
X217655Y735387D01*
X217648Y735372D01*
X217631Y735350D01*
X198293Y703085D01*
X198283Y703061D01*
X198257Y703019D01*
X182174Y669014D01*
X182167Y668989D01*
X182145Y668945D01*
X169473Y633527D01*
X169468Y633501D01*
X169451Y633456D01*
X160311Y596966D01*
X160309Y596940D01*
X160296Y596893D01*
X154777Y559683D01*
X154777Y559657D01*
X154769Y559609D01*
X152924Y522037D01*
X152927Y522011D01*
X152924Y521963D01*
X154769Y484391D01*
X154775Y484365D01*
X154777Y484317D01*
X160296Y447107D01*
X160304Y447082D01*
X160311Y447034D01*
X169451Y410544D01*
X169461Y410520D01*
X169473Y410473D01*
X182145Y375055D01*
X182158Y375032D01*
X182174Y374986D01*
X198257Y340981D01*
X198272Y340959D01*
X198293Y340915D01*
X217631Y308650D01*
X217649Y308630D01*
X217673Y308588D01*
X240081Y278373D01*
X240100Y278355D01*
X240129Y278316D01*
X265391Y250443D01*
X265411Y250427D01*
X265443Y250391D01*
X293316Y225129D01*
X293338Y225114D01*
X293373Y225081D01*
X323588Y202673D01*
X323611Y202661D01*
X323650Y202631D01*
X355915Y183293D01*
X355939Y183283D01*
X355981Y183257D01*
X389986Y167174D01*
X390011Y167167D01*
X390055Y167145D01*
X425473Y154473D01*
X425499Y154468D01*
X425544Y154451D01*
X462034Y145311D01*
X462060Y145309D01*
X462107Y145296D01*
X499317Y139777D01*
X499343Y139777D01*
X499391Y139769D01*
X536963Y137924D01*
X536989Y137927D01*
X537037Y137924D01*
X574609Y139769D01*
G37*
%LPC*%
G36*
X511827Y363061D02*
X511827Y363061D01*
X487273Y368956D01*
X463944Y378619D01*
X463112Y379129D01*
X461870Y379890D01*
X454416Y384457D01*
X453174Y385219D01*
X451932Y385980D01*
X450690Y386741D01*
X450689Y386741D01*
X449447Y387502D01*
X442413Y391813D01*
X423212Y408212D01*
X406813Y427413D01*
X393619Y448943D01*
X383956Y472273D01*
X378061Y496826D01*
X376080Y522000D01*
X378061Y547174D01*
X383956Y571727D01*
X393619Y595057D01*
X406813Y616587D01*
X423212Y635788D01*
X442413Y652187D01*
X463943Y665381D01*
X487273Y675044D01*
X511826Y680939D01*
X537000Y682920D01*
X562174Y680939D01*
X586727Y675044D01*
X610057Y665381D01*
X610975Y664818D01*
X612217Y664057D01*
X613459Y663296D01*
X613460Y663296D01*
X618428Y660251D01*
X618429Y660251D01*
X619671Y659489D01*
X620913Y658728D01*
X622155Y657967D01*
X627124Y654922D01*
X628366Y654161D01*
X628367Y654161D01*
X629609Y653399D01*
X631587Y652187D01*
X650788Y635788D01*
X667187Y616587D01*
X680381Y595057D01*
X690044Y571727D01*
X695939Y547174D01*
X697920Y522000D01*
X695939Y496826D01*
X690044Y472273D01*
X680381Y448943D01*
X667187Y427413D01*
X650788Y408212D01*
X631587Y391813D01*
X610057Y378619D01*
X586727Y368956D01*
X562173Y363061D01*
X537000Y361080D01*
X511827Y363061D01*
G37*
%LPD*%
%LPC*%
G36*
X363802Y357693D02*
X363802Y357693D01*
X360693Y360802D01*
X360693Y365198D01*
X363957Y368462D01*
X363968Y368478D01*
X363984Y368490D01*
X364040Y368578D01*
X364100Y368661D01*
X364106Y368680D01*
X364117Y368697D01*
X364142Y368798D01*
X364173Y368897D01*
X364172Y368916D01*
X364177Y368936D01*
X364169Y369039D01*
X364166Y369142D01*
X364160Y369161D01*
X364158Y369181D01*
X364118Y369276D01*
X364082Y369373D01*
X364069Y369389D01*
X364062Y369407D01*
X363957Y369538D01*
X360693Y372802D01*
X360693Y377198D01*
X363457Y379962D01*
X363468Y379978D01*
X363484Y379990D01*
X363540Y380078D01*
X363600Y380161D01*
X363606Y380180D01*
X363617Y380197D01*
X363642Y380298D01*
X363673Y380397D01*
X363672Y380416D01*
X363677Y380436D01*
X363669Y380539D01*
X363666Y380642D01*
X363660Y380661D01*
X363658Y380681D01*
X363618Y380776D01*
X363582Y380873D01*
X363569Y380889D01*
X363562Y380907D01*
X363457Y381038D01*
X361038Y383457D01*
X361022Y383468D01*
X361010Y383484D01*
X360923Y383540D01*
X360839Y383600D01*
X360819Y383606D01*
X360803Y383617D01*
X360702Y383642D01*
X360603Y383673D01*
X360584Y383672D01*
X360564Y383677D01*
X360461Y383669D01*
X360358Y383666D01*
X360339Y383660D01*
X360319Y383658D01*
X360224Y383617D01*
X360127Y383582D01*
X360111Y383569D01*
X360093Y383562D01*
X359962Y383457D01*
X357198Y380693D01*
X352802Y380693D01*
X349693Y383802D01*
X349693Y388198D01*
X352957Y391462D01*
X352968Y391478D01*
X352984Y391490D01*
X353040Y391578D01*
X353100Y391661D01*
X353106Y391680D01*
X353117Y391697D01*
X353142Y391798D01*
X353173Y391897D01*
X353172Y391916D01*
X353177Y391936D01*
X353169Y392039D01*
X353166Y392142D01*
X353160Y392161D01*
X353158Y392181D01*
X353118Y392276D01*
X353082Y392373D01*
X353069Y392389D01*
X353062Y392407D01*
X352957Y392538D01*
X349693Y395802D01*
X349693Y400198D01*
X352457Y402962D01*
X352468Y402978D01*
X352484Y402990D01*
X352540Y403078D01*
X352600Y403161D01*
X352606Y403180D01*
X352617Y403197D01*
X352642Y403298D01*
X352673Y403397D01*
X352672Y403416D01*
X352677Y403436D01*
X352669Y403539D01*
X352666Y403642D01*
X352660Y403661D01*
X352658Y403681D01*
X352618Y403776D01*
X352582Y403873D01*
X352569Y403889D01*
X352562Y403907D01*
X352457Y404038D01*
X350038Y406457D01*
X350022Y406468D01*
X350010Y406484D01*
X349923Y406540D01*
X349839Y406600D01*
X349819Y406606D01*
X349803Y406617D01*
X349702Y406642D01*
X349603Y406673D01*
X349584Y406672D01*
X349564Y406677D01*
X349461Y406669D01*
X349358Y406666D01*
X349339Y406660D01*
X349319Y406658D01*
X349224Y406617D01*
X349127Y406582D01*
X349111Y406569D01*
X349093Y406562D01*
X348962Y406457D01*
X346198Y403693D01*
X341802Y403693D01*
X339038Y406457D01*
X339022Y406468D01*
X339010Y406484D01*
X338922Y406540D01*
X338839Y406600D01*
X338820Y406606D01*
X338803Y406617D01*
X338702Y406642D01*
X338603Y406673D01*
X338584Y406672D01*
X338564Y406677D01*
X338461Y406669D01*
X338358Y406666D01*
X338339Y406660D01*
X338319Y406658D01*
X338224Y406618D01*
X338127Y406582D01*
X338111Y406569D01*
X338093Y406562D01*
X337962Y406457D01*
X335198Y403693D01*
X330802Y403693D01*
X328038Y406457D01*
X328022Y406468D01*
X328010Y406484D01*
X327922Y406540D01*
X327839Y406600D01*
X327820Y406606D01*
X327803Y406617D01*
X327702Y406642D01*
X327603Y406673D01*
X327584Y406672D01*
X327564Y406677D01*
X327461Y406669D01*
X327358Y406666D01*
X327339Y406660D01*
X327319Y406658D01*
X327224Y406618D01*
X327127Y406582D01*
X327111Y406569D01*
X327093Y406562D01*
X326962Y406457D01*
X324198Y403693D01*
X319802Y403693D01*
X316693Y406802D01*
X316693Y411198D01*
X319957Y414462D01*
X319968Y414478D01*
X319984Y414490D01*
X320040Y414578D01*
X320100Y414661D01*
X320106Y414680D01*
X320117Y414697D01*
X320142Y414798D01*
X320173Y414897D01*
X320172Y414916D01*
X320177Y414936D01*
X320169Y415039D01*
X320166Y415142D01*
X320160Y415161D01*
X320158Y415181D01*
X320118Y415276D01*
X320082Y415373D01*
X320069Y415389D01*
X320062Y415407D01*
X319989Y415499D01*
X319983Y415509D01*
X319976Y415514D01*
X319957Y415538D01*
X316693Y418802D01*
X316693Y423198D01*
X319457Y425962D01*
X319468Y425978D01*
X319484Y425990D01*
X319540Y426078D01*
X319600Y426161D01*
X319606Y426180D01*
X319617Y426197D01*
X319642Y426298D01*
X319673Y426397D01*
X319672Y426416D01*
X319677Y426436D01*
X319669Y426539D01*
X319666Y426642D01*
X319660Y426661D01*
X319658Y426681D01*
X319618Y426776D01*
X319582Y426873D01*
X319569Y426889D01*
X319562Y426907D01*
X319457Y427038D01*
X316693Y429802D01*
X316693Y434198D01*
X319957Y437462D01*
X319968Y437478D01*
X319984Y437490D01*
X320040Y437578D01*
X320100Y437661D01*
X320106Y437680D01*
X320117Y437697D01*
X320142Y437798D01*
X320173Y437897D01*
X320172Y437916D01*
X320177Y437936D01*
X320169Y438039D01*
X320166Y438142D01*
X320160Y438161D01*
X320158Y438181D01*
X320118Y438276D01*
X320082Y438373D01*
X320069Y438389D01*
X320062Y438407D01*
X319957Y438538D01*
X316693Y441802D01*
X316693Y446198D01*
X319802Y449307D01*
X324198Y449307D01*
X326962Y446543D01*
X326978Y446532D01*
X326990Y446516D01*
X327078Y446460D01*
X327161Y446400D01*
X327180Y446394D01*
X327197Y446383D01*
X327298Y446358D01*
X327397Y446327D01*
X327416Y446328D01*
X327436Y446323D01*
X327539Y446331D01*
X327642Y446334D01*
X327661Y446340D01*
X327681Y446342D01*
X327776Y446382D01*
X327873Y446418D01*
X327889Y446431D01*
X327907Y446438D01*
X328038Y446543D01*
X330802Y449307D01*
X335198Y449307D01*
X337962Y446543D01*
X337978Y446532D01*
X337990Y446516D01*
X338078Y446460D01*
X338161Y446400D01*
X338180Y446394D01*
X338197Y446383D01*
X338298Y446358D01*
X338397Y446327D01*
X338416Y446328D01*
X338436Y446323D01*
X338539Y446331D01*
X338642Y446334D01*
X338661Y446340D01*
X338681Y446342D01*
X338776Y446382D01*
X338873Y446418D01*
X338889Y446431D01*
X338907Y446438D01*
X339038Y446543D01*
X341802Y449307D01*
X346198Y449307D01*
X348962Y446543D01*
X348978Y446532D01*
X348990Y446516D01*
X349078Y446460D01*
X349161Y446400D01*
X349180Y446394D01*
X349197Y446383D01*
X349298Y446358D01*
X349397Y446327D01*
X349416Y446328D01*
X349436Y446323D01*
X349539Y446331D01*
X349642Y446334D01*
X349661Y446340D01*
X349681Y446342D01*
X349776Y446382D01*
X349873Y446418D01*
X349889Y446431D01*
X349907Y446438D01*
X350038Y446543D01*
X352802Y449307D01*
X357198Y449307D01*
X359962Y446543D01*
X359978Y446532D01*
X359990Y446516D01*
X360078Y446460D01*
X360161Y446400D01*
X360180Y446394D01*
X360197Y446383D01*
X360298Y446358D01*
X360397Y446327D01*
X360416Y446328D01*
X360436Y446323D01*
X360539Y446331D01*
X360642Y446334D01*
X360661Y446340D01*
X360681Y446342D01*
X360776Y446382D01*
X360873Y446418D01*
X360889Y446431D01*
X360907Y446438D01*
X361038Y446543D01*
X363802Y449307D01*
X368198Y449307D01*
X370962Y446543D01*
X370978Y446532D01*
X370990Y446516D01*
X371078Y446460D01*
X371161Y446400D01*
X371180Y446394D01*
X371197Y446383D01*
X371298Y446358D01*
X371397Y446327D01*
X371416Y446328D01*
X371436Y446323D01*
X371539Y446331D01*
X371642Y446334D01*
X371661Y446340D01*
X371681Y446342D01*
X371776Y446382D01*
X371873Y446418D01*
X371889Y446431D01*
X371907Y446438D01*
X372038Y446543D01*
X374802Y449307D01*
X379198Y449307D01*
X382307Y446198D01*
X382307Y441802D01*
X379043Y438538D01*
X379032Y438522D01*
X379016Y438510D01*
X378960Y438422D01*
X378900Y438339D01*
X378894Y438320D01*
X378883Y438303D01*
X378858Y438202D01*
X378827Y438103D01*
X378828Y438084D01*
X378823Y438064D01*
X378831Y437961D01*
X378834Y437858D01*
X378840Y437839D01*
X378842Y437819D01*
X378882Y437724D01*
X378918Y437627D01*
X378931Y437611D01*
X378938Y437593D01*
X379043Y437462D01*
X382307Y434198D01*
X382307Y429802D01*
X379543Y427038D01*
X379532Y427022D01*
X379516Y427010D01*
X379460Y426922D01*
X379400Y426839D01*
X379394Y426820D01*
X379383Y426803D01*
X379358Y426702D01*
X379327Y426603D01*
X379328Y426584D01*
X379323Y426564D01*
X379331Y426461D01*
X379334Y426358D01*
X379340Y426339D01*
X379342Y426319D01*
X379382Y426224D01*
X379418Y426127D01*
X379431Y426111D01*
X379438Y426093D01*
X379543Y425962D01*
X382307Y423198D01*
X382307Y418802D01*
X379043Y415538D01*
X379032Y415522D01*
X379016Y415510D01*
X378986Y415463D01*
X378970Y415446D01*
X378957Y415418D01*
X378900Y415339D01*
X378894Y415320D01*
X378883Y415303D01*
X378858Y415202D01*
X378827Y415103D01*
X378828Y415084D01*
X378823Y415064D01*
X378831Y414961D01*
X378834Y414858D01*
X378840Y414839D01*
X378842Y414819D01*
X378882Y414724D01*
X378918Y414627D01*
X378931Y414611D01*
X378938Y414593D01*
X379043Y414462D01*
X381962Y411543D01*
X381978Y411532D01*
X381990Y411516D01*
X382078Y411460D01*
X382161Y411400D01*
X382180Y411394D01*
X382197Y411383D01*
X382298Y411358D01*
X382397Y411327D01*
X382416Y411328D01*
X382436Y411323D01*
X382539Y411331D01*
X382642Y411334D01*
X382661Y411340D01*
X382681Y411342D01*
X382776Y411382D01*
X382873Y411418D01*
X382889Y411431D01*
X382907Y411438D01*
X383038Y411543D01*
X385802Y414307D01*
X390198Y414307D01*
X393307Y411198D01*
X393307Y406802D01*
X390543Y404038D01*
X390532Y404022D01*
X390516Y404010D01*
X390460Y403922D01*
X390400Y403839D01*
X390394Y403820D01*
X390383Y403803D01*
X390358Y403702D01*
X390327Y403603D01*
X390328Y403584D01*
X390323Y403564D01*
X390331Y403461D01*
X390334Y403358D01*
X390340Y403339D01*
X390342Y403319D01*
X390382Y403224D01*
X390418Y403127D01*
X390431Y403111D01*
X390438Y403093D01*
X390543Y402962D01*
X392962Y400543D01*
X392978Y400532D01*
X392990Y400516D01*
X393078Y400460D01*
X393161Y400400D01*
X393180Y400394D01*
X393197Y400383D01*
X393298Y400358D01*
X393397Y400327D01*
X393416Y400328D01*
X393436Y400323D01*
X393539Y400331D01*
X393642Y400334D01*
X393661Y400340D01*
X393681Y400342D01*
X393776Y400382D01*
X393873Y400418D01*
X393889Y400431D01*
X393907Y400438D01*
X394038Y400543D01*
X396802Y403307D01*
X401198Y403307D01*
X403962Y400543D01*
X403978Y400532D01*
X403990Y400516D01*
X404078Y400460D01*
X404161Y400400D01*
X404180Y400394D01*
X404197Y400383D01*
X404298Y400358D01*
X404397Y400327D01*
X404416Y400328D01*
X404436Y400323D01*
X404539Y400331D01*
X404642Y400334D01*
X404661Y400340D01*
X404681Y400342D01*
X404776Y400382D01*
X404873Y400418D01*
X404889Y400431D01*
X404907Y400438D01*
X405038Y400543D01*
X407802Y403307D01*
X412198Y403307D01*
X415307Y400198D01*
X415307Y395802D01*
X412043Y392538D01*
X412032Y392522D01*
X412016Y392510D01*
X411960Y392422D01*
X411900Y392339D01*
X411894Y392320D01*
X411883Y392303D01*
X411858Y392202D01*
X411827Y392103D01*
X411828Y392084D01*
X411823Y392064D01*
X411831Y391961D01*
X411834Y391858D01*
X411840Y391839D01*
X411842Y391819D01*
X411882Y391724D01*
X411918Y391627D01*
X411931Y391611D01*
X411938Y391593D01*
X412043Y391462D01*
X415307Y388198D01*
X415307Y383802D01*
X412543Y381038D01*
X412532Y381022D01*
X412516Y381010D01*
X412460Y380922D01*
X412400Y380839D01*
X412394Y380820D01*
X412383Y380803D01*
X412358Y380702D01*
X412327Y380603D01*
X412328Y380584D01*
X412323Y380564D01*
X412331Y380461D01*
X412334Y380358D01*
X412340Y380339D01*
X412342Y380319D01*
X412382Y380224D01*
X412418Y380127D01*
X412431Y380111D01*
X412438Y380093D01*
X412543Y379962D01*
X414962Y377543D01*
X414978Y377532D01*
X414990Y377516D01*
X415078Y377460D01*
X415161Y377400D01*
X415180Y377394D01*
X415197Y377383D01*
X415298Y377358D01*
X415397Y377327D01*
X415416Y377328D01*
X415436Y377323D01*
X415539Y377331D01*
X415642Y377334D01*
X415661Y377340D01*
X415681Y377342D01*
X415776Y377382D01*
X415873Y377418D01*
X415889Y377431D01*
X415907Y377438D01*
X416038Y377543D01*
X418802Y380307D01*
X423198Y380307D01*
X426307Y377198D01*
X426307Y372802D01*
X423043Y369538D01*
X423032Y369522D01*
X423016Y369510D01*
X422960Y369422D01*
X422900Y369339D01*
X422894Y369320D01*
X422883Y369303D01*
X422858Y369202D01*
X422827Y369103D01*
X422828Y369084D01*
X422823Y369064D01*
X422831Y368961D01*
X422834Y368858D01*
X422840Y368839D01*
X422842Y368819D01*
X422882Y368724D01*
X422918Y368627D01*
X422931Y368611D01*
X422938Y368593D01*
X423043Y368462D01*
X426307Y365198D01*
X426307Y360802D01*
X423198Y357693D01*
X418802Y357693D01*
X416038Y360457D01*
X416022Y360468D01*
X416010Y360484D01*
X415922Y360540D01*
X415839Y360600D01*
X415820Y360606D01*
X415803Y360617D01*
X415702Y360642D01*
X415603Y360673D01*
X415584Y360672D01*
X415564Y360677D01*
X415461Y360669D01*
X415358Y360666D01*
X415339Y360660D01*
X415319Y360658D01*
X415224Y360618D01*
X415127Y360582D01*
X415111Y360569D01*
X415093Y360562D01*
X414962Y360457D01*
X412198Y357693D01*
X407802Y357693D01*
X405038Y360457D01*
X405022Y360468D01*
X405010Y360484D01*
X404922Y360540D01*
X404839Y360600D01*
X404820Y360606D01*
X404803Y360617D01*
X404702Y360642D01*
X404603Y360673D01*
X404584Y360672D01*
X404564Y360677D01*
X404461Y360669D01*
X404358Y360666D01*
X404339Y360660D01*
X404319Y360658D01*
X404224Y360618D01*
X404127Y360582D01*
X404111Y360569D01*
X404093Y360562D01*
X403962Y360457D01*
X401198Y357693D01*
X396802Y357693D01*
X394038Y360457D01*
X394022Y360468D01*
X394010Y360484D01*
X393922Y360540D01*
X393839Y360600D01*
X393820Y360606D01*
X393803Y360617D01*
X393702Y360642D01*
X393603Y360673D01*
X393584Y360672D01*
X393564Y360677D01*
X393461Y360669D01*
X393358Y360666D01*
X393339Y360660D01*
X393319Y360658D01*
X393224Y360618D01*
X393127Y360582D01*
X393111Y360569D01*
X393093Y360562D01*
X392962Y360457D01*
X390198Y357693D01*
X385802Y357693D01*
X383038Y360457D01*
X383022Y360468D01*
X383010Y360484D01*
X382922Y360540D01*
X382839Y360600D01*
X382820Y360606D01*
X382803Y360617D01*
X382702Y360642D01*
X382603Y360673D01*
X382584Y360672D01*
X382564Y360677D01*
X382461Y360669D01*
X382358Y360666D01*
X382339Y360660D01*
X382319Y360658D01*
X382224Y360618D01*
X382127Y360582D01*
X382111Y360569D01*
X382093Y360562D01*
X381962Y360457D01*
X379198Y357693D01*
X374802Y357693D01*
X372038Y360457D01*
X372022Y360468D01*
X372010Y360484D01*
X371922Y360540D01*
X371839Y360600D01*
X371820Y360606D01*
X371803Y360617D01*
X371702Y360642D01*
X371603Y360673D01*
X371584Y360672D01*
X371564Y360677D01*
X371461Y360669D01*
X371358Y360666D01*
X371339Y360660D01*
X371319Y360658D01*
X371224Y360618D01*
X371127Y360582D01*
X371111Y360569D01*
X371093Y360562D01*
X370962Y360457D01*
X368198Y357693D01*
X363802Y357693D01*
G37*
%LPD*%
%LPC*%
G36*
X726802Y605693D02*
X726802Y605693D01*
X723693Y608802D01*
X723693Y610351D01*
X723682Y610421D01*
X723680Y610493D01*
X723662Y610542D01*
X723654Y610593D01*
X723620Y610657D01*
X723595Y610724D01*
X723563Y610765D01*
X723538Y610811D01*
X723487Y610860D01*
X723442Y610916D01*
X723398Y610944D01*
X723360Y610980D01*
X723295Y611010D01*
X723235Y611049D01*
X723184Y611062D01*
X723137Y611084D01*
X723066Y611092D01*
X722996Y611109D01*
X722944Y611105D01*
X722893Y611111D01*
X722822Y611096D01*
X722751Y611090D01*
X722703Y611070D01*
X722652Y611059D01*
X722591Y611022D01*
X722525Y610994D01*
X722469Y610949D01*
X722441Y610932D01*
X722426Y610915D01*
X722394Y610889D01*
X722198Y610693D01*
X717802Y610693D01*
X714693Y613802D01*
X714693Y618198D01*
X714889Y618394D01*
X714931Y618452D01*
X714980Y618504D01*
X715002Y618551D01*
X715032Y618593D01*
X715054Y618662D01*
X715084Y618727D01*
X715089Y618779D01*
X715105Y618829D01*
X715103Y618900D01*
X715111Y618971D01*
X715100Y619022D01*
X715098Y619074D01*
X715074Y619142D01*
X715059Y619212D01*
X715032Y619257D01*
X715014Y619305D01*
X714969Y619361D01*
X714932Y619423D01*
X714893Y619457D01*
X714860Y619497D01*
X714800Y619536D01*
X714745Y619583D01*
X714697Y619602D01*
X714653Y619630D01*
X714584Y619648D01*
X714517Y619675D01*
X714446Y619683D01*
X714415Y619691D01*
X714392Y619689D01*
X714351Y619693D01*
X711802Y619693D01*
X708693Y622802D01*
X708693Y627198D01*
X711802Y630307D01*
X716198Y630307D01*
X717394Y629111D01*
X717452Y629069D01*
X717504Y629020D01*
X717551Y628998D01*
X717593Y628968D01*
X717662Y628946D01*
X717727Y628916D01*
X717779Y628911D01*
X717829Y628895D01*
X717900Y628897D01*
X717971Y628889D01*
X718022Y628900D01*
X718074Y628902D01*
X718142Y628926D01*
X718212Y628941D01*
X718257Y628968D01*
X718305Y628986D01*
X718361Y629031D01*
X718423Y629068D01*
X718457Y629107D01*
X718497Y629140D01*
X718536Y629200D01*
X718583Y629255D01*
X718602Y629303D01*
X718630Y629347D01*
X718648Y629416D01*
X718675Y629483D01*
X718683Y629554D01*
X718691Y629585D01*
X718689Y629608D01*
X718693Y629649D01*
X718693Y633198D01*
X718889Y633394D01*
X718931Y633452D01*
X718980Y633504D01*
X719002Y633551D01*
X719032Y633593D01*
X719054Y633662D01*
X719084Y633727D01*
X719089Y633779D01*
X719105Y633829D01*
X719103Y633900D01*
X719111Y633971D01*
X719100Y634022D01*
X719098Y634074D01*
X719074Y634142D01*
X719059Y634212D01*
X719032Y634257D01*
X719014Y634305D01*
X718969Y634361D01*
X718932Y634423D01*
X718893Y634457D01*
X718860Y634497D01*
X718800Y634536D01*
X718745Y634583D01*
X718697Y634602D01*
X718653Y634630D01*
X718584Y634648D01*
X718517Y634675D01*
X718446Y634683D01*
X718415Y634691D01*
X718392Y634689D01*
X718351Y634693D01*
X717802Y634693D01*
X714693Y637802D01*
X714693Y642198D01*
X717889Y645394D01*
X717931Y645452D01*
X717980Y645504D01*
X718002Y645551D01*
X718032Y645593D01*
X718054Y645662D01*
X718084Y645727D01*
X718089Y645779D01*
X718105Y645829D01*
X718103Y645900D01*
X718111Y645971D01*
X718100Y646022D01*
X718098Y646074D01*
X718074Y646142D01*
X718059Y646212D01*
X718032Y646257D01*
X718014Y646305D01*
X717969Y646361D01*
X717932Y646423D01*
X717893Y646457D01*
X717860Y646497D01*
X717800Y646536D01*
X717745Y646583D01*
X717697Y646602D01*
X717653Y646630D01*
X717584Y646648D01*
X717517Y646675D01*
X717446Y646683D01*
X717415Y646691D01*
X717392Y646689D01*
X717351Y646693D01*
X715802Y646693D01*
X712693Y649802D01*
X712693Y654198D01*
X715802Y657307D01*
X720198Y657307D01*
X723307Y654198D01*
X723307Y649802D01*
X720111Y646606D01*
X720069Y646548D01*
X720020Y646496D01*
X719998Y646449D01*
X719968Y646407D01*
X719946Y646338D01*
X719916Y646273D01*
X719911Y646221D01*
X719895Y646171D01*
X719897Y646100D01*
X719889Y646029D01*
X719900Y645978D01*
X719902Y645926D01*
X719926Y645858D01*
X719941Y645788D01*
X719968Y645743D01*
X719986Y645695D01*
X720031Y645639D01*
X720068Y645577D01*
X720107Y645543D01*
X720140Y645503D01*
X720200Y645464D01*
X720255Y645417D01*
X720303Y645398D01*
X720347Y645370D01*
X720416Y645352D01*
X720483Y645325D01*
X720554Y645317D01*
X720585Y645309D01*
X720608Y645311D01*
X720649Y645307D01*
X722198Y645307D01*
X725307Y642198D01*
X725307Y637802D01*
X725111Y637606D01*
X725069Y637548D01*
X725020Y637496D01*
X724998Y637449D01*
X724968Y637407D01*
X724946Y637338D01*
X724916Y637273D01*
X724911Y637221D01*
X724895Y637171D01*
X724897Y637100D01*
X724889Y637029D01*
X724900Y636978D01*
X724902Y636926D01*
X724926Y636858D01*
X724941Y636788D01*
X724968Y636743D01*
X724986Y636695D01*
X725031Y636639D01*
X725068Y636577D01*
X725107Y636543D01*
X725140Y636503D01*
X725200Y636464D01*
X725255Y636417D01*
X725303Y636398D01*
X725347Y636370D01*
X725416Y636352D01*
X725483Y636325D01*
X725554Y636317D01*
X725585Y636309D01*
X725608Y636311D01*
X725649Y636307D01*
X726198Y636307D01*
X729307Y633198D01*
X729307Y628802D01*
X726198Y625693D01*
X721802Y625693D01*
X720606Y626889D01*
X720548Y626931D01*
X720496Y626980D01*
X720449Y627002D01*
X720407Y627032D01*
X720338Y627054D01*
X720273Y627084D01*
X720221Y627089D01*
X720171Y627105D01*
X720100Y627103D01*
X720029Y627111D01*
X719978Y627100D01*
X719926Y627098D01*
X719858Y627074D01*
X719788Y627059D01*
X719743Y627032D01*
X719695Y627014D01*
X719639Y626969D01*
X719577Y626932D01*
X719543Y626893D01*
X719503Y626860D01*
X719464Y626800D01*
X719417Y626745D01*
X719398Y626697D01*
X719370Y626653D01*
X719352Y626584D01*
X719325Y626517D01*
X719317Y626446D01*
X719309Y626415D01*
X719311Y626392D01*
X719307Y626351D01*
X719307Y622802D01*
X719111Y622606D01*
X719069Y622548D01*
X719020Y622496D01*
X718998Y622449D01*
X718968Y622407D01*
X718946Y622338D01*
X718916Y622273D01*
X718911Y622221D01*
X718895Y622171D01*
X718897Y622100D01*
X718889Y622029D01*
X718900Y621978D01*
X718902Y621926D01*
X718926Y621858D01*
X718941Y621788D01*
X718968Y621743D01*
X718986Y621695D01*
X719031Y621639D01*
X719068Y621577D01*
X719107Y621543D01*
X719140Y621503D01*
X719200Y621464D01*
X719255Y621417D01*
X719303Y621398D01*
X719347Y621370D01*
X719416Y621352D01*
X719483Y621325D01*
X719554Y621317D01*
X719585Y621309D01*
X719608Y621311D01*
X719649Y621307D01*
X722198Y621307D01*
X725307Y618198D01*
X725307Y616649D01*
X725318Y616579D01*
X725320Y616507D01*
X725338Y616458D01*
X725346Y616407D01*
X725380Y616343D01*
X725405Y616276D01*
X725437Y616235D01*
X725462Y616189D01*
X725513Y616140D01*
X725558Y616084D01*
X725602Y616056D01*
X725640Y616020D01*
X725705Y615990D01*
X725765Y615951D01*
X725816Y615938D01*
X725863Y615916D01*
X725934Y615908D01*
X726004Y615891D01*
X726056Y615895D01*
X726107Y615889D01*
X726178Y615904D01*
X726249Y615910D01*
X726297Y615930D01*
X726348Y615941D01*
X726409Y615978D01*
X726475Y616006D01*
X726531Y616051D01*
X726559Y616068D01*
X726574Y616085D01*
X726606Y616111D01*
X726802Y616307D01*
X731198Y616307D01*
X734307Y613198D01*
X734307Y608802D01*
X731198Y605693D01*
X726802Y605693D01*
G37*
%LPD*%
%LPC*%
G36*
X856802Y611693D02*
X856802Y611693D01*
X853693Y614802D01*
X853693Y619198D01*
X853889Y619394D01*
X853931Y619452D01*
X853980Y619504D01*
X854002Y619551D01*
X854032Y619593D01*
X854054Y619662D01*
X854084Y619727D01*
X854089Y619779D01*
X854105Y619829D01*
X854103Y619900D01*
X854111Y619971D01*
X854100Y620022D01*
X854098Y620074D01*
X854074Y620142D01*
X854059Y620212D01*
X854032Y620257D01*
X854014Y620305D01*
X853969Y620361D01*
X853932Y620423D01*
X853893Y620457D01*
X853860Y620497D01*
X853800Y620536D01*
X853745Y620583D01*
X853697Y620602D01*
X853653Y620630D01*
X853584Y620648D01*
X853517Y620675D01*
X853446Y620683D01*
X853415Y620691D01*
X853392Y620689D01*
X853351Y620693D01*
X850802Y620693D01*
X847693Y623802D01*
X847693Y627932D01*
X847690Y627952D01*
X847692Y627971D01*
X847670Y628073D01*
X847654Y628175D01*
X847644Y628192D01*
X847640Y628212D01*
X847587Y628301D01*
X847538Y628392D01*
X847524Y628406D01*
X847514Y628423D01*
X847435Y628490D01*
X847360Y628562D01*
X847342Y628570D01*
X847327Y628583D01*
X847231Y628622D01*
X847137Y628665D01*
X847117Y628667D01*
X847099Y628675D01*
X846932Y628693D01*
X844802Y628693D01*
X841693Y631802D01*
X841693Y634932D01*
X841690Y634952D01*
X841692Y634971D01*
X841670Y635073D01*
X841654Y635175D01*
X841644Y635192D01*
X841640Y635212D01*
X841587Y635301D01*
X841538Y635392D01*
X841524Y635406D01*
X841514Y635423D01*
X841435Y635490D01*
X841360Y635562D01*
X841342Y635570D01*
X841327Y635583D01*
X841231Y635622D01*
X841137Y635665D01*
X841117Y635667D01*
X841099Y635675D01*
X840932Y635693D01*
X837802Y635693D01*
X835038Y638457D01*
X835022Y638468D01*
X835010Y638484D01*
X834922Y638540D01*
X834839Y638600D01*
X834820Y638606D01*
X834803Y638617D01*
X834702Y638642D01*
X834603Y638673D01*
X834584Y638672D01*
X834564Y638677D01*
X834461Y638669D01*
X834358Y638666D01*
X834339Y638660D01*
X834319Y638658D01*
X834224Y638618D01*
X834127Y638582D01*
X834111Y638569D01*
X834093Y638562D01*
X833962Y638457D01*
X832198Y636693D01*
X827802Y636693D01*
X825038Y639457D01*
X825022Y639468D01*
X825010Y639484D01*
X824922Y639540D01*
X824839Y639600D01*
X824820Y639606D01*
X824803Y639617D01*
X824702Y639642D01*
X824603Y639673D01*
X824584Y639672D01*
X824564Y639677D01*
X824461Y639669D01*
X824358Y639666D01*
X824339Y639660D01*
X824319Y639658D01*
X824224Y639618D01*
X824127Y639582D01*
X824111Y639569D01*
X824093Y639562D01*
X823962Y639457D01*
X821198Y636693D01*
X816802Y636693D01*
X813693Y639802D01*
X813693Y644198D01*
X816802Y647307D01*
X821198Y647307D01*
X823962Y644543D01*
X823978Y644532D01*
X823990Y644516D01*
X824078Y644460D01*
X824161Y644400D01*
X824180Y644394D01*
X824197Y644383D01*
X824298Y644358D01*
X824397Y644327D01*
X824416Y644328D01*
X824436Y644323D01*
X824539Y644331D01*
X824642Y644334D01*
X824661Y644340D01*
X824681Y644342D01*
X824776Y644382D01*
X824873Y644418D01*
X824889Y644431D01*
X824907Y644438D01*
X825038Y644543D01*
X827802Y647307D01*
X832198Y647307D01*
X834962Y644543D01*
X834978Y644532D01*
X834990Y644516D01*
X835078Y644460D01*
X835161Y644400D01*
X835180Y644394D01*
X835197Y644383D01*
X835298Y644358D01*
X835397Y644327D01*
X835416Y644328D01*
X835436Y644323D01*
X835539Y644331D01*
X835642Y644334D01*
X835661Y644340D01*
X835681Y644342D01*
X835776Y644382D01*
X835873Y644418D01*
X835889Y644431D01*
X835907Y644438D01*
X836038Y644543D01*
X837802Y646307D01*
X842198Y646307D01*
X845307Y643198D01*
X845307Y640068D01*
X845310Y640048D01*
X845308Y640029D01*
X845330Y639927D01*
X845346Y639825D01*
X845356Y639808D01*
X845360Y639788D01*
X845413Y639699D01*
X845462Y639608D01*
X845476Y639594D01*
X845486Y639577D01*
X845565Y639510D01*
X845640Y639438D01*
X845658Y639430D01*
X845673Y639417D01*
X845769Y639378D01*
X845863Y639335D01*
X845883Y639333D01*
X845901Y639325D01*
X846068Y639307D01*
X849198Y639307D01*
X852307Y636198D01*
X852307Y632068D01*
X852310Y632048D01*
X852308Y632029D01*
X852330Y631927D01*
X852346Y631825D01*
X852356Y631808D01*
X852360Y631788D01*
X852413Y631699D01*
X852462Y631608D01*
X852476Y631594D01*
X852486Y631577D01*
X852565Y631510D01*
X852640Y631438D01*
X852658Y631430D01*
X852673Y631417D01*
X852769Y631378D01*
X852863Y631335D01*
X852883Y631333D01*
X852901Y631325D01*
X853068Y631307D01*
X855198Y631307D01*
X858307Y628198D01*
X858307Y623802D01*
X858111Y623606D01*
X858069Y623548D01*
X858020Y623496D01*
X857998Y623449D01*
X857968Y623407D01*
X857946Y623338D01*
X857916Y623273D01*
X857911Y623221D01*
X857895Y623171D01*
X857897Y623100D01*
X857889Y623029D01*
X857900Y622978D01*
X857902Y622926D01*
X857926Y622858D01*
X857941Y622788D01*
X857968Y622743D01*
X857986Y622695D01*
X858031Y622639D01*
X858068Y622577D01*
X858107Y622543D01*
X858140Y622503D01*
X858200Y622464D01*
X858255Y622417D01*
X858303Y622398D01*
X858347Y622370D01*
X858416Y622352D01*
X858483Y622325D01*
X858554Y622317D01*
X858585Y622309D01*
X858608Y622311D01*
X858649Y622307D01*
X861198Y622307D01*
X864307Y619198D01*
X864307Y614802D01*
X861198Y611693D01*
X856802Y611693D01*
G37*
%LPD*%
%LPC*%
G36*
X578802Y713693D02*
X578802Y713693D01*
X575693Y716802D01*
X575693Y721198D01*
X578802Y724307D01*
X581351Y724307D01*
X581421Y724318D01*
X581493Y724320D01*
X581542Y724338D01*
X581593Y724346D01*
X581657Y724380D01*
X581724Y724405D01*
X581765Y724437D01*
X581811Y724462D01*
X581860Y724513D01*
X581916Y724558D01*
X581944Y724602D01*
X581980Y724640D01*
X582010Y724705D01*
X582049Y724765D01*
X582062Y724816D01*
X582084Y724863D01*
X582092Y724934D01*
X582109Y725004D01*
X582105Y725056D01*
X582111Y725107D01*
X582096Y725178D01*
X582090Y725249D01*
X582070Y725297D01*
X582059Y725348D01*
X582022Y725409D01*
X581994Y725475D01*
X581949Y725531D01*
X581932Y725559D01*
X581915Y725574D01*
X581889Y725606D01*
X581693Y725802D01*
X581693Y730198D01*
X584802Y733307D01*
X589198Y733307D01*
X590394Y732111D01*
X590452Y732069D01*
X590504Y732020D01*
X590551Y731998D01*
X590593Y731968D01*
X590662Y731946D01*
X590727Y731916D01*
X590779Y731911D01*
X590829Y731895D01*
X590900Y731897D01*
X590971Y731889D01*
X591022Y731900D01*
X591074Y731902D01*
X591142Y731926D01*
X591212Y731941D01*
X591257Y731968D01*
X591305Y731986D01*
X591361Y732031D01*
X591423Y732068D01*
X591457Y732107D01*
X591497Y732140D01*
X591536Y732200D01*
X591583Y732255D01*
X591602Y732303D01*
X591630Y732347D01*
X591648Y732416D01*
X591675Y732483D01*
X591683Y732554D01*
X591691Y732585D01*
X591689Y732608D01*
X591693Y732649D01*
X591693Y734198D01*
X594802Y737307D01*
X599198Y737307D01*
X602307Y734198D01*
X602307Y729802D01*
X599198Y726693D01*
X594802Y726693D01*
X593606Y727889D01*
X593548Y727931D01*
X593496Y727980D01*
X593449Y728002D01*
X593407Y728032D01*
X593338Y728054D01*
X593273Y728084D01*
X593221Y728089D01*
X593171Y728105D01*
X593100Y728103D01*
X593029Y728111D01*
X592978Y728100D01*
X592926Y728098D01*
X592858Y728074D01*
X592788Y728059D01*
X592743Y728032D01*
X592695Y728014D01*
X592639Y727969D01*
X592577Y727932D01*
X592543Y727893D01*
X592503Y727860D01*
X592464Y727800D01*
X592417Y727745D01*
X592398Y727697D01*
X592370Y727653D01*
X592352Y727584D01*
X592325Y727517D01*
X592317Y727446D01*
X592309Y727415D01*
X592311Y727392D01*
X592307Y727351D01*
X592307Y725802D01*
X589198Y722693D01*
X586649Y722693D01*
X586579Y722682D01*
X586507Y722680D01*
X586458Y722662D01*
X586407Y722654D01*
X586343Y722620D01*
X586276Y722595D01*
X586235Y722563D01*
X586189Y722538D01*
X586140Y722487D01*
X586084Y722442D01*
X586056Y722398D01*
X586020Y722360D01*
X585990Y722295D01*
X585951Y722235D01*
X585938Y722184D01*
X585916Y722137D01*
X585908Y722066D01*
X585891Y721996D01*
X585895Y721944D01*
X585889Y721893D01*
X585904Y721822D01*
X585910Y721751D01*
X585930Y721703D01*
X585941Y721652D01*
X585978Y721591D01*
X586006Y721525D01*
X586051Y721469D01*
X586068Y721441D01*
X586085Y721426D01*
X586111Y721394D01*
X586307Y721198D01*
X586307Y716802D01*
X583198Y713693D01*
X578802Y713693D01*
G37*
%LPD*%
%LPC*%
G36*
X565802Y716693D02*
X565802Y716693D01*
X562693Y719802D01*
X562693Y720351D01*
X562682Y720421D01*
X562680Y720493D01*
X562662Y720542D01*
X562654Y720593D01*
X562620Y720657D01*
X562595Y720724D01*
X562563Y720765D01*
X562538Y720811D01*
X562486Y720860D01*
X562442Y720916D01*
X562398Y720944D01*
X562360Y720980D01*
X562295Y721010D01*
X562235Y721049D01*
X562184Y721062D01*
X562137Y721084D01*
X562066Y721092D01*
X561996Y721109D01*
X561944Y721105D01*
X561893Y721111D01*
X561822Y721096D01*
X561751Y721090D01*
X561703Y721070D01*
X561652Y721059D01*
X561591Y721022D01*
X561525Y720994D01*
X561469Y720949D01*
X561441Y720932D01*
X561426Y720915D01*
X561394Y720889D01*
X560198Y719693D01*
X555802Y719693D01*
X554538Y720957D01*
X554522Y720968D01*
X554510Y720984D01*
X554422Y721040D01*
X554339Y721100D01*
X554320Y721106D01*
X554303Y721117D01*
X554202Y721142D01*
X554103Y721173D01*
X554084Y721172D01*
X554064Y721177D01*
X553961Y721169D01*
X553858Y721166D01*
X553839Y721160D01*
X553819Y721158D01*
X553724Y721118D01*
X553627Y721082D01*
X553611Y721069D01*
X553593Y721062D01*
X553462Y720957D01*
X550198Y717693D01*
X545802Y717693D01*
X542693Y720802D01*
X542693Y725198D01*
X545802Y728307D01*
X550198Y728307D01*
X551462Y727043D01*
X551478Y727032D01*
X551490Y727016D01*
X551578Y726960D01*
X551661Y726900D01*
X551680Y726894D01*
X551697Y726883D01*
X551798Y726858D01*
X551897Y726827D01*
X551916Y726828D01*
X551936Y726823D01*
X552039Y726831D01*
X552142Y726834D01*
X552161Y726840D01*
X552181Y726842D01*
X552276Y726882D01*
X552373Y726918D01*
X552389Y726931D01*
X552407Y726938D01*
X552538Y727043D01*
X555802Y730307D01*
X560198Y730307D01*
X563307Y727198D01*
X563307Y726649D01*
X563318Y726579D01*
X563320Y726507D01*
X563338Y726458D01*
X563346Y726407D01*
X563380Y726343D01*
X563405Y726276D01*
X563437Y726235D01*
X563462Y726189D01*
X563514Y726140D01*
X563558Y726084D01*
X563602Y726056D01*
X563640Y726020D01*
X563705Y725990D01*
X563765Y725951D01*
X563816Y725938D01*
X563863Y725916D01*
X563934Y725908D01*
X564004Y725891D01*
X564056Y725895D01*
X564107Y725889D01*
X564178Y725904D01*
X564249Y725910D01*
X564297Y725930D01*
X564348Y725941D01*
X564409Y725978D01*
X564475Y726006D01*
X564531Y726051D01*
X564559Y726068D01*
X564574Y726085D01*
X564606Y726111D01*
X565802Y727307D01*
X570198Y727307D01*
X573307Y724198D01*
X573307Y719802D01*
X570198Y716693D01*
X565802Y716693D01*
G37*
%LPD*%
%LPC*%
G36*
X475802Y726693D02*
X475802Y726693D01*
X472693Y729802D01*
X472693Y734198D01*
X475802Y737307D01*
X480198Y737307D01*
X481394Y736111D01*
X481452Y736069D01*
X481504Y736020D01*
X481551Y735998D01*
X481593Y735968D01*
X481662Y735946D01*
X481727Y735916D01*
X481779Y735911D01*
X481829Y735895D01*
X481900Y735897D01*
X481971Y735889D01*
X482022Y735900D01*
X482074Y735902D01*
X482142Y735926D01*
X482212Y735941D01*
X482257Y735968D01*
X482305Y735986D01*
X482361Y736031D01*
X482423Y736068D01*
X482457Y736107D01*
X482497Y736140D01*
X482536Y736200D01*
X482583Y736255D01*
X482602Y736303D01*
X482630Y736347D01*
X482648Y736416D01*
X482675Y736483D01*
X482683Y736554D01*
X482691Y736585D01*
X482689Y736608D01*
X482693Y736649D01*
X482693Y739198D01*
X485802Y742307D01*
X490198Y742307D01*
X492962Y739543D01*
X492978Y739532D01*
X492990Y739516D01*
X493078Y739460D01*
X493161Y739400D01*
X493180Y739394D01*
X493197Y739383D01*
X493298Y739358D01*
X493397Y739327D01*
X493416Y739328D01*
X493436Y739323D01*
X493539Y739331D01*
X493642Y739334D01*
X493661Y739340D01*
X493681Y739342D01*
X493776Y739382D01*
X493873Y739418D01*
X493889Y739431D01*
X493907Y739438D01*
X494038Y739543D01*
X495802Y741307D01*
X500198Y741307D01*
X503307Y738198D01*
X503307Y733802D01*
X500198Y730693D01*
X495802Y730693D01*
X493038Y733457D01*
X493022Y733468D01*
X493010Y733484D01*
X492922Y733540D01*
X492839Y733600D01*
X492820Y733606D01*
X492803Y733617D01*
X492702Y733642D01*
X492603Y733673D01*
X492584Y733672D01*
X492564Y733677D01*
X492461Y733669D01*
X492358Y733666D01*
X492339Y733660D01*
X492319Y733658D01*
X492224Y733618D01*
X492127Y733582D01*
X492111Y733569D01*
X492093Y733562D01*
X491962Y733457D01*
X490198Y731693D01*
X485802Y731693D01*
X484606Y732889D01*
X484548Y732931D01*
X484496Y732980D01*
X484449Y733002D01*
X484407Y733032D01*
X484338Y733054D01*
X484273Y733084D01*
X484221Y733089D01*
X484171Y733105D01*
X484100Y733103D01*
X484029Y733111D01*
X483978Y733100D01*
X483926Y733098D01*
X483858Y733074D01*
X483788Y733059D01*
X483743Y733032D01*
X483695Y733014D01*
X483639Y732969D01*
X483577Y732932D01*
X483543Y732893D01*
X483503Y732860D01*
X483464Y732800D01*
X483417Y732745D01*
X483398Y732697D01*
X483370Y732653D01*
X483352Y732584D01*
X483325Y732517D01*
X483317Y732446D01*
X483309Y732415D01*
X483311Y732392D01*
X483307Y732351D01*
X483307Y729802D01*
X480198Y726693D01*
X475802Y726693D01*
G37*
%LPD*%
%LPC*%
G36*
X706881Y797555D02*
X706881Y797555D01*
X703520Y798947D01*
X700947Y801520D01*
X699555Y804881D01*
X699555Y808519D01*
X700947Y811880D01*
X703520Y814453D01*
X706881Y815845D01*
X710519Y815845D01*
X713880Y814453D01*
X716453Y811880D01*
X717845Y808519D01*
X717845Y804881D01*
X716453Y801520D01*
X713880Y798947D01*
X710519Y797555D01*
X706881Y797555D01*
G37*
%LPD*%
%LPC*%
G36*
X681481Y797555D02*
X681481Y797555D01*
X678120Y798947D01*
X675547Y801520D01*
X674155Y804881D01*
X674155Y808519D01*
X675547Y811880D01*
X678120Y814453D01*
X681481Y815845D01*
X685119Y815845D01*
X688480Y814453D01*
X691053Y811880D01*
X692445Y808519D01*
X692445Y804881D01*
X691053Y801520D01*
X688480Y798947D01*
X685119Y797555D01*
X681481Y797555D01*
G37*
%LPD*%
%LPC*%
G36*
X681481Y746755D02*
X681481Y746755D01*
X678120Y748147D01*
X675547Y750720D01*
X674155Y754081D01*
X674155Y757719D01*
X675547Y761080D01*
X678120Y763653D01*
X681481Y765045D01*
X685119Y765045D01*
X688480Y763653D01*
X691053Y761080D01*
X692445Y757719D01*
X692445Y754081D01*
X691053Y750720D01*
X688480Y748147D01*
X685119Y746755D01*
X681481Y746755D01*
G37*
%LPD*%
%LPC*%
G36*
X852451Y406175D02*
X852451Y406175D01*
X849090Y407567D01*
X846517Y410140D01*
X845125Y413501D01*
X845125Y417139D01*
X846517Y420500D01*
X849090Y423073D01*
X852451Y424465D01*
X856089Y424465D01*
X859450Y423073D01*
X862023Y420500D01*
X863415Y417139D01*
X863415Y413501D01*
X862023Y410140D01*
X859450Y407567D01*
X856089Y406175D01*
X852451Y406175D01*
G37*
%LPD*%
%LPC*%
G36*
X706881Y772155D02*
X706881Y772155D01*
X703520Y773547D01*
X700947Y776120D01*
X699555Y779481D01*
X699555Y783119D01*
X700947Y786480D01*
X703520Y789053D01*
X706881Y790445D01*
X710519Y790445D01*
X713880Y789053D01*
X716453Y786480D01*
X717845Y783119D01*
X717845Y779481D01*
X716453Y776120D01*
X713880Y773547D01*
X710519Y772155D01*
X706881Y772155D01*
G37*
%LPD*%
%LPC*%
G36*
X681481Y772155D02*
X681481Y772155D01*
X678120Y773547D01*
X675547Y776120D01*
X674155Y779481D01*
X674155Y783119D01*
X675547Y786480D01*
X678120Y789053D01*
X681481Y790445D01*
X685119Y790445D01*
X688480Y789053D01*
X691053Y786480D01*
X692445Y783119D01*
X692445Y779481D01*
X691053Y776120D01*
X688480Y773547D01*
X685119Y772155D01*
X681481Y772155D01*
G37*
%LPD*%
%LPC*%
G36*
X706881Y746755D02*
X706881Y746755D01*
X703520Y748147D01*
X700947Y750720D01*
X699555Y754081D01*
X699555Y757719D01*
X700947Y761080D01*
X703520Y763653D01*
X706881Y765045D01*
X710519Y765045D01*
X713880Y763653D01*
X716453Y761080D01*
X717845Y757719D01*
X717845Y754081D01*
X716453Y750720D01*
X713880Y748147D01*
X710519Y746755D01*
X706881Y746755D01*
G37*
%LPD*%
%LPC*%
G36*
X852451Y380775D02*
X852451Y380775D01*
X849090Y382167D01*
X846517Y384740D01*
X845125Y388101D01*
X845125Y391739D01*
X846517Y395100D01*
X849090Y397673D01*
X852451Y399065D01*
X856089Y399065D01*
X859450Y397673D01*
X862023Y395100D01*
X863415Y391739D01*
X863415Y388101D01*
X862023Y384740D01*
X859450Y382167D01*
X856089Y380775D01*
X852451Y380775D01*
G37*
%LPD*%
%LPC*%
G36*
X681481Y822955D02*
X681481Y822955D01*
X678120Y824347D01*
X675547Y826920D01*
X674155Y830281D01*
X674155Y833919D01*
X675547Y837280D01*
X678120Y839853D01*
X681481Y841245D01*
X685119Y841245D01*
X688480Y839853D01*
X691053Y837280D01*
X692445Y833919D01*
X692445Y830281D01*
X691053Y826920D01*
X688480Y824347D01*
X685119Y822955D01*
X681481Y822955D01*
G37*
%LPD*%
%LPC*%
G36*
X706881Y822955D02*
X706881Y822955D01*
X703520Y824347D01*
X700947Y826920D01*
X699555Y830281D01*
X699555Y833919D01*
X700947Y837280D01*
X703520Y839853D01*
X706881Y841245D01*
X710519Y841245D01*
X713880Y839853D01*
X716453Y837280D01*
X717845Y833919D01*
X717845Y830281D01*
X716453Y826920D01*
X713880Y824347D01*
X710519Y822955D01*
X706881Y822955D01*
G37*
%LPD*%
%LPC*%
G36*
X739897Y420035D02*
X739897Y420035D01*
X736565Y421415D01*
X734015Y423965D01*
X732635Y427297D01*
X732635Y430903D01*
X734015Y434235D01*
X736565Y436785D01*
X739897Y438165D01*
X743503Y438165D01*
X746835Y436785D01*
X749385Y434235D01*
X750765Y430903D01*
X750765Y427297D01*
X749385Y423965D01*
X746835Y421415D01*
X743503Y420035D01*
X739897Y420035D01*
G37*
%LPD*%
%LPC*%
G36*
X595897Y298535D02*
X595897Y298535D01*
X592565Y299915D01*
X590015Y302465D01*
X588635Y305797D01*
X588635Y309403D01*
X590015Y312735D01*
X592565Y315285D01*
X595897Y316665D01*
X599503Y316665D01*
X602835Y315285D01*
X605385Y312735D01*
X606765Y309403D01*
X606765Y305797D01*
X605385Y302465D01*
X602835Y299915D01*
X599503Y298535D01*
X595897Y298535D01*
G37*
%LPD*%
%LPC*%
G36*
X746895Y566443D02*
X746895Y566443D01*
X744852Y567289D01*
X743289Y568852D01*
X742443Y570895D01*
X742443Y573105D01*
X743289Y575148D01*
X744780Y576639D01*
X744792Y576655D01*
X744807Y576667D01*
X744837Y576713D01*
X744858Y576736D01*
X744874Y576769D01*
X744924Y576838D01*
X744929Y576857D01*
X744940Y576874D01*
X744961Y576957D01*
X744962Y576959D01*
X744962Y576962D01*
X744966Y576975D01*
X744996Y577073D01*
X744995Y577093D01*
X745000Y577113D01*
X744992Y577216D01*
X744990Y577319D01*
X744983Y577338D01*
X744981Y577358D01*
X744941Y577453D01*
X744905Y577550D01*
X744893Y577566D01*
X744885Y577584D01*
X744780Y577715D01*
X741693Y580802D01*
X741693Y585198D01*
X744802Y588307D01*
X749198Y588307D01*
X752307Y585198D01*
X752307Y580802D01*
X749880Y578375D01*
X749853Y578338D01*
X749819Y578307D01*
X749782Y578239D01*
X749736Y578175D01*
X749723Y578132D01*
X749701Y578091D01*
X749687Y578015D01*
X749664Y577940D01*
X749665Y577894D01*
X749657Y577849D01*
X749668Y577772D01*
X749670Y577694D01*
X749686Y577651D01*
X749693Y577606D01*
X749728Y577537D01*
X749755Y577463D01*
X749784Y577428D01*
X749804Y577387D01*
X749860Y577332D01*
X749909Y577271D01*
X749947Y577247D01*
X749980Y577214D01*
X750100Y577148D01*
X750116Y577138D01*
X750120Y577137D01*
X750127Y577134D01*
X751148Y576711D01*
X752711Y575148D01*
X753557Y573105D01*
X753557Y570895D01*
X752711Y568852D01*
X751148Y567289D01*
X749105Y566443D01*
X746895Y566443D01*
G37*
%LPD*%
%LPC*%
G36*
X815802Y691693D02*
X815802Y691693D01*
X812693Y694802D01*
X812693Y698932D01*
X812690Y698952D01*
X812692Y698971D01*
X812670Y699073D01*
X812654Y699175D01*
X812644Y699192D01*
X812640Y699212D01*
X812587Y699301D01*
X812538Y699392D01*
X812524Y699406D01*
X812514Y699423D01*
X812435Y699490D01*
X812360Y699562D01*
X812342Y699570D01*
X812327Y699583D01*
X812231Y699622D01*
X812137Y699665D01*
X812117Y699667D01*
X812099Y699675D01*
X811932Y699693D01*
X807802Y699693D01*
X804693Y702802D01*
X804693Y707198D01*
X807802Y710307D01*
X812198Y710307D01*
X815307Y707198D01*
X815307Y703068D01*
X815310Y703048D01*
X815308Y703029D01*
X815330Y702927D01*
X815346Y702825D01*
X815356Y702808D01*
X815360Y702788D01*
X815413Y702699D01*
X815462Y702608D01*
X815476Y702594D01*
X815486Y702577D01*
X815565Y702510D01*
X815640Y702438D01*
X815658Y702430D01*
X815673Y702417D01*
X815769Y702378D01*
X815863Y702335D01*
X815883Y702333D01*
X815901Y702325D01*
X816068Y702307D01*
X820198Y702307D01*
X823307Y699198D01*
X823307Y694802D01*
X820198Y691693D01*
X815802Y691693D01*
G37*
%LPD*%
%LPC*%
G36*
X332802Y327693D02*
X332802Y327693D01*
X329693Y330802D01*
X329693Y335198D01*
X332802Y338307D01*
X337198Y338307D01*
X338394Y337111D01*
X338452Y337069D01*
X338504Y337020D01*
X338551Y336998D01*
X338593Y336968D01*
X338662Y336946D01*
X338727Y336916D01*
X338779Y336911D01*
X338829Y336895D01*
X338900Y336897D01*
X338971Y336889D01*
X339022Y336900D01*
X339074Y336902D01*
X339142Y336926D01*
X339212Y336941D01*
X339257Y336968D01*
X339305Y336986D01*
X339361Y337031D01*
X339423Y337068D01*
X339457Y337107D01*
X339497Y337140D01*
X339536Y337200D01*
X339583Y337255D01*
X339602Y337303D01*
X339630Y337347D01*
X339648Y337416D01*
X339675Y337483D01*
X339683Y337554D01*
X339691Y337585D01*
X339689Y337608D01*
X339693Y337649D01*
X339693Y341198D01*
X342802Y344307D01*
X347198Y344307D01*
X350307Y341198D01*
X350307Y336802D01*
X347198Y333693D01*
X342802Y333693D01*
X341606Y334889D01*
X341548Y334931D01*
X341496Y334980D01*
X341449Y335002D01*
X341407Y335032D01*
X341338Y335054D01*
X341273Y335084D01*
X341221Y335089D01*
X341171Y335105D01*
X341100Y335103D01*
X341029Y335111D01*
X340978Y335100D01*
X340926Y335098D01*
X340858Y335074D01*
X340788Y335059D01*
X340743Y335032D01*
X340695Y335014D01*
X340639Y334969D01*
X340577Y334932D01*
X340543Y334893D01*
X340503Y334860D01*
X340464Y334800D01*
X340417Y334745D01*
X340398Y334697D01*
X340370Y334653D01*
X340352Y334584D01*
X340325Y334517D01*
X340317Y334446D01*
X340309Y334415D01*
X340311Y334392D01*
X340307Y334351D01*
X340307Y330802D01*
X337198Y327693D01*
X332802Y327693D01*
G37*
%LPD*%
%LPC*%
G36*
X436802Y234693D02*
X436802Y234693D01*
X433693Y237802D01*
X433693Y242198D01*
X436802Y245307D01*
X441198Y245307D01*
X442394Y244111D01*
X442452Y244069D01*
X442504Y244020D01*
X442551Y243998D01*
X442593Y243968D01*
X442662Y243946D01*
X442727Y243916D01*
X442779Y243911D01*
X442829Y243895D01*
X442900Y243897D01*
X442971Y243889D01*
X443022Y243900D01*
X443074Y243902D01*
X443142Y243926D01*
X443212Y243941D01*
X443257Y243968D01*
X443305Y243986D01*
X443361Y244031D01*
X443423Y244068D01*
X443457Y244107D01*
X443497Y244140D01*
X443536Y244200D01*
X443583Y244255D01*
X443602Y244303D01*
X443630Y244347D01*
X443648Y244416D01*
X443675Y244483D01*
X443683Y244554D01*
X443691Y244585D01*
X443689Y244608D01*
X443693Y244649D01*
X443693Y248198D01*
X446802Y251307D01*
X451198Y251307D01*
X454307Y248198D01*
X454307Y243802D01*
X451198Y240693D01*
X446802Y240693D01*
X445606Y241889D01*
X445548Y241931D01*
X445496Y241980D01*
X445449Y242002D01*
X445407Y242032D01*
X445338Y242054D01*
X445273Y242084D01*
X445221Y242089D01*
X445171Y242105D01*
X445100Y242103D01*
X445029Y242111D01*
X444978Y242100D01*
X444926Y242098D01*
X444858Y242074D01*
X444788Y242059D01*
X444743Y242032D01*
X444695Y242014D01*
X444639Y241969D01*
X444577Y241932D01*
X444543Y241893D01*
X444503Y241860D01*
X444464Y241800D01*
X444417Y241745D01*
X444398Y241697D01*
X444370Y241653D01*
X444352Y241584D01*
X444325Y241517D01*
X444317Y241446D01*
X444309Y241415D01*
X444311Y241392D01*
X444307Y241351D01*
X444307Y237802D01*
X441198Y234693D01*
X436802Y234693D01*
G37*
%LPD*%
%LPC*%
G36*
X635802Y695693D02*
X635802Y695693D01*
X632693Y698802D01*
X632693Y703198D01*
X635802Y706307D01*
X640198Y706307D01*
X642962Y703543D01*
X642978Y703532D01*
X642990Y703516D01*
X643078Y703460D01*
X643161Y703400D01*
X643180Y703394D01*
X643197Y703383D01*
X643298Y703358D01*
X643397Y703327D01*
X643416Y703328D01*
X643436Y703323D01*
X643539Y703331D01*
X643642Y703334D01*
X643661Y703340D01*
X643681Y703342D01*
X643776Y703382D01*
X643873Y703418D01*
X643889Y703431D01*
X643907Y703438D01*
X644038Y703543D01*
X646802Y706307D01*
X651198Y706307D01*
X654307Y703198D01*
X654307Y698802D01*
X651198Y695693D01*
X646802Y695693D01*
X644038Y698457D01*
X644022Y698468D01*
X644010Y698484D01*
X643922Y698540D01*
X643839Y698600D01*
X643820Y698606D01*
X643803Y698617D01*
X643702Y698642D01*
X643603Y698673D01*
X643584Y698672D01*
X643564Y698677D01*
X643461Y698669D01*
X643358Y698666D01*
X643339Y698660D01*
X643319Y698658D01*
X643224Y698618D01*
X643127Y698582D01*
X643111Y698569D01*
X643093Y698562D01*
X642962Y698457D01*
X640198Y695693D01*
X635802Y695693D01*
G37*
%LPD*%
%LPC*%
G36*
X591802Y741693D02*
X591802Y741693D01*
X588693Y744802D01*
X588693Y749198D01*
X591457Y751962D01*
X591468Y751978D01*
X591484Y751990D01*
X591540Y752078D01*
X591600Y752161D01*
X591606Y752180D01*
X591617Y752197D01*
X591642Y752298D01*
X591673Y752397D01*
X591672Y752416D01*
X591677Y752436D01*
X591669Y752539D01*
X591666Y752642D01*
X591660Y752661D01*
X591658Y752681D01*
X591618Y752776D01*
X591582Y752873D01*
X591569Y752889D01*
X591562Y752907D01*
X591457Y753038D01*
X588693Y755802D01*
X588693Y760198D01*
X591802Y763307D01*
X596198Y763307D01*
X599307Y760198D01*
X599307Y755802D01*
X596543Y753038D01*
X596532Y753022D01*
X596516Y753010D01*
X596460Y752922D01*
X596400Y752839D01*
X596394Y752820D01*
X596383Y752803D01*
X596358Y752702D01*
X596327Y752603D01*
X596328Y752584D01*
X596323Y752564D01*
X596331Y752461D01*
X596334Y752358D01*
X596340Y752339D01*
X596342Y752319D01*
X596382Y752224D01*
X596418Y752127D01*
X596431Y752111D01*
X596438Y752093D01*
X596543Y751962D01*
X599307Y749198D01*
X599307Y744802D01*
X596198Y741693D01*
X591802Y741693D01*
G37*
%LPD*%
%LPC*%
G36*
X649802Y657693D02*
X649802Y657693D01*
X646693Y660802D01*
X646693Y665198D01*
X649802Y668307D01*
X650351Y668307D01*
X650421Y668318D01*
X650493Y668320D01*
X650542Y668338D01*
X650593Y668346D01*
X650657Y668380D01*
X650724Y668405D01*
X650765Y668437D01*
X650811Y668462D01*
X650860Y668514D01*
X650916Y668558D01*
X650944Y668602D01*
X650980Y668640D01*
X651010Y668705D01*
X651049Y668765D01*
X651062Y668816D01*
X651084Y668863D01*
X651092Y668934D01*
X651109Y669004D01*
X651105Y669056D01*
X651111Y669107D01*
X651096Y669178D01*
X651090Y669249D01*
X651070Y669297D01*
X651059Y669348D01*
X651022Y669409D01*
X650994Y669475D01*
X650949Y669531D01*
X650932Y669559D01*
X650915Y669574D01*
X650889Y669606D01*
X649693Y670802D01*
X649693Y675198D01*
X652802Y678307D01*
X657198Y678307D01*
X660307Y675198D01*
X660307Y670802D01*
X657198Y667693D01*
X656649Y667693D01*
X656579Y667682D01*
X656507Y667680D01*
X656458Y667662D01*
X656407Y667654D01*
X656343Y667620D01*
X656276Y667595D01*
X656235Y667563D01*
X656189Y667538D01*
X656140Y667486D01*
X656084Y667442D01*
X656056Y667398D01*
X656020Y667360D01*
X655990Y667295D01*
X655951Y667235D01*
X655938Y667184D01*
X655916Y667137D01*
X655908Y667066D01*
X655891Y666996D01*
X655895Y666944D01*
X655889Y666893D01*
X655904Y666822D01*
X655910Y666751D01*
X655930Y666703D01*
X655941Y666652D01*
X655978Y666591D01*
X656006Y666525D01*
X656051Y666469D01*
X656068Y666441D01*
X656085Y666426D01*
X656111Y666394D01*
X657307Y665198D01*
X657307Y660802D01*
X654198Y657693D01*
X649802Y657693D01*
G37*
%LPD*%
%LPC*%
G36*
X688802Y666693D02*
X688802Y666693D01*
X685693Y669802D01*
X685693Y674198D01*
X687457Y675962D01*
X687468Y675978D01*
X687484Y675990D01*
X687540Y676078D01*
X687600Y676161D01*
X687606Y676180D01*
X687617Y676197D01*
X687642Y676298D01*
X687673Y676397D01*
X687672Y676416D01*
X687677Y676436D01*
X687669Y676539D01*
X687666Y676642D01*
X687660Y676661D01*
X687658Y676681D01*
X687618Y676776D01*
X687582Y676873D01*
X687569Y676889D01*
X687562Y676907D01*
X687457Y677038D01*
X684693Y679802D01*
X684693Y684198D01*
X687802Y687307D01*
X692198Y687307D01*
X695307Y684198D01*
X695307Y679802D01*
X693543Y678038D01*
X693532Y678022D01*
X693516Y678010D01*
X693460Y677922D01*
X693400Y677839D01*
X693394Y677820D01*
X693383Y677803D01*
X693358Y677702D01*
X693327Y677603D01*
X693328Y677584D01*
X693323Y677564D01*
X693331Y677461D01*
X693334Y677358D01*
X693340Y677339D01*
X693342Y677319D01*
X693382Y677224D01*
X693418Y677127D01*
X693431Y677111D01*
X693438Y677093D01*
X693543Y676962D01*
X696307Y674198D01*
X696307Y669802D01*
X693198Y666693D01*
X688802Y666693D01*
G37*
%LPD*%
%LPC*%
G36*
X669802Y695693D02*
X669802Y695693D01*
X666693Y698802D01*
X666693Y703198D01*
X669802Y706307D01*
X674198Y706307D01*
X676462Y704043D01*
X676478Y704032D01*
X676490Y704016D01*
X676578Y703960D01*
X676661Y703900D01*
X676680Y703894D01*
X676697Y703883D01*
X676798Y703858D01*
X676897Y703827D01*
X676916Y703828D01*
X676936Y703823D01*
X677039Y703831D01*
X677142Y703834D01*
X677161Y703840D01*
X677181Y703842D01*
X677276Y703882D01*
X677373Y703918D01*
X677389Y703931D01*
X677407Y703938D01*
X677538Y704043D01*
X679802Y706307D01*
X684198Y706307D01*
X687307Y703198D01*
X687307Y698802D01*
X684198Y695693D01*
X679802Y695693D01*
X677538Y697957D01*
X677522Y697968D01*
X677510Y697984D01*
X677422Y698040D01*
X677339Y698100D01*
X677320Y698106D01*
X677303Y698117D01*
X677202Y698142D01*
X677103Y698173D01*
X677084Y698172D01*
X677064Y698177D01*
X676961Y698169D01*
X676858Y698166D01*
X676839Y698160D01*
X676819Y698158D01*
X676724Y698118D01*
X676627Y698082D01*
X676611Y698069D01*
X676593Y698062D01*
X676462Y697957D01*
X674198Y695693D01*
X669802Y695693D01*
G37*
%LPD*%
%LPC*%
G36*
X288802Y425693D02*
X288802Y425693D01*
X285693Y428802D01*
X285693Y433198D01*
X287957Y435462D01*
X287968Y435478D01*
X287984Y435490D01*
X288040Y435578D01*
X288100Y435661D01*
X288106Y435680D01*
X288117Y435697D01*
X288142Y435798D01*
X288173Y435897D01*
X288172Y435916D01*
X288177Y435936D01*
X288169Y436039D01*
X288166Y436142D01*
X288160Y436161D01*
X288158Y436181D01*
X288118Y436276D01*
X288082Y436373D01*
X288069Y436389D01*
X288062Y436407D01*
X287957Y436538D01*
X285693Y438802D01*
X285693Y443198D01*
X288802Y446307D01*
X293198Y446307D01*
X296307Y443198D01*
X296307Y438802D01*
X294043Y436538D01*
X294032Y436522D01*
X294016Y436510D01*
X293960Y436422D01*
X293900Y436339D01*
X293894Y436320D01*
X293883Y436303D01*
X293858Y436202D01*
X293827Y436103D01*
X293828Y436084D01*
X293823Y436064D01*
X293831Y435961D01*
X293834Y435858D01*
X293840Y435839D01*
X293842Y435819D01*
X293882Y435724D01*
X293918Y435627D01*
X293931Y435611D01*
X293938Y435593D01*
X294043Y435462D01*
X296307Y433198D01*
X296307Y428802D01*
X293198Y425693D01*
X288802Y425693D01*
G37*
%LPD*%
%LPC*%
G36*
X265802Y719693D02*
X265802Y719693D01*
X262693Y722802D01*
X262693Y727198D01*
X265802Y730307D01*
X270198Y730307D01*
X273307Y727198D01*
X273307Y722802D01*
X270198Y719693D01*
X265802Y719693D01*
G37*
%LPD*%
%LPC*%
G36*
X626802Y726693D02*
X626802Y726693D01*
X623693Y729802D01*
X623693Y734198D01*
X626802Y737307D01*
X631198Y737307D01*
X634307Y734198D01*
X634307Y729802D01*
X631198Y726693D01*
X626802Y726693D01*
G37*
%LPD*%
%LPC*%
G36*
X781802Y715693D02*
X781802Y715693D01*
X778693Y718802D01*
X778693Y723198D01*
X781802Y726307D01*
X786198Y726307D01*
X789307Y723198D01*
X789307Y718802D01*
X786198Y715693D01*
X781802Y715693D01*
G37*
%LPD*%
%LPC*%
G36*
X508894Y714813D02*
X508894Y714813D01*
X505785Y717922D01*
X505785Y722318D01*
X508894Y725427D01*
X513290Y725427D01*
X516399Y722318D01*
X516399Y717922D01*
X513290Y714813D01*
X508894Y714813D01*
G37*
%LPD*%
%LPC*%
G36*
X518802Y232693D02*
X518802Y232693D01*
X515693Y235802D01*
X515693Y240198D01*
X518802Y243307D01*
X523198Y243307D01*
X526307Y240198D01*
X526307Y235802D01*
X523198Y232693D01*
X518802Y232693D01*
G37*
%LPD*%
%LPC*%
G36*
X566802Y833693D02*
X566802Y833693D01*
X563693Y836802D01*
X563693Y841198D01*
X566802Y844307D01*
X571198Y844307D01*
X574307Y841198D01*
X574307Y836802D01*
X571198Y833693D01*
X566802Y833693D01*
G37*
%LPD*%
%LPC*%
G36*
X756802Y707693D02*
X756802Y707693D01*
X753693Y710802D01*
X753693Y715198D01*
X756802Y718307D01*
X761198Y718307D01*
X764307Y715198D01*
X764307Y710802D01*
X761198Y707693D01*
X756802Y707693D01*
G37*
%LPD*%
%LPC*%
G36*
X772802Y726693D02*
X772802Y726693D01*
X769693Y729802D01*
X769693Y734198D01*
X772802Y737307D01*
X777198Y737307D01*
X780307Y734198D01*
X780307Y729802D01*
X777198Y726693D01*
X772802Y726693D01*
G37*
%LPD*%
%LPC*%
G36*
X744802Y696693D02*
X744802Y696693D01*
X741693Y699802D01*
X741693Y704198D01*
X744802Y707307D01*
X749198Y707307D01*
X752307Y704198D01*
X752307Y699802D01*
X749198Y696693D01*
X744802Y696693D01*
G37*
%LPD*%
%LPC*%
G36*
X693802Y696693D02*
X693802Y696693D01*
X690693Y699802D01*
X690693Y704198D01*
X693802Y707307D01*
X698198Y707307D01*
X701307Y704198D01*
X701307Y699802D01*
X698198Y696693D01*
X693802Y696693D01*
G37*
%LPD*%
%LPC*%
G36*
X802802Y727693D02*
X802802Y727693D01*
X799693Y730802D01*
X799693Y735198D01*
X802802Y738307D01*
X807198Y738307D01*
X810307Y735198D01*
X810307Y730802D01*
X807198Y727693D01*
X802802Y727693D01*
G37*
%LPD*%
%LPC*%
G36*
X433802Y741693D02*
X433802Y741693D01*
X430693Y744802D01*
X430693Y749198D01*
X433802Y752307D01*
X438198Y752307D01*
X441307Y749198D01*
X441307Y744802D01*
X438198Y741693D01*
X433802Y741693D01*
G37*
%LPD*%
%LPC*%
G36*
X791802Y691693D02*
X791802Y691693D01*
X788693Y694802D01*
X788693Y699198D01*
X791802Y702307D01*
X796198Y702307D01*
X799307Y699198D01*
X799307Y694802D01*
X796198Y691693D01*
X791802Y691693D01*
G37*
%LPD*%
%LPC*%
G36*
X548802Y742693D02*
X548802Y742693D01*
X545693Y745802D01*
X545693Y750198D01*
X548802Y753307D01*
X553198Y753307D01*
X556307Y750198D01*
X556307Y745802D01*
X553198Y742693D01*
X548802Y742693D01*
G37*
%LPD*%
%LPC*%
G36*
X275802Y744693D02*
X275802Y744693D01*
X272693Y747802D01*
X272693Y752198D01*
X275802Y755307D01*
X280198Y755307D01*
X283307Y752198D01*
X283307Y747802D01*
X280198Y744693D01*
X275802Y744693D01*
G37*
%LPD*%
%LPC*%
G36*
X329802Y761693D02*
X329802Y761693D01*
X326693Y764802D01*
X326693Y769198D01*
X329802Y772307D01*
X334198Y772307D01*
X337307Y769198D01*
X337307Y764802D01*
X334198Y761693D01*
X329802Y761693D01*
G37*
%LPD*%
%LPC*%
G36*
X675802Y665693D02*
X675802Y665693D01*
X672693Y668802D01*
X672693Y673198D01*
X675802Y676307D01*
X680198Y676307D01*
X683307Y673198D01*
X683307Y668802D01*
X680198Y665693D01*
X675802Y665693D01*
G37*
%LPD*%
%LPC*%
G36*
X688802Y652693D02*
X688802Y652693D01*
X685693Y655802D01*
X685693Y660198D01*
X688802Y663307D01*
X693198Y663307D01*
X696307Y660198D01*
X696307Y655802D01*
X693198Y652693D01*
X688802Y652693D01*
G37*
%LPD*%
%LPC*%
G36*
X724802Y762693D02*
X724802Y762693D01*
X721693Y765802D01*
X721693Y770198D01*
X724802Y773307D01*
X729198Y773307D01*
X732307Y770198D01*
X732307Y765802D01*
X729198Y762693D01*
X724802Y762693D01*
G37*
%LPD*%
%LPC*%
G36*
X761802Y769693D02*
X761802Y769693D01*
X758693Y772802D01*
X758693Y777198D01*
X761802Y780307D01*
X766198Y780307D01*
X769307Y777198D01*
X769307Y772802D01*
X766198Y769693D01*
X761802Y769693D01*
G37*
%LPD*%
%LPC*%
G36*
X317802Y585693D02*
X317802Y585693D01*
X314693Y588802D01*
X314693Y593198D01*
X317802Y596307D01*
X322198Y596307D01*
X325307Y593198D01*
X325307Y588802D01*
X322198Y585693D01*
X317802Y585693D01*
G37*
%LPD*%
%LPC*%
G36*
X291802Y582693D02*
X291802Y582693D01*
X288693Y585802D01*
X288693Y590198D01*
X291802Y593307D01*
X296198Y593307D01*
X299307Y590198D01*
X299307Y585802D01*
X296198Y582693D01*
X291802Y582693D01*
G37*
%LPD*%
%LPC*%
G36*
X497802Y770693D02*
X497802Y770693D01*
X494693Y773802D01*
X494693Y778198D01*
X497802Y781307D01*
X502198Y781307D01*
X505307Y778198D01*
X505307Y773802D01*
X502198Y770693D01*
X497802Y770693D01*
G37*
%LPD*%
%LPC*%
G36*
X707802Y572693D02*
X707802Y572693D01*
X704693Y575802D01*
X704693Y580198D01*
X707802Y583307D01*
X712198Y583307D01*
X715307Y580198D01*
X715307Y575802D01*
X712198Y572693D01*
X707802Y572693D01*
G37*
%LPD*%
%LPC*%
G36*
X243802Y554693D02*
X243802Y554693D01*
X240693Y557802D01*
X240693Y562198D01*
X243802Y565307D01*
X248198Y565307D01*
X251307Y562198D01*
X251307Y557802D01*
X248198Y554693D01*
X243802Y554693D01*
G37*
%LPD*%
%LPC*%
G36*
X742802Y546693D02*
X742802Y546693D01*
X739693Y549802D01*
X739693Y554198D01*
X742802Y557307D01*
X747198Y557307D01*
X750307Y554198D01*
X750307Y549802D01*
X747198Y546693D01*
X742802Y546693D01*
G37*
%LPD*%
%LPC*%
G36*
X342802Y540693D02*
X342802Y540693D01*
X339693Y543802D01*
X339693Y548198D01*
X342802Y551307D01*
X347198Y551307D01*
X350307Y548198D01*
X350307Y543802D01*
X347198Y540693D01*
X342802Y540693D01*
G37*
%LPD*%
%LPC*%
G36*
X342802Y493693D02*
X342802Y493693D01*
X339693Y496802D01*
X339693Y501198D01*
X342802Y504307D01*
X347198Y504307D01*
X350307Y501198D01*
X350307Y496802D01*
X347198Y493693D01*
X342802Y493693D01*
G37*
%LPD*%
%LPC*%
G36*
X316802Y479693D02*
X316802Y479693D01*
X313693Y482802D01*
X313693Y487198D01*
X316802Y490307D01*
X321198Y490307D01*
X324307Y487198D01*
X324307Y482802D01*
X321198Y479693D01*
X316802Y479693D01*
G37*
%LPD*%
%LPC*%
G36*
X272802Y269693D02*
X272802Y269693D01*
X269693Y272802D01*
X269693Y277198D01*
X272802Y280307D01*
X277198Y280307D01*
X280307Y277198D01*
X280307Y272802D01*
X277198Y269693D01*
X272802Y269693D01*
G37*
%LPD*%
%LPC*%
G36*
X409802Y282693D02*
X409802Y282693D01*
X406693Y285802D01*
X406693Y290198D01*
X409802Y293307D01*
X414198Y293307D01*
X417307Y290198D01*
X417307Y285802D01*
X414198Y282693D01*
X409802Y282693D01*
G37*
%LPD*%
%LPC*%
G36*
X414802Y304693D02*
X414802Y304693D01*
X411693Y307802D01*
X411693Y312198D01*
X414802Y315307D01*
X419198Y315307D01*
X422307Y312198D01*
X422307Y307802D01*
X419198Y304693D01*
X414802Y304693D01*
G37*
%LPD*%
%LPC*%
G36*
X515802Y209693D02*
X515802Y209693D01*
X512693Y212802D01*
X512693Y217198D01*
X515802Y220307D01*
X520198Y220307D01*
X523307Y217198D01*
X523307Y212802D01*
X520198Y209693D01*
X515802Y209693D01*
G37*
%LPD*%
%LPC*%
G36*
X492802Y826693D02*
X492802Y826693D01*
X489693Y829802D01*
X489693Y834198D01*
X492802Y837307D01*
X497198Y837307D01*
X500307Y834198D01*
X500307Y829802D01*
X497198Y826693D01*
X492802Y826693D01*
G37*
%LPD*%
%LPC*%
G36*
X274802Y326693D02*
X274802Y326693D01*
X271693Y329802D01*
X271693Y334198D01*
X274802Y337307D01*
X279198Y337307D01*
X282307Y334198D01*
X282307Y329802D01*
X279198Y326693D01*
X274802Y326693D01*
G37*
%LPD*%
%LPC*%
G36*
X725802Y824693D02*
X725802Y824693D01*
X722693Y827802D01*
X722693Y832198D01*
X725802Y835307D01*
X730198Y835307D01*
X733307Y832198D01*
X733307Y827802D01*
X730198Y824693D01*
X725802Y824693D01*
G37*
%LPD*%
%LPC*%
G36*
X777802Y776693D02*
X777802Y776693D01*
X774693Y779802D01*
X774693Y784198D01*
X777802Y787307D01*
X782198Y787307D01*
X785307Y784198D01*
X785307Y779802D01*
X782198Y776693D01*
X777802Y776693D01*
G37*
%LPD*%
%LPC*%
G36*
X581802Y782693D02*
X581802Y782693D01*
X578693Y785802D01*
X578693Y790198D01*
X581802Y793307D01*
X586198Y793307D01*
X589307Y790198D01*
X589307Y785802D01*
X586198Y782693D01*
X581802Y782693D01*
G37*
%LPD*%
%LPC*%
G36*
X585802Y814693D02*
X585802Y814693D01*
X582693Y817802D01*
X582693Y822198D01*
X585802Y825307D01*
X590198Y825307D01*
X593307Y822198D01*
X593307Y817802D01*
X590198Y814693D01*
X585802Y814693D01*
G37*
%LPD*%
%LPC*%
G36*
X496802Y813693D02*
X496802Y813693D01*
X493693Y816802D01*
X493693Y821198D01*
X496802Y824307D01*
X501198Y824307D01*
X504307Y821198D01*
X504307Y816802D01*
X501198Y813693D01*
X496802Y813693D01*
G37*
%LPD*%
%LPC*%
G36*
X517802Y793093D02*
X517802Y793093D01*
X514693Y796202D01*
X514693Y800598D01*
X517802Y803707D01*
X522198Y803707D01*
X525307Y800598D01*
X525307Y796202D01*
X522198Y793093D01*
X517802Y793093D01*
G37*
%LPD*%
%LPC*%
G36*
X410802Y714693D02*
X410802Y714693D01*
X407693Y717802D01*
X407693Y722198D01*
X410802Y725307D01*
X415198Y725307D01*
X418307Y722198D01*
X418307Y717802D01*
X415198Y714693D01*
X410802Y714693D01*
G37*
%LPD*%
%LPC*%
G36*
X422802Y709693D02*
X422802Y709693D01*
X419693Y712802D01*
X419693Y717198D01*
X422802Y720307D01*
X427198Y720307D01*
X430307Y717198D01*
X430307Y712802D01*
X427198Y709693D01*
X422802Y709693D01*
G37*
%LPD*%
%LPC*%
G36*
X855793Y442243D02*
X855793Y442243D01*
X855793Y450766D01*
X856649Y450631D01*
X858170Y450136D01*
X859595Y449410D01*
X860889Y448470D01*
X862020Y447339D01*
X862960Y446045D01*
X863686Y444620D01*
X864181Y443099D01*
X864316Y442243D01*
X855793Y442243D01*
G37*
%LPD*%
%LPC*%
G36*
X855793Y467643D02*
X855793Y467643D01*
X855793Y476166D01*
X856649Y476031D01*
X858170Y475536D01*
X859595Y474810D01*
X860889Y473870D01*
X862020Y472739D01*
X862960Y471445D01*
X863686Y470020D01*
X864181Y468499D01*
X864316Y467643D01*
X855793Y467643D01*
G37*
%LPD*%
%LPC*%
G36*
X844224Y467643D02*
X844224Y467643D01*
X844359Y468499D01*
X844854Y470020D01*
X845580Y471445D01*
X846520Y472739D01*
X847651Y473870D01*
X848945Y474810D01*
X850370Y475536D01*
X851891Y476031D01*
X852747Y476166D01*
X852747Y467643D01*
X844224Y467643D01*
G37*
%LPD*%
%LPC*%
G36*
X855793Y464597D02*
X855793Y464597D01*
X864316Y464597D01*
X864181Y463741D01*
X863686Y462220D01*
X862960Y460795D01*
X862020Y459501D01*
X860889Y458370D01*
X859595Y457430D01*
X858170Y456704D01*
X856649Y456209D01*
X855793Y456074D01*
X855793Y464597D01*
G37*
%LPD*%
%LPC*%
G36*
X855793Y439197D02*
X855793Y439197D01*
X864316Y439197D01*
X864181Y438341D01*
X863686Y436820D01*
X862960Y435395D01*
X862020Y434101D01*
X860889Y432970D01*
X859595Y432030D01*
X858170Y431304D01*
X856649Y430809D01*
X855793Y430674D01*
X855793Y439197D01*
G37*
%LPD*%
%LPC*%
G36*
X844224Y442243D02*
X844224Y442243D01*
X844359Y443099D01*
X844854Y444620D01*
X845580Y446045D01*
X846520Y447339D01*
X847651Y448470D01*
X848945Y449410D01*
X850370Y450136D01*
X851891Y450631D01*
X852747Y450766D01*
X852747Y442243D01*
X844224Y442243D01*
G37*
%LPD*%
%LPC*%
G36*
X851891Y456209D02*
X851891Y456209D01*
X850370Y456704D01*
X848945Y457430D01*
X847651Y458370D01*
X846520Y459501D01*
X845580Y460795D01*
X844854Y462220D01*
X844359Y463741D01*
X844224Y464597D01*
X852747Y464597D01*
X852747Y456074D01*
X851891Y456209D01*
G37*
%LPD*%
%LPC*%
G36*
X851891Y430809D02*
X851891Y430809D01*
X850370Y431304D01*
X848945Y432030D01*
X847651Y432970D01*
X846520Y434101D01*
X845580Y435395D01*
X844854Y436820D01*
X844359Y438341D01*
X844224Y439197D01*
X852747Y439197D01*
X852747Y430674D01*
X851891Y430809D01*
G37*
%LPD*%
%LPC*%
G36*
X599223Y234123D02*
X599223Y234123D01*
X599223Y242565D01*
X600061Y242433D01*
X601570Y241942D01*
X602983Y241222D01*
X604267Y240289D01*
X605389Y239167D01*
X606322Y237883D01*
X607042Y236470D01*
X607533Y234961D01*
X607665Y234123D01*
X599223Y234123D01*
G37*
%LPD*%
%LPC*%
G36*
X743223Y355623D02*
X743223Y355623D01*
X743223Y364065D01*
X744061Y363933D01*
X745570Y363442D01*
X746983Y362722D01*
X748267Y361789D01*
X749389Y360667D01*
X750322Y359383D01*
X751042Y357970D01*
X751533Y356461D01*
X751665Y355623D01*
X743223Y355623D01*
G37*
%LPD*%
%LPC*%
G36*
X743223Y352577D02*
X743223Y352577D01*
X751665Y352577D01*
X751533Y351739D01*
X751042Y350230D01*
X750322Y348817D01*
X749389Y347533D01*
X748267Y346411D01*
X746983Y345478D01*
X745570Y344758D01*
X744061Y344267D01*
X743223Y344135D01*
X743223Y352577D01*
G37*
%LPD*%
%LPC*%
G36*
X731735Y355623D02*
X731735Y355623D01*
X731867Y356461D01*
X732358Y357970D01*
X733078Y359383D01*
X734011Y360667D01*
X735133Y361789D01*
X736417Y362722D01*
X737830Y363442D01*
X739339Y363933D01*
X740177Y364065D01*
X740177Y355623D01*
X731735Y355623D01*
G37*
%LPD*%
%LPC*%
G36*
X587735Y234123D02*
X587735Y234123D01*
X587867Y234961D01*
X588358Y236470D01*
X589078Y237883D01*
X590011Y239167D01*
X591133Y240289D01*
X592417Y241222D01*
X593830Y241942D01*
X595339Y242433D01*
X596177Y242565D01*
X596177Y234123D01*
X587735Y234123D01*
G37*
%LPD*%
%LPC*%
G36*
X599223Y231077D02*
X599223Y231077D01*
X607665Y231077D01*
X607533Y230239D01*
X607042Y228730D01*
X606322Y227317D01*
X605389Y226033D01*
X604267Y224911D01*
X602983Y223978D01*
X601570Y223258D01*
X600061Y222767D01*
X599223Y222635D01*
X599223Y231077D01*
G37*
%LPD*%
%LPC*%
G36*
X595339Y222767D02*
X595339Y222767D01*
X593830Y223258D01*
X592417Y223978D01*
X591133Y224911D01*
X590011Y226033D01*
X589078Y227317D01*
X588358Y228730D01*
X587867Y230239D01*
X587735Y231077D01*
X596177Y231077D01*
X596177Y222635D01*
X595339Y222767D01*
G37*
%LPD*%
%LPC*%
G36*
X739339Y344267D02*
X739339Y344267D01*
X737830Y344758D01*
X736417Y345478D01*
X735133Y346411D01*
X734011Y347533D01*
X733078Y348817D01*
X732358Y350230D01*
X731867Y351739D01*
X731735Y352577D01*
X740177Y352577D01*
X740177Y344135D01*
X739339Y344267D01*
G37*
%LPD*%
%LPC*%
G36*
X597699Y232599D02*
X597699Y232599D01*
X597699Y232601D01*
X597701Y232601D01*
X597701Y232599D01*
X597699Y232599D01*
G37*
%LPD*%
%LPC*%
G36*
X741699Y354099D02*
X741699Y354099D01*
X741699Y354101D01*
X741701Y354101D01*
X741701Y354099D01*
X741699Y354099D01*
G37*
%LPD*%
%LPC*%
G36*
X854269Y440719D02*
X854269Y440719D01*
X854269Y440721D01*
X854271Y440721D01*
X854271Y440719D01*
X854269Y440719D01*
G37*
%LPD*%
%LPC*%
G36*
X854269Y466119D02*
X854269Y466119D01*
X854269Y466121D01*
X854271Y466121D01*
X854271Y466119D01*
X854269Y466119D01*
G37*
%LPD*%
D10*
X597700Y307600D03*
X597700Y232600D03*
X741700Y429100D03*
X741700Y354100D03*
D11*
X854270Y389920D03*
X854270Y415320D03*
X854270Y440720D03*
X854270Y466120D03*
X708700Y755900D03*
X683300Y755900D03*
X708700Y781300D03*
X683300Y781300D03*
X708700Y806700D03*
X683300Y806700D03*
X708700Y832100D03*
X683300Y832100D03*
D12*
X322000Y444000D03*
X333000Y444000D03*
X344000Y444000D03*
X355000Y444000D03*
X366000Y444000D03*
X377000Y444000D03*
X388000Y409000D03*
X322000Y432000D03*
X333000Y432000D03*
X344000Y432000D03*
X355000Y432000D03*
X366000Y432000D03*
X377000Y432000D03*
X322000Y421000D03*
X333000Y421000D03*
X344000Y421000D03*
X355000Y421000D03*
X366000Y421000D03*
X377000Y421000D03*
X322000Y409000D03*
X333000Y409000D03*
X344000Y409000D03*
X355000Y409000D03*
X366000Y409000D03*
X377000Y409000D03*
X355000Y398000D03*
X366000Y398000D03*
X377000Y398000D03*
X388000Y398000D03*
X399000Y398000D03*
X410000Y398000D03*
X355000Y386000D03*
X366000Y386000D03*
X377000Y386000D03*
X388000Y386000D03*
X399000Y386000D03*
X410000Y386000D03*
X366000Y375000D03*
X377000Y375000D03*
X388000Y375000D03*
X399000Y375000D03*
X410000Y375000D03*
X421000Y375000D03*
X366000Y363000D03*
X377000Y363000D03*
X388000Y363000D03*
X399000Y363000D03*
X410000Y363000D03*
X421000Y363000D03*
X819000Y642000D03*
X830000Y642000D03*
X840000Y641000D03*
X847000Y634000D03*
X853000Y626000D03*
X859000Y617000D03*
X818000Y697000D03*
X319000Y485000D03*
X807000Y603000D03*
X708000Y522000D03*
X726000Y522000D03*
X752000Y522000D03*
X805000Y522000D03*
X854000Y522000D03*
X876000Y522000D03*
X304000Y711000D03*
X346000Y758000D03*
X524000Y869000D03*
X574000Y885000D03*
X661000Y779000D03*
X561000Y716000D03*
X542000Y687000D03*
X737000Y604000D03*
X297000Y574000D03*
X279000Y580000D03*
X235000Y539000D03*
X275000Y285000D03*
X397000Y262000D03*
X562000Y261000D03*
X189000Y423000D03*
X191000Y412000D03*
X203000Y387000D03*
X214000Y386000D03*
X223000Y392000D03*
X223000Y402000D03*
X220000Y412000D03*
X412000Y346000D03*
X422000Y346000D03*
X432000Y346000D03*
X442000Y343000D03*
X450000Y336000D03*
X457000Y329000D03*
X312000Y367000D03*
X321000Y363000D03*
X329000Y357000D03*
X335000Y349000D03*
X324000Y348000D03*
X314000Y356000D03*
X313000Y345000D03*
X320000Y337000D03*
X509000Y272000D03*
X517000Y280000D03*
X520000Y271000D03*
X528000Y280000D03*
X532000Y271000D03*
X539000Y280000D03*
X544000Y271000D03*
X550000Y280000D03*
X555000Y271000D03*
X561000Y280000D03*
X567000Y271000D03*
X573000Y280000D03*
X316000Y253000D03*
X803000Y687000D03*
X578000Y271000D03*
X579000Y252000D03*
X565000Y251000D03*
X370000Y224000D03*
X437000Y805000D03*
X479000Y770000D03*
X254000Y385000D03*
X536000Y803200D03*
X556700Y814000D03*
X566100Y799700D03*
X579400Y808400D03*
X522800Y827800D03*
X478500Y894000D03*
X371600Y822400D03*
X440400Y831700D03*
X411700Y758300D03*
X338300Y674300D03*
X234300Y720300D03*
X636500Y804100D03*
X828600Y745700D03*
X809000Y776400D03*
X721100Y701500D03*
X710000Y852000D03*
X511092Y720120D03*
X246000Y560000D03*
X294000Y588000D03*
X320000Y591000D03*
X500000Y776000D03*
X498000Y736000D03*
X520000Y798400D03*
X551000Y748000D03*
X499000Y819000D03*
X332000Y767000D03*
X638000Y701000D03*
X691000Y658000D03*
X718000Y652000D03*
X649000Y701000D03*
X678000Y671000D03*
X690000Y682000D03*
X587000Y728000D03*
X691000Y672000D03*
X581000Y719000D03*
X568000Y722000D03*
X747000Y583000D03*
D13*
X748000Y572000D03*
D12*
X558000Y725000D03*
X655000Y673000D03*
X745000Y552000D03*
X548000Y723000D03*
X652000Y663000D03*
X710000Y578000D03*
X488000Y737000D03*
X478000Y732000D03*
X584000Y788000D03*
X727000Y768000D03*
X495000Y832000D03*
X569000Y839000D03*
X588000Y820000D03*
X672000Y701000D03*
X729000Y611000D03*
X682000Y701000D03*
X720000Y616000D03*
X696000Y702000D03*
X714000Y625000D03*
X629000Y732000D03*
X425000Y715000D03*
X597000Y732000D03*
X413000Y720000D03*
X594000Y747000D03*
X436000Y747000D03*
X594000Y758000D03*
X747000Y702000D03*
X794000Y697000D03*
X759000Y713000D03*
X810000Y705000D03*
X268000Y725000D03*
X278000Y750000D03*
X345000Y499000D03*
X345000Y546000D03*
X724000Y631000D03*
X412000Y288000D03*
X291000Y431000D03*
X291000Y441000D03*
X345000Y339000D03*
X335000Y333000D03*
X417000Y310000D03*
X449000Y246000D03*
X439000Y240000D03*
X521000Y238000D03*
X720000Y640000D03*
X775000Y732000D03*
X784000Y721000D03*
X805000Y733000D03*
X518000Y215000D03*
X275000Y275000D03*
X277000Y332000D03*
X780000Y782000D03*
X764000Y775000D03*
X728000Y830000D03*
M02*
