G04 EAGLE Gerber X2 export*
%TF.Part,Single*%
%TF.FileFunction,Soldermask,Top,1*%
%TF.FilePolarity,Negative*%
%TF.GenerationSoftware,Autodesk,EAGLE,8.6.0*%
%TF.CreationDate,2018-04-20T16:04:26Z*%
G75*
%MOMM*%
%FSLAX34Y34*%
%LPD*%
%AMOC8*
5,1,8,0,0,1.08239X$1,22.5*%
G01*
%ADD10C,1.803200*%
%ADD11R,0.762000X2.184400*%
%ADD12R,3.203200X2.203200*%
%ADD13R,0.903200X1.103200*%
%ADD14R,1.103200X0.903200*%
%ADD15R,2.603200X2.603200*%
%ADD16C,0.360959*%
%ADD17R,0.803200X1.403200*%
%ADD18R,0.903200X0.803200*%
%ADD19R,3.403200X2.003200*%
%ADD20R,0.803200X0.903200*%
%ADD21R,1.503200X1.703200*%
%ADD22R,1.703200X1.503200*%
%ADD23R,2.003200X3.403200*%
%ADD24R,3.803200X2.003200*%
%ADD25R,2.003200X3.803200*%
%ADD26C,0.175159*%
%ADD27C,0.067978*%
%ADD28C,0.086728*%
%ADD29C,1.711200*%
%ADD30R,3.003200X2.303200*%
%ADD31C,0.150800*%
%ADD32C,2.082800*%
%ADD33C,0.959600*%
%ADD34C,1.009600*%


D10*
X897000Y642000D03*
X857000Y722000D03*
X688000Y867000D03*
X513000Y897000D03*
X263000Y779000D03*
X414000Y877000D03*
D11*
X376738Y617668D03*
X364038Y617668D03*
X351338Y617668D03*
X338638Y617668D03*
X338638Y568392D03*
X351338Y568392D03*
X364038Y568392D03*
X376738Y568392D03*
X310356Y618844D03*
X297656Y618844D03*
X284956Y618844D03*
X272256Y618844D03*
X272256Y569568D03*
X284956Y569568D03*
X297656Y569568D03*
X310356Y569568D03*
D12*
X240678Y670802D03*
X240678Y610802D03*
D13*
X759200Y644700D03*
X746200Y644700D03*
X430900Y192200D03*
X417900Y192200D03*
D14*
X338800Y277400D03*
X338800Y264400D03*
D13*
X490200Y821700D03*
X477200Y821700D03*
D12*
X301964Y528610D03*
X301964Y468610D03*
D13*
X495800Y720200D03*
X482800Y720200D03*
D12*
X348080Y703808D03*
X348080Y643808D03*
D13*
X746800Y817200D03*
X733800Y817200D03*
D14*
X221300Y435300D03*
X221300Y422300D03*
X761700Y787800D03*
X761700Y800800D03*
D13*
X746676Y632902D03*
X759676Y632902D03*
X746422Y621518D03*
X759422Y621518D03*
D12*
X359696Y529452D03*
X359696Y469452D03*
D13*
X746676Y610150D03*
X759676Y610150D03*
D14*
X783966Y745952D03*
X783966Y758952D03*
X766550Y745870D03*
X766550Y758870D03*
X801036Y746766D03*
X801036Y759766D03*
D13*
X386228Y345904D03*
X399228Y345904D03*
D14*
X305116Y390040D03*
X305116Y377040D03*
D13*
X488472Y261936D03*
X501472Y261936D03*
D15*
X290270Y647258D03*
X290270Y691258D03*
X400208Y637718D03*
X400208Y681718D03*
D16*
X736141Y671111D02*
X736141Y662689D01*
X727719Y662689D01*
X727719Y671111D01*
X736141Y671111D01*
X736141Y666298D02*
X727719Y666298D01*
X727719Y669907D02*
X736141Y669907D01*
X753681Y671111D02*
X753681Y662689D01*
X745259Y662689D01*
X745259Y671111D01*
X753681Y671111D01*
X753681Y666298D02*
X745259Y666298D01*
X745259Y669907D02*
X753681Y669907D01*
D17*
X726000Y504000D03*
X726000Y540000D03*
X708000Y540000D03*
X708000Y504000D03*
X776000Y504000D03*
X776000Y540000D03*
X758000Y540000D03*
X758000Y504000D03*
X826000Y504000D03*
X826000Y540000D03*
X808000Y540000D03*
X808000Y504000D03*
X876000Y504000D03*
X876000Y540000D03*
X858000Y540000D03*
X858000Y504000D03*
D18*
X730800Y654200D03*
X730800Y644200D03*
D19*
X427628Y325240D03*
X427628Y269240D03*
X535644Y254016D03*
X535644Y198016D03*
D20*
X479400Y800300D03*
X489400Y800300D03*
D18*
X875650Y492170D03*
X875650Y482170D03*
X858050Y551470D03*
X858050Y561470D03*
D20*
X566700Y734400D03*
X556700Y734400D03*
D18*
X827150Y492170D03*
X827150Y482170D03*
X808850Y552670D03*
X808850Y562670D03*
X775654Y492910D03*
X775654Y482910D03*
X758350Y551870D03*
X758350Y561870D03*
X726546Y492186D03*
X726546Y482186D03*
X708550Y553470D03*
X708550Y563470D03*
D21*
X381008Y211622D03*
X400008Y211622D03*
X299690Y269954D03*
X318690Y269954D03*
D22*
X205418Y399384D03*
X205418Y418384D03*
D20*
X742000Y655500D03*
X752000Y655500D03*
D18*
X717200Y660700D03*
X717200Y670700D03*
D23*
X296688Y347150D03*
X240688Y347150D03*
D24*
X452582Y684612D03*
X452582Y777612D03*
D25*
X400814Y785508D03*
X307814Y785508D03*
D26*
X465432Y191092D02*
X498712Y191092D01*
X465432Y191092D02*
X465432Y245372D01*
X498712Y245372D01*
X498712Y191092D01*
X498712Y192843D02*
X465432Y192843D01*
X465432Y194594D02*
X498712Y194594D01*
X498712Y196345D02*
X465432Y196345D01*
X465432Y198096D02*
X498712Y198096D01*
X498712Y199847D02*
X465432Y199847D01*
X465432Y201598D02*
X498712Y201598D01*
X498712Y203349D02*
X465432Y203349D01*
X465432Y205100D02*
X498712Y205100D01*
X498712Y206851D02*
X465432Y206851D01*
X465432Y208602D02*
X498712Y208602D01*
X498712Y210353D02*
X465432Y210353D01*
X465432Y212104D02*
X498712Y212104D01*
X498712Y213855D02*
X465432Y213855D01*
X465432Y215606D02*
X498712Y215606D01*
X498712Y217357D02*
X465432Y217357D01*
X465432Y219108D02*
X498712Y219108D01*
X498712Y220859D02*
X465432Y220859D01*
X465432Y222610D02*
X498712Y222610D01*
X498712Y224361D02*
X465432Y224361D01*
X465432Y226112D02*
X498712Y226112D01*
X498712Y227863D02*
X465432Y227863D01*
X465432Y229614D02*
X498712Y229614D01*
X498712Y231365D02*
X465432Y231365D01*
X465432Y233116D02*
X498712Y233116D01*
X498712Y234867D02*
X465432Y234867D01*
X465432Y236618D02*
X498712Y236618D01*
X498712Y238369D02*
X465432Y238369D01*
X465432Y240120D02*
X498712Y240120D01*
X498712Y241871D02*
X465432Y241871D01*
X465432Y243622D02*
X498712Y243622D01*
D27*
X462748Y245158D02*
X462748Y241306D01*
X454396Y241306D01*
X454396Y245158D01*
X462748Y245158D01*
X462748Y241985D02*
X454396Y241985D01*
X454396Y242664D02*
X462748Y242664D01*
X462748Y243343D02*
X454396Y243343D01*
X454396Y244022D02*
X462748Y244022D01*
X462748Y244701D02*
X454396Y244701D01*
X509748Y245158D02*
X509748Y241306D01*
X501396Y241306D01*
X501396Y245158D01*
X509748Y245158D01*
X509748Y241985D02*
X501396Y241985D01*
X501396Y242664D02*
X509748Y242664D01*
X509748Y243343D02*
X501396Y243343D01*
X501396Y244022D02*
X509748Y244022D01*
X509748Y244701D02*
X501396Y244701D01*
X462748Y240158D02*
X462748Y236306D01*
X454396Y236306D01*
X454396Y240158D01*
X462748Y240158D01*
X462748Y236985D02*
X454396Y236985D01*
X454396Y237664D02*
X462748Y237664D01*
X462748Y238343D02*
X454396Y238343D01*
X454396Y239022D02*
X462748Y239022D01*
X462748Y239701D02*
X454396Y239701D01*
X462748Y235158D02*
X462748Y231306D01*
X454396Y231306D01*
X454396Y235158D01*
X462748Y235158D01*
X462748Y231985D02*
X454396Y231985D01*
X454396Y232664D02*
X462748Y232664D01*
X462748Y233343D02*
X454396Y233343D01*
X454396Y234022D02*
X462748Y234022D01*
X462748Y234701D02*
X454396Y234701D01*
X462748Y230158D02*
X462748Y226306D01*
X454396Y226306D01*
X454396Y230158D01*
X462748Y230158D01*
X462748Y226985D02*
X454396Y226985D01*
X454396Y227664D02*
X462748Y227664D01*
X462748Y228343D02*
X454396Y228343D01*
X454396Y229022D02*
X462748Y229022D01*
X462748Y229701D02*
X454396Y229701D01*
X462748Y225158D02*
X462748Y221306D01*
X454396Y221306D01*
X454396Y225158D01*
X462748Y225158D01*
X462748Y221985D02*
X454396Y221985D01*
X454396Y222664D02*
X462748Y222664D01*
X462748Y223343D02*
X454396Y223343D01*
X454396Y224022D02*
X462748Y224022D01*
X462748Y224701D02*
X454396Y224701D01*
X462748Y220158D02*
X462748Y216306D01*
X454396Y216306D01*
X454396Y220158D01*
X462748Y220158D01*
X462748Y216985D02*
X454396Y216985D01*
X454396Y217664D02*
X462748Y217664D01*
X462748Y218343D02*
X454396Y218343D01*
X454396Y219022D02*
X462748Y219022D01*
X462748Y219701D02*
X454396Y219701D01*
X462748Y215158D02*
X462748Y211306D01*
X454396Y211306D01*
X454396Y215158D01*
X462748Y215158D01*
X462748Y211985D02*
X454396Y211985D01*
X454396Y212664D02*
X462748Y212664D01*
X462748Y213343D02*
X454396Y213343D01*
X454396Y214022D02*
X462748Y214022D01*
X462748Y214701D02*
X454396Y214701D01*
X462748Y210158D02*
X462748Y206306D01*
X454396Y206306D01*
X454396Y210158D01*
X462748Y210158D01*
X462748Y206985D02*
X454396Y206985D01*
X454396Y207664D02*
X462748Y207664D01*
X462748Y208343D02*
X454396Y208343D01*
X454396Y209022D02*
X462748Y209022D01*
X462748Y209701D02*
X454396Y209701D01*
X462748Y205158D02*
X462748Y201306D01*
X454396Y201306D01*
X454396Y205158D01*
X462748Y205158D01*
X462748Y201985D02*
X454396Y201985D01*
X454396Y202664D02*
X462748Y202664D01*
X462748Y203343D02*
X454396Y203343D01*
X454396Y204022D02*
X462748Y204022D01*
X462748Y204701D02*
X454396Y204701D01*
X462748Y200158D02*
X462748Y196306D01*
X454396Y196306D01*
X454396Y200158D01*
X462748Y200158D01*
X462748Y196985D02*
X454396Y196985D01*
X454396Y197664D02*
X462748Y197664D01*
X462748Y198343D02*
X454396Y198343D01*
X454396Y199022D02*
X462748Y199022D01*
X462748Y199701D02*
X454396Y199701D01*
X462748Y195158D02*
X462748Y191306D01*
X454396Y191306D01*
X454396Y195158D01*
X462748Y195158D01*
X462748Y191985D02*
X454396Y191985D01*
X454396Y192664D02*
X462748Y192664D01*
X462748Y193343D02*
X454396Y193343D01*
X454396Y194022D02*
X462748Y194022D01*
X462748Y194701D02*
X454396Y194701D01*
X509748Y195158D02*
X509748Y191306D01*
X501396Y191306D01*
X501396Y195158D01*
X509748Y195158D01*
X509748Y191985D02*
X501396Y191985D01*
X501396Y192664D02*
X509748Y192664D01*
X509748Y193343D02*
X501396Y193343D01*
X501396Y194022D02*
X509748Y194022D01*
X509748Y194701D02*
X501396Y194701D01*
X509748Y196306D02*
X509748Y200158D01*
X509748Y196306D02*
X501396Y196306D01*
X501396Y200158D01*
X509748Y200158D01*
X509748Y196985D02*
X501396Y196985D01*
X501396Y197664D02*
X509748Y197664D01*
X509748Y198343D02*
X501396Y198343D01*
X501396Y199022D02*
X509748Y199022D01*
X509748Y199701D02*
X501396Y199701D01*
X509748Y201306D02*
X509748Y205158D01*
X509748Y201306D02*
X501396Y201306D01*
X501396Y205158D01*
X509748Y205158D01*
X509748Y201985D02*
X501396Y201985D01*
X501396Y202664D02*
X509748Y202664D01*
X509748Y203343D02*
X501396Y203343D01*
X501396Y204022D02*
X509748Y204022D01*
X509748Y204701D02*
X501396Y204701D01*
X509748Y206306D02*
X509748Y210158D01*
X509748Y206306D02*
X501396Y206306D01*
X501396Y210158D01*
X509748Y210158D01*
X509748Y206985D02*
X501396Y206985D01*
X501396Y207664D02*
X509748Y207664D01*
X509748Y208343D02*
X501396Y208343D01*
X501396Y209022D02*
X509748Y209022D01*
X509748Y209701D02*
X501396Y209701D01*
X509748Y211306D02*
X509748Y215158D01*
X509748Y211306D02*
X501396Y211306D01*
X501396Y215158D01*
X509748Y215158D01*
X509748Y211985D02*
X501396Y211985D01*
X501396Y212664D02*
X509748Y212664D01*
X509748Y213343D02*
X501396Y213343D01*
X501396Y214022D02*
X509748Y214022D01*
X509748Y214701D02*
X501396Y214701D01*
X509748Y216306D02*
X509748Y220158D01*
X509748Y216306D02*
X501396Y216306D01*
X501396Y220158D01*
X509748Y220158D01*
X509748Y216985D02*
X501396Y216985D01*
X501396Y217664D02*
X509748Y217664D01*
X509748Y218343D02*
X501396Y218343D01*
X501396Y219022D02*
X509748Y219022D01*
X509748Y219701D02*
X501396Y219701D01*
X509748Y221306D02*
X509748Y225158D01*
X509748Y221306D02*
X501396Y221306D01*
X501396Y225158D01*
X509748Y225158D01*
X509748Y221985D02*
X501396Y221985D01*
X501396Y222664D02*
X509748Y222664D01*
X509748Y223343D02*
X501396Y223343D01*
X501396Y224022D02*
X509748Y224022D01*
X509748Y224701D02*
X501396Y224701D01*
X509748Y226306D02*
X509748Y230158D01*
X509748Y226306D02*
X501396Y226306D01*
X501396Y230158D01*
X509748Y230158D01*
X509748Y226985D02*
X501396Y226985D01*
X501396Y227664D02*
X509748Y227664D01*
X509748Y228343D02*
X501396Y228343D01*
X501396Y229022D02*
X509748Y229022D01*
X509748Y229701D02*
X501396Y229701D01*
X509748Y231306D02*
X509748Y235158D01*
X509748Y231306D02*
X501396Y231306D01*
X501396Y235158D01*
X509748Y235158D01*
X509748Y231985D02*
X501396Y231985D01*
X501396Y232664D02*
X509748Y232664D01*
X509748Y233343D02*
X501396Y233343D01*
X501396Y234022D02*
X509748Y234022D01*
X509748Y234701D02*
X501396Y234701D01*
X509748Y236306D02*
X509748Y240158D01*
X509748Y236306D02*
X501396Y236306D01*
X501396Y240158D01*
X509748Y240158D01*
X509748Y236985D02*
X501396Y236985D01*
X501396Y237664D02*
X509748Y237664D01*
X509748Y238343D02*
X501396Y238343D01*
X501396Y239022D02*
X509748Y239022D01*
X509748Y239701D02*
X501396Y239701D01*
D28*
X500489Y245904D02*
X505955Y245904D01*
X500489Y245904D02*
X500489Y250820D01*
X505955Y250820D01*
X505955Y245904D01*
X505955Y246770D02*
X500489Y246770D01*
X500489Y247636D02*
X505955Y247636D01*
X505955Y248502D02*
X500489Y248502D01*
X500489Y249368D02*
X505955Y249368D01*
X505955Y250234D02*
X500489Y250234D01*
X463655Y245904D02*
X458189Y245904D01*
X458189Y250820D01*
X463655Y250820D01*
X463655Y245904D01*
X463655Y246770D02*
X458189Y246770D01*
X458189Y247636D02*
X463655Y247636D01*
X463655Y248502D02*
X458189Y248502D01*
X458189Y249368D02*
X463655Y249368D01*
X463655Y250234D02*
X458189Y250234D01*
X458189Y185644D02*
X463655Y185644D01*
X458189Y185644D02*
X458189Y190560D01*
X463655Y190560D01*
X463655Y185644D01*
X463655Y186510D02*
X458189Y186510D01*
X458189Y187376D02*
X463655Y187376D01*
X463655Y188242D02*
X458189Y188242D01*
X458189Y189108D02*
X463655Y189108D01*
X463655Y189974D02*
X458189Y189974D01*
X500489Y185644D02*
X505955Y185644D01*
X500489Y185644D02*
X500489Y190560D01*
X505955Y190560D01*
X505955Y185644D01*
X505955Y186510D02*
X500489Y186510D01*
X500489Y187376D02*
X505955Y187376D01*
X505955Y188242D02*
X500489Y188242D01*
X500489Y189108D02*
X505955Y189108D01*
X505955Y189974D02*
X500489Y189974D01*
D26*
X393270Y277936D02*
X359990Y277936D01*
X359990Y332216D01*
X393270Y332216D01*
X393270Y277936D01*
X393270Y279687D02*
X359990Y279687D01*
X359990Y281438D02*
X393270Y281438D01*
X393270Y283189D02*
X359990Y283189D01*
X359990Y284940D02*
X393270Y284940D01*
X393270Y286691D02*
X359990Y286691D01*
X359990Y288442D02*
X393270Y288442D01*
X393270Y290193D02*
X359990Y290193D01*
X359990Y291944D02*
X393270Y291944D01*
X393270Y293695D02*
X359990Y293695D01*
X359990Y295446D02*
X393270Y295446D01*
X393270Y297197D02*
X359990Y297197D01*
X359990Y298948D02*
X393270Y298948D01*
X393270Y300699D02*
X359990Y300699D01*
X359990Y302450D02*
X393270Y302450D01*
X393270Y304201D02*
X359990Y304201D01*
X359990Y305952D02*
X393270Y305952D01*
X393270Y307703D02*
X359990Y307703D01*
X359990Y309454D02*
X393270Y309454D01*
X393270Y311205D02*
X359990Y311205D01*
X359990Y312956D02*
X393270Y312956D01*
X393270Y314707D02*
X359990Y314707D01*
X359990Y316458D02*
X393270Y316458D01*
X393270Y318209D02*
X359990Y318209D01*
X359990Y319960D02*
X393270Y319960D01*
X393270Y321711D02*
X359990Y321711D01*
X359990Y323462D02*
X393270Y323462D01*
X393270Y325213D02*
X359990Y325213D01*
X359990Y326964D02*
X393270Y326964D01*
X393270Y328715D02*
X359990Y328715D01*
X359990Y330466D02*
X393270Y330466D01*
D27*
X357306Y332002D02*
X357306Y328150D01*
X348954Y328150D01*
X348954Y332002D01*
X357306Y332002D01*
X357306Y328829D02*
X348954Y328829D01*
X348954Y329508D02*
X357306Y329508D01*
X357306Y330187D02*
X348954Y330187D01*
X348954Y330866D02*
X357306Y330866D01*
X357306Y331545D02*
X348954Y331545D01*
X404306Y332002D02*
X404306Y328150D01*
X395954Y328150D01*
X395954Y332002D01*
X404306Y332002D01*
X404306Y328829D02*
X395954Y328829D01*
X395954Y329508D02*
X404306Y329508D01*
X404306Y330187D02*
X395954Y330187D01*
X395954Y330866D02*
X404306Y330866D01*
X404306Y331545D02*
X395954Y331545D01*
X357306Y327002D02*
X357306Y323150D01*
X348954Y323150D01*
X348954Y327002D01*
X357306Y327002D01*
X357306Y323829D02*
X348954Y323829D01*
X348954Y324508D02*
X357306Y324508D01*
X357306Y325187D02*
X348954Y325187D01*
X348954Y325866D02*
X357306Y325866D01*
X357306Y326545D02*
X348954Y326545D01*
X357306Y322002D02*
X357306Y318150D01*
X348954Y318150D01*
X348954Y322002D01*
X357306Y322002D01*
X357306Y318829D02*
X348954Y318829D01*
X348954Y319508D02*
X357306Y319508D01*
X357306Y320187D02*
X348954Y320187D01*
X348954Y320866D02*
X357306Y320866D01*
X357306Y321545D02*
X348954Y321545D01*
X357306Y317002D02*
X357306Y313150D01*
X348954Y313150D01*
X348954Y317002D01*
X357306Y317002D01*
X357306Y313829D02*
X348954Y313829D01*
X348954Y314508D02*
X357306Y314508D01*
X357306Y315187D02*
X348954Y315187D01*
X348954Y315866D02*
X357306Y315866D01*
X357306Y316545D02*
X348954Y316545D01*
X357306Y312002D02*
X357306Y308150D01*
X348954Y308150D01*
X348954Y312002D01*
X357306Y312002D01*
X357306Y308829D02*
X348954Y308829D01*
X348954Y309508D02*
X357306Y309508D01*
X357306Y310187D02*
X348954Y310187D01*
X348954Y310866D02*
X357306Y310866D01*
X357306Y311545D02*
X348954Y311545D01*
X357306Y307002D02*
X357306Y303150D01*
X348954Y303150D01*
X348954Y307002D01*
X357306Y307002D01*
X357306Y303829D02*
X348954Y303829D01*
X348954Y304508D02*
X357306Y304508D01*
X357306Y305187D02*
X348954Y305187D01*
X348954Y305866D02*
X357306Y305866D01*
X357306Y306545D02*
X348954Y306545D01*
X357306Y302002D02*
X357306Y298150D01*
X348954Y298150D01*
X348954Y302002D01*
X357306Y302002D01*
X357306Y298829D02*
X348954Y298829D01*
X348954Y299508D02*
X357306Y299508D01*
X357306Y300187D02*
X348954Y300187D01*
X348954Y300866D02*
X357306Y300866D01*
X357306Y301545D02*
X348954Y301545D01*
X357306Y297002D02*
X357306Y293150D01*
X348954Y293150D01*
X348954Y297002D01*
X357306Y297002D01*
X357306Y293829D02*
X348954Y293829D01*
X348954Y294508D02*
X357306Y294508D01*
X357306Y295187D02*
X348954Y295187D01*
X348954Y295866D02*
X357306Y295866D01*
X357306Y296545D02*
X348954Y296545D01*
X357306Y292002D02*
X357306Y288150D01*
X348954Y288150D01*
X348954Y292002D01*
X357306Y292002D01*
X357306Y288829D02*
X348954Y288829D01*
X348954Y289508D02*
X357306Y289508D01*
X357306Y290187D02*
X348954Y290187D01*
X348954Y290866D02*
X357306Y290866D01*
X357306Y291545D02*
X348954Y291545D01*
X357306Y287002D02*
X357306Y283150D01*
X348954Y283150D01*
X348954Y287002D01*
X357306Y287002D01*
X357306Y283829D02*
X348954Y283829D01*
X348954Y284508D02*
X357306Y284508D01*
X357306Y285187D02*
X348954Y285187D01*
X348954Y285866D02*
X357306Y285866D01*
X357306Y286545D02*
X348954Y286545D01*
X357306Y282002D02*
X357306Y278150D01*
X348954Y278150D01*
X348954Y282002D01*
X357306Y282002D01*
X357306Y278829D02*
X348954Y278829D01*
X348954Y279508D02*
X357306Y279508D01*
X357306Y280187D02*
X348954Y280187D01*
X348954Y280866D02*
X357306Y280866D01*
X357306Y281545D02*
X348954Y281545D01*
X404306Y282002D02*
X404306Y278150D01*
X395954Y278150D01*
X395954Y282002D01*
X404306Y282002D01*
X404306Y278829D02*
X395954Y278829D01*
X395954Y279508D02*
X404306Y279508D01*
X404306Y280187D02*
X395954Y280187D01*
X395954Y280866D02*
X404306Y280866D01*
X404306Y281545D02*
X395954Y281545D01*
X404306Y283150D02*
X404306Y287002D01*
X404306Y283150D02*
X395954Y283150D01*
X395954Y287002D01*
X404306Y287002D01*
X404306Y283829D02*
X395954Y283829D01*
X395954Y284508D02*
X404306Y284508D01*
X404306Y285187D02*
X395954Y285187D01*
X395954Y285866D02*
X404306Y285866D01*
X404306Y286545D02*
X395954Y286545D01*
X404306Y288150D02*
X404306Y292002D01*
X404306Y288150D02*
X395954Y288150D01*
X395954Y292002D01*
X404306Y292002D01*
X404306Y288829D02*
X395954Y288829D01*
X395954Y289508D02*
X404306Y289508D01*
X404306Y290187D02*
X395954Y290187D01*
X395954Y290866D02*
X404306Y290866D01*
X404306Y291545D02*
X395954Y291545D01*
X404306Y293150D02*
X404306Y297002D01*
X404306Y293150D02*
X395954Y293150D01*
X395954Y297002D01*
X404306Y297002D01*
X404306Y293829D02*
X395954Y293829D01*
X395954Y294508D02*
X404306Y294508D01*
X404306Y295187D02*
X395954Y295187D01*
X395954Y295866D02*
X404306Y295866D01*
X404306Y296545D02*
X395954Y296545D01*
X404306Y298150D02*
X404306Y302002D01*
X404306Y298150D02*
X395954Y298150D01*
X395954Y302002D01*
X404306Y302002D01*
X404306Y298829D02*
X395954Y298829D01*
X395954Y299508D02*
X404306Y299508D01*
X404306Y300187D02*
X395954Y300187D01*
X395954Y300866D02*
X404306Y300866D01*
X404306Y301545D02*
X395954Y301545D01*
X404306Y303150D02*
X404306Y307002D01*
X404306Y303150D02*
X395954Y303150D01*
X395954Y307002D01*
X404306Y307002D01*
X404306Y303829D02*
X395954Y303829D01*
X395954Y304508D02*
X404306Y304508D01*
X404306Y305187D02*
X395954Y305187D01*
X395954Y305866D02*
X404306Y305866D01*
X404306Y306545D02*
X395954Y306545D01*
X404306Y308150D02*
X404306Y312002D01*
X404306Y308150D02*
X395954Y308150D01*
X395954Y312002D01*
X404306Y312002D01*
X404306Y308829D02*
X395954Y308829D01*
X395954Y309508D02*
X404306Y309508D01*
X404306Y310187D02*
X395954Y310187D01*
X395954Y310866D02*
X404306Y310866D01*
X404306Y311545D02*
X395954Y311545D01*
X404306Y313150D02*
X404306Y317002D01*
X404306Y313150D02*
X395954Y313150D01*
X395954Y317002D01*
X404306Y317002D01*
X404306Y313829D02*
X395954Y313829D01*
X395954Y314508D02*
X404306Y314508D01*
X404306Y315187D02*
X395954Y315187D01*
X395954Y315866D02*
X404306Y315866D01*
X404306Y316545D02*
X395954Y316545D01*
X404306Y318150D02*
X404306Y322002D01*
X404306Y318150D02*
X395954Y318150D01*
X395954Y322002D01*
X404306Y322002D01*
X404306Y318829D02*
X395954Y318829D01*
X395954Y319508D02*
X404306Y319508D01*
X404306Y320187D02*
X395954Y320187D01*
X395954Y320866D02*
X404306Y320866D01*
X404306Y321545D02*
X395954Y321545D01*
X404306Y323150D02*
X404306Y327002D01*
X404306Y323150D02*
X395954Y323150D01*
X395954Y327002D01*
X404306Y327002D01*
X404306Y323829D02*
X395954Y323829D01*
X395954Y324508D02*
X404306Y324508D01*
X404306Y325187D02*
X395954Y325187D01*
X395954Y325866D02*
X404306Y325866D01*
X404306Y326545D02*
X395954Y326545D01*
D28*
X395047Y332748D02*
X400513Y332748D01*
X395047Y332748D02*
X395047Y337664D01*
X400513Y337664D01*
X400513Y332748D01*
X400513Y333614D02*
X395047Y333614D01*
X395047Y334480D02*
X400513Y334480D01*
X400513Y335346D02*
X395047Y335346D01*
X395047Y336212D02*
X400513Y336212D01*
X400513Y337078D02*
X395047Y337078D01*
X358213Y332748D02*
X352747Y332748D01*
X352747Y337664D01*
X358213Y337664D01*
X358213Y332748D01*
X358213Y333614D02*
X352747Y333614D01*
X352747Y334480D02*
X358213Y334480D01*
X358213Y335346D02*
X352747Y335346D01*
X352747Y336212D02*
X358213Y336212D01*
X358213Y337078D02*
X352747Y337078D01*
X352747Y272488D02*
X358213Y272488D01*
X352747Y272488D02*
X352747Y277404D01*
X358213Y277404D01*
X358213Y272488D01*
X358213Y273354D02*
X352747Y273354D01*
X352747Y274220D02*
X358213Y274220D01*
X358213Y275086D02*
X352747Y275086D01*
X352747Y275952D02*
X358213Y275952D01*
X358213Y276818D02*
X352747Y276818D01*
X395047Y272488D02*
X400513Y272488D01*
X395047Y272488D02*
X395047Y277404D01*
X400513Y277404D01*
X400513Y272488D01*
X400513Y273354D02*
X395047Y273354D01*
X395047Y274220D02*
X400513Y274220D01*
X400513Y275086D02*
X395047Y275086D01*
X395047Y275952D02*
X400513Y275952D01*
X400513Y276818D02*
X395047Y276818D01*
D26*
X235712Y380968D02*
X235712Y414248D01*
X289992Y414248D01*
X289992Y380968D01*
X235712Y380968D01*
X235712Y382719D02*
X289992Y382719D01*
X289992Y384470D02*
X235712Y384470D01*
X235712Y386221D02*
X289992Y386221D01*
X289992Y387972D02*
X235712Y387972D01*
X235712Y389723D02*
X289992Y389723D01*
X289992Y391474D02*
X235712Y391474D01*
X235712Y393225D02*
X289992Y393225D01*
X289992Y394976D02*
X235712Y394976D01*
X235712Y396727D02*
X289992Y396727D01*
X289992Y398478D02*
X235712Y398478D01*
X235712Y400229D02*
X289992Y400229D01*
X289992Y401980D02*
X235712Y401980D01*
X235712Y403731D02*
X289992Y403731D01*
X289992Y405482D02*
X235712Y405482D01*
X235712Y407233D02*
X289992Y407233D01*
X289992Y408984D02*
X235712Y408984D01*
X235712Y410735D02*
X289992Y410735D01*
X289992Y412486D02*
X235712Y412486D01*
X235712Y414237D02*
X289992Y414237D01*
D27*
X289778Y416932D02*
X285926Y416932D01*
X285926Y425284D01*
X289778Y425284D01*
X289778Y416932D01*
X289778Y417611D02*
X285926Y417611D01*
X285926Y418290D02*
X289778Y418290D01*
X289778Y418969D02*
X285926Y418969D01*
X285926Y419648D02*
X289778Y419648D01*
X289778Y420327D02*
X285926Y420327D01*
X285926Y421006D02*
X289778Y421006D01*
X289778Y421685D02*
X285926Y421685D01*
X285926Y422364D02*
X289778Y422364D01*
X289778Y423043D02*
X285926Y423043D01*
X285926Y423722D02*
X289778Y423722D01*
X289778Y424401D02*
X285926Y424401D01*
X285926Y425080D02*
X289778Y425080D01*
X289778Y369932D02*
X285926Y369932D01*
X285926Y378284D01*
X289778Y378284D01*
X289778Y369932D01*
X289778Y370611D02*
X285926Y370611D01*
X285926Y371290D02*
X289778Y371290D01*
X289778Y371969D02*
X285926Y371969D01*
X285926Y372648D02*
X289778Y372648D01*
X289778Y373327D02*
X285926Y373327D01*
X285926Y374006D02*
X289778Y374006D01*
X289778Y374685D02*
X285926Y374685D01*
X285926Y375364D02*
X289778Y375364D01*
X289778Y376043D02*
X285926Y376043D01*
X285926Y376722D02*
X289778Y376722D01*
X289778Y377401D02*
X285926Y377401D01*
X285926Y378080D02*
X289778Y378080D01*
X284778Y416932D02*
X280926Y416932D01*
X280926Y425284D01*
X284778Y425284D01*
X284778Y416932D01*
X284778Y417611D02*
X280926Y417611D01*
X280926Y418290D02*
X284778Y418290D01*
X284778Y418969D02*
X280926Y418969D01*
X280926Y419648D02*
X284778Y419648D01*
X284778Y420327D02*
X280926Y420327D01*
X280926Y421006D02*
X284778Y421006D01*
X284778Y421685D02*
X280926Y421685D01*
X280926Y422364D02*
X284778Y422364D01*
X284778Y423043D02*
X280926Y423043D01*
X280926Y423722D02*
X284778Y423722D01*
X284778Y424401D02*
X280926Y424401D01*
X280926Y425080D02*
X284778Y425080D01*
X279778Y416932D02*
X275926Y416932D01*
X275926Y425284D01*
X279778Y425284D01*
X279778Y416932D01*
X279778Y417611D02*
X275926Y417611D01*
X275926Y418290D02*
X279778Y418290D01*
X279778Y418969D02*
X275926Y418969D01*
X275926Y419648D02*
X279778Y419648D01*
X279778Y420327D02*
X275926Y420327D01*
X275926Y421006D02*
X279778Y421006D01*
X279778Y421685D02*
X275926Y421685D01*
X275926Y422364D02*
X279778Y422364D01*
X279778Y423043D02*
X275926Y423043D01*
X275926Y423722D02*
X279778Y423722D01*
X279778Y424401D02*
X275926Y424401D01*
X275926Y425080D02*
X279778Y425080D01*
X274778Y416932D02*
X270926Y416932D01*
X270926Y425284D01*
X274778Y425284D01*
X274778Y416932D01*
X274778Y417611D02*
X270926Y417611D01*
X270926Y418290D02*
X274778Y418290D01*
X274778Y418969D02*
X270926Y418969D01*
X270926Y419648D02*
X274778Y419648D01*
X274778Y420327D02*
X270926Y420327D01*
X270926Y421006D02*
X274778Y421006D01*
X274778Y421685D02*
X270926Y421685D01*
X270926Y422364D02*
X274778Y422364D01*
X274778Y423043D02*
X270926Y423043D01*
X270926Y423722D02*
X274778Y423722D01*
X274778Y424401D02*
X270926Y424401D01*
X270926Y425080D02*
X274778Y425080D01*
X269778Y416932D02*
X265926Y416932D01*
X265926Y425284D01*
X269778Y425284D01*
X269778Y416932D01*
X269778Y417611D02*
X265926Y417611D01*
X265926Y418290D02*
X269778Y418290D01*
X269778Y418969D02*
X265926Y418969D01*
X265926Y419648D02*
X269778Y419648D01*
X269778Y420327D02*
X265926Y420327D01*
X265926Y421006D02*
X269778Y421006D01*
X269778Y421685D02*
X265926Y421685D01*
X265926Y422364D02*
X269778Y422364D01*
X269778Y423043D02*
X265926Y423043D01*
X265926Y423722D02*
X269778Y423722D01*
X269778Y424401D02*
X265926Y424401D01*
X265926Y425080D02*
X269778Y425080D01*
X264778Y416932D02*
X260926Y416932D01*
X260926Y425284D01*
X264778Y425284D01*
X264778Y416932D01*
X264778Y417611D02*
X260926Y417611D01*
X260926Y418290D02*
X264778Y418290D01*
X264778Y418969D02*
X260926Y418969D01*
X260926Y419648D02*
X264778Y419648D01*
X264778Y420327D02*
X260926Y420327D01*
X260926Y421006D02*
X264778Y421006D01*
X264778Y421685D02*
X260926Y421685D01*
X260926Y422364D02*
X264778Y422364D01*
X264778Y423043D02*
X260926Y423043D01*
X260926Y423722D02*
X264778Y423722D01*
X264778Y424401D02*
X260926Y424401D01*
X260926Y425080D02*
X264778Y425080D01*
X259778Y416932D02*
X255926Y416932D01*
X255926Y425284D01*
X259778Y425284D01*
X259778Y416932D01*
X259778Y417611D02*
X255926Y417611D01*
X255926Y418290D02*
X259778Y418290D01*
X259778Y418969D02*
X255926Y418969D01*
X255926Y419648D02*
X259778Y419648D01*
X259778Y420327D02*
X255926Y420327D01*
X255926Y421006D02*
X259778Y421006D01*
X259778Y421685D02*
X255926Y421685D01*
X255926Y422364D02*
X259778Y422364D01*
X259778Y423043D02*
X255926Y423043D01*
X255926Y423722D02*
X259778Y423722D01*
X259778Y424401D02*
X255926Y424401D01*
X255926Y425080D02*
X259778Y425080D01*
X254778Y416932D02*
X250926Y416932D01*
X250926Y425284D01*
X254778Y425284D01*
X254778Y416932D01*
X254778Y417611D02*
X250926Y417611D01*
X250926Y418290D02*
X254778Y418290D01*
X254778Y418969D02*
X250926Y418969D01*
X250926Y419648D02*
X254778Y419648D01*
X254778Y420327D02*
X250926Y420327D01*
X250926Y421006D02*
X254778Y421006D01*
X254778Y421685D02*
X250926Y421685D01*
X250926Y422364D02*
X254778Y422364D01*
X254778Y423043D02*
X250926Y423043D01*
X250926Y423722D02*
X254778Y423722D01*
X254778Y424401D02*
X250926Y424401D01*
X250926Y425080D02*
X254778Y425080D01*
X249778Y416932D02*
X245926Y416932D01*
X245926Y425284D01*
X249778Y425284D01*
X249778Y416932D01*
X249778Y417611D02*
X245926Y417611D01*
X245926Y418290D02*
X249778Y418290D01*
X249778Y418969D02*
X245926Y418969D01*
X245926Y419648D02*
X249778Y419648D01*
X249778Y420327D02*
X245926Y420327D01*
X245926Y421006D02*
X249778Y421006D01*
X249778Y421685D02*
X245926Y421685D01*
X245926Y422364D02*
X249778Y422364D01*
X249778Y423043D02*
X245926Y423043D01*
X245926Y423722D02*
X249778Y423722D01*
X249778Y424401D02*
X245926Y424401D01*
X245926Y425080D02*
X249778Y425080D01*
X244778Y416932D02*
X240926Y416932D01*
X240926Y425284D01*
X244778Y425284D01*
X244778Y416932D01*
X244778Y417611D02*
X240926Y417611D01*
X240926Y418290D02*
X244778Y418290D01*
X244778Y418969D02*
X240926Y418969D01*
X240926Y419648D02*
X244778Y419648D01*
X244778Y420327D02*
X240926Y420327D01*
X240926Y421006D02*
X244778Y421006D01*
X244778Y421685D02*
X240926Y421685D01*
X240926Y422364D02*
X244778Y422364D01*
X244778Y423043D02*
X240926Y423043D01*
X240926Y423722D02*
X244778Y423722D01*
X244778Y424401D02*
X240926Y424401D01*
X240926Y425080D02*
X244778Y425080D01*
X239778Y416932D02*
X235926Y416932D01*
X235926Y425284D01*
X239778Y425284D01*
X239778Y416932D01*
X239778Y417611D02*
X235926Y417611D01*
X235926Y418290D02*
X239778Y418290D01*
X239778Y418969D02*
X235926Y418969D01*
X235926Y419648D02*
X239778Y419648D01*
X239778Y420327D02*
X235926Y420327D01*
X235926Y421006D02*
X239778Y421006D01*
X239778Y421685D02*
X235926Y421685D01*
X235926Y422364D02*
X239778Y422364D01*
X239778Y423043D02*
X235926Y423043D01*
X235926Y423722D02*
X239778Y423722D01*
X239778Y424401D02*
X235926Y424401D01*
X235926Y425080D02*
X239778Y425080D01*
X239778Y369932D02*
X235926Y369932D01*
X235926Y378284D01*
X239778Y378284D01*
X239778Y369932D01*
X239778Y370611D02*
X235926Y370611D01*
X235926Y371290D02*
X239778Y371290D01*
X239778Y371969D02*
X235926Y371969D01*
X235926Y372648D02*
X239778Y372648D01*
X239778Y373327D02*
X235926Y373327D01*
X235926Y374006D02*
X239778Y374006D01*
X239778Y374685D02*
X235926Y374685D01*
X235926Y375364D02*
X239778Y375364D01*
X239778Y376043D02*
X235926Y376043D01*
X235926Y376722D02*
X239778Y376722D01*
X239778Y377401D02*
X235926Y377401D01*
X235926Y378080D02*
X239778Y378080D01*
X240926Y369932D02*
X244778Y369932D01*
X240926Y369932D02*
X240926Y378284D01*
X244778Y378284D01*
X244778Y369932D01*
X244778Y370611D02*
X240926Y370611D01*
X240926Y371290D02*
X244778Y371290D01*
X244778Y371969D02*
X240926Y371969D01*
X240926Y372648D02*
X244778Y372648D01*
X244778Y373327D02*
X240926Y373327D01*
X240926Y374006D02*
X244778Y374006D01*
X244778Y374685D02*
X240926Y374685D01*
X240926Y375364D02*
X244778Y375364D01*
X244778Y376043D02*
X240926Y376043D01*
X240926Y376722D02*
X244778Y376722D01*
X244778Y377401D02*
X240926Y377401D01*
X240926Y378080D02*
X244778Y378080D01*
X245926Y369932D02*
X249778Y369932D01*
X245926Y369932D02*
X245926Y378284D01*
X249778Y378284D01*
X249778Y369932D01*
X249778Y370611D02*
X245926Y370611D01*
X245926Y371290D02*
X249778Y371290D01*
X249778Y371969D02*
X245926Y371969D01*
X245926Y372648D02*
X249778Y372648D01*
X249778Y373327D02*
X245926Y373327D01*
X245926Y374006D02*
X249778Y374006D01*
X249778Y374685D02*
X245926Y374685D01*
X245926Y375364D02*
X249778Y375364D01*
X249778Y376043D02*
X245926Y376043D01*
X245926Y376722D02*
X249778Y376722D01*
X249778Y377401D02*
X245926Y377401D01*
X245926Y378080D02*
X249778Y378080D01*
X250926Y369932D02*
X254778Y369932D01*
X250926Y369932D02*
X250926Y378284D01*
X254778Y378284D01*
X254778Y369932D01*
X254778Y370611D02*
X250926Y370611D01*
X250926Y371290D02*
X254778Y371290D01*
X254778Y371969D02*
X250926Y371969D01*
X250926Y372648D02*
X254778Y372648D01*
X254778Y373327D02*
X250926Y373327D01*
X250926Y374006D02*
X254778Y374006D01*
X254778Y374685D02*
X250926Y374685D01*
X250926Y375364D02*
X254778Y375364D01*
X254778Y376043D02*
X250926Y376043D01*
X250926Y376722D02*
X254778Y376722D01*
X254778Y377401D02*
X250926Y377401D01*
X250926Y378080D02*
X254778Y378080D01*
X255926Y369932D02*
X259778Y369932D01*
X255926Y369932D02*
X255926Y378284D01*
X259778Y378284D01*
X259778Y369932D01*
X259778Y370611D02*
X255926Y370611D01*
X255926Y371290D02*
X259778Y371290D01*
X259778Y371969D02*
X255926Y371969D01*
X255926Y372648D02*
X259778Y372648D01*
X259778Y373327D02*
X255926Y373327D01*
X255926Y374006D02*
X259778Y374006D01*
X259778Y374685D02*
X255926Y374685D01*
X255926Y375364D02*
X259778Y375364D01*
X259778Y376043D02*
X255926Y376043D01*
X255926Y376722D02*
X259778Y376722D01*
X259778Y377401D02*
X255926Y377401D01*
X255926Y378080D02*
X259778Y378080D01*
X260926Y369932D02*
X264778Y369932D01*
X260926Y369932D02*
X260926Y378284D01*
X264778Y378284D01*
X264778Y369932D01*
X264778Y370611D02*
X260926Y370611D01*
X260926Y371290D02*
X264778Y371290D01*
X264778Y371969D02*
X260926Y371969D01*
X260926Y372648D02*
X264778Y372648D01*
X264778Y373327D02*
X260926Y373327D01*
X260926Y374006D02*
X264778Y374006D01*
X264778Y374685D02*
X260926Y374685D01*
X260926Y375364D02*
X264778Y375364D01*
X264778Y376043D02*
X260926Y376043D01*
X260926Y376722D02*
X264778Y376722D01*
X264778Y377401D02*
X260926Y377401D01*
X260926Y378080D02*
X264778Y378080D01*
X265926Y369932D02*
X269778Y369932D01*
X265926Y369932D02*
X265926Y378284D01*
X269778Y378284D01*
X269778Y369932D01*
X269778Y370611D02*
X265926Y370611D01*
X265926Y371290D02*
X269778Y371290D01*
X269778Y371969D02*
X265926Y371969D01*
X265926Y372648D02*
X269778Y372648D01*
X269778Y373327D02*
X265926Y373327D01*
X265926Y374006D02*
X269778Y374006D01*
X269778Y374685D02*
X265926Y374685D01*
X265926Y375364D02*
X269778Y375364D01*
X269778Y376043D02*
X265926Y376043D01*
X265926Y376722D02*
X269778Y376722D01*
X269778Y377401D02*
X265926Y377401D01*
X265926Y378080D02*
X269778Y378080D01*
X270926Y369932D02*
X274778Y369932D01*
X270926Y369932D02*
X270926Y378284D01*
X274778Y378284D01*
X274778Y369932D01*
X274778Y370611D02*
X270926Y370611D01*
X270926Y371290D02*
X274778Y371290D01*
X274778Y371969D02*
X270926Y371969D01*
X270926Y372648D02*
X274778Y372648D01*
X274778Y373327D02*
X270926Y373327D01*
X270926Y374006D02*
X274778Y374006D01*
X274778Y374685D02*
X270926Y374685D01*
X270926Y375364D02*
X274778Y375364D01*
X274778Y376043D02*
X270926Y376043D01*
X270926Y376722D02*
X274778Y376722D01*
X274778Y377401D02*
X270926Y377401D01*
X270926Y378080D02*
X274778Y378080D01*
X275926Y369932D02*
X279778Y369932D01*
X275926Y369932D02*
X275926Y378284D01*
X279778Y378284D01*
X279778Y369932D01*
X279778Y370611D02*
X275926Y370611D01*
X275926Y371290D02*
X279778Y371290D01*
X279778Y371969D02*
X275926Y371969D01*
X275926Y372648D02*
X279778Y372648D01*
X279778Y373327D02*
X275926Y373327D01*
X275926Y374006D02*
X279778Y374006D01*
X279778Y374685D02*
X275926Y374685D01*
X275926Y375364D02*
X279778Y375364D01*
X279778Y376043D02*
X275926Y376043D01*
X275926Y376722D02*
X279778Y376722D01*
X279778Y377401D02*
X275926Y377401D01*
X275926Y378080D02*
X279778Y378080D01*
X280926Y369932D02*
X284778Y369932D01*
X280926Y369932D02*
X280926Y378284D01*
X284778Y378284D01*
X284778Y369932D01*
X284778Y370611D02*
X280926Y370611D01*
X280926Y371290D02*
X284778Y371290D01*
X284778Y371969D02*
X280926Y371969D01*
X280926Y372648D02*
X284778Y372648D01*
X284778Y373327D02*
X280926Y373327D01*
X280926Y374006D02*
X284778Y374006D01*
X284778Y374685D02*
X280926Y374685D01*
X280926Y375364D02*
X284778Y375364D01*
X284778Y376043D02*
X280926Y376043D01*
X280926Y376722D02*
X284778Y376722D01*
X284778Y377401D02*
X280926Y377401D01*
X280926Y378080D02*
X284778Y378080D01*
D28*
X290524Y379191D02*
X290524Y373725D01*
X290524Y379191D02*
X295440Y379191D01*
X295440Y373725D01*
X290524Y373725D01*
X290524Y374591D02*
X295440Y374591D01*
X295440Y375457D02*
X290524Y375457D01*
X290524Y376323D02*
X295440Y376323D01*
X295440Y377189D02*
X290524Y377189D01*
X290524Y378055D02*
X295440Y378055D01*
X295440Y378921D02*
X290524Y378921D01*
X290524Y416025D02*
X290524Y421491D01*
X295440Y421491D01*
X295440Y416025D01*
X290524Y416025D01*
X290524Y416891D02*
X295440Y416891D01*
X295440Y417757D02*
X290524Y417757D01*
X290524Y418623D02*
X295440Y418623D01*
X295440Y419489D02*
X290524Y419489D01*
X290524Y420355D02*
X295440Y420355D01*
X295440Y421221D02*
X290524Y421221D01*
X230264Y421491D02*
X230264Y416025D01*
X230264Y421491D02*
X235180Y421491D01*
X235180Y416025D01*
X230264Y416025D01*
X230264Y416891D02*
X235180Y416891D01*
X235180Y417757D02*
X230264Y417757D01*
X230264Y418623D02*
X235180Y418623D01*
X235180Y419489D02*
X230264Y419489D01*
X230264Y420355D02*
X235180Y420355D01*
X235180Y421221D02*
X230264Y421221D01*
X230264Y379191D02*
X230264Y373725D01*
X230264Y379191D02*
X235180Y379191D01*
X235180Y373725D01*
X230264Y373725D01*
X230264Y374591D02*
X235180Y374591D01*
X235180Y375457D02*
X230264Y375457D01*
X230264Y376323D02*
X235180Y376323D01*
X235180Y377189D02*
X230264Y377189D01*
X230264Y378055D02*
X235180Y378055D01*
X235180Y378921D02*
X230264Y378921D01*
D29*
X597700Y307600D03*
X597700Y232600D03*
D30*
X195200Y440500D03*
X195200Y603500D03*
D29*
X741700Y429100D03*
X741700Y354100D03*
D31*
X736500Y776958D02*
X731976Y776958D01*
X731976Y789382D01*
X736500Y789382D01*
X736500Y776958D01*
X736500Y778465D02*
X731976Y778465D01*
X731976Y779972D02*
X736500Y779972D01*
X736500Y781479D02*
X731976Y781479D01*
X731976Y782986D02*
X736500Y782986D01*
X736500Y784493D02*
X731976Y784493D01*
X731976Y786000D02*
X736500Y786000D01*
X736500Y787507D02*
X731976Y787507D01*
X731976Y789014D02*
X736500Y789014D01*
X738476Y776958D02*
X743000Y776958D01*
X738476Y776958D02*
X738476Y789382D01*
X743000Y789382D01*
X743000Y776958D01*
X743000Y778465D02*
X738476Y778465D01*
X738476Y779972D02*
X743000Y779972D01*
X743000Y781479D02*
X738476Y781479D01*
X738476Y782986D02*
X743000Y782986D01*
X743000Y784493D02*
X738476Y784493D01*
X738476Y786000D02*
X743000Y786000D01*
X743000Y787507D02*
X738476Y787507D01*
X738476Y789014D02*
X743000Y789014D01*
X744976Y776958D02*
X749500Y776958D01*
X744976Y776958D02*
X744976Y789382D01*
X749500Y789382D01*
X749500Y776958D01*
X749500Y778465D02*
X744976Y778465D01*
X744976Y779972D02*
X749500Y779972D01*
X749500Y781479D02*
X744976Y781479D01*
X744976Y782986D02*
X749500Y782986D01*
X749500Y784493D02*
X744976Y784493D01*
X744976Y786000D02*
X749500Y786000D01*
X749500Y787507D02*
X744976Y787507D01*
X744976Y789014D02*
X749500Y789014D01*
X749500Y808582D02*
X744976Y808582D01*
X749500Y808582D02*
X749500Y796158D01*
X744976Y796158D01*
X744976Y808582D01*
X744976Y797665D02*
X749500Y797665D01*
X749500Y799172D02*
X744976Y799172D01*
X744976Y800679D02*
X749500Y800679D01*
X749500Y802186D02*
X744976Y802186D01*
X744976Y803693D02*
X749500Y803693D01*
X749500Y805200D02*
X744976Y805200D01*
X744976Y806707D02*
X749500Y806707D01*
X749500Y808214D02*
X744976Y808214D01*
X736500Y808582D02*
X731976Y808582D01*
X736500Y808582D02*
X736500Y796158D01*
X731976Y796158D01*
X731976Y808582D01*
X731976Y797665D02*
X736500Y797665D01*
X736500Y799172D02*
X731976Y799172D01*
X731976Y800679D02*
X736500Y800679D01*
X736500Y802186D02*
X731976Y802186D01*
X731976Y803693D02*
X736500Y803693D01*
X736500Y805200D02*
X731976Y805200D01*
X731976Y806707D02*
X736500Y806707D01*
X736500Y808214D02*
X731976Y808214D01*
D32*
X854270Y389920D03*
X854270Y415320D03*
X854270Y440720D03*
X854270Y466120D03*
D18*
X440100Y842932D03*
X440100Y852932D03*
D16*
X427217Y839159D02*
X418795Y839159D01*
X427217Y839159D02*
X427217Y830737D01*
X418795Y830737D01*
X418795Y839159D01*
X418795Y834346D02*
X427217Y834346D01*
X427217Y837955D02*
X418795Y837955D01*
X418795Y856699D02*
X427217Y856699D01*
X427217Y848277D01*
X418795Y848277D01*
X418795Y856699D01*
X418795Y851886D02*
X427217Y851886D01*
X427217Y855495D02*
X418795Y855495D01*
D18*
X393396Y842932D03*
X393396Y852932D03*
D16*
X401499Y839159D02*
X409921Y839159D01*
X409921Y830737D01*
X401499Y830737D01*
X401499Y839159D01*
X401499Y834346D02*
X409921Y834346D01*
X409921Y837955D02*
X401499Y837955D01*
X401499Y856699D02*
X409921Y856699D01*
X409921Y848277D01*
X401499Y848277D01*
X401499Y856699D01*
X401499Y851886D02*
X409921Y851886D01*
X409921Y855495D02*
X401499Y855495D01*
D32*
X708700Y755900D03*
X683300Y755900D03*
X708700Y781300D03*
X683300Y781300D03*
X708700Y806700D03*
X683300Y806700D03*
X708700Y832100D03*
X683300Y832100D03*
D20*
X479000Y811000D03*
X489000Y811000D03*
D33*
X322000Y444000D03*
X333000Y444000D03*
X344000Y444000D03*
X355000Y444000D03*
X366000Y444000D03*
X377000Y444000D03*
X388000Y409000D03*
X322000Y432000D03*
X333000Y432000D03*
X344000Y432000D03*
X355000Y432000D03*
X366000Y432000D03*
X377000Y432000D03*
X322000Y421000D03*
X333000Y421000D03*
X344000Y421000D03*
X355000Y421000D03*
X366000Y421000D03*
X377000Y421000D03*
X322000Y409000D03*
X333000Y409000D03*
X344000Y409000D03*
X355000Y409000D03*
X366000Y409000D03*
X377000Y409000D03*
X355000Y398000D03*
X366000Y398000D03*
X377000Y398000D03*
X388000Y398000D03*
X399000Y398000D03*
X410000Y398000D03*
X355000Y386000D03*
X366000Y386000D03*
X377000Y386000D03*
X388000Y386000D03*
X399000Y386000D03*
X410000Y386000D03*
X366000Y375000D03*
X377000Y375000D03*
X388000Y375000D03*
X399000Y375000D03*
X410000Y375000D03*
X421000Y375000D03*
X366000Y363000D03*
X377000Y363000D03*
X388000Y363000D03*
X399000Y363000D03*
X410000Y363000D03*
X421000Y363000D03*
X383000Y283000D03*
X383000Y294000D03*
X383000Y305000D03*
X383000Y316000D03*
X383000Y327000D03*
X371000Y283000D03*
X371000Y294000D03*
X371000Y305000D03*
X371000Y316000D03*
X371000Y327000D03*
X475000Y196000D03*
X475000Y207000D03*
X475000Y218000D03*
X475000Y229000D03*
X475000Y240000D03*
X487000Y196000D03*
X487000Y207000D03*
X487000Y218000D03*
X487000Y229000D03*
X487000Y240000D03*
X859000Y617000D03*
X319000Y485000D03*
X807000Y603000D03*
X708000Y522000D03*
X726000Y522000D03*
X752000Y522000D03*
X805000Y522000D03*
X854000Y522000D03*
X876000Y522000D03*
X346000Y758000D03*
X661000Y779000D03*
X737000Y604000D03*
X235000Y539000D03*
X275000Y285000D03*
X397000Y262000D03*
X562000Y261000D03*
X189000Y423000D03*
X191000Y412000D03*
X203000Y387000D03*
X214000Y386000D03*
X223000Y392000D03*
X223000Y402000D03*
X220000Y412000D03*
X412000Y346000D03*
X422000Y346000D03*
X432000Y346000D03*
X442000Y343000D03*
X450000Y336000D03*
X457000Y329000D03*
X312000Y367000D03*
X321000Y363000D03*
X329000Y357000D03*
X335000Y349000D03*
X324000Y348000D03*
X314000Y356000D03*
X313000Y345000D03*
X320000Y337000D03*
X509000Y272000D03*
X517000Y280000D03*
X520000Y271000D03*
X528000Y280000D03*
X532000Y271000D03*
X539000Y280000D03*
X544000Y271000D03*
X550000Y280000D03*
X555000Y271000D03*
X561000Y280000D03*
X567000Y271000D03*
X573000Y280000D03*
X316000Y253000D03*
X578000Y271000D03*
X579000Y252000D03*
X565000Y251000D03*
X370000Y224000D03*
X536000Y803200D03*
X556700Y814000D03*
X566100Y799700D03*
X579400Y808400D03*
X522800Y827800D03*
X478500Y894000D03*
X371600Y822400D03*
X440400Y831700D03*
X411700Y758300D03*
X338300Y674300D03*
X234300Y720300D03*
X636500Y804100D03*
X828600Y745700D03*
X809000Y776400D03*
X721100Y701500D03*
X511092Y720120D03*
X246000Y560000D03*
X294000Y588000D03*
X320000Y591000D03*
X500000Y776000D03*
X498000Y736000D03*
X520000Y798400D03*
X718000Y684000D03*
X731000Y750000D03*
X654000Y790000D03*
X804000Y576000D03*
X551000Y748000D03*
X499000Y819000D03*
X332000Y767000D03*
X638000Y701000D03*
X691000Y658000D03*
X718000Y652000D03*
X649000Y701000D03*
X678000Y671000D03*
X690000Y682000D03*
X587000Y728000D03*
X691000Y672000D03*
X581000Y719000D03*
X568000Y722000D03*
X747000Y583000D03*
D34*
X748000Y572000D03*
D33*
X558000Y725000D03*
X655000Y673000D03*
X745000Y552000D03*
X548000Y723000D03*
X652000Y663000D03*
X710000Y578000D03*
X488000Y737000D03*
X478000Y732000D03*
X584000Y788000D03*
X727000Y768000D03*
X495000Y832000D03*
X569000Y839000D03*
X588000Y820000D03*
X672000Y701000D03*
X729000Y611000D03*
X682000Y701000D03*
X720000Y616000D03*
X696000Y702000D03*
X714000Y625000D03*
X629000Y732000D03*
X425000Y715000D03*
X597000Y732000D03*
X413000Y720000D03*
X594000Y747000D03*
X436000Y747000D03*
X594000Y758000D03*
X747000Y702000D03*
X794000Y697000D03*
X759000Y713000D03*
X810000Y705000D03*
X268000Y725000D03*
X278000Y750000D03*
X345000Y499000D03*
X345000Y546000D03*
X724000Y631000D03*
X412000Y288000D03*
X291000Y431000D03*
X291000Y441000D03*
X345000Y339000D03*
X335000Y333000D03*
X417000Y310000D03*
X449000Y246000D03*
X439000Y240000D03*
X521000Y238000D03*
X720000Y640000D03*
X236000Y501000D03*
X240000Y492000D03*
X248000Y501000D03*
X256000Y495000D03*
X257000Y485000D03*
X246000Y484000D03*
X254000Y475000D03*
X265000Y501000D03*
X267000Y491000D03*
X267000Y481000D03*
X264000Y471000D03*
X275000Y473000D03*
X305000Y316000D03*
X311000Y306000D03*
X315000Y315000D03*
X322000Y307000D03*
X326000Y316000D03*
X332000Y308000D03*
X340000Y319000D03*
X342000Y309000D03*
X342000Y299000D03*
X337000Y290000D03*
X332000Y298000D03*
X322000Y297000D03*
X250000Y539000D03*
X261000Y536000D03*
X251000Y529000D03*
X262000Y526000D03*
X256000Y517000D03*
X244000Y522000D03*
X237000Y529000D03*
X235000Y517000D03*
X268000Y518000D03*
X272000Y529000D03*
X271000Y539000D03*
X429000Y240000D03*
X419000Y240000D03*
X409000Y240000D03*
X399000Y240000D03*
X393000Y231000D03*
X404000Y231000D03*
X414000Y231000D03*
X424000Y231000D03*
X434000Y229000D03*
X447000Y230000D03*
X440000Y221000D03*
X427000Y221000D03*
X416000Y221000D03*
X416000Y211000D03*
X426000Y211000D03*
X438000Y211000D03*
X445000Y202000D03*
X432000Y202000D03*
X446000Y192000D03*
X775000Y732000D03*
X784000Y721000D03*
X805000Y733000D03*
X518000Y215000D03*
X275000Y275000D03*
X277000Y332000D03*
X780000Y782000D03*
X764000Y775000D03*
X728000Y830000D03*
M02*
