G75*
%MOIN*%
%OFA0B0*%
%FSLAX25Y25*%
%IPPOS*%
%LPD*%
%AMOC8*
5,1,8,0,0,1.08239X$1,22.5*
%
%ADD10C,0.07099*%
%ADD11R,0.03000X0.08600*%
%ADD12R,0.12611X0.08674*%
%ADD13R,0.03556X0.04343*%
%ADD14R,0.04343X0.03556*%
%ADD15R,0.10249X0.10249*%
%ADD16C,0.01421*%
%ADD17R,0.03162X0.05524*%
%ADD18R,0.03556X0.03162*%
%ADD19R,0.13398X0.07887*%
%ADD20R,0.03162X0.03556*%
%ADD21R,0.05918X0.06706*%
%ADD22R,0.06706X0.05918*%
%ADD23R,0.07887X0.13398*%
%ADD24R,0.14973X0.07887*%
%ADD25R,0.07887X0.14973*%
%ADD26C,0.00690*%
%ADD27C,0.00268*%
%ADD28C,0.00341*%
%ADD29C,0.06737*%
%ADD30R,0.11824X0.09068*%
%ADD31R,0.08280X0.03162*%
%ADD32C,0.00594*%
%ADD33C,0.08200*%
%ADD34R,0.07887X0.27965*%
%ADD35R,0.27965X0.07887*%
%ADD36C,0.03778*%
%ADD37C,0.03975*%
D10*
X0106024Y0264292D03*
X0165473Y0302875D03*
X0204450Y0310749D03*
X0273347Y0298938D03*
X0339883Y0241851D03*
X0355631Y0210355D03*
D11*
X0150803Y0200776D03*
X0145803Y0200776D03*
X0140803Y0200776D03*
X0135803Y0200776D03*
X0124669Y0201239D03*
X0119669Y0201239D03*
X0114669Y0201239D03*
X0109669Y0201239D03*
X0109669Y0181839D03*
X0114669Y0181839D03*
X0119669Y0181839D03*
X0124669Y0181839D03*
X0135803Y0181376D03*
X0140803Y0181376D03*
X0145803Y0181376D03*
X0150803Y0181376D03*
D12*
X0144094Y0166045D03*
X0121365Y0165713D03*
X0121365Y0142091D03*
X0144094Y0142423D03*
X0097236Y0198072D03*
X0097236Y0221694D03*
X0139520Y0211067D03*
X0139520Y0234689D03*
D13*
X0192560Y0241143D03*
X0197678Y0241143D03*
X0195473Y0281103D03*
X0190355Y0281103D03*
X0291379Y0279331D03*
X0296497Y0279331D03*
X0296261Y0211418D03*
X0301379Y0211418D03*
X0301566Y0206773D03*
X0301466Y0202291D03*
X0301566Y0197816D03*
X0296448Y0197816D03*
X0296348Y0202291D03*
X0296448Y0206773D03*
X0159657Y0093782D03*
X0154539Y0093782D03*
X0194793Y0060724D03*
X0199911Y0060724D03*
X0172127Y0033269D03*
X0167009Y0033269D03*
D14*
X0135867Y0061694D03*
X0135867Y0066812D03*
X0122606Y0106040D03*
X0122606Y0111158D03*
X0089607Y0123859D03*
X0089607Y0128977D03*
X0302363Y0267757D03*
X0302363Y0272875D03*
X0304272Y0256367D03*
X0304272Y0251249D03*
X0311129Y0251281D03*
X0311129Y0256399D03*
X0317850Y0256720D03*
X0317850Y0251602D03*
D15*
X0160043Y0225992D03*
X0160043Y0208669D03*
X0116761Y0212425D03*
X0116761Y0229748D03*
D16*
X0160551Y0287977D02*
X0163867Y0287977D01*
X0163867Y0284661D01*
X0160551Y0284661D01*
X0160551Y0287977D01*
X0160551Y0286081D02*
X0163867Y0286081D01*
X0163867Y0287501D02*
X0160551Y0287501D01*
X0160551Y0294882D02*
X0163867Y0294882D01*
X0163867Y0291566D01*
X0160551Y0291566D01*
X0160551Y0294882D01*
X0160551Y0292986D02*
X0163867Y0292986D01*
X0163867Y0294406D02*
X0160551Y0294406D01*
X0167361Y0294882D02*
X0170677Y0294882D01*
X0170677Y0291566D01*
X0167361Y0291566D01*
X0167361Y0294882D01*
X0167361Y0292986D02*
X0170677Y0292986D01*
X0170677Y0294406D02*
X0167361Y0294406D01*
X0167361Y0287977D02*
X0170677Y0287977D01*
X0170677Y0284661D01*
X0167361Y0284661D01*
X0167361Y0287977D01*
X0167361Y0286081D02*
X0170677Y0286081D01*
X0170677Y0287501D02*
X0167361Y0287501D01*
X0292301Y0221816D02*
X0292301Y0218500D01*
X0288985Y0218500D01*
X0288985Y0221816D01*
X0292301Y0221816D01*
X0292301Y0219920D02*
X0288985Y0219920D01*
X0288985Y0221340D02*
X0292301Y0221340D01*
X0299206Y0221816D02*
X0299206Y0218500D01*
X0295890Y0218500D01*
X0295890Y0221816D01*
X0299206Y0221816D01*
X0299206Y0219920D02*
X0295890Y0219920D01*
X0295890Y0221340D02*
X0299206Y0221340D01*
D17*
X0300906Y0170198D03*
X0307993Y0170198D03*
X0320591Y0170198D03*
X0327678Y0170198D03*
X0340276Y0170198D03*
X0347363Y0170198D03*
X0347363Y0156024D03*
X0340276Y0156024D03*
X0327678Y0156024D03*
X0320591Y0156024D03*
X0307993Y0156024D03*
X0300906Y0156024D03*
X0288308Y0156024D03*
X0281221Y0156024D03*
X0281221Y0170198D03*
X0288308Y0170198D03*
D18*
X0281438Y0175501D03*
X0281438Y0179438D03*
X0301044Y0178808D03*
X0301044Y0174871D03*
X0320926Y0175186D03*
X0320926Y0179123D03*
X0340296Y0178650D03*
X0340296Y0174713D03*
X0347225Y0151367D03*
X0347225Y0147430D03*
X0328131Y0147430D03*
X0328131Y0151367D03*
X0307857Y0151658D03*
X0307857Y0147721D03*
X0288523Y0147436D03*
X0288523Y0151373D03*
X0290198Y0211221D03*
X0290198Y0215158D03*
X0284843Y0217717D03*
X0284843Y0221654D03*
X0175749Y0289462D03*
X0175749Y0293399D03*
X0157361Y0293399D03*
X0157361Y0289462D03*
D19*
X0170839Y0085646D03*
X0170839Y0063599D03*
X0213365Y0057606D03*
X0213365Y0035558D03*
D20*
X0294607Y0215670D03*
X0298544Y0215670D03*
X0225591Y0246733D03*
X0221654Y0246733D03*
X0195158Y0272678D03*
X0191221Y0272678D03*
X0191064Y0276891D03*
X0195001Y0276891D03*
D21*
X0127950Y0063880D03*
X0120469Y0063880D03*
X0152484Y0040915D03*
X0159965Y0040915D03*
D22*
X0083354Y0114837D03*
X0083354Y0122317D03*
D23*
X0097240Y0094272D03*
X0119287Y0094272D03*
D24*
X0180663Y0227131D03*
X0180663Y0263746D03*
D25*
X0160282Y0266854D03*
X0123668Y0266854D03*
D26*
X0095281Y0120689D02*
X0095281Y0107587D01*
X0095281Y0120689D02*
X0116651Y0120689D01*
X0116651Y0107587D01*
X0095281Y0107587D01*
X0095281Y0108276D02*
X0116651Y0108276D01*
X0116651Y0108965D02*
X0095281Y0108965D01*
X0095281Y0109654D02*
X0116651Y0109654D01*
X0116651Y0110343D02*
X0095281Y0110343D01*
X0095281Y0111032D02*
X0116651Y0111032D01*
X0116651Y0111721D02*
X0095281Y0111721D01*
X0095281Y0112410D02*
X0116651Y0112410D01*
X0116651Y0113099D02*
X0095281Y0113099D01*
X0095281Y0113788D02*
X0116651Y0113788D01*
X0116651Y0114477D02*
X0095281Y0114477D01*
X0095281Y0115166D02*
X0116651Y0115166D01*
X0116651Y0115855D02*
X0095281Y0115855D01*
X0095281Y0116544D02*
X0116651Y0116544D01*
X0116651Y0117233D02*
X0095281Y0117233D01*
X0095281Y0117922D02*
X0116651Y0117922D01*
X0116651Y0118611D02*
X0095281Y0118611D01*
X0095281Y0119300D02*
X0116651Y0119300D01*
X0116651Y0119989D02*
X0095281Y0119989D01*
X0095281Y0120678D02*
X0116651Y0120678D01*
X0144210Y0067023D02*
X0157312Y0067023D01*
X0144210Y0067023D02*
X0144210Y0088393D01*
X0157312Y0088393D01*
X0157312Y0067023D01*
X0157312Y0067712D02*
X0144210Y0067712D01*
X0144210Y0068401D02*
X0157312Y0068401D01*
X0157312Y0069090D02*
X0144210Y0069090D01*
X0144210Y0069779D02*
X0157312Y0069779D01*
X0157312Y0070468D02*
X0144210Y0070468D01*
X0144210Y0071157D02*
X0157312Y0071157D01*
X0157312Y0071846D02*
X0144210Y0071846D01*
X0144210Y0072535D02*
X0157312Y0072535D01*
X0157312Y0073224D02*
X0144210Y0073224D01*
X0144210Y0073913D02*
X0157312Y0073913D01*
X0157312Y0074602D02*
X0144210Y0074602D01*
X0144210Y0075291D02*
X0157312Y0075291D01*
X0157312Y0075980D02*
X0144210Y0075980D01*
X0144210Y0076669D02*
X0157312Y0076669D01*
X0157312Y0077358D02*
X0144210Y0077358D01*
X0144210Y0078047D02*
X0157312Y0078047D01*
X0157312Y0078736D02*
X0144210Y0078736D01*
X0144210Y0079425D02*
X0157312Y0079425D01*
X0157312Y0080114D02*
X0144210Y0080114D01*
X0144210Y0080803D02*
X0157312Y0080803D01*
X0157312Y0081492D02*
X0144210Y0081492D01*
X0144210Y0082181D02*
X0157312Y0082181D01*
X0157312Y0082870D02*
X0144210Y0082870D01*
X0144210Y0083559D02*
X0157312Y0083559D01*
X0157312Y0084248D02*
X0144210Y0084248D01*
X0144210Y0084937D02*
X0157312Y0084937D01*
X0157312Y0085626D02*
X0144210Y0085626D01*
X0144210Y0086315D02*
X0157312Y0086315D01*
X0157312Y0087004D02*
X0144210Y0087004D01*
X0144210Y0087693D02*
X0157312Y0087693D01*
X0157312Y0088382D02*
X0144210Y0088382D01*
X0185722Y0032832D02*
X0198824Y0032832D01*
X0185722Y0032832D02*
X0185722Y0054202D01*
X0198824Y0054202D01*
X0198824Y0032832D01*
X0198824Y0033521D02*
X0185722Y0033521D01*
X0185722Y0034210D02*
X0198824Y0034210D01*
X0198824Y0034899D02*
X0185722Y0034899D01*
X0185722Y0035588D02*
X0198824Y0035588D01*
X0198824Y0036277D02*
X0185722Y0036277D01*
X0185722Y0036966D02*
X0198824Y0036966D01*
X0198824Y0037655D02*
X0185722Y0037655D01*
X0185722Y0038344D02*
X0198824Y0038344D01*
X0198824Y0039033D02*
X0185722Y0039033D01*
X0185722Y0039722D02*
X0198824Y0039722D01*
X0198824Y0040411D02*
X0185722Y0040411D01*
X0185722Y0041100D02*
X0198824Y0041100D01*
X0198824Y0041789D02*
X0185722Y0041789D01*
X0185722Y0042478D02*
X0198824Y0042478D01*
X0198824Y0043167D02*
X0185722Y0043167D01*
X0185722Y0043856D02*
X0198824Y0043856D01*
X0198824Y0044545D02*
X0185722Y0044545D01*
X0185722Y0045234D02*
X0198824Y0045234D01*
X0198824Y0045923D02*
X0185722Y0045923D01*
X0185722Y0046612D02*
X0198824Y0046612D01*
X0198824Y0047301D02*
X0185722Y0047301D01*
X0185722Y0047990D02*
X0198824Y0047990D01*
X0198824Y0048679D02*
X0185722Y0048679D01*
X0185722Y0049368D02*
X0198824Y0049368D01*
X0198824Y0050057D02*
X0185722Y0050057D01*
X0185722Y0050746D02*
X0198824Y0050746D01*
X0198824Y0051435D02*
X0185722Y0051435D01*
X0185722Y0052124D02*
X0198824Y0052124D01*
X0198824Y0052813D02*
X0185722Y0052813D01*
X0185722Y0053502D02*
X0198824Y0053502D01*
X0198824Y0054191D02*
X0185722Y0054191D01*
D27*
X0184665Y0054118D02*
X0184665Y0052602D01*
X0181377Y0052602D01*
X0181377Y0054118D01*
X0184665Y0054118D01*
X0184665Y0052869D02*
X0181377Y0052869D01*
X0181377Y0053136D02*
X0184665Y0053136D01*
X0184665Y0053403D02*
X0181377Y0053403D01*
X0181377Y0053670D02*
X0184665Y0053670D01*
X0184665Y0053937D02*
X0181377Y0053937D01*
X0184665Y0052149D02*
X0184665Y0050633D01*
X0181377Y0050633D01*
X0181377Y0052149D01*
X0184665Y0052149D01*
X0184665Y0050900D02*
X0181377Y0050900D01*
X0181377Y0051167D02*
X0184665Y0051167D01*
X0184665Y0051434D02*
X0181377Y0051434D01*
X0181377Y0051701D02*
X0184665Y0051701D01*
X0184665Y0051968D02*
X0181377Y0051968D01*
X0184665Y0050181D02*
X0184665Y0048665D01*
X0181377Y0048665D01*
X0181377Y0050181D01*
X0184665Y0050181D01*
X0184665Y0048932D02*
X0181377Y0048932D01*
X0181377Y0049199D02*
X0184665Y0049199D01*
X0184665Y0049466D02*
X0181377Y0049466D01*
X0181377Y0049733D02*
X0184665Y0049733D01*
X0184665Y0050000D02*
X0181377Y0050000D01*
X0184665Y0048212D02*
X0184665Y0046696D01*
X0181377Y0046696D01*
X0181377Y0048212D01*
X0184665Y0048212D01*
X0184665Y0046963D02*
X0181377Y0046963D01*
X0181377Y0047230D02*
X0184665Y0047230D01*
X0184665Y0047497D02*
X0181377Y0047497D01*
X0181377Y0047764D02*
X0184665Y0047764D01*
X0184665Y0048031D02*
X0181377Y0048031D01*
X0184665Y0046244D02*
X0184665Y0044728D01*
X0181377Y0044728D01*
X0181377Y0046244D01*
X0184665Y0046244D01*
X0184665Y0044995D02*
X0181377Y0044995D01*
X0181377Y0045262D02*
X0184665Y0045262D01*
X0184665Y0045529D02*
X0181377Y0045529D01*
X0181377Y0045796D02*
X0184665Y0045796D01*
X0184665Y0046063D02*
X0181377Y0046063D01*
X0184665Y0044275D02*
X0184665Y0042759D01*
X0181377Y0042759D01*
X0181377Y0044275D01*
X0184665Y0044275D01*
X0184665Y0043026D02*
X0181377Y0043026D01*
X0181377Y0043293D02*
X0184665Y0043293D01*
X0184665Y0043560D02*
X0181377Y0043560D01*
X0181377Y0043827D02*
X0184665Y0043827D01*
X0184665Y0044094D02*
X0181377Y0044094D01*
X0184665Y0042307D02*
X0184665Y0040791D01*
X0181377Y0040791D01*
X0181377Y0042307D01*
X0184665Y0042307D01*
X0184665Y0041058D02*
X0181377Y0041058D01*
X0181377Y0041325D02*
X0184665Y0041325D01*
X0184665Y0041592D02*
X0181377Y0041592D01*
X0181377Y0041859D02*
X0184665Y0041859D01*
X0184665Y0042126D02*
X0181377Y0042126D01*
X0184665Y0040338D02*
X0184665Y0038822D01*
X0181377Y0038822D01*
X0181377Y0040338D01*
X0184665Y0040338D01*
X0184665Y0039089D02*
X0181377Y0039089D01*
X0181377Y0039356D02*
X0184665Y0039356D01*
X0184665Y0039623D02*
X0181377Y0039623D01*
X0181377Y0039890D02*
X0184665Y0039890D01*
X0184665Y0040157D02*
X0181377Y0040157D01*
X0184665Y0038370D02*
X0184665Y0036854D01*
X0181377Y0036854D01*
X0181377Y0038370D01*
X0184665Y0038370D01*
X0184665Y0037121D02*
X0181377Y0037121D01*
X0181377Y0037388D02*
X0184665Y0037388D01*
X0184665Y0037655D02*
X0181377Y0037655D01*
X0181377Y0037922D02*
X0184665Y0037922D01*
X0184665Y0038189D02*
X0181377Y0038189D01*
X0184665Y0036401D02*
X0184665Y0034885D01*
X0181377Y0034885D01*
X0181377Y0036401D01*
X0184665Y0036401D01*
X0184665Y0035152D02*
X0181377Y0035152D01*
X0181377Y0035419D02*
X0184665Y0035419D01*
X0184665Y0035686D02*
X0181377Y0035686D01*
X0181377Y0035953D02*
X0184665Y0035953D01*
X0184665Y0036220D02*
X0181377Y0036220D01*
X0184665Y0034433D02*
X0184665Y0032917D01*
X0181377Y0032917D01*
X0181377Y0034433D01*
X0184665Y0034433D01*
X0184665Y0033184D02*
X0181377Y0033184D01*
X0181377Y0033451D02*
X0184665Y0033451D01*
X0184665Y0033718D02*
X0181377Y0033718D01*
X0181377Y0033985D02*
X0184665Y0033985D01*
X0184665Y0034252D02*
X0181377Y0034252D01*
X0203169Y0034433D02*
X0203169Y0032917D01*
X0199881Y0032917D01*
X0199881Y0034433D01*
X0203169Y0034433D01*
X0203169Y0033184D02*
X0199881Y0033184D01*
X0199881Y0033451D02*
X0203169Y0033451D01*
X0203169Y0033718D02*
X0199881Y0033718D01*
X0199881Y0033985D02*
X0203169Y0033985D01*
X0203169Y0034252D02*
X0199881Y0034252D01*
X0203169Y0034885D02*
X0203169Y0036401D01*
X0203169Y0034885D02*
X0199881Y0034885D01*
X0199881Y0036401D01*
X0203169Y0036401D01*
X0203169Y0035152D02*
X0199881Y0035152D01*
X0199881Y0035419D02*
X0203169Y0035419D01*
X0203169Y0035686D02*
X0199881Y0035686D01*
X0199881Y0035953D02*
X0203169Y0035953D01*
X0203169Y0036220D02*
X0199881Y0036220D01*
X0203169Y0036854D02*
X0203169Y0038370D01*
X0203169Y0036854D02*
X0199881Y0036854D01*
X0199881Y0038370D01*
X0203169Y0038370D01*
X0203169Y0037121D02*
X0199881Y0037121D01*
X0199881Y0037388D02*
X0203169Y0037388D01*
X0203169Y0037655D02*
X0199881Y0037655D01*
X0199881Y0037922D02*
X0203169Y0037922D01*
X0203169Y0038189D02*
X0199881Y0038189D01*
X0203169Y0038822D02*
X0203169Y0040338D01*
X0203169Y0038822D02*
X0199881Y0038822D01*
X0199881Y0040338D01*
X0203169Y0040338D01*
X0203169Y0039089D02*
X0199881Y0039089D01*
X0199881Y0039356D02*
X0203169Y0039356D01*
X0203169Y0039623D02*
X0199881Y0039623D01*
X0199881Y0039890D02*
X0203169Y0039890D01*
X0203169Y0040157D02*
X0199881Y0040157D01*
X0203169Y0040791D02*
X0203169Y0042307D01*
X0203169Y0040791D02*
X0199881Y0040791D01*
X0199881Y0042307D01*
X0203169Y0042307D01*
X0203169Y0041058D02*
X0199881Y0041058D01*
X0199881Y0041325D02*
X0203169Y0041325D01*
X0203169Y0041592D02*
X0199881Y0041592D01*
X0199881Y0041859D02*
X0203169Y0041859D01*
X0203169Y0042126D02*
X0199881Y0042126D01*
X0203169Y0042759D02*
X0203169Y0044275D01*
X0203169Y0042759D02*
X0199881Y0042759D01*
X0199881Y0044275D01*
X0203169Y0044275D01*
X0203169Y0043026D02*
X0199881Y0043026D01*
X0199881Y0043293D02*
X0203169Y0043293D01*
X0203169Y0043560D02*
X0199881Y0043560D01*
X0199881Y0043827D02*
X0203169Y0043827D01*
X0203169Y0044094D02*
X0199881Y0044094D01*
X0203169Y0044728D02*
X0203169Y0046244D01*
X0203169Y0044728D02*
X0199881Y0044728D01*
X0199881Y0046244D01*
X0203169Y0046244D01*
X0203169Y0044995D02*
X0199881Y0044995D01*
X0199881Y0045262D02*
X0203169Y0045262D01*
X0203169Y0045529D02*
X0199881Y0045529D01*
X0199881Y0045796D02*
X0203169Y0045796D01*
X0203169Y0046063D02*
X0199881Y0046063D01*
X0203169Y0046696D02*
X0203169Y0048212D01*
X0203169Y0046696D02*
X0199881Y0046696D01*
X0199881Y0048212D01*
X0203169Y0048212D01*
X0203169Y0046963D02*
X0199881Y0046963D01*
X0199881Y0047230D02*
X0203169Y0047230D01*
X0203169Y0047497D02*
X0199881Y0047497D01*
X0199881Y0047764D02*
X0203169Y0047764D01*
X0203169Y0048031D02*
X0199881Y0048031D01*
X0203169Y0048665D02*
X0203169Y0050181D01*
X0203169Y0048665D02*
X0199881Y0048665D01*
X0199881Y0050181D01*
X0203169Y0050181D01*
X0203169Y0048932D02*
X0199881Y0048932D01*
X0199881Y0049199D02*
X0203169Y0049199D01*
X0203169Y0049466D02*
X0199881Y0049466D01*
X0199881Y0049733D02*
X0203169Y0049733D01*
X0203169Y0050000D02*
X0199881Y0050000D01*
X0203169Y0050633D02*
X0203169Y0052149D01*
X0203169Y0050633D02*
X0199881Y0050633D01*
X0199881Y0052149D01*
X0203169Y0052149D01*
X0203169Y0050900D02*
X0199881Y0050900D01*
X0199881Y0051167D02*
X0203169Y0051167D01*
X0203169Y0051434D02*
X0199881Y0051434D01*
X0199881Y0051701D02*
X0203169Y0051701D01*
X0203169Y0051968D02*
X0199881Y0051968D01*
X0203169Y0052602D02*
X0203169Y0054118D01*
X0203169Y0052602D02*
X0199881Y0052602D01*
X0199881Y0054118D01*
X0203169Y0054118D01*
X0203169Y0052869D02*
X0199881Y0052869D01*
X0199881Y0053136D02*
X0203169Y0053136D01*
X0203169Y0053403D02*
X0199881Y0053403D01*
X0199881Y0053670D02*
X0203169Y0053670D01*
X0203169Y0053937D02*
X0199881Y0053937D01*
X0161657Y0067107D02*
X0161657Y0068623D01*
X0161657Y0067107D02*
X0158369Y0067107D01*
X0158369Y0068623D01*
X0161657Y0068623D01*
X0161657Y0067374D02*
X0158369Y0067374D01*
X0158369Y0067641D02*
X0161657Y0067641D01*
X0161657Y0067908D02*
X0158369Y0067908D01*
X0158369Y0068175D02*
X0161657Y0068175D01*
X0161657Y0068442D02*
X0158369Y0068442D01*
X0161657Y0069076D02*
X0161657Y0070592D01*
X0161657Y0069076D02*
X0158369Y0069076D01*
X0158369Y0070592D01*
X0161657Y0070592D01*
X0161657Y0069343D02*
X0158369Y0069343D01*
X0158369Y0069610D02*
X0161657Y0069610D01*
X0161657Y0069877D02*
X0158369Y0069877D01*
X0158369Y0070144D02*
X0161657Y0070144D01*
X0161657Y0070411D02*
X0158369Y0070411D01*
X0161657Y0071044D02*
X0161657Y0072560D01*
X0161657Y0071044D02*
X0158369Y0071044D01*
X0158369Y0072560D01*
X0161657Y0072560D01*
X0161657Y0071311D02*
X0158369Y0071311D01*
X0158369Y0071578D02*
X0161657Y0071578D01*
X0161657Y0071845D02*
X0158369Y0071845D01*
X0158369Y0072112D02*
X0161657Y0072112D01*
X0161657Y0072379D02*
X0158369Y0072379D01*
X0161657Y0073013D02*
X0161657Y0074529D01*
X0161657Y0073013D02*
X0158369Y0073013D01*
X0158369Y0074529D01*
X0161657Y0074529D01*
X0161657Y0073280D02*
X0158369Y0073280D01*
X0158369Y0073547D02*
X0161657Y0073547D01*
X0161657Y0073814D02*
X0158369Y0073814D01*
X0158369Y0074081D02*
X0161657Y0074081D01*
X0161657Y0074348D02*
X0158369Y0074348D01*
X0161657Y0074981D02*
X0161657Y0076497D01*
X0161657Y0074981D02*
X0158369Y0074981D01*
X0158369Y0076497D01*
X0161657Y0076497D01*
X0161657Y0075248D02*
X0158369Y0075248D01*
X0158369Y0075515D02*
X0161657Y0075515D01*
X0161657Y0075782D02*
X0158369Y0075782D01*
X0158369Y0076049D02*
X0161657Y0076049D01*
X0161657Y0076316D02*
X0158369Y0076316D01*
X0161657Y0076950D02*
X0161657Y0078466D01*
X0161657Y0076950D02*
X0158369Y0076950D01*
X0158369Y0078466D01*
X0161657Y0078466D01*
X0161657Y0077217D02*
X0158369Y0077217D01*
X0158369Y0077484D02*
X0161657Y0077484D01*
X0161657Y0077751D02*
X0158369Y0077751D01*
X0158369Y0078018D02*
X0161657Y0078018D01*
X0161657Y0078285D02*
X0158369Y0078285D01*
X0161657Y0078918D02*
X0161657Y0080434D01*
X0161657Y0078918D02*
X0158369Y0078918D01*
X0158369Y0080434D01*
X0161657Y0080434D01*
X0161657Y0079185D02*
X0158369Y0079185D01*
X0158369Y0079452D02*
X0161657Y0079452D01*
X0161657Y0079719D02*
X0158369Y0079719D01*
X0158369Y0079986D02*
X0161657Y0079986D01*
X0161657Y0080253D02*
X0158369Y0080253D01*
X0161657Y0080887D02*
X0161657Y0082403D01*
X0161657Y0080887D02*
X0158369Y0080887D01*
X0158369Y0082403D01*
X0161657Y0082403D01*
X0161657Y0081154D02*
X0158369Y0081154D01*
X0158369Y0081421D02*
X0161657Y0081421D01*
X0161657Y0081688D02*
X0158369Y0081688D01*
X0158369Y0081955D02*
X0161657Y0081955D01*
X0161657Y0082222D02*
X0158369Y0082222D01*
X0161657Y0082855D02*
X0161657Y0084371D01*
X0161657Y0082855D02*
X0158369Y0082855D01*
X0158369Y0084371D01*
X0161657Y0084371D01*
X0161657Y0083122D02*
X0158369Y0083122D01*
X0158369Y0083389D02*
X0161657Y0083389D01*
X0161657Y0083656D02*
X0158369Y0083656D01*
X0158369Y0083923D02*
X0161657Y0083923D01*
X0161657Y0084190D02*
X0158369Y0084190D01*
X0161657Y0084824D02*
X0161657Y0086340D01*
X0161657Y0084824D02*
X0158369Y0084824D01*
X0158369Y0086340D01*
X0161657Y0086340D01*
X0161657Y0085091D02*
X0158369Y0085091D01*
X0158369Y0085358D02*
X0161657Y0085358D01*
X0161657Y0085625D02*
X0158369Y0085625D01*
X0158369Y0085892D02*
X0161657Y0085892D01*
X0161657Y0086159D02*
X0158369Y0086159D01*
X0161657Y0086792D02*
X0161657Y0088308D01*
X0161657Y0086792D02*
X0158369Y0086792D01*
X0158369Y0088308D01*
X0161657Y0088308D01*
X0161657Y0087059D02*
X0158369Y0087059D01*
X0158369Y0087326D02*
X0161657Y0087326D01*
X0161657Y0087593D02*
X0158369Y0087593D01*
X0158369Y0087860D02*
X0161657Y0087860D01*
X0161657Y0088127D02*
X0158369Y0088127D01*
X0143153Y0088308D02*
X0143153Y0086792D01*
X0139865Y0086792D01*
X0139865Y0088308D01*
X0143153Y0088308D01*
X0143153Y0087059D02*
X0139865Y0087059D01*
X0139865Y0087326D02*
X0143153Y0087326D01*
X0143153Y0087593D02*
X0139865Y0087593D01*
X0139865Y0087860D02*
X0143153Y0087860D01*
X0143153Y0088127D02*
X0139865Y0088127D01*
X0143153Y0086340D02*
X0143153Y0084824D01*
X0139865Y0084824D01*
X0139865Y0086340D01*
X0143153Y0086340D01*
X0143153Y0085091D02*
X0139865Y0085091D01*
X0139865Y0085358D02*
X0143153Y0085358D01*
X0143153Y0085625D02*
X0139865Y0085625D01*
X0139865Y0085892D02*
X0143153Y0085892D01*
X0143153Y0086159D02*
X0139865Y0086159D01*
X0143153Y0084371D02*
X0143153Y0082855D01*
X0139865Y0082855D01*
X0139865Y0084371D01*
X0143153Y0084371D01*
X0143153Y0083122D02*
X0139865Y0083122D01*
X0139865Y0083389D02*
X0143153Y0083389D01*
X0143153Y0083656D02*
X0139865Y0083656D01*
X0139865Y0083923D02*
X0143153Y0083923D01*
X0143153Y0084190D02*
X0139865Y0084190D01*
X0143153Y0082403D02*
X0143153Y0080887D01*
X0139865Y0080887D01*
X0139865Y0082403D01*
X0143153Y0082403D01*
X0143153Y0081154D02*
X0139865Y0081154D01*
X0139865Y0081421D02*
X0143153Y0081421D01*
X0143153Y0081688D02*
X0139865Y0081688D01*
X0139865Y0081955D02*
X0143153Y0081955D01*
X0143153Y0082222D02*
X0139865Y0082222D01*
X0143153Y0080434D02*
X0143153Y0078918D01*
X0139865Y0078918D01*
X0139865Y0080434D01*
X0143153Y0080434D01*
X0143153Y0079185D02*
X0139865Y0079185D01*
X0139865Y0079452D02*
X0143153Y0079452D01*
X0143153Y0079719D02*
X0139865Y0079719D01*
X0139865Y0079986D02*
X0143153Y0079986D01*
X0143153Y0080253D02*
X0139865Y0080253D01*
X0143153Y0078466D02*
X0143153Y0076950D01*
X0139865Y0076950D01*
X0139865Y0078466D01*
X0143153Y0078466D01*
X0143153Y0077217D02*
X0139865Y0077217D01*
X0139865Y0077484D02*
X0143153Y0077484D01*
X0143153Y0077751D02*
X0139865Y0077751D01*
X0139865Y0078018D02*
X0143153Y0078018D01*
X0143153Y0078285D02*
X0139865Y0078285D01*
X0143153Y0076497D02*
X0143153Y0074981D01*
X0139865Y0074981D01*
X0139865Y0076497D01*
X0143153Y0076497D01*
X0143153Y0075248D02*
X0139865Y0075248D01*
X0139865Y0075515D02*
X0143153Y0075515D01*
X0143153Y0075782D02*
X0139865Y0075782D01*
X0139865Y0076049D02*
X0143153Y0076049D01*
X0143153Y0076316D02*
X0139865Y0076316D01*
X0143153Y0074529D02*
X0143153Y0073013D01*
X0139865Y0073013D01*
X0139865Y0074529D01*
X0143153Y0074529D01*
X0143153Y0073280D02*
X0139865Y0073280D01*
X0139865Y0073547D02*
X0143153Y0073547D01*
X0143153Y0073814D02*
X0139865Y0073814D01*
X0139865Y0074081D02*
X0143153Y0074081D01*
X0143153Y0074348D02*
X0139865Y0074348D01*
X0143153Y0072560D02*
X0143153Y0071044D01*
X0139865Y0071044D01*
X0139865Y0072560D01*
X0143153Y0072560D01*
X0143153Y0071311D02*
X0139865Y0071311D01*
X0139865Y0071578D02*
X0143153Y0071578D01*
X0143153Y0071845D02*
X0139865Y0071845D01*
X0139865Y0072112D02*
X0143153Y0072112D01*
X0143153Y0072379D02*
X0139865Y0072379D01*
X0143153Y0070592D02*
X0143153Y0069076D01*
X0139865Y0069076D01*
X0139865Y0070592D01*
X0143153Y0070592D01*
X0143153Y0069343D02*
X0139865Y0069343D01*
X0139865Y0069610D02*
X0143153Y0069610D01*
X0143153Y0069877D02*
X0139865Y0069877D01*
X0139865Y0070144D02*
X0143153Y0070144D01*
X0143153Y0070411D02*
X0139865Y0070411D01*
X0143153Y0068623D02*
X0143153Y0067107D01*
X0139865Y0067107D01*
X0139865Y0068623D01*
X0143153Y0068623D01*
X0143153Y0067374D02*
X0139865Y0067374D01*
X0139865Y0067641D02*
X0143153Y0067641D01*
X0143153Y0067908D02*
X0139865Y0067908D01*
X0139865Y0068175D02*
X0143153Y0068175D01*
X0143153Y0068442D02*
X0139865Y0068442D01*
X0116567Y0103242D02*
X0115051Y0103242D01*
X0115051Y0106530D01*
X0116567Y0106530D01*
X0116567Y0103242D01*
X0116567Y0103509D02*
X0115051Y0103509D01*
X0115051Y0103776D02*
X0116567Y0103776D01*
X0116567Y0104043D02*
X0115051Y0104043D01*
X0115051Y0104310D02*
X0116567Y0104310D01*
X0116567Y0104577D02*
X0115051Y0104577D01*
X0115051Y0104844D02*
X0116567Y0104844D01*
X0116567Y0105111D02*
X0115051Y0105111D01*
X0115051Y0105378D02*
X0116567Y0105378D01*
X0116567Y0105645D02*
X0115051Y0105645D01*
X0115051Y0105912D02*
X0116567Y0105912D01*
X0116567Y0106179D02*
X0115051Y0106179D01*
X0115051Y0106446D02*
X0116567Y0106446D01*
X0114598Y0103242D02*
X0113082Y0103242D01*
X0113082Y0106530D01*
X0114598Y0106530D01*
X0114598Y0103242D01*
X0114598Y0103509D02*
X0113082Y0103509D01*
X0113082Y0103776D02*
X0114598Y0103776D01*
X0114598Y0104043D02*
X0113082Y0104043D01*
X0113082Y0104310D02*
X0114598Y0104310D01*
X0114598Y0104577D02*
X0113082Y0104577D01*
X0113082Y0104844D02*
X0114598Y0104844D01*
X0114598Y0105111D02*
X0113082Y0105111D01*
X0113082Y0105378D02*
X0114598Y0105378D01*
X0114598Y0105645D02*
X0113082Y0105645D01*
X0113082Y0105912D02*
X0114598Y0105912D01*
X0114598Y0106179D02*
X0113082Y0106179D01*
X0113082Y0106446D02*
X0114598Y0106446D01*
X0112630Y0103242D02*
X0111114Y0103242D01*
X0111114Y0106530D01*
X0112630Y0106530D01*
X0112630Y0103242D01*
X0112630Y0103509D02*
X0111114Y0103509D01*
X0111114Y0103776D02*
X0112630Y0103776D01*
X0112630Y0104043D02*
X0111114Y0104043D01*
X0111114Y0104310D02*
X0112630Y0104310D01*
X0112630Y0104577D02*
X0111114Y0104577D01*
X0111114Y0104844D02*
X0112630Y0104844D01*
X0112630Y0105111D02*
X0111114Y0105111D01*
X0111114Y0105378D02*
X0112630Y0105378D01*
X0112630Y0105645D02*
X0111114Y0105645D01*
X0111114Y0105912D02*
X0112630Y0105912D01*
X0112630Y0106179D02*
X0111114Y0106179D01*
X0111114Y0106446D02*
X0112630Y0106446D01*
X0110661Y0103242D02*
X0109145Y0103242D01*
X0109145Y0106530D01*
X0110661Y0106530D01*
X0110661Y0103242D01*
X0110661Y0103509D02*
X0109145Y0103509D01*
X0109145Y0103776D02*
X0110661Y0103776D01*
X0110661Y0104043D02*
X0109145Y0104043D01*
X0109145Y0104310D02*
X0110661Y0104310D01*
X0110661Y0104577D02*
X0109145Y0104577D01*
X0109145Y0104844D02*
X0110661Y0104844D01*
X0110661Y0105111D02*
X0109145Y0105111D01*
X0109145Y0105378D02*
X0110661Y0105378D01*
X0110661Y0105645D02*
X0109145Y0105645D01*
X0109145Y0105912D02*
X0110661Y0105912D01*
X0110661Y0106179D02*
X0109145Y0106179D01*
X0109145Y0106446D02*
X0110661Y0106446D01*
X0108693Y0103242D02*
X0107177Y0103242D01*
X0107177Y0106530D01*
X0108693Y0106530D01*
X0108693Y0103242D01*
X0108693Y0103509D02*
X0107177Y0103509D01*
X0107177Y0103776D02*
X0108693Y0103776D01*
X0108693Y0104043D02*
X0107177Y0104043D01*
X0107177Y0104310D02*
X0108693Y0104310D01*
X0108693Y0104577D02*
X0107177Y0104577D01*
X0107177Y0104844D02*
X0108693Y0104844D01*
X0108693Y0105111D02*
X0107177Y0105111D01*
X0107177Y0105378D02*
X0108693Y0105378D01*
X0108693Y0105645D02*
X0107177Y0105645D01*
X0107177Y0105912D02*
X0108693Y0105912D01*
X0108693Y0106179D02*
X0107177Y0106179D01*
X0107177Y0106446D02*
X0108693Y0106446D01*
X0106724Y0103242D02*
X0105208Y0103242D01*
X0105208Y0106530D01*
X0106724Y0106530D01*
X0106724Y0103242D01*
X0106724Y0103509D02*
X0105208Y0103509D01*
X0105208Y0103776D02*
X0106724Y0103776D01*
X0106724Y0104043D02*
X0105208Y0104043D01*
X0105208Y0104310D02*
X0106724Y0104310D01*
X0106724Y0104577D02*
X0105208Y0104577D01*
X0105208Y0104844D02*
X0106724Y0104844D01*
X0106724Y0105111D02*
X0105208Y0105111D01*
X0105208Y0105378D02*
X0106724Y0105378D01*
X0106724Y0105645D02*
X0105208Y0105645D01*
X0105208Y0105912D02*
X0106724Y0105912D01*
X0106724Y0106179D02*
X0105208Y0106179D01*
X0105208Y0106446D02*
X0106724Y0106446D01*
X0104756Y0103242D02*
X0103240Y0103242D01*
X0103240Y0106530D01*
X0104756Y0106530D01*
X0104756Y0103242D01*
X0104756Y0103509D02*
X0103240Y0103509D01*
X0103240Y0103776D02*
X0104756Y0103776D01*
X0104756Y0104043D02*
X0103240Y0104043D01*
X0103240Y0104310D02*
X0104756Y0104310D01*
X0104756Y0104577D02*
X0103240Y0104577D01*
X0103240Y0104844D02*
X0104756Y0104844D01*
X0104756Y0105111D02*
X0103240Y0105111D01*
X0103240Y0105378D02*
X0104756Y0105378D01*
X0104756Y0105645D02*
X0103240Y0105645D01*
X0103240Y0105912D02*
X0104756Y0105912D01*
X0104756Y0106179D02*
X0103240Y0106179D01*
X0103240Y0106446D02*
X0104756Y0106446D01*
X0102787Y0103242D02*
X0101271Y0103242D01*
X0101271Y0106530D01*
X0102787Y0106530D01*
X0102787Y0103242D01*
X0102787Y0103509D02*
X0101271Y0103509D01*
X0101271Y0103776D02*
X0102787Y0103776D01*
X0102787Y0104043D02*
X0101271Y0104043D01*
X0101271Y0104310D02*
X0102787Y0104310D01*
X0102787Y0104577D02*
X0101271Y0104577D01*
X0101271Y0104844D02*
X0102787Y0104844D01*
X0102787Y0105111D02*
X0101271Y0105111D01*
X0101271Y0105378D02*
X0102787Y0105378D01*
X0102787Y0105645D02*
X0101271Y0105645D01*
X0101271Y0105912D02*
X0102787Y0105912D01*
X0102787Y0106179D02*
X0101271Y0106179D01*
X0101271Y0106446D02*
X0102787Y0106446D01*
X0100819Y0103242D02*
X0099303Y0103242D01*
X0099303Y0106530D01*
X0100819Y0106530D01*
X0100819Y0103242D01*
X0100819Y0103509D02*
X0099303Y0103509D01*
X0099303Y0103776D02*
X0100819Y0103776D01*
X0100819Y0104043D02*
X0099303Y0104043D01*
X0099303Y0104310D02*
X0100819Y0104310D01*
X0100819Y0104577D02*
X0099303Y0104577D01*
X0099303Y0104844D02*
X0100819Y0104844D01*
X0100819Y0105111D02*
X0099303Y0105111D01*
X0099303Y0105378D02*
X0100819Y0105378D01*
X0100819Y0105645D02*
X0099303Y0105645D01*
X0099303Y0105912D02*
X0100819Y0105912D01*
X0100819Y0106179D02*
X0099303Y0106179D01*
X0099303Y0106446D02*
X0100819Y0106446D01*
X0098850Y0103242D02*
X0097334Y0103242D01*
X0097334Y0106530D01*
X0098850Y0106530D01*
X0098850Y0103242D01*
X0098850Y0103509D02*
X0097334Y0103509D01*
X0097334Y0103776D02*
X0098850Y0103776D01*
X0098850Y0104043D02*
X0097334Y0104043D01*
X0097334Y0104310D02*
X0098850Y0104310D01*
X0098850Y0104577D02*
X0097334Y0104577D01*
X0097334Y0104844D02*
X0098850Y0104844D01*
X0098850Y0105111D02*
X0097334Y0105111D01*
X0097334Y0105378D02*
X0098850Y0105378D01*
X0098850Y0105645D02*
X0097334Y0105645D01*
X0097334Y0105912D02*
X0098850Y0105912D01*
X0098850Y0106179D02*
X0097334Y0106179D01*
X0097334Y0106446D02*
X0098850Y0106446D01*
X0096882Y0103242D02*
X0095366Y0103242D01*
X0095366Y0106530D01*
X0096882Y0106530D01*
X0096882Y0103242D01*
X0096882Y0103509D02*
X0095366Y0103509D01*
X0095366Y0103776D02*
X0096882Y0103776D01*
X0096882Y0104043D02*
X0095366Y0104043D01*
X0095366Y0104310D02*
X0096882Y0104310D01*
X0096882Y0104577D02*
X0095366Y0104577D01*
X0095366Y0104844D02*
X0096882Y0104844D01*
X0096882Y0105111D02*
X0095366Y0105111D01*
X0095366Y0105378D02*
X0096882Y0105378D01*
X0096882Y0105645D02*
X0095366Y0105645D01*
X0095366Y0105912D02*
X0096882Y0105912D01*
X0096882Y0106179D02*
X0095366Y0106179D01*
X0095366Y0106446D02*
X0096882Y0106446D01*
X0096882Y0121746D02*
X0095366Y0121746D01*
X0095366Y0125034D01*
X0096882Y0125034D01*
X0096882Y0121746D01*
X0096882Y0122013D02*
X0095366Y0122013D01*
X0095366Y0122280D02*
X0096882Y0122280D01*
X0096882Y0122547D02*
X0095366Y0122547D01*
X0095366Y0122814D02*
X0096882Y0122814D01*
X0096882Y0123081D02*
X0095366Y0123081D01*
X0095366Y0123348D02*
X0096882Y0123348D01*
X0096882Y0123615D02*
X0095366Y0123615D01*
X0095366Y0123882D02*
X0096882Y0123882D01*
X0096882Y0124149D02*
X0095366Y0124149D01*
X0095366Y0124416D02*
X0096882Y0124416D01*
X0096882Y0124683D02*
X0095366Y0124683D01*
X0095366Y0124950D02*
X0096882Y0124950D01*
X0097334Y0121746D02*
X0098850Y0121746D01*
X0097334Y0121746D02*
X0097334Y0125034D01*
X0098850Y0125034D01*
X0098850Y0121746D01*
X0098850Y0122013D02*
X0097334Y0122013D01*
X0097334Y0122280D02*
X0098850Y0122280D01*
X0098850Y0122547D02*
X0097334Y0122547D01*
X0097334Y0122814D02*
X0098850Y0122814D01*
X0098850Y0123081D02*
X0097334Y0123081D01*
X0097334Y0123348D02*
X0098850Y0123348D01*
X0098850Y0123615D02*
X0097334Y0123615D01*
X0097334Y0123882D02*
X0098850Y0123882D01*
X0098850Y0124149D02*
X0097334Y0124149D01*
X0097334Y0124416D02*
X0098850Y0124416D01*
X0098850Y0124683D02*
X0097334Y0124683D01*
X0097334Y0124950D02*
X0098850Y0124950D01*
X0099303Y0121746D02*
X0100819Y0121746D01*
X0099303Y0121746D02*
X0099303Y0125034D01*
X0100819Y0125034D01*
X0100819Y0121746D01*
X0100819Y0122013D02*
X0099303Y0122013D01*
X0099303Y0122280D02*
X0100819Y0122280D01*
X0100819Y0122547D02*
X0099303Y0122547D01*
X0099303Y0122814D02*
X0100819Y0122814D01*
X0100819Y0123081D02*
X0099303Y0123081D01*
X0099303Y0123348D02*
X0100819Y0123348D01*
X0100819Y0123615D02*
X0099303Y0123615D01*
X0099303Y0123882D02*
X0100819Y0123882D01*
X0100819Y0124149D02*
X0099303Y0124149D01*
X0099303Y0124416D02*
X0100819Y0124416D01*
X0100819Y0124683D02*
X0099303Y0124683D01*
X0099303Y0124950D02*
X0100819Y0124950D01*
X0101271Y0121746D02*
X0102787Y0121746D01*
X0101271Y0121746D02*
X0101271Y0125034D01*
X0102787Y0125034D01*
X0102787Y0121746D01*
X0102787Y0122013D02*
X0101271Y0122013D01*
X0101271Y0122280D02*
X0102787Y0122280D01*
X0102787Y0122547D02*
X0101271Y0122547D01*
X0101271Y0122814D02*
X0102787Y0122814D01*
X0102787Y0123081D02*
X0101271Y0123081D01*
X0101271Y0123348D02*
X0102787Y0123348D01*
X0102787Y0123615D02*
X0101271Y0123615D01*
X0101271Y0123882D02*
X0102787Y0123882D01*
X0102787Y0124149D02*
X0101271Y0124149D01*
X0101271Y0124416D02*
X0102787Y0124416D01*
X0102787Y0124683D02*
X0101271Y0124683D01*
X0101271Y0124950D02*
X0102787Y0124950D01*
X0103240Y0121746D02*
X0104756Y0121746D01*
X0103240Y0121746D02*
X0103240Y0125034D01*
X0104756Y0125034D01*
X0104756Y0121746D01*
X0104756Y0122013D02*
X0103240Y0122013D01*
X0103240Y0122280D02*
X0104756Y0122280D01*
X0104756Y0122547D02*
X0103240Y0122547D01*
X0103240Y0122814D02*
X0104756Y0122814D01*
X0104756Y0123081D02*
X0103240Y0123081D01*
X0103240Y0123348D02*
X0104756Y0123348D01*
X0104756Y0123615D02*
X0103240Y0123615D01*
X0103240Y0123882D02*
X0104756Y0123882D01*
X0104756Y0124149D02*
X0103240Y0124149D01*
X0103240Y0124416D02*
X0104756Y0124416D01*
X0104756Y0124683D02*
X0103240Y0124683D01*
X0103240Y0124950D02*
X0104756Y0124950D01*
X0105208Y0121746D02*
X0106724Y0121746D01*
X0105208Y0121746D02*
X0105208Y0125034D01*
X0106724Y0125034D01*
X0106724Y0121746D01*
X0106724Y0122013D02*
X0105208Y0122013D01*
X0105208Y0122280D02*
X0106724Y0122280D01*
X0106724Y0122547D02*
X0105208Y0122547D01*
X0105208Y0122814D02*
X0106724Y0122814D01*
X0106724Y0123081D02*
X0105208Y0123081D01*
X0105208Y0123348D02*
X0106724Y0123348D01*
X0106724Y0123615D02*
X0105208Y0123615D01*
X0105208Y0123882D02*
X0106724Y0123882D01*
X0106724Y0124149D02*
X0105208Y0124149D01*
X0105208Y0124416D02*
X0106724Y0124416D01*
X0106724Y0124683D02*
X0105208Y0124683D01*
X0105208Y0124950D02*
X0106724Y0124950D01*
X0107177Y0121746D02*
X0108693Y0121746D01*
X0107177Y0121746D02*
X0107177Y0125034D01*
X0108693Y0125034D01*
X0108693Y0121746D01*
X0108693Y0122013D02*
X0107177Y0122013D01*
X0107177Y0122280D02*
X0108693Y0122280D01*
X0108693Y0122547D02*
X0107177Y0122547D01*
X0107177Y0122814D02*
X0108693Y0122814D01*
X0108693Y0123081D02*
X0107177Y0123081D01*
X0107177Y0123348D02*
X0108693Y0123348D01*
X0108693Y0123615D02*
X0107177Y0123615D01*
X0107177Y0123882D02*
X0108693Y0123882D01*
X0108693Y0124149D02*
X0107177Y0124149D01*
X0107177Y0124416D02*
X0108693Y0124416D01*
X0108693Y0124683D02*
X0107177Y0124683D01*
X0107177Y0124950D02*
X0108693Y0124950D01*
X0109145Y0121746D02*
X0110661Y0121746D01*
X0109145Y0121746D02*
X0109145Y0125034D01*
X0110661Y0125034D01*
X0110661Y0121746D01*
X0110661Y0122013D02*
X0109145Y0122013D01*
X0109145Y0122280D02*
X0110661Y0122280D01*
X0110661Y0122547D02*
X0109145Y0122547D01*
X0109145Y0122814D02*
X0110661Y0122814D01*
X0110661Y0123081D02*
X0109145Y0123081D01*
X0109145Y0123348D02*
X0110661Y0123348D01*
X0110661Y0123615D02*
X0109145Y0123615D01*
X0109145Y0123882D02*
X0110661Y0123882D01*
X0110661Y0124149D02*
X0109145Y0124149D01*
X0109145Y0124416D02*
X0110661Y0124416D01*
X0110661Y0124683D02*
X0109145Y0124683D01*
X0109145Y0124950D02*
X0110661Y0124950D01*
X0111114Y0121746D02*
X0112630Y0121746D01*
X0111114Y0121746D02*
X0111114Y0125034D01*
X0112630Y0125034D01*
X0112630Y0121746D01*
X0112630Y0122013D02*
X0111114Y0122013D01*
X0111114Y0122280D02*
X0112630Y0122280D01*
X0112630Y0122547D02*
X0111114Y0122547D01*
X0111114Y0122814D02*
X0112630Y0122814D01*
X0112630Y0123081D02*
X0111114Y0123081D01*
X0111114Y0123348D02*
X0112630Y0123348D01*
X0112630Y0123615D02*
X0111114Y0123615D01*
X0111114Y0123882D02*
X0112630Y0123882D01*
X0112630Y0124149D02*
X0111114Y0124149D01*
X0111114Y0124416D02*
X0112630Y0124416D01*
X0112630Y0124683D02*
X0111114Y0124683D01*
X0111114Y0124950D02*
X0112630Y0124950D01*
X0113082Y0121746D02*
X0114598Y0121746D01*
X0113082Y0121746D02*
X0113082Y0125034D01*
X0114598Y0125034D01*
X0114598Y0121746D01*
X0114598Y0122013D02*
X0113082Y0122013D01*
X0113082Y0122280D02*
X0114598Y0122280D01*
X0114598Y0122547D02*
X0113082Y0122547D01*
X0113082Y0122814D02*
X0114598Y0122814D01*
X0114598Y0123081D02*
X0113082Y0123081D01*
X0113082Y0123348D02*
X0114598Y0123348D01*
X0114598Y0123615D02*
X0113082Y0123615D01*
X0113082Y0123882D02*
X0114598Y0123882D01*
X0114598Y0124149D02*
X0113082Y0124149D01*
X0113082Y0124416D02*
X0114598Y0124416D01*
X0114598Y0124683D02*
X0113082Y0124683D01*
X0113082Y0124950D02*
X0114598Y0124950D01*
X0115051Y0121746D02*
X0116567Y0121746D01*
X0115051Y0121746D02*
X0115051Y0125034D01*
X0116567Y0125034D01*
X0116567Y0121746D01*
X0116567Y0122013D02*
X0115051Y0122013D01*
X0115051Y0122280D02*
X0116567Y0122280D01*
X0116567Y0122547D02*
X0115051Y0122547D01*
X0115051Y0122814D02*
X0116567Y0122814D01*
X0116567Y0123081D02*
X0115051Y0123081D01*
X0115051Y0123348D02*
X0116567Y0123348D01*
X0116567Y0123615D02*
X0115051Y0123615D01*
X0115051Y0123882D02*
X0116567Y0123882D01*
X0116567Y0124149D02*
X0115051Y0124149D01*
X0115051Y0124416D02*
X0116567Y0124416D01*
X0116567Y0124683D02*
X0115051Y0124683D01*
X0115051Y0124950D02*
X0116567Y0124950D01*
D28*
X0116860Y0123541D02*
X0116860Y0121389D01*
X0116860Y0123541D02*
X0118796Y0123541D01*
X0118796Y0121389D01*
X0116860Y0121389D01*
X0116860Y0121729D02*
X0118796Y0121729D01*
X0118796Y0122069D02*
X0116860Y0122069D01*
X0116860Y0122409D02*
X0118796Y0122409D01*
X0118796Y0122749D02*
X0116860Y0122749D01*
X0116860Y0123089D02*
X0118796Y0123089D01*
X0118796Y0123429D02*
X0116860Y0123429D01*
X0116860Y0106887D02*
X0116860Y0104735D01*
X0116860Y0106887D02*
X0118796Y0106887D01*
X0118796Y0104735D01*
X0116860Y0104735D01*
X0116860Y0105075D02*
X0118796Y0105075D01*
X0118796Y0105415D02*
X0116860Y0105415D01*
X0116860Y0105755D02*
X0118796Y0105755D01*
X0118796Y0106095D02*
X0116860Y0106095D01*
X0116860Y0106435D02*
X0118796Y0106435D01*
X0118796Y0106775D02*
X0116860Y0106775D01*
X0093136Y0106887D02*
X0093136Y0104735D01*
X0093136Y0106887D02*
X0095072Y0106887D01*
X0095072Y0104735D01*
X0093136Y0104735D01*
X0093136Y0105075D02*
X0095072Y0105075D01*
X0095072Y0105415D02*
X0093136Y0105415D01*
X0093136Y0105755D02*
X0095072Y0105755D01*
X0095072Y0106095D02*
X0093136Y0106095D01*
X0093136Y0106435D02*
X0095072Y0106435D01*
X0095072Y0106775D02*
X0093136Y0106775D01*
X0093136Y0121389D02*
X0093136Y0123541D01*
X0095072Y0123541D01*
X0095072Y0121389D01*
X0093136Y0121389D01*
X0093136Y0121729D02*
X0095072Y0121729D01*
X0095072Y0122069D02*
X0093136Y0122069D01*
X0093136Y0122409D02*
X0095072Y0122409D01*
X0095072Y0122749D02*
X0093136Y0122749D01*
X0093136Y0123089D02*
X0095072Y0123089D01*
X0095072Y0123429D02*
X0093136Y0123429D01*
X0141358Y0088602D02*
X0143510Y0088602D01*
X0141358Y0088602D02*
X0141358Y0090538D01*
X0143510Y0090538D01*
X0143510Y0088602D01*
X0143510Y0088942D02*
X0141358Y0088942D01*
X0141358Y0089282D02*
X0143510Y0089282D01*
X0143510Y0089622D02*
X0141358Y0089622D01*
X0141358Y0089962D02*
X0143510Y0089962D01*
X0143510Y0090302D02*
X0141358Y0090302D01*
X0158011Y0088602D02*
X0160163Y0088602D01*
X0158011Y0088602D02*
X0158011Y0090538D01*
X0160163Y0090538D01*
X0160163Y0088602D01*
X0160163Y0088942D02*
X0158011Y0088942D01*
X0158011Y0089282D02*
X0160163Y0089282D01*
X0160163Y0089622D02*
X0158011Y0089622D01*
X0158011Y0089962D02*
X0160163Y0089962D01*
X0160163Y0090302D02*
X0158011Y0090302D01*
X0158011Y0064878D02*
X0160163Y0064878D01*
X0158011Y0064878D02*
X0158011Y0066814D01*
X0160163Y0066814D01*
X0160163Y0064878D01*
X0160163Y0065218D02*
X0158011Y0065218D01*
X0158011Y0065558D02*
X0160163Y0065558D01*
X0160163Y0065898D02*
X0158011Y0065898D01*
X0158011Y0066238D02*
X0160163Y0066238D01*
X0160163Y0066578D02*
X0158011Y0066578D01*
X0143510Y0064878D02*
X0141358Y0064878D01*
X0141358Y0066814D01*
X0143510Y0066814D01*
X0143510Y0064878D01*
X0143510Y0065218D02*
X0141358Y0065218D01*
X0141358Y0065558D02*
X0143510Y0065558D01*
X0143510Y0065898D02*
X0141358Y0065898D01*
X0141358Y0066238D02*
X0143510Y0066238D01*
X0143510Y0066578D02*
X0141358Y0066578D01*
X0182870Y0054412D02*
X0185022Y0054412D01*
X0182870Y0054412D02*
X0182870Y0056348D01*
X0185022Y0056348D01*
X0185022Y0054412D01*
X0185022Y0054752D02*
X0182870Y0054752D01*
X0182870Y0055092D02*
X0185022Y0055092D01*
X0185022Y0055432D02*
X0182870Y0055432D01*
X0182870Y0055772D02*
X0185022Y0055772D01*
X0185022Y0056112D02*
X0182870Y0056112D01*
X0199524Y0054412D02*
X0201676Y0054412D01*
X0199524Y0054412D02*
X0199524Y0056348D01*
X0201676Y0056348D01*
X0201676Y0054412D01*
X0201676Y0054752D02*
X0199524Y0054752D01*
X0199524Y0055092D02*
X0201676Y0055092D01*
X0201676Y0055432D02*
X0199524Y0055432D01*
X0199524Y0055772D02*
X0201676Y0055772D01*
X0201676Y0056112D02*
X0199524Y0056112D01*
X0199524Y0030687D02*
X0201676Y0030687D01*
X0199524Y0030687D02*
X0199524Y0032623D01*
X0201676Y0032623D01*
X0201676Y0030687D01*
X0201676Y0031027D02*
X0199524Y0031027D01*
X0199524Y0031367D02*
X0201676Y0031367D01*
X0201676Y0031707D02*
X0199524Y0031707D01*
X0199524Y0032047D02*
X0201676Y0032047D01*
X0201676Y0032387D02*
X0199524Y0032387D01*
X0185022Y0030687D02*
X0182870Y0030687D01*
X0182870Y0032623D01*
X0185022Y0032623D01*
X0185022Y0030687D01*
X0185022Y0031027D02*
X0182870Y0031027D01*
X0182870Y0031367D02*
X0185022Y0031367D01*
X0185022Y0031707D02*
X0182870Y0031707D01*
X0182870Y0032047D02*
X0185022Y0032047D01*
X0185022Y0032387D02*
X0182870Y0032387D01*
D29*
X0237796Y0049174D03*
X0237796Y0078702D03*
X0294489Y0097009D03*
X0294489Y0126536D03*
D30*
X0079331Y0131024D03*
X0079331Y0195198D03*
D31*
X0088583Y0182796D03*
X0088583Y0178859D03*
X0088583Y0174922D03*
X0088583Y0170985D03*
X0088583Y0167048D03*
X0088583Y0163111D03*
X0088583Y0159174D03*
X0088583Y0155237D03*
X0088583Y0151300D03*
X0088583Y0147363D03*
X0088583Y0143426D03*
D32*
X0290661Y0263489D02*
X0292441Y0263489D01*
X0290661Y0263489D02*
X0290661Y0268379D01*
X0292441Y0268379D01*
X0292441Y0263489D01*
X0292441Y0264082D02*
X0290661Y0264082D01*
X0290661Y0264675D02*
X0292441Y0264675D01*
X0292441Y0265268D02*
X0290661Y0265268D01*
X0290661Y0265861D02*
X0292441Y0265861D01*
X0292441Y0266454D02*
X0290661Y0266454D01*
X0290661Y0267047D02*
X0292441Y0267047D01*
X0292441Y0267640D02*
X0290661Y0267640D01*
X0290661Y0268233D02*
X0292441Y0268233D01*
X0293220Y0263489D02*
X0295000Y0263489D01*
X0293220Y0263489D02*
X0293220Y0268379D01*
X0295000Y0268379D01*
X0295000Y0263489D01*
X0295000Y0264082D02*
X0293220Y0264082D01*
X0293220Y0264675D02*
X0295000Y0264675D01*
X0295000Y0265268D02*
X0293220Y0265268D01*
X0293220Y0265861D02*
X0295000Y0265861D01*
X0295000Y0266454D02*
X0293220Y0266454D01*
X0293220Y0267047D02*
X0295000Y0267047D01*
X0295000Y0267640D02*
X0293220Y0267640D01*
X0293220Y0268233D02*
X0295000Y0268233D01*
X0295779Y0263489D02*
X0297559Y0263489D01*
X0295779Y0263489D02*
X0295779Y0268379D01*
X0297559Y0268379D01*
X0297559Y0263489D01*
X0297559Y0264082D02*
X0295779Y0264082D01*
X0295779Y0264675D02*
X0297559Y0264675D01*
X0297559Y0265268D02*
X0295779Y0265268D01*
X0295779Y0265861D02*
X0297559Y0265861D01*
X0297559Y0266454D02*
X0295779Y0266454D01*
X0295779Y0267047D02*
X0297559Y0267047D01*
X0297559Y0267640D02*
X0295779Y0267640D01*
X0295779Y0268233D02*
X0297559Y0268233D01*
X0297559Y0275938D02*
X0295779Y0275938D01*
X0297559Y0275938D02*
X0297559Y0271048D01*
X0295779Y0271048D01*
X0295779Y0275938D01*
X0295779Y0271641D02*
X0297559Y0271641D01*
X0297559Y0272234D02*
X0295779Y0272234D01*
X0295779Y0272827D02*
X0297559Y0272827D01*
X0297559Y0273420D02*
X0295779Y0273420D01*
X0295779Y0274013D02*
X0297559Y0274013D01*
X0297559Y0274606D02*
X0295779Y0274606D01*
X0295779Y0275199D02*
X0297559Y0275199D01*
X0297559Y0275792D02*
X0295779Y0275792D01*
X0292441Y0275938D02*
X0290661Y0275938D01*
X0292441Y0275938D02*
X0292441Y0271048D01*
X0290661Y0271048D01*
X0290661Y0275938D01*
X0290661Y0271641D02*
X0292441Y0271641D01*
X0292441Y0272234D02*
X0290661Y0272234D01*
X0290661Y0272827D02*
X0292441Y0272827D01*
X0292441Y0273420D02*
X0290661Y0273420D01*
X0290661Y0274013D02*
X0292441Y0274013D01*
X0292441Y0274606D02*
X0290661Y0274606D01*
X0290661Y0275199D02*
X0292441Y0275199D01*
X0292441Y0275792D02*
X0290661Y0275792D01*
D33*
X0281497Y0275198D03*
X0271497Y0275198D03*
X0271497Y0285198D03*
X0281497Y0285198D03*
X0281497Y0265198D03*
X0271497Y0265198D03*
X0271497Y0255198D03*
X0281497Y0255198D03*
X0338808Y0141111D03*
X0338808Y0131111D03*
X0338808Y0121111D03*
X0338808Y0111111D03*
D34*
X0216851Y0085552D03*
X0188111Y0085552D03*
D35*
X0257993Y0073150D03*
X0276497Y0090473D03*
X0285946Y0081812D03*
X0314292Y0083387D03*
X0314292Y0112127D03*
X0276497Y0119213D03*
X0285946Y0053072D03*
X0257993Y0044410D03*
D36*
X0110749Y0065867D03*
X0110749Y0069804D03*
X0124922Y0078072D03*
X0126497Y0081615D03*
X0122560Y0082009D03*
X0129253Y0078465D03*
X0130828Y0082009D03*
X0133190Y0078859D03*
X0133190Y0074922D03*
X0135158Y0071772D03*
X0137127Y0075316D03*
X0137127Y0079253D03*
X0136339Y0083190D03*
X0134371Y0088702D03*
X0138308Y0091064D03*
X0134371Y0095001D03*
X0132009Y0098150D03*
X0128859Y0100513D03*
X0125316Y0102087D03*
X0126103Y0097757D03*
X0130040Y0094607D03*
X0125709Y0093426D03*
X0128465Y0090276D03*
X0111536Y0088308D03*
X0129253Y0074528D03*
X0126891Y0057206D03*
X0148150Y0045788D03*
X0156418Y0046182D03*
X0157993Y0049725D03*
X0156812Y0053269D03*
X0159568Y0059568D03*
X0153269Y0069017D03*
X0153269Y0073347D03*
X0148544Y0073347D03*
X0148544Y0069017D03*
X0148544Y0077678D03*
X0153269Y0077678D03*
X0164686Y0070985D03*
X0166654Y0079646D03*
X0179646Y0089883D03*
X0182402Y0087127D03*
X0176497Y0092639D03*
X0172560Y0093820D03*
X0168623Y0093820D03*
X0164686Y0093820D03*
X0168229Y0105237D03*
X0159568Y0105237D03*
X0150906Y0105237D03*
X0150906Y0114292D03*
X0142245Y0114292D03*
X0142245Y0123347D03*
X0150906Y0123347D03*
X0159568Y0114292D03*
X0150906Y0132402D03*
X0142245Y0132402D03*
X0133583Y0132402D03*
X0133583Y0123347D03*
X0117048Y0127284D03*
X0117048Y0131221D03*
X0100119Y0132009D03*
X0098150Y0135946D03*
X0100906Y0144607D03*
X0097757Y0147363D03*
X0095001Y0150119D03*
X0100119Y0154843D03*
X0095788Y0165867D03*
X0095001Y0169804D03*
X0099331Y0178072D03*
X0105237Y0185946D03*
X0112324Y0187914D03*
X0118229Y0189095D03*
X0128465Y0190276D03*
X0138308Y0172560D03*
X0138308Y0154056D03*
X0128072Y0148544D03*
X0089095Y0119804D03*
X0090276Y0115867D03*
X0090276Y0111930D03*
X0076891Y0124135D03*
X0077678Y0152087D03*
X0075709Y0155237D03*
X0073741Y0152087D03*
X0071772Y0155237D03*
X0074922Y0159568D03*
X0072954Y0162717D03*
X0076891Y0162717D03*
X0076891Y0167048D03*
X0072954Y0167048D03*
X0135670Y0223072D03*
X0122166Y0237520D03*
X0107993Y0243032D03*
X0111930Y0252875D03*
X0094725Y0241182D03*
X0133190Y0259568D03*
X0138702Y0256024D03*
X0164568Y0256143D03*
X0174135Y0251694D03*
X0165080Y0241064D03*
X0169804Y0239095D03*
X0190670Y0245788D03*
X0194607Y0247757D03*
X0198544Y0247363D03*
X0203698Y0241111D03*
X0218229Y0246182D03*
X0219804Y0241457D03*
X0223347Y0239489D03*
X0226103Y0241851D03*
X0231221Y0240670D03*
X0233583Y0244213D03*
X0237520Y0245788D03*
X0236339Y0251694D03*
X0236339Y0256024D03*
X0250119Y0245788D03*
X0253662Y0233583D03*
X0257993Y0233583D03*
X0267048Y0233583D03*
X0270985Y0233583D03*
X0276497Y0233977D03*
X0282009Y0235552D03*
X0286379Y0233780D03*
X0296576Y0233977D03*
X0301300Y0238308D03*
X0307599Y0245788D03*
X0311143Y0241457D03*
X0319410Y0246182D03*
X0328702Y0251182D03*
X0320985Y0263269D03*
X0309568Y0265473D03*
X0303269Y0262717D03*
X0288702Y0259961D03*
X0290276Y0252875D03*
X0262717Y0264292D03*
X0259961Y0268623D03*
X0253072Y0274174D03*
X0233977Y0280434D03*
X0230591Y0275867D03*
X0225355Y0272442D03*
X0221654Y0278072D03*
X0213505Y0273820D03*
X0207206Y0271930D03*
X0198938Y0280040D03*
X0197363Y0285158D03*
X0208308Y0283505D03*
X0208780Y0299725D03*
X0190867Y0309568D03*
X0175867Y0285040D03*
X0174528Y0274528D03*
X0191064Y0260749D03*
X0199331Y0263111D03*
X0219410Y0252087D03*
X0232402Y0267835D03*
X0226497Y0287914D03*
X0228465Y0306024D03*
X0282009Y0293032D03*
X0289095Y0284371D03*
X0321379Y0235158D03*
X0324528Y0232009D03*
X0318623Y0228072D03*
X0315080Y0232009D03*
X0324922Y0210355D03*
X0329253Y0210355D03*
X0333190Y0209961D03*
X0335946Y0207206D03*
X0338308Y0204056D03*
X0340670Y0200513D03*
X0320198Y0195001D03*
X0321772Y0183583D03*
X0296576Y0187127D03*
X0292639Y0195394D03*
X0289489Y0198150D03*
X0285946Y0200119D03*
X0283583Y0203662D03*
X0287520Y0206024D03*
X0285946Y0209568D03*
X0285158Y0214292D03*
X0274528Y0216654D03*
X0274528Y0222166D03*
X0274135Y0226103D03*
X0269410Y0221772D03*
X0260355Y0222560D03*
X0259174Y0218623D03*
X0282009Y0185158D03*
X0295788Y0174922D03*
X0298544Y0163111D03*
X0288308Y0163111D03*
X0281221Y0163111D03*
X0283190Y0135552D03*
X0278465Y0127284D03*
X0269804Y0126497D03*
X0272560Y0133977D03*
X0294607Y0136339D03*
X0319410Y0163111D03*
X0338702Y0163111D03*
X0347363Y0163111D03*
X0228072Y0067835D03*
X0230040Y0064292D03*
X0225709Y0064292D03*
X0223347Y0067835D03*
X0220985Y0064292D03*
X0219017Y0067835D03*
X0216654Y0064292D03*
X0214686Y0067835D03*
X0210355Y0067835D03*
X0211930Y0064292D03*
X0207206Y0064292D03*
X0206024Y0067835D03*
X0202875Y0064686D03*
X0207599Y0051300D03*
X0206418Y0042245D03*
X0194213Y0043426D03*
X0194213Y0047757D03*
X0194213Y0052087D03*
X0189489Y0052087D03*
X0189489Y0047757D03*
X0189489Y0043426D03*
X0179253Y0047757D03*
X0174528Y0047757D03*
X0175316Y0052087D03*
X0179253Y0054450D03*
X0223741Y0060355D03*
X0224922Y0056418D03*
X0230434Y0056812D03*
X0249725Y0050906D03*
X0254450Y0050906D03*
X0258780Y0050906D03*
X0263111Y0051300D03*
X0215867Y0228072D03*
X0148780Y0281379D03*
D37*
X0296969Y0182796D03*
M02*
