G75*
%MOIN*%
%OFA0B0*%
%FSLAX25Y25*%
%IPPOS*%
%LPD*%
%AMOC8*
5,1,8,0,0,1.08239X$1,22.5*
%
%ADD10C,0.07099*%
%ADD11R,0.05918X0.06706*%
%ADD12R,0.04343X0.03556*%
%ADD13R,0.03556X0.04343*%
%ADD14R,0.04737X0.03950*%
%ADD15R,0.03950X0.04737*%
%ADD16R,0.05524X0.05918*%
%ADD17R,0.05918X0.05524*%
%ADD18R,0.01765X0.07099*%
%ADD19R,0.07099X0.01765*%
%ADD20R,0.08800X0.03400*%
%ADD21R,0.09461X0.03162*%
%ADD22R,0.20800X0.10800*%
%ADD23R,0.03162X0.03556*%
%ADD24C,0.06737*%
%ADD25R,0.06312X0.05524*%
%ADD26R,0.04146X0.01902*%
%ADD27R,0.01902X0.04146*%
%ADD28R,0.17139X0.17139*%
%ADD29C,0.01539*%
%ADD30R,0.11824X0.09068*%
%ADD31C,0.08200*%
%ADD32R,0.04737X0.03162*%
%ADD33R,0.07887X0.05721*%
%ADD34C,0.03778*%
%ADD35C,0.03975*%
D10*
X0106024Y0264292D03*
X0165473Y0302875D03*
X0204450Y0310749D03*
X0273347Y0298938D03*
X0339883Y0241851D03*
X0355631Y0210355D03*
D11*
X0336497Y0215749D03*
X0329017Y0215749D03*
X0329056Y0224056D03*
X0336536Y0224056D03*
D12*
X0322599Y0222481D03*
X0322599Y0227599D03*
X0260441Y0293261D03*
X0260441Y0298380D03*
X0223662Y0300788D03*
X0219502Y0300739D03*
X0219502Y0305857D03*
X0223662Y0305906D03*
X0213253Y0305917D03*
X0213253Y0300799D03*
X0165764Y0250124D03*
X0165764Y0245006D03*
X0113780Y0230198D03*
X0113780Y0225080D03*
D13*
X0120698Y0265784D03*
X0125816Y0265784D03*
X0134763Y0265996D03*
X0139881Y0265996D03*
X0171654Y0269135D03*
X0176772Y0269135D03*
X0176620Y0300736D03*
X0181739Y0300736D03*
X0188962Y0302764D03*
X0194080Y0302764D03*
X0232507Y0302730D03*
X0237625Y0302730D03*
X0251969Y0264371D03*
X0257087Y0264371D03*
X0257678Y0258072D03*
X0252560Y0258072D03*
X0293938Y0228780D03*
X0299056Y0228780D03*
X0329371Y0231891D03*
X0334489Y0231891D03*
D14*
X0141709Y0272439D03*
X0133835Y0272439D03*
D15*
X0159550Y0251355D03*
X0159550Y0243481D03*
D16*
X0102953Y0231860D03*
X0094953Y0231860D03*
D17*
X0113073Y0214543D03*
X0113073Y0206543D03*
D18*
X0189489Y0233780D03*
X0191064Y0233780D03*
X0192639Y0233780D03*
X0194213Y0233780D03*
X0195788Y0233780D03*
X0197363Y0233780D03*
X0198938Y0233780D03*
X0200513Y0233780D03*
X0202087Y0233780D03*
X0203662Y0233780D03*
X0205237Y0233780D03*
X0206812Y0233780D03*
X0208387Y0233780D03*
X0209961Y0233780D03*
X0211536Y0233780D03*
X0213111Y0233780D03*
X0214686Y0233780D03*
X0216261Y0233780D03*
X0217835Y0233780D03*
X0219410Y0233780D03*
X0220985Y0233780D03*
X0222560Y0233780D03*
X0224135Y0233780D03*
X0225709Y0233780D03*
X0227284Y0233780D03*
X0228859Y0233780D03*
X0230434Y0233780D03*
X0232009Y0233780D03*
X0233583Y0233780D03*
X0235158Y0233780D03*
X0236733Y0233780D03*
X0238308Y0233780D03*
X0238308Y0294017D03*
X0236733Y0294017D03*
X0235158Y0294017D03*
X0233583Y0294017D03*
X0232009Y0294017D03*
X0230434Y0294017D03*
X0228859Y0294017D03*
X0227284Y0294017D03*
X0225709Y0294017D03*
X0224135Y0294017D03*
X0222560Y0294017D03*
X0220985Y0294017D03*
X0219410Y0294017D03*
X0217835Y0294017D03*
X0216261Y0294017D03*
X0214686Y0294017D03*
X0213111Y0294017D03*
X0211536Y0294017D03*
X0209961Y0294017D03*
X0208387Y0294017D03*
X0206812Y0294017D03*
X0205237Y0294017D03*
X0203662Y0294017D03*
X0202087Y0294017D03*
X0200513Y0294017D03*
X0198938Y0294017D03*
X0197363Y0294017D03*
X0195788Y0294017D03*
X0194213Y0294017D03*
X0192639Y0294017D03*
X0191064Y0294017D03*
X0189489Y0294017D03*
D19*
X0183780Y0288308D03*
X0183780Y0286733D03*
X0183780Y0285158D03*
X0183780Y0283583D03*
X0183780Y0282009D03*
X0183780Y0280434D03*
X0183780Y0278859D03*
X0183780Y0277284D03*
X0183780Y0275709D03*
X0183780Y0274135D03*
X0183780Y0272560D03*
X0183780Y0270985D03*
X0183780Y0269410D03*
X0183780Y0267835D03*
X0183780Y0266261D03*
X0183780Y0264686D03*
X0183780Y0263111D03*
X0183780Y0261536D03*
X0183780Y0259961D03*
X0183780Y0258387D03*
X0183780Y0256812D03*
X0183780Y0255237D03*
X0183780Y0253662D03*
X0183780Y0252087D03*
X0183780Y0250513D03*
X0183780Y0248938D03*
X0183780Y0247363D03*
X0183780Y0245788D03*
X0183780Y0244213D03*
X0183780Y0242639D03*
X0183780Y0241064D03*
X0183780Y0239489D03*
X0244017Y0239489D03*
X0244017Y0241064D03*
X0244017Y0242639D03*
X0244017Y0244213D03*
X0244017Y0245788D03*
X0244017Y0247363D03*
X0244017Y0248938D03*
X0244017Y0250513D03*
X0244017Y0252087D03*
X0244017Y0253662D03*
X0244017Y0255237D03*
X0244017Y0256812D03*
X0244017Y0258387D03*
X0244017Y0259961D03*
X0244017Y0261536D03*
X0244017Y0263111D03*
X0244017Y0264686D03*
X0244017Y0266261D03*
X0244017Y0267835D03*
X0244017Y0269410D03*
X0244017Y0270985D03*
X0244017Y0272560D03*
X0244017Y0274135D03*
X0244017Y0275709D03*
X0244017Y0277284D03*
X0244017Y0278859D03*
X0244017Y0280434D03*
X0244017Y0282009D03*
X0244017Y0283583D03*
X0244017Y0285158D03*
X0244017Y0286733D03*
X0244017Y0288308D03*
D20*
X0148037Y0257858D03*
X0148037Y0252858D03*
X0148037Y0247858D03*
X0148037Y0242858D03*
X0123837Y0242858D03*
X0123837Y0247858D03*
X0123837Y0252858D03*
X0123837Y0257858D03*
D21*
X0109406Y0181964D03*
X0109406Y0176964D03*
X0109406Y0171964D03*
X0109406Y0166964D03*
X0109406Y0161964D03*
X0109406Y0156964D03*
X0109406Y0151964D03*
X0109406Y0146964D03*
X0145627Y0146964D03*
X0145627Y0151964D03*
X0145627Y0156964D03*
X0145627Y0161964D03*
X0145627Y0166964D03*
X0145627Y0171964D03*
X0145627Y0176964D03*
X0145627Y0181964D03*
D22*
X0092735Y0204426D03*
X0092735Y0220174D03*
D23*
X0171851Y0279607D03*
X0175788Y0279607D03*
X0255198Y0287796D03*
X0259135Y0287796D03*
D24*
X0294489Y0126536D03*
X0294489Y0097009D03*
X0237796Y0078702D03*
X0237796Y0049174D03*
D25*
X0244267Y0293509D03*
X0244267Y0299808D03*
X0252928Y0299808D03*
X0252928Y0293509D03*
D26*
X0296674Y0217159D03*
X0296674Y0215191D03*
X0296674Y0213222D03*
X0296674Y0211254D03*
X0296674Y0209285D03*
X0296674Y0207317D03*
X0296674Y0205348D03*
X0296674Y0203380D03*
X0296674Y0201411D03*
X0296674Y0199443D03*
X0320099Y0199443D03*
X0320099Y0201411D03*
X0320099Y0203380D03*
X0320099Y0205348D03*
X0320099Y0207317D03*
X0320099Y0209285D03*
X0320099Y0211254D03*
X0320099Y0213222D03*
X0320099Y0215191D03*
X0320099Y0217159D03*
D27*
X0317245Y0220013D03*
X0315276Y0220013D03*
X0313308Y0220013D03*
X0311339Y0220013D03*
X0309371Y0220013D03*
X0307402Y0220013D03*
X0305434Y0220013D03*
X0303465Y0220013D03*
X0301497Y0220013D03*
X0299528Y0220013D03*
X0299528Y0196588D03*
X0301497Y0196588D03*
X0303465Y0196588D03*
X0305434Y0196588D03*
X0307402Y0196588D03*
X0309371Y0196588D03*
X0311339Y0196588D03*
X0313308Y0196588D03*
X0315276Y0196588D03*
X0317245Y0196588D03*
D28*
X0308387Y0208301D03*
D29*
X0184243Y0291173D02*
X0180651Y0291173D01*
X0180651Y0297915D01*
X0184243Y0297915D01*
X0184243Y0291173D01*
X0184243Y0292711D02*
X0180651Y0292711D01*
X0180651Y0294249D02*
X0184243Y0294249D01*
X0184243Y0295787D02*
X0180651Y0295787D01*
X0180651Y0297325D02*
X0184243Y0297325D01*
X0174794Y0291173D02*
X0171202Y0291173D01*
X0171202Y0297915D01*
X0174794Y0297915D01*
X0174794Y0291173D01*
X0174794Y0292711D02*
X0171202Y0292711D01*
X0171202Y0294249D02*
X0174794Y0294249D01*
X0174794Y0295787D02*
X0171202Y0295787D01*
X0171202Y0297325D02*
X0174794Y0297325D01*
D30*
X0077284Y0185355D03*
X0077284Y0141064D03*
D31*
X0271497Y0255198D03*
X0281497Y0255198D03*
X0281497Y0265198D03*
X0271497Y0265198D03*
X0271497Y0275198D03*
X0281497Y0275198D03*
X0281497Y0285198D03*
X0271497Y0285198D03*
X0338808Y0141111D03*
X0338808Y0131111D03*
X0338808Y0121111D03*
X0338808Y0111111D03*
D32*
X0107757Y0111143D03*
X0107757Y0117048D03*
X0107757Y0122954D03*
X0107757Y0105237D03*
X0107757Y0099331D03*
D33*
X0087324Y0089076D03*
X0087324Y0133209D03*
D34*
X0076891Y0124135D03*
X0089095Y0119804D03*
X0090276Y0115867D03*
X0090276Y0111930D03*
X0100119Y0132009D03*
X0098150Y0135946D03*
X0100906Y0144607D03*
X0097757Y0147363D03*
X0095001Y0150119D03*
X0100119Y0154843D03*
X0095788Y0165867D03*
X0095001Y0169804D03*
X0099331Y0178072D03*
X0105237Y0185946D03*
X0112324Y0187914D03*
X0118229Y0189095D03*
X0128465Y0190276D03*
X0138308Y0172560D03*
X0138308Y0154056D03*
X0128072Y0148544D03*
X0129253Y0132402D03*
X0129253Y0127678D03*
X0133583Y0127678D03*
X0137914Y0127678D03*
X0142245Y0127678D03*
X0146576Y0127678D03*
X0150906Y0127678D03*
X0150906Y0132402D03*
X0146576Y0132402D03*
X0142245Y0132402D03*
X0137914Y0132402D03*
X0133583Y0132402D03*
X0133583Y0123347D03*
X0137914Y0123347D03*
X0142245Y0123347D03*
X0146576Y0123347D03*
X0150906Y0123347D03*
X0150906Y0118623D03*
X0146576Y0118623D03*
X0146576Y0114292D03*
X0150906Y0114292D03*
X0155237Y0114292D03*
X0159568Y0114292D03*
X0163898Y0114292D03*
X0163898Y0109568D03*
X0159568Y0109568D03*
X0159568Y0105237D03*
X0163898Y0105237D03*
X0168229Y0105237D03*
X0168229Y0100513D03*
X0163898Y0100513D03*
X0159568Y0100513D03*
X0155237Y0100513D03*
X0150906Y0100513D03*
X0146576Y0100513D03*
X0146576Y0105237D03*
X0150906Y0105237D03*
X0150906Y0109568D03*
X0146576Y0109568D03*
X0142245Y0109568D03*
X0142245Y0114292D03*
X0142245Y0118623D03*
X0137914Y0118623D03*
X0133583Y0118623D03*
X0129253Y0118623D03*
X0129253Y0123347D03*
X0117048Y0127284D03*
X0117048Y0131221D03*
X0125316Y0102087D03*
X0128859Y0100513D03*
X0126103Y0097757D03*
X0130040Y0094607D03*
X0132009Y0098150D03*
X0134371Y0095001D03*
X0138308Y0091064D03*
X0134371Y0088702D03*
X0136339Y0083190D03*
X0137127Y0079253D03*
X0137127Y0075316D03*
X0133190Y0074922D03*
X0135158Y0071772D03*
X0129253Y0074528D03*
X0129253Y0078465D03*
X0130828Y0082009D03*
X0133190Y0078859D03*
X0126497Y0081615D03*
X0124922Y0078072D03*
X0122560Y0082009D03*
X0128465Y0090276D03*
X0125709Y0093426D03*
X0111536Y0088308D03*
X0110749Y0069804D03*
X0110749Y0065867D03*
X0126891Y0057206D03*
X0148150Y0045788D03*
X0156418Y0046182D03*
X0157993Y0049725D03*
X0156812Y0053269D03*
X0159568Y0059568D03*
X0153269Y0069017D03*
X0153269Y0073347D03*
X0148544Y0073347D03*
X0148544Y0069017D03*
X0148544Y0077678D03*
X0153269Y0077678D03*
X0164686Y0070985D03*
X0166654Y0079646D03*
X0179646Y0089883D03*
X0182402Y0087127D03*
X0176497Y0092639D03*
X0172560Y0093820D03*
X0168623Y0093820D03*
X0164686Y0093820D03*
X0155237Y0105237D03*
X0155237Y0109568D03*
X0155237Y0118623D03*
X0206024Y0067835D03*
X0207206Y0064292D03*
X0202875Y0064686D03*
X0210355Y0067835D03*
X0211930Y0064292D03*
X0214686Y0067835D03*
X0216654Y0064292D03*
X0219017Y0067835D03*
X0220985Y0064292D03*
X0223347Y0067835D03*
X0225709Y0064292D03*
X0228072Y0067835D03*
X0230040Y0064292D03*
X0223741Y0060355D03*
X0224922Y0056418D03*
X0230434Y0056812D03*
X0249725Y0050906D03*
X0254450Y0050906D03*
X0258780Y0050906D03*
X0263111Y0051300D03*
X0207599Y0051300D03*
X0206418Y0042245D03*
X0194213Y0043426D03*
X0194213Y0047757D03*
X0194213Y0052087D03*
X0189489Y0052087D03*
X0189489Y0047757D03*
X0189489Y0043426D03*
X0179253Y0047757D03*
X0174528Y0047757D03*
X0175316Y0052087D03*
X0179253Y0054450D03*
X0269804Y0126497D03*
X0278465Y0127284D03*
X0272560Y0133977D03*
X0283190Y0135552D03*
X0294607Y0136339D03*
X0298544Y0163111D03*
X0288308Y0163111D03*
X0281221Y0163111D03*
X0295788Y0174922D03*
X0296576Y0187127D03*
X0292639Y0195394D03*
X0289489Y0198150D03*
X0285946Y0200119D03*
X0283583Y0203662D03*
X0287520Y0206024D03*
X0285946Y0209568D03*
X0285158Y0214292D03*
X0274528Y0216654D03*
X0274528Y0222166D03*
X0274135Y0226103D03*
X0269410Y0221772D03*
X0260355Y0222560D03*
X0259174Y0218623D03*
X0257993Y0233583D03*
X0253662Y0233583D03*
X0250119Y0245788D03*
X0237520Y0245788D03*
X0233583Y0244213D03*
X0231221Y0240670D03*
X0226103Y0241851D03*
X0223347Y0239489D03*
X0219804Y0241457D03*
X0218229Y0246182D03*
X0219410Y0252087D03*
X0236339Y0251694D03*
X0236339Y0256024D03*
X0232402Y0267835D03*
X0230591Y0275867D03*
X0233977Y0280434D03*
X0226497Y0287914D03*
X0221654Y0278072D03*
X0225355Y0272442D03*
X0213505Y0273820D03*
X0207206Y0271930D03*
X0198938Y0280040D03*
X0197363Y0285158D03*
X0208308Y0283505D03*
X0208780Y0299725D03*
X0190867Y0309568D03*
X0175867Y0285040D03*
X0174528Y0274528D03*
X0191064Y0260749D03*
X0199331Y0263111D03*
X0198544Y0247363D03*
X0194607Y0247757D03*
X0190670Y0245788D03*
X0203698Y0241111D03*
X0215867Y0228072D03*
X0174135Y0251694D03*
X0164568Y0256143D03*
X0165080Y0241064D03*
X0169804Y0239095D03*
X0138702Y0256024D03*
X0133190Y0259568D03*
X0111930Y0252875D03*
X0107993Y0243032D03*
X0094725Y0241182D03*
X0122166Y0237520D03*
X0135670Y0223072D03*
X0076891Y0167048D03*
X0072954Y0167048D03*
X0072954Y0162717D03*
X0074922Y0159568D03*
X0076891Y0162717D03*
X0075709Y0155237D03*
X0073741Y0152087D03*
X0071772Y0155237D03*
X0077678Y0152087D03*
X0148780Y0281379D03*
X0228465Y0306024D03*
X0253072Y0274174D03*
X0259961Y0268623D03*
X0262717Y0264292D03*
X0288702Y0259961D03*
X0290276Y0252875D03*
X0303269Y0262717D03*
X0309568Y0265473D03*
X0320985Y0263269D03*
X0328702Y0251182D03*
X0319410Y0246182D03*
X0311143Y0241457D03*
X0307599Y0245788D03*
X0301300Y0238308D03*
X0296576Y0233977D03*
X0286379Y0233780D03*
X0282009Y0235552D03*
X0276497Y0233977D03*
X0270985Y0233583D03*
X0267048Y0233583D03*
X0315080Y0232009D03*
X0318623Y0228072D03*
X0324528Y0232009D03*
X0321379Y0235158D03*
X0324922Y0210355D03*
X0329253Y0210355D03*
X0333190Y0209961D03*
X0335946Y0207206D03*
X0338308Y0204056D03*
X0340670Y0200513D03*
X0320198Y0195001D03*
X0321772Y0183583D03*
X0319410Y0163111D03*
X0338702Y0163111D03*
X0347363Y0163111D03*
X0282009Y0185158D03*
X0289095Y0284371D03*
X0282009Y0293032D03*
D35*
X0296969Y0182796D03*
M02*
