%
M48
M72
T01C0.01378
T02C0.01575
T03C0.03937
T04C0.04000
T05C0.06299
%
T01
X110749Y65867
X110749Y69804
X124922Y78072
X126497Y81615
X122560Y82009
X129253Y78465
X130828Y82009
X133190Y78859
X133190Y74922
X135158Y71772
X137127Y75316
X137127Y79253
X136339Y83190
X134371Y88702
X138308Y91064
X134371Y95001
X132009Y98150
X128859Y100513
X125316Y102087
X126103Y97757
X130040Y94607
X125709Y93426
X128465Y90276
X111536Y88308
X129253Y74528
X126891Y57206
X148150Y45788
X156418Y46182
X157993Y49725
X156812Y53269
X159568Y59568
X153269Y69017
X153269Y73347
X148544Y73347
X148544Y69017
X148544Y77678
X153269Y77678
X164686Y70985
X166654Y79646
X179646Y89883
X182402Y87127
X176497Y92639
X172560Y93820
X168623Y93820
X164686Y93820
X163898Y100513
X159568Y100513
X155237Y100513
X150906Y100513
X146576Y100513
X146576Y105237
X150906Y105237
X150906Y109568
X146576Y109568
X142245Y109568
X142245Y114292
X146576Y114292
X150906Y114292
X150906Y118623
X146576Y118623
X142245Y118623
X137914Y118623
X133583Y118623
X133583Y123347
X137914Y123347
X142245Y123347
X146576Y123347
X150906Y123347
X155237Y118623
X155237Y114292
X159568Y114292
X163898Y114292
X163898Y109568
X159568Y109568
X159568Y105237
X163898Y105237
X168229Y105237
X168229Y100513
X155237Y105237
X155237Y109568
X150906Y127678
X146576Y127678
X142245Y127678
X137914Y127678
X133583Y127678
X133583Y132402
X137914Y132402
X142245Y132402
X146576Y132402
X150906Y132402
X129253Y132402
X129253Y127678
X129253Y123347
X129253Y118623
X117048Y127284
X117048Y131221
X100119Y132009
X98150Y135946
X100906Y144607
X97757Y147363
X95001Y150119
X100119Y154843
X95788Y165867
X95001Y169804
X99331Y178072
X105237Y185946
X112324Y187914
X118229Y189095
X128465Y190276
X138308Y172560
X138308Y154056
X128072Y148544
X89095Y119804
X90276Y115867
X90276Y111930
X76891Y124135
X77678Y152087
X75709Y155237
X73741Y152087
X71772Y155237
X74922Y159568
X72954Y162717
X76891Y162717
X76891Y167048
X72954Y167048
X135670Y223072
X122166Y237520
X107993Y243032
X111930Y252875
X94725Y241182
X133190Y259568
X138702Y256024
X164568Y256143
X174135Y251694
X165080Y241064
X169804Y239095
X190670Y245788
X194607Y247757
X198544Y247363
X203698Y241111
X218229Y246182
X219804Y241457
X223347Y239489
X226103Y241851
X231221Y240670
X233583Y244213
X237520Y245788
X236339Y251694
X236339Y256024
X250119Y245788
X253662Y233583
X257993Y233583
X267048Y233583
X270985Y233583
X276497Y233977
X282009Y235552
X286379Y233780
X296576Y233977
X301300Y238308
X307599Y245788
X311143Y241457
X319410Y246182
X328702Y251182
X320985Y263269
X309568Y265473
X303269Y262717
X288702Y259961
X290276Y252875
X262717Y264292
X259961Y268623
X253072Y274174
X233977Y280434
X230591Y275867
X225355Y272442
X221654Y278072
X213505Y273820
X207206Y271930
X198938Y280040
X197363Y285158
X208308Y283505
X208780Y299725
X190867Y309568
X175867Y285040
X174528Y274528
X191064Y260749
X199331Y263111
X219410Y252087
X232402Y267835
X226497Y287914
X228465Y306024
X282009Y293032
X289095Y284371
X321379Y235158
X324528Y232009
X318623Y228072
X315080Y232009
X324922Y210355
X329253Y210355
X333190Y209961
X335946Y207206
X338308Y204056
X340670Y200513
X320198Y195001
X321772Y183583
X296576Y187127
X292639Y195394
X289489Y198150
X285946Y200119
X283583Y203662
X287520Y206024
X285946Y209568
X285158Y214292
X274528Y216654
X274528Y222166
X274135Y226103
X269410Y221772
X260355Y222560
X259174Y218623
X282009Y185158
X295788Y174922
X298544Y163111
X288308Y163111
X281221Y163111
X283190Y135552
X278465Y127284
X269804Y126497
X272560Y133977
X294607Y136339
X319410Y163111
X338702Y163111
X347363Y163111
X228072Y67835
X230040Y64292
X225709Y64292
X223347Y67835
X220985Y64292
X219017Y67835
X216654Y64292
X214686Y67835
X210355Y67835
X211930Y64292
X207206Y64292
X206024Y67835
X202875Y64686
X207599Y51300
X206418Y42245
X194213Y43426
X194213Y47757
X194213Y52087
X189489Y52087
X189489Y47757
X189489Y43426
X179253Y47757
X174528Y47757
X175316Y52087
X179253Y54450
X223741Y60355
X224922Y56418
X230434Y56812
X249725Y50906
X254450Y50906
X258780Y50906
X263111Y51300
X215867Y228072
X148780Y281379
T02
X296969Y182796
T03
X294489Y126536
X294489Y97009
X237796Y78702
X237796Y49174
T04
X338808Y111111
X338808Y121111
X338808Y131111
X338808Y141111
X281497Y255198
X271497Y255198
X271497Y265198
X281497Y265198
X281497Y275198
X271497Y275198
X271497Y285198
X281497Y285198
T05
X273347Y298938
X204450Y310749
X165473Y302875
X106024Y264292
X339883Y241851
X355631Y210355
M30
