G75*
%MOIN*%
%OFA0B0*%
%FSLAX25Y25*%
%IPPOS*%
%LPD*%
%AMOC8*
5,1,8,0,0,1.08239X$1,22.5*
%
%ADD10R,0.05118X0.05906*%
%ADD11R,0.03543X0.02756*%
%ADD12R,0.02756X0.03543*%
%ADD13R,0.03937X0.03150*%
%ADD14R,0.03150X0.03937*%
%ADD15R,0.04724X0.05118*%
%ADD16R,0.05118X0.04724*%
%ADD17R,0.00965X0.06299*%
%ADD18R,0.06299X0.00965*%
%ADD19R,0.08000X0.02600*%
%ADD20R,0.08661X0.02362*%
%ADD21R,0.20000X0.10000*%
%ADD22R,0.02362X0.02756*%
%ADD23R,0.05512X0.04724*%
%ADD24R,0.03346X0.01102*%
%ADD25R,0.01102X0.03346*%
%ADD26R,0.16339X0.16339*%
%ADD27C,0.01299*%
%ADD28R,0.11024X0.08268*%
%ADD29R,0.03937X0.02362*%
%ADD30R,0.07087X0.04921*%
D10*
X0329017Y0215749D03*
X0336497Y0215749D03*
X0336536Y0224056D03*
X0329056Y0224056D03*
D11*
X0322599Y0222481D03*
X0322599Y0227599D03*
X0260441Y0293261D03*
X0260441Y0298380D03*
X0223662Y0300788D03*
X0219502Y0300739D03*
X0219502Y0305857D03*
X0223662Y0305906D03*
X0213253Y0305917D03*
X0213253Y0300799D03*
X0165764Y0250124D03*
X0165764Y0245006D03*
X0113780Y0230198D03*
X0113780Y0225080D03*
D12*
X0120698Y0265784D03*
X0125816Y0265784D03*
X0134763Y0265996D03*
X0139881Y0265996D03*
X0171654Y0269135D03*
X0176772Y0269135D03*
X0176620Y0300736D03*
X0181739Y0300736D03*
X0188962Y0302764D03*
X0194080Y0302764D03*
X0232507Y0302730D03*
X0237625Y0302730D03*
X0251969Y0264371D03*
X0257087Y0264371D03*
X0257678Y0258072D03*
X0252560Y0258072D03*
X0293938Y0228780D03*
X0299056Y0228780D03*
X0329371Y0231891D03*
X0334489Y0231891D03*
D13*
X0141709Y0272439D03*
X0133835Y0272439D03*
D14*
X0159550Y0251355D03*
X0159550Y0243481D03*
D15*
X0102953Y0231860D03*
X0094953Y0231860D03*
D16*
X0113073Y0214543D03*
X0113073Y0206543D03*
D17*
X0189489Y0233780D03*
X0191064Y0233780D03*
X0192639Y0233780D03*
X0194213Y0233780D03*
X0195788Y0233780D03*
X0197363Y0233780D03*
X0198938Y0233780D03*
X0200513Y0233780D03*
X0202087Y0233780D03*
X0203662Y0233780D03*
X0205237Y0233780D03*
X0206812Y0233780D03*
X0208387Y0233780D03*
X0209961Y0233780D03*
X0211536Y0233780D03*
X0213111Y0233780D03*
X0214686Y0233780D03*
X0216261Y0233780D03*
X0217835Y0233780D03*
X0219410Y0233780D03*
X0220985Y0233780D03*
X0222560Y0233780D03*
X0224135Y0233780D03*
X0225709Y0233780D03*
X0227284Y0233780D03*
X0228859Y0233780D03*
X0230434Y0233780D03*
X0232009Y0233780D03*
X0233583Y0233780D03*
X0235158Y0233780D03*
X0236733Y0233780D03*
X0238308Y0233780D03*
X0238308Y0294017D03*
X0236733Y0294017D03*
X0235158Y0294017D03*
X0233583Y0294017D03*
X0232009Y0294017D03*
X0230434Y0294017D03*
X0228859Y0294017D03*
X0227284Y0294017D03*
X0225709Y0294017D03*
X0224135Y0294017D03*
X0222560Y0294017D03*
X0220985Y0294017D03*
X0219410Y0294017D03*
X0217835Y0294017D03*
X0216261Y0294017D03*
X0214686Y0294017D03*
X0213111Y0294017D03*
X0211536Y0294017D03*
X0209961Y0294017D03*
X0208387Y0294017D03*
X0206812Y0294017D03*
X0205237Y0294017D03*
X0203662Y0294017D03*
X0202087Y0294017D03*
X0200513Y0294017D03*
X0198938Y0294017D03*
X0197363Y0294017D03*
X0195788Y0294017D03*
X0194213Y0294017D03*
X0192639Y0294017D03*
X0191064Y0294017D03*
X0189489Y0294017D03*
D18*
X0183780Y0288308D03*
X0183780Y0286733D03*
X0183780Y0285158D03*
X0183780Y0283583D03*
X0183780Y0282009D03*
X0183780Y0280434D03*
X0183780Y0278859D03*
X0183780Y0277284D03*
X0183780Y0275709D03*
X0183780Y0274135D03*
X0183780Y0272560D03*
X0183780Y0270985D03*
X0183780Y0269410D03*
X0183780Y0267835D03*
X0183780Y0266261D03*
X0183780Y0264686D03*
X0183780Y0263111D03*
X0183780Y0261536D03*
X0183780Y0259961D03*
X0183780Y0258387D03*
X0183780Y0256812D03*
X0183780Y0255237D03*
X0183780Y0253662D03*
X0183780Y0252087D03*
X0183780Y0250513D03*
X0183780Y0248938D03*
X0183780Y0247363D03*
X0183780Y0245788D03*
X0183780Y0244213D03*
X0183780Y0242639D03*
X0183780Y0241064D03*
X0183780Y0239489D03*
X0244017Y0239489D03*
X0244017Y0241064D03*
X0244017Y0242639D03*
X0244017Y0244213D03*
X0244017Y0245788D03*
X0244017Y0247363D03*
X0244017Y0248938D03*
X0244017Y0250513D03*
X0244017Y0252087D03*
X0244017Y0253662D03*
X0244017Y0255237D03*
X0244017Y0256812D03*
X0244017Y0258387D03*
X0244017Y0259961D03*
X0244017Y0261536D03*
X0244017Y0263111D03*
X0244017Y0264686D03*
X0244017Y0266261D03*
X0244017Y0267835D03*
X0244017Y0269410D03*
X0244017Y0270985D03*
X0244017Y0272560D03*
X0244017Y0274135D03*
X0244017Y0275709D03*
X0244017Y0277284D03*
X0244017Y0278859D03*
X0244017Y0280434D03*
X0244017Y0282009D03*
X0244017Y0283583D03*
X0244017Y0285158D03*
X0244017Y0286733D03*
X0244017Y0288308D03*
D19*
X0148037Y0257858D03*
X0148037Y0252858D03*
X0148037Y0247858D03*
X0148037Y0242858D03*
X0123837Y0242858D03*
X0123837Y0247858D03*
X0123837Y0252858D03*
X0123837Y0257858D03*
D20*
X0109406Y0181964D03*
X0109406Y0176964D03*
X0109406Y0171964D03*
X0109406Y0166964D03*
X0109406Y0161964D03*
X0109406Y0156964D03*
X0109406Y0151964D03*
X0109406Y0146964D03*
X0145627Y0146964D03*
X0145627Y0151964D03*
X0145627Y0156964D03*
X0145627Y0161964D03*
X0145627Y0166964D03*
X0145627Y0171964D03*
X0145627Y0176964D03*
X0145627Y0181964D03*
D21*
X0092735Y0204426D03*
X0092735Y0220174D03*
D22*
X0171851Y0279607D03*
X0175788Y0279607D03*
X0255198Y0287796D03*
X0259135Y0287796D03*
D23*
X0252928Y0293509D03*
X0252928Y0299808D03*
X0244267Y0299808D03*
X0244267Y0293509D03*
D24*
X0296674Y0217159D03*
X0296674Y0215191D03*
X0296674Y0213222D03*
X0296674Y0211254D03*
X0296674Y0209285D03*
X0296674Y0207317D03*
X0296674Y0205348D03*
X0296674Y0203380D03*
X0296674Y0201411D03*
X0296674Y0199443D03*
X0320099Y0199443D03*
X0320099Y0201411D03*
X0320099Y0203380D03*
X0320099Y0205348D03*
X0320099Y0207317D03*
X0320099Y0209285D03*
X0320099Y0211254D03*
X0320099Y0213222D03*
X0320099Y0215191D03*
X0320099Y0217159D03*
D25*
X0317245Y0220013D03*
X0315276Y0220013D03*
X0313308Y0220013D03*
X0311339Y0220013D03*
X0309371Y0220013D03*
X0307402Y0220013D03*
X0305434Y0220013D03*
X0303465Y0220013D03*
X0301497Y0220013D03*
X0299528Y0220013D03*
X0299528Y0196588D03*
X0301497Y0196588D03*
X0303465Y0196588D03*
X0305434Y0196588D03*
X0307402Y0196588D03*
X0309371Y0196588D03*
X0311339Y0196588D03*
X0313308Y0196588D03*
X0315276Y0196588D03*
X0317245Y0196588D03*
D26*
X0308387Y0208301D03*
D27*
X0183963Y0291453D02*
X0180931Y0291453D01*
X0180931Y0297635D01*
X0183963Y0297635D01*
X0183963Y0291453D01*
X0183963Y0292751D02*
X0180931Y0292751D01*
X0180931Y0294049D02*
X0183963Y0294049D01*
X0183963Y0295347D02*
X0180931Y0295347D01*
X0180931Y0296645D02*
X0183963Y0296645D01*
X0174514Y0291453D02*
X0171482Y0291453D01*
X0171482Y0297635D01*
X0174514Y0297635D01*
X0174514Y0291453D01*
X0174514Y0292751D02*
X0171482Y0292751D01*
X0171482Y0294049D02*
X0174514Y0294049D01*
X0174514Y0295347D02*
X0171482Y0295347D01*
X0171482Y0296645D02*
X0174514Y0296645D01*
D28*
X0077284Y0185355D03*
X0077284Y0141064D03*
D29*
X0107757Y0122954D03*
X0107757Y0117048D03*
X0107757Y0111143D03*
X0107757Y0105237D03*
X0107757Y0099331D03*
D30*
X0087324Y0089076D03*
X0087324Y0133209D03*
M02*
