G75*
%MOIN*%
%OFA0B0*%
%FSLAX25Y25*%
%IPPOS*%
%LPD*%
%AMOC8*
5,1,8,0,0,1.08239X$1,22.5*
%
%ADD10R,0.02200X0.07800*%
%ADD11R,0.11811X0.07874*%
%ADD12R,0.02756X0.03543*%
%ADD13R,0.03543X0.02756*%
%ADD14R,0.09449X0.09449*%
%ADD15C,0.01181*%
%ADD16R,0.02362X0.04724*%
%ADD17R,0.02756X0.02362*%
%ADD18R,0.12598X0.07087*%
%ADD19R,0.02362X0.02756*%
%ADD20R,0.05118X0.05906*%
%ADD21R,0.05906X0.05118*%
%ADD22R,0.07087X0.12598*%
%ADD23R,0.14173X0.07087*%
%ADD24R,0.07087X0.14173*%
%ADD25R,0.05547X0.04457*%
%ADD26R,0.05545X0.04560*%
%ADD27R,0.05546X0.04405*%
%ADD28R,0.05543X0.04303*%
%ADD29R,0.05658X0.04309*%
%ADD30R,0.05646X0.04403*%
%ADD31R,0.05651X0.04490*%
%ADD32R,0.05646X0.04568*%
%ADD33R,0.01517X0.15397*%
%ADD34R,0.01245X0.15414*%
%ADD35C,0.00148*%
%ADD36C,0.00221*%
%ADD37R,0.04457X0.05547*%
%ADD38R,0.04560X0.05545*%
%ADD39R,0.04405X0.05546*%
%ADD40R,0.04303X0.05543*%
%ADD41R,0.04309X0.05658*%
%ADD42R,0.04403X0.05646*%
%ADD43R,0.04490X0.05651*%
%ADD44R,0.04568X0.05646*%
%ADD45R,0.15397X0.01517*%
%ADD46R,0.15414X0.01245*%
%ADD47R,0.11024X0.08268*%
%ADD48R,0.07480X0.02362*%
%ADD49C,0.00394*%
%ADD50R,0.07087X0.27165*%
%ADD51R,0.27165X0.07087*%
D10*
X0109669Y0181839D03*
X0114669Y0181839D03*
X0119669Y0181839D03*
X0124669Y0181839D03*
X0135803Y0181376D03*
X0140803Y0181376D03*
X0145803Y0181376D03*
X0150803Y0181376D03*
X0150803Y0200776D03*
X0145803Y0200776D03*
X0140803Y0200776D03*
X0135803Y0200776D03*
X0124669Y0201239D03*
X0119669Y0201239D03*
X0114669Y0201239D03*
X0109669Y0201239D03*
D11*
X0097236Y0198072D03*
X0097236Y0221694D03*
X0139520Y0211067D03*
X0139520Y0234689D03*
X0144094Y0166045D03*
X0121365Y0165713D03*
X0121365Y0142091D03*
X0144094Y0142423D03*
D12*
X0154539Y0093782D03*
X0159657Y0093782D03*
X0194793Y0060724D03*
X0199911Y0060724D03*
X0172127Y0033269D03*
X0167009Y0033269D03*
X0296448Y0197816D03*
X0296348Y0202291D03*
X0296448Y0206773D03*
X0301566Y0206773D03*
X0301466Y0202291D03*
X0301566Y0197816D03*
X0301379Y0211418D03*
X0296261Y0211418D03*
X0296497Y0279331D03*
X0291379Y0279331D03*
X0195473Y0281103D03*
X0190355Y0281103D03*
X0192560Y0241143D03*
X0197678Y0241143D03*
D13*
X0302363Y0267757D03*
X0302363Y0272875D03*
X0304272Y0256367D03*
X0304272Y0251249D03*
X0311129Y0251281D03*
X0311129Y0256399D03*
X0317850Y0256720D03*
X0317850Y0251602D03*
X0122606Y0111158D03*
X0122606Y0106040D03*
X0089607Y0123859D03*
X0089607Y0128977D03*
X0135867Y0066812D03*
X0135867Y0061694D03*
D14*
X0160043Y0208669D03*
X0160043Y0225992D03*
X0116761Y0229748D03*
X0116761Y0212425D03*
D15*
X0160831Y0287697D02*
X0163587Y0287697D01*
X0163587Y0284941D01*
X0160831Y0284941D01*
X0160831Y0287697D01*
X0160831Y0286121D02*
X0163587Y0286121D01*
X0163587Y0287301D02*
X0160831Y0287301D01*
X0160831Y0294602D02*
X0163587Y0294602D01*
X0163587Y0291846D01*
X0160831Y0291846D01*
X0160831Y0294602D01*
X0160831Y0293026D02*
X0163587Y0293026D01*
X0163587Y0294206D02*
X0160831Y0294206D01*
X0167641Y0294602D02*
X0170397Y0294602D01*
X0170397Y0291846D01*
X0167641Y0291846D01*
X0167641Y0294602D01*
X0167641Y0293026D02*
X0170397Y0293026D01*
X0170397Y0294206D02*
X0167641Y0294206D01*
X0167641Y0287697D02*
X0170397Y0287697D01*
X0170397Y0284941D01*
X0167641Y0284941D01*
X0167641Y0287697D01*
X0167641Y0286121D02*
X0170397Y0286121D01*
X0170397Y0287301D02*
X0167641Y0287301D01*
X0292021Y0221536D02*
X0292021Y0218780D01*
X0289265Y0218780D01*
X0289265Y0221536D01*
X0292021Y0221536D01*
X0292021Y0219960D02*
X0289265Y0219960D01*
X0289265Y0221140D02*
X0292021Y0221140D01*
X0298926Y0221536D02*
X0298926Y0218780D01*
X0296170Y0218780D01*
X0296170Y0221536D01*
X0298926Y0221536D01*
X0298926Y0219960D02*
X0296170Y0219960D01*
X0296170Y0221140D02*
X0298926Y0221140D01*
D16*
X0300906Y0170198D03*
X0307993Y0170198D03*
X0320591Y0170198D03*
X0327678Y0170198D03*
X0340276Y0170198D03*
X0347363Y0170198D03*
X0347363Y0156024D03*
X0340276Y0156024D03*
X0327678Y0156024D03*
X0320591Y0156024D03*
X0307993Y0156024D03*
X0300906Y0156024D03*
X0288308Y0156024D03*
X0281221Y0156024D03*
X0281221Y0170198D03*
X0288308Y0170198D03*
D17*
X0281438Y0175501D03*
X0281438Y0179438D03*
X0301044Y0178808D03*
X0301044Y0174871D03*
X0320926Y0175186D03*
X0320926Y0179123D03*
X0340296Y0178650D03*
X0340296Y0174713D03*
X0347225Y0151367D03*
X0347225Y0147430D03*
X0328131Y0147430D03*
X0328131Y0151367D03*
X0307857Y0151658D03*
X0307857Y0147721D03*
X0288523Y0147436D03*
X0288523Y0151373D03*
X0290198Y0211221D03*
X0290198Y0215158D03*
X0284843Y0217717D03*
X0284843Y0221654D03*
X0175749Y0289462D03*
X0175749Y0293399D03*
X0157361Y0293399D03*
X0157361Y0289462D03*
D18*
X0170839Y0085646D03*
X0170839Y0063599D03*
X0213365Y0057606D03*
X0213365Y0035558D03*
D19*
X0294607Y0215670D03*
X0298544Y0215670D03*
X0225591Y0246733D03*
X0221654Y0246733D03*
X0195158Y0272678D03*
X0191221Y0272678D03*
X0191064Y0276891D03*
X0195001Y0276891D03*
D20*
X0127950Y0063880D03*
X0120469Y0063880D03*
X0152484Y0040915D03*
X0159965Y0040915D03*
D21*
X0083354Y0114837D03*
X0083354Y0122317D03*
D22*
X0097240Y0094272D03*
X0119287Y0094272D03*
D23*
X0180663Y0227131D03*
X0180663Y0263746D03*
D24*
X0160282Y0266854D03*
X0123668Y0266854D03*
D25*
X0153952Y0075086D03*
X0195464Y0040895D03*
D26*
X0195465Y0035647D03*
X0153953Y0069837D03*
D27*
X0153952Y0080309D03*
X0195465Y0046118D03*
D28*
X0195466Y0051366D03*
X0153954Y0085557D03*
D29*
X0147518Y0085553D03*
X0189031Y0051363D03*
D30*
X0189037Y0046119D03*
X0147524Y0080309D03*
D31*
X0147522Y0075069D03*
X0189034Y0040879D03*
D32*
X0189037Y0035643D03*
X0147524Y0069833D03*
D33*
X0142128Y0075915D03*
X0183641Y0041724D03*
D34*
X0200903Y0041716D03*
X0159390Y0075906D03*
D35*
X0161317Y0076157D02*
X0161317Y0075321D01*
X0158709Y0075321D01*
X0158709Y0076157D01*
X0161317Y0076157D01*
X0161317Y0075468D02*
X0158709Y0075468D01*
X0158709Y0075615D02*
X0161317Y0075615D01*
X0161317Y0075762D02*
X0158709Y0075762D01*
X0158709Y0075909D02*
X0161317Y0075909D01*
X0161317Y0076056D02*
X0158709Y0076056D01*
X0161317Y0077290D02*
X0161317Y0078126D01*
X0161317Y0077290D02*
X0158709Y0077290D01*
X0158709Y0078126D01*
X0161317Y0078126D01*
X0161317Y0077437D02*
X0158709Y0077437D01*
X0158709Y0077584D02*
X0161317Y0077584D01*
X0161317Y0077731D02*
X0158709Y0077731D01*
X0158709Y0077878D02*
X0161317Y0077878D01*
X0161317Y0078025D02*
X0158709Y0078025D01*
X0161317Y0079258D02*
X0161317Y0080094D01*
X0161317Y0079258D02*
X0158709Y0079258D01*
X0158709Y0080094D01*
X0161317Y0080094D01*
X0161317Y0079405D02*
X0158709Y0079405D01*
X0158709Y0079552D02*
X0161317Y0079552D01*
X0161317Y0079699D02*
X0158709Y0079699D01*
X0158709Y0079846D02*
X0161317Y0079846D01*
X0161317Y0079993D02*
X0158709Y0079993D01*
X0161317Y0081227D02*
X0161317Y0082063D01*
X0161317Y0081227D02*
X0158709Y0081227D01*
X0158709Y0082063D01*
X0161317Y0082063D01*
X0161317Y0081374D02*
X0158709Y0081374D01*
X0158709Y0081521D02*
X0161317Y0081521D01*
X0161317Y0081668D02*
X0158709Y0081668D01*
X0158709Y0081815D02*
X0161317Y0081815D01*
X0161317Y0081962D02*
X0158709Y0081962D01*
X0161317Y0083195D02*
X0161317Y0084031D01*
X0161317Y0083195D02*
X0158709Y0083195D01*
X0158709Y0084031D01*
X0161317Y0084031D01*
X0161317Y0083342D02*
X0158709Y0083342D01*
X0158709Y0083489D02*
X0161317Y0083489D01*
X0161317Y0083636D02*
X0158709Y0083636D01*
X0158709Y0083783D02*
X0161317Y0083783D01*
X0161317Y0083930D02*
X0158709Y0083930D01*
X0161317Y0085164D02*
X0161317Y0086000D01*
X0161317Y0085164D02*
X0158709Y0085164D01*
X0158709Y0086000D01*
X0161317Y0086000D01*
X0161317Y0085311D02*
X0158709Y0085311D01*
X0158709Y0085458D02*
X0161317Y0085458D01*
X0161317Y0085605D02*
X0158709Y0085605D01*
X0158709Y0085752D02*
X0161317Y0085752D01*
X0161317Y0085899D02*
X0158709Y0085899D01*
X0161317Y0087132D02*
X0161317Y0087968D01*
X0161317Y0087132D02*
X0158709Y0087132D01*
X0158709Y0087968D01*
X0161317Y0087968D01*
X0161317Y0087279D02*
X0158709Y0087279D01*
X0158709Y0087426D02*
X0161317Y0087426D01*
X0161317Y0087573D02*
X0158709Y0087573D01*
X0158709Y0087720D02*
X0161317Y0087720D01*
X0161317Y0087867D02*
X0158709Y0087867D01*
X0161317Y0074189D02*
X0161317Y0073353D01*
X0158709Y0073353D01*
X0158709Y0074189D01*
X0161317Y0074189D01*
X0161317Y0073500D02*
X0158709Y0073500D01*
X0158709Y0073647D02*
X0161317Y0073647D01*
X0161317Y0073794D02*
X0158709Y0073794D01*
X0158709Y0073941D02*
X0161317Y0073941D01*
X0161317Y0074088D02*
X0158709Y0074088D01*
X0161317Y0072220D02*
X0161317Y0071384D01*
X0158709Y0071384D01*
X0158709Y0072220D01*
X0161317Y0072220D01*
X0161317Y0071531D02*
X0158709Y0071531D01*
X0158709Y0071678D02*
X0161317Y0071678D01*
X0161317Y0071825D02*
X0158709Y0071825D01*
X0158709Y0071972D02*
X0161317Y0071972D01*
X0161317Y0072119D02*
X0158709Y0072119D01*
X0161317Y0070252D02*
X0161317Y0069416D01*
X0158709Y0069416D01*
X0158709Y0070252D01*
X0161317Y0070252D01*
X0161317Y0069563D02*
X0158709Y0069563D01*
X0158709Y0069710D02*
X0161317Y0069710D01*
X0161317Y0069857D02*
X0158709Y0069857D01*
X0158709Y0070004D02*
X0161317Y0070004D01*
X0161317Y0070151D02*
X0158709Y0070151D01*
X0161317Y0068283D02*
X0161317Y0067447D01*
X0158709Y0067447D01*
X0158709Y0068283D01*
X0161317Y0068283D01*
X0161317Y0067594D02*
X0158709Y0067594D01*
X0158709Y0067741D02*
X0161317Y0067741D01*
X0161317Y0067888D02*
X0158709Y0067888D01*
X0158709Y0068035D02*
X0161317Y0068035D01*
X0161317Y0068182D02*
X0158709Y0068182D01*
X0142813Y0068283D02*
X0142813Y0067447D01*
X0140205Y0067447D01*
X0140205Y0068283D01*
X0142813Y0068283D01*
X0142813Y0067594D02*
X0140205Y0067594D01*
X0140205Y0067741D02*
X0142813Y0067741D01*
X0142813Y0067888D02*
X0140205Y0067888D01*
X0140205Y0068035D02*
X0142813Y0068035D01*
X0142813Y0068182D02*
X0140205Y0068182D01*
X0142813Y0069416D02*
X0142813Y0070252D01*
X0142813Y0069416D02*
X0140205Y0069416D01*
X0140205Y0070252D01*
X0142813Y0070252D01*
X0142813Y0069563D02*
X0140205Y0069563D01*
X0140205Y0069710D02*
X0142813Y0069710D01*
X0142813Y0069857D02*
X0140205Y0069857D01*
X0140205Y0070004D02*
X0142813Y0070004D01*
X0142813Y0070151D02*
X0140205Y0070151D01*
X0142813Y0071384D02*
X0142813Y0072220D01*
X0142813Y0071384D02*
X0140205Y0071384D01*
X0140205Y0072220D01*
X0142813Y0072220D01*
X0142813Y0071531D02*
X0140205Y0071531D01*
X0140205Y0071678D02*
X0142813Y0071678D01*
X0142813Y0071825D02*
X0140205Y0071825D01*
X0140205Y0071972D02*
X0142813Y0071972D01*
X0142813Y0072119D02*
X0140205Y0072119D01*
X0142813Y0073353D02*
X0142813Y0074189D01*
X0142813Y0073353D02*
X0140205Y0073353D01*
X0140205Y0074189D01*
X0142813Y0074189D01*
X0142813Y0073500D02*
X0140205Y0073500D01*
X0140205Y0073647D02*
X0142813Y0073647D01*
X0142813Y0073794D02*
X0140205Y0073794D01*
X0140205Y0073941D02*
X0142813Y0073941D01*
X0142813Y0074088D02*
X0140205Y0074088D01*
X0142813Y0075321D02*
X0142813Y0076157D01*
X0142813Y0075321D02*
X0140205Y0075321D01*
X0140205Y0076157D01*
X0142813Y0076157D01*
X0142813Y0075468D02*
X0140205Y0075468D01*
X0140205Y0075615D02*
X0142813Y0075615D01*
X0142813Y0075762D02*
X0140205Y0075762D01*
X0140205Y0075909D02*
X0142813Y0075909D01*
X0142813Y0076056D02*
X0140205Y0076056D01*
X0142813Y0077290D02*
X0142813Y0078126D01*
X0142813Y0077290D02*
X0140205Y0077290D01*
X0140205Y0078126D01*
X0142813Y0078126D01*
X0142813Y0077437D02*
X0140205Y0077437D01*
X0140205Y0077584D02*
X0142813Y0077584D01*
X0142813Y0077731D02*
X0140205Y0077731D01*
X0140205Y0077878D02*
X0142813Y0077878D01*
X0142813Y0078025D02*
X0140205Y0078025D01*
X0142813Y0079258D02*
X0142813Y0080094D01*
X0142813Y0079258D02*
X0140205Y0079258D01*
X0140205Y0080094D01*
X0142813Y0080094D01*
X0142813Y0079405D02*
X0140205Y0079405D01*
X0140205Y0079552D02*
X0142813Y0079552D01*
X0142813Y0079699D02*
X0140205Y0079699D01*
X0140205Y0079846D02*
X0142813Y0079846D01*
X0142813Y0079993D02*
X0140205Y0079993D01*
X0142813Y0081227D02*
X0142813Y0082063D01*
X0142813Y0081227D02*
X0140205Y0081227D01*
X0140205Y0082063D01*
X0142813Y0082063D01*
X0142813Y0081374D02*
X0140205Y0081374D01*
X0140205Y0081521D02*
X0142813Y0081521D01*
X0142813Y0081668D02*
X0140205Y0081668D01*
X0140205Y0081815D02*
X0142813Y0081815D01*
X0142813Y0081962D02*
X0140205Y0081962D01*
X0142813Y0083195D02*
X0142813Y0084031D01*
X0142813Y0083195D02*
X0140205Y0083195D01*
X0140205Y0084031D01*
X0142813Y0084031D01*
X0142813Y0083342D02*
X0140205Y0083342D01*
X0140205Y0083489D02*
X0142813Y0083489D01*
X0142813Y0083636D02*
X0140205Y0083636D01*
X0140205Y0083783D02*
X0142813Y0083783D01*
X0142813Y0083930D02*
X0140205Y0083930D01*
X0142813Y0085164D02*
X0142813Y0086000D01*
X0142813Y0085164D02*
X0140205Y0085164D01*
X0140205Y0086000D01*
X0142813Y0086000D01*
X0142813Y0085311D02*
X0140205Y0085311D01*
X0140205Y0085458D02*
X0142813Y0085458D01*
X0142813Y0085605D02*
X0140205Y0085605D01*
X0140205Y0085752D02*
X0142813Y0085752D01*
X0142813Y0085899D02*
X0140205Y0085899D01*
X0142813Y0087132D02*
X0142813Y0087968D01*
X0142813Y0087132D02*
X0140205Y0087132D01*
X0140205Y0087968D01*
X0142813Y0087968D01*
X0142813Y0087279D02*
X0140205Y0087279D01*
X0140205Y0087426D02*
X0142813Y0087426D01*
X0142813Y0087573D02*
X0140205Y0087573D01*
X0140205Y0087720D02*
X0142813Y0087720D01*
X0142813Y0087867D02*
X0140205Y0087867D01*
X0116227Y0103582D02*
X0115391Y0103582D01*
X0115391Y0106190D01*
X0116227Y0106190D01*
X0116227Y0103582D01*
X0116227Y0103729D02*
X0115391Y0103729D01*
X0115391Y0103876D02*
X0116227Y0103876D01*
X0116227Y0104023D02*
X0115391Y0104023D01*
X0115391Y0104170D02*
X0116227Y0104170D01*
X0116227Y0104317D02*
X0115391Y0104317D01*
X0115391Y0104464D02*
X0116227Y0104464D01*
X0116227Y0104611D02*
X0115391Y0104611D01*
X0115391Y0104758D02*
X0116227Y0104758D01*
X0116227Y0104905D02*
X0115391Y0104905D01*
X0115391Y0105052D02*
X0116227Y0105052D01*
X0116227Y0105199D02*
X0115391Y0105199D01*
X0115391Y0105346D02*
X0116227Y0105346D01*
X0116227Y0105493D02*
X0115391Y0105493D01*
X0115391Y0105640D02*
X0116227Y0105640D01*
X0116227Y0105787D02*
X0115391Y0105787D01*
X0115391Y0105934D02*
X0116227Y0105934D01*
X0116227Y0106081D02*
X0115391Y0106081D01*
X0114258Y0103582D02*
X0113422Y0103582D01*
X0113422Y0106190D01*
X0114258Y0106190D01*
X0114258Y0103582D01*
X0114258Y0103729D02*
X0113422Y0103729D01*
X0113422Y0103876D02*
X0114258Y0103876D01*
X0114258Y0104023D02*
X0113422Y0104023D01*
X0113422Y0104170D02*
X0114258Y0104170D01*
X0114258Y0104317D02*
X0113422Y0104317D01*
X0113422Y0104464D02*
X0114258Y0104464D01*
X0114258Y0104611D02*
X0113422Y0104611D01*
X0113422Y0104758D02*
X0114258Y0104758D01*
X0114258Y0104905D02*
X0113422Y0104905D01*
X0113422Y0105052D02*
X0114258Y0105052D01*
X0114258Y0105199D02*
X0113422Y0105199D01*
X0113422Y0105346D02*
X0114258Y0105346D01*
X0114258Y0105493D02*
X0113422Y0105493D01*
X0113422Y0105640D02*
X0114258Y0105640D01*
X0114258Y0105787D02*
X0113422Y0105787D01*
X0113422Y0105934D02*
X0114258Y0105934D01*
X0114258Y0106081D02*
X0113422Y0106081D01*
X0112290Y0103582D02*
X0111454Y0103582D01*
X0111454Y0106190D01*
X0112290Y0106190D01*
X0112290Y0103582D01*
X0112290Y0103729D02*
X0111454Y0103729D01*
X0111454Y0103876D02*
X0112290Y0103876D01*
X0112290Y0104023D02*
X0111454Y0104023D01*
X0111454Y0104170D02*
X0112290Y0104170D01*
X0112290Y0104317D02*
X0111454Y0104317D01*
X0111454Y0104464D02*
X0112290Y0104464D01*
X0112290Y0104611D02*
X0111454Y0104611D01*
X0111454Y0104758D02*
X0112290Y0104758D01*
X0112290Y0104905D02*
X0111454Y0104905D01*
X0111454Y0105052D02*
X0112290Y0105052D01*
X0112290Y0105199D02*
X0111454Y0105199D01*
X0111454Y0105346D02*
X0112290Y0105346D01*
X0112290Y0105493D02*
X0111454Y0105493D01*
X0111454Y0105640D02*
X0112290Y0105640D01*
X0112290Y0105787D02*
X0111454Y0105787D01*
X0111454Y0105934D02*
X0112290Y0105934D01*
X0112290Y0106081D02*
X0111454Y0106081D01*
X0110321Y0103582D02*
X0109485Y0103582D01*
X0109485Y0106190D01*
X0110321Y0106190D01*
X0110321Y0103582D01*
X0110321Y0103729D02*
X0109485Y0103729D01*
X0109485Y0103876D02*
X0110321Y0103876D01*
X0110321Y0104023D02*
X0109485Y0104023D01*
X0109485Y0104170D02*
X0110321Y0104170D01*
X0110321Y0104317D02*
X0109485Y0104317D01*
X0109485Y0104464D02*
X0110321Y0104464D01*
X0110321Y0104611D02*
X0109485Y0104611D01*
X0109485Y0104758D02*
X0110321Y0104758D01*
X0110321Y0104905D02*
X0109485Y0104905D01*
X0109485Y0105052D02*
X0110321Y0105052D01*
X0110321Y0105199D02*
X0109485Y0105199D01*
X0109485Y0105346D02*
X0110321Y0105346D01*
X0110321Y0105493D02*
X0109485Y0105493D01*
X0109485Y0105640D02*
X0110321Y0105640D01*
X0110321Y0105787D02*
X0109485Y0105787D01*
X0109485Y0105934D02*
X0110321Y0105934D01*
X0110321Y0106081D02*
X0109485Y0106081D01*
X0108353Y0103582D02*
X0107517Y0103582D01*
X0107517Y0106190D01*
X0108353Y0106190D01*
X0108353Y0103582D01*
X0108353Y0103729D02*
X0107517Y0103729D01*
X0107517Y0103876D02*
X0108353Y0103876D01*
X0108353Y0104023D02*
X0107517Y0104023D01*
X0107517Y0104170D02*
X0108353Y0104170D01*
X0108353Y0104317D02*
X0107517Y0104317D01*
X0107517Y0104464D02*
X0108353Y0104464D01*
X0108353Y0104611D02*
X0107517Y0104611D01*
X0107517Y0104758D02*
X0108353Y0104758D01*
X0108353Y0104905D02*
X0107517Y0104905D01*
X0107517Y0105052D02*
X0108353Y0105052D01*
X0108353Y0105199D02*
X0107517Y0105199D01*
X0107517Y0105346D02*
X0108353Y0105346D01*
X0108353Y0105493D02*
X0107517Y0105493D01*
X0107517Y0105640D02*
X0108353Y0105640D01*
X0108353Y0105787D02*
X0107517Y0105787D01*
X0107517Y0105934D02*
X0108353Y0105934D01*
X0108353Y0106081D02*
X0107517Y0106081D01*
X0106384Y0103582D02*
X0105548Y0103582D01*
X0105548Y0106190D01*
X0106384Y0106190D01*
X0106384Y0103582D01*
X0106384Y0103729D02*
X0105548Y0103729D01*
X0105548Y0103876D02*
X0106384Y0103876D01*
X0106384Y0104023D02*
X0105548Y0104023D01*
X0105548Y0104170D02*
X0106384Y0104170D01*
X0106384Y0104317D02*
X0105548Y0104317D01*
X0105548Y0104464D02*
X0106384Y0104464D01*
X0106384Y0104611D02*
X0105548Y0104611D01*
X0105548Y0104758D02*
X0106384Y0104758D01*
X0106384Y0104905D02*
X0105548Y0104905D01*
X0105548Y0105052D02*
X0106384Y0105052D01*
X0106384Y0105199D02*
X0105548Y0105199D01*
X0105548Y0105346D02*
X0106384Y0105346D01*
X0106384Y0105493D02*
X0105548Y0105493D01*
X0105548Y0105640D02*
X0106384Y0105640D01*
X0106384Y0105787D02*
X0105548Y0105787D01*
X0105548Y0105934D02*
X0106384Y0105934D01*
X0106384Y0106081D02*
X0105548Y0106081D01*
X0104416Y0103582D02*
X0103580Y0103582D01*
X0103580Y0106190D01*
X0104416Y0106190D01*
X0104416Y0103582D01*
X0104416Y0103729D02*
X0103580Y0103729D01*
X0103580Y0103876D02*
X0104416Y0103876D01*
X0104416Y0104023D02*
X0103580Y0104023D01*
X0103580Y0104170D02*
X0104416Y0104170D01*
X0104416Y0104317D02*
X0103580Y0104317D01*
X0103580Y0104464D02*
X0104416Y0104464D01*
X0104416Y0104611D02*
X0103580Y0104611D01*
X0103580Y0104758D02*
X0104416Y0104758D01*
X0104416Y0104905D02*
X0103580Y0104905D01*
X0103580Y0105052D02*
X0104416Y0105052D01*
X0104416Y0105199D02*
X0103580Y0105199D01*
X0103580Y0105346D02*
X0104416Y0105346D01*
X0104416Y0105493D02*
X0103580Y0105493D01*
X0103580Y0105640D02*
X0104416Y0105640D01*
X0104416Y0105787D02*
X0103580Y0105787D01*
X0103580Y0105934D02*
X0104416Y0105934D01*
X0104416Y0106081D02*
X0103580Y0106081D01*
X0102447Y0103582D02*
X0101611Y0103582D01*
X0101611Y0106190D01*
X0102447Y0106190D01*
X0102447Y0103582D01*
X0102447Y0103729D02*
X0101611Y0103729D01*
X0101611Y0103876D02*
X0102447Y0103876D01*
X0102447Y0104023D02*
X0101611Y0104023D01*
X0101611Y0104170D02*
X0102447Y0104170D01*
X0102447Y0104317D02*
X0101611Y0104317D01*
X0101611Y0104464D02*
X0102447Y0104464D01*
X0102447Y0104611D02*
X0101611Y0104611D01*
X0101611Y0104758D02*
X0102447Y0104758D01*
X0102447Y0104905D02*
X0101611Y0104905D01*
X0101611Y0105052D02*
X0102447Y0105052D01*
X0102447Y0105199D02*
X0101611Y0105199D01*
X0101611Y0105346D02*
X0102447Y0105346D01*
X0102447Y0105493D02*
X0101611Y0105493D01*
X0101611Y0105640D02*
X0102447Y0105640D01*
X0102447Y0105787D02*
X0101611Y0105787D01*
X0101611Y0105934D02*
X0102447Y0105934D01*
X0102447Y0106081D02*
X0101611Y0106081D01*
X0100479Y0103582D02*
X0099643Y0103582D01*
X0099643Y0106190D01*
X0100479Y0106190D01*
X0100479Y0103582D01*
X0100479Y0103729D02*
X0099643Y0103729D01*
X0099643Y0103876D02*
X0100479Y0103876D01*
X0100479Y0104023D02*
X0099643Y0104023D01*
X0099643Y0104170D02*
X0100479Y0104170D01*
X0100479Y0104317D02*
X0099643Y0104317D01*
X0099643Y0104464D02*
X0100479Y0104464D01*
X0100479Y0104611D02*
X0099643Y0104611D01*
X0099643Y0104758D02*
X0100479Y0104758D01*
X0100479Y0104905D02*
X0099643Y0104905D01*
X0099643Y0105052D02*
X0100479Y0105052D01*
X0100479Y0105199D02*
X0099643Y0105199D01*
X0099643Y0105346D02*
X0100479Y0105346D01*
X0100479Y0105493D02*
X0099643Y0105493D01*
X0099643Y0105640D02*
X0100479Y0105640D01*
X0100479Y0105787D02*
X0099643Y0105787D01*
X0099643Y0105934D02*
X0100479Y0105934D01*
X0100479Y0106081D02*
X0099643Y0106081D01*
X0098510Y0103582D02*
X0097674Y0103582D01*
X0097674Y0106190D01*
X0098510Y0106190D01*
X0098510Y0103582D01*
X0098510Y0103729D02*
X0097674Y0103729D01*
X0097674Y0103876D02*
X0098510Y0103876D01*
X0098510Y0104023D02*
X0097674Y0104023D01*
X0097674Y0104170D02*
X0098510Y0104170D01*
X0098510Y0104317D02*
X0097674Y0104317D01*
X0097674Y0104464D02*
X0098510Y0104464D01*
X0098510Y0104611D02*
X0097674Y0104611D01*
X0097674Y0104758D02*
X0098510Y0104758D01*
X0098510Y0104905D02*
X0097674Y0104905D01*
X0097674Y0105052D02*
X0098510Y0105052D01*
X0098510Y0105199D02*
X0097674Y0105199D01*
X0097674Y0105346D02*
X0098510Y0105346D01*
X0098510Y0105493D02*
X0097674Y0105493D01*
X0097674Y0105640D02*
X0098510Y0105640D01*
X0098510Y0105787D02*
X0097674Y0105787D01*
X0097674Y0105934D02*
X0098510Y0105934D01*
X0098510Y0106081D02*
X0097674Y0106081D01*
X0096542Y0103582D02*
X0095706Y0103582D01*
X0095706Y0106190D01*
X0096542Y0106190D01*
X0096542Y0103582D01*
X0096542Y0103729D02*
X0095706Y0103729D01*
X0095706Y0103876D02*
X0096542Y0103876D01*
X0096542Y0104023D02*
X0095706Y0104023D01*
X0095706Y0104170D02*
X0096542Y0104170D01*
X0096542Y0104317D02*
X0095706Y0104317D01*
X0095706Y0104464D02*
X0096542Y0104464D01*
X0096542Y0104611D02*
X0095706Y0104611D01*
X0095706Y0104758D02*
X0096542Y0104758D01*
X0096542Y0104905D02*
X0095706Y0104905D01*
X0095706Y0105052D02*
X0096542Y0105052D01*
X0096542Y0105199D02*
X0095706Y0105199D01*
X0095706Y0105346D02*
X0096542Y0105346D01*
X0096542Y0105493D02*
X0095706Y0105493D01*
X0095706Y0105640D02*
X0096542Y0105640D01*
X0096542Y0105787D02*
X0095706Y0105787D01*
X0095706Y0105934D02*
X0096542Y0105934D01*
X0096542Y0106081D02*
X0095706Y0106081D01*
X0095706Y0122086D02*
X0096542Y0122086D01*
X0095706Y0122086D02*
X0095706Y0124694D01*
X0096542Y0124694D01*
X0096542Y0122086D01*
X0096542Y0122233D02*
X0095706Y0122233D01*
X0095706Y0122380D02*
X0096542Y0122380D01*
X0096542Y0122527D02*
X0095706Y0122527D01*
X0095706Y0122674D02*
X0096542Y0122674D01*
X0096542Y0122821D02*
X0095706Y0122821D01*
X0095706Y0122968D02*
X0096542Y0122968D01*
X0096542Y0123115D02*
X0095706Y0123115D01*
X0095706Y0123262D02*
X0096542Y0123262D01*
X0096542Y0123409D02*
X0095706Y0123409D01*
X0095706Y0123556D02*
X0096542Y0123556D01*
X0096542Y0123703D02*
X0095706Y0123703D01*
X0095706Y0123850D02*
X0096542Y0123850D01*
X0096542Y0123997D02*
X0095706Y0123997D01*
X0095706Y0124144D02*
X0096542Y0124144D01*
X0096542Y0124291D02*
X0095706Y0124291D01*
X0095706Y0124438D02*
X0096542Y0124438D01*
X0096542Y0124585D02*
X0095706Y0124585D01*
X0097674Y0122086D02*
X0098510Y0122086D01*
X0097674Y0122086D02*
X0097674Y0124694D01*
X0098510Y0124694D01*
X0098510Y0122086D01*
X0098510Y0122233D02*
X0097674Y0122233D01*
X0097674Y0122380D02*
X0098510Y0122380D01*
X0098510Y0122527D02*
X0097674Y0122527D01*
X0097674Y0122674D02*
X0098510Y0122674D01*
X0098510Y0122821D02*
X0097674Y0122821D01*
X0097674Y0122968D02*
X0098510Y0122968D01*
X0098510Y0123115D02*
X0097674Y0123115D01*
X0097674Y0123262D02*
X0098510Y0123262D01*
X0098510Y0123409D02*
X0097674Y0123409D01*
X0097674Y0123556D02*
X0098510Y0123556D01*
X0098510Y0123703D02*
X0097674Y0123703D01*
X0097674Y0123850D02*
X0098510Y0123850D01*
X0098510Y0123997D02*
X0097674Y0123997D01*
X0097674Y0124144D02*
X0098510Y0124144D01*
X0098510Y0124291D02*
X0097674Y0124291D01*
X0097674Y0124438D02*
X0098510Y0124438D01*
X0098510Y0124585D02*
X0097674Y0124585D01*
X0099643Y0122086D02*
X0100479Y0122086D01*
X0099643Y0122086D02*
X0099643Y0124694D01*
X0100479Y0124694D01*
X0100479Y0122086D01*
X0100479Y0122233D02*
X0099643Y0122233D01*
X0099643Y0122380D02*
X0100479Y0122380D01*
X0100479Y0122527D02*
X0099643Y0122527D01*
X0099643Y0122674D02*
X0100479Y0122674D01*
X0100479Y0122821D02*
X0099643Y0122821D01*
X0099643Y0122968D02*
X0100479Y0122968D01*
X0100479Y0123115D02*
X0099643Y0123115D01*
X0099643Y0123262D02*
X0100479Y0123262D01*
X0100479Y0123409D02*
X0099643Y0123409D01*
X0099643Y0123556D02*
X0100479Y0123556D01*
X0100479Y0123703D02*
X0099643Y0123703D01*
X0099643Y0123850D02*
X0100479Y0123850D01*
X0100479Y0123997D02*
X0099643Y0123997D01*
X0099643Y0124144D02*
X0100479Y0124144D01*
X0100479Y0124291D02*
X0099643Y0124291D01*
X0099643Y0124438D02*
X0100479Y0124438D01*
X0100479Y0124585D02*
X0099643Y0124585D01*
X0101611Y0122086D02*
X0102447Y0122086D01*
X0101611Y0122086D02*
X0101611Y0124694D01*
X0102447Y0124694D01*
X0102447Y0122086D01*
X0102447Y0122233D02*
X0101611Y0122233D01*
X0101611Y0122380D02*
X0102447Y0122380D01*
X0102447Y0122527D02*
X0101611Y0122527D01*
X0101611Y0122674D02*
X0102447Y0122674D01*
X0102447Y0122821D02*
X0101611Y0122821D01*
X0101611Y0122968D02*
X0102447Y0122968D01*
X0102447Y0123115D02*
X0101611Y0123115D01*
X0101611Y0123262D02*
X0102447Y0123262D01*
X0102447Y0123409D02*
X0101611Y0123409D01*
X0101611Y0123556D02*
X0102447Y0123556D01*
X0102447Y0123703D02*
X0101611Y0123703D01*
X0101611Y0123850D02*
X0102447Y0123850D01*
X0102447Y0123997D02*
X0101611Y0123997D01*
X0101611Y0124144D02*
X0102447Y0124144D01*
X0102447Y0124291D02*
X0101611Y0124291D01*
X0101611Y0124438D02*
X0102447Y0124438D01*
X0102447Y0124585D02*
X0101611Y0124585D01*
X0103580Y0122086D02*
X0104416Y0122086D01*
X0103580Y0122086D02*
X0103580Y0124694D01*
X0104416Y0124694D01*
X0104416Y0122086D01*
X0104416Y0122233D02*
X0103580Y0122233D01*
X0103580Y0122380D02*
X0104416Y0122380D01*
X0104416Y0122527D02*
X0103580Y0122527D01*
X0103580Y0122674D02*
X0104416Y0122674D01*
X0104416Y0122821D02*
X0103580Y0122821D01*
X0103580Y0122968D02*
X0104416Y0122968D01*
X0104416Y0123115D02*
X0103580Y0123115D01*
X0103580Y0123262D02*
X0104416Y0123262D01*
X0104416Y0123409D02*
X0103580Y0123409D01*
X0103580Y0123556D02*
X0104416Y0123556D01*
X0104416Y0123703D02*
X0103580Y0123703D01*
X0103580Y0123850D02*
X0104416Y0123850D01*
X0104416Y0123997D02*
X0103580Y0123997D01*
X0103580Y0124144D02*
X0104416Y0124144D01*
X0104416Y0124291D02*
X0103580Y0124291D01*
X0103580Y0124438D02*
X0104416Y0124438D01*
X0104416Y0124585D02*
X0103580Y0124585D01*
X0105548Y0122086D02*
X0106384Y0122086D01*
X0105548Y0122086D02*
X0105548Y0124694D01*
X0106384Y0124694D01*
X0106384Y0122086D01*
X0106384Y0122233D02*
X0105548Y0122233D01*
X0105548Y0122380D02*
X0106384Y0122380D01*
X0106384Y0122527D02*
X0105548Y0122527D01*
X0105548Y0122674D02*
X0106384Y0122674D01*
X0106384Y0122821D02*
X0105548Y0122821D01*
X0105548Y0122968D02*
X0106384Y0122968D01*
X0106384Y0123115D02*
X0105548Y0123115D01*
X0105548Y0123262D02*
X0106384Y0123262D01*
X0106384Y0123409D02*
X0105548Y0123409D01*
X0105548Y0123556D02*
X0106384Y0123556D01*
X0106384Y0123703D02*
X0105548Y0123703D01*
X0105548Y0123850D02*
X0106384Y0123850D01*
X0106384Y0123997D02*
X0105548Y0123997D01*
X0105548Y0124144D02*
X0106384Y0124144D01*
X0106384Y0124291D02*
X0105548Y0124291D01*
X0105548Y0124438D02*
X0106384Y0124438D01*
X0106384Y0124585D02*
X0105548Y0124585D01*
X0107517Y0122086D02*
X0108353Y0122086D01*
X0107517Y0122086D02*
X0107517Y0124694D01*
X0108353Y0124694D01*
X0108353Y0122086D01*
X0108353Y0122233D02*
X0107517Y0122233D01*
X0107517Y0122380D02*
X0108353Y0122380D01*
X0108353Y0122527D02*
X0107517Y0122527D01*
X0107517Y0122674D02*
X0108353Y0122674D01*
X0108353Y0122821D02*
X0107517Y0122821D01*
X0107517Y0122968D02*
X0108353Y0122968D01*
X0108353Y0123115D02*
X0107517Y0123115D01*
X0107517Y0123262D02*
X0108353Y0123262D01*
X0108353Y0123409D02*
X0107517Y0123409D01*
X0107517Y0123556D02*
X0108353Y0123556D01*
X0108353Y0123703D02*
X0107517Y0123703D01*
X0107517Y0123850D02*
X0108353Y0123850D01*
X0108353Y0123997D02*
X0107517Y0123997D01*
X0107517Y0124144D02*
X0108353Y0124144D01*
X0108353Y0124291D02*
X0107517Y0124291D01*
X0107517Y0124438D02*
X0108353Y0124438D01*
X0108353Y0124585D02*
X0107517Y0124585D01*
X0109485Y0122086D02*
X0110321Y0122086D01*
X0109485Y0122086D02*
X0109485Y0124694D01*
X0110321Y0124694D01*
X0110321Y0122086D01*
X0110321Y0122233D02*
X0109485Y0122233D01*
X0109485Y0122380D02*
X0110321Y0122380D01*
X0110321Y0122527D02*
X0109485Y0122527D01*
X0109485Y0122674D02*
X0110321Y0122674D01*
X0110321Y0122821D02*
X0109485Y0122821D01*
X0109485Y0122968D02*
X0110321Y0122968D01*
X0110321Y0123115D02*
X0109485Y0123115D01*
X0109485Y0123262D02*
X0110321Y0123262D01*
X0110321Y0123409D02*
X0109485Y0123409D01*
X0109485Y0123556D02*
X0110321Y0123556D01*
X0110321Y0123703D02*
X0109485Y0123703D01*
X0109485Y0123850D02*
X0110321Y0123850D01*
X0110321Y0123997D02*
X0109485Y0123997D01*
X0109485Y0124144D02*
X0110321Y0124144D01*
X0110321Y0124291D02*
X0109485Y0124291D01*
X0109485Y0124438D02*
X0110321Y0124438D01*
X0110321Y0124585D02*
X0109485Y0124585D01*
X0111454Y0122086D02*
X0112290Y0122086D01*
X0111454Y0122086D02*
X0111454Y0124694D01*
X0112290Y0124694D01*
X0112290Y0122086D01*
X0112290Y0122233D02*
X0111454Y0122233D01*
X0111454Y0122380D02*
X0112290Y0122380D01*
X0112290Y0122527D02*
X0111454Y0122527D01*
X0111454Y0122674D02*
X0112290Y0122674D01*
X0112290Y0122821D02*
X0111454Y0122821D01*
X0111454Y0122968D02*
X0112290Y0122968D01*
X0112290Y0123115D02*
X0111454Y0123115D01*
X0111454Y0123262D02*
X0112290Y0123262D01*
X0112290Y0123409D02*
X0111454Y0123409D01*
X0111454Y0123556D02*
X0112290Y0123556D01*
X0112290Y0123703D02*
X0111454Y0123703D01*
X0111454Y0123850D02*
X0112290Y0123850D01*
X0112290Y0123997D02*
X0111454Y0123997D01*
X0111454Y0124144D02*
X0112290Y0124144D01*
X0112290Y0124291D02*
X0111454Y0124291D01*
X0111454Y0124438D02*
X0112290Y0124438D01*
X0112290Y0124585D02*
X0111454Y0124585D01*
X0113422Y0122086D02*
X0114258Y0122086D01*
X0113422Y0122086D02*
X0113422Y0124694D01*
X0114258Y0124694D01*
X0114258Y0122086D01*
X0114258Y0122233D02*
X0113422Y0122233D01*
X0113422Y0122380D02*
X0114258Y0122380D01*
X0114258Y0122527D02*
X0113422Y0122527D01*
X0113422Y0122674D02*
X0114258Y0122674D01*
X0114258Y0122821D02*
X0113422Y0122821D01*
X0113422Y0122968D02*
X0114258Y0122968D01*
X0114258Y0123115D02*
X0113422Y0123115D01*
X0113422Y0123262D02*
X0114258Y0123262D01*
X0114258Y0123409D02*
X0113422Y0123409D01*
X0113422Y0123556D02*
X0114258Y0123556D01*
X0114258Y0123703D02*
X0113422Y0123703D01*
X0113422Y0123850D02*
X0114258Y0123850D01*
X0114258Y0123997D02*
X0113422Y0123997D01*
X0113422Y0124144D02*
X0114258Y0124144D01*
X0114258Y0124291D02*
X0113422Y0124291D01*
X0113422Y0124438D02*
X0114258Y0124438D01*
X0114258Y0124585D02*
X0113422Y0124585D01*
X0115391Y0122086D02*
X0116227Y0122086D01*
X0115391Y0122086D02*
X0115391Y0124694D01*
X0116227Y0124694D01*
X0116227Y0122086D01*
X0116227Y0122233D02*
X0115391Y0122233D01*
X0115391Y0122380D02*
X0116227Y0122380D01*
X0116227Y0122527D02*
X0115391Y0122527D01*
X0115391Y0122674D02*
X0116227Y0122674D01*
X0116227Y0122821D02*
X0115391Y0122821D01*
X0115391Y0122968D02*
X0116227Y0122968D01*
X0116227Y0123115D02*
X0115391Y0123115D01*
X0115391Y0123262D02*
X0116227Y0123262D01*
X0116227Y0123409D02*
X0115391Y0123409D01*
X0115391Y0123556D02*
X0116227Y0123556D01*
X0116227Y0123703D02*
X0115391Y0123703D01*
X0115391Y0123850D02*
X0116227Y0123850D01*
X0116227Y0123997D02*
X0115391Y0123997D01*
X0115391Y0124144D02*
X0116227Y0124144D01*
X0116227Y0124291D02*
X0115391Y0124291D01*
X0115391Y0124438D02*
X0116227Y0124438D01*
X0116227Y0124585D02*
X0115391Y0124585D01*
X0184325Y0053778D02*
X0184325Y0052942D01*
X0181717Y0052942D01*
X0181717Y0053778D01*
X0184325Y0053778D01*
X0184325Y0053089D02*
X0181717Y0053089D01*
X0181717Y0053236D02*
X0184325Y0053236D01*
X0184325Y0053383D02*
X0181717Y0053383D01*
X0181717Y0053530D02*
X0184325Y0053530D01*
X0184325Y0053677D02*
X0181717Y0053677D01*
X0184325Y0051809D02*
X0184325Y0050973D01*
X0181717Y0050973D01*
X0181717Y0051809D01*
X0184325Y0051809D01*
X0184325Y0051120D02*
X0181717Y0051120D01*
X0181717Y0051267D02*
X0184325Y0051267D01*
X0184325Y0051414D02*
X0181717Y0051414D01*
X0181717Y0051561D02*
X0184325Y0051561D01*
X0184325Y0051708D02*
X0181717Y0051708D01*
X0184325Y0049841D02*
X0184325Y0049005D01*
X0181717Y0049005D01*
X0181717Y0049841D01*
X0184325Y0049841D01*
X0184325Y0049152D02*
X0181717Y0049152D01*
X0181717Y0049299D02*
X0184325Y0049299D01*
X0184325Y0049446D02*
X0181717Y0049446D01*
X0181717Y0049593D02*
X0184325Y0049593D01*
X0184325Y0049740D02*
X0181717Y0049740D01*
X0184325Y0047872D02*
X0184325Y0047036D01*
X0181717Y0047036D01*
X0181717Y0047872D01*
X0184325Y0047872D01*
X0184325Y0047183D02*
X0181717Y0047183D01*
X0181717Y0047330D02*
X0184325Y0047330D01*
X0184325Y0047477D02*
X0181717Y0047477D01*
X0181717Y0047624D02*
X0184325Y0047624D01*
X0184325Y0047771D02*
X0181717Y0047771D01*
X0184325Y0045904D02*
X0184325Y0045068D01*
X0181717Y0045068D01*
X0181717Y0045904D01*
X0184325Y0045904D01*
X0184325Y0045215D02*
X0181717Y0045215D01*
X0181717Y0045362D02*
X0184325Y0045362D01*
X0184325Y0045509D02*
X0181717Y0045509D01*
X0181717Y0045656D02*
X0184325Y0045656D01*
X0184325Y0045803D02*
X0181717Y0045803D01*
X0184325Y0043935D02*
X0184325Y0043099D01*
X0181717Y0043099D01*
X0181717Y0043935D01*
X0184325Y0043935D01*
X0184325Y0043246D02*
X0181717Y0043246D01*
X0181717Y0043393D02*
X0184325Y0043393D01*
X0184325Y0043540D02*
X0181717Y0043540D01*
X0181717Y0043687D02*
X0184325Y0043687D01*
X0184325Y0043834D02*
X0181717Y0043834D01*
X0184325Y0041967D02*
X0184325Y0041131D01*
X0181717Y0041131D01*
X0181717Y0041967D01*
X0184325Y0041967D01*
X0184325Y0041278D02*
X0181717Y0041278D01*
X0181717Y0041425D02*
X0184325Y0041425D01*
X0184325Y0041572D02*
X0181717Y0041572D01*
X0181717Y0041719D02*
X0184325Y0041719D01*
X0184325Y0041866D02*
X0181717Y0041866D01*
X0184325Y0039998D02*
X0184325Y0039162D01*
X0181717Y0039162D01*
X0181717Y0039998D01*
X0184325Y0039998D01*
X0184325Y0039309D02*
X0181717Y0039309D01*
X0181717Y0039456D02*
X0184325Y0039456D01*
X0184325Y0039603D02*
X0181717Y0039603D01*
X0181717Y0039750D02*
X0184325Y0039750D01*
X0184325Y0039897D02*
X0181717Y0039897D01*
X0184325Y0038030D02*
X0184325Y0037194D01*
X0181717Y0037194D01*
X0181717Y0038030D01*
X0184325Y0038030D01*
X0184325Y0037341D02*
X0181717Y0037341D01*
X0181717Y0037488D02*
X0184325Y0037488D01*
X0184325Y0037635D02*
X0181717Y0037635D01*
X0181717Y0037782D02*
X0184325Y0037782D01*
X0184325Y0037929D02*
X0181717Y0037929D01*
X0184325Y0036061D02*
X0184325Y0035225D01*
X0181717Y0035225D01*
X0181717Y0036061D01*
X0184325Y0036061D01*
X0184325Y0035372D02*
X0181717Y0035372D01*
X0181717Y0035519D02*
X0184325Y0035519D01*
X0184325Y0035666D02*
X0181717Y0035666D01*
X0181717Y0035813D02*
X0184325Y0035813D01*
X0184325Y0035960D02*
X0181717Y0035960D01*
X0184325Y0034093D02*
X0184325Y0033257D01*
X0181717Y0033257D01*
X0181717Y0034093D01*
X0184325Y0034093D01*
X0184325Y0033404D02*
X0181717Y0033404D01*
X0181717Y0033551D02*
X0184325Y0033551D01*
X0184325Y0033698D02*
X0181717Y0033698D01*
X0181717Y0033845D02*
X0184325Y0033845D01*
X0184325Y0033992D02*
X0181717Y0033992D01*
X0202829Y0034093D02*
X0202829Y0033257D01*
X0200221Y0033257D01*
X0200221Y0034093D01*
X0202829Y0034093D01*
X0202829Y0033404D02*
X0200221Y0033404D01*
X0200221Y0033551D02*
X0202829Y0033551D01*
X0202829Y0033698D02*
X0200221Y0033698D01*
X0200221Y0033845D02*
X0202829Y0033845D01*
X0202829Y0033992D02*
X0200221Y0033992D01*
X0202829Y0035225D02*
X0202829Y0036061D01*
X0202829Y0035225D02*
X0200221Y0035225D01*
X0200221Y0036061D01*
X0202829Y0036061D01*
X0202829Y0035372D02*
X0200221Y0035372D01*
X0200221Y0035519D02*
X0202829Y0035519D01*
X0202829Y0035666D02*
X0200221Y0035666D01*
X0200221Y0035813D02*
X0202829Y0035813D01*
X0202829Y0035960D02*
X0200221Y0035960D01*
X0202829Y0037194D02*
X0202829Y0038030D01*
X0202829Y0037194D02*
X0200221Y0037194D01*
X0200221Y0038030D01*
X0202829Y0038030D01*
X0202829Y0037341D02*
X0200221Y0037341D01*
X0200221Y0037488D02*
X0202829Y0037488D01*
X0202829Y0037635D02*
X0200221Y0037635D01*
X0200221Y0037782D02*
X0202829Y0037782D01*
X0202829Y0037929D02*
X0200221Y0037929D01*
X0202829Y0039162D02*
X0202829Y0039998D01*
X0202829Y0039162D02*
X0200221Y0039162D01*
X0200221Y0039998D01*
X0202829Y0039998D01*
X0202829Y0039309D02*
X0200221Y0039309D01*
X0200221Y0039456D02*
X0202829Y0039456D01*
X0202829Y0039603D02*
X0200221Y0039603D01*
X0200221Y0039750D02*
X0202829Y0039750D01*
X0202829Y0039897D02*
X0200221Y0039897D01*
X0202829Y0041131D02*
X0202829Y0041967D01*
X0202829Y0041131D02*
X0200221Y0041131D01*
X0200221Y0041967D01*
X0202829Y0041967D01*
X0202829Y0041278D02*
X0200221Y0041278D01*
X0200221Y0041425D02*
X0202829Y0041425D01*
X0202829Y0041572D02*
X0200221Y0041572D01*
X0200221Y0041719D02*
X0202829Y0041719D01*
X0202829Y0041866D02*
X0200221Y0041866D01*
X0202829Y0043099D02*
X0202829Y0043935D01*
X0202829Y0043099D02*
X0200221Y0043099D01*
X0200221Y0043935D01*
X0202829Y0043935D01*
X0202829Y0043246D02*
X0200221Y0043246D01*
X0200221Y0043393D02*
X0202829Y0043393D01*
X0202829Y0043540D02*
X0200221Y0043540D01*
X0200221Y0043687D02*
X0202829Y0043687D01*
X0202829Y0043834D02*
X0200221Y0043834D01*
X0202829Y0045068D02*
X0202829Y0045904D01*
X0202829Y0045068D02*
X0200221Y0045068D01*
X0200221Y0045904D01*
X0202829Y0045904D01*
X0202829Y0045215D02*
X0200221Y0045215D01*
X0200221Y0045362D02*
X0202829Y0045362D01*
X0202829Y0045509D02*
X0200221Y0045509D01*
X0200221Y0045656D02*
X0202829Y0045656D01*
X0202829Y0045803D02*
X0200221Y0045803D01*
X0202829Y0047036D02*
X0202829Y0047872D01*
X0202829Y0047036D02*
X0200221Y0047036D01*
X0200221Y0047872D01*
X0202829Y0047872D01*
X0202829Y0047183D02*
X0200221Y0047183D01*
X0200221Y0047330D02*
X0202829Y0047330D01*
X0202829Y0047477D02*
X0200221Y0047477D01*
X0200221Y0047624D02*
X0202829Y0047624D01*
X0202829Y0047771D02*
X0200221Y0047771D01*
X0202829Y0049005D02*
X0202829Y0049841D01*
X0202829Y0049005D02*
X0200221Y0049005D01*
X0200221Y0049841D01*
X0202829Y0049841D01*
X0202829Y0049152D02*
X0200221Y0049152D01*
X0200221Y0049299D02*
X0202829Y0049299D01*
X0202829Y0049446D02*
X0200221Y0049446D01*
X0200221Y0049593D02*
X0202829Y0049593D01*
X0202829Y0049740D02*
X0200221Y0049740D01*
X0202829Y0050973D02*
X0202829Y0051809D01*
X0202829Y0050973D02*
X0200221Y0050973D01*
X0200221Y0051809D01*
X0202829Y0051809D01*
X0202829Y0051120D02*
X0200221Y0051120D01*
X0200221Y0051267D02*
X0202829Y0051267D01*
X0202829Y0051414D02*
X0200221Y0051414D01*
X0200221Y0051561D02*
X0202829Y0051561D01*
X0202829Y0051708D02*
X0200221Y0051708D01*
X0202829Y0052942D02*
X0202829Y0053778D01*
X0202829Y0052942D02*
X0200221Y0052942D01*
X0200221Y0053778D01*
X0202829Y0053778D01*
X0202829Y0053089D02*
X0200221Y0053089D01*
X0200221Y0053236D02*
X0202829Y0053236D01*
X0202829Y0053383D02*
X0200221Y0053383D01*
X0200221Y0053530D02*
X0202829Y0053530D01*
X0202829Y0053677D02*
X0200221Y0053677D01*
D36*
X0199864Y0054752D02*
X0201336Y0054752D01*
X0199864Y0054752D02*
X0199864Y0056008D01*
X0201336Y0056008D01*
X0201336Y0054752D01*
X0201336Y0054972D02*
X0199864Y0054972D01*
X0199864Y0055192D02*
X0201336Y0055192D01*
X0201336Y0055412D02*
X0199864Y0055412D01*
X0199864Y0055632D02*
X0201336Y0055632D01*
X0201336Y0055852D02*
X0199864Y0055852D01*
X0184682Y0054752D02*
X0183210Y0054752D01*
X0183210Y0056008D01*
X0184682Y0056008D01*
X0184682Y0054752D01*
X0184682Y0054972D02*
X0183210Y0054972D01*
X0183210Y0055192D02*
X0184682Y0055192D01*
X0184682Y0055412D02*
X0183210Y0055412D01*
X0183210Y0055632D02*
X0184682Y0055632D01*
X0184682Y0055852D02*
X0183210Y0055852D01*
X0159823Y0065218D02*
X0158351Y0065218D01*
X0158351Y0066474D01*
X0159823Y0066474D01*
X0159823Y0065218D01*
X0159823Y0065438D02*
X0158351Y0065438D01*
X0158351Y0065658D02*
X0159823Y0065658D01*
X0159823Y0065878D02*
X0158351Y0065878D01*
X0158351Y0066098D02*
X0159823Y0066098D01*
X0159823Y0066318D02*
X0158351Y0066318D01*
X0143170Y0065218D02*
X0141698Y0065218D01*
X0141698Y0066474D01*
X0143170Y0066474D01*
X0143170Y0065218D01*
X0143170Y0065438D02*
X0141698Y0065438D01*
X0141698Y0065658D02*
X0143170Y0065658D01*
X0143170Y0065878D02*
X0141698Y0065878D01*
X0141698Y0066098D02*
X0143170Y0066098D01*
X0143170Y0066318D02*
X0141698Y0066318D01*
X0141698Y0088942D02*
X0143170Y0088942D01*
X0141698Y0088942D02*
X0141698Y0090198D01*
X0143170Y0090198D01*
X0143170Y0088942D01*
X0143170Y0089162D02*
X0141698Y0089162D01*
X0141698Y0089382D02*
X0143170Y0089382D01*
X0143170Y0089602D02*
X0141698Y0089602D01*
X0141698Y0089822D02*
X0143170Y0089822D01*
X0143170Y0090042D02*
X0141698Y0090042D01*
X0158351Y0088942D02*
X0159823Y0088942D01*
X0158351Y0088942D02*
X0158351Y0090198D01*
X0159823Y0090198D01*
X0159823Y0088942D01*
X0159823Y0089162D02*
X0158351Y0089162D01*
X0158351Y0089382D02*
X0159823Y0089382D01*
X0159823Y0089602D02*
X0158351Y0089602D01*
X0158351Y0089822D02*
X0159823Y0089822D01*
X0159823Y0090042D02*
X0158351Y0090042D01*
X0117200Y0105075D02*
X0117200Y0106547D01*
X0118456Y0106547D01*
X0118456Y0105075D01*
X0117200Y0105075D01*
X0117200Y0105295D02*
X0118456Y0105295D01*
X0118456Y0105515D02*
X0117200Y0105515D01*
X0117200Y0105735D02*
X0118456Y0105735D01*
X0118456Y0105955D02*
X0117200Y0105955D01*
X0117200Y0106175D02*
X0118456Y0106175D01*
X0118456Y0106395D02*
X0117200Y0106395D01*
X0117200Y0121729D02*
X0117200Y0123201D01*
X0118456Y0123201D01*
X0118456Y0121729D01*
X0117200Y0121729D01*
X0117200Y0121949D02*
X0118456Y0121949D01*
X0118456Y0122169D02*
X0117200Y0122169D01*
X0117200Y0122389D02*
X0118456Y0122389D01*
X0118456Y0122609D02*
X0117200Y0122609D01*
X0117200Y0122829D02*
X0118456Y0122829D01*
X0118456Y0123049D02*
X0117200Y0123049D01*
X0093476Y0123201D02*
X0093476Y0121729D01*
X0093476Y0123201D02*
X0094732Y0123201D01*
X0094732Y0121729D01*
X0093476Y0121729D01*
X0093476Y0121949D02*
X0094732Y0121949D01*
X0094732Y0122169D02*
X0093476Y0122169D01*
X0093476Y0122389D02*
X0094732Y0122389D01*
X0094732Y0122609D02*
X0093476Y0122609D01*
X0093476Y0122829D02*
X0094732Y0122829D01*
X0094732Y0123049D02*
X0093476Y0123049D01*
X0093476Y0106547D02*
X0093476Y0105075D01*
X0093476Y0106547D02*
X0094732Y0106547D01*
X0094732Y0105075D01*
X0093476Y0105075D01*
X0093476Y0105295D02*
X0094732Y0105295D01*
X0094732Y0105515D02*
X0093476Y0105515D01*
X0093476Y0105735D02*
X0094732Y0105735D01*
X0094732Y0105955D02*
X0093476Y0105955D01*
X0093476Y0106175D02*
X0094732Y0106175D01*
X0094732Y0106395D02*
X0093476Y0106395D01*
X0183210Y0031027D02*
X0184682Y0031027D01*
X0183210Y0031027D02*
X0183210Y0032283D01*
X0184682Y0032283D01*
X0184682Y0031027D01*
X0184682Y0031247D02*
X0183210Y0031247D01*
X0183210Y0031467D02*
X0184682Y0031467D01*
X0184682Y0031687D02*
X0183210Y0031687D01*
X0183210Y0031907D02*
X0184682Y0031907D01*
X0184682Y0032127D02*
X0183210Y0032127D01*
X0199864Y0031027D02*
X0201336Y0031027D01*
X0199864Y0031027D02*
X0199864Y0032283D01*
X0201336Y0032283D01*
X0201336Y0031027D01*
X0201336Y0031247D02*
X0199864Y0031247D01*
X0199864Y0031467D02*
X0201336Y0031467D01*
X0201336Y0031687D02*
X0199864Y0031687D01*
X0199864Y0031907D02*
X0201336Y0031907D01*
X0201336Y0032127D02*
X0199864Y0032127D01*
D37*
X0103344Y0110947D03*
D38*
X0098095Y0110946D03*
D39*
X0108567Y0110946D03*
D40*
X0113815Y0110945D03*
D41*
X0113811Y0117380D03*
D42*
X0108568Y0117374D03*
D43*
X0103327Y0117377D03*
D44*
X0098092Y0117374D03*
D45*
X0104173Y0122770D03*
D46*
X0104165Y0105508D03*
D47*
X0079331Y0131024D03*
X0079331Y0195198D03*
D48*
X0088583Y0182796D03*
X0088583Y0178859D03*
X0088583Y0174922D03*
X0088583Y0170985D03*
X0088583Y0167048D03*
X0088583Y0163111D03*
X0088583Y0159174D03*
X0088583Y0155237D03*
X0088583Y0151300D03*
X0088583Y0147363D03*
X0088583Y0143426D03*
D49*
X0290961Y0263789D02*
X0292141Y0263789D01*
X0290961Y0263789D02*
X0290961Y0268079D01*
X0292141Y0268079D01*
X0292141Y0263789D01*
X0292141Y0264182D02*
X0290961Y0264182D01*
X0290961Y0264575D02*
X0292141Y0264575D01*
X0292141Y0264968D02*
X0290961Y0264968D01*
X0290961Y0265361D02*
X0292141Y0265361D01*
X0292141Y0265754D02*
X0290961Y0265754D01*
X0290961Y0266147D02*
X0292141Y0266147D01*
X0292141Y0266540D02*
X0290961Y0266540D01*
X0290961Y0266933D02*
X0292141Y0266933D01*
X0292141Y0267326D02*
X0290961Y0267326D01*
X0290961Y0267719D02*
X0292141Y0267719D01*
X0293520Y0263789D02*
X0294700Y0263789D01*
X0293520Y0263789D02*
X0293520Y0268079D01*
X0294700Y0268079D01*
X0294700Y0263789D01*
X0294700Y0264182D02*
X0293520Y0264182D01*
X0293520Y0264575D02*
X0294700Y0264575D01*
X0294700Y0264968D02*
X0293520Y0264968D01*
X0293520Y0265361D02*
X0294700Y0265361D01*
X0294700Y0265754D02*
X0293520Y0265754D01*
X0293520Y0266147D02*
X0294700Y0266147D01*
X0294700Y0266540D02*
X0293520Y0266540D01*
X0293520Y0266933D02*
X0294700Y0266933D01*
X0294700Y0267326D02*
X0293520Y0267326D01*
X0293520Y0267719D02*
X0294700Y0267719D01*
X0296079Y0263789D02*
X0297259Y0263789D01*
X0296079Y0263789D02*
X0296079Y0268079D01*
X0297259Y0268079D01*
X0297259Y0263789D01*
X0297259Y0264182D02*
X0296079Y0264182D01*
X0296079Y0264575D02*
X0297259Y0264575D01*
X0297259Y0264968D02*
X0296079Y0264968D01*
X0296079Y0265361D02*
X0297259Y0265361D01*
X0297259Y0265754D02*
X0296079Y0265754D01*
X0296079Y0266147D02*
X0297259Y0266147D01*
X0297259Y0266540D02*
X0296079Y0266540D01*
X0296079Y0266933D02*
X0297259Y0266933D01*
X0297259Y0267326D02*
X0296079Y0267326D01*
X0296079Y0267719D02*
X0297259Y0267719D01*
X0297259Y0275638D02*
X0296079Y0275638D01*
X0297259Y0275638D02*
X0297259Y0271348D01*
X0296079Y0271348D01*
X0296079Y0275638D01*
X0296079Y0271741D02*
X0297259Y0271741D01*
X0297259Y0272134D02*
X0296079Y0272134D01*
X0296079Y0272527D02*
X0297259Y0272527D01*
X0297259Y0272920D02*
X0296079Y0272920D01*
X0296079Y0273313D02*
X0297259Y0273313D01*
X0297259Y0273706D02*
X0296079Y0273706D01*
X0296079Y0274099D02*
X0297259Y0274099D01*
X0297259Y0274492D02*
X0296079Y0274492D01*
X0296079Y0274885D02*
X0297259Y0274885D01*
X0297259Y0275278D02*
X0296079Y0275278D01*
X0292141Y0275638D02*
X0290961Y0275638D01*
X0292141Y0275638D02*
X0292141Y0271348D01*
X0290961Y0271348D01*
X0290961Y0275638D01*
X0290961Y0271741D02*
X0292141Y0271741D01*
X0292141Y0272134D02*
X0290961Y0272134D01*
X0290961Y0272527D02*
X0292141Y0272527D01*
X0292141Y0272920D02*
X0290961Y0272920D01*
X0290961Y0273313D02*
X0292141Y0273313D01*
X0292141Y0273706D02*
X0290961Y0273706D01*
X0290961Y0274099D02*
X0292141Y0274099D01*
X0292141Y0274492D02*
X0290961Y0274492D01*
X0290961Y0274885D02*
X0292141Y0274885D01*
X0292141Y0275278D02*
X0290961Y0275278D01*
D50*
X0216851Y0085552D03*
X0188111Y0085552D03*
D51*
X0257993Y0073150D03*
X0276497Y0090473D03*
X0285946Y0081812D03*
X0314292Y0083387D03*
X0314292Y0112127D03*
X0276497Y0119213D03*
X0285946Y0053072D03*
X0257993Y0044410D03*
M02*
