G04 EAGLE Gerber X2 export*
%TF.Part,Single*%
%TF.FileFunction,Copper,L2,Inr,Mixed*%
%TF.FilePolarity,Positive*%
%TF.GenerationSoftware,Autodesk,EAGLE,8.6.0*%
%TF.CreationDate,2018-04-20T19:50:09Z*%
G75*
%MOMM*%
%FSLAX34Y34*%
%LPD*%
%AMOC8*
5,1,8,0,0,1.08239X$1,22.5*%
G01*
%ADD10C,1.508000*%
%ADD11C,1.524000*%
%ADD12C,0.756400*%
%ADD13C,0.254000*%
%ADD14C,0.152400*%
%ADD15C,0.806400*%

G36*
X574609Y139769D02*
X574609Y139769D01*
X574635Y139775D01*
X574683Y139777D01*
X611893Y145296D01*
X611918Y145304D01*
X611966Y145311D01*
X648456Y154451D01*
X648480Y154461D01*
X648527Y154473D01*
X683945Y167145D01*
X683968Y167158D01*
X684014Y167174D01*
X718019Y183257D01*
X718041Y183272D01*
X718085Y183293D01*
X750350Y202631D01*
X750371Y202649D01*
X750412Y202673D01*
X780627Y225081D01*
X780645Y225100D01*
X780684Y225129D01*
X808557Y250391D01*
X808573Y250411D01*
X808609Y250443D01*
X833871Y278316D01*
X833886Y278338D01*
X833919Y278373D01*
X856327Y308588D01*
X856339Y308611D01*
X856369Y308650D01*
X875707Y340915D01*
X875717Y340939D01*
X875743Y340981D01*
X891826Y374986D01*
X891833Y375011D01*
X891855Y375055D01*
X904527Y410473D01*
X904532Y410499D01*
X904549Y410544D01*
X913689Y447034D01*
X913691Y447060D01*
X913704Y447107D01*
X919223Y484317D01*
X919223Y484343D01*
X919231Y484391D01*
X921076Y521963D01*
X921073Y521989D01*
X921076Y522037D01*
X919231Y559609D01*
X919225Y559635D01*
X919223Y559683D01*
X913704Y596893D01*
X913696Y596918D01*
X913689Y596966D01*
X906576Y625364D01*
X906560Y625402D01*
X906559Y625403D01*
X906559Y625404D01*
X906546Y625434D01*
X906525Y625507D01*
X906497Y625546D01*
X906478Y625590D01*
X906428Y625647D01*
X906384Y625709D01*
X906346Y625738D01*
X906314Y625773D01*
X906248Y625810D01*
X906187Y625856D01*
X906141Y625871D01*
X906100Y625894D01*
X906025Y625908D01*
X905953Y625932D01*
X905905Y625931D01*
X905858Y625940D01*
X905783Y625930D01*
X905707Y625930D01*
X905645Y625912D01*
X905614Y625907D01*
X905591Y625896D01*
X905546Y625883D01*
X900612Y623839D01*
X893388Y623839D01*
X886713Y626604D01*
X881604Y631713D01*
X878839Y638388D01*
X878839Y645612D01*
X881604Y652287D01*
X886713Y657396D01*
X893388Y660161D01*
X893917Y660161D01*
X893944Y660165D01*
X893971Y660163D01*
X894065Y660185D01*
X894160Y660200D01*
X894184Y660213D01*
X894210Y660219D01*
X894292Y660271D01*
X894377Y660316D01*
X894396Y660335D01*
X894419Y660350D01*
X894480Y660424D01*
X894546Y660494D01*
X894558Y660519D01*
X894575Y660540D01*
X894609Y660630D01*
X894650Y660717D01*
X894653Y660744D01*
X894663Y660769D01*
X894666Y660866D01*
X894677Y660961D01*
X894671Y660988D01*
X894672Y661015D01*
X894634Y661178D01*
X891855Y668945D01*
X891842Y668968D01*
X891826Y669014D01*
X875743Y703019D01*
X875728Y703041D01*
X875707Y703085D01*
X871735Y709713D01*
X871662Y709800D01*
X871591Y709888D01*
X871583Y709893D01*
X871576Y709901D01*
X871480Y709959D01*
X871385Y710021D01*
X871374Y710023D01*
X871365Y710029D01*
X871255Y710053D01*
X871146Y710081D01*
X871136Y710080D01*
X871125Y710082D01*
X871013Y710070D01*
X870901Y710061D01*
X870891Y710057D01*
X870881Y710056D01*
X870778Y710009D01*
X870674Y709965D01*
X870665Y709957D01*
X870657Y709954D01*
X870639Y709936D01*
X870544Y709860D01*
X867287Y706604D01*
X860612Y703839D01*
X853388Y703839D01*
X846713Y706604D01*
X841604Y711713D01*
X838839Y718388D01*
X838839Y725612D01*
X841604Y732287D01*
X846713Y737396D01*
X852041Y739603D01*
X852137Y739662D01*
X852234Y739719D01*
X852241Y739727D01*
X852250Y739733D01*
X852322Y739819D01*
X852396Y739904D01*
X852400Y739914D01*
X852407Y739922D01*
X852447Y740027D01*
X852491Y740131D01*
X852491Y740142D01*
X852495Y740152D01*
X852500Y740264D01*
X852508Y740377D01*
X852505Y740387D01*
X852506Y740397D01*
X852474Y740506D01*
X852446Y740615D01*
X852439Y740626D01*
X852437Y740634D01*
X852423Y740654D01*
X852361Y740760D01*
X833919Y765627D01*
X833900Y765645D01*
X833871Y765684D01*
X808609Y793557D01*
X808589Y793573D01*
X808557Y793609D01*
X780684Y818871D01*
X780662Y818886D01*
X780627Y818919D01*
X750412Y841327D01*
X750389Y841339D01*
X750350Y841369D01*
X718085Y860707D01*
X718061Y860717D01*
X718019Y860743D01*
X707247Y865837D01*
X707185Y865855D01*
X707127Y865882D01*
X707068Y865889D01*
X707011Y865905D01*
X706947Y865902D01*
X706883Y865910D01*
X706825Y865897D01*
X706765Y865894D01*
X706705Y865871D01*
X706642Y865857D01*
X706591Y865827D01*
X706536Y865805D01*
X706486Y865764D01*
X706431Y865731D01*
X706393Y865686D01*
X706347Y865648D01*
X706313Y865593D01*
X706271Y865544D01*
X706249Y865489D01*
X706218Y865439D01*
X706203Y865376D01*
X706179Y865316D01*
X706170Y865231D01*
X706162Y865199D01*
X706164Y865180D01*
X706161Y865149D01*
X706161Y863388D01*
X703396Y856713D01*
X698287Y851604D01*
X691612Y848839D01*
X684388Y848839D01*
X677713Y851604D01*
X672604Y856713D01*
X669839Y863388D01*
X669839Y870612D01*
X672604Y877287D01*
X674424Y879107D01*
X674462Y879159D01*
X674507Y879205D01*
X674533Y879259D01*
X674567Y879307D01*
X674586Y879368D01*
X674615Y879426D01*
X674622Y879485D01*
X674640Y879542D01*
X674638Y879606D01*
X674647Y879670D01*
X674635Y879729D01*
X674633Y879788D01*
X674611Y879849D01*
X674599Y879912D01*
X674569Y879963D01*
X674549Y880019D01*
X674509Y880069D01*
X674477Y880125D01*
X674432Y880165D01*
X674395Y880211D01*
X674341Y880246D01*
X674293Y880289D01*
X674216Y880326D01*
X674188Y880344D01*
X674170Y880348D01*
X674142Y880362D01*
X648527Y889527D01*
X648501Y889532D01*
X648456Y889549D01*
X611966Y898689D01*
X611940Y898691D01*
X611893Y898704D01*
X574683Y904223D01*
X574657Y904223D01*
X574609Y904231D01*
X537037Y906076D01*
X537011Y906073D01*
X536963Y906076D01*
X530138Y905741D01*
X530111Y905735D01*
X530084Y905737D01*
X529991Y905710D01*
X529897Y905689D01*
X529874Y905676D01*
X529848Y905668D01*
X529769Y905613D01*
X529686Y905564D01*
X529668Y905543D01*
X529646Y905528D01*
X529588Y905450D01*
X529526Y905377D01*
X529515Y905352D01*
X529499Y905330D01*
X529469Y905239D01*
X529433Y905150D01*
X529431Y905122D01*
X529423Y905096D01*
X529424Y905000D01*
X529418Y904904D01*
X529425Y904878D01*
X529425Y904851D01*
X529472Y904689D01*
X531161Y900612D01*
X531161Y893388D01*
X528396Y886713D01*
X523287Y881604D01*
X516612Y878839D01*
X509388Y878839D01*
X502713Y881604D01*
X497604Y886713D01*
X494839Y893388D01*
X494839Y900612D01*
X495625Y902510D01*
X495649Y902609D01*
X495677Y902707D01*
X495677Y902729D01*
X495682Y902750D01*
X495672Y902851D01*
X495668Y902952D01*
X495661Y902973D01*
X495659Y902995D01*
X495617Y903087D01*
X495581Y903182D01*
X495567Y903199D01*
X495559Y903220D01*
X495490Y903294D01*
X495426Y903373D01*
X495407Y903384D01*
X495392Y903401D01*
X495303Y903450D01*
X495217Y903504D01*
X495196Y903509D01*
X495177Y903519D01*
X495077Y903537D01*
X494978Y903561D01*
X494951Y903560D01*
X494935Y903563D01*
X494902Y903558D01*
X494810Y903555D01*
X476380Y900821D01*
X476316Y900800D01*
X476249Y900789D01*
X476200Y900763D01*
X476146Y900746D01*
X476092Y900706D01*
X476079Y900709D01*
X475963Y900738D01*
X475959Y900738D01*
X475954Y900739D01*
X475787Y900733D01*
X462107Y898704D01*
X462082Y898696D01*
X462034Y898689D01*
X428119Y890194D01*
X428026Y890154D01*
X427931Y890119D01*
X427914Y890105D01*
X427893Y890096D01*
X427818Y890029D01*
X427739Y889965D01*
X427727Y889947D01*
X427710Y889932D01*
X427661Y889844D01*
X427606Y889758D01*
X427600Y889737D01*
X427590Y889718D01*
X427570Y889618D01*
X427546Y889520D01*
X427547Y889498D01*
X427543Y889476D01*
X427557Y889376D01*
X427565Y889275D01*
X427573Y889254D01*
X427576Y889233D01*
X427621Y889142D01*
X427661Y889048D01*
X427678Y889027D01*
X427685Y889012D01*
X427708Y888989D01*
X427766Y888917D01*
X429396Y887287D01*
X432161Y880612D01*
X432161Y873388D01*
X429396Y866713D01*
X424287Y861604D01*
X417612Y858839D01*
X410388Y858839D01*
X403713Y861604D01*
X398604Y866713D01*
X395839Y873388D01*
X395839Y877843D01*
X395835Y877870D01*
X395837Y877897D01*
X395815Y877991D01*
X395800Y878086D01*
X395787Y878110D01*
X395781Y878137D01*
X395729Y878219D01*
X395684Y878304D01*
X395665Y878322D01*
X395650Y878345D01*
X395576Y878407D01*
X395506Y878473D01*
X395481Y878484D01*
X395460Y878502D01*
X395370Y878536D01*
X395283Y878577D01*
X395256Y878580D01*
X395231Y878589D01*
X395134Y878593D01*
X395039Y878604D01*
X395012Y878598D01*
X394985Y878599D01*
X394822Y878560D01*
X390055Y876855D01*
X390032Y876842D01*
X389986Y876826D01*
X355981Y860743D01*
X355959Y860728D01*
X355915Y860707D01*
X323650Y841369D01*
X323629Y841351D01*
X323588Y841327D01*
X293373Y818919D01*
X293355Y818900D01*
X293316Y818871D01*
X269390Y797186D01*
X269350Y797136D01*
X269302Y797092D01*
X269274Y797040D01*
X269237Y796994D01*
X269215Y796933D01*
X269184Y796877D01*
X269173Y796818D01*
X269153Y796763D01*
X269152Y796698D01*
X269140Y796635D01*
X269149Y796576D01*
X269147Y796517D01*
X269167Y796455D01*
X269176Y796391D01*
X269203Y796339D01*
X269220Y796282D01*
X269258Y796230D01*
X269287Y796172D01*
X269330Y796131D01*
X269364Y796083D01*
X269417Y796045D01*
X269463Y796000D01*
X269538Y795959D01*
X269565Y795940D01*
X269582Y795934D01*
X269610Y795919D01*
X273287Y794396D01*
X278396Y789287D01*
X281161Y782612D01*
X281161Y775388D01*
X278396Y768713D01*
X273287Y763604D01*
X266612Y760839D01*
X259388Y760839D01*
X252713Y763604D01*
X247604Y768713D01*
X246580Y771184D01*
X246546Y771239D01*
X246521Y771299D01*
X246482Y771343D01*
X246451Y771393D01*
X246401Y771435D01*
X246358Y771483D01*
X246307Y771512D01*
X246261Y771550D01*
X246201Y771573D01*
X246145Y771606D01*
X246087Y771617D01*
X246032Y771638D01*
X245967Y771641D01*
X245904Y771654D01*
X245845Y771646D01*
X245786Y771649D01*
X245724Y771631D01*
X245660Y771623D01*
X245606Y771597D01*
X245550Y771580D01*
X245497Y771544D01*
X245439Y771515D01*
X245375Y771459D01*
X245348Y771440D01*
X245336Y771425D01*
X245313Y771404D01*
X240129Y765684D01*
X240114Y765662D01*
X240081Y765627D01*
X217673Y735412D01*
X217666Y735399D01*
X217655Y735387D01*
X217648Y735372D01*
X217631Y735350D01*
X198293Y703085D01*
X198283Y703061D01*
X198257Y703019D01*
X182174Y669014D01*
X182167Y668989D01*
X182145Y668945D01*
X169473Y633527D01*
X169468Y633501D01*
X169451Y633456D01*
X160311Y596966D01*
X160309Y596940D01*
X160296Y596893D01*
X155589Y565160D01*
X155590Y565084D01*
X155582Y565009D01*
X155592Y564962D01*
X155593Y564914D01*
X155618Y564842D01*
X155634Y564768D01*
X155659Y564727D01*
X155675Y564682D01*
X155721Y564622D01*
X155760Y564557D01*
X155797Y564526D01*
X155826Y564488D01*
X155890Y564446D01*
X155947Y564397D01*
X155992Y564379D01*
X156032Y564353D01*
X156105Y564334D01*
X156175Y564305D01*
X156240Y564298D01*
X156270Y564290D01*
X156295Y564292D01*
X156342Y564287D01*
X242467Y564287D01*
X242557Y564301D01*
X242648Y564309D01*
X242677Y564321D01*
X242709Y564326D01*
X242790Y564369D01*
X242874Y564405D01*
X242906Y564431D01*
X242927Y564442D01*
X242949Y564465D01*
X243005Y564510D01*
X243802Y565307D01*
X248198Y565307D01*
X248995Y564510D01*
X249069Y564457D01*
X249139Y564397D01*
X249169Y564385D01*
X249195Y564366D01*
X249282Y564339D01*
X249367Y564305D01*
X249408Y564301D01*
X249430Y564294D01*
X249462Y564295D01*
X249533Y564287D01*
X275947Y564287D01*
X297287Y542947D01*
X297287Y517053D01*
X290947Y510713D01*
X220263Y510713D01*
X220173Y510699D01*
X220082Y510691D01*
X220052Y510679D01*
X220020Y510674D01*
X219939Y510631D01*
X219855Y510595D01*
X219823Y510569D01*
X219802Y510558D01*
X219780Y510535D01*
X219724Y510490D01*
X218820Y509586D01*
X218778Y509528D01*
X218729Y509476D01*
X218707Y509429D01*
X218677Y509387D01*
X218656Y509318D01*
X218625Y509253D01*
X218620Y509201D01*
X218604Y509151D01*
X218606Y509080D01*
X218598Y509009D01*
X218609Y508958D01*
X218611Y508906D01*
X218635Y508838D01*
X218650Y508768D01*
X218677Y508723D01*
X218695Y508675D01*
X218740Y508619D01*
X218777Y508557D01*
X218816Y508523D01*
X218849Y508483D01*
X218909Y508444D01*
X218964Y508397D01*
X219012Y508378D01*
X219056Y508350D01*
X219125Y508332D01*
X219192Y508305D01*
X219263Y508297D01*
X219294Y508289D01*
X219318Y508291D01*
X219358Y508287D01*
X288947Y508287D01*
X304287Y492947D01*
X304287Y410263D01*
X304301Y410172D01*
X304309Y410082D01*
X304321Y410052D01*
X304326Y410020D01*
X304369Y409939D01*
X304405Y409855D01*
X304431Y409823D01*
X304442Y409802D01*
X304465Y409780D01*
X304510Y409724D01*
X358287Y355947D01*
X358287Y281053D01*
X353510Y276276D01*
X353265Y276031D01*
X353230Y275983D01*
X353188Y275941D01*
X353159Y275884D01*
X353122Y275832D01*
X353104Y275774D01*
X353077Y275721D01*
X353068Y275658D01*
X353049Y275597D01*
X353051Y275537D01*
X353042Y275477D01*
X353054Y275415D01*
X353056Y275351D01*
X353076Y275294D01*
X353087Y275236D01*
X353118Y275180D01*
X353140Y275120D01*
X353178Y275073D01*
X353207Y275021D01*
X353254Y274978D01*
X353294Y274928D01*
X353344Y274895D01*
X353389Y274855D01*
X353447Y274829D01*
X353501Y274795D01*
X353559Y274780D01*
X353614Y274756D01*
X353708Y274742D01*
X353739Y274735D01*
X353755Y274736D01*
X353780Y274732D01*
X431997Y272288D01*
X432012Y272290D01*
X432035Y272288D01*
X432973Y272304D01*
X433616Y271620D01*
X433627Y271611D01*
X433642Y271593D01*
X461703Y244500D01*
X461772Y244452D01*
X461836Y244397D01*
X461837Y244397D01*
X462598Y243636D01*
X462602Y243633D01*
X462607Y243627D01*
X463287Y242971D01*
X463287Y242027D01*
X463288Y242022D01*
X463287Y242014D01*
X463306Y240937D01*
X463305Y240935D01*
X463300Y240885D01*
X463292Y240859D01*
X463293Y240829D01*
X463287Y240769D01*
X463287Y145778D01*
X463301Y145692D01*
X463307Y145605D01*
X463321Y145571D01*
X463326Y145535D01*
X463367Y145458D01*
X463400Y145378D01*
X463425Y145350D01*
X463442Y145318D01*
X463505Y145258D01*
X463562Y145192D01*
X463593Y145174D01*
X463620Y145148D01*
X463699Y145112D01*
X463774Y145068D01*
X463820Y145056D01*
X463843Y145045D01*
X463874Y145041D01*
X463936Y145025D01*
X499317Y139777D01*
X499343Y139777D01*
X499391Y139769D01*
X536963Y137924D01*
X536989Y137927D01*
X537037Y137924D01*
X574609Y139769D01*
G37*
%LPC*%
G36*
X511827Y363061D02*
X511827Y363061D01*
X487273Y368956D01*
X463944Y378619D01*
X463112Y379129D01*
X461870Y379890D01*
X454416Y384457D01*
X453174Y385219D01*
X451932Y385980D01*
X450690Y386741D01*
X450689Y386741D01*
X449447Y387502D01*
X442413Y391813D01*
X423212Y408212D01*
X406813Y427413D01*
X393619Y448943D01*
X383956Y472273D01*
X378061Y496826D01*
X376080Y522000D01*
X378061Y547174D01*
X383956Y571727D01*
X393619Y595057D01*
X406813Y616587D01*
X423212Y635788D01*
X442413Y652187D01*
X463943Y665381D01*
X487273Y675044D01*
X511826Y680939D01*
X536814Y682906D01*
X536854Y682916D01*
X536896Y682917D01*
X536973Y682945D01*
X537053Y682964D01*
X537088Y682987D01*
X537127Y683001D01*
X537191Y683052D01*
X537260Y683096D01*
X537287Y683129D01*
X537319Y683155D01*
X537364Y683224D01*
X537415Y683287D01*
X537430Y683327D01*
X537452Y683362D01*
X537472Y683441D01*
X537501Y683518D01*
X537502Y683560D01*
X537513Y683600D01*
X537506Y683682D01*
X537509Y683764D01*
X537497Y683804D01*
X537493Y683846D01*
X537461Y683921D01*
X537438Y683999D01*
X537414Y684033D01*
X537397Y684072D01*
X537300Y684193D01*
X537295Y684200D01*
X537294Y684201D01*
X537292Y684203D01*
X536693Y684802D01*
X536693Y689198D01*
X539802Y692307D01*
X544198Y692307D01*
X547307Y689198D01*
X547307Y684802D01*
X545978Y683473D01*
X545954Y683439D01*
X545922Y683411D01*
X545882Y683340D01*
X545835Y683274D01*
X545822Y683234D01*
X545802Y683197D01*
X545786Y683117D01*
X545762Y683038D01*
X545763Y682996D01*
X545755Y682955D01*
X545766Y682874D01*
X545769Y682793D01*
X545783Y682753D01*
X545789Y682712D01*
X545825Y682639D01*
X545853Y682562D01*
X545879Y682529D01*
X545898Y682491D01*
X545956Y682433D01*
X546007Y682370D01*
X546042Y682347D01*
X546072Y682317D01*
X546145Y682281D01*
X546214Y682237D01*
X546254Y682226D01*
X546292Y682208D01*
X546444Y682178D01*
X546452Y682176D01*
X546454Y682177D01*
X546457Y682176D01*
X562174Y680939D01*
X586727Y675044D01*
X610057Y665381D01*
X610975Y664818D01*
X612217Y664057D01*
X613459Y663296D01*
X613460Y663296D01*
X618428Y660251D01*
X618429Y660251D01*
X619671Y659489D01*
X620913Y658728D01*
X622155Y657967D01*
X627124Y654922D01*
X628366Y654161D01*
X628367Y654161D01*
X629609Y653399D01*
X631587Y652187D01*
X650788Y635788D01*
X667187Y616587D01*
X680381Y595057D01*
X690044Y571727D01*
X695939Y547174D01*
X697920Y522000D01*
X695939Y496826D01*
X690044Y472273D01*
X682512Y454088D01*
X682504Y454053D01*
X682501Y454046D01*
X682499Y454034D01*
X682490Y453993D01*
X682461Y453900D01*
X682462Y453874D01*
X682456Y453848D01*
X682465Y453752D01*
X682467Y453654D01*
X682476Y453630D01*
X682479Y453604D01*
X682518Y453515D01*
X682552Y453423D01*
X682568Y453403D01*
X682579Y453379D01*
X682645Y453307D01*
X682706Y453231D01*
X682728Y453217D01*
X682745Y453198D01*
X682831Y453151D01*
X682913Y453098D01*
X682938Y453092D01*
X682961Y453079D01*
X683057Y453062D01*
X683151Y453038D01*
X683177Y453040D01*
X683203Y453035D01*
X683299Y453050D01*
X683396Y453057D01*
X683420Y453067D01*
X683446Y453071D01*
X683533Y453115D01*
X683623Y453154D01*
X683648Y453174D01*
X683665Y453183D01*
X683689Y453206D01*
X683754Y453258D01*
X683802Y453307D01*
X688198Y453307D01*
X691307Y450198D01*
X691307Y445802D01*
X688198Y442693D01*
X683802Y442693D01*
X680693Y445802D01*
X680693Y446754D01*
X680687Y446791D01*
X680690Y446829D01*
X680667Y446912D01*
X680654Y446997D01*
X680636Y447030D01*
X680626Y447067D01*
X680578Y447138D01*
X680538Y447214D01*
X680511Y447240D01*
X680490Y447272D01*
X680422Y447324D01*
X680360Y447383D01*
X680326Y447399D01*
X680296Y447423D01*
X680215Y447451D01*
X680137Y447487D01*
X680099Y447491D01*
X680063Y447504D01*
X679978Y447505D01*
X679893Y447514D01*
X679855Y447506D01*
X679817Y447506D01*
X679736Y447480D01*
X679652Y447462D01*
X679620Y447442D01*
X679583Y447431D01*
X679514Y447380D01*
X679441Y447336D01*
X679416Y447307D01*
X679386Y447284D01*
X679283Y447152D01*
X679281Y447149D01*
X667187Y427413D01*
X650788Y408212D01*
X631587Y391813D01*
X610057Y378619D01*
X586727Y368956D01*
X562173Y363061D01*
X537000Y361080D01*
X511827Y363061D01*
G37*
%LPD*%
G36*
X461050Y145597D02*
X461050Y145597D01*
X461060Y145596D01*
X461170Y145623D01*
X461280Y145647D01*
X461289Y145652D01*
X461299Y145655D01*
X461394Y145715D01*
X461491Y145773D01*
X461498Y145781D01*
X461507Y145786D01*
X461578Y145874D01*
X461651Y145960D01*
X461655Y145969D01*
X461661Y145978D01*
X461700Y146083D01*
X461743Y146188D01*
X461744Y146200D01*
X461747Y146208D01*
X461748Y146233D01*
X461761Y146355D01*
X461761Y242000D01*
X461745Y242097D01*
X461736Y242194D01*
X461726Y242217D01*
X461722Y242243D01*
X461676Y242329D01*
X461636Y242419D01*
X461615Y242443D01*
X461606Y242460D01*
X461583Y242483D01*
X461529Y242548D01*
X455597Y248275D01*
X455543Y248312D01*
X455496Y248357D01*
X455443Y248382D01*
X455395Y248415D01*
X455332Y248433D01*
X455273Y248461D01*
X455215Y248467D01*
X455158Y248483D01*
X455093Y248481D01*
X455029Y248488D01*
X454971Y248475D01*
X454912Y248473D01*
X454852Y248449D01*
X454788Y248435D01*
X454738Y248405D01*
X454683Y248384D01*
X454633Y248343D01*
X454577Y248309D01*
X454539Y248265D01*
X454494Y248227D01*
X454460Y248172D01*
X454417Y248122D01*
X454395Y248068D01*
X454364Y248018D01*
X454350Y247955D01*
X454325Y247894D01*
X454316Y247810D01*
X454308Y247778D01*
X454310Y247759D01*
X454307Y247727D01*
X454307Y243802D01*
X451198Y240693D01*
X446802Y240693D01*
X445606Y241889D01*
X445548Y241931D01*
X445496Y241980D01*
X445449Y242002D01*
X445407Y242032D01*
X445338Y242054D01*
X445273Y242084D01*
X445221Y242089D01*
X445171Y242105D01*
X445100Y242103D01*
X445029Y242111D01*
X444978Y242100D01*
X444926Y242098D01*
X444858Y242074D01*
X444788Y242059D01*
X444743Y242032D01*
X444695Y242014D01*
X444639Y241969D01*
X444577Y241932D01*
X444543Y241893D01*
X444503Y241860D01*
X444464Y241800D01*
X444417Y241745D01*
X444398Y241697D01*
X444370Y241653D01*
X444352Y241584D01*
X444325Y241517D01*
X444317Y241446D01*
X444309Y241415D01*
X444311Y241392D01*
X444307Y241351D01*
X444307Y237802D01*
X441198Y234693D01*
X436802Y234693D01*
X433693Y237802D01*
X433693Y242198D01*
X436802Y245307D01*
X441198Y245307D01*
X442394Y244111D01*
X442452Y244069D01*
X442504Y244020D01*
X442551Y243998D01*
X442593Y243968D01*
X442662Y243946D01*
X442727Y243916D01*
X442779Y243911D01*
X442829Y243895D01*
X442900Y243897D01*
X442971Y243889D01*
X443022Y243900D01*
X443074Y243902D01*
X443142Y243926D01*
X443212Y243941D01*
X443257Y243968D01*
X443305Y243986D01*
X443361Y244031D01*
X443423Y244068D01*
X443457Y244107D01*
X443497Y244140D01*
X443536Y244200D01*
X443583Y244255D01*
X443602Y244303D01*
X443630Y244347D01*
X443648Y244416D01*
X443675Y244483D01*
X443683Y244554D01*
X443691Y244585D01*
X443689Y244608D01*
X443693Y244649D01*
X443693Y248198D01*
X446802Y251307D01*
X450572Y251307D01*
X450650Y251319D01*
X450728Y251323D01*
X450770Y251339D01*
X450815Y251346D01*
X450884Y251383D01*
X450957Y251411D01*
X450993Y251440D01*
X451033Y251462D01*
X451086Y251518D01*
X451147Y251568D01*
X451171Y251607D01*
X451202Y251640D01*
X451235Y251711D01*
X451276Y251778D01*
X451286Y251822D01*
X451306Y251863D01*
X451314Y251941D01*
X451332Y252017D01*
X451328Y252062D01*
X451333Y252107D01*
X451316Y252184D01*
X451309Y252262D01*
X451290Y252303D01*
X451280Y252348D01*
X451240Y252415D01*
X451208Y252487D01*
X451170Y252533D01*
X451154Y252559D01*
X451134Y252577D01*
X451101Y252616D01*
X432529Y270548D01*
X432469Y270589D01*
X432415Y270638D01*
X432368Y270659D01*
X432327Y270688D01*
X432257Y270708D01*
X432190Y270737D01*
X432121Y270747D01*
X432090Y270756D01*
X432066Y270755D01*
X432024Y270761D01*
X336191Y273756D01*
X330451Y276626D01*
X280329Y326748D01*
X280313Y326759D01*
X280300Y326775D01*
X280213Y326831D01*
X280129Y326891D01*
X280110Y326897D01*
X280093Y326908D01*
X279993Y326933D01*
X279894Y326963D01*
X279874Y326963D01*
X279855Y326968D01*
X279752Y326960D01*
X279648Y326957D01*
X279630Y326950D01*
X279610Y326949D01*
X279514Y326908D01*
X279417Y326873D01*
X279402Y326860D01*
X279383Y326852D01*
X279252Y326748D01*
X279198Y326693D01*
X274802Y326693D01*
X271693Y329802D01*
X271693Y334198D01*
X271748Y334252D01*
X271759Y334269D01*
X271775Y334281D01*
X271831Y334368D01*
X271891Y334452D01*
X271897Y334471D01*
X271908Y334488D01*
X271933Y334588D01*
X271963Y334687D01*
X271963Y334707D01*
X271968Y334726D01*
X271960Y334829D01*
X271957Y334933D01*
X271950Y334952D01*
X271949Y334972D01*
X271908Y335067D01*
X271873Y335164D01*
X271860Y335180D01*
X271852Y335198D01*
X271748Y335329D01*
X259626Y347451D01*
X255761Y355180D01*
X255761Y366000D01*
X255747Y366090D01*
X255739Y366181D01*
X255727Y366211D01*
X255722Y366243D01*
X255679Y366323D01*
X255643Y366407D01*
X255617Y366439D01*
X255606Y366460D01*
X255583Y366482D01*
X255538Y366538D01*
X242577Y379500D01*
X243538Y380462D01*
X243591Y380536D01*
X243651Y380605D01*
X243663Y380635D01*
X243682Y380661D01*
X243709Y380748D01*
X243743Y380833D01*
X243747Y380874D01*
X243754Y380897D01*
X243753Y380929D01*
X243761Y381000D01*
X243761Y388000D01*
X243747Y388090D01*
X243739Y388181D01*
X243727Y388211D01*
X243722Y388243D01*
X243679Y388323D01*
X243643Y388407D01*
X243617Y388439D01*
X243606Y388460D01*
X243583Y388482D01*
X243538Y388538D01*
X235761Y396315D01*
X235761Y420685D01*
X236538Y421462D01*
X236591Y421536D01*
X236651Y421605D01*
X236663Y421635D01*
X236682Y421661D01*
X236709Y421748D01*
X236743Y421833D01*
X236747Y421874D01*
X236754Y421897D01*
X236753Y421929D01*
X236761Y422000D01*
X236761Y423000D01*
X236747Y423090D01*
X236739Y423181D01*
X236727Y423211D01*
X236722Y423243D01*
X236679Y423323D01*
X236643Y423407D01*
X236617Y423439D01*
X236606Y423460D01*
X236583Y423482D01*
X236538Y423538D01*
X221761Y438315D01*
X221761Y460000D01*
X221759Y460015D01*
X221760Y460029D01*
X221746Y460093D01*
X221739Y460181D01*
X221727Y460211D01*
X221722Y460243D01*
X221708Y460268D01*
X221708Y460269D01*
X221703Y460278D01*
X221679Y460323D01*
X221643Y460407D01*
X221617Y460439D01*
X221606Y460460D01*
X221583Y460482D01*
X221538Y460538D01*
X210761Y471315D01*
X210761Y503685D01*
X219315Y512239D01*
X290000Y512239D01*
X290090Y512254D01*
X290181Y512261D01*
X290211Y512273D01*
X290243Y512279D01*
X290323Y512321D01*
X290407Y512357D01*
X290439Y512383D01*
X290460Y512394D01*
X290482Y512417D01*
X290538Y512462D01*
X295538Y517462D01*
X295591Y517536D01*
X295651Y517605D01*
X295663Y517635D01*
X295682Y517661D01*
X295709Y517748D01*
X295743Y517833D01*
X295747Y517874D01*
X295754Y517897D01*
X295753Y517929D01*
X295761Y518000D01*
X295761Y542000D01*
X295747Y542090D01*
X295739Y542181D01*
X295727Y542211D01*
X295722Y542243D01*
X295679Y542323D01*
X295643Y542407D01*
X295617Y542439D01*
X295606Y542460D01*
X295583Y542482D01*
X295538Y542538D01*
X275538Y562538D01*
X275464Y562591D01*
X275395Y562651D01*
X275365Y562663D01*
X275339Y562682D01*
X275252Y562709D01*
X275167Y562743D01*
X275126Y562747D01*
X275103Y562754D01*
X275071Y562753D01*
X275000Y562761D01*
X252068Y562761D01*
X252048Y562758D01*
X252029Y562760D01*
X251927Y562738D01*
X251825Y562722D01*
X251808Y562712D01*
X251788Y562708D01*
X251699Y562655D01*
X251608Y562606D01*
X251594Y562592D01*
X251577Y562582D01*
X251510Y562503D01*
X251438Y562428D01*
X251430Y562410D01*
X251417Y562395D01*
X251378Y562299D01*
X251335Y562205D01*
X251333Y562185D01*
X251325Y562167D01*
X251307Y562000D01*
X251307Y557802D01*
X248198Y554693D01*
X243802Y554693D01*
X240693Y557802D01*
X240693Y562000D01*
X240690Y562019D01*
X240692Y562037D01*
X240692Y562038D01*
X240692Y562039D01*
X240670Y562141D01*
X240654Y562243D01*
X240644Y562260D01*
X240640Y562280D01*
X240587Y562369D01*
X240538Y562460D01*
X240524Y562474D01*
X240514Y562491D01*
X240435Y562558D01*
X240360Y562630D01*
X240342Y562638D01*
X240327Y562651D01*
X240231Y562690D01*
X240137Y562733D01*
X240117Y562735D01*
X240099Y562743D01*
X239932Y562761D01*
X155890Y562761D01*
X155804Y562747D01*
X155717Y562741D01*
X155683Y562727D01*
X155647Y562722D01*
X155570Y562681D01*
X155490Y562648D01*
X155462Y562623D01*
X155430Y562606D01*
X155370Y562543D01*
X155304Y562486D01*
X155286Y562455D01*
X155260Y562428D01*
X155224Y562349D01*
X155180Y562274D01*
X155168Y562228D01*
X155157Y562205D01*
X155157Y562202D01*
X155156Y562202D01*
X155153Y562173D01*
X155137Y562112D01*
X154777Y559683D01*
X154777Y559657D01*
X154769Y559609D01*
X152924Y522037D01*
X152927Y522011D01*
X152924Y521963D01*
X154769Y484391D01*
X154775Y484365D01*
X154777Y484317D01*
X160296Y447107D01*
X160304Y447082D01*
X160311Y447034D01*
X169451Y410544D01*
X169461Y410520D01*
X169473Y410473D01*
X182145Y375055D01*
X182158Y375032D01*
X182174Y374986D01*
X198257Y340981D01*
X198272Y340959D01*
X198293Y340915D01*
X217631Y308650D01*
X217649Y308630D01*
X217673Y308588D01*
X240081Y278373D01*
X240100Y278355D01*
X240123Y278324D01*
X240124Y278321D01*
X240125Y278320D01*
X240129Y278316D01*
X265391Y250443D01*
X265411Y250427D01*
X265443Y250391D01*
X293316Y225129D01*
X293338Y225114D01*
X293373Y225081D01*
X323588Y202673D01*
X323611Y202661D01*
X323650Y202631D01*
X355915Y183293D01*
X355939Y183283D01*
X355981Y183257D01*
X389986Y167174D01*
X390011Y167167D01*
X390055Y167145D01*
X425473Y154473D01*
X425499Y154468D01*
X425544Y154451D01*
X460815Y145616D01*
X460928Y145607D01*
X461039Y145594D01*
X461050Y145597D01*
G37*
G36*
X351090Y276254D02*
X351090Y276254D01*
X351181Y276261D01*
X351211Y276273D01*
X351243Y276279D01*
X351323Y276321D01*
X351407Y276357D01*
X351439Y276383D01*
X351460Y276394D01*
X351482Y276417D01*
X351538Y276462D01*
X356538Y281462D01*
X356591Y281536D01*
X356651Y281605D01*
X356663Y281635D01*
X356682Y281661D01*
X356709Y281748D01*
X356743Y281833D01*
X356747Y281874D01*
X356754Y281897D01*
X356753Y281929D01*
X356761Y282000D01*
X356761Y355000D01*
X356747Y355090D01*
X356739Y355181D01*
X356727Y355211D01*
X356722Y355243D01*
X356679Y355323D01*
X356643Y355407D01*
X356617Y355439D01*
X356606Y355460D01*
X356583Y355482D01*
X356538Y355538D01*
X302761Y409315D01*
X302761Y492000D01*
X302747Y492090D01*
X302739Y492181D01*
X302727Y492211D01*
X302722Y492243D01*
X302679Y492323D01*
X302643Y492407D01*
X302617Y492439D01*
X302606Y492460D01*
X302583Y492482D01*
X302538Y492538D01*
X288538Y506538D01*
X288464Y506591D01*
X288395Y506651D01*
X288365Y506663D01*
X288339Y506682D01*
X288252Y506709D01*
X288167Y506743D01*
X288126Y506747D01*
X288103Y506754D01*
X288071Y506753D01*
X288000Y506761D01*
X220000Y506761D01*
X219910Y506747D01*
X219819Y506739D01*
X219789Y506727D01*
X219757Y506722D01*
X219677Y506679D01*
X219593Y506643D01*
X219561Y506617D01*
X219540Y506606D01*
X219518Y506583D01*
X219462Y506538D01*
X215462Y502538D01*
X215409Y502464D01*
X215349Y502395D01*
X215337Y502365D01*
X215318Y502339D01*
X215291Y502252D01*
X215257Y502167D01*
X215253Y502126D01*
X215246Y502103D01*
X215247Y502071D01*
X215239Y502000D01*
X215239Y474000D01*
X215254Y473910D01*
X215261Y473819D01*
X215273Y473789D01*
X215279Y473757D01*
X215321Y473677D01*
X215357Y473593D01*
X215383Y473561D01*
X215394Y473540D01*
X215417Y473518D01*
X215462Y473462D01*
X226239Y462685D01*
X226239Y441000D01*
X226254Y440910D01*
X226261Y440819D01*
X226273Y440789D01*
X226279Y440757D01*
X226321Y440677D01*
X226357Y440593D01*
X226383Y440561D01*
X226394Y440540D01*
X226417Y440518D01*
X226462Y440462D01*
X240239Y426685D01*
X240239Y397000D01*
X240254Y396910D01*
X240261Y396819D01*
X240273Y396789D01*
X240279Y396757D01*
X240321Y396677D01*
X240357Y396593D01*
X240383Y396561D01*
X240394Y396540D01*
X240417Y396518D01*
X240462Y396462D01*
X247239Y389685D01*
X247239Y382000D01*
X247254Y381910D01*
X247261Y381819D01*
X247273Y381789D01*
X247279Y381757D01*
X247321Y381677D01*
X247357Y381593D01*
X247383Y381561D01*
X247394Y381540D01*
X247417Y381518D01*
X247462Y381462D01*
X261239Y367685D01*
X261239Y350000D01*
X261254Y349910D01*
X261261Y349819D01*
X261273Y349789D01*
X261279Y349757D01*
X261321Y349677D01*
X261357Y349593D01*
X261383Y349561D01*
X261394Y349540D01*
X261417Y349518D01*
X261462Y349462D01*
X273671Y337252D01*
X273687Y337241D01*
X273700Y337225D01*
X273787Y337169D01*
X273871Y337109D01*
X273890Y337103D01*
X273907Y337092D01*
X274007Y337067D01*
X274106Y337037D01*
X274126Y337037D01*
X274145Y337032D01*
X274248Y337040D01*
X274352Y337043D01*
X274370Y337050D01*
X274390Y337051D01*
X274485Y337092D01*
X274583Y337127D01*
X274598Y337140D01*
X274617Y337148D01*
X274748Y337252D01*
X274802Y337307D01*
X279198Y337307D01*
X282307Y334198D01*
X282307Y329802D01*
X282252Y329748D01*
X282241Y329731D01*
X282225Y329719D01*
X282169Y329632D01*
X282109Y329548D01*
X282103Y329529D01*
X282092Y329512D01*
X282067Y329412D01*
X282037Y329313D01*
X282037Y329293D01*
X282032Y329274D01*
X282040Y329171D01*
X282043Y329067D01*
X282050Y329048D01*
X282051Y329028D01*
X282092Y328933D01*
X282127Y328836D01*
X282140Y328820D01*
X282148Y328802D01*
X282252Y328671D01*
X334462Y276462D01*
X334536Y276409D01*
X334605Y276349D01*
X334635Y276337D01*
X334661Y276318D01*
X334748Y276291D01*
X334833Y276257D01*
X334874Y276253D01*
X334897Y276246D01*
X334929Y276247D01*
X335000Y276239D01*
X351000Y276239D01*
X351090Y276254D01*
G37*
%LPC*%
G36*
X808802Y568693D02*
X808802Y568693D01*
X805693Y571802D01*
X805693Y576198D01*
X808802Y579307D01*
X812039Y579307D01*
X812129Y579321D01*
X812220Y579329D01*
X812250Y579341D01*
X812282Y579346D01*
X812362Y579389D01*
X812446Y579425D01*
X812478Y579451D01*
X812499Y579462D01*
X812521Y579485D01*
X812577Y579530D01*
X817982Y584935D01*
X818035Y585009D01*
X818095Y585078D01*
X818107Y585108D01*
X818126Y585134D01*
X818153Y585221D01*
X818187Y585306D01*
X818191Y585347D01*
X818198Y585369D01*
X818197Y585402D01*
X818205Y585473D01*
X818205Y615527D01*
X818191Y615617D01*
X818183Y615708D01*
X818171Y615738D01*
X818166Y615770D01*
X818123Y615851D01*
X818087Y615934D01*
X818061Y615967D01*
X818050Y615987D01*
X818027Y616009D01*
X817982Y616065D01*
X756065Y677982D01*
X755991Y678035D01*
X755922Y678095D01*
X755892Y678107D01*
X755866Y678126D01*
X755779Y678153D01*
X755694Y678187D01*
X755653Y678191D01*
X755631Y678198D01*
X755598Y678197D01*
X755527Y678205D01*
X747842Y678205D01*
X745982Y680065D01*
X734205Y691842D01*
X734205Y700527D01*
X734191Y700617D01*
X734183Y700708D01*
X734171Y700738D01*
X734166Y700770D01*
X734123Y700850D01*
X734087Y700934D01*
X734061Y700966D01*
X734050Y700987D01*
X734027Y701009D01*
X733982Y701065D01*
X714094Y720953D01*
X714036Y720995D01*
X713984Y721045D01*
X713937Y721067D01*
X713895Y721097D01*
X713826Y721118D01*
X713761Y721148D01*
X713709Y721154D01*
X713659Y721169D01*
X713588Y721167D01*
X713517Y721175D01*
X713466Y721164D01*
X713414Y721163D01*
X713346Y721138D01*
X713276Y721123D01*
X713231Y721096D01*
X713183Y721078D01*
X713127Y721034D01*
X713065Y720997D01*
X713031Y720957D01*
X712991Y720925D01*
X712952Y720864D01*
X712905Y720810D01*
X712886Y720762D01*
X712858Y720718D01*
X712840Y720648D01*
X712813Y720582D01*
X712805Y720510D01*
X712797Y720479D01*
X712799Y720456D01*
X712795Y720415D01*
X712795Y711025D01*
X712809Y710935D01*
X712817Y710844D01*
X712829Y710815D01*
X712834Y710783D01*
X712877Y710702D01*
X712913Y710618D01*
X712939Y710586D01*
X712950Y710565D01*
X712973Y710543D01*
X713018Y710487D01*
X715307Y708198D01*
X715307Y705049D01*
X715310Y705032D01*
X715308Y705015D01*
X715319Y704964D01*
X715320Y704907D01*
X715338Y704858D01*
X715346Y704807D01*
X715357Y704786D01*
X715360Y704774D01*
X715382Y704737D01*
X715405Y704676D01*
X715437Y704635D01*
X715462Y704589D01*
X715482Y704570D01*
X715486Y704563D01*
X715514Y704539D01*
X715558Y704484D01*
X715602Y704456D01*
X715640Y704420D01*
X715670Y704406D01*
X715673Y704403D01*
X715695Y704394D01*
X715705Y704390D01*
X715765Y704351D01*
X715816Y704338D01*
X715863Y704316D01*
X715898Y704312D01*
X715901Y704311D01*
X715940Y704307D01*
X716004Y704291D01*
X716051Y704295D01*
X716068Y704293D01*
X716073Y704293D01*
X716074Y704293D01*
X716107Y704289D01*
X716178Y704304D01*
X716249Y704310D01*
X716293Y704329D01*
X716315Y704332D01*
X716321Y704336D01*
X716348Y704341D01*
X716409Y704378D01*
X716475Y704406D01*
X716515Y704438D01*
X716533Y704448D01*
X716542Y704458D01*
X716559Y704468D01*
X716574Y704485D01*
X716606Y704511D01*
X718902Y706807D01*
X723298Y706807D01*
X726407Y703698D01*
X726407Y699302D01*
X723298Y696193D01*
X718902Y696193D01*
X715793Y699302D01*
X715793Y702451D01*
X715782Y702521D01*
X715780Y702593D01*
X715762Y702642D01*
X715754Y702693D01*
X715720Y702757D01*
X715695Y702824D01*
X715663Y702865D01*
X715638Y702911D01*
X715586Y702960D01*
X715542Y703016D01*
X715498Y703044D01*
X715460Y703080D01*
X715395Y703110D01*
X715335Y703149D01*
X715284Y703162D01*
X715237Y703184D01*
X715166Y703192D01*
X715096Y703209D01*
X715044Y703205D01*
X714993Y703211D01*
X714922Y703196D01*
X714851Y703190D01*
X714803Y703170D01*
X714752Y703159D01*
X714691Y703122D01*
X714625Y703094D01*
X714569Y703049D01*
X714541Y703032D01*
X714526Y703015D01*
X714494Y702989D01*
X712198Y700693D01*
X707802Y700693D01*
X704693Y703802D01*
X704693Y708198D01*
X706982Y710487D01*
X707035Y710561D01*
X707095Y710631D01*
X707107Y710661D01*
X707126Y710687D01*
X707153Y710774D01*
X707187Y710859D01*
X707191Y710900D01*
X707198Y710922D01*
X707197Y710954D01*
X707205Y711025D01*
X707205Y727527D01*
X707191Y727617D01*
X707183Y727708D01*
X707171Y727738D01*
X707166Y727770D01*
X707123Y727851D01*
X707087Y727934D01*
X707061Y727967D01*
X707050Y727987D01*
X707027Y728009D01*
X706982Y728065D01*
X697065Y737982D01*
X696991Y738035D01*
X696922Y738095D01*
X696892Y738107D01*
X696866Y738126D01*
X696779Y738153D01*
X696694Y738187D01*
X696653Y738191D01*
X696631Y738198D01*
X696598Y738197D01*
X696527Y738205D01*
X676842Y738205D01*
X666205Y748842D01*
X666205Y774863D01*
X666194Y774933D01*
X666192Y775005D01*
X666174Y775054D01*
X666166Y775105D01*
X666132Y775169D01*
X666107Y775236D01*
X666075Y775277D01*
X666050Y775323D01*
X665998Y775372D01*
X665954Y775428D01*
X665910Y775456D01*
X665872Y775492D01*
X665807Y775522D01*
X665747Y775561D01*
X665696Y775574D01*
X665649Y775596D01*
X665578Y775604D01*
X665508Y775621D01*
X665456Y775617D01*
X665405Y775623D01*
X665334Y775608D01*
X665263Y775602D01*
X665215Y775582D01*
X665164Y775571D01*
X665103Y775534D01*
X665037Y775506D01*
X664981Y775461D01*
X664953Y775444D01*
X664938Y775427D01*
X664906Y775401D01*
X663198Y773693D01*
X658802Y773693D01*
X655693Y776802D01*
X655693Y781198D01*
X658802Y784307D01*
X663198Y784307D01*
X664906Y782599D01*
X664964Y782557D01*
X665016Y782508D01*
X665063Y782486D01*
X665105Y782456D01*
X665174Y782434D01*
X665239Y782404D01*
X665291Y782399D01*
X665341Y782383D01*
X665412Y782385D01*
X665483Y782377D01*
X665534Y782388D01*
X665586Y782390D01*
X665654Y782414D01*
X665724Y782429D01*
X665769Y782456D01*
X665817Y782474D01*
X665873Y782519D01*
X665935Y782556D01*
X665969Y782595D01*
X666009Y782628D01*
X666048Y782688D01*
X666095Y782743D01*
X666114Y782791D01*
X666142Y782835D01*
X666160Y782904D01*
X666187Y782971D01*
X666195Y783042D01*
X666203Y783073D01*
X666201Y783096D01*
X666205Y783137D01*
X666205Y784527D01*
X666191Y784617D01*
X666183Y784708D01*
X666171Y784738D01*
X666166Y784770D01*
X666123Y784850D01*
X666087Y784934D01*
X666061Y784966D01*
X666050Y784987D01*
X666027Y785009D01*
X665982Y785065D01*
X662065Y788982D01*
X661991Y789035D01*
X661922Y789095D01*
X661892Y789107D01*
X661866Y789126D01*
X661779Y789153D01*
X661694Y789187D01*
X661653Y789191D01*
X661631Y789198D01*
X661598Y789197D01*
X661527Y789205D01*
X660068Y789205D01*
X660048Y789202D01*
X660029Y789204D01*
X659927Y789182D01*
X659825Y789166D01*
X659808Y789156D01*
X659788Y789152D01*
X659699Y789099D01*
X659608Y789050D01*
X659594Y789036D01*
X659577Y789026D01*
X659510Y788947D01*
X659438Y788872D01*
X659430Y788854D01*
X659417Y788839D01*
X659378Y788743D01*
X659335Y788649D01*
X659333Y788629D01*
X659325Y788611D01*
X659307Y788444D01*
X659307Y787802D01*
X656198Y784693D01*
X651802Y784693D01*
X648693Y787802D01*
X648693Y792198D01*
X651802Y795307D01*
X656198Y795307D01*
X656487Y795018D01*
X656561Y794965D01*
X656631Y794905D01*
X656661Y794893D01*
X656687Y794874D01*
X656774Y794847D01*
X656859Y794813D01*
X656900Y794809D01*
X656922Y794802D01*
X656954Y794803D01*
X657025Y794795D01*
X664158Y794795D01*
X671795Y787158D01*
X671795Y751473D01*
X671797Y751460D01*
X671796Y751451D01*
X671806Y751402D01*
X671809Y751383D01*
X671817Y751292D01*
X671829Y751262D01*
X671834Y751230D01*
X671877Y751150D01*
X671913Y751066D01*
X671939Y751034D01*
X671950Y751013D01*
X671973Y750991D01*
X672018Y750935D01*
X678935Y744018D01*
X679009Y743965D01*
X679078Y743905D01*
X679108Y743893D01*
X679134Y743874D01*
X679221Y743847D01*
X679306Y743813D01*
X679347Y743809D01*
X679369Y743802D01*
X679402Y743803D01*
X679473Y743795D01*
X699158Y743795D01*
X709462Y733491D01*
X709478Y733479D01*
X709490Y733463D01*
X709578Y733407D01*
X709661Y733347D01*
X709680Y733341D01*
X709697Y733330D01*
X709798Y733305D01*
X709897Y733275D01*
X709916Y733275D01*
X709936Y733270D01*
X710039Y733278D01*
X710142Y733281D01*
X710161Y733288D01*
X710181Y733290D01*
X710276Y733330D01*
X710373Y733366D01*
X710389Y733378D01*
X710407Y733386D01*
X710538Y733491D01*
X725470Y748423D01*
X725523Y748497D01*
X725583Y748566D01*
X725595Y748596D01*
X725614Y748622D01*
X725641Y748709D01*
X725675Y748794D01*
X725679Y748835D01*
X725686Y748857D01*
X725685Y748890D01*
X725693Y748961D01*
X725693Y752198D01*
X728802Y755307D01*
X733198Y755307D01*
X736307Y752198D01*
X736307Y747802D01*
X733198Y744693D01*
X729961Y744693D01*
X729871Y744679D01*
X729780Y744671D01*
X729750Y744659D01*
X729718Y744654D01*
X729638Y744611D01*
X729554Y744575D01*
X729522Y744549D01*
X729501Y744538D01*
X729479Y744515D01*
X729423Y744470D01*
X714491Y729538D01*
X714479Y729522D01*
X714463Y729510D01*
X714407Y729422D01*
X714347Y729339D01*
X714341Y729320D01*
X714330Y729303D01*
X714305Y729202D01*
X714275Y729103D01*
X714275Y729084D01*
X714270Y729064D01*
X714278Y728961D01*
X714281Y728858D01*
X714288Y728839D01*
X714290Y728819D01*
X714330Y728724D01*
X714366Y728627D01*
X714378Y728611D01*
X714386Y728593D01*
X714491Y728462D01*
X739795Y703158D01*
X739795Y694473D01*
X739809Y694383D01*
X739817Y694292D01*
X739829Y694262D01*
X739834Y694230D01*
X739877Y694150D01*
X739913Y694066D01*
X739939Y694034D01*
X739950Y694013D01*
X739973Y693991D01*
X740018Y693935D01*
X749935Y684018D01*
X750009Y683965D01*
X750078Y683905D01*
X750108Y683893D01*
X750134Y683874D01*
X750221Y683847D01*
X750306Y683813D01*
X750347Y683809D01*
X750369Y683802D01*
X750402Y683803D01*
X750473Y683795D01*
X758158Y683795D01*
X821935Y620018D01*
X823795Y618158D01*
X823795Y582842D01*
X816530Y575577D01*
X816477Y575503D01*
X816417Y575434D01*
X816405Y575404D01*
X816386Y575378D01*
X816359Y575291D01*
X816325Y575206D01*
X816321Y575165D01*
X816314Y575143D01*
X816315Y575110D01*
X816307Y575039D01*
X816307Y571802D01*
X813198Y568693D01*
X808802Y568693D01*
G37*
%LPD*%
%LPC*%
G36*
X562802Y245693D02*
X562802Y245693D01*
X559693Y248802D01*
X559693Y253198D01*
X560889Y254394D01*
X560931Y254452D01*
X560980Y254504D01*
X561002Y254551D01*
X561032Y254593D01*
X561054Y254662D01*
X561084Y254727D01*
X561089Y254779D01*
X561105Y254829D01*
X561103Y254900D01*
X561111Y254971D01*
X561100Y255022D01*
X561098Y255074D01*
X561074Y255142D01*
X561059Y255212D01*
X561032Y255257D01*
X561014Y255305D01*
X560969Y255361D01*
X560932Y255423D01*
X560893Y255457D01*
X560860Y255497D01*
X560800Y255536D01*
X560745Y255583D01*
X560697Y255602D01*
X560653Y255630D01*
X560584Y255648D01*
X560517Y255675D01*
X560446Y255683D01*
X560415Y255691D01*
X560392Y255689D01*
X560351Y255693D01*
X559802Y255693D01*
X556693Y258802D01*
X556693Y263198D01*
X557889Y264394D01*
X557931Y264452D01*
X557980Y264504D01*
X558002Y264551D01*
X558032Y264593D01*
X558054Y264662D01*
X558084Y264727D01*
X558089Y264779D01*
X558105Y264829D01*
X558103Y264900D01*
X558111Y264971D01*
X558100Y265022D01*
X558098Y265074D01*
X558074Y265142D01*
X558059Y265212D01*
X558032Y265256D01*
X558014Y265305D01*
X557969Y265361D01*
X557932Y265423D01*
X557893Y265457D01*
X557860Y265497D01*
X557800Y265536D01*
X557745Y265583D01*
X557697Y265602D01*
X557653Y265630D01*
X557584Y265648D01*
X557517Y265675D01*
X557446Y265683D01*
X557415Y265691D01*
X557392Y265689D01*
X557351Y265693D01*
X552802Y265693D01*
X550038Y268457D01*
X550022Y268468D01*
X550010Y268484D01*
X549922Y268540D01*
X549839Y268600D01*
X549820Y268606D01*
X549803Y268617D01*
X549702Y268642D01*
X549603Y268673D01*
X549584Y268672D01*
X549564Y268677D01*
X549461Y268669D01*
X549358Y268666D01*
X549339Y268660D01*
X549319Y268658D01*
X549224Y268618D01*
X549127Y268582D01*
X549111Y268569D01*
X549093Y268562D01*
X548962Y268457D01*
X546198Y265693D01*
X541802Y265693D01*
X538538Y268957D01*
X538522Y268968D01*
X538510Y268984D01*
X538422Y269040D01*
X538339Y269100D01*
X538320Y269106D01*
X538303Y269117D01*
X538202Y269142D01*
X538103Y269173D01*
X538084Y269172D01*
X538064Y269177D01*
X537961Y269169D01*
X537858Y269166D01*
X537839Y269160D01*
X537819Y269158D01*
X537724Y269118D01*
X537627Y269082D01*
X537611Y269069D01*
X537593Y269062D01*
X537462Y268957D01*
X534198Y265693D01*
X529802Y265693D01*
X526538Y268957D01*
X526522Y268968D01*
X526510Y268984D01*
X526422Y269040D01*
X526339Y269100D01*
X526320Y269106D01*
X526303Y269117D01*
X526202Y269142D01*
X526103Y269173D01*
X526084Y269172D01*
X526064Y269177D01*
X525961Y269169D01*
X525858Y269166D01*
X525839Y269160D01*
X525819Y269158D01*
X525724Y269118D01*
X525627Y269082D01*
X525611Y269069D01*
X525593Y269062D01*
X525462Y268957D01*
X522198Y265693D01*
X517802Y265693D01*
X514538Y268957D01*
X514522Y268968D01*
X514510Y268984D01*
X514422Y269040D01*
X514339Y269100D01*
X514320Y269106D01*
X514303Y269117D01*
X514202Y269142D01*
X514103Y269173D01*
X514084Y269172D01*
X514064Y269177D01*
X513961Y269169D01*
X513858Y269166D01*
X513839Y269160D01*
X513819Y269158D01*
X513724Y269118D01*
X513627Y269082D01*
X513611Y269069D01*
X513593Y269062D01*
X513462Y268957D01*
X511198Y266693D01*
X506802Y266693D01*
X503693Y269802D01*
X503693Y274198D01*
X506802Y277307D01*
X510932Y277307D01*
X510952Y277310D01*
X510971Y277308D01*
X511073Y277330D01*
X511175Y277346D01*
X511192Y277356D01*
X511212Y277360D01*
X511301Y277413D01*
X511392Y277462D01*
X511406Y277476D01*
X511423Y277486D01*
X511490Y277565D01*
X511562Y277640D01*
X511570Y277658D01*
X511583Y277673D01*
X511622Y277769D01*
X511665Y277863D01*
X511667Y277883D01*
X511675Y277901D01*
X511693Y278068D01*
X511693Y282198D01*
X514802Y285307D01*
X519198Y285307D01*
X521962Y282543D01*
X521978Y282532D01*
X521990Y282516D01*
X522078Y282460D01*
X522161Y282400D01*
X522180Y282394D01*
X522197Y282383D01*
X522298Y282358D01*
X522397Y282327D01*
X522416Y282328D01*
X522436Y282323D01*
X522539Y282331D01*
X522642Y282334D01*
X522661Y282340D01*
X522681Y282342D01*
X522776Y282382D01*
X522873Y282418D01*
X522889Y282431D01*
X522907Y282438D01*
X523038Y282543D01*
X525802Y285307D01*
X530198Y285307D01*
X532962Y282543D01*
X532978Y282532D01*
X532990Y282516D01*
X533078Y282460D01*
X533161Y282400D01*
X533180Y282394D01*
X533197Y282383D01*
X533298Y282358D01*
X533397Y282327D01*
X533416Y282328D01*
X533436Y282323D01*
X533539Y282331D01*
X533642Y282334D01*
X533661Y282340D01*
X533681Y282342D01*
X533776Y282382D01*
X533873Y282418D01*
X533889Y282431D01*
X533907Y282438D01*
X534038Y282543D01*
X536802Y285307D01*
X541198Y285307D01*
X543962Y282543D01*
X543978Y282532D01*
X543990Y282516D01*
X544078Y282460D01*
X544161Y282400D01*
X544180Y282394D01*
X544197Y282383D01*
X544298Y282358D01*
X544397Y282327D01*
X544416Y282328D01*
X544436Y282323D01*
X544539Y282331D01*
X544642Y282334D01*
X544661Y282340D01*
X544681Y282342D01*
X544776Y282382D01*
X544873Y282418D01*
X544889Y282431D01*
X544907Y282438D01*
X545038Y282543D01*
X547802Y285307D01*
X552198Y285307D01*
X554962Y282543D01*
X554978Y282532D01*
X554990Y282516D01*
X555078Y282460D01*
X555161Y282400D01*
X555180Y282394D01*
X555197Y282383D01*
X555298Y282358D01*
X555397Y282327D01*
X555416Y282328D01*
X555436Y282323D01*
X555539Y282331D01*
X555642Y282334D01*
X555661Y282340D01*
X555681Y282342D01*
X555776Y282382D01*
X555873Y282418D01*
X555889Y282431D01*
X555907Y282438D01*
X556038Y282543D01*
X558802Y285307D01*
X563198Y285307D01*
X566462Y282043D01*
X566478Y282032D01*
X566490Y282016D01*
X566578Y281960D01*
X566661Y281900D01*
X566680Y281894D01*
X566697Y281883D01*
X566798Y281858D01*
X566897Y281827D01*
X566916Y281828D01*
X566936Y281823D01*
X567039Y281831D01*
X567142Y281834D01*
X567161Y281840D01*
X567181Y281842D01*
X567276Y281882D01*
X567373Y281918D01*
X567389Y281931D01*
X567407Y281938D01*
X567538Y282043D01*
X570802Y285307D01*
X575198Y285307D01*
X578307Y282198D01*
X578307Y277802D01*
X578111Y277606D01*
X578069Y277548D01*
X578020Y277496D01*
X577998Y277449D01*
X577968Y277407D01*
X577946Y277338D01*
X577916Y277273D01*
X577911Y277221D01*
X577895Y277171D01*
X577897Y277100D01*
X577889Y277029D01*
X577900Y276978D01*
X577902Y276926D01*
X577926Y276858D01*
X577941Y276788D01*
X577968Y276743D01*
X577986Y276695D01*
X578031Y276639D01*
X578068Y276577D01*
X578107Y276543D01*
X578140Y276503D01*
X578200Y276464D01*
X578255Y276417D01*
X578303Y276398D01*
X578347Y276370D01*
X578416Y276352D01*
X578483Y276325D01*
X578554Y276317D01*
X578585Y276309D01*
X578608Y276311D01*
X578649Y276307D01*
X580198Y276307D01*
X583307Y273198D01*
X583307Y268802D01*
X580198Y265693D01*
X575802Y265693D01*
X573038Y268457D01*
X573022Y268468D01*
X573010Y268484D01*
X572922Y268540D01*
X572839Y268600D01*
X572820Y268606D01*
X572803Y268617D01*
X572702Y268642D01*
X572603Y268673D01*
X572584Y268672D01*
X572564Y268677D01*
X572461Y268669D01*
X572358Y268666D01*
X572339Y268660D01*
X572319Y268658D01*
X572224Y268618D01*
X572127Y268582D01*
X572111Y268569D01*
X572093Y268562D01*
X571962Y268457D01*
X569198Y265693D01*
X566649Y265693D01*
X566579Y265682D01*
X566507Y265680D01*
X566458Y265662D01*
X566407Y265654D01*
X566343Y265620D01*
X566276Y265595D01*
X566235Y265563D01*
X566189Y265538D01*
X566140Y265486D01*
X566084Y265442D01*
X566056Y265398D01*
X566020Y265360D01*
X565990Y265295D01*
X565951Y265235D01*
X565938Y265184D01*
X565916Y265137D01*
X565908Y265066D01*
X565891Y264996D01*
X565895Y264944D01*
X565889Y264893D01*
X565904Y264822D01*
X565910Y264751D01*
X565930Y264703D01*
X565941Y264652D01*
X565978Y264591D01*
X566006Y264525D01*
X566051Y264469D01*
X566068Y264441D01*
X566085Y264426D01*
X566111Y264394D01*
X567307Y263198D01*
X567307Y258802D01*
X566111Y257606D01*
X566069Y257548D01*
X566020Y257496D01*
X565998Y257449D01*
X565968Y257407D01*
X565946Y257338D01*
X565916Y257273D01*
X565911Y257221D01*
X565895Y257171D01*
X565897Y257100D01*
X565889Y257029D01*
X565900Y256978D01*
X565902Y256926D01*
X565926Y256858D01*
X565941Y256788D01*
X565968Y256743D01*
X565986Y256695D01*
X566031Y256639D01*
X566068Y256577D01*
X566107Y256543D01*
X566140Y256503D01*
X566200Y256464D01*
X566255Y256417D01*
X566303Y256398D01*
X566347Y256370D01*
X566416Y256352D01*
X566483Y256325D01*
X566554Y256317D01*
X566585Y256309D01*
X566608Y256311D01*
X566649Y256307D01*
X567198Y256307D01*
X570307Y253198D01*
X570307Y248802D01*
X567198Y245693D01*
X562802Y245693D01*
G37*
%LPD*%
%LPC*%
G36*
X317802Y331693D02*
X317802Y331693D01*
X314693Y334802D01*
X314693Y338932D01*
X314690Y338952D01*
X314692Y338971D01*
X314670Y339073D01*
X314654Y339175D01*
X314644Y339192D01*
X314640Y339212D01*
X314587Y339301D01*
X314538Y339392D01*
X314524Y339406D01*
X314514Y339423D01*
X314435Y339490D01*
X314360Y339562D01*
X314342Y339570D01*
X314327Y339583D01*
X314231Y339622D01*
X314137Y339665D01*
X314117Y339667D01*
X314099Y339675D01*
X313932Y339693D01*
X310802Y339693D01*
X307693Y342802D01*
X307693Y347198D01*
X310957Y350462D01*
X310968Y350478D01*
X310984Y350490D01*
X311040Y350578D01*
X311100Y350661D01*
X311106Y350680D01*
X311117Y350697D01*
X311142Y350798D01*
X311173Y350897D01*
X311172Y350916D01*
X311177Y350936D01*
X311169Y351039D01*
X311166Y351142D01*
X311160Y351161D01*
X311158Y351181D01*
X311118Y351276D01*
X311082Y351373D01*
X311069Y351389D01*
X311062Y351407D01*
X310957Y351538D01*
X308693Y353802D01*
X308693Y358198D01*
X310889Y360394D01*
X310931Y360452D01*
X310980Y360504D01*
X311002Y360551D01*
X311032Y360593D01*
X311054Y360662D01*
X311084Y360727D01*
X311089Y360779D01*
X311105Y360829D01*
X311103Y360900D01*
X311111Y360971D01*
X311100Y361022D01*
X311098Y361074D01*
X311074Y361142D01*
X311059Y361212D01*
X311032Y361257D01*
X311014Y361305D01*
X310969Y361361D01*
X310932Y361423D01*
X310893Y361457D01*
X310860Y361497D01*
X310800Y361536D01*
X310745Y361583D01*
X310697Y361602D01*
X310653Y361630D01*
X310584Y361648D01*
X310517Y361675D01*
X310446Y361683D01*
X310415Y361691D01*
X310392Y361689D01*
X310351Y361693D01*
X309802Y361693D01*
X306693Y364802D01*
X306693Y369198D01*
X309802Y372307D01*
X314198Y372307D01*
X317307Y369198D01*
X317307Y368649D01*
X317318Y368579D01*
X317320Y368507D01*
X317338Y368458D01*
X317346Y368407D01*
X317380Y368343D01*
X317405Y368276D01*
X317437Y368235D01*
X317462Y368189D01*
X317513Y368140D01*
X317558Y368084D01*
X317602Y368056D01*
X317640Y368020D01*
X317705Y367990D01*
X317765Y367951D01*
X317816Y367938D01*
X317863Y367916D01*
X317934Y367908D01*
X318004Y367891D01*
X318056Y367895D01*
X318107Y367889D01*
X318178Y367904D01*
X318249Y367910D01*
X318297Y367930D01*
X318348Y367941D01*
X318409Y367978D01*
X318475Y368006D01*
X318531Y368051D01*
X318559Y368068D01*
X318574Y368085D01*
X318606Y368111D01*
X318802Y368307D01*
X323198Y368307D01*
X326307Y365198D01*
X326307Y363068D01*
X326310Y363048D01*
X326308Y363029D01*
X326330Y362927D01*
X326346Y362825D01*
X326356Y362808D01*
X326360Y362788D01*
X326413Y362699D01*
X326462Y362608D01*
X326476Y362594D01*
X326486Y362577D01*
X326565Y362510D01*
X326640Y362438D01*
X326658Y362430D01*
X326673Y362417D01*
X326769Y362378D01*
X326863Y362335D01*
X326883Y362333D01*
X326901Y362325D01*
X327068Y362307D01*
X331198Y362307D01*
X334307Y359198D01*
X334307Y355068D01*
X334310Y355048D01*
X334308Y355029D01*
X334330Y354927D01*
X334346Y354825D01*
X334356Y354808D01*
X334360Y354788D01*
X334413Y354699D01*
X334462Y354608D01*
X334476Y354594D01*
X334486Y354577D01*
X334565Y354510D01*
X334640Y354438D01*
X334658Y354430D01*
X334673Y354417D01*
X334769Y354378D01*
X334863Y354335D01*
X334883Y354333D01*
X334901Y354325D01*
X335068Y354307D01*
X337198Y354307D01*
X340307Y351198D01*
X340307Y346802D01*
X337198Y343693D01*
X332802Y343693D01*
X330538Y345957D01*
X330522Y345968D01*
X330510Y345984D01*
X330422Y346040D01*
X330339Y346100D01*
X330320Y346106D01*
X330303Y346117D01*
X330202Y346142D01*
X330103Y346173D01*
X330084Y346172D01*
X330064Y346177D01*
X329961Y346169D01*
X329858Y346166D01*
X329839Y346160D01*
X329819Y346158D01*
X329724Y346118D01*
X329627Y346082D01*
X329611Y346069D01*
X329593Y346062D01*
X329462Y345957D01*
X326198Y342693D01*
X323649Y342693D01*
X323579Y342682D01*
X323507Y342680D01*
X323458Y342662D01*
X323407Y342654D01*
X323343Y342620D01*
X323276Y342595D01*
X323235Y342563D01*
X323189Y342538D01*
X323140Y342486D01*
X323084Y342442D01*
X323056Y342398D01*
X323020Y342360D01*
X322990Y342295D01*
X322951Y342235D01*
X322938Y342184D01*
X322916Y342137D01*
X322908Y342066D01*
X322891Y341996D01*
X322895Y341944D01*
X322889Y341893D01*
X322904Y341822D01*
X322910Y341751D01*
X322930Y341703D01*
X322941Y341652D01*
X322978Y341591D01*
X323006Y341525D01*
X323051Y341469D01*
X323068Y341441D01*
X323085Y341426D01*
X323111Y341394D01*
X325307Y339198D01*
X325307Y334802D01*
X322198Y331693D01*
X317802Y331693D01*
G37*
%LPD*%
%LPC*%
G36*
X734802Y598693D02*
X734802Y598693D01*
X731693Y601802D01*
X731693Y604932D01*
X731690Y604952D01*
X731692Y604971D01*
X731670Y605073D01*
X731654Y605175D01*
X731644Y605192D01*
X731640Y605212D01*
X731587Y605301D01*
X731538Y605392D01*
X731524Y605406D01*
X731514Y605423D01*
X731435Y605490D01*
X731360Y605562D01*
X731342Y605570D01*
X731327Y605583D01*
X731231Y605622D01*
X731137Y605665D01*
X731117Y605667D01*
X731099Y605675D01*
X730932Y605693D01*
X726802Y605693D01*
X723693Y608802D01*
X723693Y610351D01*
X723682Y610421D01*
X723680Y610493D01*
X723662Y610542D01*
X723654Y610593D01*
X723620Y610657D01*
X723595Y610724D01*
X723563Y610765D01*
X723538Y610811D01*
X723487Y610860D01*
X723442Y610916D01*
X723398Y610944D01*
X723360Y610980D01*
X723295Y611010D01*
X723235Y611049D01*
X723184Y611062D01*
X723137Y611084D01*
X723066Y611092D01*
X722996Y611109D01*
X722944Y611105D01*
X722893Y611111D01*
X722822Y611096D01*
X722751Y611090D01*
X722703Y611070D01*
X722652Y611059D01*
X722591Y611022D01*
X722525Y610994D01*
X722469Y610949D01*
X722441Y610932D01*
X722426Y610915D01*
X722394Y610889D01*
X722198Y610693D01*
X717802Y610693D01*
X714693Y613802D01*
X714693Y618198D01*
X714889Y618394D01*
X714931Y618452D01*
X714980Y618504D01*
X715002Y618551D01*
X715032Y618593D01*
X715054Y618662D01*
X715084Y618727D01*
X715089Y618779D01*
X715105Y618829D01*
X715103Y618900D01*
X715111Y618971D01*
X715100Y619022D01*
X715098Y619074D01*
X715074Y619142D01*
X715059Y619212D01*
X715032Y619257D01*
X715014Y619305D01*
X714969Y619361D01*
X714932Y619423D01*
X714893Y619457D01*
X714860Y619497D01*
X714800Y619536D01*
X714745Y619583D01*
X714697Y619602D01*
X714653Y619630D01*
X714584Y619648D01*
X714517Y619675D01*
X714446Y619683D01*
X714415Y619691D01*
X714392Y619689D01*
X714351Y619693D01*
X711802Y619693D01*
X708693Y622802D01*
X708693Y627198D01*
X711802Y630307D01*
X716198Y630307D01*
X717394Y629111D01*
X717452Y629069D01*
X717504Y629020D01*
X717551Y628998D01*
X717593Y628968D01*
X717662Y628946D01*
X717727Y628916D01*
X717779Y628911D01*
X717829Y628895D01*
X717900Y628897D01*
X717971Y628889D01*
X718022Y628900D01*
X718074Y628902D01*
X718142Y628926D01*
X718212Y628941D01*
X718257Y628968D01*
X718305Y628986D01*
X718361Y629031D01*
X718423Y629068D01*
X718457Y629107D01*
X718497Y629140D01*
X718536Y629200D01*
X718583Y629255D01*
X718602Y629303D01*
X718630Y629347D01*
X718648Y629416D01*
X718675Y629483D01*
X718683Y629554D01*
X718691Y629585D01*
X718689Y629608D01*
X718693Y629649D01*
X718693Y633198D01*
X718889Y633394D01*
X718931Y633452D01*
X718980Y633504D01*
X719002Y633551D01*
X719032Y633593D01*
X719054Y633662D01*
X719084Y633727D01*
X719089Y633779D01*
X719105Y633829D01*
X719103Y633900D01*
X719111Y633971D01*
X719100Y634022D01*
X719098Y634074D01*
X719074Y634142D01*
X719059Y634212D01*
X719032Y634257D01*
X719014Y634305D01*
X718969Y634361D01*
X718932Y634423D01*
X718893Y634457D01*
X718860Y634497D01*
X718800Y634536D01*
X718745Y634583D01*
X718697Y634602D01*
X718653Y634630D01*
X718584Y634648D01*
X718517Y634675D01*
X718446Y634683D01*
X718415Y634691D01*
X718392Y634689D01*
X718351Y634693D01*
X717802Y634693D01*
X714693Y637802D01*
X714693Y642198D01*
X717889Y645394D01*
X717931Y645452D01*
X717980Y645504D01*
X718002Y645551D01*
X718032Y645593D01*
X718054Y645662D01*
X718084Y645727D01*
X718089Y645779D01*
X718105Y645829D01*
X718103Y645900D01*
X718111Y645971D01*
X718100Y646022D01*
X718098Y646074D01*
X718074Y646142D01*
X718059Y646212D01*
X718032Y646257D01*
X718014Y646305D01*
X717969Y646361D01*
X717932Y646423D01*
X717893Y646457D01*
X717860Y646497D01*
X717800Y646536D01*
X717745Y646583D01*
X717697Y646602D01*
X717653Y646630D01*
X717584Y646648D01*
X717517Y646675D01*
X717446Y646683D01*
X717415Y646691D01*
X717392Y646689D01*
X717351Y646693D01*
X715802Y646693D01*
X712693Y649802D01*
X712693Y654198D01*
X715802Y657307D01*
X720198Y657307D01*
X723307Y654198D01*
X723307Y649802D01*
X720111Y646606D01*
X720069Y646548D01*
X720020Y646496D01*
X719998Y646449D01*
X719968Y646407D01*
X719946Y646338D01*
X719916Y646273D01*
X719911Y646221D01*
X719895Y646171D01*
X719897Y646100D01*
X719889Y646029D01*
X719900Y645978D01*
X719902Y645926D01*
X719926Y645858D01*
X719941Y645788D01*
X719968Y645743D01*
X719986Y645695D01*
X720031Y645639D01*
X720068Y645577D01*
X720107Y645543D01*
X720140Y645503D01*
X720200Y645464D01*
X720255Y645417D01*
X720303Y645398D01*
X720347Y645370D01*
X720416Y645352D01*
X720483Y645325D01*
X720554Y645317D01*
X720585Y645309D01*
X720608Y645311D01*
X720649Y645307D01*
X722198Y645307D01*
X725307Y642198D01*
X725307Y637802D01*
X725111Y637606D01*
X725069Y637548D01*
X725020Y637496D01*
X724998Y637449D01*
X724968Y637407D01*
X724946Y637338D01*
X724916Y637273D01*
X724911Y637221D01*
X724895Y637171D01*
X724897Y637100D01*
X724889Y637029D01*
X724900Y636978D01*
X724902Y636926D01*
X724926Y636858D01*
X724941Y636788D01*
X724968Y636743D01*
X724986Y636695D01*
X725031Y636639D01*
X725068Y636577D01*
X725107Y636543D01*
X725140Y636503D01*
X725200Y636464D01*
X725255Y636417D01*
X725303Y636398D01*
X725347Y636370D01*
X725416Y636352D01*
X725483Y636325D01*
X725554Y636317D01*
X725585Y636309D01*
X725608Y636311D01*
X725649Y636307D01*
X726198Y636307D01*
X729307Y633198D01*
X729307Y628802D01*
X726198Y625693D01*
X721802Y625693D01*
X720606Y626889D01*
X720548Y626931D01*
X720496Y626980D01*
X720449Y627002D01*
X720407Y627032D01*
X720338Y627054D01*
X720273Y627084D01*
X720221Y627089D01*
X720171Y627105D01*
X720100Y627103D01*
X720029Y627111D01*
X719978Y627100D01*
X719926Y627098D01*
X719858Y627074D01*
X719788Y627059D01*
X719743Y627032D01*
X719695Y627014D01*
X719639Y626969D01*
X719577Y626932D01*
X719543Y626893D01*
X719503Y626860D01*
X719464Y626800D01*
X719417Y626745D01*
X719398Y626697D01*
X719370Y626653D01*
X719352Y626584D01*
X719325Y626517D01*
X719317Y626446D01*
X719309Y626415D01*
X719311Y626392D01*
X719307Y626351D01*
X719307Y622802D01*
X719111Y622606D01*
X719069Y622548D01*
X719020Y622496D01*
X718998Y622449D01*
X718968Y622407D01*
X718946Y622338D01*
X718916Y622273D01*
X718911Y622221D01*
X718895Y622171D01*
X718897Y622100D01*
X718889Y622029D01*
X718900Y621978D01*
X718902Y621926D01*
X718926Y621858D01*
X718941Y621788D01*
X718968Y621743D01*
X718986Y621695D01*
X719031Y621639D01*
X719068Y621577D01*
X719107Y621543D01*
X719140Y621503D01*
X719200Y621464D01*
X719255Y621417D01*
X719303Y621398D01*
X719347Y621370D01*
X719416Y621352D01*
X719483Y621325D01*
X719554Y621317D01*
X719585Y621309D01*
X719608Y621311D01*
X719649Y621307D01*
X722198Y621307D01*
X725307Y618198D01*
X725307Y616649D01*
X725318Y616579D01*
X725320Y616507D01*
X725338Y616458D01*
X725346Y616407D01*
X725380Y616343D01*
X725405Y616276D01*
X725437Y616235D01*
X725462Y616189D01*
X725513Y616140D01*
X725558Y616084D01*
X725602Y616056D01*
X725640Y616020D01*
X725705Y615990D01*
X725765Y615951D01*
X725816Y615938D01*
X725863Y615916D01*
X725934Y615908D01*
X726004Y615891D01*
X726056Y615895D01*
X726107Y615889D01*
X726178Y615904D01*
X726249Y615910D01*
X726297Y615930D01*
X726348Y615941D01*
X726409Y615978D01*
X726475Y616006D01*
X726531Y616051D01*
X726559Y616068D01*
X726574Y616085D01*
X726606Y616111D01*
X726802Y616307D01*
X731198Y616307D01*
X734307Y613198D01*
X734307Y610068D01*
X734310Y610048D01*
X734308Y610029D01*
X734330Y609927D01*
X734346Y609825D01*
X734356Y609808D01*
X734360Y609788D01*
X734413Y609699D01*
X734462Y609608D01*
X734476Y609594D01*
X734486Y609577D01*
X734565Y609510D01*
X734640Y609438D01*
X734658Y609430D01*
X734673Y609417D01*
X734769Y609378D01*
X734863Y609335D01*
X734883Y609333D01*
X734901Y609325D01*
X735068Y609307D01*
X739198Y609307D01*
X742307Y606198D01*
X742307Y601802D01*
X739198Y598693D01*
X734802Y598693D01*
G37*
%LPD*%
%LPC*%
G36*
X454802Y323693D02*
X454802Y323693D01*
X451693Y326802D01*
X451693Y329932D01*
X451690Y329952D01*
X451692Y329971D01*
X451670Y330073D01*
X451654Y330175D01*
X451644Y330192D01*
X451640Y330212D01*
X451587Y330301D01*
X451538Y330392D01*
X451524Y330406D01*
X451514Y330423D01*
X451435Y330490D01*
X451360Y330562D01*
X451342Y330570D01*
X451327Y330583D01*
X451231Y330622D01*
X451137Y330665D01*
X451117Y330667D01*
X451099Y330675D01*
X450932Y330693D01*
X447802Y330693D01*
X444693Y333802D01*
X444693Y336932D01*
X444690Y336952D01*
X444692Y336971D01*
X444670Y337073D01*
X444654Y337175D01*
X444644Y337192D01*
X444640Y337212D01*
X444587Y337301D01*
X444538Y337392D01*
X444524Y337406D01*
X444514Y337423D01*
X444435Y337490D01*
X444360Y337562D01*
X444342Y337570D01*
X444327Y337583D01*
X444231Y337622D01*
X444137Y337665D01*
X444117Y337667D01*
X444099Y337675D01*
X443932Y337693D01*
X439802Y337693D01*
X436693Y340802D01*
X436693Y341351D01*
X436682Y341421D01*
X436680Y341493D01*
X436662Y341542D01*
X436654Y341593D01*
X436620Y341657D01*
X436595Y341724D01*
X436563Y341765D01*
X436538Y341811D01*
X436486Y341860D01*
X436442Y341916D01*
X436398Y341944D01*
X436360Y341980D01*
X436295Y342010D01*
X436235Y342049D01*
X436184Y342062D01*
X436137Y342084D01*
X436066Y342092D01*
X435996Y342109D01*
X435944Y342105D01*
X435893Y342111D01*
X435822Y342096D01*
X435751Y342090D01*
X435703Y342070D01*
X435652Y342059D01*
X435591Y342022D01*
X435525Y341994D01*
X435469Y341949D01*
X435441Y341932D01*
X435426Y341915D01*
X435394Y341889D01*
X434198Y340693D01*
X429802Y340693D01*
X427538Y342957D01*
X427522Y342968D01*
X427510Y342984D01*
X427422Y343040D01*
X427339Y343100D01*
X427320Y343106D01*
X427303Y343117D01*
X427202Y343142D01*
X427103Y343173D01*
X427084Y343172D01*
X427064Y343177D01*
X426961Y343169D01*
X426858Y343166D01*
X426839Y343160D01*
X426819Y343158D01*
X426724Y343118D01*
X426627Y343082D01*
X426611Y343069D01*
X426593Y343062D01*
X426462Y342957D01*
X424198Y340693D01*
X419802Y340693D01*
X417538Y342957D01*
X417522Y342968D01*
X417510Y342984D01*
X417422Y343040D01*
X417339Y343100D01*
X417320Y343106D01*
X417303Y343117D01*
X417202Y343142D01*
X417103Y343173D01*
X417084Y343172D01*
X417064Y343177D01*
X416961Y343169D01*
X416858Y343166D01*
X416839Y343160D01*
X416819Y343158D01*
X416724Y343118D01*
X416627Y343082D01*
X416611Y343069D01*
X416593Y343062D01*
X416462Y342957D01*
X414198Y340693D01*
X409802Y340693D01*
X406693Y343802D01*
X406693Y348198D01*
X409802Y351307D01*
X414198Y351307D01*
X416462Y349043D01*
X416478Y349032D01*
X416490Y349016D01*
X416578Y348960D01*
X416661Y348900D01*
X416680Y348894D01*
X416697Y348883D01*
X416798Y348858D01*
X416897Y348827D01*
X416916Y348828D01*
X416936Y348823D01*
X417039Y348831D01*
X417142Y348834D01*
X417161Y348840D01*
X417181Y348842D01*
X417276Y348882D01*
X417373Y348918D01*
X417389Y348931D01*
X417407Y348938D01*
X417538Y349043D01*
X419802Y351307D01*
X424198Y351307D01*
X426462Y349043D01*
X426478Y349032D01*
X426490Y349016D01*
X426578Y348960D01*
X426661Y348900D01*
X426680Y348894D01*
X426697Y348883D01*
X426798Y348858D01*
X426897Y348827D01*
X426916Y348828D01*
X426936Y348823D01*
X427039Y348831D01*
X427142Y348834D01*
X427161Y348840D01*
X427181Y348842D01*
X427276Y348882D01*
X427373Y348918D01*
X427389Y348931D01*
X427407Y348938D01*
X427538Y349043D01*
X429802Y351307D01*
X434198Y351307D01*
X437307Y348198D01*
X437307Y347649D01*
X437318Y347579D01*
X437320Y347507D01*
X437338Y347458D01*
X437346Y347407D01*
X437380Y347343D01*
X437405Y347276D01*
X437437Y347235D01*
X437462Y347189D01*
X437514Y347140D01*
X437558Y347084D01*
X437602Y347056D01*
X437640Y347020D01*
X437705Y346990D01*
X437765Y346951D01*
X437816Y346938D01*
X437863Y346916D01*
X437934Y346908D01*
X438004Y346891D01*
X438056Y346895D01*
X438107Y346889D01*
X438178Y346904D01*
X438249Y346910D01*
X438297Y346930D01*
X438348Y346941D01*
X438409Y346978D01*
X438475Y347006D01*
X438531Y347051D01*
X438559Y347068D01*
X438574Y347085D01*
X438606Y347111D01*
X439802Y348307D01*
X444198Y348307D01*
X447307Y345198D01*
X447307Y342068D01*
X447310Y342048D01*
X447308Y342029D01*
X447330Y341927D01*
X447346Y341825D01*
X447356Y341808D01*
X447360Y341788D01*
X447413Y341699D01*
X447462Y341608D01*
X447476Y341594D01*
X447486Y341577D01*
X447565Y341510D01*
X447640Y341438D01*
X447658Y341430D01*
X447673Y341417D01*
X447769Y341378D01*
X447863Y341335D01*
X447883Y341333D01*
X447901Y341325D01*
X448068Y341307D01*
X452198Y341307D01*
X455307Y338198D01*
X455307Y335068D01*
X455309Y335056D01*
X455308Y335047D01*
X455309Y335041D01*
X455308Y335029D01*
X455330Y334927D01*
X455346Y334825D01*
X455356Y334808D01*
X455360Y334788D01*
X455413Y334699D01*
X455462Y334608D01*
X455476Y334594D01*
X455486Y334577D01*
X455565Y334510D01*
X455640Y334438D01*
X455658Y334430D01*
X455673Y334417D01*
X455769Y334378D01*
X455863Y334335D01*
X455883Y334333D01*
X455901Y334325D01*
X456068Y334307D01*
X459198Y334307D01*
X462307Y331198D01*
X462307Y326802D01*
X459198Y323693D01*
X454802Y323693D01*
G37*
%LPD*%
%LPC*%
G36*
X211802Y380693D02*
X211802Y380693D01*
X208538Y383957D01*
X208522Y383968D01*
X208510Y383984D01*
X208422Y384040D01*
X208339Y384100D01*
X208320Y384106D01*
X208303Y384117D01*
X208202Y384142D01*
X208103Y384173D01*
X208084Y384172D01*
X208064Y384177D01*
X207961Y384169D01*
X207858Y384166D01*
X207839Y384160D01*
X207819Y384158D01*
X207724Y384118D01*
X207627Y384082D01*
X207611Y384069D01*
X207593Y384062D01*
X207462Y383957D01*
X205198Y381693D01*
X200802Y381693D01*
X197693Y384802D01*
X197693Y389198D01*
X200802Y392307D01*
X205198Y392307D01*
X208462Y389043D01*
X208478Y389032D01*
X208490Y389016D01*
X208578Y388960D01*
X208661Y388900D01*
X208680Y388894D01*
X208697Y388883D01*
X208798Y388858D01*
X208897Y388827D01*
X208916Y388828D01*
X208936Y388823D01*
X209039Y388831D01*
X209142Y388834D01*
X209161Y388840D01*
X209181Y388842D01*
X209276Y388882D01*
X209373Y388918D01*
X209389Y388931D01*
X209407Y388938D01*
X209538Y389043D01*
X211802Y391307D01*
X216198Y391307D01*
X216394Y391111D01*
X216452Y391069D01*
X216504Y391020D01*
X216551Y390998D01*
X216593Y390968D01*
X216662Y390946D01*
X216727Y390916D01*
X216779Y390911D01*
X216829Y390895D01*
X216900Y390897D01*
X216971Y390889D01*
X217022Y390900D01*
X217074Y390902D01*
X217142Y390926D01*
X217212Y390941D01*
X217257Y390968D01*
X217305Y390986D01*
X217361Y391031D01*
X217423Y391068D01*
X217457Y391107D01*
X217497Y391140D01*
X217536Y391200D01*
X217583Y391255D01*
X217602Y391303D01*
X217630Y391347D01*
X217648Y391416D01*
X217675Y391483D01*
X217683Y391554D01*
X217691Y391585D01*
X217689Y391608D01*
X217693Y391649D01*
X217693Y394198D01*
X219957Y396462D01*
X219968Y396478D01*
X219984Y396490D01*
X220040Y396578D01*
X220100Y396661D01*
X220106Y396680D01*
X220117Y396697D01*
X220142Y396798D01*
X220173Y396897D01*
X220172Y396916D01*
X220177Y396936D01*
X220169Y397039D01*
X220166Y397142D01*
X220160Y397161D01*
X220158Y397181D01*
X220118Y397276D01*
X220082Y397373D01*
X220069Y397389D01*
X220062Y397407D01*
X219957Y397538D01*
X217693Y399802D01*
X217693Y404198D01*
X218889Y405394D01*
X218931Y405452D01*
X218980Y405504D01*
X219002Y405551D01*
X219032Y405593D01*
X219054Y405662D01*
X219084Y405727D01*
X219089Y405779D01*
X219105Y405829D01*
X219103Y405900D01*
X219111Y405971D01*
X219100Y406022D01*
X219098Y406074D01*
X219074Y406142D01*
X219059Y406212D01*
X219032Y406257D01*
X219014Y406305D01*
X218969Y406361D01*
X218932Y406423D01*
X218893Y406457D01*
X218860Y406497D01*
X218800Y406536D01*
X218745Y406583D01*
X218697Y406602D01*
X218653Y406630D01*
X218584Y406648D01*
X218517Y406675D01*
X218446Y406683D01*
X218415Y406691D01*
X218392Y406689D01*
X218351Y406693D01*
X217802Y406693D01*
X214693Y409802D01*
X214693Y414198D01*
X217802Y417307D01*
X222198Y417307D01*
X225307Y414198D01*
X225307Y409802D01*
X224111Y408606D01*
X224069Y408548D01*
X224020Y408496D01*
X223998Y408449D01*
X223968Y408407D01*
X223946Y408338D01*
X223916Y408273D01*
X223911Y408221D01*
X223895Y408171D01*
X223897Y408100D01*
X223889Y408029D01*
X223900Y407978D01*
X223902Y407926D01*
X223926Y407858D01*
X223941Y407788D01*
X223968Y407743D01*
X223986Y407695D01*
X224031Y407639D01*
X224068Y407577D01*
X224107Y407543D01*
X224140Y407503D01*
X224200Y407464D01*
X224255Y407417D01*
X224303Y407398D01*
X224347Y407370D01*
X224416Y407352D01*
X224483Y407325D01*
X224554Y407317D01*
X224585Y407309D01*
X224608Y407311D01*
X224649Y407307D01*
X225198Y407307D01*
X228307Y404198D01*
X228307Y399802D01*
X226043Y397538D01*
X226032Y397522D01*
X226016Y397510D01*
X225960Y397422D01*
X225900Y397339D01*
X225894Y397320D01*
X225883Y397303D01*
X225858Y397202D01*
X225827Y397103D01*
X225828Y397084D01*
X225823Y397064D01*
X225831Y396961D01*
X225834Y396858D01*
X225840Y396839D01*
X225842Y396819D01*
X225882Y396724D01*
X225918Y396627D01*
X225931Y396611D01*
X225938Y396593D01*
X226043Y396462D01*
X228307Y394198D01*
X228307Y389802D01*
X225198Y386693D01*
X220802Y386693D01*
X220606Y386889D01*
X220548Y386931D01*
X220496Y386980D01*
X220449Y387002D01*
X220407Y387032D01*
X220338Y387054D01*
X220273Y387084D01*
X220221Y387089D01*
X220171Y387105D01*
X220100Y387103D01*
X220029Y387111D01*
X219978Y387100D01*
X219926Y387098D01*
X219858Y387074D01*
X219788Y387059D01*
X219743Y387032D01*
X219695Y387014D01*
X219639Y386969D01*
X219577Y386932D01*
X219543Y386893D01*
X219503Y386860D01*
X219464Y386800D01*
X219417Y386745D01*
X219398Y386697D01*
X219370Y386653D01*
X219352Y386584D01*
X219325Y386517D01*
X219317Y386446D01*
X219309Y386415D01*
X219311Y386392D01*
X219307Y386351D01*
X219307Y383802D01*
X216198Y380693D01*
X211802Y380693D01*
G37*
%LPD*%
%LPC*%
G36*
X625802Y231693D02*
X625802Y231693D01*
X622693Y234802D01*
X622693Y239198D01*
X625802Y242307D01*
X630198Y242307D01*
X633462Y239043D01*
X633478Y239032D01*
X633490Y239016D01*
X633578Y238960D01*
X633661Y238900D01*
X633680Y238894D01*
X633697Y238883D01*
X633798Y238858D01*
X633897Y238827D01*
X633916Y238828D01*
X633936Y238823D01*
X634039Y238831D01*
X634142Y238834D01*
X634161Y238840D01*
X634181Y238842D01*
X634276Y238882D01*
X634373Y238918D01*
X634389Y238931D01*
X634407Y238938D01*
X634538Y239043D01*
X637802Y242307D01*
X642198Y242307D01*
X644962Y239543D01*
X644978Y239532D01*
X644990Y239516D01*
X645078Y239460D01*
X645161Y239400D01*
X645180Y239394D01*
X645197Y239383D01*
X645298Y239358D01*
X645397Y239327D01*
X645416Y239328D01*
X645436Y239323D01*
X645539Y239331D01*
X645642Y239334D01*
X645661Y239340D01*
X645681Y239342D01*
X645776Y239382D01*
X645873Y239418D01*
X645889Y239431D01*
X645907Y239438D01*
X646038Y239543D01*
X648802Y242307D01*
X653198Y242307D01*
X655462Y240043D01*
X655478Y240032D01*
X655490Y240016D01*
X655578Y239960D01*
X655661Y239900D01*
X655680Y239894D01*
X655697Y239883D01*
X655798Y239858D01*
X655897Y239827D01*
X655916Y239828D01*
X655936Y239823D01*
X656039Y239831D01*
X656142Y239834D01*
X656161Y239840D01*
X656181Y239842D01*
X656276Y239882D01*
X656373Y239918D01*
X656389Y239931D01*
X656407Y239938D01*
X656538Y240043D01*
X659802Y243307D01*
X664198Y243307D01*
X667307Y240198D01*
X667307Y235802D01*
X664198Y232693D01*
X659802Y232693D01*
X657538Y234957D01*
X657522Y234968D01*
X657510Y234984D01*
X657422Y235040D01*
X657339Y235100D01*
X657320Y235106D01*
X657303Y235117D01*
X657202Y235142D01*
X657103Y235173D01*
X657084Y235172D01*
X657064Y235177D01*
X656961Y235169D01*
X656858Y235166D01*
X656839Y235160D01*
X656819Y235158D01*
X656724Y235118D01*
X656627Y235082D01*
X656611Y235069D01*
X656593Y235062D01*
X656462Y234957D01*
X653198Y231693D01*
X648802Y231693D01*
X646038Y234457D01*
X646022Y234468D01*
X646010Y234484D01*
X645922Y234540D01*
X645839Y234600D01*
X645820Y234606D01*
X645803Y234617D01*
X645702Y234642D01*
X645603Y234673D01*
X645584Y234672D01*
X645564Y234677D01*
X645461Y234669D01*
X645358Y234666D01*
X645339Y234660D01*
X645319Y234658D01*
X645224Y234618D01*
X645127Y234582D01*
X645111Y234569D01*
X645093Y234562D01*
X644962Y234457D01*
X642198Y231693D01*
X637802Y231693D01*
X634538Y234957D01*
X634522Y234968D01*
X634510Y234984D01*
X634422Y235040D01*
X634339Y235100D01*
X634320Y235106D01*
X634303Y235117D01*
X634202Y235142D01*
X634103Y235173D01*
X634084Y235172D01*
X634064Y235177D01*
X633961Y235169D01*
X633858Y235166D01*
X633839Y235160D01*
X633819Y235158D01*
X633724Y235118D01*
X633627Y235082D01*
X633611Y235069D01*
X633593Y235062D01*
X633462Y234957D01*
X630198Y231693D01*
X625802Y231693D01*
G37*
%LPD*%
%LPC*%
G36*
X178802Y488693D02*
X178802Y488693D01*
X175693Y491802D01*
X175693Y495932D01*
X175690Y495952D01*
X175692Y495971D01*
X175670Y496073D01*
X175654Y496175D01*
X175644Y496192D01*
X175640Y496212D01*
X175587Y496301D01*
X175538Y496392D01*
X175524Y496406D01*
X175514Y496423D01*
X175435Y496490D01*
X175360Y496562D01*
X175342Y496570D01*
X175327Y496583D01*
X175231Y496622D01*
X175137Y496665D01*
X175117Y496667D01*
X175099Y496675D01*
X174932Y496693D01*
X173802Y496693D01*
X170693Y499802D01*
X170693Y504198D01*
X173802Y507307D01*
X178198Y507307D01*
X180462Y505043D01*
X180478Y505032D01*
X180490Y505016D01*
X180578Y504960D01*
X180661Y504900D01*
X180680Y504894D01*
X180697Y504883D01*
X180798Y504858D01*
X180897Y504827D01*
X180916Y504828D01*
X180936Y504823D01*
X181039Y504831D01*
X181142Y504834D01*
X181161Y504840D01*
X181181Y504842D01*
X181276Y504882D01*
X181373Y504918D01*
X181389Y504931D01*
X181407Y504938D01*
X181538Y505043D01*
X183802Y507307D01*
X188198Y507307D01*
X191307Y504198D01*
X191307Y500068D01*
X191310Y500048D01*
X191308Y500029D01*
X191330Y499927D01*
X191346Y499825D01*
X191356Y499808D01*
X191360Y499788D01*
X191413Y499699D01*
X191462Y499608D01*
X191476Y499594D01*
X191486Y499577D01*
X191565Y499510D01*
X191640Y499438D01*
X191658Y499430D01*
X191673Y499417D01*
X191769Y499378D01*
X191863Y499335D01*
X191883Y499333D01*
X191901Y499325D01*
X192068Y499307D01*
X193198Y499307D01*
X196307Y496198D01*
X196307Y491802D01*
X193198Y488693D01*
X188802Y488693D01*
X186538Y490957D01*
X186522Y490968D01*
X186510Y490984D01*
X186422Y491040D01*
X186339Y491100D01*
X186320Y491106D01*
X186303Y491117D01*
X186202Y491142D01*
X186103Y491173D01*
X186084Y491172D01*
X186064Y491177D01*
X185961Y491169D01*
X185858Y491166D01*
X185839Y491160D01*
X185819Y491158D01*
X185724Y491118D01*
X185627Y491082D01*
X185611Y491069D01*
X185593Y491062D01*
X185462Y490957D01*
X183198Y488693D01*
X178802Y488693D01*
G37*
%LPD*%
%LPC*%
G36*
X578802Y713693D02*
X578802Y713693D01*
X575693Y716802D01*
X575693Y721198D01*
X578802Y724307D01*
X581351Y724307D01*
X581421Y724318D01*
X581493Y724320D01*
X581542Y724338D01*
X581593Y724346D01*
X581657Y724380D01*
X581724Y724405D01*
X581765Y724437D01*
X581811Y724462D01*
X581860Y724513D01*
X581916Y724558D01*
X581944Y724602D01*
X581980Y724640D01*
X582010Y724705D01*
X582049Y724765D01*
X582062Y724816D01*
X582084Y724863D01*
X582092Y724934D01*
X582109Y725004D01*
X582105Y725056D01*
X582111Y725107D01*
X582096Y725178D01*
X582090Y725249D01*
X582070Y725297D01*
X582059Y725348D01*
X582022Y725409D01*
X581994Y725475D01*
X581949Y725531D01*
X581932Y725559D01*
X581915Y725574D01*
X581889Y725606D01*
X581693Y725802D01*
X581693Y730198D01*
X584802Y733307D01*
X589198Y733307D01*
X590394Y732111D01*
X590452Y732069D01*
X590504Y732020D01*
X590551Y731998D01*
X590593Y731968D01*
X590662Y731946D01*
X590727Y731916D01*
X590779Y731911D01*
X590829Y731895D01*
X590900Y731897D01*
X590971Y731889D01*
X591022Y731900D01*
X591074Y731902D01*
X591142Y731926D01*
X591212Y731941D01*
X591257Y731968D01*
X591305Y731986D01*
X591361Y732031D01*
X591423Y732068D01*
X591457Y732107D01*
X591497Y732140D01*
X591536Y732200D01*
X591583Y732255D01*
X591602Y732303D01*
X591630Y732347D01*
X591648Y732416D01*
X591675Y732483D01*
X591683Y732554D01*
X591691Y732585D01*
X591689Y732608D01*
X591693Y732649D01*
X591693Y734198D01*
X594802Y737307D01*
X599198Y737307D01*
X602307Y734198D01*
X602307Y729802D01*
X599198Y726693D01*
X594802Y726693D01*
X593606Y727889D01*
X593548Y727931D01*
X593496Y727980D01*
X593449Y728002D01*
X593407Y728032D01*
X593338Y728054D01*
X593273Y728084D01*
X593221Y728089D01*
X593171Y728105D01*
X593100Y728103D01*
X593029Y728111D01*
X592978Y728100D01*
X592926Y728098D01*
X592858Y728074D01*
X592788Y728059D01*
X592743Y728032D01*
X592695Y728014D01*
X592639Y727969D01*
X592577Y727932D01*
X592543Y727893D01*
X592503Y727860D01*
X592464Y727800D01*
X592417Y727745D01*
X592398Y727697D01*
X592370Y727653D01*
X592352Y727584D01*
X592325Y727517D01*
X592317Y727446D01*
X592309Y727415D01*
X592311Y727392D01*
X592307Y727351D01*
X592307Y725802D01*
X589198Y722693D01*
X586649Y722693D01*
X586579Y722682D01*
X586507Y722680D01*
X586458Y722662D01*
X586407Y722654D01*
X586343Y722620D01*
X586276Y722595D01*
X586235Y722563D01*
X586189Y722538D01*
X586140Y722487D01*
X586084Y722442D01*
X586056Y722398D01*
X586020Y722360D01*
X585990Y722295D01*
X585951Y722235D01*
X585938Y722184D01*
X585916Y722137D01*
X585908Y722066D01*
X585891Y721996D01*
X585895Y721944D01*
X585889Y721893D01*
X585904Y721822D01*
X585910Y721751D01*
X585930Y721703D01*
X585941Y721652D01*
X585978Y721591D01*
X586006Y721525D01*
X586051Y721469D01*
X586068Y721441D01*
X586085Y721426D01*
X586111Y721394D01*
X586307Y721198D01*
X586307Y716802D01*
X583198Y713693D01*
X578802Y713693D01*
G37*
%LPD*%
%LPC*%
G36*
X475802Y726693D02*
X475802Y726693D01*
X472693Y729802D01*
X472693Y734198D01*
X475802Y737307D01*
X480198Y737307D01*
X481394Y736111D01*
X481452Y736069D01*
X481504Y736020D01*
X481551Y735998D01*
X481593Y735968D01*
X481662Y735946D01*
X481727Y735916D01*
X481779Y735911D01*
X481829Y735895D01*
X481900Y735897D01*
X481971Y735889D01*
X482022Y735900D01*
X482074Y735902D01*
X482142Y735926D01*
X482212Y735941D01*
X482257Y735968D01*
X482305Y735986D01*
X482361Y736031D01*
X482423Y736068D01*
X482457Y736107D01*
X482497Y736140D01*
X482536Y736200D01*
X482583Y736255D01*
X482602Y736303D01*
X482630Y736347D01*
X482648Y736416D01*
X482675Y736483D01*
X482683Y736554D01*
X482691Y736585D01*
X482689Y736608D01*
X482693Y736649D01*
X482693Y739198D01*
X485802Y742307D01*
X490198Y742307D01*
X492962Y739543D01*
X492978Y739532D01*
X492990Y739516D01*
X493078Y739460D01*
X493161Y739400D01*
X493180Y739394D01*
X493197Y739383D01*
X493298Y739358D01*
X493397Y739327D01*
X493416Y739328D01*
X493436Y739323D01*
X493539Y739331D01*
X493642Y739334D01*
X493661Y739340D01*
X493681Y739342D01*
X493776Y739382D01*
X493873Y739418D01*
X493889Y739431D01*
X493907Y739438D01*
X494038Y739543D01*
X495802Y741307D01*
X500198Y741307D01*
X503307Y738198D01*
X503307Y733802D01*
X500198Y730693D01*
X495802Y730693D01*
X493038Y733457D01*
X493022Y733468D01*
X493010Y733484D01*
X492922Y733540D01*
X492839Y733600D01*
X492820Y733606D01*
X492803Y733617D01*
X492702Y733642D01*
X492603Y733673D01*
X492584Y733672D01*
X492564Y733677D01*
X492461Y733669D01*
X492358Y733666D01*
X492339Y733660D01*
X492319Y733658D01*
X492224Y733618D01*
X492127Y733582D01*
X492111Y733569D01*
X492093Y733562D01*
X491962Y733457D01*
X490198Y731693D01*
X485802Y731693D01*
X484606Y732889D01*
X484548Y732931D01*
X484496Y732980D01*
X484449Y733002D01*
X484407Y733032D01*
X484338Y733054D01*
X484273Y733084D01*
X484221Y733089D01*
X484171Y733105D01*
X484100Y733103D01*
X484029Y733111D01*
X483978Y733100D01*
X483926Y733098D01*
X483858Y733074D01*
X483788Y733059D01*
X483743Y733032D01*
X483695Y733014D01*
X483639Y732969D01*
X483577Y732932D01*
X483543Y732893D01*
X483503Y732860D01*
X483464Y732800D01*
X483417Y732745D01*
X483398Y732697D01*
X483370Y732653D01*
X483352Y732584D01*
X483325Y732517D01*
X483317Y732446D01*
X483309Y732415D01*
X483311Y732392D01*
X483307Y732351D01*
X483307Y729802D01*
X480198Y726693D01*
X475802Y726693D01*
G37*
%LPD*%
%LPC*%
G36*
X558802Y710693D02*
X558802Y710693D01*
X555693Y713802D01*
X555693Y715351D01*
X555682Y715421D01*
X555680Y715493D01*
X555662Y715542D01*
X555654Y715593D01*
X555620Y715657D01*
X555595Y715724D01*
X555563Y715765D01*
X555538Y715811D01*
X555487Y715860D01*
X555442Y715916D01*
X555398Y715944D01*
X555360Y715980D01*
X555295Y716010D01*
X555235Y716049D01*
X555184Y716062D01*
X555137Y716084D01*
X555066Y716092D01*
X554996Y716109D01*
X554944Y716105D01*
X554893Y716111D01*
X554822Y716096D01*
X554751Y716090D01*
X554703Y716070D01*
X554652Y716059D01*
X554591Y716022D01*
X554525Y715994D01*
X554469Y715949D01*
X554441Y715932D01*
X554426Y715915D01*
X554394Y715889D01*
X554198Y715693D01*
X549802Y715693D01*
X546693Y718802D01*
X546693Y723198D01*
X549889Y726394D01*
X549931Y726452D01*
X549980Y726504D01*
X550002Y726551D01*
X550032Y726593D01*
X550041Y726621D01*
X550068Y726577D01*
X550107Y726543D01*
X550140Y726503D01*
X550200Y726464D01*
X550255Y726417D01*
X550303Y726398D01*
X550347Y726370D01*
X550416Y726352D01*
X550483Y726325D01*
X550554Y726317D01*
X550585Y726309D01*
X550608Y726311D01*
X550649Y726307D01*
X554198Y726307D01*
X557307Y723198D01*
X557307Y721649D01*
X557318Y721579D01*
X557320Y721507D01*
X557338Y721458D01*
X557346Y721407D01*
X557380Y721343D01*
X557405Y721276D01*
X557437Y721235D01*
X557462Y721189D01*
X557513Y721140D01*
X557558Y721084D01*
X557602Y721056D01*
X557640Y721020D01*
X557705Y720990D01*
X557765Y720951D01*
X557816Y720938D01*
X557863Y720916D01*
X557934Y720908D01*
X558004Y720891D01*
X558056Y720895D01*
X558107Y720889D01*
X558178Y720904D01*
X558249Y720910D01*
X558297Y720930D01*
X558348Y720941D01*
X558409Y720978D01*
X558475Y721006D01*
X558531Y721051D01*
X558559Y721068D01*
X558574Y721085D01*
X558606Y721111D01*
X558802Y721307D01*
X561932Y721307D01*
X561952Y721310D01*
X561971Y721308D01*
X562073Y721330D01*
X562175Y721346D01*
X562192Y721356D01*
X562212Y721360D01*
X562301Y721413D01*
X562392Y721462D01*
X562406Y721476D01*
X562423Y721486D01*
X562490Y721565D01*
X562562Y721640D01*
X562570Y721658D01*
X562583Y721673D01*
X562622Y721769D01*
X562665Y721863D01*
X562667Y721883D01*
X562675Y721901D01*
X562693Y722068D01*
X562693Y724198D01*
X565802Y727307D01*
X570198Y727307D01*
X573307Y724198D01*
X573307Y719802D01*
X570198Y716693D01*
X567068Y716693D01*
X567048Y716690D01*
X567029Y716692D01*
X566927Y716670D01*
X566825Y716654D01*
X566808Y716644D01*
X566788Y716640D01*
X566699Y716587D01*
X566608Y716538D01*
X566594Y716524D01*
X566577Y716514D01*
X566510Y716435D01*
X566438Y716360D01*
X566430Y716342D01*
X566417Y716327D01*
X566378Y716231D01*
X566335Y716137D01*
X566333Y716117D01*
X566325Y716099D01*
X566307Y715932D01*
X566307Y713802D01*
X563198Y710693D01*
X558802Y710693D01*
G37*
%LPD*%
%LPC*%
G36*
X706881Y822955D02*
X706881Y822955D01*
X703520Y824347D01*
X700947Y826920D01*
X699555Y830281D01*
X699555Y833919D01*
X700947Y837280D01*
X703520Y839853D01*
X706881Y841245D01*
X710519Y841245D01*
X713880Y839853D01*
X716453Y837280D01*
X717845Y833919D01*
X717845Y830281D01*
X716453Y826920D01*
X713880Y824347D01*
X710519Y822955D01*
X706881Y822955D01*
G37*
%LPD*%
%LPC*%
G36*
X706881Y797555D02*
X706881Y797555D01*
X703520Y798947D01*
X700947Y801520D01*
X699555Y804881D01*
X699555Y808519D01*
X700947Y811880D01*
X703520Y814453D01*
X706881Y815845D01*
X710519Y815845D01*
X713880Y814453D01*
X716453Y811880D01*
X717845Y808519D01*
X717845Y804881D01*
X716453Y801520D01*
X713880Y798947D01*
X710519Y797555D01*
X706881Y797555D01*
G37*
%LPD*%
%LPC*%
G36*
X681481Y797555D02*
X681481Y797555D01*
X678120Y798947D01*
X675547Y801520D01*
X674155Y804881D01*
X674155Y808519D01*
X675547Y811880D01*
X678120Y814453D01*
X681481Y815845D01*
X685119Y815845D01*
X688480Y814453D01*
X691053Y811880D01*
X692445Y808519D01*
X692445Y804881D01*
X691053Y801520D01*
X688480Y798947D01*
X685119Y797555D01*
X681481Y797555D01*
G37*
%LPD*%
%LPC*%
G36*
X706881Y772155D02*
X706881Y772155D01*
X703520Y773547D01*
X700947Y776120D01*
X699555Y779481D01*
X699555Y783119D01*
X700947Y786480D01*
X703520Y789053D01*
X706881Y790445D01*
X710519Y790445D01*
X713880Y789053D01*
X716453Y786480D01*
X717845Y783119D01*
X717845Y779481D01*
X716453Y776120D01*
X713880Y773547D01*
X710519Y772155D01*
X706881Y772155D01*
G37*
%LPD*%
%LPC*%
G36*
X852451Y456975D02*
X852451Y456975D01*
X849090Y458367D01*
X846517Y460940D01*
X845125Y464301D01*
X845125Y467939D01*
X846517Y471300D01*
X849090Y473873D01*
X852451Y475265D01*
X856089Y475265D01*
X859450Y473873D01*
X862023Y471300D01*
X863415Y467939D01*
X863415Y464301D01*
X862023Y460940D01*
X859450Y458367D01*
X856089Y456975D01*
X852451Y456975D01*
G37*
%LPD*%
%LPC*%
G36*
X706881Y746755D02*
X706881Y746755D01*
X703520Y748147D01*
X700947Y750720D01*
X699555Y754081D01*
X699555Y757719D01*
X700947Y761080D01*
X703520Y763653D01*
X706881Y765045D01*
X710519Y765045D01*
X713880Y763653D01*
X716453Y761080D01*
X717845Y757719D01*
X717845Y754081D01*
X716453Y750720D01*
X713880Y748147D01*
X710519Y746755D01*
X706881Y746755D01*
G37*
%LPD*%
%LPC*%
G36*
X681481Y746755D02*
X681481Y746755D01*
X678120Y748147D01*
X675547Y750720D01*
X674155Y754081D01*
X674155Y757719D01*
X675547Y761080D01*
X678120Y763653D01*
X681481Y765045D01*
X685119Y765045D01*
X688480Y763653D01*
X691053Y761080D01*
X692445Y757719D01*
X692445Y754081D01*
X691053Y750720D01*
X688480Y748147D01*
X685119Y746755D01*
X681481Y746755D01*
G37*
%LPD*%
%LPC*%
G36*
X681481Y772155D02*
X681481Y772155D01*
X678120Y773547D01*
X675547Y776120D01*
X674155Y779481D01*
X674155Y783119D01*
X675547Y786480D01*
X678120Y789053D01*
X681481Y790445D01*
X685119Y790445D01*
X688480Y789053D01*
X691053Y786480D01*
X692445Y783119D01*
X692445Y779481D01*
X691053Y776120D01*
X688480Y773547D01*
X685119Y772155D01*
X681481Y772155D01*
G37*
%LPD*%
%LPC*%
G36*
X681481Y822955D02*
X681481Y822955D01*
X678120Y824347D01*
X675547Y826920D01*
X674155Y830281D01*
X674155Y833919D01*
X675547Y837280D01*
X678120Y839853D01*
X681481Y841245D01*
X685119Y841245D01*
X688480Y839853D01*
X691053Y837280D01*
X692445Y833919D01*
X692445Y830281D01*
X691053Y826920D01*
X688480Y824347D01*
X685119Y822955D01*
X681481Y822955D01*
G37*
%LPD*%
%LPC*%
G36*
X852451Y431575D02*
X852451Y431575D01*
X849090Y432967D01*
X846517Y435540D01*
X845125Y438901D01*
X845125Y442539D01*
X846517Y445900D01*
X849090Y448473D01*
X852451Y449865D01*
X856089Y449865D01*
X859450Y448473D01*
X862023Y445900D01*
X863415Y442539D01*
X863415Y438901D01*
X862023Y435540D01*
X859450Y432967D01*
X856089Y431575D01*
X852451Y431575D01*
G37*
%LPD*%
%LPC*%
G36*
X595897Y223535D02*
X595897Y223535D01*
X592565Y224915D01*
X590015Y227465D01*
X588635Y230797D01*
X588635Y234403D01*
X590015Y237735D01*
X592565Y240285D01*
X595897Y241665D01*
X599503Y241665D01*
X602835Y240285D01*
X605385Y237735D01*
X606765Y234403D01*
X606765Y230797D01*
X605385Y227465D01*
X602835Y224915D01*
X599503Y223535D01*
X595897Y223535D01*
G37*
%LPD*%
%LPC*%
G36*
X739897Y345035D02*
X739897Y345035D01*
X736565Y346415D01*
X734015Y348965D01*
X732635Y352297D01*
X732635Y355903D01*
X734015Y359235D01*
X736565Y361785D01*
X739897Y363165D01*
X743503Y363165D01*
X746835Y361785D01*
X749385Y359235D01*
X750765Y355903D01*
X750765Y352297D01*
X749385Y348965D01*
X746835Y346415D01*
X743503Y345035D01*
X739897Y345035D01*
G37*
%LPD*%
%LPC*%
G36*
X746895Y566443D02*
X746895Y566443D01*
X744852Y567289D01*
X743289Y568852D01*
X742443Y570895D01*
X742443Y573105D01*
X743289Y575148D01*
X744780Y576639D01*
X744792Y576655D01*
X744807Y576667D01*
X744837Y576713D01*
X744858Y576736D01*
X744874Y576769D01*
X744924Y576838D01*
X744929Y576857D01*
X744940Y576874D01*
X744961Y576957D01*
X744962Y576959D01*
X744962Y576962D01*
X744966Y576975D01*
X744996Y577073D01*
X744995Y577093D01*
X745000Y577113D01*
X744992Y577216D01*
X744990Y577319D01*
X744983Y577338D01*
X744981Y577358D01*
X744941Y577453D01*
X744905Y577550D01*
X744893Y577566D01*
X744885Y577584D01*
X744780Y577715D01*
X741693Y580802D01*
X741693Y585198D01*
X744802Y588307D01*
X749198Y588307D01*
X752307Y585198D01*
X752307Y580802D01*
X749880Y578375D01*
X749853Y578338D01*
X749819Y578307D01*
X749782Y578239D01*
X749736Y578175D01*
X749723Y578132D01*
X749701Y578091D01*
X749687Y578015D01*
X749664Y577940D01*
X749665Y577894D01*
X749657Y577849D01*
X749668Y577772D01*
X749670Y577694D01*
X749686Y577651D01*
X749693Y577606D01*
X749728Y577537D01*
X749755Y577463D01*
X749784Y577428D01*
X749804Y577387D01*
X749860Y577332D01*
X749909Y577271D01*
X749947Y577247D01*
X749980Y577214D01*
X750100Y577148D01*
X750116Y577138D01*
X750120Y577137D01*
X750127Y577134D01*
X751148Y576711D01*
X752711Y575148D01*
X753557Y573105D01*
X753557Y570895D01*
X752711Y568852D01*
X751148Y567289D01*
X749105Y566443D01*
X746895Y566443D01*
G37*
%LPD*%
%LPC*%
G36*
X188802Y406693D02*
X188802Y406693D01*
X185693Y409802D01*
X185693Y414198D01*
X187889Y416394D01*
X187931Y416452D01*
X187980Y416504D01*
X188002Y416551D01*
X188032Y416593D01*
X188054Y416662D01*
X188084Y416727D01*
X188089Y416779D01*
X188105Y416829D01*
X188103Y416900D01*
X188111Y416971D01*
X188100Y417022D01*
X188098Y417074D01*
X188074Y417142D01*
X188059Y417212D01*
X188032Y417257D01*
X188014Y417305D01*
X187969Y417361D01*
X187932Y417423D01*
X187893Y417457D01*
X187860Y417497D01*
X187800Y417536D01*
X187745Y417583D01*
X187697Y417602D01*
X187653Y417630D01*
X187584Y417648D01*
X187517Y417675D01*
X187446Y417683D01*
X187415Y417691D01*
X187392Y417689D01*
X187351Y417693D01*
X186802Y417693D01*
X183693Y420802D01*
X183693Y425198D01*
X186802Y428307D01*
X191198Y428307D01*
X194307Y425198D01*
X194307Y420802D01*
X192111Y418606D01*
X192069Y418548D01*
X192020Y418496D01*
X191998Y418449D01*
X191968Y418407D01*
X191946Y418338D01*
X191916Y418273D01*
X191911Y418221D01*
X191895Y418171D01*
X191897Y418100D01*
X191889Y418029D01*
X191900Y417978D01*
X191902Y417926D01*
X191926Y417858D01*
X191941Y417788D01*
X191968Y417743D01*
X191986Y417695D01*
X192031Y417639D01*
X192068Y417577D01*
X192107Y417543D01*
X192140Y417503D01*
X192200Y417464D01*
X192255Y417417D01*
X192303Y417398D01*
X192347Y417370D01*
X192416Y417352D01*
X192483Y417325D01*
X192554Y417317D01*
X192585Y417309D01*
X192608Y417311D01*
X192649Y417307D01*
X193198Y417307D01*
X196307Y414198D01*
X196307Y409802D01*
X193198Y406693D01*
X188802Y406693D01*
G37*
%LPD*%
%LPC*%
G36*
X332802Y327693D02*
X332802Y327693D01*
X329693Y330802D01*
X329693Y335198D01*
X332802Y338307D01*
X337198Y338307D01*
X338394Y337111D01*
X338452Y337069D01*
X338504Y337020D01*
X338551Y336998D01*
X338593Y336968D01*
X338662Y336946D01*
X338727Y336916D01*
X338779Y336911D01*
X338829Y336895D01*
X338900Y336897D01*
X338971Y336889D01*
X339022Y336900D01*
X339074Y336902D01*
X339142Y336926D01*
X339212Y336941D01*
X339257Y336968D01*
X339305Y336986D01*
X339361Y337031D01*
X339423Y337068D01*
X339457Y337107D01*
X339497Y337140D01*
X339536Y337200D01*
X339583Y337255D01*
X339602Y337303D01*
X339630Y337347D01*
X339648Y337416D01*
X339675Y337483D01*
X339683Y337554D01*
X339691Y337585D01*
X339689Y337608D01*
X339693Y337649D01*
X339693Y341198D01*
X342802Y344307D01*
X347198Y344307D01*
X350307Y341198D01*
X350307Y336802D01*
X347198Y333693D01*
X342802Y333693D01*
X341606Y334889D01*
X341548Y334931D01*
X341496Y334980D01*
X341449Y335002D01*
X341407Y335032D01*
X341338Y335054D01*
X341273Y335084D01*
X341221Y335089D01*
X341171Y335105D01*
X341100Y335103D01*
X341029Y335111D01*
X340978Y335100D01*
X340926Y335098D01*
X340858Y335074D01*
X340788Y335059D01*
X340743Y335032D01*
X340695Y335014D01*
X340639Y334969D01*
X340577Y334932D01*
X340543Y334893D01*
X340503Y334860D01*
X340464Y334800D01*
X340417Y334745D01*
X340398Y334697D01*
X340370Y334653D01*
X340352Y334584D01*
X340325Y334517D01*
X340317Y334446D01*
X340309Y334415D01*
X340311Y334392D01*
X340307Y334351D01*
X340307Y330802D01*
X337198Y327693D01*
X332802Y327693D01*
G37*
%LPD*%
%LPC*%
G36*
X591802Y741693D02*
X591802Y741693D01*
X588693Y744802D01*
X588693Y749198D01*
X591457Y751962D01*
X591468Y751978D01*
X591484Y751990D01*
X591540Y752078D01*
X591600Y752161D01*
X591606Y752180D01*
X591617Y752197D01*
X591642Y752298D01*
X591673Y752397D01*
X591672Y752416D01*
X591677Y752436D01*
X591669Y752539D01*
X591666Y752642D01*
X591660Y752661D01*
X591658Y752681D01*
X591618Y752776D01*
X591582Y752873D01*
X591569Y752889D01*
X591562Y752907D01*
X591457Y753038D01*
X588693Y755802D01*
X588693Y760198D01*
X591802Y763307D01*
X596198Y763307D01*
X599307Y760198D01*
X599307Y755802D01*
X596543Y753038D01*
X596532Y753022D01*
X596516Y753010D01*
X596460Y752922D01*
X596400Y752839D01*
X596394Y752820D01*
X596383Y752803D01*
X596358Y752702D01*
X596327Y752603D01*
X596328Y752584D01*
X596323Y752564D01*
X596331Y752461D01*
X596334Y752358D01*
X596340Y752339D01*
X596342Y752319D01*
X596382Y752224D01*
X596418Y752127D01*
X596431Y752111D01*
X596438Y752093D01*
X596543Y751962D01*
X599307Y749198D01*
X599307Y744802D01*
X596198Y741693D01*
X591802Y741693D01*
G37*
%LPD*%
%LPC*%
G36*
X635802Y695693D02*
X635802Y695693D01*
X632693Y698802D01*
X632693Y703198D01*
X635802Y706307D01*
X640198Y706307D01*
X642962Y703543D01*
X642978Y703532D01*
X642990Y703516D01*
X643078Y703460D01*
X643161Y703400D01*
X643180Y703394D01*
X643197Y703383D01*
X643298Y703358D01*
X643397Y703327D01*
X643416Y703328D01*
X643436Y703323D01*
X643539Y703331D01*
X643642Y703334D01*
X643661Y703340D01*
X643681Y703342D01*
X643776Y703382D01*
X643873Y703418D01*
X643889Y703431D01*
X643907Y703438D01*
X644038Y703543D01*
X646802Y706307D01*
X651198Y706307D01*
X654307Y703198D01*
X654307Y698802D01*
X651198Y695693D01*
X646802Y695693D01*
X644038Y698457D01*
X644022Y698468D01*
X644010Y698484D01*
X643922Y698540D01*
X643839Y698600D01*
X643820Y698606D01*
X643803Y698617D01*
X643702Y698642D01*
X643603Y698673D01*
X643584Y698672D01*
X643564Y698677D01*
X643461Y698669D01*
X643358Y698666D01*
X643339Y698660D01*
X643319Y698658D01*
X643224Y698618D01*
X643127Y698582D01*
X643111Y698569D01*
X643093Y698562D01*
X642962Y698457D01*
X640198Y695693D01*
X635802Y695693D01*
G37*
%LPD*%
%LPC*%
G36*
X245802Y437693D02*
X245802Y437693D01*
X242693Y440802D01*
X242693Y445198D01*
X243889Y446394D01*
X243931Y446452D01*
X243980Y446504D01*
X244002Y446551D01*
X244032Y446593D01*
X244054Y446662D01*
X244084Y446727D01*
X244089Y446779D01*
X244105Y446829D01*
X244103Y446900D01*
X244111Y446971D01*
X244100Y447022D01*
X244098Y447074D01*
X244074Y447142D01*
X244059Y447212D01*
X244032Y447257D01*
X244014Y447305D01*
X243969Y447361D01*
X243932Y447423D01*
X243893Y447457D01*
X243860Y447497D01*
X243800Y447536D01*
X243745Y447583D01*
X243697Y447602D01*
X243653Y447630D01*
X243584Y447648D01*
X243517Y447675D01*
X243446Y447683D01*
X243415Y447691D01*
X243392Y447689D01*
X243351Y447693D01*
X240802Y447693D01*
X237693Y450802D01*
X237693Y455198D01*
X240802Y458307D01*
X245198Y458307D01*
X248307Y455198D01*
X248307Y450802D01*
X247111Y449606D01*
X247069Y449548D01*
X247020Y449496D01*
X246998Y449449D01*
X246968Y449407D01*
X246946Y449338D01*
X246916Y449273D01*
X246911Y449221D01*
X246895Y449171D01*
X246897Y449100D01*
X246889Y449029D01*
X246900Y448978D01*
X246902Y448926D01*
X246926Y448858D01*
X246941Y448788D01*
X246968Y448743D01*
X246986Y448695D01*
X247031Y448639D01*
X247068Y448577D01*
X247107Y448543D01*
X247140Y448503D01*
X247200Y448464D01*
X247255Y448417D01*
X247303Y448398D01*
X247347Y448370D01*
X247416Y448352D01*
X247483Y448325D01*
X247554Y448317D01*
X247585Y448309D01*
X247608Y448311D01*
X247649Y448307D01*
X250198Y448307D01*
X253307Y445198D01*
X253307Y440802D01*
X250198Y437693D01*
X245802Y437693D01*
G37*
%LPD*%
%LPC*%
G36*
X649802Y657693D02*
X649802Y657693D01*
X646693Y660802D01*
X646693Y665198D01*
X649802Y668307D01*
X650351Y668307D01*
X650421Y668318D01*
X650493Y668320D01*
X650542Y668338D01*
X650593Y668346D01*
X650657Y668380D01*
X650724Y668405D01*
X650765Y668437D01*
X650811Y668462D01*
X650860Y668514D01*
X650916Y668558D01*
X650944Y668602D01*
X650980Y668640D01*
X651010Y668705D01*
X651049Y668765D01*
X651062Y668816D01*
X651084Y668863D01*
X651092Y668934D01*
X651109Y669004D01*
X651105Y669056D01*
X651111Y669107D01*
X651096Y669178D01*
X651090Y669249D01*
X651070Y669297D01*
X651059Y669348D01*
X651022Y669409D01*
X650994Y669475D01*
X650949Y669531D01*
X650932Y669559D01*
X650915Y669574D01*
X650889Y669606D01*
X649693Y670802D01*
X649693Y675198D01*
X652802Y678307D01*
X657198Y678307D01*
X660307Y675198D01*
X660307Y670802D01*
X657198Y667693D01*
X656649Y667693D01*
X656579Y667682D01*
X656507Y667680D01*
X656458Y667662D01*
X656407Y667654D01*
X656343Y667620D01*
X656276Y667595D01*
X656235Y667563D01*
X656189Y667538D01*
X656140Y667486D01*
X656084Y667442D01*
X656056Y667398D01*
X656020Y667360D01*
X655990Y667295D01*
X655951Y667235D01*
X655938Y667184D01*
X655916Y667137D01*
X655908Y667066D01*
X655891Y666996D01*
X655895Y666944D01*
X655889Y666893D01*
X655904Y666822D01*
X655910Y666751D01*
X655930Y666703D01*
X655941Y666652D01*
X655978Y666591D01*
X656006Y666525D01*
X656051Y666469D01*
X656068Y666441D01*
X656085Y666426D01*
X656111Y666394D01*
X657307Y665198D01*
X657307Y660802D01*
X654198Y657693D01*
X649802Y657693D01*
G37*
%LPD*%
%LPC*%
G36*
X688802Y666693D02*
X688802Y666693D01*
X685693Y669802D01*
X685693Y674198D01*
X687457Y675962D01*
X687468Y675978D01*
X687484Y675990D01*
X687540Y676078D01*
X687600Y676161D01*
X687606Y676180D01*
X687617Y676197D01*
X687642Y676298D01*
X687673Y676397D01*
X687672Y676416D01*
X687677Y676436D01*
X687669Y676539D01*
X687666Y676642D01*
X687660Y676661D01*
X687658Y676681D01*
X687618Y676776D01*
X687582Y676873D01*
X687569Y676889D01*
X687562Y676907D01*
X687457Y677038D01*
X684693Y679802D01*
X684693Y684198D01*
X687802Y687307D01*
X692198Y687307D01*
X695307Y684198D01*
X695307Y679802D01*
X693543Y678038D01*
X693532Y678022D01*
X693516Y678010D01*
X693460Y677922D01*
X693400Y677839D01*
X693394Y677820D01*
X693383Y677803D01*
X693358Y677702D01*
X693327Y677603D01*
X693328Y677584D01*
X693323Y677564D01*
X693331Y677461D01*
X693334Y677358D01*
X693340Y677339D01*
X693342Y677319D01*
X693382Y677224D01*
X693418Y677127D01*
X693431Y677111D01*
X693438Y677093D01*
X693543Y676962D01*
X696307Y674198D01*
X696307Y669802D01*
X693198Y666693D01*
X688802Y666693D01*
G37*
%LPD*%
%LPC*%
G36*
X669802Y695693D02*
X669802Y695693D01*
X666693Y698802D01*
X666693Y703198D01*
X669802Y706307D01*
X674198Y706307D01*
X676462Y704043D01*
X676478Y704032D01*
X676490Y704016D01*
X676578Y703960D01*
X676661Y703900D01*
X676680Y703894D01*
X676697Y703883D01*
X676798Y703858D01*
X676897Y703827D01*
X676916Y703828D01*
X676936Y703823D01*
X677039Y703831D01*
X677142Y703834D01*
X677161Y703840D01*
X677181Y703842D01*
X677276Y703882D01*
X677373Y703918D01*
X677389Y703931D01*
X677407Y703938D01*
X677538Y704043D01*
X679802Y706307D01*
X684198Y706307D01*
X687307Y703198D01*
X687307Y698802D01*
X684198Y695693D01*
X679802Y695693D01*
X677538Y697957D01*
X677522Y697968D01*
X677510Y697984D01*
X677422Y698040D01*
X677339Y698100D01*
X677320Y698106D01*
X677303Y698117D01*
X677202Y698142D01*
X677103Y698173D01*
X677084Y698172D01*
X677064Y698177D01*
X676961Y698169D01*
X676858Y698166D01*
X676839Y698160D01*
X676819Y698158D01*
X676724Y698118D01*
X676627Y698082D01*
X676611Y698069D01*
X676593Y698062D01*
X676462Y697957D01*
X674198Y695693D01*
X669802Y695693D01*
G37*
%LPD*%
%LPC*%
G36*
X272802Y269693D02*
X272802Y269693D01*
X269693Y272802D01*
X269693Y277198D01*
X271957Y279462D01*
X271968Y279478D01*
X271984Y279490D01*
X272040Y279578D01*
X272100Y279661D01*
X272106Y279680D01*
X272117Y279697D01*
X272142Y279798D01*
X272173Y279897D01*
X272172Y279916D01*
X272177Y279936D01*
X272169Y280039D01*
X272166Y280142D01*
X272160Y280161D01*
X272158Y280181D01*
X272118Y280276D01*
X272082Y280373D01*
X272069Y280389D01*
X272062Y280407D01*
X271957Y280538D01*
X269693Y282802D01*
X269693Y287198D01*
X272802Y290307D01*
X277198Y290307D01*
X280307Y287198D01*
X280307Y282802D01*
X278043Y280538D01*
X278032Y280522D01*
X278016Y280510D01*
X277960Y280422D01*
X277900Y280339D01*
X277894Y280320D01*
X277883Y280303D01*
X277858Y280202D01*
X277827Y280103D01*
X277828Y280084D01*
X277823Y280064D01*
X277831Y279961D01*
X277834Y279858D01*
X277840Y279839D01*
X277842Y279819D01*
X277882Y279724D01*
X277918Y279627D01*
X277931Y279611D01*
X277938Y279593D01*
X278043Y279462D01*
X280307Y277198D01*
X280307Y272802D01*
X277198Y269693D01*
X272802Y269693D01*
G37*
%LPD*%
%LPC*%
G36*
X288802Y425693D02*
X288802Y425693D01*
X285693Y428802D01*
X285693Y433198D01*
X287957Y435462D01*
X287968Y435478D01*
X287984Y435490D01*
X288040Y435578D01*
X288100Y435661D01*
X288106Y435680D01*
X288117Y435697D01*
X288142Y435798D01*
X288173Y435897D01*
X288172Y435916D01*
X288177Y435936D01*
X288169Y436039D01*
X288166Y436142D01*
X288160Y436161D01*
X288158Y436181D01*
X288118Y436276D01*
X288082Y436373D01*
X288069Y436389D01*
X288062Y436407D01*
X287957Y436538D01*
X285693Y438802D01*
X285693Y443198D01*
X288802Y446307D01*
X293198Y446307D01*
X296307Y443198D01*
X296307Y438802D01*
X294043Y436538D01*
X294032Y436522D01*
X294016Y436510D01*
X293960Y436422D01*
X293900Y436339D01*
X293894Y436320D01*
X293883Y436303D01*
X293858Y436202D01*
X293827Y436103D01*
X293828Y436084D01*
X293823Y436064D01*
X293831Y435961D01*
X293834Y435858D01*
X293840Y435839D01*
X293842Y435819D01*
X293882Y435724D01*
X293918Y435627D01*
X293931Y435611D01*
X293938Y435593D01*
X294043Y435462D01*
X296307Y433198D01*
X296307Y428802D01*
X293198Y425693D01*
X288802Y425693D01*
G37*
%LPD*%
%LPC*%
G36*
X549932Y727423D02*
X549932Y727423D01*
X549893Y727457D01*
X549860Y727497D01*
X549800Y727536D01*
X549745Y727583D01*
X549697Y727602D01*
X549653Y727630D01*
X549584Y727648D01*
X549517Y727675D01*
X549446Y727683D01*
X549415Y727691D01*
X549392Y727689D01*
X549351Y727693D01*
X545802Y727693D01*
X542693Y730802D01*
X542693Y735198D01*
X545802Y738307D01*
X550198Y738307D01*
X553307Y735198D01*
X553307Y730802D01*
X550111Y727606D01*
X550069Y727548D01*
X550020Y727496D01*
X549998Y727449D01*
X549968Y727407D01*
X549959Y727379D01*
X549932Y727423D01*
G37*
%LPD*%
%LPC*%
G36*
X476302Y888693D02*
X476302Y888693D01*
X473193Y891802D01*
X473193Y896198D01*
X476322Y899327D01*
X476325Y899325D01*
X476404Y899316D01*
X476436Y899309D01*
X476464Y899310D01*
X476492Y899307D01*
X480698Y899307D01*
X483807Y896198D01*
X483807Y891802D01*
X480698Y888693D01*
X476302Y888693D01*
G37*
%LPD*%
%LPC*%
G36*
X275802Y744693D02*
X275802Y744693D01*
X272693Y747802D01*
X272693Y752198D01*
X275802Y755307D01*
X280198Y755307D01*
X283307Y752198D01*
X283307Y747802D01*
X280198Y744693D01*
X275802Y744693D01*
G37*
%LPD*%
%LPC*%
G36*
X548802Y742693D02*
X548802Y742693D01*
X545693Y745802D01*
X545693Y750198D01*
X548802Y753307D01*
X553198Y753307D01*
X556307Y750198D01*
X556307Y745802D01*
X553198Y742693D01*
X548802Y742693D01*
G37*
%LPD*%
%LPC*%
G36*
X433802Y741693D02*
X433802Y741693D01*
X430693Y744802D01*
X430693Y749198D01*
X433802Y752307D01*
X438198Y752307D01*
X441307Y749198D01*
X441307Y744802D01*
X438198Y741693D01*
X433802Y741693D01*
G37*
%LPD*%
%LPC*%
G36*
X826402Y740393D02*
X826402Y740393D01*
X823293Y743502D01*
X823293Y747898D01*
X826402Y751007D01*
X830798Y751007D01*
X833907Y747898D01*
X833907Y743502D01*
X830798Y740393D01*
X826402Y740393D01*
G37*
%LPD*%
%LPC*%
G36*
X343802Y752693D02*
X343802Y752693D01*
X340693Y755802D01*
X340693Y760198D01*
X343802Y763307D01*
X348198Y763307D01*
X351307Y760198D01*
X351307Y755802D01*
X348198Y752693D01*
X343802Y752693D01*
G37*
%LPD*%
%LPC*%
G36*
X409502Y752993D02*
X409502Y752993D01*
X406393Y756102D01*
X406393Y760498D01*
X409502Y763607D01*
X413898Y763607D01*
X417007Y760498D01*
X417007Y756102D01*
X413898Y752993D01*
X409502Y752993D01*
G37*
%LPD*%
%LPC*%
G36*
X802802Y727693D02*
X802802Y727693D01*
X799693Y730802D01*
X799693Y735198D01*
X802802Y738307D01*
X807198Y738307D01*
X810307Y735198D01*
X810307Y730802D01*
X807198Y727693D01*
X802802Y727693D01*
G37*
%LPD*%
%LPC*%
G36*
X329802Y761693D02*
X329802Y761693D01*
X326693Y764802D01*
X326693Y769198D01*
X329802Y772307D01*
X334198Y772307D01*
X337307Y769198D01*
X337307Y764802D01*
X334198Y761693D01*
X329802Y761693D01*
G37*
%LPD*%
%LPC*%
G36*
X626802Y726693D02*
X626802Y726693D01*
X623693Y729802D01*
X623693Y734198D01*
X626802Y737307D01*
X631198Y737307D01*
X634307Y734198D01*
X634307Y729802D01*
X631198Y726693D01*
X626802Y726693D01*
G37*
%LPD*%
%LPC*%
G36*
X772802Y726693D02*
X772802Y726693D01*
X769693Y729802D01*
X769693Y734198D01*
X772802Y737307D01*
X777198Y737307D01*
X780307Y734198D01*
X780307Y729802D01*
X777198Y726693D01*
X772802Y726693D01*
G37*
%LPD*%
%LPC*%
G36*
X265802Y719693D02*
X265802Y719693D01*
X262693Y722802D01*
X262693Y727198D01*
X265802Y730307D01*
X270198Y730307D01*
X273307Y727198D01*
X273307Y722802D01*
X270198Y719693D01*
X265802Y719693D01*
G37*
%LPD*%
%LPC*%
G36*
X724802Y762693D02*
X724802Y762693D01*
X721693Y765802D01*
X721693Y770198D01*
X724802Y773307D01*
X729198Y773307D01*
X732307Y770198D01*
X732307Y765802D01*
X729198Y762693D01*
X724802Y762693D01*
G37*
%LPD*%
%LPC*%
G36*
X781802Y715693D02*
X781802Y715693D01*
X778693Y718802D01*
X778693Y723198D01*
X781802Y726307D01*
X786198Y726307D01*
X789307Y723198D01*
X789307Y718802D01*
X786198Y715693D01*
X781802Y715693D01*
G37*
%LPD*%
%LPC*%
G36*
X232102Y714993D02*
X232102Y714993D01*
X228993Y718102D01*
X228993Y722498D01*
X232102Y725607D01*
X236498Y725607D01*
X239607Y722498D01*
X239607Y718102D01*
X236498Y714993D01*
X232102Y714993D01*
G37*
%LPD*%
%LPC*%
G36*
X508894Y714813D02*
X508894Y714813D01*
X505785Y717922D01*
X505785Y722318D01*
X508894Y725427D01*
X513290Y725427D01*
X516399Y722318D01*
X516399Y717922D01*
X513290Y714813D01*
X508894Y714813D01*
G37*
%LPD*%
%LPC*%
G36*
X515802Y209693D02*
X515802Y209693D01*
X512693Y212802D01*
X512693Y217198D01*
X515802Y220307D01*
X520198Y220307D01*
X523307Y217198D01*
X523307Y212802D01*
X520198Y209693D01*
X515802Y209693D01*
G37*
%LPD*%
%LPC*%
G36*
X367802Y218693D02*
X367802Y218693D01*
X364693Y221802D01*
X364693Y226198D01*
X367802Y229307D01*
X372198Y229307D01*
X375307Y226198D01*
X375307Y221802D01*
X372198Y218693D01*
X367802Y218693D01*
G37*
%LPD*%
%LPC*%
G36*
X756802Y707693D02*
X756802Y707693D01*
X753693Y710802D01*
X753693Y715198D01*
X756802Y718307D01*
X761198Y718307D01*
X764307Y715198D01*
X764307Y710802D01*
X761198Y707693D01*
X756802Y707693D01*
G37*
%LPD*%
%LPC*%
G36*
X301802Y705693D02*
X301802Y705693D01*
X298693Y708802D01*
X298693Y713198D01*
X301802Y716307D01*
X306198Y716307D01*
X309307Y713198D01*
X309307Y708802D01*
X306198Y705693D01*
X301802Y705693D01*
G37*
%LPD*%
%LPC*%
G36*
X807802Y699693D02*
X807802Y699693D01*
X804693Y702802D01*
X804693Y707198D01*
X807802Y710307D01*
X812198Y710307D01*
X815307Y707198D01*
X815307Y702802D01*
X812198Y699693D01*
X807802Y699693D01*
G37*
%LPD*%
%LPC*%
G36*
X693802Y696693D02*
X693802Y696693D01*
X690693Y699802D01*
X690693Y704198D01*
X693802Y707307D01*
X698198Y707307D01*
X701307Y704198D01*
X701307Y699802D01*
X698198Y696693D01*
X693802Y696693D01*
G37*
%LPD*%
%LPC*%
G36*
X744802Y696693D02*
X744802Y696693D01*
X741693Y699802D01*
X741693Y704198D01*
X744802Y707307D01*
X749198Y707307D01*
X752307Y704198D01*
X752307Y699802D01*
X749198Y696693D01*
X744802Y696693D01*
G37*
%LPD*%
%LPC*%
G36*
X476802Y764693D02*
X476802Y764693D01*
X473693Y767802D01*
X473693Y772198D01*
X476802Y775307D01*
X481198Y775307D01*
X484307Y772198D01*
X484307Y767802D01*
X481198Y764693D01*
X476802Y764693D01*
G37*
%LPD*%
%LPC*%
G36*
X761802Y769693D02*
X761802Y769693D01*
X758693Y772802D01*
X758693Y777198D01*
X761802Y780307D01*
X766198Y780307D01*
X769307Y777198D01*
X769307Y772802D01*
X766198Y769693D01*
X761802Y769693D01*
G37*
%LPD*%
%LPC*%
G36*
X791802Y691693D02*
X791802Y691693D01*
X788693Y694802D01*
X788693Y699198D01*
X791802Y702307D01*
X796198Y702307D01*
X799307Y699198D01*
X799307Y694802D01*
X796198Y691693D01*
X791802Y691693D01*
G37*
%LPD*%
%LPC*%
G36*
X497802Y770693D02*
X497802Y770693D01*
X494693Y773802D01*
X494693Y778198D01*
X497802Y781307D01*
X502198Y781307D01*
X505307Y778198D01*
X505307Y773802D01*
X502198Y770693D01*
X497802Y770693D01*
G37*
%LPD*%
%LPC*%
G36*
X800802Y681693D02*
X800802Y681693D01*
X797693Y684802D01*
X797693Y689198D01*
X800802Y692307D01*
X805198Y692307D01*
X808307Y689198D01*
X808307Y684802D01*
X805198Y681693D01*
X800802Y681693D01*
G37*
%LPD*%
%LPC*%
G36*
X806802Y771093D02*
X806802Y771093D01*
X803693Y774202D01*
X803693Y778598D01*
X806802Y781707D01*
X811198Y781707D01*
X814307Y778598D01*
X814307Y774202D01*
X811198Y771093D01*
X806802Y771093D01*
G37*
%LPD*%
%LPC*%
G36*
X336102Y668993D02*
X336102Y668993D01*
X332993Y672102D01*
X332993Y676498D01*
X336102Y679607D01*
X340498Y679607D01*
X343607Y676498D01*
X343607Y672102D01*
X340498Y668993D01*
X336102Y668993D01*
G37*
%LPD*%
%LPC*%
G36*
X777802Y776693D02*
X777802Y776693D01*
X774693Y779802D01*
X774693Y784198D01*
X777802Y787307D01*
X782198Y787307D01*
X785307Y784198D01*
X785307Y779802D01*
X782198Y776693D01*
X777802Y776693D01*
G37*
%LPD*%
%LPC*%
G36*
X675802Y665693D02*
X675802Y665693D01*
X672693Y668802D01*
X672693Y673198D01*
X675802Y676307D01*
X680198Y676307D01*
X683307Y673198D01*
X683307Y668802D01*
X680198Y665693D01*
X675802Y665693D01*
G37*
%LPD*%
%LPC*%
G36*
X688802Y652693D02*
X688802Y652693D01*
X685693Y655802D01*
X685693Y660198D01*
X688802Y663307D01*
X693198Y663307D01*
X696307Y660198D01*
X696307Y655802D01*
X693198Y652693D01*
X688802Y652693D01*
G37*
%LPD*%
%LPC*%
G36*
X581802Y782693D02*
X581802Y782693D01*
X578693Y785802D01*
X578693Y790198D01*
X581802Y793307D01*
X586198Y793307D01*
X589307Y790198D01*
X589307Y785802D01*
X586198Y782693D01*
X581802Y782693D01*
G37*
%LPD*%
%LPC*%
G36*
X804802Y597693D02*
X804802Y597693D01*
X801693Y600802D01*
X801693Y605198D01*
X804802Y608307D01*
X809198Y608307D01*
X812307Y605198D01*
X812307Y600802D01*
X809198Y597693D01*
X804802Y597693D01*
G37*
%LPD*%
%LPC*%
G36*
X317802Y585693D02*
X317802Y585693D01*
X314693Y588802D01*
X314693Y593198D01*
X317802Y596307D01*
X322198Y596307D01*
X325307Y593198D01*
X325307Y588802D01*
X322198Y585693D01*
X317802Y585693D01*
G37*
%LPD*%
%LPC*%
G36*
X291802Y582693D02*
X291802Y582693D01*
X288693Y585802D01*
X288693Y590198D01*
X291802Y593307D01*
X296198Y593307D01*
X299307Y590198D01*
X299307Y585802D01*
X296198Y582693D01*
X291802Y582693D01*
G37*
%LPD*%
%LPC*%
G36*
X276802Y579693D02*
X276802Y579693D01*
X273693Y582802D01*
X273693Y587198D01*
X276802Y590307D01*
X281198Y590307D01*
X284307Y587198D01*
X284307Y582802D01*
X281198Y579693D01*
X276802Y579693D01*
G37*
%LPD*%
%LPC*%
G36*
X517802Y793093D02*
X517802Y793093D01*
X514693Y796202D01*
X514693Y800598D01*
X517802Y803707D01*
X522198Y803707D01*
X525307Y800598D01*
X525307Y796202D01*
X522198Y793093D01*
X517802Y793093D01*
G37*
%LPD*%
%LPC*%
G36*
X258802Y574693D02*
X258802Y574693D01*
X255693Y577802D01*
X255693Y582198D01*
X258802Y585307D01*
X263198Y585307D01*
X266307Y582198D01*
X266307Y577802D01*
X263198Y574693D01*
X258802Y574693D01*
G37*
%LPD*%
%LPC*%
G36*
X707802Y572693D02*
X707802Y572693D01*
X704693Y575802D01*
X704693Y580198D01*
X707802Y583307D01*
X712198Y583307D01*
X715307Y580198D01*
X715307Y575802D01*
X712198Y572693D01*
X707802Y572693D01*
G37*
%LPD*%
%LPC*%
G36*
X563902Y794393D02*
X563902Y794393D01*
X560793Y797502D01*
X560793Y801898D01*
X563902Y805007D01*
X568298Y805007D01*
X571407Y801898D01*
X571407Y797502D01*
X568298Y794393D01*
X563902Y794393D01*
G37*
%LPD*%
%LPC*%
G36*
X742802Y546693D02*
X742802Y546693D01*
X739693Y549802D01*
X739693Y554198D01*
X742802Y557307D01*
X747198Y557307D01*
X750307Y554198D01*
X750307Y549802D01*
X747198Y546693D01*
X742802Y546693D01*
G37*
%LPD*%
%LPC*%
G36*
X342802Y540693D02*
X342802Y540693D01*
X339693Y543802D01*
X339693Y548198D01*
X342802Y551307D01*
X347198Y551307D01*
X350307Y548198D01*
X350307Y543802D01*
X347198Y540693D01*
X342802Y540693D01*
G37*
%LPD*%
%LPC*%
G36*
X232802Y533693D02*
X232802Y533693D01*
X229693Y536802D01*
X229693Y541198D01*
X232802Y544307D01*
X237198Y544307D01*
X240307Y541198D01*
X240307Y536802D01*
X237198Y533693D01*
X232802Y533693D01*
G37*
%LPD*%
%LPC*%
G36*
X873802Y516693D02*
X873802Y516693D01*
X870693Y519802D01*
X870693Y524198D01*
X873802Y527307D01*
X878198Y527307D01*
X881307Y524198D01*
X881307Y519802D01*
X878198Y516693D01*
X873802Y516693D01*
G37*
%LPD*%
%LPC*%
G36*
X705802Y516693D02*
X705802Y516693D01*
X702693Y519802D01*
X702693Y524198D01*
X705802Y527307D01*
X710198Y527307D01*
X713307Y524198D01*
X713307Y519802D01*
X710198Y516693D01*
X705802Y516693D01*
G37*
%LPD*%
%LPC*%
G36*
X723802Y516693D02*
X723802Y516693D01*
X720693Y519802D01*
X720693Y524198D01*
X723802Y527307D01*
X728198Y527307D01*
X731307Y524198D01*
X731307Y519802D01*
X728198Y516693D01*
X723802Y516693D01*
G37*
%LPD*%
%LPC*%
G36*
X749802Y516693D02*
X749802Y516693D01*
X746693Y519802D01*
X746693Y524198D01*
X749802Y527307D01*
X754198Y527307D01*
X757307Y524198D01*
X757307Y519802D01*
X754198Y516693D01*
X749802Y516693D01*
G37*
%LPD*%
%LPC*%
G36*
X802802Y516693D02*
X802802Y516693D01*
X799693Y519802D01*
X799693Y524198D01*
X802802Y527307D01*
X807198Y527307D01*
X810307Y524198D01*
X810307Y519802D01*
X807198Y516693D01*
X802802Y516693D01*
G37*
%LPD*%
%LPC*%
G36*
X851802Y516693D02*
X851802Y516693D01*
X848693Y519802D01*
X848693Y524198D01*
X851802Y527307D01*
X856198Y527307D01*
X859307Y524198D01*
X859307Y519802D01*
X856198Y516693D01*
X851802Y516693D01*
G37*
%LPD*%
%LPC*%
G36*
X533802Y797893D02*
X533802Y797893D01*
X530693Y801002D01*
X530693Y805398D01*
X533802Y808507D01*
X538198Y808507D01*
X541307Y805398D01*
X541307Y801002D01*
X538198Y797893D01*
X533802Y797893D01*
G37*
%LPD*%
%LPC*%
G36*
X634302Y798793D02*
X634302Y798793D01*
X631193Y801902D01*
X631193Y806298D01*
X634302Y809407D01*
X638698Y809407D01*
X641807Y806298D01*
X641807Y801902D01*
X638698Y798793D01*
X634302Y798793D01*
G37*
%LPD*%
%LPC*%
G36*
X342802Y493693D02*
X342802Y493693D01*
X339693Y496802D01*
X339693Y501198D01*
X342802Y504307D01*
X347198Y504307D01*
X350307Y501198D01*
X350307Y496802D01*
X347198Y493693D01*
X342802Y493693D01*
G37*
%LPD*%
%LPC*%
G36*
X316802Y479693D02*
X316802Y479693D01*
X313693Y482802D01*
X313693Y487198D01*
X316802Y490307D01*
X321198Y490307D01*
X324307Y487198D01*
X324307Y482802D01*
X321198Y479693D01*
X316802Y479693D01*
G37*
%LPD*%
%LPC*%
G36*
X434802Y799693D02*
X434802Y799693D01*
X431693Y802802D01*
X431693Y807198D01*
X434802Y810307D01*
X439198Y810307D01*
X442307Y807198D01*
X442307Y802802D01*
X439198Y799693D01*
X434802Y799693D01*
G37*
%LPD*%
%LPC*%
G36*
X739802Y448693D02*
X739802Y448693D01*
X736693Y451802D01*
X736693Y456198D01*
X739802Y459307D01*
X744198Y459307D01*
X747307Y456198D01*
X747307Y451802D01*
X744198Y448693D01*
X739802Y448693D01*
G37*
%LPD*%
%LPC*%
G36*
X577202Y803093D02*
X577202Y803093D01*
X574093Y806202D01*
X574093Y810598D01*
X577202Y813707D01*
X581598Y813707D01*
X584707Y810598D01*
X584707Y806202D01*
X581598Y803093D01*
X577202Y803093D01*
G37*
%LPD*%
%LPC*%
G36*
X710802Y446693D02*
X710802Y446693D01*
X707693Y449802D01*
X707693Y454198D01*
X710802Y457307D01*
X715198Y457307D01*
X718307Y454198D01*
X718307Y449802D01*
X715198Y446693D01*
X710802Y446693D01*
G37*
%LPD*%
%LPC*%
G36*
X554502Y808693D02*
X554502Y808693D01*
X551393Y811802D01*
X551393Y816198D01*
X554502Y819307D01*
X558898Y819307D01*
X562007Y816198D01*
X562007Y811802D01*
X558898Y808693D01*
X554502Y808693D01*
G37*
%LPD*%
%LPC*%
G36*
X496802Y813693D02*
X496802Y813693D01*
X493693Y816802D01*
X493693Y821198D01*
X496802Y824307D01*
X501198Y824307D01*
X504307Y821198D01*
X504307Y816802D01*
X501198Y813693D01*
X496802Y813693D01*
G37*
%LPD*%
%LPC*%
G36*
X571802Y879693D02*
X571802Y879693D01*
X568693Y882802D01*
X568693Y887198D01*
X571802Y890307D01*
X576198Y890307D01*
X579307Y887198D01*
X579307Y882802D01*
X576198Y879693D01*
X571802Y879693D01*
G37*
%LPD*%
%LPC*%
G36*
X518802Y232693D02*
X518802Y232693D01*
X515693Y235802D01*
X515693Y240198D01*
X518802Y243307D01*
X523198Y243307D01*
X526307Y240198D01*
X526307Y235802D01*
X523198Y232693D01*
X518802Y232693D01*
G37*
%LPD*%
%LPC*%
G36*
X698802Y425693D02*
X698802Y425693D01*
X695693Y428802D01*
X695693Y433198D01*
X698802Y436307D01*
X703198Y436307D01*
X706307Y433198D01*
X706307Y428802D01*
X703198Y425693D01*
X698802Y425693D01*
G37*
%LPD*%
%LPC*%
G36*
X676802Y423693D02*
X676802Y423693D01*
X673693Y426802D01*
X673693Y431198D01*
X676802Y434307D01*
X681198Y434307D01*
X684307Y431198D01*
X684307Y426802D01*
X681198Y423693D01*
X676802Y423693D01*
G37*
%LPD*%
%LPC*%
G36*
X521802Y863693D02*
X521802Y863693D01*
X518693Y866802D01*
X518693Y871198D01*
X521802Y874307D01*
X526198Y874307D01*
X529307Y871198D01*
X529307Y866802D01*
X526198Y863693D01*
X521802Y863693D01*
G37*
%LPD*%
%LPC*%
G36*
X585802Y814693D02*
X585802Y814693D01*
X582693Y817802D01*
X582693Y822198D01*
X585802Y825307D01*
X590198Y825307D01*
X593307Y822198D01*
X593307Y817802D01*
X590198Y814693D01*
X585802Y814693D01*
G37*
%LPD*%
%LPC*%
G36*
X576802Y246693D02*
X576802Y246693D01*
X573693Y249802D01*
X573693Y254198D01*
X576802Y257307D01*
X581198Y257307D01*
X584307Y254198D01*
X584307Y249802D01*
X581198Y246693D01*
X576802Y246693D01*
G37*
%LPD*%
%LPC*%
G36*
X313802Y247693D02*
X313802Y247693D01*
X310693Y250802D01*
X310693Y255198D01*
X313802Y258307D01*
X318198Y258307D01*
X321307Y255198D01*
X321307Y250802D01*
X318198Y247693D01*
X313802Y247693D01*
G37*
%LPD*%
%LPC*%
G36*
X396802Y253693D02*
X396802Y253693D01*
X393693Y256802D01*
X393693Y261198D01*
X396802Y264307D01*
X401198Y264307D01*
X404307Y261198D01*
X404307Y256802D01*
X401198Y253693D01*
X396802Y253693D01*
G37*
%LPD*%
%LPC*%
G36*
X707802Y846693D02*
X707802Y846693D01*
X704693Y849802D01*
X704693Y854198D01*
X707802Y857307D01*
X712198Y857307D01*
X715307Y854198D01*
X715307Y849802D01*
X712198Y846693D01*
X707802Y846693D01*
G37*
%LPD*%
%LPC*%
G36*
X369402Y817093D02*
X369402Y817093D01*
X366293Y820202D01*
X366293Y824598D01*
X369402Y827707D01*
X373798Y827707D01*
X376907Y824598D01*
X376907Y820202D01*
X373798Y817093D01*
X369402Y817093D01*
G37*
%LPD*%
%LPC*%
G36*
X566802Y833693D02*
X566802Y833693D01*
X563693Y836802D01*
X563693Y841198D01*
X566802Y844307D01*
X571198Y844307D01*
X574307Y841198D01*
X574307Y836802D01*
X571198Y833693D01*
X566802Y833693D01*
G37*
%LPD*%
%LPC*%
G36*
X409802Y282693D02*
X409802Y282693D01*
X406693Y285802D01*
X406693Y290198D01*
X409802Y293307D01*
X414198Y293307D01*
X417307Y290198D01*
X417307Y285802D01*
X414198Y282693D01*
X409802Y282693D01*
G37*
%LPD*%
%LPC*%
G36*
X414802Y304693D02*
X414802Y304693D01*
X411693Y307802D01*
X411693Y312198D01*
X414802Y315307D01*
X419198Y315307D01*
X422307Y312198D01*
X422307Y307802D01*
X419198Y304693D01*
X414802Y304693D01*
G37*
%LPD*%
%LPC*%
G36*
X492802Y826693D02*
X492802Y826693D01*
X489693Y829802D01*
X489693Y834198D01*
X492802Y837307D01*
X497198Y837307D01*
X500307Y834198D01*
X500307Y829802D01*
X497198Y826693D01*
X492802Y826693D01*
G37*
%LPD*%
%LPC*%
G36*
X438202Y826393D02*
X438202Y826393D01*
X435093Y829502D01*
X435093Y833898D01*
X438202Y837007D01*
X442598Y837007D01*
X445707Y833898D01*
X445707Y829502D01*
X442598Y826393D01*
X438202Y826393D01*
G37*
%LPD*%
%LPC*%
G36*
X725802Y824693D02*
X725802Y824693D01*
X722693Y827802D01*
X722693Y832198D01*
X725802Y835307D01*
X730198Y835307D01*
X733307Y832198D01*
X733307Y827802D01*
X730198Y824693D01*
X725802Y824693D01*
G37*
%LPD*%
%LPC*%
G36*
X520602Y822493D02*
X520602Y822493D01*
X517493Y825602D01*
X517493Y829998D01*
X520602Y833107D01*
X524998Y833107D01*
X528107Y829998D01*
X528107Y825602D01*
X524998Y822493D01*
X520602Y822493D01*
G37*
%LPD*%
%LPC*%
G36*
X410802Y714693D02*
X410802Y714693D01*
X407693Y717802D01*
X407693Y722198D01*
X410802Y725307D01*
X415198Y725307D01*
X418307Y722198D01*
X418307Y717802D01*
X415198Y714693D01*
X410802Y714693D01*
G37*
%LPD*%
%LPC*%
G36*
X422802Y709693D02*
X422802Y709693D01*
X419693Y712802D01*
X419693Y717198D01*
X422802Y720307D01*
X427198Y720307D01*
X430307Y717198D01*
X430307Y712802D01*
X427198Y709693D01*
X422802Y709693D01*
G37*
%LPD*%
%LPC*%
G36*
X855793Y391443D02*
X855793Y391443D01*
X855793Y399966D01*
X856649Y399831D01*
X858170Y399336D01*
X859595Y398610D01*
X860889Y397670D01*
X862020Y396539D01*
X862960Y395245D01*
X863686Y393820D01*
X864181Y392299D01*
X864316Y391443D01*
X855793Y391443D01*
G37*
%LPD*%
%LPC*%
G36*
X855793Y416843D02*
X855793Y416843D01*
X855793Y425366D01*
X856649Y425231D01*
X858170Y424736D01*
X859595Y424010D01*
X860889Y423070D01*
X862020Y421939D01*
X862960Y420645D01*
X863686Y419220D01*
X864181Y417699D01*
X864316Y416843D01*
X855793Y416843D01*
G37*
%LPD*%
%LPC*%
G36*
X844224Y391443D02*
X844224Y391443D01*
X844359Y392299D01*
X844854Y393820D01*
X845580Y395245D01*
X846520Y396539D01*
X847651Y397670D01*
X848945Y398610D01*
X850370Y399336D01*
X851891Y399831D01*
X852747Y399966D01*
X852747Y391443D01*
X844224Y391443D01*
G37*
%LPD*%
%LPC*%
G36*
X855793Y388397D02*
X855793Y388397D01*
X864316Y388397D01*
X864181Y387541D01*
X863686Y386020D01*
X862960Y384595D01*
X862020Y383301D01*
X860889Y382170D01*
X859595Y381230D01*
X858170Y380504D01*
X856649Y380009D01*
X855793Y379874D01*
X855793Y388397D01*
G37*
%LPD*%
%LPC*%
G36*
X844224Y416843D02*
X844224Y416843D01*
X844359Y417699D01*
X844854Y419220D01*
X845580Y420645D01*
X846520Y421939D01*
X847651Y423070D01*
X848945Y424010D01*
X850370Y424736D01*
X851891Y425231D01*
X852747Y425366D01*
X852747Y416843D01*
X844224Y416843D01*
G37*
%LPD*%
%LPC*%
G36*
X855793Y413797D02*
X855793Y413797D01*
X864316Y413797D01*
X864181Y412941D01*
X863686Y411420D01*
X862960Y409995D01*
X862020Y408701D01*
X860889Y407570D01*
X859595Y406630D01*
X858170Y405904D01*
X856649Y405409D01*
X855793Y405274D01*
X855793Y413797D01*
G37*
%LPD*%
%LPC*%
G36*
X851891Y380009D02*
X851891Y380009D01*
X850370Y380504D01*
X848945Y381230D01*
X847651Y382170D01*
X846520Y383301D01*
X845580Y384595D01*
X844854Y386020D01*
X844359Y387541D01*
X844224Y388397D01*
X852747Y388397D01*
X852747Y379874D01*
X851891Y380009D01*
G37*
%LPD*%
%LPC*%
G36*
X851891Y405409D02*
X851891Y405409D01*
X850370Y405904D01*
X848945Y406630D01*
X847651Y407570D01*
X846520Y408701D01*
X845580Y409995D01*
X844854Y411420D01*
X844359Y412941D01*
X844224Y413797D01*
X852747Y413797D01*
X852747Y405274D01*
X851891Y405409D01*
G37*
%LPD*%
%LPC*%
G36*
X743223Y430623D02*
X743223Y430623D01*
X743223Y439065D01*
X744061Y438933D01*
X745570Y438442D01*
X746983Y437722D01*
X748267Y436789D01*
X749389Y435667D01*
X750322Y434383D01*
X751042Y432970D01*
X751533Y431461D01*
X751665Y430623D01*
X743223Y430623D01*
G37*
%LPD*%
%LPC*%
G36*
X599223Y309123D02*
X599223Y309123D01*
X599223Y317565D01*
X600061Y317433D01*
X601570Y316942D01*
X602983Y316222D01*
X604267Y315289D01*
X605389Y314167D01*
X606322Y312883D01*
X607042Y311470D01*
X607533Y309961D01*
X607665Y309123D01*
X599223Y309123D01*
G37*
%LPD*%
%LPC*%
G36*
X731735Y430623D02*
X731735Y430623D01*
X731867Y431461D01*
X732358Y432970D01*
X733078Y434383D01*
X734011Y435667D01*
X735133Y436789D01*
X736417Y437722D01*
X737830Y438442D01*
X739339Y438933D01*
X740177Y439065D01*
X740177Y430623D01*
X731735Y430623D01*
G37*
%LPD*%
%LPC*%
G36*
X599223Y306077D02*
X599223Y306077D01*
X607665Y306077D01*
X607533Y305239D01*
X607042Y303730D01*
X606322Y302317D01*
X605389Y301033D01*
X604267Y299911D01*
X602983Y298978D01*
X601570Y298258D01*
X600061Y297767D01*
X599223Y297635D01*
X599223Y306077D01*
G37*
%LPD*%
%LPC*%
G36*
X587735Y309123D02*
X587735Y309123D01*
X587867Y309961D01*
X588358Y311470D01*
X589078Y312883D01*
X590011Y314167D01*
X591133Y315289D01*
X592417Y316222D01*
X593830Y316942D01*
X595339Y317433D01*
X596177Y317565D01*
X596177Y309123D01*
X587735Y309123D01*
G37*
%LPD*%
%LPC*%
G36*
X743223Y427577D02*
X743223Y427577D01*
X751665Y427577D01*
X751533Y426739D01*
X751042Y425230D01*
X750322Y423817D01*
X749389Y422533D01*
X748267Y421411D01*
X746983Y420478D01*
X745570Y419758D01*
X744061Y419267D01*
X743223Y419135D01*
X743223Y427577D01*
G37*
%LPD*%
%LPC*%
G36*
X595339Y297767D02*
X595339Y297767D01*
X593830Y298258D01*
X592417Y298978D01*
X591133Y299911D01*
X590011Y301033D01*
X589078Y302317D01*
X588358Y303730D01*
X587867Y305239D01*
X587735Y306077D01*
X596177Y306077D01*
X596177Y297635D01*
X595339Y297767D01*
G37*
%LPD*%
%LPC*%
G36*
X739339Y419267D02*
X739339Y419267D01*
X737830Y419758D01*
X736417Y420478D01*
X735133Y421411D01*
X734011Y422533D01*
X733078Y423817D01*
X732358Y425230D01*
X731867Y426739D01*
X731735Y427577D01*
X740177Y427577D01*
X740177Y419135D01*
X739339Y419267D01*
G37*
%LPD*%
%LPC*%
G36*
X741699Y429099D02*
X741699Y429099D01*
X741699Y429101D01*
X741701Y429101D01*
X741701Y429099D01*
X741699Y429099D01*
G37*
%LPD*%
%LPC*%
G36*
X854269Y415319D02*
X854269Y415319D01*
X854269Y415321D01*
X854271Y415321D01*
X854271Y415319D01*
X854269Y415319D01*
G37*
%LPD*%
%LPC*%
G36*
X597699Y307599D02*
X597699Y307599D01*
X597699Y307601D01*
X597701Y307601D01*
X597701Y307599D01*
X597699Y307599D01*
G37*
%LPD*%
%LPC*%
G36*
X854269Y389919D02*
X854269Y389919D01*
X854269Y389921D01*
X854271Y389921D01*
X854271Y389919D01*
X854269Y389919D01*
G37*
%LPD*%
D10*
X597700Y307600D03*
X597700Y232600D03*
X741700Y429100D03*
X741700Y354100D03*
D11*
X854270Y389920D03*
X854270Y415320D03*
X854270Y440720D03*
X854270Y466120D03*
X708700Y755900D03*
X683300Y755900D03*
X708700Y781300D03*
X683300Y781300D03*
X708700Y806700D03*
X683300Y806700D03*
X708700Y832100D03*
X683300Y832100D03*
D12*
X322000Y444000D03*
X333000Y444000D03*
X344000Y444000D03*
X355000Y444000D03*
X366000Y444000D03*
X377000Y444000D03*
X388000Y409000D03*
X322000Y432000D03*
X333000Y432000D03*
X344000Y432000D03*
X355000Y432000D03*
X366000Y432000D03*
X377000Y432000D03*
X322000Y421000D03*
X333000Y421000D03*
X344000Y421000D03*
X355000Y421000D03*
X366000Y421000D03*
X377000Y421000D03*
X322000Y409000D03*
X333000Y409000D03*
X344000Y409000D03*
X355000Y409000D03*
X366000Y409000D03*
X377000Y409000D03*
X355000Y398000D03*
X366000Y398000D03*
X377000Y398000D03*
X388000Y398000D03*
X399000Y398000D03*
X410000Y398000D03*
X355000Y386000D03*
X366000Y386000D03*
X377000Y386000D03*
X388000Y386000D03*
X399000Y386000D03*
X410000Y386000D03*
X366000Y375000D03*
X377000Y375000D03*
X388000Y375000D03*
X399000Y375000D03*
X410000Y375000D03*
X421000Y375000D03*
X366000Y363000D03*
X377000Y363000D03*
X388000Y363000D03*
X399000Y363000D03*
X410000Y363000D03*
X421000Y363000D03*
X383000Y283000D03*
X383000Y294000D03*
X383000Y305000D03*
X371000Y283000D03*
X371000Y294000D03*
X371000Y305000D03*
X475000Y218000D03*
X475000Y229000D03*
X475000Y240000D03*
X487000Y218000D03*
X487000Y229000D03*
X487000Y240000D03*
X819000Y642000D03*
X830000Y642000D03*
X840000Y641000D03*
X847000Y634000D03*
X853000Y626000D03*
X859000Y617000D03*
X818000Y697000D03*
X319000Y485000D03*
X807000Y603000D03*
X708000Y522000D03*
X726000Y522000D03*
X752000Y522000D03*
X805000Y522000D03*
X854000Y522000D03*
X876000Y522000D03*
X304000Y711000D03*
X346000Y758000D03*
X524000Y869000D03*
X574000Y885000D03*
X661000Y779000D03*
X542000Y687000D03*
X737000Y604000D03*
X235000Y539000D03*
X275000Y285000D03*
X562000Y261000D03*
X189000Y423000D03*
X191000Y412000D03*
X203000Y387000D03*
X214000Y386000D03*
X223000Y392000D03*
X223000Y402000D03*
X220000Y412000D03*
X412000Y346000D03*
X422000Y346000D03*
X432000Y346000D03*
X442000Y343000D03*
X450000Y336000D03*
X457000Y329000D03*
X312000Y367000D03*
X321000Y363000D03*
X329000Y357000D03*
X335000Y349000D03*
X324000Y348000D03*
X314000Y356000D03*
X313000Y345000D03*
X320000Y337000D03*
X509000Y272000D03*
X517000Y280000D03*
X520000Y271000D03*
X528000Y280000D03*
X532000Y271000D03*
X539000Y280000D03*
X544000Y271000D03*
X550000Y280000D03*
X555000Y271000D03*
X561000Y280000D03*
X567000Y271000D03*
X573000Y280000D03*
X316000Y253000D03*
X803000Y687000D03*
X578000Y271000D03*
X579000Y252000D03*
X565000Y251000D03*
X370000Y224000D03*
X437000Y805000D03*
X479000Y770000D03*
X536000Y803200D03*
X556700Y814000D03*
X566100Y799700D03*
X579400Y808400D03*
X522800Y827800D03*
X478500Y894000D03*
X371600Y822400D03*
X440400Y831700D03*
X411700Y758300D03*
X338300Y674300D03*
X234300Y720300D03*
X636500Y804100D03*
X828600Y745700D03*
X809000Y776400D03*
X721100Y701500D03*
X710000Y852000D03*
X399000Y259000D03*
X243000Y453000D03*
X248000Y443000D03*
X561000Y716000D03*
X261000Y580000D03*
X679000Y429000D03*
X686000Y448000D03*
X701000Y431000D03*
X713000Y452000D03*
X742000Y454000D03*
X628000Y237000D03*
X640000Y237000D03*
X651000Y237000D03*
X662000Y238000D03*
X511092Y720120D03*
X246000Y560000D03*
X294000Y588000D03*
X320000Y591000D03*
X500000Y776000D03*
X498000Y736000D03*
X520000Y798400D03*
X731000Y750000D03*
D13*
X710000Y729000D01*
X710000Y706000D01*
X710000Y729000D02*
X698000Y741000D01*
X678000Y741000D01*
X669000Y750000D01*
X669000Y786000D01*
X663000Y792000D01*
X656000Y792000D01*
D14*
X654000Y790000D01*
D12*
X654000Y790000D03*
X551000Y748000D03*
X499000Y819000D03*
X332000Y767000D03*
D13*
X710000Y729000D02*
X737000Y702000D01*
X737000Y693000D01*
X749000Y681000D01*
X757000Y681000D01*
X821000Y617000D01*
D12*
X710000Y706000D03*
X811000Y574000D03*
D13*
X821000Y584000D01*
X821000Y617000D01*
D12*
X638000Y701000D03*
X691000Y658000D03*
X718000Y652000D03*
X649000Y701000D03*
X678000Y671000D03*
X690000Y682000D03*
X587000Y728000D03*
X691000Y672000D03*
X581000Y719000D03*
X568000Y722000D03*
X747000Y583000D03*
D15*
X748000Y572000D03*
D12*
X655000Y673000D03*
X745000Y552000D03*
X552000Y721000D03*
X548000Y733000D03*
X652000Y663000D03*
X710000Y578000D03*
X488000Y737000D03*
X478000Y732000D03*
X584000Y788000D03*
X727000Y768000D03*
X495000Y832000D03*
X569000Y839000D03*
X588000Y820000D03*
X672000Y701000D03*
X729000Y611000D03*
X682000Y701000D03*
X720000Y616000D03*
X696000Y702000D03*
X714000Y625000D03*
X629000Y732000D03*
X425000Y715000D03*
X597000Y732000D03*
X413000Y720000D03*
X594000Y747000D03*
X436000Y747000D03*
X594000Y758000D03*
X747000Y702000D03*
X794000Y697000D03*
X759000Y713000D03*
X810000Y705000D03*
X268000Y725000D03*
X278000Y750000D03*
X345000Y499000D03*
X345000Y546000D03*
X724000Y631000D03*
X412000Y288000D03*
X291000Y431000D03*
X291000Y441000D03*
X345000Y339000D03*
X335000Y333000D03*
X417000Y310000D03*
X449000Y246000D03*
X439000Y240000D03*
X521000Y238000D03*
X720000Y640000D03*
X248000Y501000D03*
X305000Y316000D03*
X311000Y306000D03*
X315000Y315000D03*
X322000Y307000D03*
X326000Y316000D03*
X332000Y308000D03*
X340000Y319000D03*
X342000Y309000D03*
X342000Y299000D03*
X337000Y290000D03*
X332000Y298000D03*
X322000Y297000D03*
X235000Y489000D03*
X242000Y482000D03*
X250000Y475000D03*
X176000Y502000D03*
X186000Y502000D03*
X181000Y494000D03*
X191000Y494000D03*
X237000Y529000D03*
X437000Y229000D03*
X449000Y229000D03*
X179000Y532000D03*
X189000Y532000D03*
X189000Y521000D03*
X184000Y513000D03*
X179000Y521000D03*
X392000Y243000D03*
X395000Y234000D03*
X391000Y225000D03*
X775000Y732000D03*
X784000Y721000D03*
X805000Y733000D03*
X518000Y215000D03*
X275000Y275000D03*
X277000Y332000D03*
X780000Y782000D03*
X764000Y775000D03*
X728000Y830000D03*
X279000Y585000D03*
M02*
