M48
;GenerationSoftware,Autodesk,EAGLE,8.6.0*%
;CreationDate,2018-04-20T21:24:48Z*%
FMAT,2
ICI,OFF
METRIC,TZ,000.000
T5C0.350
T4C0.400
T3C1.000
T2C1.016
T1C1.600
%
G90
M71
T1
X41400Y87700
X26300Y77900
X51300Y89700
X68800Y86700
X85700Y72200
X89700Y64200
T2
X68330Y83210
X70870Y83210
X68330Y80670
X70870Y80670
X68330Y78130
X70870Y78130
X68330Y75590
X70870Y75590
X85427Y46612
X85427Y44072
X85427Y41532
X85427Y38992
T3
X74170Y35410
X74170Y42910
X59770Y23260
X59770Y30760
T4
X74800Y57200
T5
X36600Y40900
X37700Y40900
X35500Y39800
X36600Y39800
X37700Y39800
X38800Y39800
X39900Y39800
X41000Y39800
X35500Y38600
X36600Y38600
X37700Y38600
X38800Y38600
X39900Y38600
X41000Y38600
X36600Y37500
X37700Y37500
X38800Y37500
X39900Y37500
X41000Y37500
X42100Y37500
X36600Y36300
X37700Y36300
X38800Y36300
X39900Y36300
X41000Y36300
X42100Y36300
X38300Y28300
X38300Y29400
X38300Y30500
X37100Y28300
X37100Y29400
X37100Y30500
X47500Y21800
X47500Y22900
X47500Y24000
X48700Y21800
X48700Y22900
X48700Y24000
X81900Y64200
X83000Y64200
X84000Y64100
X84700Y63400
X85300Y62600
X85900Y61700
X81800Y69700
X31900Y48500
X80700Y60300
X70800Y52200
X72600Y52200
X75200Y52200
X80500Y52200
X85400Y52200
X87600Y52200
X30400Y71100
X34600Y75800
X52400Y86900
X57400Y88500
X66100Y77900
X54200Y68700
X73700Y60400
X23500Y53900
X27500Y28500
X56200Y26100
X18900Y42300
X22300Y39200
X22300Y40200
X22000Y41200
X41200Y34600
X42200Y34600
X43200Y34600
X44200Y34300
X45000Y33600
X45700Y32900
X31200Y36700
X32100Y36300
X32900Y35700
X33500Y34900
X32400Y34800
X31400Y35600
X31300Y34500
X32000Y33700
X50900Y27200
X51700Y28000
X52000Y27100
X52800Y28000
X53200Y27100
X53900Y28000
X54400Y27100
X55000Y28000
X55500Y27100
X56100Y28000
X56700Y27100
X57300Y28000
X31600Y25300
X80300Y68700
X57800Y27100
X57900Y25200
X56500Y25100
X37000Y22400
X43700Y80500
X47900Y77000
X53600Y80320
X55670Y81400
X56610Y79970
X57940Y80840
X52280Y82780
X47850Y89400
X37160Y82240
X44040Y83170
X41170Y75830
X33830Y67430
X23430Y72030
X63650Y80410
X82860Y74570
X80900Y77640
X72110Y70150
X71000Y85200
X39900Y25900
X24300Y45300
X24800Y44300
X56100Y71600
X32200Y44400
X67900Y42900
X68600Y44800
X70100Y43100
X71300Y45200
X74200Y45400
X62800Y23700
X64000Y23700
X65100Y23700
X66200Y23800
X51109Y72012
X24600Y56000
X29400Y58800
X32000Y59100
X50000Y77600
X49800Y73600
X52000Y79840
X73100Y75000
X65400Y79000
X55100Y74800
X49900Y81900
X33200Y76700
X71000Y70600
X81100Y57400
X63800Y70100
X69100Y65800
X71800Y65200
X64900Y70100
X67800Y67100
X69000Y68200
X58700Y72800
X69100Y67200
X58100Y71900
X56800Y72200
X74700Y58300
X35500Y40900
X65500Y67300
X74500Y55200
X55200Y72100
X54800Y73300
X65200Y66300
X71000Y57800
X48800Y73700
X47800Y73200
X58400Y78800
X72700Y76800
X49500Y83200
X56900Y83900
X58800Y82000
X67200Y70100
X72900Y61100
X68200Y70100
X72000Y61600
X69600Y70200
X71400Y62500
X62900Y73200
X42500Y71500
X59700Y73200
X41300Y72000
X59400Y74700
X43600Y74700
X59400Y75800
X74700Y70200
X79400Y69700
X75900Y71300
X81000Y70500
X26800Y72500
X27800Y75000
X34500Y49900
X34500Y54600
X72400Y63100
X41200Y28800
X29100Y43100
X29100Y44100
X34500Y33900
X33500Y33300
X41700Y31000
X44900Y24600
X43900Y24000
X52100Y23800
X72000Y64000
X24800Y50100
X30500Y31600
X31100Y30600
X31500Y31500
X32200Y30700
X32600Y31600
X33200Y30800
X34000Y31900
X34200Y30900
X34200Y29900
X33700Y29000
X33200Y29800
X32200Y29700
X23500Y48900
X24200Y48200
X25000Y47500
X17600Y50200
X18600Y50200
X18100Y49400
X19100Y49400
X23700Y52900
X43700Y22900
X44900Y22900
X17900Y53200
X18900Y53200
X18900Y52100
X18400Y51300
X17900Y52100
X39200Y24300
X39500Y23400
X39100Y22500
X77500Y73200
X78400Y72100
X80500Y73300
X51800Y21500
X27500Y27500
X27700Y33200
X78000Y78200
X76400Y77500
X72800Y83000
X27900Y58500
X34400Y40900
X33300Y40900
X32200Y40900
X37700Y42100
X36600Y42100
X35500Y42100
X34400Y42100
X33300Y42100
X32200Y42100
X37700Y43200
X36600Y43200
X35500Y43200
X34400Y43200
X33300Y43200
X32200Y43200
X38800Y40900
X37700Y44400
X36600Y44400
X35500Y44400
X34400Y44400
X33300Y44400
X26100Y58000
M30