G04 EAGLE Gerber X2 export*
%TF.Part,Single*%
%TF.FileFunction,Profile,NP*%
%TF.FilePolarity,Positive*%
%TF.GenerationSoftware,Autodesk,EAGLE,8.6.0*%
%TF.CreationDate,2018-04-20T19:50:09Z*%
G75*
%MOMM*%
%FSLAX34Y34*%
%LPD*%
%AMOC8*
5,1,8,0,0,1.08239X$1,22.5*%
G01*
%ADD10C,0.254000*%


D10*
X932000Y517152D02*
X931762Y507460D01*
X931286Y497777D01*
X930573Y488108D01*
X929623Y478459D01*
X928436Y468837D01*
X927013Y459246D01*
X925356Y449694D01*
X923464Y440185D01*
X921340Y430725D01*
X918984Y421320D01*
X916399Y411976D01*
X913584Y402699D01*
X910543Y393493D01*
X907277Y384364D01*
X903788Y375319D01*
X900077Y366361D01*
X896148Y357498D01*
X892003Y348734D01*
X887644Y340074D01*
X883074Y331523D01*
X878295Y323087D01*
X873311Y314771D01*
X868124Y306580D01*
X862737Y298519D01*
X857155Y290592D01*
X851379Y282805D01*
X845414Y275162D01*
X839264Y267667D01*
X832931Y260326D01*
X826420Y253142D01*
X819735Y246121D01*
X812879Y239265D01*
X805858Y232580D01*
X798674Y226069D01*
X791333Y219736D01*
X783838Y213586D01*
X776195Y207621D01*
X768408Y201845D01*
X760481Y196263D01*
X752420Y190876D01*
X744229Y185689D01*
X735913Y180705D01*
X727477Y175926D01*
X718927Y171356D01*
X710266Y166997D01*
X701502Y162852D01*
X692639Y158923D01*
X683681Y155212D01*
X674636Y151723D01*
X665507Y148457D01*
X656301Y145416D01*
X647024Y142601D01*
X637680Y140016D01*
X628275Y137660D01*
X618815Y135536D01*
X609306Y133644D01*
X599754Y131987D01*
X590163Y130564D01*
X580541Y129377D01*
X570893Y128427D01*
X561224Y127714D01*
X551540Y127238D01*
X541848Y127000D01*
X532152Y127000D01*
X522460Y127238D01*
X512777Y127714D01*
X503108Y128427D01*
X493459Y129377D01*
X483837Y130564D01*
X474246Y131987D01*
X464694Y133644D01*
X455185Y135536D01*
X445725Y137660D01*
X436320Y140016D01*
X426976Y142601D01*
X417699Y145416D01*
X408493Y148457D01*
X399364Y151723D01*
X390319Y155212D01*
X381361Y158923D01*
X372498Y162852D01*
X363734Y166997D01*
X355074Y171356D01*
X346523Y175926D01*
X338087Y180705D01*
X329771Y185689D01*
X321580Y190876D01*
X313519Y196263D01*
X305592Y201845D01*
X297805Y207621D01*
X290162Y213586D01*
X282667Y219736D01*
X275326Y226069D01*
X268142Y232580D01*
X261121Y239265D01*
X254265Y246121D01*
X247580Y253142D01*
X241069Y260326D01*
X234736Y267667D01*
X228586Y275162D01*
X222621Y282805D01*
X216845Y290592D01*
X211263Y298519D01*
X205876Y306580D01*
X200689Y314771D01*
X195705Y323087D01*
X190926Y331523D01*
X186356Y340074D01*
X181997Y348734D01*
X177852Y357498D01*
X173923Y366361D01*
X170212Y375319D01*
X166723Y384364D01*
X163457Y393493D01*
X160416Y402699D01*
X157601Y411976D01*
X155016Y421320D01*
X152660Y430725D01*
X150536Y440185D01*
X148644Y449694D01*
X146987Y459246D01*
X145564Y468837D01*
X144377Y478459D01*
X143427Y488108D01*
X142714Y497777D01*
X142238Y507460D01*
X142000Y517152D01*
X142000Y526848D01*
X142238Y536540D01*
X142714Y546224D01*
X143427Y555893D01*
X144377Y565541D01*
X145564Y575163D01*
X146987Y584754D01*
X148644Y594306D01*
X150536Y603815D01*
X152660Y613275D01*
X155016Y622680D01*
X157601Y632024D01*
X160416Y641301D01*
X163457Y650507D01*
X166723Y659636D01*
X170212Y668681D01*
X173923Y677639D01*
X177852Y686502D01*
X181997Y695266D01*
X186356Y703927D01*
X190926Y712477D01*
X195705Y720913D01*
X200689Y729229D01*
X205876Y737420D01*
X211263Y745481D01*
X216845Y753408D01*
X222621Y761195D01*
X228586Y768838D01*
X234736Y776333D01*
X241069Y783674D01*
X247580Y790858D01*
X254265Y797879D01*
X261121Y804735D01*
X268142Y811420D01*
X275326Y817931D01*
X282667Y824264D01*
X290162Y830414D01*
X297805Y836379D01*
X305592Y842155D01*
X313519Y847737D01*
X321580Y853124D01*
X329771Y858311D01*
X338087Y863295D01*
X346523Y868074D01*
X355074Y872644D01*
X363734Y877003D01*
X372498Y881148D01*
X381361Y885077D01*
X390319Y888788D01*
X399364Y892277D01*
X408493Y895543D01*
X417699Y898584D01*
X426976Y901399D01*
X436320Y903984D01*
X445725Y906340D01*
X455185Y908464D01*
X464694Y910356D01*
X474246Y912013D01*
X483837Y913436D01*
X493459Y914623D01*
X503108Y915573D01*
X512777Y916286D01*
X522460Y916762D01*
X532152Y917000D01*
X541848Y917000D01*
X551540Y916762D01*
X561224Y916286D01*
X570893Y915573D01*
X580541Y914623D01*
X590163Y913436D01*
X599754Y912013D01*
X609306Y910356D01*
X618815Y908464D01*
X628275Y906340D01*
X637680Y903984D01*
X647024Y901399D01*
X656301Y898584D01*
X665507Y895543D01*
X674636Y892277D01*
X683681Y888788D01*
X692639Y885077D01*
X701502Y881148D01*
X710266Y877003D01*
X718927Y872644D01*
X727477Y868074D01*
X735913Y863295D01*
X744229Y858311D01*
X752420Y853124D01*
X760481Y847737D01*
X768408Y842155D01*
X776195Y836379D01*
X783838Y830414D01*
X791333Y824264D01*
X798674Y817931D01*
X805858Y811420D01*
X812879Y804735D01*
X819735Y797879D01*
X826420Y790858D01*
X832931Y783674D01*
X839264Y776333D01*
X845414Y768838D01*
X851379Y761195D01*
X857155Y753408D01*
X862737Y745481D01*
X868124Y737420D01*
X873311Y729229D01*
X878295Y720913D01*
X883074Y712477D01*
X887644Y703927D01*
X892003Y695266D01*
X896148Y686502D01*
X900077Y677639D01*
X903788Y668681D01*
X907277Y659636D01*
X910543Y650507D01*
X913584Y641301D01*
X916399Y632024D01*
X918984Y622680D01*
X921340Y613275D01*
X923464Y603815D01*
X925356Y594306D01*
X927013Y584754D01*
X928436Y575163D01*
X929623Y565541D01*
X930573Y555893D01*
X931286Y546224D01*
X931762Y536540D01*
X932000Y526848D01*
X932000Y517152D01*
X687000Y520159D02*
X686910Y516479D01*
X686729Y512801D01*
X686458Y509129D01*
X686097Y505465D01*
X685647Y501811D01*
X685106Y498169D01*
X684477Y494542D01*
X683759Y490931D01*
X682952Y487339D01*
X682057Y483767D01*
X681075Y480219D01*
X680007Y476696D01*
X678852Y473200D01*
X677611Y469733D01*
X676286Y466298D01*
X674877Y462897D01*
X673385Y459531D01*
X671811Y456203D01*
X670156Y452914D01*
X668420Y449667D01*
X666606Y446464D01*
X664713Y443306D01*
X662743Y440195D01*
X660698Y437134D01*
X658578Y434124D01*
X656385Y431167D01*
X654119Y428264D01*
X651784Y425418D01*
X649379Y422630D01*
X646906Y419902D01*
X644368Y417236D01*
X641764Y414632D01*
X639098Y412094D01*
X636370Y409621D01*
X633582Y407216D01*
X630736Y404881D01*
X627834Y402615D01*
X624876Y400422D01*
X621866Y398302D01*
X618805Y396257D01*
X615694Y394287D01*
X612536Y392394D01*
X609333Y390580D01*
X606086Y388844D01*
X602797Y387189D01*
X599469Y385615D01*
X596103Y384123D01*
X592702Y382714D01*
X589267Y381389D01*
X585800Y380148D01*
X582304Y378993D01*
X578781Y377925D01*
X575233Y376943D01*
X571661Y376048D01*
X568069Y375241D01*
X564458Y374523D01*
X560831Y373894D01*
X557189Y373353D01*
X553535Y372903D01*
X549871Y372542D01*
X546199Y372271D01*
X542522Y372090D01*
X538841Y372000D01*
X535159Y372000D01*
X531479Y372090D01*
X527801Y372271D01*
X524129Y372542D01*
X520465Y372903D01*
X516811Y373353D01*
X513169Y373894D01*
X509542Y374523D01*
X505931Y375241D01*
X502339Y376048D01*
X498767Y376943D01*
X495219Y377925D01*
X491696Y378993D01*
X488200Y380148D01*
X484733Y381389D01*
X481298Y382714D01*
X477897Y384123D01*
X474531Y385615D01*
X471203Y387189D01*
X467914Y388844D01*
X464667Y390580D01*
X461464Y392394D01*
X458306Y394287D01*
X455195Y396257D01*
X452134Y398302D01*
X449124Y400422D01*
X446167Y402615D01*
X443264Y404881D01*
X440418Y407216D01*
X437630Y409621D01*
X434902Y412094D01*
X432236Y414632D01*
X429632Y417236D01*
X427094Y419902D01*
X424621Y422630D01*
X422216Y425418D01*
X419881Y428264D01*
X417615Y431167D01*
X415422Y434124D01*
X413302Y437134D01*
X411257Y440195D01*
X409287Y443306D01*
X407394Y446464D01*
X405580Y449667D01*
X403844Y452914D01*
X402189Y456203D01*
X400615Y459531D01*
X399123Y462897D01*
X397714Y466298D01*
X396389Y469733D01*
X395148Y473200D01*
X393993Y476696D01*
X392925Y480219D01*
X391943Y483767D01*
X391048Y487339D01*
X390241Y490931D01*
X389523Y494542D01*
X388894Y498169D01*
X388353Y501811D01*
X387903Y505465D01*
X387542Y509129D01*
X387271Y512801D01*
X387090Y516479D01*
X387000Y520159D01*
X387000Y523841D01*
X387090Y527522D01*
X387271Y531199D01*
X387542Y534871D01*
X387903Y538535D01*
X388353Y542189D01*
X388894Y545831D01*
X389523Y549458D01*
X390241Y553069D01*
X391048Y556661D01*
X391943Y560233D01*
X392925Y563781D01*
X393993Y567304D01*
X395148Y570800D01*
X396389Y574267D01*
X397714Y577702D01*
X399123Y581103D01*
X400615Y584469D01*
X402189Y587797D01*
X403844Y591086D01*
X405580Y594333D01*
X407394Y597536D01*
X409287Y600694D01*
X411257Y603805D01*
X413302Y606866D01*
X415422Y609876D01*
X417615Y612834D01*
X419881Y615736D01*
X422216Y618582D01*
X424621Y621370D01*
X427094Y624098D01*
X429632Y626764D01*
X432236Y629368D01*
X434902Y631906D01*
X437630Y634379D01*
X440418Y636784D01*
X443264Y639119D01*
X446167Y641385D01*
X449124Y643578D01*
X452134Y645698D01*
X455195Y647743D01*
X458306Y649713D01*
X461464Y651606D01*
X464667Y653420D01*
X467914Y655156D01*
X471203Y656811D01*
X474531Y658385D01*
X477897Y659877D01*
X481298Y661286D01*
X484733Y662611D01*
X488200Y663852D01*
X491696Y665007D01*
X495219Y666075D01*
X498767Y667057D01*
X502339Y667952D01*
X505931Y668759D01*
X509542Y669477D01*
X513169Y670106D01*
X516811Y670647D01*
X520465Y671097D01*
X524129Y671458D01*
X527801Y671729D01*
X531479Y671910D01*
X535159Y672000D01*
X538841Y672000D01*
X542522Y671910D01*
X546199Y671729D01*
X549871Y671458D01*
X553535Y671097D01*
X557189Y670647D01*
X560831Y670106D01*
X564458Y669477D01*
X568069Y668759D01*
X571661Y667952D01*
X575233Y667057D01*
X578781Y666075D01*
X582304Y665007D01*
X585800Y663852D01*
X589267Y662611D01*
X592702Y661286D01*
X596103Y659877D01*
X599469Y658385D01*
X602797Y656811D01*
X606086Y655156D01*
X609333Y653420D01*
X612536Y651606D01*
X615694Y649713D01*
X618805Y647743D01*
X621866Y645698D01*
X624876Y643578D01*
X627834Y641385D01*
X630736Y639119D01*
X633582Y636784D01*
X636370Y634379D01*
X639098Y631906D01*
X641764Y629368D01*
X644368Y626764D01*
X646906Y624098D01*
X649379Y621370D01*
X651784Y618582D01*
X654119Y615736D01*
X656385Y612834D01*
X658578Y609876D01*
X660698Y606866D01*
X662743Y603805D01*
X664713Y600694D01*
X666606Y597536D01*
X668420Y594333D01*
X670156Y591086D01*
X671811Y587797D01*
X673385Y584469D01*
X674877Y581103D01*
X676286Y577702D01*
X677611Y574267D01*
X678852Y570800D01*
X680007Y567304D01*
X681075Y563781D01*
X682057Y560233D01*
X682952Y556661D01*
X683759Y553069D01*
X684477Y549458D01*
X685106Y545831D01*
X685647Y542189D01*
X686097Y538535D01*
X686458Y534871D01*
X686729Y531199D01*
X686910Y527522D01*
X687000Y523841D01*
X687000Y520159D01*
X905000Y641607D02*
X904923Y640825D01*
X904770Y640054D01*
X904541Y639302D01*
X904241Y638575D01*
X903870Y637882D01*
X903433Y637229D01*
X902935Y636621D01*
X902379Y636065D01*
X901771Y635567D01*
X901118Y635130D01*
X900425Y634759D01*
X899698Y634459D01*
X898946Y634230D01*
X898175Y634077D01*
X897393Y634000D01*
X896607Y634000D01*
X895825Y634077D01*
X895054Y634230D01*
X894302Y634459D01*
X893575Y634759D01*
X892882Y635130D01*
X892229Y635567D01*
X891621Y636065D01*
X891065Y636621D01*
X890567Y637229D01*
X890130Y637882D01*
X889759Y638575D01*
X889459Y639302D01*
X889230Y640054D01*
X889077Y640825D01*
X889000Y641607D01*
X889000Y642393D01*
X889077Y643175D01*
X889230Y643946D01*
X889459Y644698D01*
X889759Y645425D01*
X890130Y646118D01*
X890567Y646771D01*
X891065Y647379D01*
X891621Y647935D01*
X892229Y648433D01*
X892882Y648870D01*
X893575Y649241D01*
X894302Y649541D01*
X895054Y649770D01*
X895825Y649923D01*
X896607Y650000D01*
X897393Y650000D01*
X898175Y649923D01*
X898946Y649770D01*
X899698Y649541D01*
X900425Y649241D01*
X901118Y648870D01*
X901771Y648433D01*
X902379Y647935D01*
X902935Y647379D01*
X903433Y646771D01*
X903870Y646118D01*
X904241Y645425D01*
X904541Y644698D01*
X904770Y643946D01*
X904923Y643175D01*
X905000Y642393D01*
X905000Y641607D01*
X865000Y721607D02*
X864923Y720825D01*
X864770Y720054D01*
X864541Y719302D01*
X864241Y718575D01*
X863870Y717882D01*
X863433Y717229D01*
X862935Y716621D01*
X862379Y716065D01*
X861771Y715567D01*
X861118Y715130D01*
X860425Y714759D01*
X859698Y714459D01*
X858946Y714230D01*
X858175Y714077D01*
X857393Y714000D01*
X856607Y714000D01*
X855825Y714077D01*
X855054Y714230D01*
X854302Y714459D01*
X853575Y714759D01*
X852882Y715130D01*
X852229Y715567D01*
X851621Y716065D01*
X851065Y716621D01*
X850567Y717229D01*
X850130Y717882D01*
X849759Y718575D01*
X849459Y719302D01*
X849230Y720054D01*
X849077Y720825D01*
X849000Y721607D01*
X849000Y722393D01*
X849077Y723175D01*
X849230Y723946D01*
X849459Y724698D01*
X849759Y725425D01*
X850130Y726118D01*
X850567Y726771D01*
X851065Y727379D01*
X851621Y727935D01*
X852229Y728433D01*
X852882Y728870D01*
X853575Y729241D01*
X854302Y729541D01*
X855054Y729770D01*
X855825Y729923D01*
X856607Y730000D01*
X857393Y730000D01*
X858175Y729923D01*
X858946Y729770D01*
X859698Y729541D01*
X860425Y729241D01*
X861118Y728870D01*
X861771Y728433D01*
X862379Y727935D01*
X862935Y727379D01*
X863433Y726771D01*
X863870Y726118D01*
X864241Y725425D01*
X864541Y724698D01*
X864770Y723946D01*
X864923Y723175D01*
X865000Y722393D01*
X865000Y721607D01*
X696000Y866607D02*
X695923Y865825D01*
X695770Y865054D01*
X695541Y864302D01*
X695241Y863575D01*
X694870Y862882D01*
X694433Y862229D01*
X693935Y861621D01*
X693379Y861065D01*
X692771Y860567D01*
X692118Y860130D01*
X691425Y859759D01*
X690698Y859459D01*
X689946Y859230D01*
X689175Y859077D01*
X688393Y859000D01*
X687607Y859000D01*
X686825Y859077D01*
X686054Y859230D01*
X685302Y859459D01*
X684575Y859759D01*
X683882Y860130D01*
X683229Y860567D01*
X682621Y861065D01*
X682065Y861621D01*
X681567Y862229D01*
X681130Y862882D01*
X680759Y863575D01*
X680459Y864302D01*
X680230Y865054D01*
X680077Y865825D01*
X680000Y866607D01*
X680000Y867393D01*
X680077Y868175D01*
X680230Y868946D01*
X680459Y869698D01*
X680759Y870425D01*
X681130Y871118D01*
X681567Y871771D01*
X682065Y872379D01*
X682621Y872935D01*
X683229Y873433D01*
X683882Y873870D01*
X684575Y874241D01*
X685302Y874541D01*
X686054Y874770D01*
X686825Y874923D01*
X687607Y875000D01*
X688393Y875000D01*
X689175Y874923D01*
X689946Y874770D01*
X690698Y874541D01*
X691425Y874241D01*
X692118Y873870D01*
X692771Y873433D01*
X693379Y872935D01*
X693935Y872379D01*
X694433Y871771D01*
X694870Y871118D01*
X695241Y870425D01*
X695541Y869698D01*
X695770Y868946D01*
X695923Y868175D01*
X696000Y867393D01*
X696000Y866607D01*
X521000Y896607D02*
X520923Y895825D01*
X520770Y895054D01*
X520541Y894302D01*
X520241Y893575D01*
X519870Y892882D01*
X519433Y892229D01*
X518935Y891621D01*
X518379Y891065D01*
X517771Y890567D01*
X517118Y890130D01*
X516425Y889759D01*
X515698Y889459D01*
X514946Y889230D01*
X514175Y889077D01*
X513393Y889000D01*
X512607Y889000D01*
X511825Y889077D01*
X511054Y889230D01*
X510302Y889459D01*
X509575Y889759D01*
X508882Y890130D01*
X508229Y890567D01*
X507621Y891065D01*
X507065Y891621D01*
X506567Y892229D01*
X506130Y892882D01*
X505759Y893575D01*
X505459Y894302D01*
X505230Y895054D01*
X505077Y895825D01*
X505000Y896607D01*
X505000Y897393D01*
X505077Y898175D01*
X505230Y898946D01*
X505459Y899698D01*
X505759Y900425D01*
X506130Y901118D01*
X506567Y901771D01*
X507065Y902379D01*
X507621Y902935D01*
X508229Y903433D01*
X508882Y903870D01*
X509575Y904241D01*
X510302Y904541D01*
X511054Y904770D01*
X511825Y904923D01*
X512607Y905000D01*
X513393Y905000D01*
X514175Y904923D01*
X514946Y904770D01*
X515698Y904541D01*
X516425Y904241D01*
X517118Y903870D01*
X517771Y903433D01*
X518379Y902935D01*
X518935Y902379D01*
X519433Y901771D01*
X519870Y901118D01*
X520241Y900425D01*
X520541Y899698D01*
X520770Y898946D01*
X520923Y898175D01*
X521000Y897393D01*
X521000Y896607D01*
X271000Y778607D02*
X270923Y777825D01*
X270770Y777054D01*
X270541Y776302D01*
X270241Y775575D01*
X269870Y774882D01*
X269433Y774229D01*
X268935Y773621D01*
X268379Y773065D01*
X267771Y772567D01*
X267118Y772130D01*
X266425Y771759D01*
X265698Y771459D01*
X264946Y771230D01*
X264175Y771077D01*
X263393Y771000D01*
X262607Y771000D01*
X261825Y771077D01*
X261054Y771230D01*
X260302Y771459D01*
X259575Y771759D01*
X258882Y772130D01*
X258229Y772567D01*
X257621Y773065D01*
X257065Y773621D01*
X256567Y774229D01*
X256130Y774882D01*
X255759Y775575D01*
X255459Y776302D01*
X255230Y777054D01*
X255077Y777825D01*
X255000Y778607D01*
X255000Y779393D01*
X255077Y780175D01*
X255230Y780946D01*
X255459Y781698D01*
X255759Y782425D01*
X256130Y783118D01*
X256567Y783771D01*
X257065Y784379D01*
X257621Y784935D01*
X258229Y785433D01*
X258882Y785870D01*
X259575Y786241D01*
X260302Y786541D01*
X261054Y786770D01*
X261825Y786923D01*
X262607Y787000D01*
X263393Y787000D01*
X264175Y786923D01*
X264946Y786770D01*
X265698Y786541D01*
X266425Y786241D01*
X267118Y785870D01*
X267771Y785433D01*
X268379Y784935D01*
X268935Y784379D01*
X269433Y783771D01*
X269870Y783118D01*
X270241Y782425D01*
X270541Y781698D01*
X270770Y780946D01*
X270923Y780175D01*
X271000Y779393D01*
X271000Y778607D01*
X422000Y876607D02*
X421923Y875825D01*
X421770Y875054D01*
X421541Y874302D01*
X421241Y873575D01*
X420870Y872882D01*
X420433Y872229D01*
X419935Y871621D01*
X419379Y871065D01*
X418771Y870567D01*
X418118Y870130D01*
X417425Y869759D01*
X416698Y869459D01*
X415946Y869230D01*
X415175Y869077D01*
X414393Y869000D01*
X413607Y869000D01*
X412825Y869077D01*
X412054Y869230D01*
X411302Y869459D01*
X410575Y869759D01*
X409882Y870130D01*
X409229Y870567D01*
X408621Y871065D01*
X408065Y871621D01*
X407567Y872229D01*
X407130Y872882D01*
X406759Y873575D01*
X406459Y874302D01*
X406230Y875054D01*
X406077Y875825D01*
X406000Y876607D01*
X406000Y877393D01*
X406077Y878175D01*
X406230Y878946D01*
X406459Y879698D01*
X406759Y880425D01*
X407130Y881118D01*
X407567Y881771D01*
X408065Y882379D01*
X408621Y882935D01*
X409229Y883433D01*
X409882Y883870D01*
X410575Y884241D01*
X411302Y884541D01*
X412054Y884770D01*
X412825Y884923D01*
X413607Y885000D01*
X414393Y885000D01*
X415175Y884923D01*
X415946Y884770D01*
X416698Y884541D01*
X417425Y884241D01*
X418118Y883870D01*
X418771Y883433D01*
X419379Y882935D01*
X419935Y882379D01*
X420433Y881771D01*
X420870Y881118D01*
X421241Y880425D01*
X421541Y879698D01*
X421770Y878946D01*
X421923Y878175D01*
X422000Y877393D01*
X422000Y876607D01*
X905000Y641607D02*
X904923Y640825D01*
X904770Y640054D01*
X904541Y639302D01*
X904241Y638575D01*
X903870Y637882D01*
X903433Y637229D01*
X902935Y636621D01*
X902379Y636065D01*
X901771Y635567D01*
X901118Y635130D01*
X900425Y634759D01*
X899698Y634459D01*
X898946Y634230D01*
X898175Y634077D01*
X897393Y634000D01*
X896607Y634000D01*
X895825Y634077D01*
X895054Y634230D01*
X894302Y634459D01*
X893575Y634759D01*
X892882Y635130D01*
X892229Y635567D01*
X891621Y636065D01*
X891065Y636621D01*
X890567Y637229D01*
X890130Y637882D01*
X889759Y638575D01*
X889459Y639302D01*
X889230Y640054D01*
X889077Y640825D01*
X889000Y641607D01*
X889000Y642393D01*
X889077Y643175D01*
X889230Y643946D01*
X889459Y644698D01*
X889759Y645425D01*
X890130Y646118D01*
X890567Y646771D01*
X891065Y647379D01*
X891621Y647935D01*
X892229Y648433D01*
X892882Y648870D01*
X893575Y649241D01*
X894302Y649541D01*
X895054Y649770D01*
X895825Y649923D01*
X896607Y650000D01*
X897393Y650000D01*
X898175Y649923D01*
X898946Y649770D01*
X899698Y649541D01*
X900425Y649241D01*
X901118Y648870D01*
X901771Y648433D01*
X902379Y647935D01*
X902935Y647379D01*
X903433Y646771D01*
X903870Y646118D01*
X904241Y645425D01*
X904541Y644698D01*
X904770Y643946D01*
X904923Y643175D01*
X905000Y642393D01*
X905000Y641607D01*
X865000Y721607D02*
X864923Y720825D01*
X864770Y720054D01*
X864541Y719302D01*
X864241Y718575D01*
X863870Y717882D01*
X863433Y717229D01*
X862935Y716621D01*
X862379Y716065D01*
X861771Y715567D01*
X861118Y715130D01*
X860425Y714759D01*
X859698Y714459D01*
X858946Y714230D01*
X858175Y714077D01*
X857393Y714000D01*
X856607Y714000D01*
X855825Y714077D01*
X855054Y714230D01*
X854302Y714459D01*
X853575Y714759D01*
X852882Y715130D01*
X852229Y715567D01*
X851621Y716065D01*
X851065Y716621D01*
X850567Y717229D01*
X850130Y717882D01*
X849759Y718575D01*
X849459Y719302D01*
X849230Y720054D01*
X849077Y720825D01*
X849000Y721607D01*
X849000Y722393D01*
X849077Y723175D01*
X849230Y723946D01*
X849459Y724698D01*
X849759Y725425D01*
X850130Y726118D01*
X850567Y726771D01*
X851065Y727379D01*
X851621Y727935D01*
X852229Y728433D01*
X852882Y728870D01*
X853575Y729241D01*
X854302Y729541D01*
X855054Y729770D01*
X855825Y729923D01*
X856607Y730000D01*
X857393Y730000D01*
X858175Y729923D01*
X858946Y729770D01*
X859698Y729541D01*
X860425Y729241D01*
X861118Y728870D01*
X861771Y728433D01*
X862379Y727935D01*
X862935Y727379D01*
X863433Y726771D01*
X863870Y726118D01*
X864241Y725425D01*
X864541Y724698D01*
X864770Y723946D01*
X864923Y723175D01*
X865000Y722393D01*
X865000Y721607D01*
X696000Y866607D02*
X695923Y865825D01*
X695770Y865054D01*
X695541Y864302D01*
X695241Y863575D01*
X694870Y862882D01*
X694433Y862229D01*
X693935Y861621D01*
X693379Y861065D01*
X692771Y860567D01*
X692118Y860130D01*
X691425Y859759D01*
X690698Y859459D01*
X689946Y859230D01*
X689175Y859077D01*
X688393Y859000D01*
X687607Y859000D01*
X686825Y859077D01*
X686054Y859230D01*
X685302Y859459D01*
X684575Y859759D01*
X683882Y860130D01*
X683229Y860567D01*
X682621Y861065D01*
X682065Y861621D01*
X681567Y862229D01*
X681130Y862882D01*
X680759Y863575D01*
X680459Y864302D01*
X680230Y865054D01*
X680077Y865825D01*
X680000Y866607D01*
X680000Y867393D01*
X680077Y868175D01*
X680230Y868946D01*
X680459Y869698D01*
X680759Y870425D01*
X681130Y871118D01*
X681567Y871771D01*
X682065Y872379D01*
X682621Y872935D01*
X683229Y873433D01*
X683882Y873870D01*
X684575Y874241D01*
X685302Y874541D01*
X686054Y874770D01*
X686825Y874923D01*
X687607Y875000D01*
X688393Y875000D01*
X689175Y874923D01*
X689946Y874770D01*
X690698Y874541D01*
X691425Y874241D01*
X692118Y873870D01*
X692771Y873433D01*
X693379Y872935D01*
X693935Y872379D01*
X694433Y871771D01*
X694870Y871118D01*
X695241Y870425D01*
X695541Y869698D01*
X695770Y868946D01*
X695923Y868175D01*
X696000Y867393D01*
X696000Y866607D01*
X521000Y896607D02*
X520923Y895825D01*
X520770Y895054D01*
X520541Y894302D01*
X520241Y893575D01*
X519870Y892882D01*
X519433Y892229D01*
X518935Y891621D01*
X518379Y891065D01*
X517771Y890567D01*
X517118Y890130D01*
X516425Y889759D01*
X515698Y889459D01*
X514946Y889230D01*
X514175Y889077D01*
X513393Y889000D01*
X512607Y889000D01*
X511825Y889077D01*
X511054Y889230D01*
X510302Y889459D01*
X509575Y889759D01*
X508882Y890130D01*
X508229Y890567D01*
X507621Y891065D01*
X507065Y891621D01*
X506567Y892229D01*
X506130Y892882D01*
X505759Y893575D01*
X505459Y894302D01*
X505230Y895054D01*
X505077Y895825D01*
X505000Y896607D01*
X505000Y897393D01*
X505077Y898175D01*
X505230Y898946D01*
X505459Y899698D01*
X505759Y900425D01*
X506130Y901118D01*
X506567Y901771D01*
X507065Y902379D01*
X507621Y902935D01*
X508229Y903433D01*
X508882Y903870D01*
X509575Y904241D01*
X510302Y904541D01*
X511054Y904770D01*
X511825Y904923D01*
X512607Y905000D01*
X513393Y905000D01*
X514175Y904923D01*
X514946Y904770D01*
X515698Y904541D01*
X516425Y904241D01*
X517118Y903870D01*
X517771Y903433D01*
X518379Y902935D01*
X518935Y902379D01*
X519433Y901771D01*
X519870Y901118D01*
X520241Y900425D01*
X520541Y899698D01*
X520770Y898946D01*
X520923Y898175D01*
X521000Y897393D01*
X521000Y896607D01*
X271000Y778607D02*
X270923Y777825D01*
X270770Y777054D01*
X270541Y776302D01*
X270241Y775575D01*
X269870Y774882D01*
X269433Y774229D01*
X268935Y773621D01*
X268379Y773065D01*
X267771Y772567D01*
X267118Y772130D01*
X266425Y771759D01*
X265698Y771459D01*
X264946Y771230D01*
X264175Y771077D01*
X263393Y771000D01*
X262607Y771000D01*
X261825Y771077D01*
X261054Y771230D01*
X260302Y771459D01*
X259575Y771759D01*
X258882Y772130D01*
X258229Y772567D01*
X257621Y773065D01*
X257065Y773621D01*
X256567Y774229D01*
X256130Y774882D01*
X255759Y775575D01*
X255459Y776302D01*
X255230Y777054D01*
X255077Y777825D01*
X255000Y778607D01*
X255000Y779393D01*
X255077Y780175D01*
X255230Y780946D01*
X255459Y781698D01*
X255759Y782425D01*
X256130Y783118D01*
X256567Y783771D01*
X257065Y784379D01*
X257621Y784935D01*
X258229Y785433D01*
X258882Y785870D01*
X259575Y786241D01*
X260302Y786541D01*
X261054Y786770D01*
X261825Y786923D01*
X262607Y787000D01*
X263393Y787000D01*
X264175Y786923D01*
X264946Y786770D01*
X265698Y786541D01*
X266425Y786241D01*
X267118Y785870D01*
X267771Y785433D01*
X268379Y784935D01*
X268935Y784379D01*
X269433Y783771D01*
X269870Y783118D01*
X270241Y782425D01*
X270541Y781698D01*
X270770Y780946D01*
X270923Y780175D01*
X271000Y779393D01*
X271000Y778607D01*
X422000Y876607D02*
X421923Y875825D01*
X421770Y875054D01*
X421541Y874302D01*
X421241Y873575D01*
X420870Y872882D01*
X420433Y872229D01*
X419935Y871621D01*
X419379Y871065D01*
X418771Y870567D01*
X418118Y870130D01*
X417425Y869759D01*
X416698Y869459D01*
X415946Y869230D01*
X415175Y869077D01*
X414393Y869000D01*
X413607Y869000D01*
X412825Y869077D01*
X412054Y869230D01*
X411302Y869459D01*
X410575Y869759D01*
X409882Y870130D01*
X409229Y870567D01*
X408621Y871065D01*
X408065Y871621D01*
X407567Y872229D01*
X407130Y872882D01*
X406759Y873575D01*
X406459Y874302D01*
X406230Y875054D01*
X406077Y875825D01*
X406000Y876607D01*
X406000Y877393D01*
X406077Y878175D01*
X406230Y878946D01*
X406459Y879698D01*
X406759Y880425D01*
X407130Y881118D01*
X407567Y881771D01*
X408065Y882379D01*
X408621Y882935D01*
X409229Y883433D01*
X409882Y883870D01*
X410575Y884241D01*
X411302Y884541D01*
X412054Y884770D01*
X412825Y884923D01*
X413607Y885000D01*
X414393Y885000D01*
X415175Y884923D01*
X415946Y884770D01*
X416698Y884541D01*
X417425Y884241D01*
X418118Y883870D01*
X418771Y883433D01*
X419379Y882935D01*
X419935Y882379D01*
X420433Y881771D01*
X420870Y881118D01*
X421241Y880425D01*
X421541Y879698D01*
X421770Y878946D01*
X421923Y878175D01*
X422000Y877393D01*
X422000Y876607D01*
M02*
