G04 EAGLE Gerber X2 export*
%TF.Part,Single*%
%TF.FileFunction,Paste,Bot*%
%TF.FilePolarity,Positive*%
%TF.GenerationSoftware,Autodesk,EAGLE,8.6.0*%
%TF.CreationDate,2018-04-20T19:50:09Z*%
G75*
%MOMM*%
%FSLAX34Y34*%
%LPD*%
%AMOC8*
5,1,8,0,0,1.08239X$1,22.5*%
G01*
%ADD10R,1.300000X1.500000*%
%ADD11R,0.900000X0.700000*%
%ADD12R,0.700000X0.900000*%
%ADD13R,1.000000X0.800000*%
%ADD14R,0.800000X1.000000*%
%ADD15R,1.200000X1.300000*%
%ADD16R,1.300000X1.200000*%
%ADD17R,0.245000X1.600000*%
%ADD18R,1.600000X0.245000*%
%ADD19R,2.032000X0.660400*%
%ADD20R,2.200000X0.600000*%
%ADD21R,5.080000X2.540000*%
%ADD22R,0.600000X0.700000*%
%ADD23R,1.400000X1.200000*%
%ADD24R,0.850000X0.280000*%
%ADD25R,0.280000X0.850000*%
%ADD26R,4.150000X4.150000*%
%ADD27C,0.330000*%
%ADD28R,2.800000X2.100000*%
%ADD29R,1.000000X0.600000*%
%ADD30R,1.800000X1.250000*%


D10*
X848500Y676800D03*
X829500Y676800D03*
D11*
X813100Y672800D03*
X813100Y685800D03*
D12*
X753300Y688800D03*
X740300Y688800D03*
X442700Y791300D03*
X429700Y791300D03*
X313270Y782790D03*
X300270Y782790D03*
D11*
X535360Y871728D03*
X535360Y884728D03*
X551232Y871576D03*
X551232Y884576D03*
D12*
X597266Y876632D03*
X584266Y876632D03*
D11*
X655218Y852582D03*
X655218Y865582D03*
D12*
X455314Y871568D03*
X442314Y871568D03*
X473662Y876718D03*
X486662Y876718D03*
X633700Y779200D03*
X646700Y779200D03*
X635200Y763200D03*
X648200Y763200D03*
D11*
X561800Y871700D03*
X561800Y884700D03*
X282700Y692400D03*
X282700Y679400D03*
D12*
X830300Y696700D03*
X843300Y696700D03*
D10*
X829400Y655700D03*
X848400Y655700D03*
D13*
X333638Y799692D03*
X353638Y799692D03*
D14*
X398954Y746140D03*
X398954Y726140D03*
D15*
X234878Y696622D03*
X255198Y696622D03*
D16*
X280904Y632316D03*
X280904Y652636D03*
D17*
X599000Y701500D03*
X595000Y701500D03*
X591000Y701500D03*
X587000Y701500D03*
X583000Y701500D03*
X579000Y701500D03*
X575000Y701500D03*
X571000Y701500D03*
X567000Y701500D03*
X563000Y701500D03*
X559000Y701500D03*
X555000Y701500D03*
X551000Y701500D03*
X547000Y701500D03*
X543000Y701500D03*
X539000Y701500D03*
X535000Y701500D03*
X531000Y701500D03*
X527000Y701500D03*
X523000Y701500D03*
X519000Y701500D03*
X515000Y701500D03*
X511000Y701500D03*
X507000Y701500D03*
X503000Y701500D03*
X499000Y701500D03*
X495000Y701500D03*
X491000Y701500D03*
X487000Y701500D03*
X483000Y701500D03*
X479000Y701500D03*
X475000Y701500D03*
D18*
X460500Y716000D03*
X460500Y720000D03*
X460500Y724000D03*
X460500Y728000D03*
X460500Y732000D03*
X460500Y736000D03*
X460500Y740000D03*
X460500Y744000D03*
X460500Y748000D03*
X460500Y752000D03*
X460500Y756000D03*
X460500Y760000D03*
X460500Y764000D03*
X460500Y768000D03*
X460500Y772000D03*
X460500Y776000D03*
X460500Y780000D03*
X460500Y784000D03*
X460500Y788000D03*
X460500Y792000D03*
X460500Y796000D03*
X460500Y800000D03*
X460500Y804000D03*
X460500Y808000D03*
X460500Y812000D03*
X460500Y816000D03*
X460500Y820000D03*
X460500Y824000D03*
X460500Y828000D03*
X460500Y832000D03*
X460500Y836000D03*
X460500Y840000D03*
D17*
X475000Y854500D03*
X479000Y854500D03*
X483000Y854500D03*
X487000Y854500D03*
X491000Y854500D03*
X495000Y854500D03*
X499000Y854500D03*
X503000Y854500D03*
X507000Y854500D03*
X511000Y854500D03*
X515000Y854500D03*
X519000Y854500D03*
X523000Y854500D03*
X527000Y854500D03*
X531000Y854500D03*
X535000Y854500D03*
X539000Y854500D03*
X543000Y854500D03*
X547000Y854500D03*
X551000Y854500D03*
X555000Y854500D03*
X559000Y854500D03*
X563000Y854500D03*
X567000Y854500D03*
X571000Y854500D03*
X575000Y854500D03*
X579000Y854500D03*
X583000Y854500D03*
X587000Y854500D03*
X591000Y854500D03*
X595000Y854500D03*
X599000Y854500D03*
D18*
X613500Y840000D03*
X613500Y836000D03*
X613500Y832000D03*
X613500Y828000D03*
X613500Y824000D03*
X613500Y820000D03*
X613500Y816000D03*
X613500Y812000D03*
X613500Y808000D03*
X613500Y804000D03*
X613500Y800000D03*
X613500Y796000D03*
X613500Y792000D03*
X613500Y788000D03*
X613500Y784000D03*
X613500Y780000D03*
X613500Y776000D03*
X613500Y772000D03*
X613500Y768000D03*
X613500Y764000D03*
X613500Y760000D03*
X613500Y756000D03*
X613500Y752000D03*
X613500Y748000D03*
X613500Y744000D03*
X613500Y740000D03*
X613500Y736000D03*
X613500Y732000D03*
X613500Y728000D03*
X613500Y724000D03*
X613500Y720000D03*
X613500Y716000D03*
D19*
X308244Y724558D03*
X369712Y724558D03*
X308244Y737258D03*
X308244Y749958D03*
X369712Y737258D03*
X369712Y749958D03*
X308244Y762658D03*
X369712Y762658D03*
D20*
X271590Y493686D03*
X363590Y519086D03*
X271590Y480986D03*
X271590Y506386D03*
X271590Y519086D03*
X363590Y506386D03*
X363590Y531786D03*
X363590Y544486D03*
X271590Y544486D03*
X363590Y569886D03*
X271590Y531786D03*
X271590Y557186D03*
X363590Y557186D03*
X271590Y569886D03*
X363590Y493686D03*
X363590Y480986D03*
D21*
X229244Y626940D03*
X229244Y666940D03*
D22*
X641900Y838700D03*
X651900Y838700D03*
X430200Y817900D03*
X440200Y817900D03*
D12*
X335996Y783328D03*
X348996Y783328D03*
D11*
X414738Y730012D03*
X414738Y743012D03*
D23*
X614136Y869210D03*
X636136Y869210D03*
X636136Y853210D03*
X614136Y853210D03*
D24*
X747250Y639282D03*
D25*
X774500Y607032D03*
D24*
X806750Y634282D03*
D25*
X774500Y666532D03*
X769500Y666532D03*
X764500Y666532D03*
X759500Y666532D03*
X754500Y666532D03*
X779500Y666532D03*
X784500Y666532D03*
X789500Y666532D03*
X794500Y666532D03*
X799500Y666532D03*
X769500Y607032D03*
X764500Y607032D03*
X759500Y607032D03*
X754500Y607032D03*
X779500Y607032D03*
X784500Y607032D03*
X789500Y607032D03*
X794500Y607032D03*
X799500Y607032D03*
D24*
X806750Y629282D03*
X806750Y624282D03*
X806750Y619282D03*
X806750Y614282D03*
X806750Y639282D03*
X806750Y644282D03*
X806750Y654282D03*
X806750Y649282D03*
X806750Y659282D03*
X747250Y634282D03*
X747250Y629282D03*
X747250Y624282D03*
X747250Y619282D03*
X747250Y614282D03*
X747250Y644282D03*
X747250Y649282D03*
X747250Y654282D03*
X747250Y659282D03*
D26*
X777000Y636782D03*
D27*
X436964Y847990D02*
X429264Y847990D01*
X429264Y863690D01*
X436964Y863690D01*
X436964Y847990D01*
X436964Y851289D02*
X429264Y851289D01*
X429264Y854588D02*
X436964Y854588D01*
X436964Y857887D02*
X429264Y857887D01*
X429264Y861186D02*
X436964Y861186D01*
X453264Y847990D02*
X460964Y847990D01*
X453264Y847990D02*
X453264Y863690D01*
X460964Y863690D01*
X460964Y847990D01*
X460964Y851289D02*
X453264Y851289D01*
X453264Y854588D02*
X460964Y854588D01*
X460964Y857887D02*
X453264Y857887D01*
X453264Y861186D02*
X460964Y861186D01*
D28*
X190000Y578500D03*
X190000Y466000D03*
D29*
X267400Y390000D03*
X267400Y375000D03*
X267400Y360000D03*
X267400Y405000D03*
X267400Y420000D03*
D30*
X215500Y333950D03*
X215500Y446050D03*
M02*
